<?xml version='1.0' encoding='utf-8'?>
<svg xmlns="http://www.w3.org/2000/svg" viewBox="0 0 1920 400" width="1920" height="400" fill="none"><defs><clipPath id="canvasClip"><rect width="1920" height="400" /></clipPath></defs><g clip-path="url(#canvasClip)"><g transform="translate(1115.0 -125.0) scale(5.555555555555555)"><path d="M58.1198 1C89.6667 1 115.24 26.5729 115.24 58.1198C115.24 89.6667 89.6667 115.24 58.1198 115.24C26.5729 115.24 1 89.6667 1 58.1198C1 26.5729 26.5729 1 58.1198 1Z" stroke="#000000" stroke-width="2" stroke-miterlimit="10" fill="none" vector-effect="non-scaling-stroke" stroke-linecap="round" stroke-linejoin="round" /><path d="M58.1198 22.151C77.9844 22.151 94.0885 38.2552 94.0885 58.1198C94.0885 77.9844 77.9844 94.0885 58.1198 94.0885C38.2552 94.0885 22.151 77.9844 22.151 58.1198C22.151 38.2552 38.2552 22.151 58.1198 22.151Z" stroke="#000000" stroke-width="2" stroke-miterlimit="10" fill="none" vector-effect="non-scaling-stroke" stroke-linecap="round" stroke-linejoin="round" /><path d="M40.8073 58.1198C40.8073 67.6823 48.5625 75.4323 58.1198 75.4323C67.6823 75.4323 75.4323 67.6823 75.4323 58.1198C75.4323 48.5573 67.6823 40.8073 58.1198 40.8073C48.5625 40.8073 40.8073 48.5573 40.8073 58.1198Z" stroke="#000000" stroke-width="2" stroke-miterlimit="10" fill="none" vector-effect="non-scaling-stroke" stroke-linecap="round" stroke-linejoin="round" /></g></g></svg>