<?xml version='1.0' encoding='utf-8'?>
<svg xmlns="http://www.w3.org/2000/svg" viewBox="0 0 1920 400" width="1920" height="400" fill="none"><defs><clipPath id="canvasClip"><rect width="1920" height="400" /></clipPath></defs><g clip-path="url(#canvasClip)"><g transform="translate(1115.0 -125.0) scale(5.603448275862069)"><path d="M114.099 57.5469C114.099 88.776 88.7812 114.094 57.5469 114.094C26.3177 114.094 1 88.776 1 57.5469C1 26.3177 26.3177 1 57.5469 1C88.7812 1 114.099 26.3177 114.099 57.5469Z" stroke="#000000" stroke-width="2" stroke-miterlimit="10" fill="none" vector-effect="non-scaling-stroke" stroke-linecap="round" stroke-linejoin="round" /><path d="M107.792 107.792H7.99998V8.00001H107.792V107.792Z" stroke="#000000" stroke-width="2" stroke-miterlimit="10" fill="none" vector-effect="non-scaling-stroke" stroke-linecap="round" stroke-linejoin="round" /><path d="M78.3698 57.1875C78.3698 68.3385 69.3334 77.375 58.1875 77.375C47.0365 77.375 38 68.3385 38 57.1875C38 46.0365 47.0365 37 58.1875 37C69.3334 37 78.3698 46.0365 78.3698 57.1875Z" stroke="#000000" stroke-width="2" stroke-miterlimit="10" fill="none" vector-effect="non-scaling-stroke" stroke-linecap="round" stroke-linejoin="round" /><path d="M91.5261 90.5312H25V24H91.5261V90.5312Z" stroke="#000000" stroke-width="2" stroke-miterlimit="10" fill="none" vector-effect="non-scaling-stroke" stroke-linecap="round" stroke-linejoin="round" /></g></g></svg>