<?xml version='1.0' encoding='utf-8'?>
<svg xmlns="http://www.w3.org/2000/svg" viewBox="0 0 1920 400" width="1920" height="400" fill="none"><defs><clipPath id="canvasClip"><rect width="1920" height="400" /></clipPath></defs><g clip-path="url(#canvasClip)"><g transform="translate(1115.0 -125.0) scale(5.603448275862069)"><path d="M57.7552 29.3753C57.7552 45.0471 45.0521 57.7555 29.3802 57.7555M57.7552 29.3753C57.7552 13.7034 45.0521 1.00027 29.3802 1.00027M57.7552 29.3753C57.7552 45.0471 70.4583 57.7552 86.1302 57.7552M57.7552 29.3753C57.7552 13.7034 70.4583 1 86.1302 1M29.3802 57.7555C13.7083 57.7555 1 45.0471 1 29.3753C1 13.7034 13.7083 1.00027 29.3802 1.00027M29.3802 57.7555C13.7083 57.7555 1 70.4586 1 86.1305C1 101.802 13.7083 114.505 29.3802 114.505C45.0521 114.505 57.7552 101.802 57.7552 86.1305M29.3802 57.7555C45.0521 57.7555 57.7552 70.4586 57.7552 86.1305M29.3802 57.7555V86.1305M29.3802 1.00027V29.3753M86.1302 57.7552C101.802 57.7552 114.51 45.0469 114.51 29.375C114.51 13.7031 101.802 1 86.1302 1M86.1302 57.7552C70.4583 57.7552 57.7552 70.4586 57.7552 86.1305M86.1302 57.7552C101.802 57.7552 114.51 70.4583 114.51 86.1302C114.51 101.802 101.802 114.505 86.1302 114.505C70.4583 114.505 57.7552 101.802 57.7552 86.1305M86.1302 57.7552V86.1302M86.1302 1V29.375" stroke="#000000" stroke-width="2" stroke-miterlimit="10" fill="none" vector-effect="non-scaling-stroke" stroke-linecap="round" stroke-linejoin="round" /></g></g></svg>