<?xml version='1.0' encoding='utf-8'?>
<svg xmlns="http://www.w3.org/2000/svg" viewBox="0 0 1920 400" width="1920" height="400" fill="none"><defs><clipPath id="canvasClip"><rect width="1920" height="400" /></clipPath></defs><g clip-path="url(#canvasClip)"><g transform="translate(1121.701030927835 -125.0) scale(6.701030927835052)"><path d="M64.1326 71.8644H38.2623L24.577 48.3462L38.2623 24.8194H64.1853M64.1326 71.8644L59.9429 67.5802M64.1326 71.8644L59.9429 75.907M64.1853 24.8194L60.0575 20.5317M64.1853 24.8194L59.9957 28.8621M38.3187 15.4427H74.5752L93.7703 48.4273L74.5752 81.4027H38.3187M38.3187 15.4427L42.5084 11.1585M38.3187 15.4427L42.5084 19.4854M74.4901 5.09602H26.6115L1.26331 48.61L26.6115 92.1118H74.4901M74.4901 5.09602L70.3622 0.80835M74.4901 5.09602L70.3004 9.13874M74.4901 92.1118L70.3004 87.8694M74.4901 92.1118L70.3004 96.1545" stroke="#000000" stroke-width="2" stroke-miterlimit="10" fill="none" vector-effect="non-scaling-stroke" stroke-linecap="round" stroke-linejoin="round" /></g></g></svg>