<?xml version='1.0' encoding='utf-8'?>
<svg xmlns="http://www.w3.org/2000/svg" viewBox="0 0 1920 400" width="1920" height="400" fill="none"><defs><clipPath id="canvasClip"><rect width="1920" height="400" /></clipPath></defs><g clip-path="url(#canvasClip)"><g transform="translate(1262.2222222222222 -125.0) scale(5.555555555555555)"><path d="M62.2292 84.875C62.2292 101.521 48.7344 115.016 32.0938 115.016C15.4479 115.016 1.95312 101.521 1.95312 84.875H62.2292ZM62.2292 48.6042C62.2292 65.25 48.7344 78.7396 32.0938 78.7396C15.4479 78.7396 1.95312 65.25 1.95312 48.6042H62.2292ZM52.2813 21.3542C52.2813 32.5052 43.2396 41.5417 32.0938 41.5417C20.9427 41.5417 11.9063 32.5052 11.9063 21.3542C11.9063 10.2084 20.9427 1.16669 32.0938 1.16669C43.2396 1.16669 52.2813 10.2084 52.2813 21.3542Z" stroke="#000000" stroke-width="2" stroke-miterlimit="10" fill="none" vector-effect="non-scaling-stroke" stroke-linecap="round" stroke-linejoin="round" /></g></g></svg>