<?xml version='1.0' encoding='utf-8'?>
<svg xmlns="http://www.w3.org/2000/svg" viewBox="0 0 1920 400" width="1920" height="400" fill="none"><defs><clipPath id="canvasClip"><rect width="1920" height="400" /></clipPath></defs><g clip-path="url(#canvasClip)"><g transform="translate(1115.0 -125.0) scale(6.565656565656566)"><path d="M74.2992 5.31781C72.4381 14.8846 64.8732 22.3816 55.3143 24.2227C64.9215 26.0759 72.4502 33.609 74.2992 43.1277C76.1602 33.5609 83.7252 26.0639 93.2841 24.2227C83.6768 22.3696 76.1481 14.8365 74.2992 5.31781Z" stroke="#000000" stroke-width="2" stroke-miterlimit="10" fill="none" vector-effect="non-scaling-stroke" stroke-linecap="round" stroke-linejoin="round" /><path d="M74.2992 92.9375C72.4381 83.3707 64.8732 75.8737 55.3143 74.0326C64.9215 72.1794 72.4502 64.6463 74.2992 55.1276C76.1602 64.6944 83.7252 72.1914 93.2841 74.0326C83.6768 75.8857 76.1481 83.4188 74.2992 92.9375Z" stroke="#000000" stroke-width="2" stroke-miterlimit="10" fill="none" vector-effect="non-scaling-stroke" stroke-linecap="round" stroke-linejoin="round" /><path d="M24.3294 5.31775C26.1904 14.8845 33.7554 22.3815 43.3143 24.2227C33.707 26.0759 26.1783 33.609 24.3294 43.1276C22.4683 33.5608 14.9034 26.0638 5.34448 24.2227C14.9517 22.3695 22.4804 14.8364 24.3294 5.31775Z" stroke="#000000" stroke-width="2" stroke-miterlimit="10" fill="none" vector-effect="non-scaling-stroke" stroke-linecap="round" stroke-linejoin="round" /><path d="M24.3294 92.9375C26.1905 83.3707 33.7554 75.8737 43.3143 74.0326C33.7071 72.1794 26.1784 64.6463 24.3294 55.1276C22.4684 64.6944 14.9035 72.1914 5.34455 74.0326C14.9518 75.8857 22.4805 83.4188 24.3294 92.9375Z" stroke="#000000" stroke-width="2" stroke-miterlimit="10" fill="none" vector-effect="non-scaling-stroke" stroke-linecap="round" stroke-linejoin="round" /></g></g></svg>