<?xml version='1.0' encoding='utf-8'?>
<svg xmlns="http://www.w3.org/2000/svg" viewBox="0 0 1920 400" width="1920" height="400" fill="none"><defs><clipPath id="canvasClip"><rect width="1920" height="400" /></clipPath></defs><g clip-path="url(#canvasClip)"><g transform="translate(1110.1492537313434 -125.0) scale(4.850746268656716)"><path d="M1 1L104.454 67L1 133M134.86 133L31.4011 67L134.86 1M84.16 67.0693C84.16 78.2824 93.2562 87.3786 104.469 87.3786C115.688 87.3786 124.779 78.2824 124.779 67.0693C124.779 55.851 115.688 46.76 104.469 46.76C93.2562 46.76 84.16 55.851 84.16 67.0693ZM51.7386 67.0693C51.7386 55.851 42.6476 46.76 31.4346 46.76C20.2162 46.76 11.12 55.851 11.12 67.0693C11.12 78.2824 20.2162 87.3786 31.4346 87.3786C42.6476 87.3786 51.7386 78.2824 51.7386 67.0693Z" stroke="#000000" stroke-width="2" stroke-miterlimit="10" fill="none" vector-effect="non-scaling-stroke" stroke-linecap="round" stroke-linejoin="round" /></g></g></svg>