<?xml version='1.0' encoding='utf-8'?>
<svg xmlns="http://www.w3.org/2000/svg" viewBox="0 0 1920 400" width="1920" height="400" fill="none"><defs><clipPath id="canvasClip"><rect width="1920" height="400" /></clipPath></defs><g clip-path="url(#canvasClip)"><g transform="translate(1161.875 -125.0) scale(6.25)"><path d="M72.9375 102.844C72.9375 88.6042 63.4166 73.0937 38.4375 57.625C13.3229 42.0781 0.994751 19.4583 0.994751 1.17708L15.4948 1.17188C15.4948 15.4115 25.0156 30.9323 49.9948 46.3958C75.1093 61.9427 87.4323 84.5625 87.4323 102.839L72.9375 102.844Z" stroke="#000000" stroke-width="2" stroke-miterlimit="10" fill="none" vector-effect="non-scaling-stroke" stroke-linecap="round" stroke-linejoin="round" /><path d="M72.9375 1.17188C72.9375 15.4115 63.4166 30.9271 38.4375 46.3906C13.3229 61.9375 0.994751 84.5625 0.994751 102.839L15.4948 102.844C15.4948 88.6094 25.0156 73.0885 49.9948 57.625C75.1093 42.0781 87.4323 19.4583 87.4323 1.18229L72.9375 1.17188Z" stroke="#000000" stroke-width="2" stroke-miterlimit="10" fill="none" vector-effect="non-scaling-stroke" stroke-linecap="round" stroke-linejoin="round" /></g></g></svg>