<?xml version='1.0' encoding='utf-8'?>
<svg xmlns="http://www.w3.org/2000/svg" viewBox="0 0 1920 400" width="1920" height="400" fill="none"><defs><clipPath id="canvasClip"><rect width="1920" height="400" /></clipPath></defs><g clip-path="url(#canvasClip)"><g transform="translate(1115.0 -125.0) scale(5.603448275862069)"><path d="M58.1978 1.83856C89.427 1.83856 114.745 27.1563 114.745 58.3854M58.1978 114.932C26.9635 114.932 1.64575 89.6146 1.64575 58.3854M93.802 58.3854C93.802 78.0521 77.8593 93.9948 58.1926 93.9948M22.5885 58.3854C22.5885 38.7188 38.5312 22.7761 58.1978 22.7761M75.3333 58.3854C75.3333 48.9219 67.6614 41.2448 58.1926 41.2448C48.7291 41.2448 41.0572 48.9219 41.0572 58.3854C41.0572 67.849 48.7291 75.5261 58.1926 75.5261C67.6614 75.5261 75.3333 67.849 75.3333 58.3854Z" stroke="#000000" stroke-width="2" stroke-miterlimit="10" fill="none" vector-effect="non-scaling-stroke" stroke-linecap="round" stroke-linejoin="round" /></g></g></svg>