<?xml version='1.0' encoding='utf-8'?>
<svg xmlns="http://www.w3.org/2000/svg" viewBox="0 0 1920 400" width="1920" height="400" fill="none"><defs><clipPath id="canvasClip"><rect width="1920" height="400" /></clipPath></defs><g clip-path="url(#canvasClip)"><g transform="translate(916.3888888888888 -125.0) scale(9.027777777777779)"><path d="M74.5365 50.1562C77.8177 46.276 79.7969 41.2604 79.7969 35.776C79.7969 23.6979 70.1927 13.8646 58.2031 13.4948V13.4844H14.1406C24.5052 5.85417 40.0833 1 57.5052 1C88.7083 1 114.01 16.5677 114.01 35.776C114.01 40.9063 112.203 45.776 108.964 50.1562H74.5365Z" stroke="#000000" stroke-width="2" fill="none" vector-effect="non-scaling-stroke" stroke-linecap="round" stroke-linejoin="round" /><path d="M40.474 21.3958C37.1927 25.276 35.2135 30.2969 35.2135 35.776C35.2135 47.8021 44.7292 57.599 56.6406 58.0521V58.0729H100.87C90.5052 65.7031 74.9271 70.5573 57.5052 70.5573C26.2969 70.5573 1 54.9844 1 35.776C1 30.651 2.80729 25.7813 6.04687 21.3958H40.474Z" stroke="#000000" stroke-width="2" fill="none" vector-effect="non-scaling-stroke" stroke-linecap="round" stroke-linejoin="round" /></g></g></svg>