<?xml version='1.0' encoding='utf-8'?>
<svg xmlns="http://www.w3.org/2000/svg" viewBox="0 0 1920 400" width="1920" height="400" fill="none"><defs><clipPath id="canvasClip"><rect width="1920" height="400" /></clipPath></defs><g clip-path="url(#canvasClip)"><g transform="translate(1109.090909090909 -125.0) scale(5.909090909090909)"><path d="M104.391 69.8646C98.3333 92.2344 77.8906 108.682 53.6094 108.682C24.5573 108.682 1 85.1302 1 56.0729C1 32.2344 16.8594 12.099 38.599 5.63542L104.391 69.8646Z" stroke="#000000" stroke-width="2" stroke-miterlimit="10" fill="none" vector-effect="non-scaling-stroke" stroke-linecap="round" stroke-linejoin="round" /><path d="M53.6094 34.75C65.3906 34.75 74.9323 44.2969 74.9323 56.0729C74.9323 67.8542 65.3906 77.401 53.6094 77.401C41.8333 77.401 32.2865 67.8542 32.2865 56.0729C32.2865 44.2969 41.8333 34.75 53.6094 34.75ZM77.3177 32.5521V1H108.87L77.3177 32.5521Z" stroke="#000000" stroke-width="2" stroke-miterlimit="10" fill="none" vector-effect="non-scaling-stroke" stroke-linecap="round" stroke-linejoin="round" /></g></g></svg>