<?xml version='1.0' encoding='utf-8'?>
<svg xmlns="http://www.w3.org/2000/svg" viewBox="0 0 1920 400" width="1920" height="400" fill="none"><defs><clipPath id="canvasClip"><rect width="1920" height="400" /></clipPath></defs><g clip-path="url(#canvasClip)"><g transform="translate(1282.578125 -125.0) scale(5.078125)"><path d="M30.5156 67.5C46.8177 67.5 60.0313 80.7188 60.0313 97.0208C60.0313 113.323 46.8177 126.536 30.5156 126.536C14.2135 126.536 1 113.323 1 97.0208C1 80.7188 14.2135 67.5 30.5156 67.5ZM30.5156 36.1146C41.5156 36.1146 50.4323 41.8594 50.4323 48.9427C50.4323 56.0313 41.5156 61.776 30.5156 61.776C19.5156 61.776 10.599 56.0313 10.599 48.9427C10.599 41.8594 19.5156 36.1146 30.5156 36.1146ZM30.5156 14.6146C37.276 14.6146 42.7604 18.1458 42.7604 22.5C42.7604 26.8542 37.276 30.3906 30.5156 30.3906C23.7552 30.3906 18.2708 26.8542 18.2708 22.5C18.2708 18.1458 23.7552 14.6146 30.5156 14.6146ZM30.5156 1C33.8958 1 36.6406 2.76562 36.6406 4.94271C36.6406 7.125 33.8958 8.89063 30.5156 8.89063C27.1354 8.89063 24.3906 7.125 24.3906 4.94271C24.3906 2.76562 27.1354 1 30.5156 1Z" stroke="#000000" stroke-width="2" stroke-miterlimit="10" fill="none" vector-effect="non-scaling-stroke" stroke-linecap="round" stroke-linejoin="round" /></g></g></svg>