<?xml version='1.0' encoding='utf-8'?>
<svg xmlns="http://www.w3.org/2000/svg" viewBox="0 0 1920 400" width="1920" height="400" fill="none"><defs><clipPath id="canvasClip"><rect width="1920" height="400" /></clipPath></defs><g clip-path="url(#canvasClip)"><g transform="translate(1115.0 -125.0) scale(6.25)"><path d="M22.4062 102.266C10.6718 102.266 1.16138 92.7552 1.16138 81.0209H22.4062V102.266ZM1.16138 22.599C1.16138 10.8646 10.6718 1.35419 22.4062 1.35419V22.599H1.16138ZM80.828 1.35419C92.5624 1.35419 102.073 10.8646 102.073 22.599H80.828V1.35419ZM102.073 81.0209C102.073 92.7552 92.5624 102.266 80.828 102.266V81.0209H102.073ZM30.0833 22.599C30.0833 10.8646 39.5937 1.35419 51.328 1.35419C63.0624 1.35419 72.5728 10.8646 72.5728 22.599H30.0833ZM72.5728 81.0209C72.5728 92.7552 63.0624 102.266 51.328 102.266C39.5937 102.266 30.0833 92.7552 30.0833 81.0209H72.5728ZM22.4062 72.625C10.6718 72.625 1.16138 63.1146 1.16138 51.3802C1.16138 39.6459 10.6718 30.1354 22.4062 30.1354V72.625ZM80.828 30.1354C92.5624 30.1354 102.073 39.6459 102.073 51.3802C102.073 63.1146 92.5624 72.625 80.828 72.625V30.1354ZM72.8853 51.3802C72.8853 63.1146 63.3749 72.625 51.6405 72.625C39.9062 72.625 30.3958 63.1146 30.3958 51.3802C30.3958 39.6459 39.9062 30.1354 51.6405 30.1354C63.3749 30.1354 72.8853 39.6459 72.8853 51.3802Z" stroke="#000000" stroke-width="2" stroke-miterlimit="10" fill="none" vector-effect="non-scaling-stroke" stroke-linecap="round" stroke-linejoin="round" /></g></g></svg>