<?xml version='1.0' encoding='utf-8'?>
<svg xmlns="http://www.w3.org/2000/svg" viewBox="0 0 1920 400" width="1920" height="400" fill="none"><defs><clipPath id="canvasClip"><rect width="1920" height="400" /></clipPath></defs><g clip-path="url(#canvasClip)"><g transform="translate(1115.0 -125.0) scale(6.074766355140187)"><path d="M14.1275 27.25C21.3748 27.25 27.255 21.3748 27.255 14.1275C27.255 6.87517 21.3748 1 14.1275 1C6.88012 1 1 6.87517 1 14.1275C1 21.3748 6.88012 27.25 14.1275 27.25ZM14.1275 27.25C21.3748 27.25 27.255 33.1252 27.255 40.3775C27.255 47.6248 21.3748 53.5 14.1275 53.5M14.1275 27.25C6.88012 27.25 1 33.1252 1 40.3775C1 47.6248 6.88012 53.5 14.1275 53.5M40.3772 27.25C47.6245 27.25 53.5046 21.3748 53.5046 14.1275C53.5046 6.87517 47.6245 1 40.3772 1C33.1298 1 27.2497 6.87517 27.2497 14.1275C27.2497 21.3748 33.1298 27.25 40.3772 27.25ZM40.3772 27.25C47.6245 27.25 53.5046 33.1252 53.5046 40.3775C53.5046 47.6248 47.6245 53.5 40.3772 53.5M40.3772 27.25C33.1298 27.25 27.2497 33.1252 27.2497 40.3775C27.2497 47.6248 33.1298 53.5 40.3772 53.5M66.6278 27.25C73.8751 27.25 79.7553 21.3748 79.7553 14.1275C79.7553 6.87517 73.8751 1 66.6278 1C59.3804 1 53.5003 6.87517 53.5003 14.1275C53.5003 21.3748 59.3804 27.25 66.6278 27.25ZM66.6278 27.25C73.8751 27.25 79.7553 33.1252 79.7553 40.3775C79.7553 47.6248 73.8751 53.5 66.6278 53.5M66.6278 27.25C59.3804 27.25 53.5003 33.1252 53.5003 40.3775C53.5003 47.6248 59.3804 53.5 66.6278 53.5M92.8775 27.25C100.125 27.25 106.005 21.3748 106.005 14.1275C106.005 6.87517 100.125 1 92.8775 1C85.6301 1 79.75 6.87517 79.75 14.1275C79.75 21.3748 85.6301 27.25 92.8775 27.25ZM92.8775 27.25C100.125 27.25 106.005 33.1252 106.005 40.3775C106.005 47.6248 100.125 53.5 92.8775 53.5M92.8775 27.25C85.6301 27.25 79.75 33.1252 79.75 40.3775C79.75 47.6248 85.6301 53.5 92.8775 53.5M14.1275 53.5C21.3748 53.5 27.255 59.3752 27.255 66.6275C27.255 73.8748 21.3748 79.75 14.1275 79.75M14.1275 53.5C6.88012 53.5 1 59.3752 1 66.6275C1 73.8748 6.88012 79.75 14.1275 79.75M40.3772 53.5C47.6245 53.5 53.5046 59.3752 53.5046 66.6275C53.5046 73.8748 47.6245 79.75 40.3772 79.75M40.3772 53.5C33.1298 53.5 27.2497 59.3752 27.2497 66.6275C27.2497 73.8748 33.1298 79.75 40.3772 79.75M66.6278 53.5C73.8751 53.5 79.7553 59.3752 79.7553 66.6275C79.7553 73.8748 73.8751 79.75 66.6278 79.75M66.6278 53.5C59.3804 53.5 53.5003 59.3752 53.5003 66.6275C53.5003 73.8748 59.3804 79.75 66.6278 79.75M92.8775 53.5C100.125 53.5 106.005 59.3752 106.005 66.6275C106.005 73.8748 100.125 79.75 92.8775 79.75M92.8775 53.5C85.6301 53.5 79.75 59.3752 79.75 66.6275C79.75 73.8748 85.6301 79.75 92.8775 79.75M14.1275 79.75C21.3748 79.75 27.255 85.6252 27.255 92.8775C27.255 100.125 21.3748 106 14.1275 106C6.88012 106 1 100.125 1 92.8775C1 85.6252 6.88012 79.75 14.1275 79.75ZM40.3772 79.75C47.6245 79.75 53.5046 85.6252 53.5046 92.8775C53.5046 100.125 47.6245 106 40.3772 106C33.1298 106 27.2497 100.125 27.2497 92.8775C27.2497 85.6252 33.1298 79.75 40.3772 79.75ZM66.6278 79.75C73.8751 79.75 79.7553 85.6252 79.7553 92.8775C79.7553 100.125 73.8751 106 66.6278 106C59.3804 106 53.5003 100.125 53.5003 92.8775C53.5003 85.6252 59.3804 79.75 66.6278 79.75ZM92.8775 79.75C100.125 79.75 106.005 85.6252 106.005 92.8775C106.005 100.125 100.125 106 92.8775 106C85.6301 106 79.75 100.125 79.75 92.8775C79.75 85.6252 85.6301 79.75 92.8775 79.75Z" stroke="#000000" stroke-width="2" stroke-miterlimit="10" fill="none" vector-effect="non-scaling-stroke" stroke-linecap="round" stroke-linejoin="round" /></g></g></svg>