<?xml version='1.0' encoding='utf-8'?>
<svg xmlns="http://www.w3.org/2000/svg" viewBox="0 0 1920 400" width="1920" height="400" fill="none"><defs><clipPath id="canvasClip"><rect width="1920" height="400" /></clipPath></defs><g clip-path="url(#canvasClip)"><g transform="translate(1115.0 -125.0) scale(6.25)"><path d="M11.1324 52.0641L53.4084 9.47641C64.7103 -1.82546 83.0385 -1.82546 94.3404 9.47641C105.642 20.7783 105.642 39.1065 94.3404 50.4084L51.9519 92.8561C51.9519 92.8561 20.7783 61.7103 9.47641 50.4084C-1.82547 39.1065 -1.82547 20.7783 9.47641 9.47641C20.7837 -1.82547 39.1065 -1.82547 50.4084 9.47641L92.7267 52.0253M9.47643 53.597C20.7837 42.2951 39.1066 42.2951 50.4084 53.597C61.7103 64.8989 61.7103 83.2217 50.4084 94.5236C39.1066 105.825 20.7837 105.825 9.47643 94.5236C-1.82545 83.2217 -1.82545 64.8989 9.47643 53.597ZM53.4953 94.5236C42.1934 83.2217 42.1934 64.8989 53.4953 53.597C64.7972 42.2951 83.1254 42.2951 94.4273 53.597C105.729 64.8989 105.729 83.2217 94.4273 94.5236C83.1254 105.825 64.7972 105.825 53.4953 94.5236Z" stroke="#000000" stroke-width="2" stroke-miterlimit="10" fill="none" vector-effect="non-scaling-stroke" stroke-linecap="round" stroke-linejoin="round" /></g></g></svg>