<?xml version='1.0' encoding='utf-8'?>
<svg xmlns="http://www.w3.org/2000/svg" viewBox="0 0 1920 400" width="1920" height="400" fill="none"><defs><clipPath id="canvasClip"><rect width="1920" height="400" /></clipPath></defs><g clip-path="url(#canvasClip)"><g transform="translate(1120.603448275862 -125.0) scale(5.603448275862069)"><path d="M7.43229 3.04687L7.48438 8.03646C9.33333 7.57292 11.2656 7.3125 13.2552 7.28646C26.875 7.14062 38.0365 18.0677 38.1875 31.6875C38.3333 45.3125 27.4063 56.474 13.7813 56.6198C11.7969 56.6406 9.85938 56.4219 8 55.9948L8.0625 61.7865C9.91146 61.3229 11.8438 61.0625 13.8333 61.0365C27.4531 60.8906 38.6146 71.8177 38.7656 85.4375C38.9115 99.0625 27.9844 110.224 14.3646 110.37C12.375 110.391 10.4375 110.172 8.58333 109.745L8.63021 114.214L105.74 113.167L105.703 109.672C103.396 109.828 101.047 109.922 98.6563 109.948C67.7865 110.281 42.6406 99.2917 42.4896 85.401C42.3438 71.5052 67.2448 59.9792 98.1146 59.6458C100.5 59.6198 102.854 59.6615 105.161 59.7656L105.12 55.9219C102.818 56.0781 100.464 56.1719 98.0781 56.1979C67.2083 56.5313 42.0625 45.5417 41.9115 31.651C41.7604 17.7552 66.6667 6.22396 97.5365 5.89583C99.9219 5.86979 102.276 5.91146 104.583 6.01562L104.542 2L7.43229 3.04687Z" stroke="#000000" stroke-width="2" stroke-miterlimit="10" fill="none" vector-effect="non-scaling-stroke" stroke-linecap="round" stroke-linejoin="round" /><path d="M1 106.667H5.98958C5.54167 104.813 5.30208 102.88 5.30208 100.891C5.30208 87.2656 16.3438 76.224 29.9688 76.224C43.5938 76.224 54.6354 87.2656 54.6354 100.891C54.6354 102.88 54.3958 104.813 53.9479 106.667H59.7396C59.2969 104.813 59.0573 102.88 59.0573 100.891C59.0573 87.2656 70.099 76.224 83.724 76.224C97.3438 76.224 108.391 87.2656 108.391 100.891C108.391 102.88 108.146 104.813 107.703 106.667H112.172V9.55208H108.677C108.807 11.8594 108.875 14.2083 108.875 16.5937C108.875 47.4687 97.6146 72.4948 83.724 72.4948C69.8281 72.4948 58.5677 47.4687 58.5677 16.5937C58.5677 14.2083 58.6354 11.8594 58.7656 9.55208H54.9219C55.0573 11.8594 55.1198 14.2083 55.1198 16.5937C55.1198 47.4687 43.8594 72.4948 29.9688 72.4948C16.0781 72.4948 4.8125 47.4687 4.8125 16.5937C4.8125 14.2083 4.88542 11.8594 5.01562 9.55208H1V106.667Z" stroke="#000000" stroke-width="2" stroke-miterlimit="10" fill="none" vector-effect="non-scaling-stroke" stroke-linecap="round" stroke-linejoin="round" /></g></g></svg>