<?xml version='1.0' encoding='utf-8'?>
<svg xmlns="http://www.w3.org/2000/svg" viewBox="0 0 1920 400" width="1920" height="400" fill="none"><defs><clipPath id="canvasClip"><rect width="1920" height="400" /></clipPath></defs><g clip-path="url(#canvasClip)"><g transform="translate(900.0806451612902 -125.0) scale(10.483870967741936)"><path d="M101.12 31.375L21.9844 50.5573L2 1H101.12V31.375ZM97.125 50.0156C97.125 55.7552 92.474 60.4115 86.7344 60.4115C80.9948 60.4115 76.3438 55.7552 76.3438 50.0156C76.3438 44.276 80.9948 39.625 86.7344 39.625C92.474 39.625 97.125 44.276 97.125 50.0156Z" stroke="#000000" stroke-width="2" stroke-miterlimit="10" fill="none" vector-effect="non-scaling-stroke" stroke-linecap="round" stroke-linejoin="round" /><path d="M33.3594 50.0156C33.3594 55.7552 28.7083 60.4115 22.9688 60.4115C17.2292 60.4115 12.5781 55.7552 12.5781 50.0156C12.5781 44.276 17.2292 39.625 22.9688 39.625C28.7083 39.625 33.3594 44.276 33.3594 50.0156Z" stroke="#000000" stroke-width="2" stroke-miterlimit="10" fill="none" vector-effect="non-scaling-stroke" stroke-linecap="round" stroke-linejoin="round" /></g></g></svg>