<?xml version='1.0' encoding='utf-8'?>
<svg xmlns="http://www.w3.org/2000/svg" viewBox="0 0 1920 400" width="1920" height="400" fill="none"><defs><clipPath id="canvasClip"><rect width="1920" height="400" /></clipPath></defs><g clip-path="url(#canvasClip)"><g transform="translate(1115.0 -125.0) scale(6.074766355140187)"><path d="M50.5677 28.5052C50.5677 13.3125 62.8802 1 78.0729 1C93.2604 1 105.578 13.3125 105.578 28.5052C105.578 43.6979 93.2604 56.0104 78.0729 56.0104C62.8802 56.0104 50.5677 43.6979 50.5677 28.5052ZM11.0573 8.23958C22.25 8.23958 31.3229 17.3125 31.3229 28.5052C31.3229 39.6979 22.25 48.7708 11.0573 48.7708V8.23958ZM21.1875 105.026C32.3385 105.026 41.375 95.9896 41.375 84.8385C41.375 73.6875 32.3385 64.651 21.1875 64.651C10.0417 64.651 1 73.6875 1 84.8385C1 95.9896 10.0417 105.026 21.1875 105.026ZM103.729 80.3281C103.729 94.4948 92.2396 105.979 78.0729 105.979C63.901 105.979 52.4167 94.4948 52.4167 80.3281H103.729Z" stroke="#000000" stroke-width="2" stroke-miterlimit="10" fill="none" vector-effect="non-scaling-stroke" stroke-linecap="round" stroke-linejoin="round" /></g></g></svg>