<?xml version='1.0' encoding='utf-8'?>
<svg xmlns="http://www.w3.org/2000/svg" viewBox="0 0 1920 400" width="1920" height="400" fill="none"><defs><clipPath id="canvasClip"><rect width="1920" height="400" /></clipPath></defs><g clip-path="url(#canvasClip)"><g transform="translate(665.531914893617 -125.0) scale(13.829787234042554)"><path d="M45.2835 23.1443C45.2835 35.3708 35.3708 45.2835 23.1443 45.2835C10.9128 45.2835 1 35.3708 1 23.1443C1 10.9128 10.9128 1 23.1443 1C35.3708 1 45.2835 10.9128 45.2835 23.1443Z" stroke="#000000" stroke-width="2" stroke-miterlimit="10" fill="none" vector-effect="non-scaling-stroke" stroke-linecap="round" stroke-linejoin="round" /><path d="M48.7464 23.1443C48.7464 35.3708 40.9195 45.2835 31.2598 45.2835C21.6052 45.2835 13.7783 35.3708 13.7783 23.1443C13.7783 10.9128 21.6052 1 31.2598 1C40.9195 1 48.7464 10.9128 48.7464 23.1443Z" stroke="#000000" stroke-width="2" stroke-miterlimit="10" fill="none" vector-effect="non-scaling-stroke" stroke-linecap="round" stroke-linejoin="round" /><path d="M52.2043 23.1443C52.2043 35.3708 46.4632 45.2835 39.3804 45.2835C32.2926 45.2835 26.5515 35.3708 26.5515 23.1443C26.5515 10.9128 32.2926 1 39.3804 1C46.4632 1 52.2043 10.9128 52.2043 23.1443Z" stroke="#000000" stroke-width="2" stroke-miterlimit="10" fill="none" vector-effect="non-scaling-stroke" stroke-linecap="round" stroke-linejoin="round" /><path d="M55.6672 23.1443C55.6672 35.3708 52.0068 45.2835 47.4959 45.2835C42.9851 45.2835 39.3298 35.3708 39.3298 23.1443C39.3298 10.9128 42.9851 1 47.4959 1C52.0068 1 55.6672 10.9128 55.6672 23.1443Z" stroke="#000000" stroke-width="2" stroke-miterlimit="10" fill="none" vector-effect="non-scaling-stroke" stroke-linecap="round" stroke-linejoin="round" /><path d="M59.5021 23.1443C59.5021 35.3708 57.9326 45.2835 55.9936 45.2835C54.0546 45.2835 52.4801 35.3708 52.4801 23.1443C52.4801 10.9128 54.0546 1 55.9936 1C57.9326 1 59.5021 10.9128 59.5021 23.1443ZM66.7165 23.1443C66.7165 10.9128 76.6292 1 88.8557 1C101.087 1 111 10.9128 111 23.1443C111 35.3708 101.087 45.2835 88.8557 45.2835C76.6292 45.2835 66.7165 35.3708 66.7165 23.1443Z" stroke="#000000" stroke-width="2" stroke-miterlimit="10" fill="none" vector-effect="non-scaling-stroke" stroke-linecap="round" stroke-linejoin="round" /><path d="M63.2536 23.1443C63.2536 10.9128 71.0805 1 80.7402 1C90.3948 1 98.2217 10.9128 98.2217 23.1443C98.2217 35.3708 90.3948 45.2835 80.7402 45.2835C71.0805 45.2835 63.2536 35.3708 63.2536 23.1443Z" stroke="#000000" stroke-width="2" stroke-miterlimit="10" fill="none" vector-effect="non-scaling-stroke" stroke-linecap="round" stroke-linejoin="round" /><path d="M59.7957 23.1443C59.7957 10.9128 65.5368 1 72.6196 1C79.7074 1 85.4485 10.9128 85.4485 23.1443C85.4485 35.3708 79.7074 45.2835 72.6196 45.2835C65.5368 45.2835 59.7957 35.3708 59.7957 23.1443Z" stroke="#000000" stroke-width="2" stroke-miterlimit="10" fill="none" vector-effect="non-scaling-stroke" stroke-linecap="round" stroke-linejoin="round" /><path d="M56.3328 23.1443C56.3328 10.9128 59.9932 1 64.504 1C69.0149 1 72.6702 10.9128 72.6702 23.1443C72.6702 35.3708 69.0149 45.2835 64.504 45.2835C59.9932 45.2835 56.3328 35.3708 56.3328 23.1443Z" stroke="#000000" stroke-width="2" stroke-miterlimit="10" fill="none" vector-effect="non-scaling-stroke" stroke-linecap="round" stroke-linejoin="round" /></g></g></svg>