<?xml version='1.0' encoding='utf-8'?>
<svg xmlns="http://www.w3.org/2000/svg" viewBox="0 0 1920 400" width="1920" height="400" fill="none"><defs><clipPath id="canvasClip"><rect width="1920" height="400" /></clipPath></defs><g clip-path="url(#canvasClip)"><g transform="translate(1115.0 -125.0) scale(5.2)"><path d="M62.24 62.3352C62.24 96.2107 89.5996 123.676 123.48 123.676V1C89.5996 1 62.24 28.4649 62.24 62.3352ZM62.24 62.3352C62.24 28.4597 34.8804 1 1 1V123.676C34.8804 123.676 62.24 96.2107 62.24 62.3352ZM103.532 62.1894C103.532 84.9415 85.0839 103.387 62.3338 103.387C39.5784 103.387 21.1304 84.9415 21.1304 62.1894C21.1304 39.4426 39.5784 20.9972 62.3338 20.9972C85.0839 20.9972 103.532 39.4426 103.532 62.1894Z" stroke="#000000" stroke-width="2" stroke-miterlimit="10" fill="none" vector-effect="non-scaling-stroke" stroke-linecap="round" stroke-linejoin="round" /></g></g></svg>