<?xml version='1.0' encoding='utf-8'?>
<svg xmlns="http://www.w3.org/2000/svg" viewBox="0 0 1920 400" width="1920" height="400" fill="none"><defs><clipPath id="canvasClip"><rect width="1920" height="400" /></clipPath></defs><g clip-path="url(#canvasClip)"><g transform="translate(1115.0 -125.0) scale(6.132075471698113)"><path d="M80.202 52.6551C80.202 67.7716 67.7517 80.0073 52.6576 80.1635M80.202 52.6551C80.202 37.5386 67.7517 25.2975 52.6576 25.1413M80.202 52.6551L89.3409 52.6524M52.6576 80.1635C37.4541 80.1635 25.1745 67.8601 25.1745 52.6551M52.6576 80.1635C60.5849 73.6529 65.7934 63.7048 65.7934 52.6524C65.7934 41.6052 60.5849 31.6571 52.6576 25.1413M52.6576 80.1635C44.7511 73.6529 39.876 63.7048 39.876 52.6524C39.876 41.6052 44.7511 31.6571 52.6576 25.1413M52.6576 80.1635V89.3356M25.1745 52.6551C25.1745 37.4501 37.4541 25.1413 52.6576 25.1413M25.1745 52.6551L15.9691 52.6524M52.6576 25.1413V15.9691M52.6576 15.9691C56.7931 15.9691 60.1422 12.6201 60.1422 8.48457C60.1422 4.34905 56.7879 1 52.6524 1C48.5221 1 45.1678 4.34905 45.1678 8.48457C45.1678 12.6201 48.5273 15.9691 52.6576 15.9691ZM52.6576 89.3356C48.5273 89.3356 45.1678 92.6847 45.1678 96.8202C45.1678 100.956 48.5221 104.31 52.6524 104.31C56.7879 104.31 60.1422 100.956 60.1422 96.8202C60.1422 92.6847 56.7931 89.3356 52.6576 89.3356ZM89.3409 52.6524C89.3409 56.7879 92.6899 60.137 96.8254 60.137C100.961 60.137 104.31 56.7879 104.31 52.6524C104.31 48.5169 100.961 45.1678 96.8254 45.1678C92.6899 45.1678 89.3409 48.5169 89.3409 52.6524ZM15.9691 52.6524C15.9691 48.5169 12.6201 45.1678 8.48978 45.1678C4.35425 45.1678 1 48.5169 1 52.6524C1 56.7879 4.35425 60.137 8.48978 60.137C12.6201 60.137 15.9691 56.7879 15.9691 52.6524ZM78.5906 26.7142C81.5177 29.6362 86.2574 29.6362 89.1794 26.7142C92.1013 23.7923 92.1013 19.0526 89.1794 16.1254C86.2574 13.2034 81.5177 13.2034 78.5958 16.1254C75.6686 19.0526 75.6686 23.7923 78.5906 26.7142ZM78.5906 26.7142L72.0773 33.2754M26.7194 78.5906C23.7923 75.6686 19.0526 75.6686 16.1306 78.5906C13.2087 81.5177 13.2087 86.2574 16.1306 89.1794C19.0526 92.1013 23.7923 92.1013 26.7194 89.1794C29.6414 86.2522 29.6414 81.5125 26.7194 78.5906ZM26.7194 78.5906L33.1681 72.0644M78.5906 78.5906C75.6738 81.5125 75.6738 86.2574 78.5958 89.1794C81.5177 92.1013 86.2574 92.1013 89.1794 89.1794C92.1013 86.2574 92.1013 81.5177 89.1794 78.5906C86.2574 75.6686 81.5177 75.6686 78.5906 78.5906ZM78.5906 78.5906L72.0428 72.0663M26.7194 26.7142C29.6414 23.7923 29.6414 19.0526 26.7194 16.1306C23.7923 13.2034 19.0526 13.2034 16.1306 16.1254C13.2087 19.0526 13.2087 23.7923 16.1306 26.7142C19.0526 29.6362 23.7923 29.6362 26.7194 26.7142ZM26.7194 26.7142L33.1349 33.2766M26.8195 43.2459H78.5124M26.7923 61.986H78.5467" stroke="#000000" stroke-width="2" stroke-miterlimit="10" stroke-linecap="round" stroke-linejoin="round" fill="none" vector-effect="non-scaling-stroke" /></g></g></svg>