<?xml version='1.0' encoding='utf-8'?>
<svg xmlns="http://www.w3.org/2000/svg" viewBox="0 0 1920 400" width="1920" height="400" fill="none"><defs><clipPath id="canvasClip"><rect width="1920" height="400" /></clipPath></defs><g clip-path="url(#canvasClip)"><g transform="translate(1018.7037037037037 -125.0) scale(8.024691358024691)"><path d="M25.3854 40.0104C25.3854 18.4635 42.849 1 64.3958 1C85.9375 1 103.401 18.4635 103.401 40.0104C103.401 61.5521 85.9375 79.0208 64.3958 79.0208C42.849 79.0208 25.3854 61.5521 25.3854 40.0104Z" stroke="#000000" stroke-width="2" stroke-miterlimit="10" fill="none" vector-effect="non-scaling-stroke" stroke-linecap="round" stroke-linejoin="round" /><path d="M50.0938 79.0208C33.0781 79.0208 19.2865 61.5521 19.2865 40.0104C19.2865 18.4635 33.0781 1 50.0938 1C67.1042 1 80.8958 18.4635 80.8958 40.0104C80.8958 51.5833 76.0312 61.6354 69.2969 68.9375C63.7708 74.9271 57.3698 79.0208 50.0938 79.0208Z" stroke="#000000" stroke-width="2" stroke-miterlimit="10" fill="none" vector-effect="non-scaling-stroke" stroke-linecap="round" stroke-linejoin="round" /><path d="M35.7917 79.0208C23.3073 79.0208 13.1927 61.5521 13.1927 40.0104C13.1927 18.4635 23.3073 1 35.7917 1C48.2708 1 58.3906 18.4635 58.3906 40.0104C58.3906 50.6406 54.7083 59.9063 50.2448 67.0729C45.8594 74.1094 41.3177 79.0208 35.7917 79.0208Z" stroke="#000000" stroke-width="2" stroke-miterlimit="10" fill="none" vector-effect="non-scaling-stroke" stroke-linecap="round" stroke-linejoin="round" /><path d="M21.4896 79.0208C13.5365 79.0208 7.09375 61.5521 7.09375 40.0104C7.09375 18.4635 13.5365 1 21.4896 1C29.4375 1 35.8802 18.4635 35.8802 40.0104C35.8802 49.6979 33.6667 58.3854 31.1927 65.2083C28.2031 73.4688 25.2656 79.0208 21.4896 79.0208Z" stroke="#000000" stroke-width="2" stroke-miterlimit="10" fill="none" vector-effect="non-scaling-stroke" stroke-linecap="round" stroke-linejoin="round" /><path d="M1 40.0104C1 18.4635 3.76563 1 7.1875 1C10.6042 1 13.3698 18.4635 13.3698 40.0104C13.3698 48.7552 12.9167 56.8333 12.1458 63.3385C11.0156 72.8594 9.21354 79.0208 7.1875 79.0208C3.76563 79.0208 1 61.5521 1 40.0104Z" stroke="#000000" stroke-width="2" stroke-miterlimit="10" fill="none" vector-effect="non-scaling-stroke" stroke-linecap="round" stroke-linejoin="round" /></g></g></svg>