<?xml version='1.0' encoding='utf-8'?>
<svg xmlns="http://www.w3.org/2000/svg" viewBox="0 0 1920 400" width="1920" height="400" fill="none"><defs><clipPath id="canvasClip"><rect width="1920" height="400" /></clipPath></defs><g clip-path="url(#canvasClip)"><g transform="translate(1171.651376146789 -125.0) scale(5.963302752293578)"><path d="M88.875 63.3281C88.875 87.4583 69.3177 107.016 45.1927 107.016C21.0625 107.016 1.50519 87.4583 1.50519 63.3281H88.875ZM71.3333 27.3385C71.3333 41.776 59.6302 53.4791 45.1927 53.4791C30.75 53.4791 19.0469 41.776 19.0469 27.3385C19.0469 12.8958 30.75 1.19269 45.1927 1.19269C59.6302 1.19269 71.3333 12.8958 71.3333 27.3385ZM58.2604 27.3385C58.2604 34.5521 52.4114 40.4062 45.1927 40.4062C37.9739 40.4062 32.1198 34.5521 32.1198 27.3385C32.1198 20.1146 37.9739 14.2656 45.1927 14.2656C52.4114 14.2656 58.2604 20.1146 58.2604 27.3385Z" stroke="#000000" stroke-width="2" stroke-miterlimit="10" fill="none" vector-effect="non-scaling-stroke" stroke-linecap="round" stroke-linejoin="round" /></g></g></svg>