<?xml version='1.0' encoding='utf-8'?>
<svg xmlns="http://www.w3.org/2000/svg" viewBox="0 0 1920 400" width="1920" height="400" fill="none"><defs><clipPath id="canvasClip"><rect width="1920" height="400" /></clipPath></defs><g clip-path="url(#canvasClip)"><g transform="translate(1131.5254237288136 -125.0) scale(5.508474576271187)"><path d="M31.875 2C29.2187 3.73438 26.6458 5.66146 24.1927 7.8125C-4.0365 32.5156 -6.89587 75.4271 17.8125 103.656C22.0208 108.469 26.7708 112.521 31.875 115.849V2ZM110.417 91.3281C92.5208 91.3281 78.0156 76.8177 78.0156 58.9219C78.0156 41.0313 92.5208 26.5208 110.417 26.5208V91.3281ZM39.6718 106.161C44.2343 104.109 48.5729 101.359 52.5364 97.8906C74.0573 79.0573 76.2395 46.3333 57.401 24.8125C52.3333 19.0208 46.2552 14.6458 39.6718 11.6875V106.161Z" stroke="#000000" stroke-width="2" fill="none" vector-effect="non-scaling-stroke" stroke-linecap="round" stroke-linejoin="round" /></g></g></svg>