<?xml version='1.0' encoding='utf-8'?>
<svg xmlns="http://www.w3.org/2000/svg" viewBox="0 0 1920 400" width="1920" height="400" fill="none"><defs><clipPath id="canvasClip"><rect width="1920" height="400" /></clipPath></defs><g clip-path="url(#canvasClip)"><g transform="translate(1115.0 -125.0) scale(5.603448275862069)"><path d="M54.0625 8.69271V20.4271H42.7396V35.4531H35.9479V42.4531H21.125V53.5677H8.97917C8.97917 53.5677 12.0677 12.8073 54.0625 8.69271ZM106.094 53.6719H94.3594V42.349H79.3281V35.5573H72.3281V20.7344H61.2135V8.58854C61.2135 8.58854 101.974 11.6771 106.094 53.6719ZM61.0104 106.375V94.6406H72.3333V79.6146H79.125V72.6146H93.9479V61.4948H106.094C106.094 61.4948 103.005 102.255 61.0104 106.375ZM8.97917 61.3958H20.7135V72.7188H35.7396V79.5104H42.7396V94.3333H53.8542V106.479C53.8542 106.479 13.0938 103.391 8.97917 61.3958ZM65.3854 35.4531H49.7396V27.4271H65.3854V35.4531ZM65.3854 86.0938H49.7396V78.0677H65.3854V86.0938ZM28.7396 49.6562H36.7708V65.3021H28.7396V49.6562ZM79.5365 49.6562H87.5625V65.3021H79.5365V49.6562Z" stroke="#000000" stroke-width="2" stroke-miterlimit="10" fill="none" vector-effect="non-scaling-stroke" stroke-linecap="round" stroke-linejoin="round" /><path d="M114.068 57.5312C114.068 88.7552 88.7552 114.068 57.5365 114.068C26.3125 114.068 1 88.7552 1 57.5312C1 26.3125 26.3125 1 57.5365 1C88.7552 1 114.068 26.3125 114.068 57.5312Z" stroke="#000000" stroke-width="2" stroke-miterlimit="10" fill="none" vector-effect="non-scaling-stroke" stroke-linecap="round" stroke-linejoin="round" /></g></g></svg>