<?xml version='1.0' encoding='utf-8'?>
<svg xmlns="http://www.w3.org/2000/svg" viewBox="0 0 1920 400" width="1920" height="400" fill="none"><defs><clipPath id="canvasClip"><rect width="1920" height="400" /></clipPath></defs><g clip-path="url(#canvasClip)"><g transform="translate(1111.813725490196 -125.0) scale(6.372549019607843)"><path d="M93.2558 16.5467C97.5486 16.5467 101.028 13.0665 101.028 8.77336C101.028 4.48025 97.5486 1 93.2558 1C88.9631 1 85.4832 4.48025 85.4832 8.77336C85.4832 13.0665 88.9631 16.5467 93.2558 16.5467Z" stroke="#000000" stroke-width="2" fill="none" vector-effect="non-scaling-stroke" stroke-linecap="round" stroke-linejoin="round" /><path d="M51.0142 16.5467C55.307 16.5467 58.7869 13.0665 58.7869 8.77336C58.7869 4.48025 55.307 1 51.0142 1C46.7215 1 43.2416 4.48025 43.2416 8.77336C43.2416 13.0665 46.7215 16.5467 51.0142 16.5467Z" stroke="#000000" stroke-width="2" fill="none" vector-effect="non-scaling-stroke" stroke-linecap="round" stroke-linejoin="round" /><path d="M51.0142 37.6319C55.307 37.6319 58.7869 34.1517 58.7869 29.8586C58.7869 25.5655 55.307 22.0852 51.0142 22.0852C46.7215 22.0852 43.2416 25.5655 43.2416 29.8586C43.2416 34.1517 46.7215 37.6319 51.0142 37.6319Z" stroke="#000000" stroke-width="2" fill="none" vector-effect="non-scaling-stroke" stroke-linecap="round" stroke-linejoin="round" /><path d="M51.0142 58.7546C55.307 58.7546 58.7869 55.2744 58.7869 50.9813C58.7869 46.6882 55.307 43.2079 51.0142 43.2079C46.7215 43.2079 43.2416 46.6882 43.2416 50.9813C43.2416 55.2744 46.7215 58.7546 51.0142 58.7546Z" stroke="#000000" stroke-width="2" fill="none" vector-effect="non-scaling-stroke" stroke-linecap="round" stroke-linejoin="round" /><path d="M29.8934 16.5467C34.1862 16.5467 37.6661 13.0665 37.6661 8.77336C37.6661 4.48025 34.1862 1 29.8934 1C25.6007 1 22.1208 4.48025 22.1208 8.77336C22.1208 13.0665 25.6007 16.5467 29.8934 16.5467Z" stroke="#000000" stroke-width="2" fill="none" vector-effect="non-scaling-stroke" stroke-linecap="round" stroke-linejoin="round" /><path d="M29.8934 37.9398C34.1862 37.9398 37.6661 34.4595 37.6661 30.1664C37.6661 25.8733 34.1862 22.393 29.8934 22.393C25.6007 22.393 22.1208 25.8733 22.1208 30.1664C22.1208 34.4595 25.6007 37.9398 29.8934 37.9398Z" stroke="#000000" stroke-width="2" fill="none" vector-effect="non-scaling-stroke" stroke-linecap="round" stroke-linejoin="round" /><path d="M8.77266 16.5467C13.0654 16.5467 16.5453 13.0665 16.5453 8.77336C16.5453 4.48025 13.0654 1 8.77266 1C4.47994 1 1 4.48025 1 8.77336C1 13.0665 4.47994 16.5467 8.77266 16.5467Z" stroke="#000000" stroke-width="2" fill="none" vector-effect="non-scaling-stroke" stroke-linecap="round" stroke-linejoin="round" /><path d="M72.135 16.5467C76.4278 16.5467 79.9077 13.0665 79.9077 8.77336C79.9077 4.48025 76.4278 1 72.135 1C67.8423 1 64.3624 4.48025 64.3624 8.77336C64.3624 13.0665 67.8423 16.5467 72.135 16.5467Z" stroke="#000000" stroke-width="2" fill="none" vector-effect="non-scaling-stroke" stroke-linecap="round" stroke-linejoin="round" /><path d="M72.135 37.6319C76.4278 37.6319 79.9077 34.1517 79.9077 29.8586C79.9077 25.5655 76.4278 22.0852 72.135 22.0852C67.8423 22.0852 64.3624 25.5655 64.3624 29.8586C64.3624 34.1517 67.8423 37.6319 72.135 37.6319Z" stroke="#000000" stroke-width="2" fill="none" vector-effect="non-scaling-stroke" stroke-linecap="round" stroke-linejoin="round" /><path d="M72.135 58.7546C76.4278 58.7546 79.9077 55.2744 79.9077 50.9813C79.9077 46.6882 76.4278 43.2079 72.135 43.2079C67.8423 43.2079 64.3624 46.6882 64.3624 50.9813C64.3624 55.2744 67.8423 58.7546 72.135 58.7546Z" stroke="#000000" stroke-width="2" fill="none" vector-effect="non-scaling-stroke" stroke-linecap="round" stroke-linejoin="round" /><path d="M72.135 79.8773C76.4278 79.8773 79.9077 76.3971 79.9077 72.1039C79.9077 67.8108 76.4278 64.3306 72.135 64.3306C67.8423 64.3306 64.3624 67.8108 64.3624 72.1039C64.3624 76.3971 67.8423 79.8773 72.135 79.8773Z" stroke="#000000" stroke-width="2" fill="none" vector-effect="non-scaling-stroke" stroke-linecap="round" stroke-linejoin="round" /><path d="M93.5075 58.7546C97.8002 58.7546 101.28 55.2744 101.28 50.9813C101.28 46.6882 97.8002 43.2079 93.5075 43.2079C89.2147 43.2079 85.7348 46.6882 85.7348 50.9813C85.7348 55.2744 89.2147 58.7546 93.5075 58.7546Z" stroke="#000000" stroke-width="2" fill="none" vector-effect="non-scaling-stroke" stroke-linecap="round" stroke-linejoin="round" /><path d="M93.5075 79.8773C97.8002 79.8773 101.28 76.3971 101.28 72.1039C101.28 67.8108 97.8002 64.3306 93.5075 64.3306C89.2147 64.3306 85.7348 67.8108 85.7348 72.1039C85.7348 76.3971 89.2147 79.8773 93.5075 79.8773Z" stroke="#000000" stroke-width="2" fill="none" vector-effect="non-scaling-stroke" stroke-linecap="round" stroke-linejoin="round" /><path d="M93.5075 101C97.8002 101 101.28 97.5197 101.28 93.2266C101.28 88.9335 97.8002 85.4533 93.5075 85.4533C89.2147 85.4533 85.7348 88.9335 85.7348 93.2266C85.7348 97.5197 89.2147 101 93.5075 101Z" stroke="#000000" stroke-width="2" fill="none" vector-effect="non-scaling-stroke" stroke-linecap="round" stroke-linejoin="round" /><path d="M93.5075 37.6319C97.8002 37.6319 101.28 34.1517 101.28 29.8586C101.28 25.5655 97.8002 22.0852 93.5075 22.0852C89.2147 22.0852 85.7348 25.5655 85.7348 29.8586C85.7348 34.1517 89.2147 37.6319 93.5075 37.6319Z" stroke="#000000" stroke-width="2" fill="none" vector-effect="non-scaling-stroke" stroke-linecap="round" stroke-linejoin="round" /></g></g></svg>