<?xml version='1.0' encoding='utf-8'?>
<svg xmlns="http://www.w3.org/2000/svg" viewBox="0 0 1920 400" width="1920" height="400" fill="none"><defs><clipPath id="canvasClip"><rect width="1920" height="400" /></clipPath></defs><g clip-path="url(#canvasClip)"><g transform="translate(1109.2477876106195 -125.0) scale(5.752212389380531)"><path d="M57.2083 74.4896C26.1667 74.4896 1 58.0417 1 37.7448C1 17.4531 26.1667 1 57.2083 1C88.25 1 113.417 17.4531 113.417 37.7448C113.417 58.0417 88.25 74.4896 57.2083 74.4896Z" stroke="#000000" stroke-width="2" stroke-miterlimit="10" fill="none" vector-effect="non-scaling-stroke" stroke-linecap="round" stroke-linejoin="round" /><path d="M57.2083 92.8646C26.1667 92.8646 1 76.4115 1 56.1198C1 35.8229 26.1667 19.375 57.2083 19.375C88.25 19.375 113.417 35.8229 113.417 56.1198C113.417 76.4115 88.25 92.8646 57.2083 92.8646Z" stroke="#000000" stroke-width="2" stroke-miterlimit="10" fill="none" vector-effect="non-scaling-stroke" stroke-linecap="round" stroke-linejoin="round" /><path d="M57.2083 111.234C26.1667 111.234 1 94.7865 1 74.4896C1 54.1979 26.1667 37.7448 57.2083 37.7448C88.25 37.7448 113.417 54.1979 113.417 74.4896C113.417 94.7865 88.25 111.234 57.2083 111.234Z" stroke="#000000" stroke-width="2" stroke-miterlimit="10" fill="none" vector-effect="non-scaling-stroke" stroke-linecap="round" stroke-linejoin="round" /></g></g></svg>