<?xml version='1.0' encoding='utf-8'?>
<svg xmlns="http://www.w3.org/2000/svg" viewBox="0 0 1920 400" width="1920" height="400" fill="none"><defs><clipPath id="canvasClip"><rect width="1920" height="400" /></clipPath></defs><g clip-path="url(#canvasClip)"><g transform="translate(1229.8706896551723 -125.0) scale(5.603448275862069)"><path d="M15.3194 75.9408C20.4789 82.5112 28.5619 86.7673 37.5667 86.7673C46.5715 86.7673 54.2515 82.7242 59.4232 76.3846M11.2825 86.6094C21.5529 88.6376 37 97.6734 37 116C37 97.5033 52.8021 88.5161 63.0724 86.6093M11.2825 86.6094L13.8866 91.1394M11.2825 86.6094L15.3712 83.4396M63.0724 86.6093L59.0446 83.1723M63.0724 86.6093L60.079 91.1394M64.9584 29.1397C64.9584 44.6808 52.3352 57.2794 36.7637 57.2794C21.1922 57.2794 8.56895 44.6808 8.56895 29.1397C8.56895 13.5986 21.1922 1 36.7637 1C52.3352 1 64.9584 13.5986 64.9584 29.1397ZM19.0826 68.6136C19.0826 73.5972 15.0347 77.6372 10.0413 77.6372C5.04793 77.6372 1 73.5972 1 68.6136C1 63.63 5.04793 59.5899 10.0413 59.5899C15.0347 59.5899 19.0826 63.63 19.0826 68.6136ZM73.0629 68.6136C73.0629 73.5972 69.015 77.6372 64.0216 77.6372C59.0283 77.6372 54.9803 73.5972 54.9803 68.6136C54.9803 63.63 59.0283 59.5899 64.0216 59.5899C69.015 59.5899 73.0629 63.63 73.0629 68.6136Z" stroke="#000000" stroke-width="2" stroke-miterlimit="10" fill="none" vector-effect="non-scaling-stroke" stroke-linecap="round" stroke-linejoin="round" /></g></g></svg>