<?xml version='1.0' encoding='utf-8'?>
<svg xmlns="http://www.w3.org/2000/svg" viewBox="0 0 1920 400" width="1920" height="400" fill="none"><defs><clipPath id="canvasClip"><rect width="1920" height="400" /></clipPath></defs><g clip-path="url(#canvasClip)"><g transform="translate(1097.5892857142858 -125.0) scale(5.803571428571429)"><path d="M115.849 31.8758C114.115 29.2195 112.188 26.6466 110.036 24.1935C85.3333 -4.03566 42.4219 -6.89504 14.1927 17.8081C9.38021 22.0216 5.32813 26.7664 2 31.8758H115.849ZM106.161 70.2196C104.109 65.6571 101.359 61.3133 97.8906 57.355C79.0573 35.8289 46.3333 33.6518 24.8073 52.4852C19.0208 57.5529 14.6458 63.631 11.6875 70.2196H106.161ZM26.5208 110.417C26.5208 92.5216 41.0313 78.0164 58.9219 78.0164C76.8177 78.0164 91.3281 92.5216 91.3281 110.417H26.5208Z" stroke="#000000" stroke-width="2" fill="none" vector-effect="non-scaling-stroke" stroke-linecap="round" stroke-linejoin="round" /></g></g></svg>