<?xml version='1.0' encoding='utf-8'?>
<svg xmlns="http://www.w3.org/2000/svg" viewBox="0 0 1920 400" width="1920" height="400" fill="none"><defs><clipPath id="canvasClip"><rect width="1920" height="400" /></clipPath></defs><g clip-path="url(#canvasClip)"><g transform="translate(1117.685950413223 -125.0) scale(5.371900826446281)"><path d="M1 31.1585L17.3078 1H50.3605M1 31.1585L18.208 60.2746M1 31.1585H34.1875M50.3605 1L68.9554 31.1585M50.3605 1L34.1875 31.1585M68.9554 31.1585L102.011 31.1585M68.9554 31.1585L51.5081 60.2746M102.011 31.1585L119 60.436L102.011 90.0268M102.011 31.1585L85.1822 60.2747M102.011 90.0268L68.9554 90.0268M102.011 90.0268L85.1822 60.2747M68.9554 90.0268L52.5592 119.658M68.9554 90.0268L51.5081 60.2746M52.5592 119.658L18.3641 119.658L1 90.0268M52.5592 119.658L34.1875 90.0268M1 90.0268L18.208 60.2746M1 90.0268L34.1875 90.0268M18.208 60.2746L51.5081 60.2746M85.1822 60.2747L51.5081 60.2746M34.1875 31.1585L51.5081 60.2746M34.1875 90.0268L51.5081 60.2746" stroke="#000000" stroke-width="2" stroke-miterlimit="10" stroke-linecap="round" stroke-linejoin="round" fill="none" vector-effect="non-scaling-stroke" /></g></g></svg>