<?xml version='1.0' encoding='utf-8'?>
<svg xmlns="http://www.w3.org/2000/svg" viewBox="0 0 1920 400" width="1920" height="400" fill="none"><defs><clipPath id="canvasClip"><rect width="1920" height="400" /></clipPath></defs><g clip-path="url(#canvasClip)"><g transform="translate(1178.274336283186 -125.0) scale(5.752212389380531)"><path d="M50.7614 71.2824L57.4079 103.136M50.7614 71.2824H42.4279V62.9541M50.7614 71.2824V62.9541H42.4279M50.7614 71.2824L67.1522 86.797M50.7614 71.2824L36.8948 94.2753M50.7614 71.2824L76.6487 60.3781M50.7614 71.2824L81.4464 33.1765M26.3396 40.7017L22.2824 30.5481M26.3396 40.7017V49.0353H34.6732M26.3396 40.7017H34.6732V49.0353M22.2824 30.5481H13.9488V22.2198H22.2824V30.5481ZM36.2155 31.0123L42.4279 62.9541M42.4279 62.9541L9.32834 45.0895M81.4464 33.1765H89.78V24.8429H81.4464V33.1765ZM34.6732 49.0353L42.4279 62.9541L19.3881 65.1412M36.8948 94.2753V102.609H28.5612V94.2753H36.8948ZM67.1522 86.797V95.1306H75.4805V86.797H67.1522ZM51.1839 23.0328L40.5088 26.8853M55.3021 18.9917L60.0137 9.33457M65.0609 9.33355H56.7274V1H65.0609V9.33355ZM84.9822 64.6855H76.6487V56.3571H84.9822V64.6855ZM19.3881 61.0141V69.3477H11.0545V61.0141H19.3881ZM40.5088 22.6787V31.0123H32.1752V22.6787H40.5088ZM61.5721 111.469H53.2438V103.136H61.5721V111.469ZM9.32834 49.4994H1V41.1659H9.32834V49.4994ZM59.5174 27.3253H51.1839V18.9917H59.5174V27.3253Z" stroke="#000000" stroke-width="2" stroke-miterlimit="10" stroke-linejoin="round" fill="none" vector-effect="non-scaling-stroke" stroke-linecap="round" /></g></g></svg>