<?xml version='1.0' encoding='utf-8'?>
<svg xmlns="http://www.w3.org/2000/svg" viewBox="0 0 1920 400" width="1920" height="400" fill="none"><defs><clipPath id="canvasClip"><rect width="1920" height="400" /></clipPath></defs><g clip-path="url(#canvasClip)"><g transform="translate(1181.1016949152543 -125.0) scale(5.508474576271187)"><path d="M1 59L57 115V59M1 59L57 3V59M1 59L1.00003 31L29.0462 59L1.00003 87L1 59ZM36.5502 59L78.56 101V17L36.5502 59ZM36.5502 59V3L92.5502 59M36.5502 59V115L92.5502 59M92.5502 59L92.5501 31L64.504 59L92.5501 87L92.5502 59ZM57 59L15 101V17L57 59Z" stroke="#000000" stroke-width="2" stroke-miterlimit="10" fill="none" vector-effect="non-scaling-stroke" stroke-linecap="round" stroke-linejoin="round" /></g></g></svg>