<?xml version='1.0' encoding='utf-8'?>
<svg xmlns="http://www.w3.org/2000/svg" viewBox="0 0 1920 400" width="1920" height="400" fill="none"><defs><clipPath id="canvasClip"><rect width="1920" height="400" /></clipPath></defs><g clip-path="url(#canvasClip)"><g transform="translate(1054.5348837209303 -125.0) scale(7.558139534883721)"><path d="M1 43.0025C1 66.0752 19.7059 84.5571 42.7786 84.5571V1C19.7059 1 1 19.9298 1 43.0025ZM1 43.0025C1 56.8093 12.1907 68 26.0025 68C39.8093 68 51 56.8093 51 43.0025M1 43.0025C1 29.1957 12.1907 18 26.0025 18C39.8093 18 51 29.1957 51 43.0025M51 43.0025C51 29.1957 62.1907 18 75.9975 18C89.8093 18 101 29.1957 101 43.0025M51 43.0025C51 56.8093 62.1907 68 75.9975 68C89.8093 68 101 56.8093 101 43.0025M101 43.0025C101 66.0752 82.2941 84.5571 59.2214 84.5571V1C82.2941 1 101 19.9298 101 43.0025ZM25.5038 29.9999C32.4072 29.9999 38.0025 35.5953 38.0025 42.4987C38.0025 49.4021 32.4072 54.9974 25.5038 54.9974C18.6004 54.9974 13.0001 49.4021 13.0001 42.4987C13.0001 35.5953 18.6004 29.9999 25.5038 29.9999ZM76.4962 29.9999C69.5928 29.9999 63.9975 35.5953 63.9975 42.4987C63.9975 49.4021 69.5928 54.9974 76.4962 54.9974C83.3996 54.9974 88.9999 49.4021 88.9999 42.4987C88.9999 35.5953 83.3996 29.9999 76.4962 29.9999Z" stroke="#000000" stroke-width="2" stroke-miterlimit="10" fill="none" vector-effect="non-scaling-stroke" stroke-linecap="round" stroke-linejoin="round" /></g></g></svg>