<?xml version='1.0' encoding='utf-8'?>
<svg xmlns="http://www.w3.org/2000/svg" viewBox="0 0 1920 400" width="1920" height="400" fill="none"><defs><clipPath id="canvasClip"><rect width="1920" height="400" /></clipPath></defs><g clip-path="url(#canvasClip)"><g transform="translate(836.4285714285714 -125.0) scale(10.317460317460318)"><path d="M85.5313 61.974C102.177 61.974 115.672 48.4792 115.672 31.8334C115.672 15.1927 102.177 1.69794 85.5313 1.69794V61.974ZM49.2604 61.974C65.9063 61.974 79.3958 48.4792 79.3958 31.8334C79.3958 15.1927 65.9063 1.69794 49.2604 1.69794V61.974ZM22.0156 52.0209C33.1615 52.0209 42.1979 42.9844 42.1979 31.8334C42.1979 20.6875 33.1615 11.6459 22.0156 11.6459C10.8646 11.6459 1.82812 20.6875 1.82812 31.8334C1.82812 42.9844 10.8646 52.0209 22.0156 52.0209Z" stroke="#000000" stroke-width="2" stroke-miterlimit="10" fill="none" vector-effect="non-scaling-stroke" stroke-linecap="round" stroke-linejoin="round" /></g></g></svg>