<?xml version='1.0' encoding='utf-8'?>
<svg xmlns="http://www.w3.org/2000/svg" viewBox="0 0 1920 400" width="1920" height="400" fill="none"><defs><clipPath id="canvasClip"><rect width="1920" height="400" /></clipPath></defs><g clip-path="url(#canvasClip)"><g transform="translate(1091.7857142857142 -125.0) scale(6.63265306122449)"><path d="M56.0453 89.0059C65.6495 89.0059 73.4352 81.2966 73.4352 71.7866C73.4352 62.2767 65.6495 54.5674 56.0453 54.5674M56.0453 89.0059C46.4412 89.0059 38.6554 81.2966 38.6554 71.7866C38.6554 62.2767 46.4412 54.5674 56.0453 54.5674M56.0453 89.0059V54.5674M72.5082 66.2252H39.5824M72.5068 77.3522H39.5839M78.9941 89.0059C88.5982 89.0059 96.384 81.2966 96.384 71.7866C96.384 62.2767 88.5982 54.5674 78.9941 54.5674M78.9941 89.0059C69.3899 89.0059 61.6042 81.2966 61.6042 71.7866C61.6042 62.2767 69.3899 54.5674 78.9941 54.5674M78.9941 89.0059V54.5674M95.457 66.2252H62.5312M95.4555 77.3522H62.5326M64.745 71.7866C64.745 81.2966 60.8495 89.0059 56.0441 89.0059C51.2387 89.0059 47.3432 81.2966 47.3432 71.7866C47.3432 62.2767 51.2387 54.5674 56.0441 54.5674C60.8495 54.5674 64.745 62.2767 64.745 71.7866ZM87.6938 71.7866C87.6938 81.2966 83.7983 89.0059 78.9929 89.0059C74.1875 89.0059 70.292 81.2966 70.292 71.7866C70.292 62.2767 74.1875 54.5674 78.9929 54.5674C83.7983 54.5674 87.6938 62.2767 87.6938 71.7866ZM24.0473 97V50.0577H30.7311V73.127C30.7311 86.3044 41.5207 96.9882 54.8286 96.9882H78.7591C92.6519 96.9882 103.907 85.8435 103.907 72.087V25.3693C103.907 11.9083 92.8906 1 79.2962 1H41.8071V50.8141H79.2246C90.9213 50.8141 100.398 60.1978 100.398 71.7798C100.398 83.3617 90.9213 92.7454 79.2246 92.7454H55.2703C44.2061 92.7454 35.2307 83.8581 35.2307 72.9025V1H19.8699V16.2811C19.8699 18.3256 19.2492 20.3111 18.0796 21.9893L3.75708 42.6122C1.96677 45.2004 1 48.2614 1 51.3932V73.198H17.1486C18.4734 73.198 19.5476 74.2616 19.5476 75.5734V97H24.0473Z" stroke="#000000" stroke-width="2" stroke-miterlimit="10" fill="none" vector-effect="non-scaling-stroke" stroke-linecap="round" stroke-linejoin="round" /></g></g></svg>