<?xml version='1.0' encoding='utf-8'?>
<svg xmlns="http://www.w3.org/2000/svg" viewBox="0 0 1920 400" width="1920" height="400" fill="none"><defs><clipPath id="canvasClip"><rect width="1920" height="400" /></clipPath></defs><g clip-path="url(#canvasClip)"><g transform="translate(1112.2916666666665 -125.0) scale(5.416666666666667)"><path d="M112.421 59.1042C111.869 59.6563 111.13 59.9636 110.348 59.9636H110.338C109.551 59.9584 108.812 59.6511 108.255 59.0886C107.702 58.5365 107.395 57.7917 107.4 57.0053C107.406 56.2188 107.713 55.4793 108.27 54.9272C108.822 54.3751 109.562 54.073 110.348 54.073H110.354C111.14 54.073 111.88 54.3803 112.432 54.9428C112.989 55.5001 113.296 56.2397 113.291 57.0261C113.286 57.8126 112.979 58.5522 112.421 59.1042ZM92.6765 60.0574C92.6452 68.7084 89.2546 76.8334 83.1192 82.9376C77.5619 88.4636 70.4785 91.5522 63.2233 92.2084V86.4688C63.2233 84.8438 61.9056 83.5209 60.2754 83.5209C58.6452 83.5209 57.3327 84.8438 57.3327 86.4688V92.198C50.3119 91.5626 43.4785 88.6303 38.0098 83.448L41.739 79.7136C42.89 78.5626 42.89 76.7032 41.739 75.5522C40.5931 74.4011 38.7285 74.4011 37.5775 75.5522L34.114 79.0157C30.0671 73.4792 27.8587 66.849 27.8796 59.8647C27.9056 51.2136 31.2962 43.0886 37.4317 36.9845C43.7442 30.7136 52.0098 27.5782 60.2754 27.5782C66.9785 27.5782 73.666 29.6772 79.3223 33.8022L75.864 37.2605C74.7129 38.4115 74.7129 40.2761 75.864 41.4272C76.4421 42.0001 77.1921 42.2917 77.9473 42.2917C78.7025 42.2917 79.4525 42.0001 80.0306 41.4272L83.765 37.6928C88.1296 42.2917 91.0046 47.9428 92.1244 54.073H86.7858C85.1556 54.073 83.8379 55.3907 83.8379 57.0157C83.8379 58.6407 85.1556 59.9636 86.7858 59.9636H92.6712C92.6712 59.9949 92.6765 60.0261 92.6765 60.0574ZM95.6192 92.3595H95.6296C96.4108 92.3595 97.1504 92.672 97.7077 93.2292C98.2598 93.7865 98.5671 94.5261 98.5671 95.3126C98.5619 96.099 98.2546 96.8386 97.6973 97.3959C97.14 97.948 96.4056 98.2501 95.6192 98.2501H95.6087C94.8223 98.2501 94.0879 97.9376 93.5306 97.3803C92.9733 96.823 92.6712 96.0834 92.6765 95.297C92.6765 94.5105 92.9837 93.7709 93.541 93.2136C94.0983 92.6615 94.8327 92.3595 95.6192 92.3595ZM62.3535 112.12C61.7962 112.672 61.0619 112.974 60.2754 112.974H60.265C59.4837 112.974 58.7442 112.667 58.1869 112.104C57.6348 111.552 57.3275 110.807 57.3327 110.021C57.3327 109.234 57.64 108.495 58.1973 107.943C58.7546 107.391 59.489 107.083 60.2754 107.083H60.2858C61.0723 107.089 61.8067 107.396 62.364 107.958C62.9212 108.511 63.2233 109.25 63.2233 110.037C63.2181 110.828 62.9108 111.568 62.3535 112.12ZM27.0098 94.448C26.4525 95.0001 25.7181 95.3022 24.9317 95.3022H24.9212C24.14 95.3022 23.4004 94.9949 22.8431 94.4376C22.291 93.8751 21.9837 93.1355 21.989 92.349C21.989 91.5626 22.2962 90.823 22.8535 90.2709C23.4108 89.7188 24.1452 89.4115 24.9317 89.4115H24.9421C25.7285 89.4168 26.4681 89.724 27.0202 90.2865C27.5775 90.8386 27.8796 91.5834 27.8796 92.3699C27.8744 93.1563 27.5671 93.8959 27.0098 94.448ZM24.9317 27.5626H24.9212C24.14 27.5626 23.4004 27.2501 22.8431 26.6928C22.291 26.1355 21.9837 25.3959 21.989 24.6095C21.989 23.823 22.2962 23.0834 22.8535 22.5261C23.4108 21.974 24.1452 21.672 24.9317 21.672H24.9421C25.7285 21.672 26.4681 21.9845 27.0202 22.5417C27.5775 23.099 27.8796 23.8386 27.8796 24.6251C27.8744 25.4115 27.5671 26.1511 27.0098 26.7084C26.4525 27.2605 25.7181 27.5626 24.9317 27.5626ZM58.1973 7.80216C58.7546 7.25008 59.489 6.948 60.2754 6.948H60.2858C61.0723 6.948 61.8067 7.25529 62.364 7.81779C62.9212 8.37508 63.2233 9.11466 63.2233 9.90112C63.2181 10.6876 62.9108 11.4272 62.3535 11.9792C61.7962 12.5313 61.0619 12.8386 60.2754 12.8386H60.265C59.4837 12.8334 58.7442 12.5261 58.1869 11.9688C57.6348 11.4115 57.3275 10.672 57.3327 9.8855C57.3327 9.09383 57.64 8.35946 58.1973 7.80216ZM90.5983 22.5261C91.1504 21.974 91.89 21.672 92.6765 21.672H92.6817C93.4681 21.672 94.2077 21.9845 94.7598 22.5417C95.3171 23.099 95.6244 23.8386 95.6192 24.6251C95.6192 25.4115 95.3067 26.1511 94.7494 26.7084C94.1973 27.2605 93.4577 27.5626 92.6765 27.5626H92.666C91.8796 27.5626 91.14 27.2501 90.5879 26.6928C90.0306 26.1355 89.7285 25.3959 89.7285 24.6095C89.7337 23.823 90.041 23.0834 90.5983 22.5261ZM12.2858 59.1042C11.7285 59.6563 10.989 59.9636 10.2077 59.9636H10.1973C9.41083 59.9584 8.67125 59.6511 8.11916 59.0886C7.56187 58.5365 7.25979 57.7917 7.25979 57.0053C7.265 56.2188 7.57229 55.4793 8.12958 54.9272C8.68687 54.3751 9.42125 54.073 10.2077 54.073H10.2129C10.9994 54.073 11.739 54.3803 12.2962 54.9428C12.8483 55.5001 13.1556 56.2397 13.1504 57.0261C13.1504 57.8126 12.8431 58.5522 12.2858 59.1042ZM116.609 50.7865C114.947 49.1147 112.734 48.1876 110.369 48.1824H110.348C107.994 48.1824 105.786 49.0938 104.114 50.7501C103.161 51.698 102.484 52.8386 102.046 54.073H98.0723C96.89 46.3699 93.4056 39.2449 87.9317 33.5261L88.864 32.5886C88.8744 32.5834 88.8744 32.573 88.8796 32.5678C90.0462 33.1251 91.3171 33.448 92.6452 33.4532H92.6765C95.0254 33.4532 97.2337 32.5417 98.9056 30.8855C100.578 29.2188 101.505 27.0053 101.51 24.6459C101.515 22.2813 100.604 20.0626 98.9369 18.3907C97.2754 16.7136 95.0619 15.7917 92.6973 15.7813H92.6765C90.3223 15.7813 88.114 16.6928 86.4421 18.3542C84.7702 20.0157 83.8431 22.2345 83.8379 24.5938C83.8327 25.9428 84.1608 27.2292 84.7285 28.4115C84.7181 28.4167 84.7077 28.4167 84.7025 28.4272L83.5358 29.5938C77.6504 25.0678 70.6452 22.3751 63.1921 21.8178C63.1921 21.7657 63.2233 21.724 63.2233 21.672V18.1928C64.4369 17.7605 65.5619 17.0938 66.5046 16.1563C68.1817 14.4949 69.1087 12.2761 69.114 9.91675C69.1192 7.55737 68.2077 5.33341 66.541 3.66154C64.8796 1.98966 62.666 1.06258 60.3015 1.05737H60.2754C57.9212 1.05737 55.7129 1.96883 54.0462 3.62508C52.3692 5.29175 51.4473 7.50529 51.4421 9.86467C51.4317 12.2292 52.3483 14.448 54.0098 16.1199C54.9577 17.0782 56.0983 17.7553 57.3327 18.1928V21.672C57.3327 21.724 57.3587 21.7657 57.3587 21.8126C49.2129 22.422 41.5879 25.5834 35.39 30.9063L32.9056 28.4272C32.9004 28.4167 32.89 28.4167 32.8848 28.4115C33.4421 27.2449 33.765 25.974 33.7702 24.6459C33.7754 22.2813 32.864 20.0626 31.1973 18.3907C29.5358 16.7136 27.3171 15.7917 24.9577 15.7813H24.9317C22.5775 15.7813 20.3692 16.6928 18.7025 18.3542C17.0306 20.0157 16.1035 22.2345 16.0983 24.5938C16.0931 26.9532 17.0046 29.1772 18.666 30.849C20.3327 32.5209 22.5462 33.448 24.9056 33.4532H24.9317C26.2754 33.4532 27.5515 33.1251 28.7233 32.5678C28.7337 32.573 28.7337 32.5834 28.739 32.5886L31.2181 35.0678C26.5254 40.5261 23.5358 47.1042 22.4681 54.1667C22.3067 54.1407 22.1556 54.073 21.989 54.073H18.5098C18.0775 52.8542 17.4108 51.7292 16.4681 50.7865C14.8067 49.1147 12.5931 48.1876 10.2337 48.1824H10.2077C7.85354 48.1824 5.6452 49.0938 3.97854 50.7501C2.30145 52.4115 1.37437 54.6303 1.36916 56.9897C1.36395 59.349 2.27541 61.573 3.94208 63.2449C5.60354 64.922 7.81708 65.8438 10.1817 65.8542H10.2077C12.5619 65.8542 14.765 64.9428 16.4369 63.2813C17.39 62.3334 18.0723 61.1928 18.5046 59.9636H21.989C21.989 59.9636 21.989 59.9584 21.9942 59.9584C21.9942 68.4845 24.791 76.5678 29.9056 83.224L28.739 84.3855C28.7337 84.3959 28.7337 84.4011 28.7285 84.4115C27.5619 83.8543 26.291 83.5261 24.9577 83.5209H24.9317C22.5775 83.5209 20.3692 84.4376 18.7025 86.0938C17.0306 87.7553 16.1035 89.974 16.0983 92.3334C16.0931 94.6928 17.0046 96.9167 18.666 98.5886C20.3327 100.26 22.5462 101.188 24.9056 101.193H24.9317C27.2858 101.193 29.4942 100.281 31.1608 98.6251C32.8379 96.9636 33.7598 94.7449 33.7702 92.3855C33.7702 91.0365 33.4473 89.7501 32.8796 88.5678C32.89 88.5626 32.9004 88.5574 32.9056 88.5522L33.8431 87.6147C40.2858 93.7761 48.4994 97.4324 57.3327 98.1042V101.729C56.114 102.162 54.989 102.828 54.0462 103.766C52.3692 105.427 51.4473 107.646 51.4421 110.005C51.4317 112.365 52.3483 114.589 54.0098 116.26C55.6765 117.938 57.89 118.859 60.2494 118.865H60.2754C62.6296 118.865 64.8379 117.953 66.5046 116.297C68.1817 114.63 69.1087 112.417 69.114 110.057C69.1192 107.693 68.2077 105.474 66.541 103.802C65.5931 102.849 64.4525 102.167 63.2233 101.729V98.1095C71.3587 97.4897 78.9733 94.3334 85.166 89.0157L87.6452 91.4949C87.6504 91.5053 87.6608 91.5053 87.6712 91.5105C87.114 92.6772 86.7858 93.948 86.7858 95.2813C86.7806 97.6407 87.6869 99.8595 89.3535 101.537C91.015 103.208 93.2337 104.135 95.5931 104.141H95.6192C97.9733 104.141 100.182 103.229 101.848 101.573C103.525 99.9063 104.447 97.6928 104.458 95.3334C104.463 92.9688 103.546 90.7449 101.885 89.073C100.223 87.4011 98.0046 86.474 95.6452 86.4688H95.6192C94.2806 86.4688 92.9994 86.797 91.8275 87.3542C91.8223 87.349 91.8171 87.3386 91.8119 87.3334L89.3327 84.8542C95.265 77.9532 98.5358 69.2761 98.5671 60.073C98.5671 60.0365 98.5619 60.0001 98.5619 59.9636H102.046C102.473 61.1772 103.145 62.3022 104.083 63.2449C105.744 64.922 107.958 65.8438 110.317 65.8542H110.348C112.697 65.8542 114.906 64.9428 116.577 63.2813C118.249 61.6199 119.176 59.4011 119.182 57.0417C119.187 54.6824 118.275 52.4584 116.609 50.7865Z" stroke="#000000" stroke-width="2" stroke-miterlimit="10" fill="none" vector-effect="non-scaling-stroke" stroke-linecap="round" stroke-linejoin="round" /><path d="M53.515 47.323C52.9629 47.8751 52.2233 48.1824 51.4421 48.1824H51.4317C50.6452 48.1772 49.9056 47.8699 49.3535 47.3074C48.7962 46.7553 48.489 46.0105 48.4942 45.224C48.4994 44.4376 48.8067 43.7032 49.364 43.1459C49.916 42.5938 50.6556 42.2917 51.4421 42.2917H51.4473C52.2337 42.2917 52.9733 42.599 53.5306 43.1615C54.0827 43.7188 54.39 44.4584 54.3848 45.2449C54.3796 46.0313 54.0723 46.7709 53.515 47.323ZM51.4681 36.4011H51.4421C49.0879 36.4011 46.8796 37.3126 45.2077 38.9688C43.5358 40.6303 42.6087 42.849 42.6035 45.2084C42.5983 47.5678 43.5098 49.7917 45.1765 51.4636C46.8379 53.1407 49.0515 54.0626 51.416 54.073H51.4421C53.791 54.073 56.0046 53.1615 57.6712 51.5001C59.3431 49.8386 60.2702 47.6199 60.2754 45.2605C60.2806 42.9011 59.3692 40.6772 57.7025 39.0053C56.041 37.3334 53.8275 36.4063 51.4681 36.4011ZM74.1348 70.8855C73.5775 71.4376 72.8431 71.7449 72.0567 71.7449H72.0462C71.265 71.7397 70.5254 71.4324 69.9681 70.8699C69.416 70.3178 69.1087 69.573 69.114 68.7865C69.114 68.0001 69.4212 67.2605 69.9785 66.7084C70.5358 66.1563 71.2702 65.8542 72.0567 65.8542H72.0671C72.8535 65.8542 73.5879 66.1615 74.1452 66.7188C74.7025 67.2813 75.0046 68.0209 74.9994 68.8074C74.9994 69.5938 74.6921 70.3334 74.1348 70.8855ZM72.0827 59.9636H72.0567C69.7025 59.9636 67.4942 60.8751 65.8275 62.5313C64.1556 64.1928 63.2285 66.4115 63.2233 68.7709C63.2129 71.1303 64.1244 73.3542 65.791 75.0261C67.4525 76.7032 69.6712 77.6251 72.0306 77.6355H72.0567C74.4108 77.6355 76.6192 76.7188 78.2858 75.0626C79.9577 73.4011 80.8848 71.1824 80.89 68.823C80.9004 66.4636 79.989 64.2397 78.3223 62.5678C76.6608 60.8959 74.4421 59.9688 72.0827 59.9636Z" stroke="#000000" stroke-width="2" stroke-miterlimit="10" fill="none" vector-effect="non-scaling-stroke" stroke-linecap="round" stroke-linejoin="round" /></g></g></svg>