<?xml version='1.0' encoding='utf-8'?>
<svg xmlns="http://www.w3.org/2000/svg" viewBox="0 0 1920 400" width="1920" height="400" fill="none"><defs><clipPath id="canvasClip"><rect width="1920" height="400" /></clipPath></defs><g clip-path="url(#canvasClip)"><g transform="translate(1263.4913793103449 -125.0) scale(5.603448275862069)"><path d="M31.1354 114.844C14.4896 114.844 1 101.354 1 84.7083H61.276C61.276 101.354 47.7813 114.844 31.1354 114.844ZM31.1354 114.844C19.9896 114.844 10.9479 105.807 10.9479 94.6562C10.9479 83.5104 19.9896 74.474 31.1354 74.474C42.2865 74.474 51.3229 83.5104 51.3229 94.6562C51.3229 105.807 42.2865 114.844 31.1354 114.844ZM31.1354 1C42.2865 1 51.3229 10.0365 51.3229 21.1875C51.3229 32.3333 42.2865 41.375 31.1354 41.375C19.9896 41.375 10.9479 32.3333 10.9479 21.1875C10.9479 10.0365 19.9896 1 31.1354 1ZM31.1354 1C47.7813 1 61.276 14.4896 61.276 31.1354H1C1 14.4896 14.4896 1 31.1354 1ZM1 48.4323C1 65.0781 14.4896 78.5729 31.1354 78.5729C47.7813 78.5729 61.276 65.0781 61.276 48.4323H1ZM61.276 67.4115C61.276 50.7656 47.7813 37.2708 31.1354 37.2708C14.4896 37.2708 1 50.7656 1 67.4115H61.276Z" stroke="#000000" stroke-width="2" stroke-miterlimit="10" fill="none" vector-effect="non-scaling-stroke" stroke-linecap="round" stroke-linejoin="round" /></g></g></svg>