<?xml version='1.0' encoding='utf-8'?>
<svg xmlns="http://www.w3.org/2000/svg" viewBox="0 0 1920 400" width="1920" height="400" fill="none"><defs><clipPath id="canvasClip"><rect width="1920" height="400" /></clipPath></defs><g clip-path="url(#canvasClip)"><g transform="translate(1117.8508771929824 -125.0) scale(5.701754385964913)"><path d="M6.33349 54.3228C3.3907 54.3228 1 51.9378 1 48.9905C1 46.0484 3.3907 43.6582 6.33349 43.6582C9.2815 43.6582 11.667 46.0484 11.667 48.9905C11.667 51.9378 9.2815 54.3228 6.33349 54.3228ZM6.33349 54.3228V102.313M11.667 107.646C11.667 110.593 9.2815 112.978 6.33349 112.978C3.3907 112.978 1 110.593 1 107.646C1 104.703 3.3907 102.313 6.33349 102.313M11.667 107.646C11.667 104.703 9.2815 102.313 6.33349 102.313M11.667 107.646H67.6687M67.6687 107.646C67.6687 110.593 70.0594 112.978 73.0022 112.978C75.9502 112.978 78.3357 110.593 78.3357 107.646C78.3357 104.703 75.9502 102.313 73.0022 102.313C70.0594 102.313 67.6687 104.703 67.6687 107.646ZM102.676 10.2102L10.1006 103.871M41.0455 41.6371L8.80626 102.92M86.7123 77.6219L11.3324 105.783M95.2207 49.2663L10.7949 104.723M38.3345 36.9929C38.3345 39.9402 40.7252 42.3251 43.668 42.3251C46.616 42.3251 49.0014 39.9402 49.0014 36.9929C49.0014 34.0507 46.616 31.6606 43.668 31.6606C40.7252 31.6606 38.3345 34.0507 38.3345 36.9929ZM101.003 6.33228C101.003 9.27961 103.394 11.6646 106.336 11.6646C109.285 11.6646 111.67 9.27961 111.67 6.33228C111.67 3.39015 109.285 1 106.336 1C103.394 1 101.003 3.39015 101.003 6.33228ZM94.3361 46.3243C94.3361 49.2717 96.7268 51.6566 99.6696 51.6566C102.618 51.6566 105.003 49.2717 105.003 46.3243C105.003 43.3822 102.618 40.9921 99.6696 40.9921C96.7268 40.9921 94.3361 43.3822 94.3361 46.3243ZM86.3366 75.6519C86.3366 78.5992 88.7272 80.9842 91.67 80.9842C94.618 80.9842 97.0035 78.5992 97.0035 75.6519C97.0035 72.7098 94.618 70.3196 91.67 70.3196C88.7272 70.3196 86.3366 72.7098 86.3366 75.6519Z" stroke="#000000" stroke-width="2" stroke-miterlimit="10" fill="none" vector-effect="non-scaling-stroke" stroke-linecap="round" stroke-linejoin="round" /></g></g></svg>