<?xml version='1.0' encoding='utf-8'?>
<svg xmlns="http://www.w3.org/2000/svg" viewBox="0 0 1920 400" width="1920" height="400" fill="none"><defs><clipPath id="canvasClip"><rect width="1920" height="400" /></clipPath></defs><g clip-path="url(#canvasClip)"><g transform="translate(1071.25 -125.0) scale(6.25)"><path d="M58.6018 68.2229C68.1266 68.2229 75.8479 60.5012 75.8479 50.9759C75.8479 41.4507 68.1266 33.729 58.6018 33.729M58.6018 68.2229C49.0771 68.2229 41.3557 60.5012 41.3557 50.9759C41.3557 41.4507 49.0771 33.729 58.6018 33.729M58.6018 68.2229C63.3642 68.2229 67.2249 60.5012 67.2249 50.9759C67.2249 41.4507 63.3642 33.729 58.6018 33.729M58.6018 68.2229C53.8395 68.2229 49.9788 60.5012 49.9788 50.9759C49.9788 41.4507 53.8395 33.729 58.6018 33.729M58.6018 33.729V68.2184M74.9032 45.3317H42.3004M74.9064 56.611H42.2973M49.0007 7.37995C49.0007 7.37995 82.2413 10.2143 82.4031 42.2889M93.1519 21.1882C93.1519 21.1882 107.048 51.5216 79.2093 67.4469M102.643 65.8254C102.643 65.8254 83.4431 93.1096 55.657 77.0868M68.2211 96.1839C68.2211 96.1839 35.1943 91.4671 36.8548 59.4334M25.4116 82.8382C25.4116 82.8382 9.8612 53.3194 36.7815 35.8772M14.9554 38.2559C14.9554 38.2559 33.355 10.4245 61.5925 25.6341M39.6535 7.42711C39.6715 10.9946 36.7942 13.9013 33.2269 13.9193C29.6595 13.9373 26.7531 11.0598 26.735 7.4923C26.717 3.92478 29.5943 1.01814 33.1617 1.00014C36.729 0.982143 39.6355 3.85959 39.6535 7.42711ZM91.7615 7.42705C91.7795 10.9946 88.9022 13.9012 85.3348 13.9192C81.7675 13.9372 78.861 11.0598 78.843 7.49224C78.825 3.92472 81.7023 1.01808 85.2696 1.00008C88.837 0.982083 91.7435 3.85953 91.7615 7.42705ZM117 52.1371C117.018 55.7047 114.141 58.6113 110.573 58.6293C107.006 58.6473 104.099 55.7698 104.081 52.2023C104.063 48.6348 106.941 45.7282 110.508 45.7102C114.075 45.6922 116.982 48.5696 117 52.1371ZM90.4686 96.0735C90.4866 99.6411 87.6093 102.548 84.042 102.566C80.4747 102.584 77.5682 99.7063 77.5502 96.1387C77.5322 92.5712 80.4095 89.6646 83.9768 89.6466C87.5441 89.6286 90.4506 92.506 90.4686 96.0735ZM40.4652 96.0734C40.4832 99.6409 37.6059 102.548 34.0386 102.566C30.4713 102.584 27.5648 99.7061 27.5468 96.1386C27.5288 92.5711 30.4061 89.6644 33.9734 89.6464C37.5407 89.6284 40.4472 92.5059 40.4652 96.0734ZM13.9185 52.1373C13.9365 55.7048 11.0592 58.6114 7.49191 58.6294C3.92458 58.6474 1.01809 55.77 1.00008 52.2025C0.982082 48.6349 3.85938 45.7283 7.42672 45.7103C10.9941 45.6923 13.9005 48.5698 13.9185 52.1373Z" stroke="#000000" stroke-width="2" stroke-miterlimit="10" stroke-linecap="round" fill="none" vector-effect="non-scaling-stroke" stroke-linejoin="round" /></g></g></svg>