<?xml version='1.0' encoding='utf-8'?>
<svg xmlns="http://www.w3.org/2000/svg" viewBox="0 0 1920 400" width="1920" height="400" fill="none"><defs><clipPath id="canvasClip"><rect width="1920" height="400" /></clipPath></defs><g clip-path="url(#canvasClip)"><g transform="translate(1115.0 -125.0) scale(5.555555555555555)"><path d="M58.1198 1C89.6667 1 115.24 26.5729 115.24 58.1198C115.24 89.6667 89.6667 115.24 58.1198 115.24C26.5729 115.24 1 89.6667 1 58.1198C1 26.5729 26.5729 1 58.1198 1Z" stroke="#000000" stroke-width="2" stroke-miterlimit="10" fill="none" vector-effect="non-scaling-stroke" stroke-linecap="round" stroke-linejoin="round" /><path d="M58.1198 9.42708C74.2604 9.42708 87.3438 22.5104 87.3438 38.651C87.3438 54.7917 74.2604 67.875 58.1198 67.875C41.9792 67.875 28.8958 54.7917 28.8958 38.651C28.8958 22.5104 41.9792 9.42708 58.1198 9.42708Z" stroke="#000000" stroke-width="2" stroke-miterlimit="10" fill="none" vector-effect="non-scaling-stroke" stroke-linecap="round" stroke-linejoin="round" /><path d="M58.1198 38.651C63.4948 38.651 67.8542 43.0104 67.8542 48.3854C67.8542 53.7604 63.4948 58.1198 58.1198 58.1198C52.7448 58.1198 48.3854 53.7604 48.3854 48.3854C48.3854 43.0104 52.7448 38.651 58.1198 38.651Z" stroke="#000000" stroke-width="2" stroke-miterlimit="10" fill="none" vector-effect="non-scaling-stroke" stroke-linecap="round" stroke-linejoin="round" /></g></g></svg>