<?xml version='1.0' encoding='utf-8'?>
<svg xmlns="http://www.w3.org/2000/svg" viewBox="0 0 1920 400" width="1920" height="400" fill="none"><defs><clipPath id="canvasClip"><rect width="1920" height="400" /></clipPath></defs><g clip-path="url(#canvasClip)"><g transform="translate(799.4202898550725 -125.0) scale(9.420289855072463)"><path d="M134.047 1C134.047 37.7396 104.26 67.5208 67.526 67.5208C30.7865 67.5208 1 37.7396 1 1M1 67.5208C1 30.7812 30.7865 1 67.526 1C104.26 1 134.047 30.7812 134.047 67.5208M87.7083 34.2604C87.7083 45.4115 78.6719 54.4479 67.526 54.4479C56.375 54.4479 47.3385 45.4115 47.3385 34.2604C47.3385 23.1146 56.375 14.0781 67.526 14.0781C78.6719 14.0781 87.7083 23.1146 87.7083 34.2604Z" stroke="#000000" stroke-width="2" stroke-miterlimit="10" fill="none" vector-effect="non-scaling-stroke" stroke-linecap="round" stroke-linejoin="round" /></g></g></svg>