<?xml version='1.0' encoding='utf-8'?>
<svg xmlns="http://www.w3.org/2000/svg" width="99" height="133" viewBox="0 0 99 133" fill="none" stroke="currentColor" stroke-width="1.5">
<path d="M57.7481 133C57.7481 130.766 56.8606 128.624 55.2809 127.044C53.7012 125.464 51.5586 124.577 49.3246 124.577C47.0905 124.577 44.9479 125.464 43.3682 127.044C41.7885 128.624 40.901 130.766 40.901 133M78.5853 133C78.5853 125.181 75.5025 117.682 70.0151 112.153C64.5276 106.624 57.085 103.518 49.3246 103.518C41.5641 103.518 34.1216 106.624 28.6341 112.153C23.1466 117.682 20.0638 125.181 20.0638 133M97.8708 133C97.8708 120.007 92.7678 107.547 83.6844 98.3593C74.601 89.1719 62.2813 84.0105 49.4354 84.0105C36.5895 84.0105 24.2698 89.1719 15.1864 98.3593C6.10301 107.547 1 120.007 1 133M57.7481 0C57.7481 2.23406 56.8606 4.37663 55.2809 5.95635C53.7012 7.53607 51.5586 8.42355 49.3246 8.42355C47.0905 8.42355 44.9479 7.53607 43.3682 5.95635C41.7885 4.37663 40.901 2.23406 40.901 0M78.5853 0C78.5853 7.81922 75.5025 15.3182 70.0151 20.8472C64.5276 26.3762 57.085 29.4824 49.3246 29.4824C41.5641 29.4824 34.1216 26.3762 28.6341 20.8472C23.1466 15.3182 20.0638 7.81923 20.0638 3.8147e-06M97.8708 0C97.8708 12.9928 92.7678 25.4535 83.6844 34.6409C74.601 43.8282 62.2813 48.9896 49.4354 48.9896C36.5895 48.9896 24.2698 43.8282 15.1864 34.6409C6.10301 25.4535 1 12.9929 1 7.62939e-06" stroke="currentColor" stroke-width="1.5" fill="none" />
</svg>