<?xml version='1.0' encoding='utf-8'?>
<svg xmlns="http://www.w3.org/2000/svg" width="123" height="111" viewBox="0 0 123 111" fill="none" stroke="currentColor" stroke-width="1.5">
<path d="M111.844 59.849C111.844 87.5469 89.3906 110.005 61.6875 110.005C33.9896 110.005 11.5365 87.5469 11.5365 59.849M100.417 59.849C100.417 81.2344 83.0781 98.5729 61.6875 98.5729C40.3021 98.5729 22.9635 81.2344 22.9635 59.849M88.9896 59.849C88.9896 74.9271 76.7656 87.1458 61.6875 87.1458C46.6146 87.1458 34.3958 74.9271 34.3958 59.849M77.5573 59.849C77.5573 68.6146 70.4531 75.7188 61.6875 75.7188C52.9271 75.7188 45.8229 68.6146 45.8229 59.849M28.0781 4L33.7344 21.5312L52.1562 21.4896L37.2292 32.2865L42.9583 49.7969L28.0781 38.9375L13.1979 49.7969L18.9271 32.2865L4 21.4896L22.4219 21.5312L28.0781 4ZM95.1667 4L100.823 21.5312L119.245 21.4896L104.318 32.2865L110.047 49.7969L95.1667 38.9375L80.2865 49.7969L86.0156 32.2865L71.0885 21.4896L89.5156 21.5312L95.1667 4Z" stroke="currentColor" stroke-width="1.5" stroke-miterlimit="10" fill="none" />
</svg>