<?xml version='1.0' encoding='utf-8'?>
<svg xmlns="http://www.w3.org/2000/svg" width="122" height="117" viewBox="0 0 122 117" fill="none" stroke="currentColor" stroke-width="1.5">
<path d="M120.208 58.0677C120.182 41.6406 93.5364 28.3594 60.6875 28.4063C27.8385 28.4479 1.22393 41.7969 1.24476 58.2188C1.2708 74.6458 27.9166 87.9271 60.7656 87.8854C93.6146 87.8385 120.229 74.4896 120.208 58.0677ZM120.208 58.0677L1.24997 58.224M2.78643 58.2188L118.667 58.0677M60.651 0.203125L60.8021 116.083M19.7031 17.2292L101.75 99.0625M101.646 17.1198L19.8125 99.1667M37.8385 4.91667L83.6198 111.37M113.953 35.2552L7.49997 81.0365M37.9739 111.432L83.4791 4.85417M114.016 80.8958L7.43747 35.3906" stroke="currentColor" stroke-width="1.5" stroke-miterlimit="10" fill="none" />
</svg>