<?xml version='1.0' encoding='utf-8'?>
<svg xmlns="http://www.w3.org/2000/svg" width="112" height="116" viewBox="0 0 112 116" fill="none" stroke="currentColor" stroke-width="1.5">
<path d="M55.9987 82.2769C71.1851 82.2769 83.4987 71.3373 83.4987 57.8475C83.4987 44.3577 71.1851 33.4181 55.9987 33.4181M55.9987 82.2769C40.8123 82.2769 28.4987 71.3373 28.4987 57.8475C28.4987 44.3577 40.8123 33.4181 55.9987 33.4181M55.9987 82.2769V33.4181M108.011 49.8535H3.98434M108.011 65.831H3.98434M111 57.8475C111 71.3373 86.3728 82.2769 56 82.2769C25.6272 82.2769 1 71.3373 1 57.8475C1 44.3577 25.6272 33.4181 56 33.4181C86.3728 33.4181 111 44.3577 111 57.8475ZM111 25.4242C111 38.9192 86.3728 49.8536 56 49.8536C25.6272 49.8536 1 38.9192 1 25.4242C1 11.9344 25.6272 1 56 1C86.3728 1 111 11.9344 111 25.4242ZM111 90.2605C111 103.75 86.3728 114.69 56 114.69C25.6272 114.69 1 103.75 1 90.2605C1 76.7707 25.6272 65.8311 56 65.8311C86.3728 65.8311 111 76.7707 111 90.2605Z" stroke="currentColor" stroke-width="1.5" stroke-miterlimit="10" fill="none" />
</svg>