<?xml version='1.0' encoding='utf-8'?>
<svg xmlns="http://www.w3.org/2000/svg" width="108" height="59" viewBox="0 0 108 59" fill="none" stroke="currentColor" stroke-width="1.5">
<path d="M53.9525 8.12508C65.64 8.12508 75.1139 17.599 75.1139 29.2918M53.9525 57.4272C69.4994 57.4272 82.0983 44.8334 82.0983 29.2865C82.0983 13.7397 69.4994 1.1355 53.9525 1.1355M53.9525 57.4272C38.4056 57.4272 25.7962 44.8334 25.7962 29.2865C25.7962 13.7397 38.4056 1.1355 53.9525 1.1355M53.9525 57.4272C82.7129 57.4272 106.036 44.8282 106.036 29.2813C106.036 13.7345 82.7129 1.1355 53.9525 1.1355M53.9525 57.4272C25.1869 57.4272 1.86914 44.8282 1.86914 29.2813C1.86914 13.7345 25.1869 1.1355 53.9525 1.1355M64.8744 29.2865C64.8744 35.323 59.9837 40.2136 53.9525 40.2136C47.916 40.2136 43.0254 35.323 43.0254 29.2865C43.0254 23.2553 47.916 18.3595 53.9525 18.3595C59.9837 18.3595 64.8744 23.2553 64.8744 29.2865Z" stroke="currentColor" stroke-width="1.5" stroke-miterlimit="10" stroke-linecap="round" stroke-linejoin="round" fill="none" />
</svg>