<?xml version='1.0' encoding='utf-8'?>
<svg xmlns="http://www.w3.org/2000/svg" width="112" height="112" viewBox="0 0 112 112" fill="none" stroke="currentColor" stroke-width="1.5">
<path d="M56 111C86.3733 111 111 86.3785 111 56C111 25.6267 86.3733 1 56 1M56 111C25.6215 111 1 86.3785 1 56C1 25.6267 25.6215 1 56 1M56 111C71.1866 111 83.4993 86.3785 83.4993 56C83.4993 25.6267 71.1866 1 56 1M56 111C40.8134 111 28.4993 86.3785 28.4993 56C28.4993 25.6267 40.8134 1 56 1M56 111V1M107.975 38.008H4.025M107.975 73.9816H4.025" stroke="currentColor" stroke-width="1.5" stroke-miterlimit="10" fill="none" />
</svg>