<?xml version='1.0' encoding='utf-8'?>
<svg xmlns="http://www.w3.org/2000/svg" width="101" height="101" viewBox="0 0 101 101" fill="none" stroke="currentColor" stroke-width="1.5">
<path d="M72.7396 99.25H53.6771M48.026 99.25H28.9688M53.6771 1H72.7396M28.9688 1H48.026M99.25 35.6875V66.1771M1 64.8125V37.0521M1 75.9427V72.7552M99.25 72.5677V76.125M99.25 24.9323V28.4896M1 28.0781V25.3385M75.6406 46.4479L55.901 26.7083L75.6406 6.97396V46.4479ZM75.6406 94.0833L55.901 74.349L75.6406 54.6146V94.0833ZM53.6771 31.1979L73.4167 50.9323L53.6771 70.6667V31.1979ZM48.026 70.6667L28.2917 50.9323L48.026 31.1979V70.6667ZM25.4792 94.0833V54.6146L45.2135 74.349L25.4792 94.0833ZM25.7031 6.97396L45.4375 26.7083L25.7031 46.4479V6.97396Z" stroke="currentColor" stroke-width="1.5" stroke-miterlimit="10" fill="none" />
</svg>