<?xml version='1.0' encoding='utf-8'?>
<svg xmlns="http://www.w3.org/2000/svg" width="114" height="86" viewBox="0 0 114 86" fill="none" stroke="currentColor" stroke-width="1.5">
<path d="M36.49 71.22C36.49 78.63 30.49 84.64 23.09 84.64C15.69 84.64 9.69 78.63 9.69 71.22M36.49 71.22C36.49 63.81 30.49 57.8 23.09 57.8C15.69 57.8 9.69 63.81 9.69 71.22M36.49 71.22H67.25M9.69 71.22H1C1 48.32 20 29.32 42.86 29.32M67.25 71.22C67.25 63.81 73.25 57.8 80.65 57.8C88.05 57.8 94.05 63.81 94.05 71.22C94.05 78.63 88.05 84.64 80.65 84.64C73.25 84.64 67.25 78.63 67.25 71.22ZM94.06 71.22H113C113 32.87 81.2 1 42.86 1V29.32M42.86 29.32V71.22" stroke="currentColor" stroke-width="1.5" stroke-miterlimit="10" fill="none" />
</svg>