<?xml version='1.0' encoding='utf-8'?>
<svg xmlns="http://www.w3.org/2000/svg" width="117" height="118" viewBox="0 0 117 118" fill="none" stroke="currentColor" stroke-width="1.5">
<path d="M38.7708 2L31.8125 4.32292L37.3229 37.0885L4.26042 33.0885L2 38.8333L28.276 59.0156L2 78.5L4.4375 84.9375L36.974 80.2396L32.276 112.781L38.7708 115.911L58.1979 89.1146L77.8594 115.042L84.125 113.125L79.4271 80.4167L112.661 85.1146L115.099 79.026L88.474 58.9583L115.099 39.3542L112.484 33.2604L79.776 37.7865L84.474 5.07292L78.5573 2.98438L58.5469 29.2604L38.7708 2Z" stroke="currentColor" stroke-width="1.5" stroke-miterlimit="10" fill="none" />
<path d="M41.4115 58.9583C41.4115 68.4219 49.0833 76.0938 58.5469 76.0938C68.0156 76.0938 75.6875 68.4219 75.6875 58.9583C75.6875 49.4896 68.0156 41.8177 58.5469 41.8177C49.0833 41.8177 41.4115 49.4896 41.4115 58.9583Z" stroke="currentColor" stroke-width="1.5" stroke-miterlimit="10" fill="none" />
</svg>