<?xml version='1.0' encoding='utf-8'?>
<svg xmlns="http://www.w3.org/2000/svg" width="100" height="100" viewBox="0 0 100 100" fill="none" stroke="currentColor" stroke-width="1.5">
<path d="M98.743 79.8719H1.25684M1.25684 79.8719V73.7404H74.6103C87.9336 73.7404 98.743 62.9351 98.743 49.6168V24.4755C98.743 11.6472 88.3358 1.2439 75.5027 1.2439H24.9874C11.8777 1.25646 1.25684 11.8734 1.25684 24.978V67.0688H49.3463V24.9152C49.3966 11.8608 60.0073 1.2439 73.0666 1.2439M1.25684 79.8719H17.6847C19.5449 79.8719 21.3549 80.4498 22.8757 81.5178L43.6399 96.1051C46.0784 97.8138 48.9818 98.7436 51.9607 98.7436H72.9637V84.9228C72.9637 82.1335 75.2262 79.8719 78.0165 79.8719H83.9743M94.1427 26.0963C94.1427 37.1503 85.1783 46.1113 74.1201 46.1113M94.1427 26.0963C94.1427 15.0422 85.1783 6.08119 74.1201 6.08119C63.0619 6.08119 54.0975 15.0422 54.0975 26.0963M94.1427 26.0963C94.1427 37.1529 85.1809 46.1113 74.1201 46.1113M74.1201 46.1113C63.0619 46.1113 54.0975 37.1503 54.0975 26.0963M74.1201 46.1113C63.0593 46.1113 54.0975 37.1529 54.0975 26.0963M54.1603 50.2073C54.8139 60.6735 63.4866 68.966 74.1201 68.966C84.7536 68.966 93.4263 60.6735 94.0799 50.2073H54.1603Z" stroke="currentColor" stroke-width="1.5" stroke-miterlimit="10" fill="none" />
</svg>