<?xml version='1.0' encoding='utf-8'?>
<svg xmlns="http://www.w3.org/2000/svg" width="105" height="105" viewBox="0 0 105 105" fill="none" stroke="currentColor" stroke-width="1.5">
<path d="M63.8737 11.7891C78.2539 26.1693 78.2539 49.4922 63.8737 63.8776C49.4883 78.2578 26.1706 78.2578 11.7852 63.8776C-2.59505 49.4922 -2.59505 26.1693 11.7852 11.7891C26.1706 -2.59635 49.4883 -2.59635 63.8737 11.7891ZM92.5716 40.487C106.952 54.8672 106.952 78.1901 92.5716 92.5755C78.1862 106.956 54.8685 106.956 40.4831 92.5755L92.5716 40.487Z" stroke="currentColor" stroke-width="1.5" stroke-miterlimit="10" fill="none" />
<path d="M11.7852 40.487C26.1706 26.1016 49.4883 26.1016 63.8737 40.487C78.2539 54.8672 78.2539 78.1901 63.8737 92.5755C49.4883 106.956 26.1706 106.956 11.7852 92.5755C-2.59505 78.1901 -2.59505 54.8672 11.7852 40.487ZM40.4831 11.7891C54.8685 -2.59635 78.1862 -2.59635 92.5716 11.7891C106.952 26.1693 106.952 49.4922 92.5716 63.8724L40.4831 11.7891Z" stroke="currentColor" stroke-width="1.5" stroke-miterlimit="10" fill="none" />
</svg>