<?xml version='1.0' encoding='utf-8'?>
<svg xmlns="http://www.w3.org/2000/svg" width="116" height="116" viewBox="0 0 116 116" fill="none" stroke="currentColor" stroke-width="1.5">
<path d="M114.099 57.5469C114.099 88.776 88.7812 114.094 57.5469 114.094C26.3177 114.094 1 88.776 1 57.5469C1 26.3177 26.3177 1 57.5469 1C88.7812 1 114.099 26.3177 114.099 57.5469Z" stroke="currentColor" stroke-width="1.5" stroke-miterlimit="10" fill="none" />
<path d="M107.792 107.792H7.99998V8.00001H107.792V107.792Z" stroke="currentColor" stroke-width="1.5" stroke-miterlimit="10" fill="none" />
<path d="M78.3698 57.1875C78.3698 68.3385 69.3334 77.375 58.1875 77.375C47.0365 77.375 38 68.3385 38 57.1875C38 46.0365 47.0365 37 58.1875 37C69.3334 37 78.3698 46.0365 78.3698 57.1875Z" stroke="currentColor" stroke-width="1.5" stroke-miterlimit="10" fill="none" />
<path d="M91.5261 90.5312H25V24H91.5261V90.5312Z" stroke="currentColor" stroke-width="1.5" stroke-miterlimit="10" fill="none" />
</svg>