<?xml version='1.0' encoding='utf-8'?>
<svg xmlns="http://www.w3.org/2000/svg" width="110" height="110" viewBox="0 0 110 110" fill="none" stroke="currentColor" stroke-width="1.5">
<path d="M64.1875 31.2812C64.1875 39.3385 70.7188 45.8698 78.7708 45.8698C86.8281 45.8698 93.3646 39.3385 93.3646 31.2812C93.3646 23.224 86.8281 16.6927 78.7708 16.6927C70.7188 16.6927 64.1875 23.224 64.1875 31.2812ZM64.1875 62.6667C64.1875 70.724 70.7188 77.2552 78.7708 77.2552C86.8281 77.2552 93.3646 70.724 93.3646 62.6667C93.3646 54.6094 86.8281 48.0781 78.7708 48.0781C70.7188 48.0781 64.1875 54.6094 64.1875 62.6667Z" stroke="currentColor" stroke-width="1.5" stroke-miterlimit="10" fill="none" />
<path d="M64.1875 78.3594C64.1875 86.4167 70.7188 92.9479 78.7708 92.9479C86.8281 92.9479 93.3646 86.4167 93.3646 78.3594C93.3646 70.3021 86.8281 63.7708 78.7708 63.7708C70.7188 63.7708 64.1875 70.3021 64.1875 78.3594ZM16.2865 15.5885C16.2865 23.6458 22.8177 30.1719 30.875 30.1719C38.9323 30.1719 45.4635 23.6458 45.4635 15.5885C45.4635 7.52604 38.9323 1 30.875 1C22.8177 1 16.2865 7.52604 16.2865 15.5885ZM16.2865 46.974C16.2865 55.0313 22.8177 61.5625 30.875 61.5625C38.9323 61.5625 45.4635 55.0313 45.4635 46.974C45.4635 38.9167 38.9323 32.3854 30.875 32.3854C22.8177 32.3854 16.2865 38.9167 16.2865 46.974ZM16.2865 94.0573C16.2865 102.115 22.8177 108.641 30.875 108.641C38.9323 108.641 45.4635 102.115 45.4635 94.0573C45.4635 86 38.9323 79.4688 30.875 79.4688C22.8177 79.4688 16.2865 86 16.2865 94.0573Z" stroke="currentColor" stroke-width="1.5" stroke-miterlimit="10" fill="none" />
<path d="M46.9792 64.1823C38.9219 64.1823 32.3906 70.7135 32.3906 78.7708C32.3906 86.8281 38.9219 93.3594 46.9792 93.3594C55.0365 93.3594 61.5625 86.8281 61.5625 78.7708C61.5625 70.7135 55.0365 64.1823 46.9792 64.1823Z" stroke="currentColor" stroke-width="1.5" stroke-miterlimit="10" fill="none" />
<path d="M31.2812 64.1823C23.224 64.1823 16.6927 70.7135 16.6927 78.7708C16.6927 86.8281 23.224 93.3594 31.2812 93.3594C39.3385 93.3594 45.8698 86.8281 45.8698 78.7708C45.8698 70.7135 39.3385 64.1823 31.2812 64.1823ZM94.0573 16.2812C86 16.2812 79.4688 22.8125 79.4688 30.8698C79.4688 38.9271 86 45.4583 94.0573 45.4583C102.115 45.4583 108.646 38.9271 108.646 30.8698C108.646 22.8125 102.115 16.2812 94.0573 16.2812ZM62.6719 16.2812C54.6146 16.2812 48.0833 22.8125 48.0833 30.8698C48.0833 38.9271 54.6146 45.4583 62.6719 45.4583C70.7292 45.4583 77.2604 38.9271 77.2604 30.8698C77.2604 22.8125 70.7292 16.2812 62.6719 16.2812ZM15.5885 16.2812C7.53125 16.2812 1 22.8125 1 30.8698C1 38.9271 7.53125 45.4583 15.5885 45.4583C23.6458 45.4583 30.1771 38.9271 30.1771 30.8698C30.1771 22.8125 23.6458 16.2812 15.5885 16.2812Z" stroke="currentColor" stroke-width="1.5" stroke-miterlimit="10" fill="none" />
</svg>