<?xml version='1.0' encoding='utf-8'?>
<svg xmlns="http://www.w3.org/2000/svg" width="112" height="62" viewBox="0 0 112 62" fill="none" stroke="currentColor" stroke-width="1.5">
<path d="M101.979 37.9558C100.161 39.7631 97.8594 40.7526 95.401 40.737H90.4375L90.4271 18.3776H95.4583C100.901 18.3776 105.333 23.3933 105.339 29.5547C105.339 32.7683 104.115 35.8308 101.979 37.9558ZM85.4688 46.5808L77.1562 50.7839C69.7917 53.9193 63.401 55.5027 57.6146 55.6329C57.0365 55.6433 56.4688 55.6485 55.8698 55.6537C48.9635 55.6537 41.6198 54.0235 34.1875 50.8724L25.849 46.6068L25.8385 15.1537L48.1354 7.10161C53.0521 5.58598 58.2448 5.58598 63.0417 7.05994L85.4583 15.1381L85.4688 46.5808ZM15.849 40.7579C13.4479 40.7579 11.1406 39.7735 9.33333 37.9818C7.19791 35.8568 5.96875 32.7943 5.96875 29.5808C5.96875 23.4193 10.3958 18.4037 15.8385 18.4037L20.8698 18.3985L20.8802 40.7579H15.849ZM95.4583 13.4089L90.4271 13.4141V13.3933C90.4271 12.3464 89.7708 11.4141 88.7865 11.0599L64.6146 2.3464C58.7448 0.544316 52.5469 0.544316 46.5625 2.38807L22.5104 11.0756C21.526 11.4297 20.8698 12.3672 20.8698 13.4141V13.4297L15.8385 13.4349C7.65625 13.4349 1 20.6797 1 29.586C1 34.112 2.76041 38.4558 5.83333 41.5079C8.57291 44.2318 12.1302 45.7266 15.8333 45.7266H20.8802V48.1277C20.8802 49.0599 21.401 49.9141 22.2344 50.3412L32.0885 55.3672C40.2917 58.8568 48.2917 60.6224 55.8698 60.6224C56.4948 60.612 57.1146 60.612 57.724 60.5964C64.1563 60.4558 71.1458 58.7422 79.2448 55.2891L89.0729 50.3256C89.9063 49.9037 90.4375 49.0443 90.4375 48.1068V45.7058H95.4688C99.1875 45.7058 102.74 44.2058 105.479 41.4766C108.547 38.4245 110.307 34.0808 110.302 29.5547C110.302 20.6485 103.641 13.4089 95.4583 13.4089Z" stroke="currentColor" stroke-width="1.5" stroke-miterlimit="10" fill="none" />
<path d="M70.5573 28.3204L40.7448 28.3308C39.375 28.3308 38.2656 29.4454 38.2656 30.8151C38.2656 32.1901 39.375 33.2995 40.75 33.2995L70.5573 33.2891C71.9323 33.2891 73.0417 32.1797 73.0417 30.8047C73.0417 29.4349 71.9323 28.3204 70.5573 28.3204Z" stroke="currentColor" stroke-width="1.5" stroke-miterlimit="10" fill="none" />
<path d="M70.5573 18.3881L40.7448 18.3933C39.3698 18.3933 38.2604 19.5079 38.2604 20.8776C38.2604 22.2526 39.375 23.362 40.7448 23.362L70.5573 23.3516C71.9323 23.3516 73.0417 22.2422 73.0417 20.8724C73.0365 19.4974 71.9271 18.3881 70.5573 18.3881ZM70.5625 38.2579L40.75 38.2683C39.375 38.2683 38.2656 39.3829 38.2656 40.7526C38.2656 42.1224 39.3802 43.237 40.75 43.237L70.5625 43.2266C71.9375 43.2266 73.0469 42.112 73.0469 40.7422C73.0469 39.3724 71.9323 38.2579 70.5625 38.2579Z" stroke="currentColor" stroke-width="1.5" stroke-miterlimit="10" fill="none" />
</svg>