<?xml version='1.0' encoding='utf-8'?>
<svg xmlns="http://www.w3.org/2000/svg" width="118" height="118" viewBox="0 0 118 118" fill="none" stroke="currentColor" stroke-width="1.5">
<path d="M59 112C64.1954 85.1795 85.3144 64.1617 112 59M59 112C53.8383 85.3144 32.8205 64.1954 6 59M59 112L58.9999 59M59 6C64.1617 32.6856 85.1795 53.8046 112 59M59 6C53.8046 32.8205 32.6856 53.8383 6 59M59 6L58.9999 59M112 59L58.9999 59M6 59L58.9999 59M18.2694 18.2695L58.9999 59M58.9999 59L99.8364 99.8365M58.9999 59L99.8364 18.2695M58.9999 59L18.2694 99.8365" stroke="currentColor" stroke-width="1.5" stroke-miterlimit="10" stroke-linecap="round" fill="none" />
</svg>