<?xml version='1.0' encoding='utf-8'?>
<svg xmlns="http://www.w3.org/2000/svg" width="107" height="107" viewBox="0 0 107 107" fill="none" stroke="currentColor" stroke-width="1.5">
<path d="M36.3568 58.2682C26.9974 48.9089 26.9974 33.7318 36.3568 24.3672C45.7161 15.0078 60.8932 15.0078 70.2578 24.3672C79.6172 33.7318 79.6172 48.9089 70.2578 58.2682C60.8932 67.6328 45.7161 67.6328 36.3568 58.2682Z" stroke="currentColor" stroke-width="1.5" stroke-miterlimit="10" fill="none" />
<path d="M36.3568 82.2422C26.9974 72.8776 26.9974 57.7005 36.3568 48.3411C45.7161 38.9766 60.8932 38.9766 70.2578 48.3411C79.6172 57.7005 79.6172 72.8776 70.2578 82.2422C60.8932 91.6016 45.7161 91.6016 36.3568 82.2422Z" stroke="currentColor" stroke-width="1.5" stroke-miterlimit="10" fill="none" />
<path d="M16.3203 90.2891C-4.10677 69.862 -4.10677 36.7474 16.3203 16.3203C36.7474 -4.10677 69.8672 -4.10677 90.2891 16.3203C110.716 36.7474 110.716 69.862 90.2891 90.2891C69.8672 110.716 36.7474 110.716 16.3203 90.2891Z" stroke="currentColor" stroke-width="1.5" stroke-miterlimit="10" fill="none" />
</svg>