<?xml version='1.0' encoding='utf-8'?>
<svg xmlns="http://www.w3.org/2000/svg" width="135" height="136" viewBox="0 0 135 136" fill="none" stroke="currentColor" stroke-width="1.5">
<path d="M1 58.9911C7.46691 57.7519 14.1421 57.101 20.9683 57.101C69.6523 57.101 110.651 89.9875 122.981 134.756M134.06 76.7649C127.593 78.0041 120.918 78.655 114.092 78.655C65.4077 78.655 24.4037 45.7685 12.0791 1M87.0173 109.695C70.3397 109.695 56.8227 96.1777 56.8227 79.5002C56.8227 62.8226 70.3397 49.3056 87.0173 49.3056C103.695 49.3056 117.212 62.8226 117.212 79.5002C117.212 96.1777 103.695 109.695 87.0173 109.695ZM48.0023 26.1716C64.6747 26.1716 78.1969 39.6938 78.1969 56.3661C78.1969 73.0437 64.6747 86.5659 48.0023 86.5659C31.3248 86.5659 17.8026 73.0437 17.8026 56.3661C17.8026 39.6938 31.3248 26.1716 48.0023 26.1716Z" stroke="currentColor" stroke-width="1.5" stroke-miterlimit="10" fill="none" />
</svg>