<?xml version='1.0' encoding='utf-8'?>
<svg xmlns="http://www.w3.org/2000/svg" width="129" height="27" viewBox="0 0 129 27" fill="none" stroke="currentColor" stroke-width="1.5">
<path d="M103.833 13.592L115.424 2L127.016 13.592L115.424 25.1824L103.833 13.592Z" stroke="currentColor" stroke-width="1.5" stroke-miterlimit="10" fill="none" />
<path d="M123.698 13.592C123.698 13.7988 112.313 25.1824 112.108 25.1824C111.901 25.1824 100.516 13.7988 100.516 13.592C100.516 13.3851 111.901 2 112.108 2C112.313 2 123.698 13.3851 123.698 13.592Z" stroke="currentColor" stroke-width="1.5" stroke-miterlimit="10" fill="none" />
<path d="M120.38 13.592C120.38 14.0041 109.204 25.1824 108.79 25.1824C108.376 25.1824 97.1995 14.0041 97.1995 13.592C97.1995 13.1783 108.376 2 108.79 2C109.204 2 120.38 13.1783 120.38 13.592Z" stroke="currentColor" stroke-width="1.5" stroke-miterlimit="10" fill="none" />
<path d="M117.064 13.592C117.064 14.211 106.093 25.1824 105.472 25.1824C104.853 25.1824 93.8819 14.211 93.8819 13.592C93.8819 12.9714 104.853 2 105.472 2C106.093 2 117.064 12.9714 117.064 13.592Z" stroke="currentColor" stroke-width="1.5" stroke-miterlimit="10" fill="none" />
<path d="M113.746 13.592C113.746 14.4178 102.982 25.1824 102.156 25.1824C101.33 25.1824 90.5641 14.4178 90.5641 13.592C90.5641 12.7662 101.33 2 102.156 2C102.982 2 113.746 12.7662 113.746 13.592Z" stroke="currentColor" stroke-width="1.5" stroke-miterlimit="10" fill="none" />
<path d="M110.429 13.592C110.429 14.6247 99.8711 25.1824 98.8384 25.1824C97.8057 25.1824 87.248 14.6247 87.248 13.592C87.248 12.5593 97.8057 2 98.8384 2C99.8711 2 110.429 12.5593 110.429 13.592Z" stroke="currentColor" stroke-width="1.5" stroke-miterlimit="10" fill="none" />
<path d="M107.113 13.592C107.113 14.8299 96.7602 25.1824 95.5206 25.1824C94.2827 25.1824 83.9303 14.8299 83.9303 13.592C83.9303 12.3525 94.2827 2 95.5206 2C96.7602 2 107.113 12.3525 107.113 13.592Z" stroke="currentColor" stroke-width="1.5" stroke-miterlimit="10" fill="none" />
<path d="M103.795 13.592C103.795 15.0368 93.6493 25.1824 92.2045 25.1824C90.7581 25.1824 80.6125 15.0368 80.6125 13.592C80.6125 12.1456 90.7581 2 92.2045 2C93.6493 2 103.795 12.1456 103.795 13.592Z" stroke="currentColor" stroke-width="1.5" stroke-miterlimit="10" fill="none" />
<path d="M100.477 13.592C100.477 15.2436 90.5384 25.1824 88.8868 25.1824C87.2352 25.1824 77.2964 15.2436 77.2964 13.592C77.2964 11.9403 87.2352 2 88.8868 2C90.5384 2 100.477 11.9403 100.477 13.592Z" stroke="currentColor" stroke-width="1.5" stroke-miterlimit="10" fill="none" />
<path d="M97.161 13.592C97.161 15.4505 87.4292 25.1824 85.5691 25.1824C83.7106 25.1824 73.9787 15.4505 73.9787 13.592C73.9787 11.7335 83.7106 2 85.5691 2C87.4292 2 97.161 11.7335 97.161 13.592Z" stroke="currentColor" stroke-width="1.5" stroke-miterlimit="10" fill="none" />
<path d="M93.8434 13.592C93.8434 15.6557 84.3183 25.1824 82.253 25.1824C80.1876 25.1824 70.661 15.6557 70.661 13.592C70.661 11.5266 80.1876 2 82.253 2C84.3183 2 93.8434 11.5266 93.8434 13.592Z" stroke="currentColor" stroke-width="1.5" stroke-miterlimit="10" fill="none" />
<path d="M90.5256 13.592C90.5256 15.8626 81.2074 25.1824 78.9352 25.1824C76.6646 25.1824 67.3448 15.8626 67.3448 13.592C67.3448 11.3198 76.6646 2 78.9352 2C81.2074 2 90.5256 11.3198 90.5256 13.592Z" stroke="currentColor" stroke-width="1.5" stroke-miterlimit="10" fill="none" />
<path d="M87.2095 13.592C87.2095 16.0695 78.0966 25.1824 75.6175 25.1824C73.1401 25.1824 64.0272 16.0695 64.0272 13.592C64.0272 11.1145 73.1401 2 75.6175 2C78.0966 2 87.2095 11.1145 87.2095 13.592Z" stroke="currentColor" stroke-width="1.5" stroke-miterlimit="10" fill="none" />
<path d="M83.8918 13.592C83.8918 16.2763 74.9857 25.1824 72.3014 25.1824C69.6171 25.1824 60.7094 16.2763 60.7094 13.592C60.7094 10.9077 69.6171 2 72.3014 2C74.9857 2 83.8918 10.9077 83.8918 13.592Z" stroke="currentColor" stroke-width="1.5" stroke-miterlimit="10" fill="none" />
<path d="M80.5741 13.592C80.5741 16.4832 71.8749 25.1824 68.9837 25.1824C66.0925 25.1824 57.3933 16.4832 57.3933 13.592C57.3933 10.7008 66.0925 2 68.9837 2C71.8749 2 80.5741 10.7008 80.5741 13.592Z" stroke="currentColor" stroke-width="1.5" stroke-miterlimit="10" fill="none" />
<path d="M77.2579 13.592C77.2579 16.69 68.764 25.1824 65.6659 25.1824C62.5695 25.1824 54.0756 16.69 54.0756 13.592C54.0756 10.494 62.5695 2 65.6659 2C68.764 2 77.2579 10.494 77.2579 13.592Z" stroke="currentColor" stroke-width="1.5" stroke-miterlimit="10" fill="none" />
<path d="M73.9402 13.592C73.9402 16.8953 65.6531 25.1824 62.3498 25.1824C59.0449 25.1824 50.7578 16.8953 50.7578 13.592C50.7578 10.2871 59.0449 2 62.3498 2C65.6531 2 73.9402 10.2871 73.9402 13.592Z" stroke="currentColor" stroke-width="1.5" stroke-miterlimit="10" fill="none" />
<path d="M70.6225 13.592C70.6225 17.1021 62.5422 25.1824 59.0321 25.1824C55.522 25.1824 47.4417 17.1021 47.4417 13.592C47.4417 10.0802 55.522 2 59.0321 2C62.5422 2 70.6225 10.0802 70.6225 13.592Z" stroke="currentColor" stroke-width="1.5" stroke-miterlimit="10" fill="none" />
<path d="M67.3063 13.592C67.3063 17.309 59.4314 25.1824 55.7144 25.1824C51.999 25.1824 44.124 17.309 44.124 13.592C44.124 9.87498 51.999 2 55.7144 2C59.4314 2 67.3063 9.87498 67.3063 13.592Z" stroke="currentColor" stroke-width="1.5" stroke-miterlimit="10" fill="none" />
<path d="M63.9887 13.592C63.9887 17.5158 56.3221 25.1824 52.3983 25.1824C48.4744 25.1824 40.8063 17.5158 40.8063 13.592C40.8063 9.66813 48.4744 2 52.3983 2C56.3221 2 63.9887 9.66813 63.9887 13.592Z" stroke="currentColor" stroke-width="1.5" stroke-miterlimit="10" fill="none" />
<path d="M60.6725 13.592C60.6725 17.7211 53.2112 25.1824 49.0805 25.1824C44.9498 25.1824 37.4901 17.7211 37.4901 13.592C37.4901 9.46127 44.9498 2 49.0805 2C53.2112 2 60.6725 9.46127 60.6725 13.592Z" stroke="currentColor" stroke-width="1.5" stroke-miterlimit="10" fill="none" />
<path d="M57.3548 13.592C57.3548 17.928 50.1004 25.1824 45.7628 25.1824C41.4269 25.1824 34.1725 17.928 34.1725 13.592C34.1725 9.25441 41.4269 2 45.7628 2C50.1004 2 57.3548 9.25441 57.3548 13.592Z" stroke="currentColor" stroke-width="1.5" stroke-miterlimit="10" fill="none" />
<path d="M54.0371 13.592C54.0371 18.1348 46.9895 25.1824 42.4467 25.1824C37.9039 25.1824 30.8547 18.1348 30.8547 13.592C30.8547 9.04916 37.9039 2 42.4467 2C46.9895 2 54.0371 9.04916 54.0371 13.592Z" stroke="currentColor" stroke-width="1.5" stroke-miterlimit="10" fill="none" />
<path d="M50.721 13.592C50.721 18.3417 43.8787 25.1824 39.129 25.1824C34.3793 25.1824 27.5386 18.3417 27.5386 13.592C27.5386 8.8423 34.3793 2 39.129 2C43.8787 2 50.721 8.8423 50.721 13.592Z" stroke="currentColor" stroke-width="1.5" stroke-miterlimit="10" fill="none" />
<path d="M47.4032 13.592C47.4032 18.5469 40.7678 25.1824 35.8112 25.1824C30.8563 25.1824 24.2209 18.5469 24.2209 13.592C24.2209 8.63545 30.8563 2 35.8112 2C40.7678 2 47.4032 8.63545 47.4032 13.592Z" stroke="currentColor" stroke-width="1.5" stroke-miterlimit="10" fill="none" />
<path d="M44.0855 13.592C44.0855 18.7538 37.6569 25.1824 32.4951 25.1824C27.3317 25.1824 20.9031 18.7538 20.9031 13.592C20.9031 8.42859 27.3317 2 32.4951 2C37.6569 2 44.0855 8.42859 44.0855 13.592Z" stroke="currentColor" stroke-width="1.5" stroke-miterlimit="10" fill="none" />
<path d="M40.7694 13.592C40.7694 18.9606 34.5461 25.1824 29.1774 25.1824C23.8087 25.1824 17.587 18.9606 17.587 13.592C17.587 8.22334 23.8087 2 29.1774 2C34.5461 2 40.7694 8.22334 40.7694 13.592Z" stroke="currentColor" stroke-width="1.5" stroke-miterlimit="10" fill="none" />
<path d="M37.4516 13.592C37.4516 19.1675 31.4352 25.1824 25.8597 25.1824C20.2841 25.1824 14.2693 19.1675 14.2693 13.592C14.2693 8.01648 20.2841 2 25.8597 2C31.4352 2 37.4516 8.01648 37.4516 13.592Z" stroke="currentColor" stroke-width="1.5" stroke-miterlimit="10" fill="none" />
<path d="M34.134 13.592C34.134 19.3744 28.3259 25.1824 22.5436 25.1824C16.7612 25.1824 10.9516 19.3744 10.9516 13.592C10.9516 7.80962 16.7612 2 22.5436 2C28.3259 2 34.134 7.80962 34.134 13.592Z" stroke="currentColor" stroke-width="1.5" stroke-miterlimit="10" fill="none" />
<path d="M30.8178 13.592C30.8178 19.5796 25.215 25.1824 19.2258 25.1824C13.2382 25.1824 7.63542 19.5796 7.63542 13.592C7.63542 7.60277 13.2382 2 19.2258 2C25.215 2 30.8178 7.60277 30.8178 13.592Z" stroke="currentColor" stroke-width="1.5" stroke-miterlimit="10" fill="none" />
<path d="M27.5001 13.592C27.5001 19.7865 22.1042 25.1824 15.9081 25.1824C9.71366 25.1824 4.31775 19.7865 4.31775 13.592C4.31775 7.39591 9.71366 2 15.9081 2C22.1042 2 27.5001 7.39591 27.5001 13.592Z" stroke="currentColor" stroke-width="1.5" stroke-miterlimit="10" fill="none" />
<path d="M24.1824 13.592C24.1824 19.9933 18.9933 25.1824 12.592 25.1824C6.19066 25.1824 1 19.9933 1 13.592C1 7.19066 6.19066 2 12.592 2C18.9933 2 24.1824 7.19066 24.1824 13.592Z" stroke="currentColor" stroke-width="1.5" stroke-miterlimit="10" fill="none" />
</svg>