<?xml version='1.0' encoding='utf-8'?>
<svg xmlns="http://www.w3.org/2000/svg" width="106" height="106" viewBox="0 0 106 106" fill="none" stroke="currentColor" stroke-width="1.5">
<path d="M87.6933 71.2453C85.0267 71.2245 82.511 71.8391 80.261 72.9224L60.6517 52.4537L80.8079 33.5422C82.985 34.5943 85.4069 35.2089 87.985 35.2297C97.2767 35.3078 104.876 27.8339 104.949 18.537C105.027 9.24011 97.5527 1.64636 88.261 1.57344C78.9642 1.49532 71.3652 8.96928 71.2923 18.2662C71.2714 20.9797 71.9069 23.5422 73.0319 25.8234L53.735 44.8026L33.1829 24.7089C34.11 22.6464 34.6412 20.3703 34.6621 17.9641C34.735 8.6724 27.261 1.07345 17.9694 1.00053C8.67248 0.927612 1.07352 8.39636 1.00061 17.6932C0.922483 26.9901 8.39644 34.5839 17.6933 34.662C20.2194 34.6776 22.61 34.1255 24.7662 33.1464L44.636 52.9432L24.5996 71.8807C22.7194 71.1307 20.6777 70.6984 18.5319 70.6828C9.23498 70.6047 1.64123 78.0787 1.56311 87.3755C1.49019 96.6672 8.96415 104.266 18.2558 104.339C27.5527 104.417 35.1464 96.9432 35.2246 87.6464C35.2454 85.037 34.6517 82.5682 33.61 80.3547L52.7819 61.2193L72.5631 80.4589C71.4173 82.7089 70.7454 85.2401 70.7246 87.938C70.6517 97.2297 78.1256 104.829 87.4173 104.902C96.7142 104.98 104.308 97.5057 104.386 88.2089C104.459 78.9172 96.985 71.3182 87.6933 71.2453Z" stroke="currentColor" stroke-width="1.5" stroke-miterlimit="10" fill="none" />
</svg>