<?xml version='1.0' encoding='utf-8'?>
<svg xmlns="http://www.w3.org/2000/svg" width="100" height="100" viewBox="0 0 100 100" fill="none" stroke="currentColor" stroke-width="1.5">
<path d="M98.2083 49.599C98.2083 76.4427 76.4479 98.2031 49.6042 98.2031C22.7604 98.2031 1 76.4427 1 49.599C1 22.7552 22.7604 1 49.6042 1C76.4479 1 98.2083 22.7552 98.2083 49.599Z" stroke="currentColor" stroke-width="1.5" stroke-miterlimit="10" stroke-linecap="round" stroke-linejoin="round" fill="none" />
<path d="M17.5938 34.0365L25.0625 43.0729L36.6146 41.1198L30.3385 51.0156L35.7656 61.4063L24.4219 58.4896L16.2292 66.8646L15.4844 55.1615L4.99479 49.9479L15.8854 45.6354L17.5938 34.0365ZM67.099 18.1354L74.5677 27.1719L86.1198 25.2188L79.8438 35.1146L85.2708 45.5052L73.9271 42.5885L65.7344 50.9635L64.9896 39.2604L54.5 34.0469L65.3906 29.7344L67.099 18.1354ZM39.8281 62.3073L47.3021 71.3385L58.849 69.3854L52.5781 79.2812L58.0052 89.6719L46.6562 86.7552L38.4635 95.1302L37.724 83.4323L27.2344 78.2135L38.125 73.901L39.8281 62.3073Z" stroke="currentColor" stroke-width="1.5" stroke-miterlimit="10" stroke-linecap="round" stroke-linejoin="round" fill="none" />
</svg>