<?xml version='1.0' encoding='utf-8'?>
<svg xmlns="http://www.w3.org/2000/svg" width="110" height="110" viewBox="0 0 110 110" fill="none" stroke="currentColor" stroke-width="1.5">
<path d="M15.3328 15.5617L32.6363 32.8684M15.3328 15.5617C18.4939 12.4007 18.4939 7.27552 15.3328 4.11444C12.1718 0.95336 7.04664 0.953364 3.88555 4.11445C0.724472 7.27553 0.724475 12.4007 3.88556 15.5617C7.04664 18.7228 12.1718 18.7228 15.3328 15.5617ZM32.6363 32.8684L54.719 54.9511M32.6363 32.8684L10.5536 54.9512M32.6363 32.8684L54.7191 10.7857M54.719 54.9511L76.8016 77.0337M54.719 54.9511L32.6362 77.0339M54.719 54.9511L76.8018 32.8683M76.8016 77.0337L94.2617 94.4905M76.8016 77.0337L54.7188 99.1165M76.8016 77.0337L98.8844 54.9509M94.2617 94.4905C91.1006 97.6516 91.1006 102.777 94.2616 105.938C97.4227 109.099 102.548 109.099 105.709 105.938C108.87 102.777 108.87 97.6516 105.709 94.4905C102.548 91.3295 97.4227 91.3295 94.2617 94.4905ZM45.0016 1.06819L54.7191 10.7857M54.7191 10.7857L76.8018 32.8683M54.7191 10.7857L64.5239 0.980863M76.8018 32.8683L98.8844 54.9509M76.8018 32.8683L94.2094 15.4572M98.8844 54.9509L108.738 64.8048M98.8844 54.9509L108.689 45.1461M0.836082 45.2337L10.5536 54.9512M10.5536 54.9512L32.6362 77.0339M10.5536 54.9512L0.787331 64.7175M32.6362 77.0339L54.7188 99.1165M32.6362 77.0339L15.2823 94.3877M54.7188 99.1165L64.5727 108.97M54.7188 99.1165L44.9526 108.883M94.2094 15.4572C97.3705 18.6183 102.496 18.6183 105.657 15.4572C108.818 12.2961 108.818 7.17099 105.657 4.0099C102.496 0.848822 97.3705 0.848822 94.2094 4.0099C91.0483 7.17099 91.0483 12.2961 94.2094 15.4572ZM15.2806 94.386C18.4417 97.5471 18.4417 102.672 15.2806 105.833C12.1195 108.994 6.99437 108.994 3.83328 105.833C0.672201 102.672 0.672204 97.5471 3.83329 94.386C6.99437 91.2249 12.1195 91.2249 15.2806 94.386Z" stroke="currentColor" stroke-width="1.5" fill="none" />
</svg>