<?xml version='1.0' encoding='utf-8'?>
<svg xmlns="http://www.w3.org/2000/svg" width="119" height="120" viewBox="0 0 119 120" fill="none" stroke="currentColor" stroke-width="1.5">
<path d="M60.1719 3L47.3802 27.9635L19.6458 19.9531L27.9635 46.4583L3 60.0156L27.349 73.2708L19.3333 101.01L47.0729 92.3802L60.1719 117.344L72.9635 93.8906L100.698 100.391L92.0677 74.1927L116.724 60.1719L92.9948 47.3802L100.698 19.9531L73.8854 28.2708L60.1719 3Z" stroke="currentColor" stroke-width="1.5" stroke-miterlimit="10" fill="none" />
<path d="M43 60.1406C43 69.6042 50.6718 77.2813 60.1406 77.2813C69.6041 77.2813 77.276 69.6042 77.276 60.1406C77.276 50.6771 69.6041 43 60.1406 43C50.6718 43 43 50.6771 43 60.1406Z" stroke="currentColor" stroke-width="1.5" stroke-miterlimit="10" fill="none" />
</svg>