<?xml version='1.0' encoding='utf-8'?>
<svg xmlns="http://www.w3.org/2000/svg" width="93" height="110" viewBox="0 0 93 110" fill="none" stroke="currentColor" stroke-width="1.5">
<path d="M37.3706 19.2208C37.3706 28.1723 30.9005 35.6112 22.379 37.1187H37.3706C37.3706 46.0753 30.9005 53.509 22.379 55.0216H37.3706M37.3706 19.2208H22.379C30.9005 17.7082 37.3706 10.2745 37.3706 1.32303H1C1 10.2745 7.47015 17.7082 15.9917 19.2208H1C1 28.1723 7.47015 35.6112 15.9917 37.1187H1C1 46.0753 7.47015 53.509 15.9917 55.0216H1C1 63.9731 7.47015 71.4068 15.9917 72.9195H1C1 81.871 7.47015 89.3046 15.9917 90.8173H1C1 100.862 9.14338 109 19.1879 109C29.2273 109 37.3706 100.862 37.3706 90.8173H22.379C30.9005 89.3046 37.3706 81.871 37.3706 72.9195H22.379C30.9005 71.4068 37.3706 63.9731 37.3706 55.0216M37.3706 19.2208C37.3706 9.17631 45.5166 1 55.556 1C65.6005 1 73.7413 9.17631 73.7413 19.2208M37.3706 19.2208H73.7413M37.3706 55.0216C37.3706 65.061 45.514 73.2044 55.5534 73.2044C65.5979 73.2044 73.7413 65.061 73.7413 55.0216M37.3706 55.0216H55.556H73.7413M73.7413 19.2208V55.0216M73.7413 19.2208C83.6252 19.2208 91.6391 27.2347 91.6391 37.1187C91.6391 47.0078 83.6252 55.0216 73.7413 55.0216" stroke="currentColor" stroke-width="1.5" stroke-miterlimit="10" stroke-linecap="round" stroke-linejoin="round" fill="none" />
</svg>