<?xml version='1.0' encoding='utf-8'?>
<svg xmlns="http://www.w3.org/2000/svg" width="91" height="91" viewBox="0 0 91 91" fill="none" stroke="currentColor" stroke-width="1.5">
<path d="M38.543 82.7337L81.783 39.1837M8.84449 53.0353L52.0845 9.48528M5.59616 85.5654L5.94986 85.2117M5.94986 85.2117L85.4993 5.66226M5.94986 85.2117L1.35376 80.6156M5.94986 85.2117L10.4138 89.6756M80.9694 1L90.0294 10.06M20.3713 15.332C20.3713 18.469 17.8282 21.012 14.6913 21.012C11.5543 21.012 9.01125 18.469 9.01125 15.332C9.01125 12.1951 11.5543 9.65204 14.6913 9.65204C17.8282 9.65204 20.3713 12.1951 20.3713 15.332ZM81.7229 76.6835C81.7229 79.8205 79.1799 82.3635 76.0429 82.3635C72.906 82.3635 70.3629 79.8205 70.3629 76.6835C70.3629 73.5466 72.906 71.0035 76.0429 71.0035C79.1799 71.0035 81.7229 73.5466 81.7229 76.6835Z" stroke="currentColor" stroke-width="1.5" stroke-miterlimit="10" fill="none" />
</svg>