<?xml version='1.0' encoding='utf-8'?>
<svg xmlns="http://www.w3.org/2000/svg" width="90" height="109" viewBox="0 0 90 109" fill="none" stroke="currentColor" stroke-width="1.5">
<path d="M88.8749 63.328C88.8749 87.4583 69.3176 107.016 45.1926 107.016C21.0624 107.016 1.50513 87.4583 1.50513 63.328H88.8749ZM71.3333 27.3385C71.3333 41.776 59.6301 53.4791 45.1926 53.4791C30.7499 53.4791 19.0468 41.776 19.0468 27.3385C19.0468 12.8958 30.7499 1.19263 45.1926 1.19263C59.6301 1.19263 71.3333 12.8958 71.3333 27.3385ZM58.2603 27.3385C58.2603 34.552 52.4114 40.4062 45.1926 40.4062C37.9739 40.4062 32.1197 34.552 32.1197 27.3385C32.1197 20.1145 37.9739 14.2655 45.1926 14.2655C52.4114 14.2655 58.2603 20.1145 58.2603 27.3385Z" stroke="currentColor" stroke-width="1.5" stroke-miterlimit="10" fill="none" />
</svg>