<?xml version='1.0' encoding='utf-8'?>
<svg xmlns="http://www.w3.org/2000/svg" width="114" height="88" viewBox="0 0 114 88" fill="none" stroke="currentColor" stroke-width="1.5">
<path d="M10.8802 27.6146C9.71875 27.6146 8.77083 26.6719 8.77083 25.5052C8.77083 24.3438 9.71875 23.401 10.8802 23.401H102.958C104.12 23.401 105.062 24.3438 105.062 25.5052C105.062 26.6719 104.12 27.6146 102.958 27.6146H10.8802Z" stroke="currentColor" stroke-width="1.5" stroke-miterlimit="10" fill="none" />
<path d="M25.5365 86.5521C11.9844 86.5521 1 75.5677 1 62.0156V25.5365C1 11.9844 11.9844 1 25.5365 1H88.2865C101.839 1 112.823 11.9844 112.823 25.5365C112.823 39.0833 101.839 50.0729 88.2865 50.0729H10.7031C9.54167 50.0729 8.59896 51.0156 8.59896 52.1823C8.59896 53.3438 9.54167 54.2917 10.7031 54.2917H47.9479L48.9271 54.3073C54.6406 54.3073 59.276 58.9427 59.276 64.6615L59.1875 75.8854C59.1875 77.099 60.1667 78.0833 61.3802 78.0833C62.5938 78.0833 63.5781 77.099 63.5781 75.8854V64.6927C63.5781 58.974 68.2135 54.3385 73.9323 54.3385L74.9115 54.3177H110.865V86.5521H25.5365Z" stroke="currentColor" stroke-width="1.5" stroke-miterlimit="10" fill="none" />
</svg>