<?xml version='1.0' encoding='utf-8'?>
<svg xmlns="http://www.w3.org/2000/svg" width="106" height="106" viewBox="0 0 106 106" fill="none" stroke="currentColor" stroke-width="1.5">
<path d="M88.2292 33.7865C97.2865 33.7865 104.625 26.4479 104.625 17.3906C104.625 8.33854 97.2865 1 88.2292 1C79.1771 1 71.8333 8.33854 71.8333 17.3906V87.875C71.8333 96.9323 79.1771 104.271 88.2292 104.271C97.2865 104.271 104.625 96.9323 104.625 87.875C104.625 78.8229 97.2865 71.4792 88.2292 71.4792H17.3906C8.33854 71.4792 1 78.8229 1 87.875C1 96.9323 8.33854 104.271 17.3906 104.271C26.4479 104.271 33.7865 96.9323 33.7865 87.875V17.3906C33.7865 8.33854 26.4479 1 17.3906 1C8.33854 1 1 8.33854 1 17.3906C1 26.4479 8.33854 33.7865 17.3906 33.7865H88.2292Z" stroke="currentColor" stroke-width="1.5" stroke-miterlimit="10" fill="none" />
</svg>