<?xml version='1.0' encoding='utf-8'?>
<svg xmlns="http://www.w3.org/2000/svg" width="115" height="99" viewBox="0 0 115 99" fill="none" stroke="currentColor" stroke-width="1.5">
<path d="M55.0546 33.0002L2.40876 1.13043C2.08064 0.937722 1.66397 0.958555 1.36189 1.19293C1.05459 1.42731 0.929595 1.82314 1.03897 2.19293L15.315 50.094C15.4296 50.4898 15.7942 50.7554 16.2004 50.7554H26.44C26.1848 50.8648 25.9817 51.0731 25.9036 51.3388L18.9556 75.0211C18.8723 75.3023 18.9296 75.6044 19.1067 75.8388L35.0129 96.8648C35.19 97.0992 35.4661 97.2346 35.7525 97.2346C35.8046 97.2346 35.8567 97.2294 35.9088 97.219C36.2525 97.1617 36.5338 96.9169 36.6379 96.5836L46.4192 65.5471C46.539 65.1721 46.4036 64.7554 46.0806 64.5211L27.3358 50.8544C27.2681 50.8023 27.19 50.7867 27.1067 50.7554H49.2056C49.6015 50.7554 49.9608 50.5054 50.0858 50.1252L55.4556 34.0888C55.5911 33.6773 55.4244 33.2242 55.0546 33.0002ZM113.372 1.19293C113.07 0.958556 112.654 0.937722 112.325 1.13043L59.6796 33.0002C59.3098 33.2242 59.1431 33.6773 59.2786 34.0888L64.6483 50.1252C64.7786 50.5054 65.1327 50.7554 65.5286 50.7554H87.6223C87.5442 50.7867 87.4608 50.8023 87.3931 50.8492L68.6536 64.5211C68.3306 64.7554 68.1952 65.1721 68.315 65.5523L78.0963 96.5836C78.2056 96.9117 78.4817 97.1617 78.8254 97.219C78.8775 97.2294 78.9296 97.2346 78.9817 97.2346C79.2733 97.2346 79.5442 97.0992 79.7213 96.8648L95.6275 75.8388C95.8046 75.6044 95.8619 75.3023 95.7786 75.0159L88.8306 51.3388C88.7525 51.0731 88.5494 50.8648 88.2942 50.7554H98.5338C98.94 50.7554 99.3046 50.4898 99.4192 50.094L113.695 2.19293C113.805 1.82314 113.68 1.42731 113.372 1.19293Z" stroke="currentColor" stroke-width="1.5" stroke-miterlimit="10" fill="none" />
</svg>