<?xml version='1.0' encoding='utf-8'?>
<svg xmlns="http://www.w3.org/2000/svg" width="58" height="118" viewBox="0 0 58 118" fill="none" stroke="currentColor" stroke-width="1.5">
<path d="M21.0065 31.3136C10.8272 35.3832 3.49771 46.8394 3.49771 60.3304C3.49771 73.5632 10.5481 84.8348 20.4218 89.1014M36.9157 31.3136C47.0379 35.4195 54.3154 46.8394 54.3154 60.2837C54.3154 73.4684 47.315 84.7097 37.4956 89.012M54.5366 18.8306L3.32367 101.033H55.9174L2 18.8306H54.5366ZM37.863 86.4415C37.863 91.3676 33.8712 95.3593 28.9451 95.3593C24.0241 95.3593 20.0324 91.3676 20.0324 86.4415C20.0324 81.5205 24.0241 77.5288 28.9451 77.5288C33.8712 77.5288 37.863 81.5205 37.863 86.4415ZM36.958 40.3726H20.9909V24.4056H36.958V40.3726ZM37.863 9.91789C37.863 14.8388 33.8712 18.8306 28.9451 18.8306C24.0241 18.8306 20.0324 14.8388 20.0324 9.91789C20.0324 4.99177 24.0241 1 28.9451 1C33.8712 1 37.863 4.99177 37.863 9.91789ZM36.958 117H20.9909V101.033H36.958V117Z" stroke="currentColor" stroke-width="1.5" stroke-miterlimit="10" fill="none" />
</svg>