<?xml version='1.0' encoding='utf-8'?>
<svg xmlns="http://www.w3.org/2000/svg" width="114" height="100" viewBox="0 0 114 100" fill="none" stroke="currentColor" stroke-width="1.5">
<path d="M112.516 1.53125H107.526C107.969 3.38542 108.214 5.31771 108.214 7.30729C108.214 20.9323 97.1666 31.974 83.5468 31.974C69.9218 31.974 58.875 20.9323 58.875 7.30729C58.875 5.31771 59.1198 3.38542 59.5625 1.53125H53.7708C54.2187 3.38542 54.4583 5.31771 54.4583 7.30729C54.4583 20.9323 43.4166 31.974 29.7916 31.974C16.1666 31.974 5.12496 20.9323 5.12496 7.30729C5.12496 5.31771 5.36454 3.38542 5.81246 1.53125H1.3385V98.6458H4.83329C4.70308 96.3385 4.63537 93.9896 4.63537 91.599C4.63537 60.7292 15.901 35.7031 29.7916 35.7031C43.6823 35.7031 54.9427 60.7292 54.9427 91.599C54.9427 93.9896 54.875 96.3385 54.7448 98.6458H58.5885C58.4583 96.3385 58.3906 93.9896 58.3906 91.599C58.3906 60.7292 69.651 35.7031 83.5468 35.7031C97.4375 35.7031 108.698 60.7292 108.698 91.599C108.698 93.9896 108.63 96.3385 108.5 98.6458H112.516V1.53125Z" stroke="currentColor" stroke-width="1.5" stroke-miterlimit="10" fill="none" />
</svg>