<?xml version='1.0' encoding='utf-8'?>
<svg xmlns="http://www.w3.org/2000/svg" width="110" height="110" viewBox="0 0 110 110" fill="none" stroke="currentColor" stroke-width="1.5">
<path d="M98 38.6165C98 41.5905 95.9848 44 93.5 44C91.0152 44 89 41.5905 89 38.6165C89 35.6424 93.5 30 93.5 30C93.5 30 98 35.6424 98 38.6165Z" stroke="currentColor" stroke-width="1.5" stroke-miterlimit="10" stroke-linecap="round" stroke-linejoin="round" fill="none" />
<path d="M25.063 94.5129C29.1525 90.6074 31.9403 83.3621 43.2739 81.8763L86.6168 82.2271C95.1624 81.1244 94.3892 73.5799 87.9733 72.904C87.7122 72.8841 87.4424 72.8543 87.1627 72.8409C84.4748 72.7105 82.5618 72.6471 81.1622 72.5809C69.6446 72.0246 63.6211 68.7114 69.4696 60.3009L96.5786 31.8099C97.1872 31.0315 97.4579 30.0343 97.3329 29.032C97.2078 28.0297 96.6969 27.102 95.9096 26.4476C95.1223 25.7933 94.1212 25.4644 93.1209 25.5313C92.1205 25.5983 91.2005 26.0558 90.5578 26.8059L78.516 38.9162M78.516 38.9162C80.1566 37.1302 80.2058 34.5726 78.636 33.242L78.1707 32.8476C76.6009 31.517 73.9604 31.8877 72.3249 33.6684L58.7751 47.7551C57.1395 49.5358 57.0798 52.0949 58.6547 53.4298L59.1199 53.8243C60.6949 55.1592 63.3255 54.7894 64.9664 53.003L78.516 38.9162ZM46.7348 36.4714L8.61134 75.345M55.3014 45.4953L54.8363 45.101C53.2613 43.766 53.318 41.2095 54.9558 39.4264L65.36 28.7642C66.9979 26.9811 69.634 26.6109 71.2063 27.9437L71.6715 28.338C73.2435 29.6704 73.1925 32.2258 71.5516 34.0123L61.1475 44.6745C59.5069 46.4606 56.876 46.83 55.3014 45.4953ZM51.1596 37.6185L50.6943 37.2241C49.1212 35.8908 49.1798 33.3293 50.8142 31.5499L58.571 23.77C60.2054 21.9906 62.8472 21.6185 64.417 22.9492L64.8821 23.3436C66.4519 24.6742 66.4031 27.2321 64.7626 29.0181L57.0058 36.798C55.3652 38.5841 52.7329 38.9523 51.1596 37.6185Z" stroke="currentColor" stroke-width="1.5" stroke-linecap="round" fill="none" />
</svg>