<?xml version='1.0' encoding='utf-8'?>
<svg xmlns="http://www.w3.org/2000/svg" width="110" height="110" viewBox="0 0 110 110" fill="none" stroke="currentColor" stroke-width="1.5">
<path d="M52.1932 90.8761H30.6005C27.749 90.8761 24.0001 85.0121 24.0001 82.1605H26.6784M26.6784 46.6168C25.7985 46.6166 24.9063 46.6165 24 46.6165L24 39.7867C24 36.9351 26.8774 34.6212 29.729 34.6212H37.573M26.6784 46.6168V82.1605M26.6784 46.6168C40.3053 46.6202 50.955 46.648 64.5912 46.6513M26.6784 82.1605H48.4675M64.5912 46.6513C65.4504 46.6515 66.3215 46.6516 67.206 46.6516V39.4541C67.206 36.6025 64.2383 34.6212 61.3868 34.6212L37.573 34.6212M64.5912 46.6513V63.422M37.573 27.4875H58.8712V15.4862C58.8712 13.7484 57.604 12 55.8757 12H35.8299C34.0825 12 32.7794 13.758 32.7794 15.4862V27.4875H37.573ZM37.573 27.4875V34.6212M53.6968 28.1238V34.2248M83.2314 74.3437C83.227 74.247 83.2137 74.1547 83.2048 74.0623C82.7883 69.552 78.8932 66.0088 74.298 66C71.3645 66 68.7589 67.3936 67.1194 69.552C65.4842 67.3936 62.8787 65.9956 59.9452 66C55.35 66.0044 51.4549 69.552 51.0384 74.0623C51.0295 74.1547 51.0206 74.2514 51.0162 74.3437C50.901 76.2692 51.4062 78.0715 52.3456 79.5706C54.8537 83.5622 56.0368 88.2308 55.4342 92.8994L55.0664 95.7216C54.7916 97.8361 57.3706 99.0934 58.8905 97.5856L63.6098 89.6683C65.1918 87.0175 69.0558 87.0175 70.6378 89.6683L75.3571 97.5856C76.877 99.0934 79.456 97.8361 79.1812 95.7216L78.8134 92.8994C78.2063 88.2352 79.3939 83.5666 81.902 79.5706C82.8459 78.0671 83.3466 76.2692 83.2314 74.3437ZM87.3192 61.0992C83.2065 63.6303 77.7922 62.3305 75.2258 58.1961C72.6594 54.0617 73.9129 48.6582 78.0256 46.1271C82.1382 43.596 87.5526 44.8958 90.1189 49.0302C92.6853 53.1646 91.4318 58.5681 87.3192 61.0992ZM89.3126 77.4051C89.3946 78.4402 88.6219 79.3458 87.5868 79.4278C86.5517 79.5098 85.6461 78.7371 85.5641 77.702C85.4822 76.6669 86.2548 75.7613 87.2899 75.6794C88.325 75.5974 89.2306 76.37 89.3126 77.4051ZM98.0796 66.6374C98.2469 68.749 96.6707 70.5964 94.5591 70.7636C92.4475 70.9308 90.6002 69.3547 90.433 67.2431C90.2657 65.1315 91.8419 63.2842 93.9535 63.1169C96.0651 62.9497 97.9124 64.5259 98.0796 66.6374ZM55.8871 59.4781C56.0474 61.5024 54.5364 63.2734 52.5121 63.4337C50.4878 63.594 48.7168 62.083 48.5564 60.0587C48.3961 58.0344 49.9072 56.2634 51.9315 56.103C53.9558 55.9427 55.7268 57.4538 55.8871 59.4781Z" stroke="currentColor" stroke-width="1.5" stroke-linecap="round" stroke-linejoin="round" fill="none" />
</svg>