<?xml version='1.0' encoding='utf-8'?>
<svg xmlns="http://www.w3.org/2000/svg" id="Layer_1" data-name="Layer 1" width="110" height="110" viewBox="0 0 110 110">
  <circle cx="59.2534" cy="26.4991" r="6.4107" style="fill:none;stroke:currentColor;stroke-miterlimit:10;stroke-width:1.5" />
  <circle cx="28.8653" cy="68.0152" r="6.4107" style="fill:none;stroke:currentColor;stroke-miterlimit:10;stroke-width:1.5" />
  <path d="M65.3537,43.869l4.0158,8.5644h18.5651c1.2407,0,2.2373-1.0231,2.2046-2.2635l-.0266-1.0105c-.0315-1.195-1.0092-2.1474-2.2046-2.1474h-15.6853l-4.385-9.3517c-.4158-.8868-1.3069-1.4531-2.2863-1.4531h-13.6281c-1.4591,0-2.7264,1.0038-3.0606,2.4241l-5.7311,24.3579h17.7233l1.1604-4.9315,11.1058,3.224c1.1041.3205,2.2692-.2609,2.6769-1.3359h0c.4566-1.2038-.2108-2.5411-1.4472-2.9001l-11.3238-3.2874,2.3268-9.8895Z" style="fill:none;stroke:currentColor;stroke-miterlimit:10;stroke-width:1.5" />
  <path d="M72.3653,67.1282h-30.7881c-1.2761,0-2.3106,1.0345-2.3106,2.3106v6.5068c0,1.2761,1.0345,2.3106,2.3106,2.3106h54.8989c1.3395,0,2.4253-1.0859,2.4253-2.4253v-.428c0-1.3395-1.0859-2.4253-2.4253-2.4253h-20.8294l5.2174-5.2174c.5873-.5873,1.3839-.9173,2.2145-.9173h10.1161c1.3395,0,2.4253-1.0859,2.4253-2.4253h0c0-1.3395-1.0859-2.4253-2.4253-2.4253h-13.3152c-.7083,0-1.3955.2411-1.9486.6835l-5.5656,4.4525Z" style="fill:none;stroke:currentColor;stroke-miterlimit:10;stroke-width:1.5" />
  <path d="M95.1921,84.3074c0-1.3721-1.1126-2.4845-2.4847-2.4845h-57.7207v-1.5884c0-1.1716-.9496-2.121-2.121-2.121h-9.5968c-1.1714,0-2.121.9494-2.121,2.121v1.3031h-.4158c-1.1888,0-2.1524.9633-2.1524,2.1519v10.1172h6.4761v-2.4563c0-1.5493,1.2561-2.8056,2.8056-2.8056h12.7638c1.5495,0,2.8056,1.2563,2.8056,2.8056v2.4563h4.7248v-2.4563c0-1.5493,1.2561-2.8056,2.8056-2.8056h12.7638c1.5495,0,2.8056,1.2563,2.8056,2.8056v2.4563h4.7248v-2.4563c0-1.5493,1.2561-2.8056,2.8056-2.8056h12.7638c1.5495,0,2.8056,1.2563,2.8056,2.8056v2.4563h5.5618v-9.4994Z" style="fill:none;stroke:currentColor;stroke-miterlimit:10;stroke-width:1.5" />
</svg>