<?xml version='1.0' encoding='utf-8'?>
<svg xmlns="http://www.w3.org/2000/svg" width="110" height="110" viewBox="0 0 110 110" fill="none" stroke="currentColor" stroke-width="1.5">
<path d="M14.5138 96.7528C17.782 93.7173 32.0634 80.5215 34.152 79.6515C46.4512 74.4988 53.21 70.7286 67.153 56.7884L81.0863 42.8579L95.0196 28.9274C97.6786 26.2592 97.6786 21.909 95.0196 19.2408L90.7651 14.9872C88.0964 12.319 83.7453 12.319 81.0766 14.9872L53.2003 42.8579C39.267 56.7884 35.554 64.3965 30.3326 75.8522C29.3851 77.9404 16.2543 92.2189 13.2278 95.4864M14.5138 96.7528C14.1657 97.1009 13.5952 97.1009 13.2472 96.7528C12.8991 96.4048 12.8991 95.8344 13.2472 95.4864C13.5952 95.1384 14.1657 95.1384 14.5138 95.4864C14.8619 95.8344 14.8619 96.4048 14.5138 96.7528ZM87.1972 36.7579C89.4211 34.5344 89.4211 30.9092 87.1972 28.6857L81.328 22.8177C79.1041 20.5942 75.4781 20.5942 73.2542 22.8177M93.7626 30.1841C95.9865 27.9607 95.9865 24.3354 93.7626 22.112L87.8934 16.2439C85.6695 14.0205 82.0435 14.0205 79.8196 16.2439M18.7006 89.5314L20.4604 91.2908M69.3769 36.7095L73.4283 40.7601C73.9891 41.3208 73.9891 42.2295 73.4283 42.7902L61.7672 54.4489C61.2064 55.0096 60.2975 55.0096 59.7367 54.4489L55.6853 50.3984C55.1245 49.8377 55.1245 48.9289 55.6853 48.3682L67.3463 36.7095C67.9072 36.1488 68.8161 36.1488 69.3769 36.7095ZM76.7255 35.9458C76.0293 36.6419 74.8883 36.6419 74.1921 35.9458C73.496 35.2498 73.496 34.109 74.1921 33.413C74.8883 32.7169 76.0293 32.7169 76.7255 33.413C77.4216 34.109 77.4216 35.2498 76.7255 35.9458ZM77.9921 37.2122C76.5901 38.614 74.3275 38.614 72.9255 37.2122C71.5234 35.8105 71.5234 33.5483 72.9255 32.1466C74.3275 30.7448 76.5901 30.7448 77.9921 32.1466C79.3942 33.5483 79.3942 35.8105 77.9921 37.2122ZM80.5255 29.6138C82.9718 32.0596 82.9718 36.0328 80.5255 38.4786L61.5158 57.4845C59.0695 59.9303 55.0955 59.9303 52.6492 57.4845C50.2028 55.0386 50.2028 51.0654 52.6492 48.6196L71.6588 29.6138C74.1051 27.1679 78.0792 27.1679 80.5255 29.6138ZM68.0329 39.9287L70.2181 42.1135C70.6629 42.5582 70.6629 43.2833 70.2181 43.7376L69.6186 44.337C69.1738 44.7817 68.4486 44.7817 67.9942 44.337L65.8089 42.1522C65.3642 41.7075 65.3642 40.9825 65.8089 40.5281L66.4084 39.9287C66.8532 39.484 67.5784 39.484 68.0329 39.9287ZM64.7066 43.2543L66.8919 45.4391C67.3367 45.8838 67.3367 46.6088 66.8919 47.0632L66.2924 47.6625C65.8476 48.1072 65.1224 48.1072 64.668 47.6625L62.4827 45.4777C62.0379 45.033 62.0379 44.308 62.4827 43.8536L63.0822 43.2543C63.527 42.8096 64.2522 42.8096 64.7066 43.2543ZM61.3804 46.5798L63.5657 48.7646C64.0105 49.2093 64.0105 49.9343 63.5657 50.3887L62.9662 50.9881C62.5214 51.4328 61.7962 51.4328 61.3418 50.9881L59.1565 48.8033C58.7117 48.3586 58.7117 47.6335 59.1565 47.1792L59.756 46.5798C60.2008 46.1351 60.926 46.1351 61.3804 46.5798Z" stroke="currentColor" stroke-width="1.5" stroke-miterlimit="10" stroke-linecap="round" fill="none" />
</svg>