<?xml version='1.0' encoding='utf-8'?>
<svg xmlns="http://www.w3.org/2000/svg" version="1.1" id="Layer_1" x="0px" y="0px" viewBox="0 0 110 110" style="enable-background:new 0 0 110 110;fill:none;stroke:currentColor;stroke-width:1.5" xml:space="preserve">
<path style="fill:none;stroke:currentColor;stroke-width:1.5;stroke-miterlimit:10" d="M55,95c22.09,0,40-17.907,40-40  c0-22.09-17.91-40-40-40 M55,95c-22.093,0-40-17.907-40-40c0-22.09,17.907-40,40-40 M55,95c11.045,0,19.999-17.907,19.999-40  c0-22.09-8.955-40-19.999-40 M55,95c-11.045,0-20-17.907-20-40c0-22.09,8.956-40,20-40 M55,95V15 M92.8,41.915H17.2 M92.8,68.077  H17.2" />
</svg>