<?xml version='1.0' encoding='utf-8'?>
<svg xmlns="http://www.w3.org/2000/svg" id="Layer_1" data-name="Layer 1" width="110" height="110" viewBox="0 0 110 110">
  <path d="M74.8934,20.7286l2.872-.2066c1.4713-.1058,2.7346,1.0349,2.7792,2.5093l.7618,25.2599c.0201.6692-.2191,1.3203-.6679,1.817l-36.3251,40.2143c-.9604,1.0632-2.6007,1.1466-3.664.1862l-25.9574-23.447c-1.0631-.9603-1.1465-2.6007-.1861-3.6639L50.8314,23.183c.4485-.4965,1.0716-.8005,1.7389-.8486l14.1864-1.0205M79.4377,56.5561c.8848.7993.954,2.1642.155,3.0489l-34.8781,38.6124c-.9603,1.0632-2.6007,1.1466-3.6639.1861l-24.2158-21.8737c-.9619-.8688-1.0373-2.353-.1684-3.3149M83.6672,45.5353c3.7837-.2638,7.4743-1.9361,10.2176-4.9729,5.6256-6.228,5.1373-15.8373-1.0906-21.4629-6.228-5.6256-15.8373-5.1373-21.4629,1.0907-3.7085,4.1056-4.7601,9.6806-3.2619,14.6152M71.5219,36.7479c-1.2608,2.1147-3.9971,2.807-6.1118,1.5462-2.1146-1.2607-2.8069-3.997-1.5462-6.1117,1.2607-2.1147,3.997-2.8069,6.1117-1.5462s2.807,3.997,1.5463,6.1117Z" style="fill:none;stroke:currentColor;stroke-linecap:round;stroke-linejoin:round;stroke-width:1.5" />
  <path d="M48.1637,38.6219v6.8341M36.0778,43.9373l4.6081,4.6324M30.7903,56.0868h6.7983M36.0778,68.2363l4.6081-4.6323M60.2495,68.2363l-4.6081-4.6323M65.537,56.0868h-6.7982M60.2495,43.9373l-4.6081,4.6324M42.9605,43.4591l1.1562,2.8062M35.6021,50.8563l2.7915,1.1623M35.6021,61.3174l2.7915-1.1623M60.7252,61.3174l-2.7914-1.1623M60.7252,50.8563l-2.7914,1.1623M53.3668,43.4591l-1.1562,2.8062" style="fill:none;stroke:currentColor;stroke-linejoin:round;stroke-width:1.5" />
  <g>
    <path d="M52.2834,49.4168s-1.4577-.9045-3.3029-.6547-2.8441,1.5261-3.0105,1.8313-.9156,1.7342-.5827,3.6348.9087,2.8648.6312,4.3354-2.1365,3.2741-3.2741,3.6626h10.0443" style="fill:none;stroke:currentColor;stroke-linecap:round;stroke-linejoin:round;stroke-width:1.5" />
    <line x1="42.3556" y1="56.0386" x2="50.6286" y2="56.0386" style="fill:none;stroke:currentColor;stroke-linecap:round;stroke-linejoin:round;stroke-width:1.5" />
  </g>
</svg>