<?xml version='1.0' encoding='utf-8'?>
<svg xmlns="http://www.w3.org/2000/svg" width="110" height="110" viewBox="0 0 110 110" fill="none" stroke="currentColor" stroke-width="1.5">
<path d="M76.3778 28.1887V47.8295M69.4764 31.0637L83.2792 44.9545M69.4764 44.9545L83.2792 31.0637M90.9631 37.1466C90.9531 36.9247 90.923 36.7128 90.9029 36.501C89.96 26.1509 81.1426 18.0202 70.7403 18C64.0997 18 58.2014 21.1978 54.4899 26.1509C50.7884 21.1978 44.89 17.9899 38.2494 18C27.8471 18.0101 19.0298 26.1509 18.0868 36.501C18.0668 36.7128 18.0467 36.9347 18.0367 37.1466C17.7759 41.565 18.9194 45.701 21.046 49.1409C26.7236 58.3006 29.402 69.0138 28.0377 79.727L27.2051 86.2034C26.5832 91.0556 32.4213 93.9407 35.862 90.4806L46.5452 72.3125C50.1263 66.2296 58.8735 66.2296 62.4546 72.3125L73.1377 90.4806C76.5784 93.9407 82.4166 91.0556 81.7946 86.2034L80.962 79.727C79.5878 69.0239 82.2761 58.3107 87.9537 49.1409C90.0904 45.6909 91.2239 41.565 90.9631 37.1466Z" stroke="currentColor" stroke-width="1.5" stroke-linecap="round" stroke-linejoin="round" fill="none" />
</svg>