<?xml version='1.0' encoding='utf-8'?>
<svg xmlns="http://www.w3.org/2000/svg" version="1.1" id="Layer_1" x="0px" y="0px" viewBox="0 0 110 110" style="enable-background:new 0 0 110 110;fill:none;stroke:currentColor;stroke-width:1.5" xml:space="preserve">
<path style="fill:none;stroke:currentColor;stroke-width:1.5;stroke-linecap:round;stroke-linejoin:round" d="M78.408,28.69H90.83v6.17  c0,11.9-9.542,21.674-21.718,22.709 M31.422,28.69H19v6.17c0,11.898,9.538,21.671,21.711,22.709 M54.92,66.85v18.23 M38.57,90.84  h34.17 M43.36,85.08h24.6 M69.112,57.569C75.048,48.859,78.9,34.828,78.9,19H30.93c0,15.828,3.848,29.859,9.781,38.569   M69.112,57.569c-3.976,5.834-8.887,9.281-14.202,9.281c-5.315,0-10.225-3.447-14.199-9.281 M52.27,34.39l2.91-8.96l2.91,8.96h9.42  l-7.62,5.53l2.91,8.96l-7.62-5.53l-7.62,5.53l2.91-8.96l-7.62-5.53H52.27z" />
</svg>