<?xml version='1.0' encoding='utf-8'?>
<svg xmlns="http://www.w3.org/2000/svg" id="Layer_1" data-name="Layer 1" width="110" height="110" viewBox="0 0 110 110">
  <path d="M40.5782,51.3032c-.337-.4743-.9763-2.1117-.9763-2.7014v-.509c0-1.6722,1.5062-3.3643,3.3643-3.3643h3.3643c1.8581,0,3.3643,1.6921,3.3643,3.3643v1.6822M44.6484,44.7285v-5.0465M52.9881,23.8797h-29.6159c-1.2139,0-2.2062.9923-2.2062,2.2063v54.3441c0,1.2139,1.0042,2.2062,2.2062,2.2062h41.7876c1.202,0,2.2062-1.0042,2.2062-2.2062v-42.1729M67.366,38.2571l-14.3779-14.3774v12.1713c0,1.2139.9923,2.2061,2.2062,2.2061h12.1717ZM31.1814,83.1207,31.4442,78.4214l-2.1809-1.9968c-4.1368,3.8822-8.2734,7.7651-12.4094,11.6486l-.0183.0008,6.2182,5.7186-.0004-.0089c3.5251-4.4557,7.049-8.9107,10.5714-13.3655l-2.1806-1.9968,3.141-3.415M58.7414,64.4779c.294-7.5864-5.6176-13.9746-13.204-14.2686-7.5864-.294-13.9746,5.6176-14.2686,13.204-.294,7.5864,5.6176,13.9746,13.204,14.2686,7.5864.294,13.9746-5.6176,14.2686-13.204ZM38.2735,58.0937v2.6489c0,2.6333,2.4301,5.2979,5.3562,5.2979h5.2396c2.926,0,5.2979-2.6646,5.2979-5.2979v-.8016c0-2.0524-1.4302-3.8743-3.5933-4.5233l-8.6633-2.5949c-1.0715-.3215-1.9739-.9308-2.6118-1.7134M46.2203,66.0405v7.9468M34.1873,94.826h32.1136c11.1272,0,20.1476-9.0204,20.1476-20.1476V27.4865h6.7159l-12.3124-12.3124-12.3124,12.3124h6.7159v47.1918c0,11.1272-9.0204,20.1476-20.1476,20.1476h-4.4773" style="fill:none;stroke:currentColor;stroke-linejoin:round;stroke-width:1.5" />
</svg>