<?xml version='1.0' encoding='utf-8'?>
<svg xmlns="http://www.w3.org/2000/svg" width="110" height="110" viewBox="0 0 110 110" fill="none" stroke="currentColor" stroke-width="1.5">
<path d="M81.9952 57.7488L87.2629 57.7713C88.2063 59.6826 90.1719 61.0092 92.4407 61.0092C95.6305 61.0092 98.2138 58.4121 98.2138 55.2305C98.2138 52.0488 95.6193 49.4517 92.4407 49.4517C90.127 49.4517 88.1277 50.8233 87.2067 52.8021H81.984C81.7144 49.5642 80.872 46.4837 79.5804 43.6618L86.3643 39.7381C88.139 40.9298 90.4976 41.0872 92.4744 39.9517C95.2374 38.3552 96.1808 34.8138 94.5859 32.0481C92.991 29.2824 89.4531 28.338 86.6901 29.9345C84.6908 31.0925 83.6463 33.2848 83.826 35.4546L77.087 39.3446C75.2899 36.7925 73.066 34.5664 70.5164 32.7676L73.2682 27.9895C75.4022 28.1356 77.525 27.0901 78.6594 25.1226C80.2543 22.3569 79.2996 18.8155 76.5478 17.219C73.7848 15.6225 70.2469 16.5782 68.652 19.3326C67.4951 21.3338 67.686 23.751 68.9327 25.5386L66.2034 30.2605C63.4292 28.9676 60.3966 28.1356 57.2068 27.8546V19.7486C59.1162 18.8042 60.4416 16.8367 60.4416 14.5657C60.4416 11.3728 57.8471 8.78699 54.6685 8.78699C51.4899 8.78699 48.8954 11.384 48.8954 14.5657C48.8954 16.8817 50.2657 18.8829 52.2424 19.8048V27.8546C49.1088 28.1356 46.1324 28.9563 43.3919 30.2043L40.5165 25.2125C41.7071 23.4362 41.8643 21.0752 40.7299 19.0965C39.135 16.3308 35.5971 15.3864 32.8341 16.9829C30.0711 18.5794 29.1276 22.1208 30.7225 24.8865C31.8794 26.8877 34.0695 27.9333 36.2373 27.7534L39.0789 32.6777C36.5517 34.454 34.3279 36.6463 32.5308 39.1535L25.3762 35.0161C25.5222 32.88 24.4777 30.7552 22.5121 29.6197C19.7491 28.0232 16.2111 28.9788 14.6162 31.7333C13.0213 34.499 13.976 38.0404 16.7278 39.6369C18.727 40.7949 21.1419 40.6038 22.9277 39.3558L30.0037 43.4482C28.7233 46.1689 27.8696 49.1257 27.5439 52.2399H21.7484C20.8049 50.3287 18.8394 49.002 16.5705 49.002C13.3807 49.002 10.7975 51.5991 10.7975 54.7808C10.7975 57.9624 13.392 60.5595 16.5705 60.5595C18.8843 60.5595 20.8835 59.1879 21.8045 57.2092H27.4878C27.7236 60.3796 28.4986 63.4039 29.7341 66.1808L22.6694 70.2619C20.8948 69.0702 18.5361 68.9128 16.5593 70.0483C13.7963 71.6448 12.8529 75.1862 14.4478 77.9519C16.0427 80.7176 19.5806 81.662 22.3436 80.0655C24.3429 78.9075 25.3874 76.7152 25.2077 74.5454L32.1602 70.5318C33.9011 73.0838 36.0688 75.3324 38.551 77.1649L35.7543 82.0105C33.6203 81.8644 31.4975 82.9099 30.3631 84.8774C28.7682 87.6431 29.7229 91.1846 32.4746 92.781C35.2376 94.3775 38.7756 93.4218 40.3705 90.6674C41.5274 88.6662 41.3365 86.249 40.0897 84.4614L42.8078 79.7507C45.582 81.0999 48.6146 81.9993 51.8156 82.3366V90.2514C49.9062 91.1958 48.5809 93.1633 48.5809 95.4343C48.5809 98.6272 51.1754 101.213 54.354 101.213C57.5326 101.213 60.1271 98.616 60.1271 95.4343C60.1271 93.1183 58.7568 91.1171 56.78 90.1952V82.4153C59.9811 82.1792 63.0361 81.3922 65.844 80.1555L68.5172 84.7875C67.3266 86.5638 67.1694 88.9248 68.3038 90.9035C69.8987 93.6692 73.4367 94.6136 76.1997 93.0171C78.9627 91.4207 79.9061 87.8792 78.3112 85.1135C77.1543 83.1123 74.9642 82.0667 72.7964 82.2466L70.1907 77.7271C72.8189 75.9282 75.1102 73.6909 76.9634 71.1051L83.6687 74.9726C83.5227 77.1087 84.5673 79.2336 86.5328 80.3691C89.2958 81.9656 92.8338 81.0099 94.4287 78.2555C96.0236 75.4898 95.0689 71.9483 92.3171 70.3519C90.3179 69.1939 87.9031 69.385 86.1172 70.6329L79.5018 66.8104C80.8271 64.0222 81.692 60.9642 81.9952 57.7488Z" stroke="currentColor" stroke-width="1.5" stroke-miterlimit="10" fill="none" />
<path d="M44.0321 41.5706C45.8372 41.5706 47.3005 40.1059 47.3005 38.299C47.3005 36.4921 45.8372 35.0274 44.0321 35.0274C42.227 35.0274 40.7636 36.4921 40.7636 38.299C40.7636 40.1059 42.227 41.5706 44.0321 41.5706Z" stroke="currentColor" stroke-width="1.5" stroke-miterlimit="10" fill="none" />
<path d="M48.9403 55.6577C50.7454 55.6577 52.2087 54.1929 52.2087 52.3861C52.2087 50.5792 50.7454 49.1145 48.9403 49.1145C47.1352 49.1145 45.6719 50.5792 45.6719 52.3861C45.6719 54.1929 47.1352 55.6577 48.9403 55.6577Z" stroke="currentColor" stroke-width="1.5" stroke-miterlimit="10" fill="none" />
<path d="M73.1559 53.0269C74.961 53.0269 76.4243 51.5622 76.4243 49.7553C76.4243 47.9484 74.961 46.4837 73.1559 46.4837C71.3508 46.4837 69.8874 47.9484 69.8874 49.7553C69.8874 51.5622 71.3508 53.0269 73.1559 53.0269Z" stroke="currentColor" stroke-width="1.5" stroke-miterlimit="10" fill="none" />
<path d="M37.1583 62.2009C38.9634 62.2009 40.4267 60.7362 40.4267 58.9293C40.4267 57.1224 38.9634 55.6577 37.1583 55.6577C35.3532 55.6577 33.8898 57.1224 33.8898 58.9293C33.8898 60.7362 35.3532 62.2009 37.1583 62.2009Z" stroke="currentColor" stroke-width="1.5" stroke-miterlimit="10" fill="none" />
<path d="M71.8418 65.8098C73.6469 65.8098 75.1102 64.3451 75.1102 62.5382C75.1102 60.7313 73.6469 59.2666 71.8418 59.2666C70.0367 59.2666 68.5733 60.7313 68.5733 62.5382C68.5733 64.3451 70.0367 65.8098 71.8418 65.8098Z" stroke="currentColor" stroke-width="1.5" stroke-miterlimit="10" fill="none" />
<path d="M60.0597 48.4511C63.6761 48.4511 66.6078 45.5166 66.6078 41.8967C66.6078 38.2767 63.6761 35.3422 60.0597 35.3422C56.4433 35.3422 53.5116 38.2767 53.5116 41.8967C53.5116 45.5166 56.4433 48.4511 60.0597 48.4511Z" stroke="currentColor" stroke-width="1.5" stroke-miterlimit="10" fill="none" />
<path d="M52.2087 76.6253C55.8251 76.6253 58.7568 73.6907 58.7568 70.0708C58.7568 66.4509 55.8251 63.5163 52.2087 63.5163C48.5923 63.5163 45.6607 66.4509 45.6607 70.0708C45.6607 73.6907 48.5923 76.6253 52.2087 76.6253Z" stroke="currentColor" stroke-width="1.5" stroke-miterlimit="10" fill="none" />
</svg>