<?xml version='1.0' encoding='utf-8'?>
<svg xmlns="http://www.w3.org/2000/svg" width="110" height="110" viewBox="0 0 110 110" fill="none" stroke="currentColor" stroke-width="1.5">
<path d="M29.0954 22.3464C22.4806 21.209 16.2097 26.2111 15.7991 32.8584C15.5438 37.0764 17.8746 41.427 21.4928 43.6464C25.1332 45.8879 30.0499 45.38 33.768 43.547C39.1065 40.908 41.9367 35.0336 44.2009 29.8218C47.364 22.512 52.4695 15.7432 60.505 13.5238C68.5516 11.2933 77.7414 14.1532 82.6914 20.944C82.8357 21.1538 82.98 21.3526 83.1243 21.5624C85.0666 24.4554 86.01 27.8894 86.01 31.3677V36.0495M86.9348 70L86.8868 44.5298M79.2952 44.5187H46.1542C44.6781 44.5187 43.4794 45.7113 43.4794 47.1798V75.9774C43.4794 88.2672 53.5016 98.2381 65.8546 98.2381H71.859C84.212 98.2381 94.2342 88.2672 94.2342 75.9774V46.7492C94.2342 45.5125 93.2242 44.5077 91.9811 44.5077H91.4373L91.4373 36.0495H85.8546C81.1598 36.0495 77 39.8479 77 44.5187M47.2863 44.5187V39.4173C47.2863 36.9991 49.2619 35.0336 51.6925 35.0336H75.0777M78.4149 53.5031C86.893 58.7166 89.5178 69.7806 84.2775 78.2154C79.0373 86.6501 67.9163 89.2614 59.4382 84.048C50.9601 78.8345 48.3354 67.7705 53.5756 59.3357C58.8159 50.901 69.9368 48.2897 78.4149 53.5031ZM68.9289 79.0802C63.2131 79.0802 58.5738 74.4536 58.5738 68.778C58.5738 63.1024 63.2242 58.4758 68.9289 58.4758C74.6337 58.4758 79.2841 63.1024 79.2841 68.778C79.2841 74.4536 74.6337 79.0802 68.9289 79.0802ZM68.9289 71.4281C67.4528 71.4281 66.2541 70.2356 66.2541 68.767C66.2541 67.2984 67.4528 66.1058 68.9289 66.1058C70.4051 66.1058 71.6038 67.2984 71.6038 68.767C71.6038 70.2356 70.4051 71.4281 68.9289 71.4281Z" stroke="currentColor" stroke-width="1.5" stroke-linecap="round" stroke-linejoin="round" fill="none" />
</svg>