<?xml version='1.0' encoding='utf-8'?>
<svg xmlns="http://www.w3.org/2000/svg" id="Layer_1" data-name="Layer 1" width="110" height="110" viewBox="0 0 110 110">
  <g>
    <path d="M75.1765,56.8911c0,4.0845,3.3052,7.3993,7.3899,7.3993s7.399-3.3148,7.399-7.3993-3.3146-7.3899-7.399-7.3899-7.3899,3.3053-7.3899,7.3899ZM79.8619,56.8911c0-1.4837,1.2115-2.6949,2.7045-2.6949s2.7042,1.2112,2.7042,2.6949c0,1.493-1.2113,2.7042-2.7042,2.7042s-2.7045-1.2112-2.7045-2.7042Z" style="fill:none;stroke:currentColor;stroke-linecap:round;stroke-linejoin:round;stroke-width:1.5" />
    <path d="M78.9666,87.0222c0,6.5867-5.3585,11.9453-11.9451,11.9453-3.8756,0-7.2065-1.7125-9.3794-4.8222-2.5194-3.6058-3.1012-8.53-1.5185-12.8513.8182-2.2342,2.074-4.1482,3.6418-5.8268" style="fill:none;stroke:currentColor;stroke-linecap:round;stroke-linejoin:round;stroke-width:1.5" />
    <path d="M82.571,84.1515v2.8708c0,8.5878-6.9618,15.5496-15.5495,15.5497-11.8103,0-18.0694-12.1779-14.2825-22.5175,3.7454-10.2262,14.8126-14.5442,24.003-18.6119" style="fill:none;stroke:currentColor;stroke-linecap:round;stroke-linejoin:round;stroke-width:1.5" />
    <path d="M91.9955,36.2269h2.2185c2.8259,0,5.5508,1.2399,7.3062,3.4458.0576.0649.1045.1298.1514.1875,2.0509,2.6708,1.2183,10.3302-1.0056,18.2203" style="fill:none;stroke:currentColor;stroke-linecap:round;stroke-linejoin:round;stroke-width:1.5" />
    <path d="M64.7082,58.0696c-2.0041-7.58-2.6673-14.8898-.7533-17.6219.0757-.1045.1514-.2054.2162-.31,1.7734-2.4042,4.5993-3.8027,7.5873-3.8027h1.8457" style="fill:none;stroke:currentColor;stroke-linecap:round;stroke-linejoin:round;stroke-width:1.5" />
    <path d="M98.4984,64.2904l2.1958-6.202c1.1403.3553,1.7769,1.5678,1.4215,2.708-1.0472,3.3607-4.8679,14.6734-10.0719,19.1476-2.7005,2.3221-6.0862,3.4826-9.4729,3.4826s-6.7731-1.1611-9.4729-3.4824c-5.2635-4.5258-8.8954-15.8251-9.8831-19.1805-.3372-1.1458.3182-2.348,1.464-2.6854l1.8002,5.0183" style="fill:none;stroke:currentColor;stroke-linecap:round;stroke-linejoin:round;stroke-width:1.5" />
    <path d="M71.7475,70.7525c1.3962,2.6925,2.8377,4.766,4.1705,5.912,3.7931,3.2612,9.5133,3.2611,13.3061-.0002,1.3237-1.138,2.7789-3.212,4.2074-5.9122" style="fill:none;stroke:currentColor;stroke-linecap:round;stroke-linejoin:round;stroke-width:1.5" />
    <path d="M91.3663,37.6431l-3.1789.9781c-1.0183.3133-2.0492-.4481-2.0492-1.5135v-1.7619c0-1.0654,1.0309-1.8268,2.0492-1.5135l3.1789.9781c.374.1151.6292.4605.6292.8518v1.1289c0,.3913-.2552.7368-.6292.8518Z" style="fill:none;stroke:currentColor;stroke-linecap:round;stroke-linejoin:round;stroke-width:1.5" />
    <path d="M74.2334,37.6431l3.1789.9781c1.0183.3133,2.0492-.4481,2.0492-1.5135v-1.7619c0-1.0654-1.0309-1.8268-2.0492-1.5135l-3.1789.9781c-.374.1151-.6292.4605-.6292.8518v1.1289c0,.3913.2552.7368.6292.8518Z" style="fill:none;stroke:currentColor;stroke-linecap:round;stroke-linejoin:round;stroke-width:1.5" />
  </g>
  <g>
    <path d="M46.7847,5.8223c12.5197,0,23.609,6.1032,30.4714,15.4916" style="fill:none;stroke:currentColor;stroke-miterlimit:10;stroke-width:1.5" />
    <path d="M47.9371,81.2458c-.3837.0115-.7659.0291-1.1524.0291" style="fill:none;stroke:currentColor;stroke-miterlimit:10;stroke-width:1.5" />
    <path d="M77.2561,21.3139c1.5809,2.1629,2.9344,4.5004,4.0317,6.9783" style="fill:none;stroke:currentColor;stroke-miterlimit:10;stroke-width:1.5" />
    <path d="M46.7847,5.8223c-12.5198,0-23.609,6.1032-30.4714,15.4916" style="fill:none;stroke:currentColor;stroke-miterlimit:10;stroke-width:1.5" />
    <path d="M9.0584,43.5486c0,20.8355,16.8906,37.7263,37.7263,37.7263" style="fill:none;stroke:currentColor;stroke-miterlimit:10;stroke-width:1.5" />
    <path d="M16.3133,21.3139c-4.5582,6.236-7.2549,13.9188-7.2549,22.2347" style="fill:none;stroke:currentColor;stroke-miterlimit:10;stroke-width:1.5" />
    <path d="M33.3085,64.6928c2.9259,10.0061,7.8696,16.5822,13.4762,16.5822" style="fill:none;stroke:currentColor;stroke-miterlimit:10;stroke-width:1.5" />
    <path d="M46.7847,81.2749c.3665,0,.729-.0381,1.0895-.0935" style="fill:none;stroke:currentColor;stroke-miterlimit:10;stroke-width:1.5" />
    <path d="M33.3085,64.6928c-1.7636-6.0313-2.7944-13.3082-2.7944-21.1441" style="fill:none;stroke:currentColor;stroke-miterlimit:10;stroke-width:1.5" />
    <path d="M33.6429,21.3139c-1.9659,6.236-3.1289,13.9188-3.1289,22.2347" style="fill:none;stroke:currentColor;stroke-miterlimit:10;stroke-width:1.5" />
    <path d="M59.9264,21.3139c.5148,1.6328.9728,3.3662,1.3708,5.1834" style="fill:none;stroke:currentColor;stroke-miterlimit:10;stroke-width:1.5" />
    <path d="M46.7847,5.8223c-5.3996,0-10.1822,6.1032-13.1418,15.4916" style="fill:none;stroke:currentColor;stroke-miterlimit:10;stroke-width:1.5" />
    <path d="M59.9264,21.3139c-2.9596-9.3884-7.7422-15.4916-13.1417-15.4916" style="fill:none;stroke:currentColor;stroke-miterlimit:10;stroke-width:1.5" />
    <line x1="16.3087" y1="21.3139" x2="16.3133" y2="21.3139" style="fill:none;stroke:currentColor;stroke-miterlimit:10;stroke-width:1.5" />
    <line x1="16.3133" y1="21.3139" x2="33.6429" y2="21.3139" style="fill:none;stroke:currentColor;stroke-miterlimit:10;stroke-width:1.5" />
    <line x1="59.9264" y1="21.3139" x2="33.6429" y2="21.3139" style="fill:none;stroke:currentColor;stroke-miterlimit:10;stroke-width:1.5" />
    <line x1="77.2561" y1="21.3139" x2="77.2656" y2="21.3139" style="fill:none;stroke:currentColor;stroke-miterlimit:10;stroke-width:1.5" />
    <line x1="59.9264" y1="21.3139" x2="77.2561" y2="21.3139" style="fill:none;stroke:currentColor;stroke-miterlimit:10;stroke-width:1.5" />
    <line x1="33.3085" y1="64.6928" x2="39.3736" y2="64.6928" style="fill:none;stroke:currentColor;stroke-miterlimit:10;stroke-width:1.5" />
    <line x1="16.3087" y1="64.6928" x2="33.3085" y2="64.6928" style="fill:none;stroke:currentColor;stroke-miterlimit:10;stroke-width:1.5" />
    <line x1="9.0584" y1="43.5486" x2="30.514" y2="43.5486" style="fill:none;stroke:currentColor;stroke-miterlimit:10;stroke-width:1.5" />
    <line x1="41.8249" y1="43.5486" x2="30.514" y2="43.5486" style="fill:none;stroke:currentColor;stroke-miterlimit:10;stroke-width:1.5" />
    <path d="M47.9371,81.2458c-.0208-.0216-.0422-.0427-.0629-.0643" style="fill:none;stroke:currentColor;stroke-linecap:round;stroke-linejoin:round;stroke-width:1.5" />
  </g>
  <g>
    <line x1="50.2358" y1="32.7006" x2="41.2957" y2="32.6994" style="fill:none;stroke:currentColor;stroke-linejoin:round;stroke-width:1.5" />
    <line x1="45.8215" y1="37.1353" x2="45.8227" y2="28.1951" style="fill:none;stroke:currentColor;stroke-linejoin:round;stroke-width:1.5" />
  </g>
  <g>
    <line x1="55.8553" y1="53.046" x2="46.9151" y2="53.0448" style="fill:none;stroke:currentColor;stroke-linejoin:round;stroke-width:1.5" />
    <line x1="51.441" y1="57.4806" x2="51.4421" y2="48.5405" style="fill:none;stroke:currentColor;stroke-linejoin:round;stroke-width:1.5" />
  </g>
</svg>