<?xml version='1.0' encoding='utf-8'?>
<svg xmlns="http://www.w3.org/2000/svg" width="110" height="110" viewBox="0 0 110 110" fill="none" stroke="currentColor" stroke-width="1.5">
<path d="M55.1566 91.705C52.8602 91.705 51.016 93.5636 51.016 95.8536C51.016 98.1436 52.8776 100 55.174 100C57.4704 100 59.3319 98.1436 59.3319 95.8536C59.3319 93.5636 57.453 91.705 55.1566 91.705ZM55.1566 91.705V83.4321M55.1566 83.4321C45.3619 83.4321 37.283 87.0492 35.1258 91.8201M55.1566 83.4321C64.9513 83.4321 72.7114 87.0505 74.8687 91.8214M32.8532 34.3343V38.1337C32.8532 38.5674 32.8532 38.9838 32.888 39.4175C33.5491 51.2495 43.3786 60.6353 55.4001 60.6353C67.4217 60.6353 77.9645 50.5729 77.9645 38.1337V34.3343M59.9601 83.7846V60.1492M50.7485 60.1561V83.6946M38.3159 95.8536C38.3159 98.1436 36.4543 100 34.158 100C31.8616 100 30 98.1436 30 95.8536C30 93.5636 31.8616 91.7072 34.158 91.7072C36.4543 91.7072 38.3159 93.5636 38.3159 95.8536ZM80 95.8536C80 98.1436 78.1384 100 75.842 100C73.5456 100 71.6841 98.1436 71.6841 95.8536C71.6841 93.5636 73.5456 91.7072 75.842 91.7072C78.1384 91.7072 80 93.5636 80 95.8536ZM77.9819 33.5016C77.9819 45.9288 67.8795 56.0031 55.4175 56.0031C42.9556 56.0031 32.8532 45.9288 32.8532 33.5016C32.8532 21.0743 42.9556 11 55.4175 11C67.8795 11 77.9819 21.0743 77.9819 33.5016Z" stroke="currentColor" stroke-width="1.5" stroke-miterlimit="10" fill="none" />
</svg>