<?xml version='1.0' encoding='utf-8'?>
<svg xmlns="http://www.w3.org/2000/svg" version="1.1" id="Layer_1" x="0px" y="0px" viewBox="0 0 110 110" style="enable-background:new 0 0 110 110;fill:none;stroke:currentColor;stroke-width:1.5" xml:space="preserve">
<path style="fill:none;stroke:currentColor;stroke-width:1.5;stroke-linecap:round;stroke-linejoin:round" d="M44.18,78.48  c4.216,0,7.634-3.413,7.634-7.623c0-4.21-3.418-7.623-7.634-7.623c-4.216,0-7.634,3.413-7.634,7.623  C36.546,75.067,39.964,78.48,44.18,78.48z" />
<path style="fill:none;stroke:currentColor;stroke-width:1.5;stroke-linecap:round;stroke-linejoin:round" d="M30.833,55.823l-3.165-5.694  l7.622-4.226l3.165,5.694c0.45,0.817,1.375,1.255,2.3,1.077c0.877-0.166,1.766-0.272,2.667-0.308  c0.925-0.035,1.719-0.663,1.968-1.562c0.652-2.285,1.79-6.262,1.79-6.262l8.38,2.391l-1.79,6.25  c-0.261,0.888,0.083,1.847,0.853,2.379c0.747,0.509,1.446,1.065,2.098,1.669c0.688,0.639,1.707,0.746,2.513,0.296l5.702-3.161  l4.232,7.611l-5.701,3.161c-0.818,0.45-1.257,1.373-1.079,2.297c0.166,0.876,0.273,1.752,0.308,2.652  c0.036,0.923,0.676,1.716,1.565,1.977c2.288,0.651,6.27,1.787,6.27,1.787l-2.394,8.369l-6.259-1.787  c-0.889-0.26-1.849,0.083-2.383,0.852c-0.51,0.746-1.067,1.444-1.671,2.095c-0.64,0.687-0.747,1.705-0.296,2.509l3.165,5.694  L53.07,95.81l-3.165-5.694c-0.45-0.817-1.375-1.255-2.3-1.077c-0.877,0.166-1.754,0.272-2.655,0.308  c-0.925,0.035-1.719,0.675-1.979,1.563c-0.652,2.285-1.79,6.262-1.79,6.262l-8.38-2.391l1.79-6.25  c0.261-0.888-0.083-1.847-0.854-2.379c-0.747-0.509-1.446-1.065-2.098-1.669c-0.688-0.639-1.707-0.746-2.513-0.296l-5.701,3.161  l-4.232-7.612l5.701-3.161c0.818-0.45,1.256-1.373,1.079-2.297c-0.166-0.876-0.273-1.752-0.308-2.652  c-0.036-0.923-0.676-1.716-1.565-1.977c-2.288-0.651-6.271-1.787-6.271-1.787l2.394-8.369l6.259,1.788  c0.889,0.26,1.849-0.083,2.383-0.852c0.51-0.746,1.067-1.444,1.671-2.095C31.177,57.646,31.283,56.628,30.833,55.823z" />
<path style="fill:none;stroke:currentColor;stroke-width:1.5;stroke-linecap:round;stroke-linejoin:round" d="M75.219,37.927  c2.945-0.4,4.992-3.219,4.573-6.296c-0.419-3.077-3.147-5.247-6.092-4.847c-2.945,0.4-4.992,3.219-4.573,6.296  C69.547,36.157,72.274,38.327,75.219,37.927z" />
<path style="fill:none;stroke:currentColor;stroke-width:1.5;stroke-linecap:round;stroke-linejoin:round" d="M61.545,26.063l-3.674-2.924  l3.698-5.09l3.675,2.924c0.522,0.414,1.245,0.45,1.79,0.059c0.51-0.367,1.055-0.699,1.624-0.983  c0.581-0.296,0.913-0.959,0.818-1.634c-0.237-1.74-0.652-4.759-0.652-4.759l6.093-0.829l0.652,4.759  c0.095,0.675,0.581,1.231,1.233,1.361c0.628,0.13,1.233,0.296,1.825,0.521c0.628,0.225,1.316,0,1.707-0.533l2.762-3.8l4.919,3.918  l-2.762,3.8c-0.391,0.545-0.415,1.302-0.035,1.87c0.356,0.544,0.676,1.113,0.96,1.705c0.296,0.615,0.925,0.971,1.576,0.876  c1.66-0.225,4.552-0.616,4.552-0.616l0.865,6.369l-4.552,0.616c-0.652,0.083-1.174,0.592-1.292,1.267  c-0.119,0.651-0.273,1.29-0.474,1.906c-0.213,0.651,0,1.373,0.533,1.787l3.675,2.924l-3.698,5.09l-3.674-2.924  c-0.522-0.414-1.245-0.45-1.79-0.059c-0.51,0.367-1.055,0.698-1.624,0.982c-0.581,0.296-0.913,0.959-0.818,1.634  c0.237,1.74,0.652,4.759,0.652,4.759l-6.093,0.829l-0.652-4.759c-0.095-0.675-0.581-1.231-1.233-1.361  c-0.628-0.13-1.233-0.296-1.826-0.521c-0.628-0.225-1.316,0-1.707,0.533l-2.762,3.8l-4.919-3.918l2.762-3.8  c0.391-0.544,0.415-1.302,0.035-1.87c-0.356-0.545-0.676-1.113-0.96-1.705c-0.296-0.616-0.925-0.971-1.576-0.876  c-1.66,0.225-4.552,0.615-4.552,0.615l-0.865-6.369l4.552-0.615c0.652-0.083,1.174-0.592,1.292-1.267  c0.118-0.651,0.273-1.29,0.474-1.906C62.292,27.199,62.079,26.477,61.545,26.063z" />
</svg>