<?xml version='1.0' encoding='utf-8'?>
<svg xmlns="http://www.w3.org/2000/svg" width="110" height="110" viewBox="0 0 110 110" fill="none" stroke="currentColor" stroke-width="1.5">
<path d="M64.0903 43.2849L58.43 46.1916L56.6707 47.9509M64.0903 43.2849L67.685 46.8796M64.0903 43.2849L63.7332 42.9278C63.4701 42.6646 63.4816 42.2346 63.7585 41.9859L94.0307 14.7997C94.4415 14.4308 95.0692 14.4476 95.4597 14.8381C95.8436 15.2221 95.8672 15.837 95.5137 16.2492L68.983 47.1895C68.7369 47.4764 68.2986 47.4932 68.0313 47.2259L67.685 46.8796M67.685 46.8796L64.2693 52.7958L62.8894 54.1696M56.6707 47.9509L54.6054 50.0162M56.6707 47.9509L62.8894 54.1696M54.6054 50.0162L15.0628 89.5587C13.3712 91.2504 13.3712 93.9932 15.0628 95.6848C16.7519 97.3739 19.4894 97.3769 21.1821 95.6917L60.8195 56.2303M54.6054 50.0162L60.8195 56.2303M60.8195 56.2303L62.8894 54.1696M60.8195 56.2303L60.8241 56.2349" stroke="currentColor" stroke-width="1.5" fill="none" />
</svg>