<?xml version='1.0' encoding='utf-8'?>
<svg xmlns="http://www.w3.org/2000/svg" width="110" height="110" viewBox="0 0 110 110" fill="none" stroke="currentColor" stroke-width="1.5">
<g clip-path="url(#clip0_986_5)">
<path d="M79.8554 32.8387L90.9884 18.3201C91.1607 18.0951 91.286 17.8377 91.3566 17.5633C91.4273 17.2888 91.4419 17.0029 91.3996 16.7227C91.3574 16.4425 91.2591 16.1737 91.1106 15.9323C90.9621 15.6909 90.7665 15.482 90.5354 15.3179C90.0989 15.0089 89.5613 14.8773 89.0314 14.9497C88.5015 15.0222 88.0189 15.2932 87.6812 15.708L75.5593 30.5887M75.7372 30.3705L86.0611 17.6672C86.2586 17.466 86.4129 17.2266 86.5144 16.9635C86.6158 16.7004 86.6623 16.4194 86.651 16.1377C86.6397 15.856 86.5707 15.5796 86.4485 15.3256C86.3262 15.0716 86.1532 14.8453 85.9401 14.6607C85.727 14.4762 85.4783 14.3372 85.2094 14.2525C84.9405 14.1677 84.6571 14.1389 84.3767 14.1679C84.0962 14.1969 83.8247 14.2831 83.5788 14.4211C83.333 14.5591 83.118 14.746 82.9471 14.9702L71.496 28.0405M9.80493 81.2112L28.1222 63.3014M72.0937 27.2871L80.8335 17.3103C81.0101 17.1086 81.1441 16.8732 81.2273 16.6184C81.3104 16.3635 81.3411 16.0945 81.3175 15.8274C81.2939 15.5604 81.2164 15.3009 81.0898 15.0646C80.9632 14.8283 80.79 14.6202 80.5807 14.4526C80.1973 14.1446 79.713 13.99 79.222 14.0188C78.731 14.0476 78.2681 14.2577 77.9232 14.6085L36.8684 54.7498M79.5142 33.1689L90.1647 19.3439C90.49 18.9191 90.9687 18.6385 91.4983 18.5624C92.0279 18.4862 92.5662 18.6205 92.9979 18.9364C93.4297 19.2524 93.7205 19.7248 93.808 20.2527C93.8956 20.7805 93.7729 21.3216 93.4664 21.7601L81.2359 39.3679C78.3091 44.0765 79.8258 50.7084 85.9512 50.5371C86.6955 50.5155 87.7123 50.4717 89.1418 50.432C89.2906 50.4278 89.4344 50.4326 89.5734 50.4326C92.9933 50.5318 92.9513 55.6537 89.5314 55.7491L66.6655 56.3899L53.0183 70.7281M35.2682 71.3291L46.6232 67.2447L40.7331 73.1348L38.6007 73.9044M35.2682 71.3291L29.4251 78.285L50.7657 99.6256M35.2682 71.3291L63.495 99.1198M36.8684 69.2644L28.8176 61.2136L34.9149 55.5307L45.3076 65.9233M28.1222 98.2462L36.3844 89.0735M75.339 30.3906C75.3025 30.436 75.2803 30.4911 75.2751 30.549C75.2699 30.607 75.282 30.6652 75.3098 30.7163C75.3376 30.7674 75.3799 30.8091 75.4314 30.8362C75.4828 30.8633 75.5412 30.8746 75.5991 30.8686C75.6569 30.8626 75.7117 30.8397 75.7566 30.8026C75.8014 30.7655 75.8343 30.716 75.8511 30.6603C75.8679 30.6046 75.8678 30.5452 75.8509 30.4895C75.8339 30.4339 75.8009 30.3844 75.756 30.3475C75.7258 30.3228 75.6911 30.3042 75.6538 30.293C75.6165 30.2818 75.5773 30.2781 75.5385 30.2821C75.4997 30.2861 75.4621 30.2977 75.4279 30.3164C75.3936 30.335 75.3634 30.3602 75.339 30.3906ZM71.2819 27.8362C71.2438 27.8802 71.2196 27.9344 71.2123 27.9922C71.205 28.0499 71.215 28.1085 71.2409 28.1605C71.2668 28.2126 71.3075 28.2559 71.358 28.2848C71.4084 28.3138 71.4663 28.3272 71.5244 28.3233C71.5824 28.3195 71.638 28.2985 71.6842 28.2631C71.7304 28.2278 71.7651 28.1795 71.7839 28.1244C71.8027 28.0694 71.8048 28.01 71.7899 27.9538C71.775 27.8975 71.7439 27.8469 71.7003 27.8084C71.6711 27.7825 71.6371 27.7627 71.6002 27.7501C71.5633 27.7375 71.5242 27.7324 71.4853 27.7349C71.4464 27.7375 71.4084 27.7478 71.3735 27.7652C71.3386 27.7826 71.3074 27.8067 71.2819 27.8362ZM79.2883 32.9764C79.2531 33.0226 79.2323 33.0783 79.2286 33.1363C79.2249 33.1943 79.2385 33.2522 79.2675 33.3025C79.2966 33.3529 79.34 33.3935 79.3921 33.4193C79.4442 33.4451 79.5028 33.4549 79.5604 33.4475C79.6181 33.44 79.6723 33.4157 79.7162 33.3776C79.7601 33.3395 79.7918 33.2892 79.8072 33.2331C79.8226 33.177 79.8211 33.1177 79.8028 33.0625C79.7846 33.0072 79.7504 32.9587 79.7046 32.9228C79.6739 32.8988 79.6386 32.881 79.601 32.8707C79.5633 32.8604 79.524 32.8576 79.4853 32.8626C79.4466 32.8676 79.4092 32.8802 79.3754 32.8997C79.3416 32.9192 79.312 32.9453 79.2883 32.9764ZM52.2597 72.8754L46.5472 78.9431L42.3772 74.938L48.2072 68.8229L52.2597 72.8754Z" stroke="currentColor" stroke-width="1.5" stroke-linecap="round" stroke-linejoin="round" fill="none" />
</g>
<defs>
<clipPath id="clip0_986_5">
<rect width="110" height="110" fill="none" stroke="currentColor" stroke-width="1.5" />
</clipPath>
</defs>
</svg>