<?xml version='1.0' encoding='utf-8'?>
<svg xmlns="http://www.w3.org/2000/svg" id="Layer_1" data-name="Layer 1" width="110" height="110" viewBox="0 0 110 110">
  <path d="M77.3534,40.3532c3.2098-5.8503,6.8478-11.9828,9.6802-17.7697-2.0299,1.2861-4.1106,2.5215-6.3657,3.5809-1.2338-2.0378-2.4565-3.9774-4.1106-5.9676-1.3385-1.6128-3.2939-3.9837-5.4364-4.4896-1.6287-.3822-4.1423.1538-6.3657.1538h-6.6305c-4.5689,0-9.206-.5804-12.8614-.2855-1.635.1316-3.1844,1.2179-4.1122,2.0458-5.2477,4.6831-9.0981,13.0026-12.1985,18.2613,6.1373,3.4968,12.2493,7.0032,18.4326,10.4572,3.2447-5.6853,6.3134-11.5531,9.9434-16.8515,1.3131,2.623,2.9878,4.8781,4.2454,7.5551-1.7857,1.2639-3.9964,2.0981-5.7028,3.4445,6.897-.3077,14.3648-.0476,21.4822-.1348" style="fill:none;stroke:currentColor;stroke-miterlimit:10;stroke-width:1.5" />
  <path d="M97.7748,57.8568c-2.3281-6.2943-5.4411-10.8918-8.6192-16.0458-5.8979,3.121-12.1335,7.0492-18.1678,10.4763,2.983,5.8138,6.7907,11.5087,9.5485,17.1068-2.8736-.0888-6.0993.176-8.7524-.1332-.0888-2.1219.176-4.5974-.1332-6.4973-3.4715,6.2515-7.1697,12.2778-10.6063,18.5642,3.4366,5.8439,6.9287,11.6355,10.4747,17.3716.0872-2.3867-.176-5.1271.1316-7.2934,4.6323-.6042,10.4128-.295,13.5259-2.6516,1.3464-1.0181,2.5057-3.8727,3.5809-5.7028,2.5073-4.2692,4.5515-7.7184,6.8954-11.8021,1.0657-1.8571,2.8086-4.2438,3.3145-6.0993.5899-2.1568-.4282-5.2254-1.1926-7.2934" style="fill:none;stroke:currentColor;stroke-miterlimit:10;stroke-width:1.5" />
  <path d="M53.3514,69.5258c-6.3181-.268-13.0977-.0745-19.6252-.1316,1.486-2.5802,2.8197-5.3143,4.5086-7.6915,1.8856.9864,3.9298,2.5215,5.7028,3.1813-3.6253-6.1437-7.1681-12.3698-10.7427-18.5642-6.6289.3092-13.6956.1824-20.2881.5297,2.0886,1.2719,4.4357,2.2837,6.2325,3.8457-1.4019,3.1147-4.0138,7.1269-4.3754,11.404-.2141,2.5263.6106,3.3462,1.5906,5.0399,3.0909,5.3365,5.6378,9.7943,8.6192,14.9833.9468,1.6493,2.4216,4.7259,3.7141,5.7028,2.5374,1.9221,7.1586,2.3328,11.2708,2.6532,4.4864.3489,9.0204.2981,13.5259.1316.0507-7.1237-.2363-13.9081-.1332-21.0842" style="fill:none;stroke:currentColor;stroke-miterlimit:10;stroke-width:1.5" />
</svg>