<?xml version='1.0' encoding='utf-8'?>
<svg xmlns="http://www.w3.org/2000/svg" id="Layer_1" data-name="Layer 1" width="110" height="110" viewBox="0 0 110 110">
  <rect x="1.1254" y="60.5103" width="45.8826" height="13.96" rx="3.4904" ry="3.4904" transform="translate(-43.4236 91.557) rotate(-90)" style="fill:none;stroke:currentColor;stroke-linecap:round;stroke-miterlimit:10;stroke-width:1.5" />
  <path d="M85.951,55.9984c3.4693,0,6.2818,2.8124,6.2818,6.2818h0c0,3.4693-2.8125,6.2818-6.2818,6.2818h-7.0407" style="fill:none;stroke:currentColor;stroke-linecap:round;stroke-miterlimit:10;stroke-width:1.5" />
  <path d="M83.4935,68.562c3.4693,0,6.2818,2.8125,6.2818,6.2818h0c0,3.4693-2.8125,6.2818-6.2818,6.2818h-7.0407" style="fill:none;stroke:currentColor;stroke-linecap:round;stroke-miterlimit:10;stroke-width:1.5" />
  <path d="M31.0467,47.2544c4.2425-.2722,8.2778-2.2142,10.891-5.5889,4.883-6.306,5.4789-14.2881,7.0363-20.4149,1.522-5.9874,10.1497-6.7718,12.4336-1.0317,2.199,5.527.8502,13.248-2.3515,21.2436-.3777.9432.2923,1.9723,1.3083,1.9723h26.2672c3.4693,0,6.2818,2.8125,6.2818,6.2818h0c0,3.4693-2.8125,6.2818-6.2818,6.2818h-6.9619" style="fill:none;stroke:currentColor;stroke-linecap:round;stroke-miterlimit:10;stroke-width:1.5" />
  <path d="M81.0359,81.1255c3.4693,0,6.2818,2.8124,6.2818,6.2818h0c0,3.4693-2.8125,6.2818-6.2818,6.2818h-5.6834l-25.5154.0003c-7.2741-.6308-11.5023-6.0305-17.8712-6.0305" style="fill:none;stroke:currentColor;stroke-linecap:round;stroke-miterlimit:10;stroke-width:1.5" />
</svg>