<?xml version='1.0' encoding='utf-8'?>
<svg xmlns="http://www.w3.org/2000/svg" id="Layer_1" data-name="Layer 1" width="110" height="110" viewBox="0 0 110 110">
  <path d="M85.5614,25.4736c-11.5793-.0054-23.2444-7.7355-27.7225-11.0589-1.804-1.3387-4.3154-1.3248-6.1061.0337-4.3798,3.3225-15.8104,11.0539-27.3348,11.0819-2.7904.0067-5.0586,2.2876-5.056,5.084l.0311,33.4964c.001,1.071.328,2.0914.9459,2.9504,10.5654,14.6874,27.0333,25.7093,31.8283,28.7374.8258.5218,1.7725.7823,2.7194.7815.9422-.0009,1.8845-.2607,2.707-.7795,4.8136-3.0354,21.3553-14.0821,32.1137-28.7786.6359-.8688.9716-1.9038.9706-2.9939l-.0311-33.4799c-.0026-2.7963-2.2748-5.073-5.0656-5.0746h0ZM81.3818,29.3012c-10.1216-.0046-20.3181-6.7327-24.2324-9.6252-1.5769-1.1652-3.7721-1.153-5.3374.0294-3.8284,2.8918-13.8201,9.621-23.8936,9.6455-2.4391.0059-4.4217,1.9911-4.4195,4.425l.0271,29.1543c.0009.9322.2867,1.8203.8268,2.5679,9.2353,12.7835,23.6299,22.3765,27.8213,25.0121.7218.4541,1.5494.6809,2.3771.6802.8235-.0008,1.6473-.2269,2.3662-.6784,4.2076-2.642,18.6669-12.2567,28.0709-25.0482.5558-.7562.8493-1.657.8484-2.6058l-.027-29.1399c-.0023-2.4339-1.9884-4.4154-4.4279-4.4168h0ZM74.1572,61.6751l3.3835-3.3784c5.8314-5.8229,2.9484-13.6901-1.7494-18.7405-1.5487-1.6652-3.3173-3.1083-5.149-4.1345-2.386-1.3383-9.8671-3.2967-14.759,1.465l-10.1534,10.1033c-2.7405,2.7276,4.1754,5.3661,7.6756,1.9165l2.5578-2.5206c3.7785-3.4266,8.5268,3.4401,14.4452-1.2302M34.6353,60.077l-3.3782-3.373c-11.2575-11.2411,8.2401-30.5409,19.6662-19.4189l2.2764,2.2651M61.3673,48.8333l13.0742,13.7056c2.669,2.798-1.294,8.1246-4.7189,4.5928l-6.1285-6.3188M58.2535,65.0708l6.7364,6.9209c2.697,2.7703,8.1571-1.326,4.7328-4.8601l-6.5841-6.794M56.2068,72.7183l3.3649,3.3927c2.7233,2.7449,8.0101-1.173,4.6134-4.7397M42.6551,57.2958l.3593.3594c1.2142,1.2142,1.2114,3.2114-.0003,4.423l-4.6559,4.6582c-1.2114,1.2113-3.2091,1.2136-4.4228,0l-.3593-.3594c-1.2136-1.2136-1.2165-3.2063-.0002-4.4231l4.6559-4.6582c1.2162-1.2167,3.2091-1.2142,4.4233,0h0ZM50.4876,59.4271l.3593.3594c1.2165,1.2165,1.2122,3.2105-.0003,4.4231l-7.4169,7.4168c-1.2125,1.2125-3.2102,1.2125-4.4227,0l-.3594-.3594c-1.2125-1.2125-1.2162-3.2066,0-4.4228l7.4168-7.4168c1.2165-1.2165,3.2065-1.2168,4.4231-.0003h.0001ZM53.5188,66.3575l.3593.3593c1.2166,1.2165,1.2146,3.2089.0003,4.4231l-5.0849,5.0849c-1.2143,1.2142-3.2086,1.2142-4.4231-.0003l-.3593-.3593c-1.2142-1.2142-1.2165-3.2063,0-4.4228l5.0849-5.0849c1.2162-1.2162,3.2066-1.2162,4.4228,0h0ZM56.788,72.9699l.3594.3594c1.215,1.215,1.2117,3.2111,0,4.4228l-3.1223,3.1222c-1.2117,1.2116-3.2103,1.2125-4.4228,0l-.3593-.3594c-1.2125-1.2125-1.2165-3.2068-.0003-4.423l3.1223-3.1222c1.2162-1.2162,3.2077-1.2151,4.423.0003h0Z" style="fill:none;stroke:currentColor;stroke-miterlimit:10;stroke-width:1.5" />
</svg>