<?xml version='1.0' encoding='utf-8'?>
<svg xmlns="http://www.w3.org/2000/svg" width="110" height="110" viewBox="0 0 110 110" fill="none" stroke="currentColor" stroke-width="1.5">
<path d="M28.7743 95.111C31.0156 93.203 32.6105 90.2002 32.6105 87.0307C32.6105 81.2858 27.9508 76.6253 22.207 76.6253C18.819 76.6253 17.1928 78.0224 15.5353 79.1484M87.3802 28.4664L79.6558 23.1594C78.8739 22.6277 78.2693 21.9291 77.8523 21.1472M93.8121 19.0202L86.1293 13.7445C85.337 13.2024 84.451 12.8791 83.5545 12.7749M83.5545 12.7749C81.2715 11.3361 78.238 11.9512 76.6952 14.2033C75.142 16.4553 75.6736 19.5311 77.8628 21.1472M83.5545 12.7749C81.5217 12.5351 79.4264 13.4109 78.1859 15.2146C76.935 17.0288 76.8829 19.3226 77.8523 21.1367M78.311 21.8561L59.0467 45.3778C57.7854 46.9209 56.3468 48.2971 54.7519 49.4857L13.9613 80.1806M86.5463 27.8825L68.9499 57.7329C66.9901 61.0797 64.4987 64.0825 61.5799 66.6265L27.8674 96.0911M14.1489 83.3815L15.233 82.5578C16.0774 81.9218 17.2866 82.0886 17.933 82.9331C18.5688 83.7777 18.4021 84.9871 17.5577 85.6335L16.5048 86.4259M31.1511 88.4278C31.1511 94.2665 26.4184 99 20.5808 99C14.7431 99 10 94.2769 10 88.4278C10 82.5787 14.7327 77.8556 20.5703 77.8556C26.408 77.8556 31.1511 82.5891 31.1511 88.4278ZM96.2722 23.7224C96.2722 26.8712 93.7183 29.436 90.5597 29.436C87.4011 29.436 84.8471 26.8816 84.8471 23.7224C84.8471 20.5633 87.4011 18.0089 90.5597 18.0089C93.7183 18.0089 96.2722 20.5633 96.2722 23.7224ZM100.817 30.7602C100.494 31.2398 99.8374 31.3545 99.3683 31.0312L90.372 24.8485C89.8925 24.5253 89.7778 23.8684 90.101 23.3992C90.4241 22.9301 91.0809 22.8049 91.55 23.1281L100.546 29.3109C101.026 29.6341 101.14 30.291 100.817 30.7602ZM17.2866 84.8724C17.2866 85.9359 16.4214 86.8013 15.3581 86.8013C14.2948 86.8013 13.4296 85.9359 13.4296 84.8724C13.4296 83.8089 14.2948 82.9436 15.3581 82.9436C16.4214 82.9436 17.2866 83.8089 17.2866 84.8724Z" stroke="currentColor" stroke-width="1.5" stroke-miterlimit="10" fill="none" />
</svg>