<?xml version='1.0' encoding='utf-8'?>
<svg xmlns="http://www.w3.org/2000/svg" width="110" height="110" viewBox="0 0 110 110" fill="none" stroke="currentColor" stroke-width="1.5">
<path d="M65.0111 38.3265L62.8099 40.5277C62.2116 41.126 62.0563 42.0453 62.4712 42.7828C64.0799 45.6418 65.7997 47.3722 68.4345 48.778C69.1575 49.1638 70.0415 48.9953 70.6209 48.4158L72.8607 46.1761M65.0111 38.3265C66.3762 36.9613 74.5671 44.4696 72.8607 46.1761M65.0111 38.3265C67.0588 42.4219 69.1065 44.4696 72.8607 46.1761M58.2332 48.4246C58.2332 48.4246 22.0186 84.854 19.6791 87.516C17.3396 90.1781 21.4599 94.1621 23.7994 91.5C26.1389 88.8379 62.2702 52.4919 62.2702 52.4919M91.6352 69.0013C88.0771 72.5594 74.1752 64.4262 60.5844 50.8354C46.9936 37.2445 38.8604 23.3426 42.4185 19.7846C45.9765 16.2265 59.8784 24.3597 73.4692 37.9505C87.0601 51.5414 95.1932 65.4433 91.6352 69.0013Z" stroke="currentColor" stroke-width="1.5" stroke-linecap="round" fill="none" />
</svg>