<?xml version='1.0' encoding='utf-8'?>
<svg xmlns="http://www.w3.org/2000/svg" version="1.1" id="Layer_1" x="0px" y="0px" viewBox="0 0 110 110" style="enable-background:new 0 0 110 110;fill:none;stroke:currentColor;stroke-width:1.5" xml:space="preserve">
<path style="fill:none;stroke:currentColor;stroke-width:1.5;stroke-linecap:round;stroke-linejoin:round;stroke-miterlimit:10" d="  M55.646,71.992l12.841-8.316V48.842 M55.646,71.992V56.305 M55.646,71.992V56.308l-13.078-7.466 M55.646,71.992l-13.078-8.316  V48.842 M55.646,56.305l12.841-7.463 M55.646,56.305l-13.078-7.463 M68.488,48.842l-12.841-8.225l-13.078,8.225 M49.364,30.07  l-0.02-8.957l11.983-0.015l0.02,8.957c-0.001,1.282,0.82,2.425,2.05,2.826c1.166,0.384,2.306,0.847,3.414,1.404  c1.136,0.572,2.509,0.346,3.407-0.571c2.304-2.315,6.32-6.344,6.32-6.344l8.493,8.452l-6.312,6.33  c-0.905,0.895-1.129,2.277-0.556,3.431c0.56,1.109,1.031,2.244,1.414,3.404c0.402,1.227,1.558,2.033,2.827,2.028l8.963-0.01  l0.028,11.974l-8.963,0.01c-1.283-0.003-2.425,0.816-2.826,2.046c-0.383,1.164-0.838,2.289-1.393,3.396  c-0.572,1.135-0.329,2.515,0.568,3.42c2.32,2.305,6.356,6.322,6.356,6.322l-8.449,8.478l-6.342-6.314  c-0.896-0.905-2.28-1.13-3.434-0.559c-1.109,0.558-2.244,1.028-3.405,1.409c-1.227,0.4-2.033,1.554-2.026,2.823l0.02,8.957  L49.52,92.98l-0.02-8.957c0.001-1.283-0.82-2.425-2.05-2.826c-1.166-0.384-2.292-0.839-3.4-1.396  c-1.136-0.572-2.517-0.332-3.421,0.563c-2.304,2.315-6.32,6.344-6.32,6.344l-8.493-8.452l6.312-6.33  c0.904-0.895,1.129-2.277,0.556-3.431c-0.56-1.109-1.031-2.244-1.414-3.404c-0.402-1.227-1.558-2.033-2.827-2.028l-8.963,0.01  L19.45,51.099l8.963-0.01c1.283,0.003,2.425-0.816,2.826-2.046c0.383-1.164,0.837-2.289,1.393-3.396  c0.571-1.135,0.329-2.515-0.568-3.42c-2.32-2.305-6.356-6.322-6.356-6.322l8.449-8.478l6.342,6.314  c0.896,0.905,2.28,1.131,3.434,0.559c1.11-0.558,2.244-1.028,3.405-1.409C48.565,32.492,49.37,31.338,49.364,30.07z" />
</svg>