<?xml version='1.0' encoding='utf-8'?>
<svg xmlns="http://www.w3.org/2000/svg" width="110" height="110" viewBox="0 0 110 110" fill="none" stroke="currentColor" stroke-width="1.5">
<path d="M28.7744 66.4596C28.5101 66.7786 28.5544 67.2514 28.8733 67.5157C29.1922 67.78 29.6651 67.7357 29.9294 67.4168L28.7744 66.4596ZM69.0406 19.0495L68.5079 18.5216L68.4844 18.5453L68.4631 18.571L69.0406 19.0495ZM71.1396 19.0495L70.6069 19.5775L70.6078 19.5784L71.1396 19.0495ZM95.2656 43.307L95.7983 42.779L95.7974 42.7781L95.2656 43.307ZM95.2656 45.4247L95.7288 46.0146L95.7655 45.9858L95.7983 45.9527L95.2656 45.4247ZM45.7428 83.3523C45.417 83.6081 45.3602 84.0795 45.616 84.4053C45.8718 84.7311 46.3433 84.7879 46.6691 84.5321L45.7428 83.3523ZM29.0561 68.1009C29.349 67.808 29.349 67.3332 29.0561 67.0403C28.7632 66.7474 28.2883 66.7474 27.9954 67.0403L29.0561 68.1009ZM29.3519 66.9382L29.9294 67.4168L69.618 19.5281L69.0406 19.0495L68.4631 18.571L28.7744 66.4596L29.3519 66.9382ZM69.0406 19.0495L69.5732 19.5775C69.8619 19.2863 70.3183 19.2863 70.6069 19.5775L71.1396 19.0495L71.6723 18.5216C70.7968 17.6383 69.3834 17.6383 68.5079 18.5216L69.0406 19.0495ZM71.1396 19.0495L70.6078 19.5784L94.7339 43.8359L95.2656 43.307L95.7974 42.7781L71.6714 18.5207L71.1396 19.0495ZM95.2656 43.307L94.733 43.835C95.0253 44.1299 95.0253 44.6018 94.733 44.8967L95.2656 45.4247L95.7983 45.9527C96.6702 45.0731 96.6702 43.6586 95.7983 42.779L95.2656 43.307ZM95.2656 45.4247L94.8025 44.8348L45.7428 83.3523L46.2059 83.9422L46.6691 84.5321L95.7288 46.0146L95.2656 45.4247ZM66.2166 21.8992L65.6847 22.428L91.9088 48.8036L92.4407 48.2748L92.9725 47.746L66.7484 21.3704L66.2166 21.8992ZM46.4531 83.939L45.9228 83.4087C45.7891 83.5424 45.4823 83.6778 44.8224 83.5845C44.1784 83.4935 43.3413 83.1995 42.3574 82.6906C40.3977 81.677 38.0099 79.8913 35.6814 77.5628L35.1511 78.0931L34.6208 78.6235C37.0275 81.0302 39.5374 82.9208 41.6683 84.023C42.7296 84.572 43.736 84.9458 44.6124 85.0697C45.473 85.1914 46.3638 85.089 46.9834 84.4693L46.4531 83.939ZM35.1511 78.0931L35.6814 77.5628C33.3529 75.2343 31.5672 72.8466 30.5536 70.8869C30.0447 69.903 29.7508 69.0659 29.6597 68.4218C29.5664 67.7619 29.7019 67.4552 29.8356 67.3215L29.3052 66.7911L28.7749 66.2608C28.1552 66.8805 28.0528 67.7712 28.1745 68.6318C28.2984 69.5082 28.6723 70.5146 29.2213 71.576C30.3234 73.7068 32.214 76.2167 34.6208 78.6235L35.1511 78.0931ZM29.3052 66.7911L29.8356 67.3215C29.9692 67.1878 30.276 67.0524 30.9359 67.1456C31.58 67.2367 32.4171 67.5306 33.4009 68.0395C35.3607 69.0532 37.7484 70.8388 40.0769 73.1673L40.6072 72.637L41.1376 72.1067C38.7308 69.6999 36.2209 67.8093 34.0901 66.7072C33.0287 66.1582 32.0223 65.7843 31.1459 65.6604C30.2853 65.5387 29.3945 65.6412 28.7749 66.2608L29.3052 66.7911ZM40.6072 72.637L40.0769 73.1673C42.4054 75.4958 44.1911 77.8836 45.2047 79.8433C45.7136 80.8272 46.0075 81.6643 46.0986 82.3083C46.1919 82.9682 46.0565 83.275 45.9228 83.4087L46.4531 83.939L46.9834 84.4693C47.6031 83.8497 47.7055 82.959 47.5838 82.0984C47.4599 81.2219 47.086 80.2155 46.5371 79.1542C45.4349 77.0233 43.5443 74.5134 41.1376 72.1067L40.6072 72.637ZM37.8792 92.513L37.3488 91.9826C37.2151 92.1163 36.9084 92.2517 36.2485 92.1585C35.6044 92.0674 34.7673 91.7735 33.7834 91.2646C31.8237 90.2509 29.436 88.4653 27.1075 86.1368L26.5772 86.6671L26.0468 87.1974C28.4536 89.6042 30.9635 91.4948 33.0943 92.5969C34.1557 93.1459 35.1621 93.5198 36.0385 93.6437C36.8991 93.7654 37.7898 93.6629 38.4095 93.0433L37.8792 92.513ZM26.5772 86.6671L27.1075 86.1368C24.779 83.8083 22.9933 81.4205 21.9797 79.4608C21.4707 78.4769 21.1768 77.6398 21.0858 76.9958C20.9925 76.3359 21.1279 76.0291 21.2616 75.8954L20.7313 75.3651L20.2009 74.8348C19.5813 75.4544 19.4789 76.3451 19.6006 77.2057C19.7245 78.0822 20.0983 79.0886 20.6473 80.1499C21.7495 82.2807 23.6401 84.7907 26.0468 87.1974L26.5772 86.6671ZM20.7313 75.3651L21.2616 75.8954C21.3953 75.7617 21.7021 75.6263 22.362 75.7196C23.006 75.8106 23.8431 76.1046 24.827 76.6135C26.7867 77.6271 29.1745 79.4128 31.503 81.7413L32.0333 81.2109L32.5636 80.6806C30.1569 78.2739 27.647 76.3833 25.5161 75.2811C24.4548 74.7321 23.4484 74.3583 22.5719 74.2344C21.7113 74.1127 20.8206 74.2151 20.2009 74.8348L20.7313 75.3651ZM32.0333 81.2109L31.503 81.7413C33.8315 84.0698 35.6171 86.4575 36.6308 88.4172C37.1397 89.4011 37.4336 90.2382 37.5247 90.8823C37.6179 91.5422 37.4825 91.8489 37.3488 91.9826L37.8792 92.513L38.4095 93.0433C39.0291 92.4236 39.1316 91.5329 39.0099 90.6723C38.886 89.7959 38.5121 88.7895 37.9631 87.7281C36.861 85.5973 34.9704 83.0874 32.5636 80.6806L32.0333 81.2109ZM20.7313 75.3651L21.2616 75.8954L29.0561 68.1009L28.5258 67.5706L27.9954 67.0403L20.2009 74.8348L20.7313 75.3651ZM37.8792 92.513L38.4095 93.0433L46.9834 84.4693L46.4531 83.939L45.9228 83.4087L37.3488 91.9826L37.8792 92.513Z" fill="none" stroke="currentColor" stroke-width="1.5" />
<path d="M77.033 55.0719C74.6229 54.0396 73.2787 53.9116 70.7906 54.1474C68.2381 54.3909 65.8048 55.0878 63.3963 55.9017C59.7943 57.1212 56.0902 57.5735 52.2344 57.0247C50.2836 56.7411 48.3785 56.2002 46.5536 55.3261C45.6984 54.9122 44.8511 54.4734 44.0901 53.8445" stroke="currentColor" stroke-width="1.5" stroke-linecap="round" stroke-linejoin="round" fill="none" />
</svg>