<?xml version='1.0' encoding='utf-8'?>
<svg xmlns="http://www.w3.org/2000/svg" width="111" height="110" viewBox="0 0 111 110" fill="none" stroke="currentColor" stroke-width="1.5">
<path d="M62.6774 32.3139L45.0695 42.1904M62.6774 32.3139C59.9656 34.3063 59.9655 38.3016 62.677 40.2944C64.3667 41.5361 66.762 41.5362 68.4518 40.2946M62.6774 32.3139C64.3672 31.0722 66.7623 31.0723 68.452 32.3141C71.1637 34.3067 71.1636 38.302 68.4518 40.2946M45.0695 42.1904L52.027 49.1522M45.0695 42.1904C43.9411 41.0613 42.1091 41.0575 40.9806 42.1865L9.47336 73.7141C6.72174 76.4675 6.11561 81.457 8.41987 84.5949C10.0898 86.8689 12.5918 87.9954 15.0938 88C17.2052 88 19.3126 87.1924 20.923 85.5811L52.6351 53.8484C53.7632 52.7196 53.7632 50.8896 52.6351 49.7608L52.027 49.1522M52.027 49.1522L68.4518 40.2946M69.1937 39.6302L76.1773 46.9248L89.2049 33.8887L79.5166 24.1941C76.593 21.2686 71.8529 21.2686 68.9292 24.1941L66.4851 26.6398C65.1235 28.0023 64.3967 29.7552 64.3087 31.5426M87.5577 35.5402L89.7992 37.7832C91.3811 39.3661 91.3811 41.9324 89.7992 43.5153L87.9356 45.3802M78.1019 45.0021L80.3435 47.2451C81.9253 48.8279 84.49 48.8279 86.0718 47.2451L87.9356 45.3802M87.9356 45.3802L94.6568 52.0123M95.3249 51.3438L93.9887 52.6808C93.4293 53.2406 93.4809 54.1558 94.0912 54.6596C94.7792 55.2277 95.5033 55.7991 96.2644 56.3693C98.609 58.1257 100.889 59.5585 103 60.7287C102.043 58.5537 100.721 56.0656 98.878 53.4988C98.3542 52.7693 97.8262 52.0862 97.3015 51.4478C96.7987 50.836 95.8846 50.7837 95.3249 51.3438Z" stroke="currentColor" stroke-width="1.5" stroke-linecap="round" stroke-linejoin="round" fill="none" />
</svg>