<?xml version='1.0' encoding='utf-8'?>
<svg xmlns="http://www.w3.org/2000/svg" version="1.1" id="Layer_1" x="0px" y="0px" viewBox="0 0 110 110" style="enable-background:new 0 0 110 110;fill:none;stroke:currentColor;stroke-width:1.5" xml:space="preserve">
<path style="fill:none;stroke:currentColor;stroke-width:1.5;stroke-miterlimit:10" d="M24.656,55.548l31.944-32.15  c8.54-8.532,22.389-8.532,30.929,0c8.54,8.532,8.54,22.368,0,30.9L55.5,86.342c0,0-23.555-23.512-32.095-32.044s-8.54-22.368,0-30.9  c8.544-8.532,22.389-8.532,30.929,0l31.976,32.12 M23.405,56.706c8.544-8.532,22.389-8.532,30.929,0  c8.54,8.532,8.54,22.364,0,30.895c-8.54,8.532-22.385,8.532-30.929,0C14.865,79.069,14.865,65.237,23.405,56.706z M56.666,87.601  c-8.54-8.532-8.54-22.364,0-30.895c8.54-8.532,22.389-8.532,30.929,0s8.54,22.364,0,30.895S65.206,96.133,56.666,87.601z" />
</svg>