<?xml version='1.0' encoding='utf-8'?>
<svg xmlns="http://www.w3.org/2000/svg" width="110" height="110" viewBox="0 0 110 110" fill="none" stroke="currentColor" stroke-width="1.5">
<path d="M29.7257 48.7769V34.7261M29.7257 48.7769L25.124 53.3097M29.7257 48.7769L29.7158 93.2748H80.2739V48.7769M25.124 53.3097L9.04346 37.4359M25.124 53.3097C20.5325 41.9683 9.04346 37.4359 9.04346 37.4359M80.2739 48.7769V34.7261M80.2739 48.7769L84.8654 53.3097M84.8654 53.3097L100.956 37.4359M84.8654 53.3097C89.4572 41.9683 100.956 37.4359 100.956 37.4359M100.956 37.4359L82.9691 19.6801C81.2422 17.9755 78.9064 17.0197 76.4707 17.0197L67.4272 17L54.9998 29.1098L42.8919 17L33.5289 17.0197C31.0933 17.0197 28.7575 17.9755 27.0306 19.6801L9.04346 37.4359M38.9074 17.0084L54.9998 32.8936L71.1034 17.008M62.5146 40.4026H75.2321V54.5594C75.2321 55.9956 74.0676 57.1598 72.6308 57.1598H65.116C63.6792 57.1598 62.5146 55.9956 62.5146 54.5594V40.4026Z" stroke="currentColor" stroke-width="1.5" stroke-linecap="round" stroke-linejoin="round" fill="none" />
</svg>