<?xml version='1.0' encoding='utf-8'?>
<svg xmlns="http://www.w3.org/2000/svg" width="110" height="110" viewBox="0 0 110 110" fill="none" stroke="currentColor" stroke-width="1.5">
<path d="M90.1791 44.0519L95.5583 52.9322C95.9127 53.5095 96.6737 53.688 97.2367 53.3101C97.7579 52.9637 97.9247 52.2604 97.612 51.7146L96.9031 50.4549M92.3162 42.3724L96.9031 50.4549M96.9031 50.4549C97.2158 51.0428 97.9352 51.2527 98.5085 50.9273C99.0506 50.6124 99.2487 49.9196 98.9568 49.3633L94.3386 40.4619M85.8134 14.713L100.176 46.7601C100.416 47.2849 100.218 47.9147 99.7178 48.1981C99.1653 48.5235 98.4097 48.313 98.1178 47.7462M74.4394 19.5483L80.4631 32.2114L76.1368 44.4717C75.4905 46.3087 78.1801 47.3794 78.9307 45.5844C78.9619 45.5109 78.9932 45.4375 79.0141 45.3535C79.2851 44.5872 79.4728 44.0414 79.6083 43.6425C80.7654 40.357 84.5705 40.9133 86.4574 43.4326L93.2336 53.5305C93.5776 54.0449 94.276 54.2023 94.7973 53.8664C95.3394 53.5305 95.4844 52.8226 95.1612 52.2767M11.4606 45.1494C11.7316 42.2628 13.4731 38.751 16.3504 35.0771C18.967 31.7391 22.2409 29.1232 24.8054 28.0001M13.937 47.1589C14.208 44.2723 15.9542 40.5039 18.8315 36.83C21.4481 33.492 24.5218 30.9763 27.0863 29.8531M16.2495 49.0355C16.5206 46.1488 18.2581 42.4354 21.1354 38.7615C23.752 35.4235 26.883 32.8945 29.4475 31.7713M31.5915 33.513C29.0165 34.6467 26.035 37.0925 23.4184 40.4305C20.5307 44.1148 18.7898 47.9987 18.5187 50.8853M31.5915 33.513L22.4176 26.0603M31.5915 33.513L32.3733 33.2086C41.8704 29.3773 28.2854 20.808 23 25.5001L22.4176 26.0603M18.5187 50.8853L9.34486 43.4326M18.5187 50.8853C17.028 61.0778 6.04019 49.6992 9.34486 43.4326M9.34486 43.4326C9.61591 40.5459 11.3569 36.6516 14.2341 32.9777C16.8507 29.6397 19.8531 27.1834 22.4176 26.0603M58.7482 31.6446L56.6736 26.0498L61.688 24.1288M58.7482 31.6446L61.688 24.1288M58.7482 31.6446L47.4477 35.1715L40.0043 15.7838L56.5068 10.7349L61.688 24.1288M86.1551 76.3192V80.0981C86.1551 85.9973 81.3909 90.7943 75.5322 90.7943H38.1278C32.2691 90.7943 27.5049 85.9973 27.5049 80.0981V76.3192M30.7042 87.7429L31.9146 99.2653M82.9633 87.7355L81.7454 99.2653M75.5322 86.7636H38.1278C32.2691 86.7636 27.5049 81.9665 27.5049 76.0673V72.2884C27.5049 66.3892 32.2691 61.5921 38.1278 61.5921H75.5322C81.3909 61.5921 86.1551 66.3892 86.1551 72.2884V76.0673C86.1551 81.9665 81.3909 86.7636 75.5322 86.7636ZM38.1278 65.266C34.2811 65.266 31.1536 68.4151 31.1536 72.2884V76.0673C31.1536 79.9406 34.2811 83.0897 38.1278 83.0897H75.5322C79.3789 83.0897 82.5064 79.9406 82.5064 76.0673V72.2884C82.5064 68.4151 79.3789 65.266 75.5322 65.266H38.1278ZM86.301 17.1379C86.301 20.5699 83.538 23.3521 80.1295 23.3521C76.7211 23.3521 73.958 20.5699 73.958 17.1379C73.958 13.706 76.7211 10.9238 80.1295 10.9238C83.538 10.9238 86.301 13.706 86.301 17.1379Z" stroke="currentColor" stroke-width="1.5" stroke-linecap="round" stroke-linejoin="round" fill="none" />
<path d="M53.9519 36.9561C55.8909 42.6558 57.8299 66.7671 57.8299 75.7209" stroke="currentColor" stroke-width="1.5" stroke-linecap="round" stroke-linejoin="round" stroke-dasharray="2.1 3.5" fill="none" />
<path d="M54.1083 75.5634L57.6736 79.3108L61.0721 75.0806" stroke="currentColor" stroke-width="1.5" stroke-linecap="round" stroke-linejoin="round" fill="none" />
<path d="M24.5017 40.2207C34.8536 46.2459 47.4781 66.7777 47.4781 75.7315" stroke="currentColor" stroke-width="1.5" stroke-linecap="round" stroke-linejoin="round" stroke-dasharray="2.1 3.5" fill="none" />
<path d="M43.7565 75.5634L47.3113 79.3108L50.7098 75.0806" stroke="currentColor" stroke-width="1.5" stroke-linecap="round" stroke-linejoin="round" fill="none" />
<path d="M83.3603 46.8755C75.3749 55.6089 68.1818 68.9714 68.1818 75.7313" stroke="currentColor" stroke-width="1.5" stroke-linecap="round" stroke-linejoin="round" stroke-dasharray="2.1 3.5" fill="none" />
<path d="M71.9034 75.5634L68.3486 79.3108L64.9501 75.0806" stroke="currentColor" stroke-width="1.5" stroke-linecap="round" stroke-linejoin="round" fill="none" />
</svg>