<?xml version='1.0' encoding='utf-8'?>
<svg xmlns="http://www.w3.org/2000/svg" width="110" height="110" viewBox="0 0 110 110" fill="none" stroke="currentColor" stroke-width="1.5">
<path d="M75.298 47.9112C74.8362 47.5424 74.282 47.3461 73.741 47.1604C71.5372 46.3858 69.226 46.377 66.9002 46.715C64.4892 47.0521 62.1906 47.7929 59.8776 48.6341C56.4495 49.8842 52.9571 50.4779 49.3657 50.1859C47.5515 50.0362 45.8118 49.6548 44.1287 48.9825C43.3442 48.6695 42.5789 48.3046 41.8977 47.8052M44.5355 44.4447C44.9995 44.8378 45.5538 45.0341 46.108 45.2304C48.6033 46.1258 51.1977 46.0472 53.8393 45.5804C56.0031 45.2027 58.088 44.5153 60.1766 43.7413C62.618 42.8458 65.1084 42.3255 67.6609 42.191C69.7417 42.083 71.79 42.2628 73.7732 42.7715C75.2572 43.1504 76.6319 43.778 77.9441 44.5126M42.5389 77.9929L49.0622 83.3777C51.6745 85.4647 55.5492 84.9182 57.7166 82.157L86.4074 45.6045C88.5748 42.8433 88.214 38.9131 85.6016 36.8261L62.3715 18.2678C59.7591 16.1808 55.8844 16.7273 53.7171 19.4885L25.0262 56.041C22.8589 58.8021 23.2197 62.7324 25.8321 64.8194L32.9939 70.6159M38.6657 64.7639L46.8553 71.3065C48.015 72.233 49.7296 71.9975 50.6848 70.7804C51.6401 69.5634 51.4744 67.8257 50.3146 66.8992L42.125 60.3566C40.9653 59.4301 39.2507 59.6656 38.2954 60.8826C37.3402 62.0997 37.5059 63.8373 38.6657 64.7639ZM37.9689 52.3752L58.9679 69.1511C60.1276 70.0777 61.8422 69.8421 62.7975 68.6251L81.8239 44.3852C82.7792 43.1682 82.6135 41.4305 81.4537 40.504L60.4547 23.7281C59.295 22.8016 57.5804 23.0371 56.6251 24.2541L37.5987 48.494C36.6434 49.711 36.8091 51.4487 37.9689 52.3752ZM37.992 68.8868L43.0318 72.913L27.6605 92.4758C26.7052 93.6929 24.9906 93.9284 23.8309 93.0019L22.9909 92.3308C21.8312 91.4043 21.6654 89.6666 22.6207 88.4496L37.992 68.8868Z" stroke="currentColor" stroke-width="1.5" stroke-linecap="round" stroke-linejoin="round" fill="none" />
</svg>