<?xml version='1.0' encoding='utf-8'?>
<svg xmlns="http://www.w3.org/2000/svg" version="1.1" id="Layer_1" x="0px" y="0px" viewBox="0 0 110 110" style="enable-background:new 0 0 110 110;fill:none;stroke:currentColor;stroke-width:1.5" xml:space="preserve">
<path style="fill:none;stroke:currentColor;stroke-width:1.5;stroke-linecap:round;stroke-linejoin:round" d="M34.764,61.869  c4.596-5.777,11.728-9.487,19.736-9.487s15.14,3.71,19.736,9.487 M85.519,52.709C78.245,43.71,67.053,37.945,54.5,37.945  c-12.553,0-23.745,5.764-31.019,14.764 M97,42.986C86.951,30.789,71.645,23,54.5,23S22.049,30.789,12,42.986 M65.403,78.214  C65.403,84.171,60.522,89,54.5,89s-10.903-4.829-10.903-10.786S48.478,67.427,54.5,67.427S65.403,72.256,65.403,78.214z" />
</svg>