<?xml version='1.0' encoding='utf-8'?>
<svg xmlns="http://www.w3.org/2000/svg" width="110" height="110" viewBox="0 0 110 110" fill="none" stroke="currentColor" stroke-width="1.5">
<g clip-path="url(#clip0_1371_9)">
<path d="M85.0197 30.4103L96.7299 15.1388C96.9112 14.9022 97.043 14.6314 97.1173 14.3427C97.1916 14.054 97.207 13.7533 97.1625 13.4586C97.1181 13.1638 97.0147 12.8811 96.8585 12.6272C96.7023 12.3733 96.4965 12.1535 96.2535 11.9809C95.7944 11.6559 95.2289 11.5175 94.6715 11.5937C94.1141 11.6698 93.6064 11.9549 93.2512 12.3912L80.5008 28.0435M80.6879 27.814L91.5471 14.452C91.7549 14.2404 91.9172 13.9885 92.0239 13.7118C92.1307 13.4351 92.1796 13.1395 92.1676 12.8432C92.1557 12.5469 92.0832 12.2562 91.9546 11.989C91.826 11.7218 91.644 11.4838 91.4198 11.2896C91.1957 11.0955 90.9341 10.9494 90.6513 10.8602C90.3685 10.7711 90.0704 10.7408 89.7754 10.7713C89.4804 10.8018 89.1948 10.8924 88.9362 11.0376C88.6776 11.1827 88.4514 11.3793 88.2717 11.6152L76.2267 25.3632M12.6272 80.0005L5.28223 87.3454M76.8554 24.5708L86.0485 14.0767C86.2343 13.8645 86.3752 13.6169 86.4626 13.3488C86.5501 13.0807 86.5824 12.7977 86.5576 12.5168C86.5328 12.236 86.4513 11.963 86.3181 11.7145C86.1849 11.466 86.0027 11.247 85.7826 11.0708C85.3793 10.7468 84.8699 10.5841 84.3534 10.6144C83.8369 10.6447 83.35 10.8658 82.9872 11.2347L42.1557 51.1914M84.6607 30.7575L95.8636 16.2157C96.2057 15.7688 96.7092 15.4737 97.2663 15.3936C97.8233 15.3135 98.3896 15.4547 98.8437 15.787C99.2978 16.1194 99.6037 16.6164 99.6958 17.1715C99.7879 17.7267 99.6589 18.2959 99.3364 18.7572L86.4717 37.278C83.3932 42.2307 84.9885 49.2066 91.4316 49.0264C92.2145 49.0037 93.284 48.9576 94.7877 48.9158C94.9441 48.9114 95.0954 48.9165 95.2416 48.9165C98.8389 49.0208 98.7947 54.4083 95.1974 54.5087L71.1458 55.1827L59.1578 67.7213M30.3732 97.7466L23.6212 104.838M41.2749 88.5L31.816 97.959L11.6458 77.7888L40.1102 50.5006L59.6922 70.0827L49.7749 80M80.269 27.8352C80.2307 27.8829 80.2073 27.9409 80.2018 28.0019C80.1964 28.0628 80.2091 28.124 80.2383 28.1778C80.2676 28.2315 80.3121 28.2754 80.3662 28.3039C80.4204 28.3325 80.4817 28.3443 80.5426 28.338C80.6035 28.3317 80.6611 28.3076 80.7083 28.2686C80.7555 28.2296 80.7901 28.1775 80.8077 28.1189C80.8254 28.0603 80.8253 27.9978 80.8075 27.9393C80.7897 27.8807 80.7549 27.8287 80.7076 27.7899C80.676 27.7639 80.6394 27.7444 80.6002 27.7325C80.5609 27.7207 80.5197 27.7168 80.4789 27.721C80.4381 27.7253 80.3985 27.7375 80.3625 27.7571C80.3265 27.7767 80.2947 27.8033 80.269 27.8352ZM76.0016 25.1483C75.9615 25.1946 75.9361 25.2517 75.9284 25.3124C75.9207 25.3731 75.9312 25.4347 75.9584 25.4895C75.9857 25.5443 76.0285 25.5898 76.0816 25.6202C76.1347 25.6507 76.1956 25.6648 76.2566 25.6608C76.3177 25.6567 76.3762 25.6347 76.4247 25.5974C76.4733 25.5602 76.5098 25.5094 76.5296 25.4515C76.5493 25.3936 76.5516 25.3312 76.5359 25.272C76.5203 25.2128 76.4875 25.1596 76.4417 25.1191C76.411 25.0919 76.3752 25.0711 76.3364 25.0578C76.2975 25.0445 76.2565 25.0391 76.2155 25.0418C76.1746 25.0446 76.1346 25.0554 76.0979 25.0737C76.0612 25.0919 76.0284 25.1173 76.0016 25.1483ZM84.4232 30.555C84.3861 30.6037 84.3643 30.6622 84.3604 30.7233C84.3565 30.7843 84.3707 30.8451 84.4013 30.8981C84.4319 30.9511 84.4775 30.9938 84.5323 31.0209C84.5871 31.0481 84.6487 31.0584 84.7094 31.0506C84.7701 31.0428 84.8271 31.0172 84.8733 30.9771C84.9194 30.937 84.9527 30.8841 84.9689 30.8251C84.9851 30.7661 84.9836 30.7037 84.9644 30.6456C84.9452 30.5875 84.9092 30.5364 84.8611 30.4987C84.8287 30.4734 84.7917 30.4548 84.7521 30.4439C84.7125 30.433 84.6711 30.4301 84.6304 30.4354C84.5896 30.4406 84.5503 30.4539 84.5148 30.4744C84.4792 30.495 84.4481 30.5224 84.4232 30.555Z" stroke="currentColor" stroke-width="1.5" stroke-linecap="round" stroke-linejoin="round" fill="none" />
<path d="M22.0359 67.7639L31.5 77" stroke="currentColor" stroke-width="1.5" stroke-linecap="round" stroke-linejoin="round" fill="none" />
<path d="M28.6479 61.624L38 71" stroke="currentColor" stroke-width="1.5" stroke-linecap="round" stroke-linejoin="round" fill="none" />
<path d="M46 78.7832L64.9997 97.7507L58.8572 103.893C52.2452 97.2026 40 85 40 85M32.1902 79.6803L40.1825 71.542L43.6937 75C44.5826 75.9115 44.5889 77.3636 43.7078 78.2828L38.9082 83.2048C37.9719 84.1816 36.4079 84.1735 35.4818 83.1869L32.1902 79.6803Z" stroke="currentColor" stroke-width="1.5" stroke-linecap="round" stroke-linejoin="round" fill="none" />
</g>
<defs>
<clipPath id="clip0_1371_9">
<rect width="110" height="110" fill="none" stroke="currentColor" stroke-width="1.5" />
</clipPath>
</defs>
</svg>