<?xml version='1.0' encoding='utf-8'?>
<svg xmlns="http://www.w3.org/2000/svg" id="Layer_1" data-name="Layer 1" width="110" height="110" viewBox="0 0 110 110">
  <ellipse cx="80.3347" cy="91.131" rx="4.4307" ry="4.4984" style="fill:none;stroke:currentColor;stroke-miterlimit:10;stroke-width:1.5" />
  <ellipse cx="37.7996" cy="91.131" rx="4.4307" ry="4.4984" style="fill:none;stroke:currentColor;stroke-miterlimit:10;stroke-width:1.5" />
  <polyline points="84.7654 92.0307 93.6269 92.0307 93.6269 74.037 90.0823 61.4414 75.904 61.4414 75.904 83.0338" style="fill:none;stroke:currentColor;stroke-miterlimit:10;stroke-width:1.5" />
  <line x1="75.904" y1="92.0307" x2="42.2303" y2="92.0307" style="fill:none;stroke:currentColor;stroke-miterlimit:10;stroke-width:1.5" />
  <line x1="88.31" y1="74.037" x2="75.904" y2="74.037" style="fill:none;stroke:currentColor;stroke-miterlimit:10;stroke-width:1.5" />
  <line x1="91.8546" y1="83.0338" x2="88.31" y2="83.0338" style="fill:none;stroke:currentColor;stroke-miterlimit:10;stroke-width:1.5" />
  <polyline points="68.8148 92.0307 68.8148 56.0433 33.3688 56.0433" style="fill:none;stroke:currentColor;stroke-miterlimit:10;stroke-width:1.5" />
  <polygon points="12.1013 70.4383 12.1013 86.6326 17.4182 92.0307 24.5074 92.0307 33.3688 79.4351 33.3688 56.0433 22.7351 56.0433 12.1013 70.4383" style="fill:none;stroke:currentColor;stroke-miterlimit:10;stroke-width:1.5" />
  <line x1="17.4182" y1="79.4351" x2="68.8148" y2="79.4351" style="fill:none;stroke:currentColor;stroke-miterlimit:10;stroke-width:1.5" />
  <line x1="40.458" y1="63.2408" x2="40.458" y2="79.4351" style="fill:none;stroke:currentColor;stroke-miterlimit:10;stroke-width:1.5" />
  <line x1="26.2797" y1="68.6389" x2="26.2797" y2="79.4351" style="fill:none;stroke:currentColor;stroke-miterlimit:10;stroke-width:1.5" />
  <line x1="47.5472" y1="63.2408" x2="47.5472" y2="79.4351" style="fill:none;stroke:currentColor;stroke-miterlimit:10;stroke-width:1.5" />
  <line x1="54.6364" y1="63.2408" x2="54.6364" y2="79.4351" style="fill:none;stroke:currentColor;stroke-miterlimit:10;stroke-width:1.5" />
  <line x1="61.7256" y1="63.2408" x2="61.7256" y2="79.4351" style="fill:none;stroke:currentColor;stroke-miterlimit:10;stroke-width:1.5" />
  <line x1="51.0918" y1="84.8332" x2="51.0918" y2="92.0307" style="fill:none;stroke:currentColor;stroke-miterlimit:10;stroke-width:1.5" />
  <line x1="61.7256" y1="84.8332" x2="61.7256" y2="92.0307" style="fill:none;stroke:currentColor;stroke-miterlimit:10;stroke-width:1.5" />
  <line x1="10.329" y1="99.2282" x2="95.3992" y2="99.2282" style="fill:none;stroke:currentColor;stroke-miterlimit:10;stroke-width:1.5" />
  <line x1="10.329" y1="16.4572" x2="51.0918" y2="16.4572" style="fill:none;stroke:currentColor;stroke-miterlimit:10;stroke-width:1.5" />
  <line x1="10.329" y1="23.6546" x2="24.5074" y2="23.6546" style="fill:none;stroke:currentColor;stroke-miterlimit:10;stroke-width:1.5" />
  <line x1="28.052" y1="23.6546" x2="36.9134" y2="23.6546" style="fill:none;stroke:currentColor;stroke-miterlimit:10;stroke-width:1.5" />
  <polyline points="42.2303 50.6452 42.2303 30.8521 75.904 30.8521 75.904 50.6452" style="fill:none;stroke:currentColor;stroke-miterlimit:10;stroke-width:1.5" />
  <line x1="75.904" y1="45.2471" x2="95.3992" y2="45.2471" style="fill:none;stroke:currentColor;stroke-miterlimit:10;stroke-width:1.5" />
  <line x1="10.329" y1="38.0496" x2="42.2303" y2="38.0496" style="fill:none;stroke:currentColor;stroke-miterlimit:10;stroke-width:1.5" />
  <line x1="47.5472" y1="38.0496" x2="70.5871" y2="38.0496" style="fill:none;stroke:currentColor;stroke-miterlimit:10;stroke-width:1.5" />
  <line x1="47.5472" y1="45.2471" x2="70.5871" y2="45.2471" style="fill:none;stroke:currentColor;stroke-miterlimit:10;stroke-width:1.5" />
  <line x1="28.0523" y1="45.2471" x2="36.9134" y2="45.2471" style="fill:none;stroke:currentColor;stroke-miterlimit:10;stroke-width:1.5" />
  <line x1="13.8736" y1="45.2471" x2="22.7351" y2="45.2471" style="fill:none;stroke:currentColor;stroke-miterlimit:10;stroke-width:1.5" />
  <ellipse cx="89.1962" cy="20.9556" rx="4.4307" ry="4.4984" style="fill:none;stroke:currentColor;stroke-miterlimit:10;stroke-width:1.5" />
</svg>