<?xml version='1.0' encoding='utf-8'?>
<svg xmlns="http://www.w3.org/2000/svg" version="1.1" id="Layer_1" x="0px" y="0px" viewBox="0 0 110 110" style="enable-background:new 0 0 110 110;fill:none;stroke:currentColor;stroke-width:1.5" xml:space="preserve">
<path style="fill:none;stroke:currentColor;stroke-width:1.5;stroke-linecap:round;stroke-linejoin:round" d="M55,86  c6.254-6.301,28.591-8.472,28.591-8.472V25c0,0-22.337,2.17-28.591,8.472 M55,86c-6.254-6.301-28.591-8.472-28.591-8.472V25  c0,0,22.337,2.17,28.591,8.472 M55,86h37V33.472h-3.363 M55,86H18V33.472h3.363 M55,86v-7.5 M55,33.472V37.5 M68.559,47.937  c4.668,6.417,4.114,15.462-1.656,21.259c-6.382,6.405-16.734,6.405-23.117,0c-6.382-6.405-6.382-16.794,0-23.199  c5.771-5.791,14.79-6.347,21.184-1.662 M65.328,51.174c2.943,4.604,2.412,10.8-1.604,14.831c-4.628,4.645-12.135,4.645-16.769,0  c-4.628-4.644-4.628-12.179,0-16.829c4.011-4.025,10.185-4.563,14.778-1.61 M62.027,54.487c1.258,2.733,0.768,6.075-1.477,8.327  c-2.874,2.884-7.536,2.884-10.416,0c-2.874-2.884-2.874-7.563,0-10.453c2.245-2.253,5.58-2.745,8.298-1.482 M58.092,58.442  c-0.133,0.434-0.369,0.846-0.715,1.193c-1.125,1.129-2.943,1.129-4.062,0c-1.119-1.129-1.119-2.953,0-4.077  c0.346-0.347,0.75-0.585,1.189-0.718 M55.558,57.446L75.98,36.952 M68.475,44.484l4.707,1.548L78,41.196l-4.668-1.587L71.826,35  l-4.818,4.835L68.475,44.484z" />
</svg>