<?xml version='1.0' encoding='utf-8'?>
<svg xmlns="http://www.w3.org/2000/svg" width="110" height="110" viewBox="0 0 110 110" fill="none" stroke="currentColor" stroke-width="1.5">
<path d="M50.6273 74.7164L51.7002 75.5449C52.2418 75.8211 52.8344 75.995 53.4475 76.0461C53.5701 76.0564 53.703 76.0666 53.8358 76.0666H56.2882C56.5334 76.0666 56.7684 76.0461 57.0035 76.0052C57.5961 75.9132 58.1581 75.7086 58.6588 75.4119L59.323 74.88M58.761 58.5853C58.6588 59.0149 58.3421 59.1069 57.0954 59.9662C55.8795 60.8254 53.6417 60.8254 52.4359 59.9662C51.1893 59.0967 50.8725 59.0047 50.7703 58.5853M33.5832 45.5638C33.7978 45.3899 34.4722 44.9193 35.4532 44.8989C36.5363 44.8784 37.272 45.4206 37.4764 45.5842C38.1508 46.1673 39.2339 46.9038 40.7258 47.2413C41.8498 47.497 42.7797 47.4254 43.2804 47.3743C43.8628 47.3231 44.3022 47.2209 46.6422 46.5662C47.4392 46.3412 48.1034 46.157 48.5836 46.0138M37.6705 48.6734C38.161 47.4152 39.6631 47.1186 40.0616 47.0572M75.7744 45.5638C75.5598 45.3899 74.8854 44.9193 73.9045 44.8989C72.8213 44.8784 72.0856 45.4206 71.8812 45.5842C71.2068 46.1673 70.1237 46.9038 68.6318 47.2413C67.5078 47.497 66.578 47.4254 66.0773 47.3743C65.4948 47.3231 65.0555 47.2209 62.7155 46.5662C61.9184 46.3412 61.2543 46.157 60.774 46.0138M69.296 47.0572C69.6945 47.1186 71.1966 47.4152 71.6871 48.6734M29.4551 62.8098C27.861 56.8156 26.7472 49.6758 26.8698 42.6076M26.8698 42.6076C27.5851 40.5516 28.7091 37.7181 30.4565 34.5267C32.3162 31.1511 35.6882 25.1569 42.3709 20.114C44.1796 18.7536 46.8363 16.9942 50.3923 15.4598M26.8698 42.6076C26.8698 42.6076 21.5359 35.2836 21.1374 31.2636M80.1989 62.6155C81.7316 56.8156 82.6206 49.2053 82.4163 42.5155M82.4163 42.5155C82.0382 41.6256 81.4762 40.3265 80.7405 38.7922C74.6504 25.9752 64.9737 15.7872 51.4345 11M82.4163 42.5155C82.4163 42.5155 87.8422 35.2836 88.2407 31.2636M48.5019 38.2603C48.5019 38.2603 47.0202 36.2861 43.5562 35.6212C40.0923 34.9665 35.8108 35.6212 35.8108 35.6212M59.0369 38.2296C59.0369 38.2296 60.5186 36.2554 63.9825 35.5905C67.4465 34.9256 71.728 35.5905 71.728 35.5905M48.5019 95.8392C50.6068 92.7194 50.5558 90.4077 50.3718 89.2313C49.9427 86.5513 48.0114 84.751 44.2102 81.1913C44.2102 81.1913 39.9492 77.2123 38.4063 75.4529C38.3858 75.4222 38.1099 75.1153 37.7318 74.6857C37.272 74.164 36.7407 73.5605 36.1582 72.8956C32.5614 68.8245 31.7542 68.4869 30.8958 67.8016C29.2814 66.4923 26.9312 66.6355 25.4291 68.0675L31.5702 77.2532C32.3775 79.0637 33.1847 80.864 33.9817 82.6745M36.9859 99L34.6357 95.2869C32.5205 93.3024 21.3724 79.1046 18.4909 74.5834C17.4077 73.315 16.7436 71.75 16.5801 70.0929C16.2837 66.9833 15.8546 61.9301 16.0487 59.9355L18.7974 44.8273C18.8281 44.4693 19.2062 44.5306 19.6353 44.725C20.555 45.1444 21.2498 45.9115 21.6585 46.8424C22.241 48.1722 21.4848 50.5657 21.2907 52.4172V59.8127L21.9446 61.8176L23.2832 64.8965M60.4981 95.8392C58.3932 92.7194 58.4442 90.4077 58.6282 89.2313C59.0573 86.5513 60.9886 84.751 64.7898 81.1913C64.7898 81.1913 69.0508 77.2123 70.5937 75.4529C70.6142 75.4222 70.8901 75.1153 71.2681 74.6857C71.728 74.164 72.2593 73.5605 72.8418 72.8956C76.4386 68.8245 77.2458 68.4869 78.1042 67.8016C79.7186 66.4923 82.0688 66.6355 83.5709 68.0675L77.4298 77.2532C76.6225 79.0637 75.8153 80.864 75.0182 82.6745M72.0141 99L74.3643 95.2869C76.4795 93.3024 87.6276 79.1046 90.5091 74.5834C91.5923 73.315 92.2564 71.75 92.4199 70.0929C92.7163 66.9833 93.1454 61.9301 92.9513 59.9355L90.2026 44.8273C90.1719 44.4693 89.7938 44.5306 89.3647 44.725C88.445 45.1444 87.7502 45.9115 87.3415 46.8424C86.759 48.1722 87.5152 50.5657 87.7093 52.4172V59.8127L87.0554 61.8176L85.7168 64.8965M50.0365 87.9686C50.7314 88.3573 52.7833 89.3336 54.9905 89.2313C56.7582 89.1495 58.2788 88.3471 58.9635 87.9686M61.5302 69.8474C60.1507 70.4816 57.8516 71.7807 55.0109 71.8011C52.1191 71.8113 49.8813 70.4918 48.4917 69.8576C48.8697 69.3564 49.2478 68.8449 49.6259 68.3437C50.1061 67.7095 50.7192 67.2594 51.4039 67.0549C51.5571 67.0037 51.7717 66.9526 52.1191 66.9219C53.5497 66.8094 53.8767 67.372 55.0313 67.3924C56.2064 67.4129 56.513 66.8401 57.9435 66.9833C58.291 67.014 58.5566 67.0856 58.8325 67.1878C59.4048 67.4129 59.9361 67.8118 60.3551 68.3539C60.7433 68.8552 61.1419 69.3462 61.5302 69.8474Z" stroke="currentColor" stroke-width="1.5" stroke-linecap="round" stroke-linejoin="round" fill="none" />
</svg>