<?xml version='1.0' encoding='utf-8'?>
<svg xmlns="http://www.w3.org/2000/svg" width="110" height="110" viewBox="0 0 110 110" fill="none" stroke="currentColor" stroke-width="1.5">
<path d="M58.5452 93.8394H24.5028C19.1347 93.8394 14.778 89.4566 14.778 84.0563V22.9088C14.778 17.5085 19.1347 13.1257 24.5028 13.1257H58.5452M28.8595 93.8394V99.2174M71.6487 93.8394V99.2174M34.2054 23.8927H66.3029M34.2054 29.2707H66.3029M34.2054 34.6486H66.3029M34.2054 40.0265H66.3029M34.2054 45.4157H66.3029M34.2054 50.7936H66.3029M34.2054 56.1715H66.3029M34.2054 61.5495H66.3029M34.2054 66.9386H66.3029M34.2054 72.3165H66.3029M34.2054 77.6944H66.3029M34.2054 83.0724H66.3029M37.4062 13.1257H63.1131C70.7858 13.1257 77.0057 19.3829 77.0057 27.1016V79.8635C77.0057 87.5822 70.7858 93.8394 63.1131 93.8394H37.4062C29.7336 93.8394 23.5136 87.5822 23.5136 79.8635V27.1016C23.5136 19.3829 29.7336 13.1257 37.4062 13.1257ZM87.6975 21.1982C87.6975 22.6863 86.4983 23.8927 85.019 23.8927C83.5397 23.8927 82.3405 22.6863 82.3405 21.1982C82.3405 19.71 83.5397 18.5036 85.019 18.5036C86.4983 18.5036 87.6975 19.71 87.6975 21.1982ZM93.0434 37.3432C93.0434 38.8313 91.8442 40.0377 90.3649 40.0377C88.8856 40.0377 87.6864 38.8313 87.6864 37.3432C87.6864 35.855 88.8856 34.6486 90.3649 34.6486C91.8442 34.6486 93.0434 35.855 93.0434 37.3432ZM96.222 12.4772C96.222 13.9654 95.0228 15.1718 93.5435 15.1718C92.0642 15.1718 90.865 13.9654 90.865 12.4772C90.865 10.989 92.0642 9.78265 93.5435 9.78265C95.0228 9.78265 96.222 10.989 96.222 12.4772ZM82.3516 42.7211C82.3516 44.2093 81.1524 45.4157 79.6731 45.4157C78.1938 45.4157 76.9946 44.2093 76.9946 42.7211C76.9946 41.2329 78.1938 40.0265 79.6731 40.0265C81.1524 40.0265 82.3516 41.2329 82.3516 42.7211ZM71.6487 53.4881C71.6487 54.9763 70.4495 56.1827 68.9702 56.1827C67.4909 56.1827 66.2917 54.9763 66.2917 53.4881C66.2917 52 67.4909 50.7936 68.9702 50.7936C70.4495 50.7936 71.6487 52 71.6487 53.4881ZM71.6487 37.3432C71.6487 38.8313 70.4495 40.0377 68.9702 40.0377C67.4909 40.0377 66.2917 38.8313 66.2917 37.3432C66.2917 35.855 67.4909 34.6486 68.9702 34.6486C70.4495 34.6486 71.6487 35.855 71.6487 37.3432Z" stroke="currentColor" stroke-width="1.5" stroke-miterlimit="10" stroke-linecap="round" fill="none" />
</svg>