<?xml version='1.0' encoding='utf-8'?>
<svg xmlns="http://www.w3.org/2000/svg" id="Layer_1" data-name="Layer 1" width="110" height="110" viewBox="0 0 110 110">
  <g>
    <path d="M84.6614,57.5111l-9.521-.5384-.2836-3.1112c-.2613-2.8663-2.6648-5.0606-5.5429-5.0606h-9.775c-2.8778,0-5.281,2.1937-5.5428,5.0595l-.2843,3.1123-9.5182.5384c-4.7304.2676-8.6419,3.7817-9.4127,8.4565l-1.3054,7.9167c-.1489.9031.3265,1.7938,1.1596,2.1727l.5553.2526c1.7317.7877,2.9351,2.4124,3.1837,4.2986l1.8599,14.1091c.1284.9742.959,1.7025,1.9416,1.7025h44.5038c.9826,0,1.813-.7281,1.9416-1.7022l1.8621-14.1105c.2488-1.8855,1.4517-3.5097,3.1828-4.2974l.5547-.2524c.833-.3791,1.3082-1.2697,1.1593-2.1726l-1.3057-7.9172c-.7709-4.6748-4.6824-8.1887-9.4127-8.4562ZM70.6502,53.5004l-.2389,3.4724h-11.968l-.2401-3.472c-.0379-.5488.397-1.0149.9471-1.0149h10.5527c.55,0,.9849.4658.9471,1.0145ZM78.5298,84.0264c0,3.7523-3.0419,6.7942-6.7942,6.7942h-14.6171c-3.7518,0-6.7932-3.0414-6.7932-6.7932v-14.6171c0-3.7524,3.0419-6.7942,6.7942-6.7942h14.6165c3.7521,0,6.7937,3.0416,6.7937,6.7937v14.6165Z" style="fill:none;stroke:currentColor;stroke-miterlimit:10;stroke-width:1.5" />
    <path d="M68.5201,65.7334h-8.185v5.5784c0,.7244-.5872,1.3115-1.3115,1.3115h-5.5799v8.188h5.5799c.7243,0,1.3115.5872,1.3115,1.3115v5.5804h8.185v-5.5804c0-.7243.5872-1.3115,1.3115-1.3115h5.5799v-8.188h-5.5799c-.7244,0-1.3115-.5872-1.3115-1.3115v-5.5784Z" style="fill:none;stroke:currentColor;stroke-miterlimit:10;stroke-width:1.5" />
  </g>
  <path d="M54.6157,51.8166c.2835-.3957.5892-.7749.8903-1.1573-.2008.2596-.4015.5194-.6023.779.0323-.0446.0643-.0893.0962-.1338.3053-.5164.7102-.9332,1.2039-1.2614.0658-.059.1237-.1252.1929-.181.7095-.572,1.2821-1.0114,2.1859-1.2567.0244-.0068.0459-.0079.0699-.0141-.8809-.3374-1.8088-.5623-2.7905-.6583-.2662-.0212-.5376-.0367-.8125-.0449-.0526-.0009-.1053-.0009-.1598,0-.0444-.0053-.0876-.0103-.1301-.0145-2.6127-.0979-4.8587-1.0074-6.7383-2.7285l-10.483-10.4832c-1.7223-1.8752-2.6315-4.1153-2.7296-6.7238-.0041-.0425-.0083-.0859-.0143-.1301.0008-.0579.0008-.1166,0-.1735-.0782-2.8918-1.1479-5.3701-3.209-7.4349-2.1483-2.144-4.7426-3.215-7.7831-3.2091-.132-.0068-.3444.0128-.6388.0587-.291.0536-.5376.1788-.7403.3779l-.4211.4202,6.0262,6.0262-2.0479,6.2438-6.2435,2.0468-6.0111-6.0115-.4207.4066c-.1985.2017-.3245.4493-.3775.741-.056.2934-.0846.5063-.0876.638.0045,3.0407,1.0847,5.6355,3.2379,7.7837,2.0652,2.0649,4.5433,3.1394,7.4346,3.2221.0568.0024.1154.0024.1745,0,.0391.0008.0775.0008.1154,0,2.6127.1019,4.8587,1.0174,6.7371,2.7454l10.4834,10.4679c1.2622,1.3776,2.0859,2.9537,2.4743,4.7268l.2113.1451" style="fill:none;fill-rule:evenodd;stroke:currentColor;stroke-linecap:round;stroke-linejoin:round;stroke-width:1.5" />
  <polyline points="44.9053 38.4237 54.991 27.7076 53.7131 26.428 56.2255 21.4493 61.1914 18.9506 63.7472 21.4919 61.2348 26.4731 56.2689 28.9846 54.991 27.7076" style="fill:none;fill-rule:evenodd;stroke:currentColor;stroke-linecap:round;stroke-linejoin:round;stroke-width:1.5" />
  <path d="M35.1425,55.3951l-12.4144,12.4579c-.6347.604-1.3463,1.0201-2.1342,1.2489-.4841.143-.9975.2153-1.539.2187-.6789-.0034-1.3131-.114-1.9019-.3344-.6453-.2425-1.2366-.6211-1.7717-1.1332l-.5513-.5369c-.6631-.6959-1.0987-1.4846-1.3068-2.3668-.1038-.4143-.1574-.8498-.16-1.3068.0068-.547.0838-1.0651.2323-1.5535.2242-.7784.6355-1.4812,1.2345-2.1048l12.4574-12.4442" style="fill:none;fill-rule:evenodd;stroke:currentColor;stroke-linecap:round;stroke-linejoin:round;stroke-width:1.5" />
</svg>