<?xml version='1.0' encoding='utf-8'?>
<svg xmlns="http://www.w3.org/2000/svg" width="110" height="110" viewBox="0 0 110 110" fill="none" stroke="currentColor" stroke-width="1.5">
<path d="M40.4619 26.7461V30.6416C40.4848 31.3447 40.3933 32.6355 40.3933 35.2056C40.3933 40.6916 43.23 50.9951 52.3349 53.8648C53.902 54.3489 55.572 54.4641 57.1619 54.0953C62.4693 52.8621 69.6526 44.4949 69.6755 35.5974C69.6755 34.4334 69.6183 32.6816 69.6984 30.4803V27.7488L69.7098 26.7461M40.4619 26.7461H69.7098M40.4619 26.7461C39.6269 25.7204 39.238 24.3835 39.3867 23.0696L40.2331 15.705C40.5534 12.9044 42.9097 10.7953 45.7007 10.7953M69.7098 26.7461C70.5448 25.7204 70.9337 24.395 70.785 23.0811L69.9386 15.7165C69.6183 12.9159 67.262 10.8068 64.471 10.8068H45.7007M65.7549 56.9438C65.4918 56.2869 64.9514 55.1441 64.9514 54.4296L65.0599 48.1733M44.575 48.1733L44.9228 54.4296C44.9228 55.1787 44.6544 56.2638 44.3799 56.9438M38.6546 77.6297C38.6546 77.6297 38.7118 69.2855 38.7004 67.672C38.7004 66.9459 38.3915 66.1506 37.8082 65.7012C37.3506 65.3439 36.6758 65.2632 36.1611 65.5283C35.6006 65.8279 35.3261 66.6079 35.3375 67.2188V67.476M38.7004 67.8794C39.4896 67.6489 40.5191 67.6374 41.0681 68.352C41.4685 68.8706 41.5142 69.5736 41.4685 70.2306C41.4685 70.2306 41.3541 76.1314 41.3198 77.6297M41.4546 70.9452C41.8892 70.6686 42.6237 70.6224 43.0584 70.8644C43.7904 71.2563 44.1336 72.1322 44.1336 72.8122V82.0438C44.1679 83.4038 44.1565 89.1203 44.1336 90.4687L43.9048 99.1472L31.8488 99.1126C31.7458 94.4219 30.6363 89.8003 28.5888 85.5821L26.1525 80.5571C26.0038 79.831 26.4041 79.0704 27.1476 78.8283C27.8339 78.5978 28.5774 78.9551 29.0235 79.808L30.0186 81.7327C30.2817 82.2398 30.888 82.5164 31.4141 82.3089C31.8373 82.1476 32.1004 81.7673 32.1233 81.3408L32.3635 68.6055C32.375 67.9486 32.6838 67.3032 33.2557 66.9574C33.6789 66.7039 34.1822 66.6232 34.6397 66.8191C34.8914 66.9344 35.2574 67.1533 35.3375 67.476M35.3375 67.476L35.143 77.6412M71.3569 77.6297C71.3569 77.6297 71.2997 69.2855 71.3112 67.672C71.3112 66.9459 71.62 66.1506 72.2034 65.7012C72.6609 65.3439 73.3358 65.2632 73.8505 65.5283C74.411 65.8279 74.6626 66.6117 74.6512 67.2225L74.6626 67.476M71.3102 67.8867C70.5209 67.6562 69.481 67.6374 68.932 68.352C68.5317 68.8706 68.4859 69.5736 68.5317 70.2306C68.5317 70.2306 68.646 76.1314 68.6804 77.6297M68.5456 70.9454C68.1109 70.6688 67.3764 70.6224 66.9417 70.8644C66.2097 71.2563 65.8665 72.1322 65.8665 72.8122V82.0439C65.8322 83.4038 65.8436 89.1203 65.8665 90.4688L66.0953 99.1818L78.1513 99.1126C78.2543 94.4219 79.3638 89.8003 81.4113 85.5821L83.8476 80.5571C83.9963 79.831 83.596 79.0704 82.8525 78.8283C82.1662 78.5978 81.4227 78.9551 80.9766 79.808L79.9815 81.7327C79.7184 82.2398 79.1122 82.5164 78.586 82.3089C78.1628 82.1476 77.8997 81.7673 77.8768 81.3408L77.6366 68.6055C77.6252 67.9486 77.3163 67.3032 76.7444 66.9574C76.3212 66.7039 75.8179 66.6232 75.3604 66.8191C75.1087 66.9344 74.7427 67.1533 74.6626 67.476M74.6626 67.476L74.8571 77.6412M43.3675 46.2942C45.9182 42.341 44.9457 37.1418 44.9457 37.1418M44.9457 37.1418L50.4933 35.1134C51.9231 34.5948 53.4216 34.3297 54.9429 34.3297C56.3498 34.3297 57.7453 34.5602 59.0836 35.0097L65.4319 37.1418M44.9457 37.1418L40.4216 32.7931M65.4319 37.1418C65.4319 37.1418 64.2525 41.1885 66.3686 46.2942M65.4319 37.1418L69.6577 32.3907M26.9875 99.1587H22.4236C18.7633 99.1587 15.7893 96.1622 15.7893 92.4741V70.8299C15.7893 67.2801 18.2943 64.2375 21.7601 63.5805L40.5648 60.0193C40.7021 59.9847 40.8393 59.9501 40.9766 59.904C41.7887 59.6505 42.3149 58.8667 42.3149 58.0139V57.4837C42.3149 57.0227 42.7381 56.6654 43.1842 56.7461C46.5585 57.3339 50.5963 57.7834 55.1716 57.7834C59.644 57.7834 63.6132 57.3339 66.9303 56.7461C67.3878 56.6654 67.7996 57.0112 67.7996 57.4837V58.1522C67.7996 59.0396 68.5431 59.8579 69.4124 60.0538L88.2171 63.6151C91.6829 64.272 94.1879 67.3147 94.1879 70.8644V92.5087C94.1879 96.1967 91.214 99.1933 87.5537 99.1933H82.761" stroke="currentColor" stroke-width="1.5" stroke-linecap="round" stroke-linejoin="round" fill="none" />
</svg>