<?xml version='1.0' encoding='utf-8'?>
<svg xmlns="http://www.w3.org/2000/svg" width="111" height="110" viewBox="0 0 111 110" fill="none" stroke="currentColor" stroke-width="1.5">
<path d="M59.2182 97.9031L20.7594 98C17.5786 98 15 95.4214 15 92.2407V46.4115C15 43.2308 17.5786 40.6522 20.7594 40.6522H22.2518M22.2518 40.6522C23.927 40.6522 25.2849 39.2943 25.2849 37.619V32.7007H56.6156V37.619C56.6156 39.2943 57.9736 40.6522 59.6489 40.6522M22.2518 40.6522L42.1245 40.6521M59.6489 40.6522H61.1339C64.3146 40.6522 66.8931 43.2308 66.8931 46.4115V54.0622M59.6489 40.6522L50.8564 40.6521M15 54.0622H66.8957M15 85.5526H40.9479M27.7369 32.7006V26.6553M34.3344 32.7006V26.6553M40.9317 32.7006V26.6553M40.9317 32.7006H62.4493V16.5077C62.4493 14.5755 60.8812 13 58.9491 13H22.9516C21.012 13 19.444 14.5755 19.444 16.5077V32.7006H40.9317ZM47.5292 32.7006V26.6553M54.1267 32.7006V26.6553M57.3829 97.9891L72.9737 97.7908M72.9737 97.7908L72.7237 87.1735M72.9737 97.7908L88.5606 97.5925C93.3795 97.5311 97.239 93.7919 97.1812 89.2406L97.1407 86.0623C97.0829 81.511 93.1294 77.8711 88.3105 77.9324L79.3576 78.0218M86.1816 81.4706C86.1816 81.4706 93.2656 80.1341 93.3013 87.4702M73.4042 82.0796L82.8809 69.698C85.81 65.871 85.2544 60.526 81.6399 57.7595L79.1157 55.8275C75.5013 53.0611 70.1966 53.9208 67.2675 57.7478L57.7908 70.1294M73.4042 82.0796L57.7908 70.1294M73.4042 82.0796L63.9297 94.4582C61.0006 98.2852 55.696 99.1448 52.0815 96.3785L49.5573 94.4465C45.9428 91.68 45.3872 86.3349 48.3163 82.508L57.7908 70.1294M69.1475 61.8593C69.1475 61.8593 72.0761 55.272 78.1311 59.4139M56.5427 82.8738C55.8909 83.7255 54.6719 83.8874 53.8203 83.2356C52.9686 82.5837 52.8067 81.3649 53.4586 80.5133C54.1104 79.6615 55.3292 79.4997 56.1809 80.1515C57.0326 80.8033 57.1945 82.0221 56.5427 82.8738ZM62.6539 80.6497C62.2053 81.2357 61.3665 81.3472 60.7805 80.8986C60.1944 80.45 60.0829 79.6113 60.5315 79.0251C60.98 78.4391 61.8189 78.3276 62.405 78.7762C62.991 79.2248 63.1025 80.0636 62.6539 80.6497ZM65.5771 88.5087C65.1285 89.0948 64.2898 89.2062 63.7037 88.7576C63.1176 88.309 63.0061 87.4703 63.4548 86.8842C63.9034 86.2981 64.7421 86.1867 65.3282 86.6353C65.9143 87.0839 66.0257 87.9226 65.5771 88.5087ZM58.8349 92.9202C57.7464 94.3423 55.7113 94.6127 54.2893 93.5243C52.8672 92.4359 52.5967 90.4007 53.6852 88.9786C54.7736 87.5566 56.8089 87.2861 58.2308 88.3746C59.6529 89.463 59.9233 91.4982 58.8349 92.9202Z" stroke="currentColor" stroke-width="1.5" stroke-linecap="round" stroke-linejoin="round" fill="none" />
</svg>