<?xml version='1.0' encoding='utf-8'?>
<svg xmlns="http://www.w3.org/2000/svg" width="110" height="110" viewBox="0 0 110 110" fill="none" stroke="currentColor" stroke-width="1.5">
<path d="M54.5187 50.0501V34.1075M61.219 44.2982L54.7407 51.7836L47.8305 44.0093M49.7678 16.9961L44.2449 22.5379M52.9607 19.9115L44.1004 28.802M64.3339 15.1707L47.9615 31.7831M66.7813 19.0448L53.8247 32.3215M67.0303 25.2957L60.0808 32.3215M80 55.7627C80 55.6051 79.9738 55.4606 79.9607 55.3162C79.3587 48.7238 74.163 43.4183 67.7239 42.5516C67.3575 42.499 67.0303 42.8011 67.0303 43.1688V54.0292C67.0303 57.181 64.4782 59.7417 61.3372 59.7417H49.2182C46.0772 59.7417 43.5252 57.181 43.5252 54.0292C43.5252 54.0292 43.6299 46.7145 43.5514 43.4183C43.5252 42.5253 42.7399 41.8556 41.8631 41.9737C35.3586 42.9193 29.6786 48.7106 29.0635 55.303C29.0504 55.4475 29.0374 55.6051 29.0243 55.7495C28.841 58.9407 29.7048 61.9349 31.3015 64.3906C35.4764 70.7992 36.8768 78.6391 35.9083 86.2296L35.424 89.9592C34.9922 93.3342 39.0754 95.3566 41.4705 92.9402L48.9303 80.2675C51.43 76.0258 57.5419 76.0258 60.0416 80.2675L67.5015 92.9402C69.9095 95.3566 73.9797 93.3342 73.5479 89.9592L73.0636 86.2296C72.0952 78.6391 73.4955 70.7992 77.6704 64.3906C79.2671 61.9349 80.144 58.9538 79.9476 55.7495L80 55.7627ZM67.0301 15.0525C66.6506 15.0263 66.2579 15 65.8784 15C61.2324 15 57.1098 17.2325 54.5185 20.6863C52.0057 17.3244 48.0271 15.1313 43.5381 15.0263V28.2505C43.5381 30.5092 45.3573 32.3346 47.6083 32.3346H62.9599C65.211 32.3346 67.0301 30.5092 67.0301 28.2505V15.0525Z" stroke="currentColor" stroke-width="1.5" stroke-linecap="round" stroke-linejoin="round" fill="none" />
</svg>