<?xml version='1.0' encoding='utf-8'?>
<svg xmlns="http://www.w3.org/2000/svg" width="110" height="110" viewBox="0 0 110 110" fill="none" stroke="currentColor" stroke-width="1.5">
<path d="M36.7717 34.8716L38.25 69.6923L38.8966 83.2683M82.7826 34.2186L79.4212 83.2683M34.1607 30.3935V36.5457M85 29.0654V36.1977M79.4077 83.8793C79.4077 89.4688 70.339 94 59.1523 94C47.9655 94 38.8968 89.4688 38.8968 83.8793C38.8968 78.2898 47.9655 73.7586 59.1523 73.7586C70.339 73.7586 79.4077 78.2898 79.4077 83.8793ZM84.9731 35.0023C84.9731 42.5504 73.5624 48.6692 59.4865 48.6692C45.4107 48.6692 34 42.5504 34 35.0023C34 27.4543 45.4107 21.3354 59.4865 21.3354C73.5624 21.3354 84.9731 27.4543 84.9731 35.0023ZM84.9731 28.6669C84.9731 36.215 73.5624 42.3339 59.4865 42.3339C45.4107 42.3339 34 36.215 34 28.6669C34 21.1189 45.4107 15 59.4865 15C73.5624 15 84.9731 21.1189 84.9731 28.6669Z" stroke="currentColor" stroke-width="1.5" stroke-linecap="round" stroke-linejoin="round" fill="none" />
<path d="M26.5256 91.2446C26.5649 91.657 26.931 91.9594 27.3433 91.9201C27.7557 91.8808 28.0581 91.5147 28.0188 91.1024L26.5256 91.2446ZM24 56.8233L23.25 56.8267L23.2502 56.8606L23.2534 56.8944L24 56.8233ZM24.8376 56L24.8344 56.75L24.8356 56.75L24.8376 56ZM44.1449 56.0516L44.1482 55.3016L44.1469 55.3016L44.1449 56.0516ZM44.99 56.8822L45.7344 56.9733L45.7402 56.9262L45.74 56.8788L44.99 56.8822ZM40.0387 91.1411C39.9883 91.5523 40.2808 91.9264 40.692 91.9767C41.1031 92.0271 41.4772 91.7346 41.5276 91.3235L40.0387 91.1411ZM27.9449 91.7455C27.9449 91.3313 27.6091 90.9955 27.1949 90.9955C26.7807 90.9955 26.4449 91.3313 26.4449 91.7455H27.9449ZM27.2722 91.1735L28.0188 91.1024L24.7466 56.7522L24 56.8233L23.2534 56.8944L26.5256 91.2446L27.2722 91.1735ZM24 56.8233L24.75 56.8199C24.7499 56.8003 24.7564 56.7859 24.7688 56.7738C24.7815 56.7613 24.8022 56.7499 24.8344 56.75L24.8376 56L24.8409 55.25C23.9699 55.2462 23.246 55.9389 23.25 56.8267L24 56.8233ZM24.8376 56L24.8356 56.75L44.1429 56.8015L44.1449 56.0516L44.1469 55.3016L24.8396 55.25L24.8376 56ZM44.1449 56.0516L44.1416 56.8015C44.2087 56.8018 44.2398 56.8505 44.24 56.8856L44.99 56.8822L45.74 56.8788C45.736 55.9965 45.0143 55.3053 44.1482 55.3016L44.1449 56.0516ZM44.99 56.8822L44.2455 56.791L40.0387 91.1411L40.7831 91.2323L41.5276 91.3235L45.7344 56.9733L44.99 56.8822ZM24.0103 59.0487L24.0081 59.7987L44.9979 59.8581L45 59.1081L45.0021 58.3581L24.0124 58.2987L24.0103 59.0487ZM40.8805 91.1341H40.1305C40.1305 91.0802 40.1641 91.1665 39.8969 91.364C39.6442 91.5508 39.2308 91.7507 38.6524 91.9315C37.5047 92.2905 35.873 92.5241 34.0377 92.5241V93.2741V94.0241C35.9816 94.0241 37.7713 93.7787 39.1002 93.3631C39.7601 93.1568 40.3487 92.8954 40.7887 92.5702C41.214 92.2557 41.6305 91.779 41.6305 91.1341H40.8805ZM34.0377 93.2741V92.5241C32.2024 92.5241 30.5707 92.2905 29.423 91.9315C28.8446 91.7507 28.4311 91.5508 28.1785 91.364C27.9113 91.1665 27.9449 91.0802 27.9449 91.1341H27.1949H26.4449C26.4449 91.779 26.8614 92.2557 27.2867 92.5702C27.7266 92.8954 28.3153 93.1568 28.9752 93.3631C30.3041 93.7787 32.0938 94.0241 34.0377 94.0241V93.2741ZM27.1949 91.1341H27.9449C27.9449 91.188 27.9113 91.1017 28.1785 90.9041C28.4311 90.7174 28.8446 90.5175 29.423 90.3367C30.5707 89.9777 32.2024 89.7441 34.0377 89.7441V88.9941V88.2441C32.0938 88.2441 30.3041 88.4895 28.9752 88.905C28.3153 89.1114 27.7266 89.3728 27.2867 89.698C26.8614 90.0125 26.4449 90.4892 26.4449 91.1341H27.1949ZM34.0377 88.9941V89.7441C35.873 89.7441 37.5047 89.9777 38.6524 90.3367C39.2308 90.5175 39.6442 90.7174 39.8969 90.9041C40.1641 91.1017 40.1305 91.188 40.1305 91.1341H40.8805H41.6305C41.6305 90.4892 41.214 90.0125 40.7887 89.698C40.3487 89.3728 39.7601 89.1114 39.1002 88.905C37.7713 88.4895 35.9816 88.2441 34.0377 88.2441V88.9941ZM40.8805 97.86H40.1305C40.1305 97.806 40.1641 97.8923 39.8969 98.0899C39.6442 98.2767 39.2308 98.4765 38.6524 98.6574C37.5047 99.0163 35.873 99.25 34.0377 99.25V100V100.75C35.9816 100.75 37.7713 100.505 39.1002 100.089C39.7601 99.8826 40.3487 99.6213 40.7887 99.296C41.214 98.9815 41.6305 98.5049 41.6305 97.86H40.8805ZM34.0377 100V99.25C32.2024 99.25 30.5707 99.0163 29.423 98.6574C28.8446 98.4765 28.4311 98.2767 28.1785 98.0899C27.9113 97.8923 27.9449 97.806 27.9449 97.86H27.1949H26.4449C26.4449 98.5049 26.8614 98.9815 27.2867 99.296C27.7266 99.6213 28.3153 99.8826 28.9752 100.089C30.3041 100.505 32.0938 100.75 34.0377 100.75V100ZM27.1949 97.86H27.9449C27.9449 97.9139 27.9113 97.8276 28.1785 97.63C28.4311 97.4432 28.8446 97.2434 29.423 97.0625C30.5707 96.7036 32.2024 96.4699 34.0377 96.4699V95.7199V94.9699C32.0938 94.9699 30.3041 95.2153 28.9752 95.6309C28.3153 95.8373 27.7266 96.0986 27.2867 96.4239C26.8614 96.7384 26.4449 97.2151 26.4449 97.86H27.1949ZM34.0377 95.7199V96.4699C35.873 96.4699 37.5047 96.7036 38.6524 97.0625C39.2308 97.2434 39.6442 97.4432 39.8969 97.63C40.1641 97.8276 40.1305 97.9139 40.1305 97.86H40.8805H41.6305C41.6305 97.2151 41.214 96.7384 40.7887 96.4239C40.3487 96.0986 39.7601 95.8373 39.1002 95.6309C37.7713 95.2153 35.9816 94.9699 34.0377 94.9699V95.7199ZM27.1949 97.86H27.9449L27.9449 91.7455H27.1949H26.4449L26.4449 97.86H27.1949ZM40.8805 97.86H41.6305V91.1341H40.8805H40.1305V97.86H40.8805Z" fill="none" stroke="currentColor" stroke-width="1.5" />
</svg>