<?xml version='1.0' encoding='utf-8'?>
<svg xmlns="http://www.w3.org/2000/svg" id="Layer_1" data-name="Layer 1" width="110" height="110" viewBox="0 0 110 110">
  <rect x="25.774" y="20.8286" width="53.686" height="8.9477" rx="2.6556" ry="2.6556" style="fill:none;stroke:currentColor;stroke-linecap:round;stroke-miterlimit:10;stroke-width:1.5" />
  <path d="M34.7217,20.8286v-4.4738c0-.8236.6677-1.4913,1.4913-1.4913h32.8081c.8236,0,1.4913.6677,1.4913,1.4913v4.4738" style="fill:none;stroke:currentColor;stroke-linecap:round;stroke-miterlimit:10;stroke-width:1.5" />
  <line x1="31.7392" y1="32.7588" x2="22.7915" y2="32.7588" style="fill:none;stroke:currentColor;stroke-linecap:round;stroke-miterlimit:10;stroke-width:1.5" />
  <g>
    <rect x="12.2239" y="23.6585" width="87.3816" height="59.0852" rx="6.5521" ry="6.5521" style="fill:none;stroke:currentColor;stroke-linecap:round;stroke-linejoin:round;stroke-width:1.5" />
    <g>
      <g>
        <g>
          <line x1="51.7463" y1="82.7437" x2="51.7463" y2="96.1999" style="fill:none;stroke:currentColor;stroke-linecap:round;stroke-linejoin:round;stroke-width:1.5" />
          <line x1="61.0252" y1="82.7437" x2="61.0252" y2="96.1999" style="fill:none;stroke:currentColor;stroke-linecap:round;stroke-linejoin:round;stroke-width:1.5" />
        </g>
        <line x1="78.9444" y1="96.1999" x2="33.827" y2="96.1999" style="fill:none;stroke:currentColor;stroke-linecap:round;stroke-linejoin:round;stroke-width:1.5" />
      </g>
      <line x1="12.6949" y1="75.0636" x2="99.1345" y2="75.0636" style="fill:none;stroke:currentColor;stroke-linecap:round;stroke-linejoin:round;stroke-width:1.5" />
    </g>
  </g>
  <g>
    <line x1="61.0252" y1="33.7983" x2="90.1927" y2="33.7983" style="fill:none;stroke:currentColor;stroke-linecap:round;stroke-linejoin:round;stroke-width:1.5" />
    <line x1="61.0252" y1="43.9829" x2="81.6747" y2="43.9829" style="fill:none;stroke:currentColor;stroke-linecap:round;stroke-linejoin:round;stroke-width:1.5" />
    <line x1="61.0252" y1="54.1674" x2="83.255" y2="54.1674" style="fill:none;stroke:currentColor;stroke-linecap:round;stroke-linejoin:round;stroke-width:1.5" />
    <line x1="61.0252" y1="64.352" x2="88.4439" y2="64.352" style="fill:none;stroke:currentColor;stroke-linecap:round;stroke-linejoin:round;stroke-width:1.5" />
  </g>
  <g>
    <line x1="43.7155" y1="36.7118" x2="43.7155" y2="56.7909" style="fill:none;stroke:currentColor;stroke-linecap:round;stroke-linejoin:round;stroke-width:1.5" />
    <line x1="36.6165" y1="39.6523" x2="50.8146" y2="53.8504" style="fill:none;stroke:currentColor;stroke-linecap:round;stroke-linejoin:round;stroke-width:1.5" />
    <line x1="36.6165" y1="53.8504" x2="50.8146" y2="39.6523" style="fill:none;stroke:currentColor;stroke-linecap:round;stroke-linejoin:round;stroke-width:1.5" />
  </g>
  <path d="M42.9335,49.6103c-.0037-.0618-.0099-.1229-.0155-.1842-.27-2.9342-2.7828-5.2412-5.7476-5.2451-1.8945-.0025-3.5766.9064-4.6328,2.3124-1.0562-1.406-2.7383-2.3149-4.6328-2.3124-2.9648.0039-5.4776,2.3109-5.7476,5.2451-.0056.0613-.0118.1224-.0155.1842-.0742,1.2521.2505,2.424.8588,3.4011,1.6176,2.5981,2.3834,5.6356,1.9925,8.671l-.2364,1.836c-.177,1.3746,1.4881,2.1928,2.4681,1.2128l3.0447-5.1507c1.0199-1.7254,3.5164-1.7254,4.5363,0l3.0447,5.1507c.98.98,2.6451.1618,2.4681-1.2128l-.2364-1.836c-.3909-3.0354.3749-6.0729,1.9925-8.671.6083-.9771.933-2.149.8588-3.4011Z" style="fill:none;stroke:currentColor;stroke-linecap:round;stroke-linejoin:round;stroke-width:1.5" />
</svg>