<?xml version='1.0' encoding='utf-8'?>
<svg xmlns="http://www.w3.org/2000/svg" id="Layer_1" data-name="Layer 1" width="110" height="110" viewBox="0 0 110 110">
  <path d="M81.0381,47.9559c.4759-.3426.9319-.7325,1.3681-1.1697,2.0774-2.0839,3.1142-4.5988,3.1111-7.5434.0031-2.9377-1.0337-5.4437-3.1111-7.5194-1.7063-1.7077-3.7018-2.7184-5.9878-3.0296.16-.5694.2375-1.1745.234-1.8125.0055-1.781-.6181-3.3009-1.8715-4.5611-1.2636-1.2575-2.788-1.8837-4.5728-1.8824-1.5151-.0048-2.8407.4482-3.9766,1.3561-.5694-.9978-1.291-1.9331-2.1634-2.8068-2.5197-2.5177-5.5602-3.7765-9.1222-3.7765-3.5579,0-6.5949,1.2588-9.1106,3.7765-2.518,2.5163-3.7772,5.5527-3.7775,9.1113-.0024.1679-.0024.3358,0,.503-2.7352.109-5.086,1.1512-7.0524,3.122-2.0808,2.0757-3.122,4.5817-3.1224,7.5194.0004,2.9446,1.0416,5.4595,3.1224,7.5434.4351.4345.8875.8251,1.3568,1.1697M28.9362,49.0085c-1.0107.9834-1.8962,2.1333-2.6547,3.4496-2.1202,3.6696-2.6348,7.5482-1.5439,11.6358,1.0964,4.0807,3.4784,7.1754,7.1456,9.2873,1.3215.7661,2.6701,1.3239,4.0468,1.6714M52.7357,39.5121v4.0938h5.9878v-4.0938M40.9468,51.3007h4.0934v-.6777c0-1.9338.6863-3.5873,2.0585-4.96,1.3719-1.3718,3.0247-2.0571,4.9586-2.0571h.6784M64.7114,39.5121v4.0938h.6784c1.9338,0,3.5866.6853,4.9589,2.0571,1.3726,1.3726,2.0582,3.0261,2.0582,4.96v.6777h4.0934M58.7235,43.6059h5.9878M88.5109,49.0085c1.0111.9834,1.8962,2.1333,2.6554,3.4496,2.1195,3.6696,2.6341,7.5482,1.5435,11.6358-1.0968,4.0807-3.4784,7.1754-7.1459,9.2873-1.3215.7661-2.6701,1.3239-4.0461,1.6714M83.6229,54.0952c.5565.5407,1.0433,1.1725,1.4617,1.8948,1.1472,1.9846,1.424,4.0814.8302,6.2915-.5934,2.2189-1.8835,3.9019-3.8707,5.0524-.7233.4186-1.4603.7223-2.2107.9121M64.9337,60.891l-6.2215,3.6017-6.2222-3.5908v-7.2035l6.2222-3.5914,6.2215,3.5914v7.1925ZM76.5003,63.2757h-4.0934v.6784c0,1.9345-.6856,3.5859-2.0582,4.9586-1.3723,1.3725-3.0251,2.0592-4.9589,2.0592h-.6784v8.9584h7.3916c0-.8422.2961-1.5603.8888-2.1531.5924-.5921,1.3095-.8882,2.1521-.8882.8418,0,1.5593.2961,2.1517.8882.5924.5927.8891,1.3109.8891,2.1531,0,.8409-.2968,1.559-.8891,2.1511-.5924.5927-1.3099.8894-2.1517.8894-.8425,0-1.5597-.2967-2.1521-.8894-.5927-.5921-.8888-1.3102-.8888-2.1511M76.5003,57.2885h-4.0934v5.9872M58.7235,85.9641c.8418,0,1.5593.296,2.1521.8888.592.5934.8888,1.3095.8888,2.1524,0,.8422-.2968,1.559-.8888,2.1518-.5927.592-1.3102.8881-2.1521.8881s-1.5593-.2961-2.1517-.8881c-.5924-.5928-.8891-1.3096-.8891-2.1518,0-.8428.2968-1.5589.8891-2.1524.5924-.5928,1.3099-.8888,2.1517-.8888v-14.9922h-5.9878v8.9584h-7.3912c0,.8409-.2964,1.559-.8891,2.1511-.5924.5927-1.3095.8894-2.1517.8894s-1.559-.2967-2.1521-.8894c-.592-.5921-.8884-1.3102-.8884-2.1511,0-.8422.2964-1.5603.8884-2.1531.5931-.5921,1.3102-.8882,2.1521-.8882s1.5593.2961,2.1517.8882c.5927.5927.8891,1.3109.8891,2.1531M52.7357,70.9719h-.6784c-1.9338,0-3.5866-.6866-4.9586-2.0592-1.3723-1.3726-2.0585-3.0241-2.0585-4.9586v-.6784h-4.0934M45.0402,63.2757v-5.9872h-4.0934M64.7114,70.9719h-5.9878M33.8249,54.0952c-.5565.5407-1.044,1.1725-1.462,1.8948-1.1472,1.9846-1.424,4.0814-.8305,6.2915.5934,2.2189,1.8835,3.9019,3.8714,5.0524.723.4186,1.4596.7223,2.21.9121M72.4069,57.2885v-5.9878M45.0402,57.2885v-5.9878" style="fill:none;fill-rule:evenodd;stroke:currentColor;stroke-linecap:round;stroke-linejoin:round;stroke-width:1.5" />
</svg>