<?xml version='1.0' encoding='utf-8'?>
<svg xmlns="http://www.w3.org/2000/svg" id="Layer_1" data-name="Layer 1" width="110" height="110" viewBox="0 0 110 110">
  <path d="M74.1711,54.6895c-2.4101-1.0323-3.7543-1.1603-6.2424-.9245-2.5525.2435-4.9858.9404-7.3943,1.7543-3.602,1.2195-7.3061,1.6718-11.1619,1.123-1.9508-.2836-3.8559-.8245-5.6808-1.6986-.8552-.4139-1.7025-.8527-2.4635-1.4816M43.5784,83.5694c-1.5137,1.5137-6.5795-1.0978-11.3148-5.8331s-7.3468-9.8011-5.8331-11.3148,6.5795,1.0978,11.3148,5.8331,7.3468,9.8011,5.8331,11.3148ZM29.1842,80.8158c-4.7353-4.7353-9.8011-7.3468-11.3148-5.8331s1.0978,6.5795,5.8331,11.3148c4.7353,4.7353,9.8011,7.3468,11.3148,5.8331s-1.0978-6.5795-5.8331-11.3148ZM17.8694,74.9828l8.5612-8.5612M43.5784,83.5694l-8.5612,8.5612M63.6056,21.7677l24.6266,24.6266M67.2126,17.4396l25.3358,25.3358M67.2126,17.4396l-40.7382,48.9382M92.5604,42.7874l-49.0194,40.8194" style="fill:none;stroke:currentColor;stroke-linecap:round;stroke-miterlimit:10;stroke-width:1.5" />
</svg>