<?xml version='1.0' encoding='utf-8'?>
<svg xmlns="http://www.w3.org/2000/svg" id="Layer_1" data-name="Layer 1" width="110" height="110" viewBox="0 0 110 110">
  <path d="M61.4499,39.4501c-.111,12.7022-10.2739,22.9117-22.7001,22.8039-12.4258-.1079-22.4089-10.4926-22.2981-23.1948.111-12.7016,10.2739-22.9114,22.6996-22.8036,12.4262.1079,22.4095,10.4927,22.2986,23.1945ZM66.3399,39.4926c-.1351,15.463-12.5069,27.8915-27.6339,27.7602-15.1265-.1314-27.2794-12.7731-27.1445-28.2361.1351-15.4622,12.5069-27.8911,27.6333-27.7599,15.127.1314,27.2801,12.7732,27.1451,28.2357ZM67.3785,67.7004l-4.3178,4.3373c7.6704,8.8902,15.3424,17.78,23.0157,26.6686v.0379s12.3632-12.3644,12.3632-12.3644h-.0184c-8.9093-7.6748-17.8173-15.347-26.7249-23.0162l-4.3178,4.3367-6.7904-6.7904" style="fill:none;stroke:currentColor;stroke-linecap:round;stroke-linejoin:round;stroke-width:1.5" />
</svg>