<?xml version='1.0' encoding='utf-8'?>
<svg xmlns="http://www.w3.org/2000/svg" width="110" height="110" viewBox="0 0 110 110" fill="none" stroke="currentColor" stroke-width="1.5">
<path d="M19.6399 76.6913L13.8208 82.5104C13.0086 83.3226 13.0131 84.644 13.8309 85.4618C14.6486 86.2796 15.97 86.2841 16.7823 85.4719L19.2982 82.956M25.449 90.018L22.8768 92.5901C21.9698 93.4971 21.9485 94.9463 22.8292 95.827C23.7099 96.7077 25.1591 96.6864 26.0661 95.7794L31.1442 90.7014M20.0955 84.8923L15.995 88.9928C14.674 90.3139 14.674 92.4557 15.995 93.7768C17.3161 95.0978 19.4579 95.0978 20.779 93.7768L24.8795 89.6763M22.6085 72.3558L22.0319 72.9325C17.9429 77.0214 17.9429 83.6509 22.0319 87.7399C26.1209 91.8289 32.7504 91.8289 36.8393 87.7399L37.416 87.1633" stroke="currentColor" stroke-width="1.5" fill="none" />
<path d="M73.5091 45.8876C70.8001 48.5965 66.4081 48.5965 63.6992 45.8876C60.9902 43.1786 60.9902 38.7866 63.6992 36.0776M73.5091 45.8876C76.218 43.1786 76.218 38.7866 73.5091 36.0776C70.8001 33.3687 66.4081 33.3687 63.6992 36.0776M73.5091 45.8876C73.5091 45.8876 87.3911 32.0056 89.5196 29.877C91.6482 27.7484 93.6842 24.972 93.6842 24.972M63.6992 36.0776C63.6992 36.0776 77.5811 22.1957 79.7097 20.0671C81.8383 17.9385 84.6147 15.9025 84.6147 15.9025M93.6842 24.972C91.1797 27.4765 87.1191 27.4765 84.6147 24.972C82.1102 22.4676 82.1102 18.407 84.6147 15.9025M93.6842 24.972C96.1887 22.4676 96.1887 18.407 93.6842 15.9025C91.1797 13.398 87.1191 13.398 84.6147 15.9025M88.8718 30.5248C86.1629 33.2338 81.7708 33.2338 79.0619 30.5248C76.3529 27.8159 76.3529 23.4238 79.0619 20.7149M87.3911 32.0056C84.6821 34.7145 80.2901 34.7145 77.5811 32.0056C74.8722 29.2966 74.8722 24.9046 77.5811 22.1957M90.3356 29.0272C87.6267 31.7361 83.2516 31.753 80.5426 29.0441C77.8337 26.3352 77.8506 21.96 80.5595 19.2511M92.1109 23.2137C90.5776 24.747 88.0915 24.747 86.5581 23.2137C85.0248 21.6803 85.0248 19.1942 86.5581 17.6609C88.0915 16.1275 90.5776 16.1275 92.1109 17.6609C93.6443 19.1942 93.6443 21.6803 92.1109 23.2137Z" stroke="currentColor" stroke-width="1.5" fill="none" />
<path d="M78.4231 50.9866C73.0052 56.4045 64.2211 56.4045 58.8032 50.9866C53.3854 45.5687 53.3854 36.7846 58.8032 31.3667M78.4231 50.9866C83.841 45.5687 83.841 36.7846 78.4231 31.3667C73.0052 25.9489 64.2211 25.9489 58.8032 31.3667M78.4231 50.9866C78.4231 50.9866 58.9883 70.7915 52.7877 76.9922C52.4011 77.3788 52.0329 77.7427 51.6822 78.0853C47.6631 82.0116 43.0911 86.5587 37.5109 87.2136C33.559 87.6774 29.4081 86.374 26.412 83.3779C23.7134 80.6793 22.388 77.0439 22.4903 73.4609C22.6717 67.1032 27.9699 61.7174 32.5196 57.2729C32.611 57.1836 32.7037 57.0934 32.7977 57.0021C39.0908 50.894 58.8032 31.3667 58.8032 31.3667" stroke="currentColor" stroke-width="1.5" fill="none" />
</svg>