<?xml version='1.0' encoding='utf-8'?>
<svg xmlns="http://www.w3.org/2000/svg" version="1.1" id="Layer_1" x="0px" y="0px" viewBox="0 0 110 110" style="enable-background:new 0 0 110 110;fill:none;stroke:currentColor;stroke-width:1.5" xml:space="preserve">
<path style="fill:none;stroke:currentColor;stroke-width:1.5;stroke-linecap:round;stroke-linejoin:round" d="M73.036,83.498  c2.89-2.653,4.88-5.532,5.567-9.618 M45.426,35.479h18.076 M62.222,38.606C66.913,46.305,85,58.648,85,72.968  c0,13.42-14.036,23.062-30.276,23.062h-0.438c-16.24,0-30.276-9.654-30.276-23.062c0-14.321,17.163-26.035,22.849-34.564  c3.814-5.721-8.22-14.842-10.27-17.779c-2.097-2.997,1.35-6.894,7.616-6.775c8.22,0.154,10.376,5.354,15.197,4.134  c3.542-0.9,9.251-2.795,10.554-0.154C72.219,22.414,57.733,31.226,62.222,38.606z M58.773,70.035  c-1.356,2.452-4.445,3.339-6.9,1.982s-3.347-4.446-1.991-6.897c1.356-2.452,4.445-3.339,6.9-1.982  C59.238,64.495,60.129,67.583,58.773,70.035z M51.396,54.525l-0.01-4.335l5.799-0.007l0.01,4.335  c-0.001,0.621,0.397,1.173,0.992,1.368c0.564,0.186,1.116,0.41,1.652,0.68c0.55,0.277,1.214,0.167,1.649-0.277  c1.115-1.121,3.059-3.07,3.059-3.07l4.111,4.091l-3.055,3.064c-0.438,0.433-0.546,1.102-0.269,1.66  c0.271,0.537,0.499,1.086,0.684,1.647c0.195,0.594,0.754,0.984,1.368,0.981l4.338-0.005l0.014,5.795L67.4,70.457  c-0.621-0.001-1.174,0.395-1.368,0.99c-0.185,0.564-0.405,1.108-0.674,1.643c-0.277,0.549-0.159,1.217,0.275,1.655  c1.123,1.116,3.076,3.06,3.076,3.06l-4.089,4.103l-3.069-3.056c-0.434-0.438-1.104-0.547-1.662-0.271  c-0.537,0.27-1.086,0.497-1.648,0.682c-0.594,0.194-0.984,0.752-0.981,1.366l0.01,4.335l-5.799,0.007l-0.01-4.335  c0.001-0.621-0.397-1.174-0.992-1.368c-0.564-0.186-1.109-0.406-1.645-0.676c-0.55-0.277-1.218-0.16-1.656,0.273  c-1.115,1.121-3.059,3.071-3.059,3.071l-4.11-4.091l3.055-3.064c0.438-0.433,0.546-1.102,0.269-1.66  c-0.271-0.537-0.499-1.086-0.684-1.647c-0.195-0.594-0.754-0.984-1.368-0.981l-4.338,0.005l-0.014-5.795l4.338-0.005  c0.621,0.001,1.174-0.395,1.368-0.99c0.185-0.563,0.405-1.108,0.674-1.643c0.277-0.549,0.159-1.217-0.275-1.655  c-1.123-1.116-3.076-3.06-3.076-3.06l4.089-4.103l3.069,3.056c0.434,0.438,1.104,0.547,1.662,0.271  c0.537-0.27,1.086-0.498,1.648-0.682C51.009,55.697,51.399,55.138,51.396,54.525z" />
</svg>