<?xml version='1.0' encoding='utf-8'?>
<svg xmlns="http://www.w3.org/2000/svg" width="110" height="110" viewBox="0 0 110 110" fill="none" stroke="currentColor" stroke-width="1.5">
<path d="M73.8765 20.5H56.5413C53.7079 20.5 48.0413 22.2 48.0413 29V87C48.0413 91 45.7413 97 36.5413 97C27.3413 97 24.5413 91 24.5413 87V74M78.5413 23V29M73.5413 16V20.7546M83.5413 16V20.7546M18.2913 66C15.2913 64.3333 9.99127 59 12.7913 51C15.5913 43 20.2913 39 22.2913 38C22.6011 37.8451 23.4582 37.5461 24.5413 37.5048M24.5413 37.5048C24.6233 37.5017 24.7067 37.5 24.7913 37.5M24.5413 37.5048C25.6243 37.5461 26.4814 37.8451 26.7913 38C28.7913 39 33.4912 43 36.2912 51C39.0912 59 33.7912 64.3333 30.7912 66M24.5413 37.5048C24.4592 37.5017 24.3758 37.5 24.2913 37.5M66.5413 29.5C64.8746 30.6667 61.5413 34.6 61.5413 41V93C61.5413 95.6667 62.5413 101 69.0413 101H79.0413H88.0413C94.5413 101 95.5413 95.6667 95.5413 93V41C95.5413 34.6 92.2079 30.6667 90.5413 29.5M86.5413 27C86.5413 31.4183 82.9595 35 78.5413 35C74.123 35 70.5413 31.4183 70.5413 27C70.5413 22.5817 74.123 19 78.5413 19C82.9595 19 86.5413 22.5817 86.5413 27ZM22.5413 74H26.5413C27.6458 74 28.5413 73.1046 28.5413 72V66C28.5413 64.8954 27.6458 64 26.5413 64H22.5413C21.4367 64 20.5413 64.8954 20.5413 66V72C20.5413 73.1046 21.4367 74 22.5413 74ZM71.5413 16H85.5413C86.6458 16 87.5413 15.1046 87.5413 14V11C87.5413 9.89543 86.6458 9 85.5413 9H71.5413C70.4367 9 69.5413 9.89543 69.5413 11V14C69.5413 15.1046 70.4367 16 71.5413 16Z" stroke="currentColor" stroke-width="1.5" stroke-linecap="round" stroke-linejoin="round" fill="none" />
</svg>