<?xml version='1.0' encoding='utf-8'?>
<svg xmlns="http://www.w3.org/2000/svg" id="Layer_1" data-name="Layer 1" width="110" height="110" viewBox="0 0 110 110">
  <text transform="translate(10.7869 77.7859)" style="fill:none;font-family:AzoSans-Light, 'Azo Sans';font-size:14.1832px;font-weight:300;stroke:currentColor;stroke-width:1.5"><tspan x="0" y="0"> </tspan></text>
  <path d="M26.5848,67.906c-9.5853-8.7914-12.8541-22.043-8.323-33.8476,4.1669-10.8528,14.1056-17.8664,25.3193-17.8664,3.8178,0,7.4239.9485,10.682,2.5029,3.2484-1.5555,6.8535-2.5029,10.6874-2.5029,11.0462,0,20.9655,6.7977,25.2699,17.3164,4.7373,11.5747,1.7789,24.9713-7.5367,34.129l-27.8985,27.428-28.2004-27.1595Z" style="fill:none;stroke:currentColor;stroke-linecap:round;stroke-linejoin:round;stroke-width:1.5" />
  <path d="M32.0046,62.1305c-7.2209-6.5774-9.7142-16.4656-6.3486-25.2334,2.981-7.7666,10.0171-12.7854,17.9255-12.7854,3.8607,0,7.5732,1.5125,10.696,3.7662,3.098-2.2559,6.7966-3.7662,10.6734-3.7662,7.9374,0,14.8113,4.7502,17.9405,12.3954,3.5138,8.5873,1.2525,18.5894-5.7589,25.4837l-22.4039,22.0247-22.724-21.8851Z" style="fill:none;stroke:currentColor;stroke-linecap:round;stroke-linejoin:round;stroke-width:1.5" />
  <path d="M43.5811,32.0321c4.075,0,8.7762,3.737,10.7479,7.565,1.8963-3.828,6.5459-7.565,10.622-7.565,10.7217,0,16.4007,14.7033,6.6284,24.3102l-16.9076,16.6224-17.26-16.6224c-10.0829-9.0794-4.5529-24.3102,6.1692-24.3102h0Z" style="fill:none;stroke:currentColor;stroke-linecap:round;stroke-linejoin:round;stroke-width:1.5" />
</svg>