<?xml version='1.0' encoding='utf-8'?>
<svg xmlns="http://www.w3.org/2000/svg" id="Layer_1" data-name="Layer 1" width="110" height="110" viewBox="0 0 110 110">
  <path d="M37.3359,31.8798l1.4783,34.8207.6466,13.576M83.3468,31.2268l-3.3614,49.0497M34.7249,27.4017v6.1522M85.5642,26.0736v7.1323M79.9719,80.8875c0,5.5895-9.0687,10.1207-20.2554,10.1207s-20.2555-4.5312-20.2555-10.1207,9.0687-10.1207,20.2555-10.1207,20.2554,4.5312,20.2554,10.1207ZM85.5373,32.0105c0,7.5481-11.4107,13.6669-25.4866,13.6669s-25.4865-6.1188-25.4865-13.6669,11.4107-13.6669,25.4865-13.6669,25.4866,6.1189,25.4866,13.6669ZM85.5373,25.6751c0,7.5481-11.4107,13.667-25.4866,13.667s-25.4865-6.1189-25.4865-13.667,11.4107-13.6669,25.4865-13.6669,25.4866,6.1189,25.4866,13.6669ZM41.4792,88.9262c0,1.2142-3.0791,2.1985-6.8774,2.1985s-6.8774-.9843-6.8774-2.1985,3.0791-2.1985,6.8774-2.1985,6.8774.9843,6.8774,2.1985ZM34.6019,93.5948c-3.7983,0-6.8774.9843-6.8774,2.1985s3.0791,2.1985,6.8774,2.1985c3.7983,0,6.8774-.9843,6.8774-2.1985s-3.0791-2.1985-6.8774-2.1985ZM27.7245,95.7934v-6.8671M41.4792,88.9262v6.8671M24.725,56.1078h19.7536M24.4358,52.9253h20.3224M24.4358,52.9253l3.2887,35.9658M44.7679,52.9253l-3.2887,36.0309" style="fill:none;stroke:currentColor;stroke-linecap:round;stroke-linejoin:round;stroke-width:1.5" />
</svg>