<?xml version='1.0' encoding='utf-8'?>
<svg xmlns="http://www.w3.org/2000/svg" version="1.1" id="Layer_1" x="0px" y="0px" viewBox="0 0 110 110" style="enable-background:new 0 0 110 110;fill:none;stroke:currentColor;stroke-width:1.5" xml:space="preserve">
<path style="fill:none;stroke:currentColor;stroke-width:1.5;stroke-linecap:round;stroke-linejoin:round" d="M61.347,76.413h33.259  c0.31,0,0.561,0.251,0.561,0.561v1.71c0,1.616-1.31,2.925-2.926,2.925H16.927c-1.616,0-2.926-1.31-2.926-2.926l0-1.709  c0-0.31,0.251-0.561,0.561-0.561h34.611 M53.353,32.025h2.46 M21.789,35.879h65.589 M14.231,76.521l7.558-8.306 M21.789,68.214  v-34.27c0-3.283,2.661-5.944,5.944-5.944h53.701c3.283,0,5.944,2.661,5.944,5.944v34.27 M21.789,68.214h10.23 M87.378,68.214  l7.594,8.334 M87.378,68.214H76.5 M36.136,72.588h1.64 M24.658,72.588h1.64 M30.397,72.588h1.64 M77.129,72.588h1.64 M82.868,72.588  h1.64 M71.391,72.588h1.64 M59.244,50.739l4.075-4.061 M63.318,46.678l-0.677-0.678l1.33-2.638l2.629-1.324l1.353,1.346l-1.33,2.639  l-2.629,1.33L63.318,46.678z M52.809,61.346l-6.573,6.6c-0.336,0.32-0.713,0.541-1.13,0.662c-0.256,0.076-0.528,0.114-0.815,0.116  c-0.359-0.002-0.695-0.06-1.007-0.177c-0.342-0.128-0.655-0.329-0.938-0.6l-0.292-0.284c-0.351-0.369-0.582-0.786-0.692-1.254  c-0.055-0.219-0.083-0.45-0.085-0.692c0.004-0.29,0.044-0.564,0.123-0.823c0.119-0.412,0.336-0.785,0.654-1.115l6.596-6.593   M41.246,46.07c-0.105,0.107-0.172,0.238-0.2,0.393c-0.029,0.155-0.045,0.268-0.046,0.338c0.002,1.611,0.574,2.986,1.715,4.124  c1.093,1.094,2.405,1.663,3.936,1.707c0.03,0.001,0.061,0.001,0.092,0c0.021,0,0.041,0,0.061,0c1.383,0.054,2.573,0.539,3.567,1.454  l5.551,5.546c0.886,0.967,1.365,2.119,1.438,3.454c0.003,0.038,0.005,0.076,0.008,0.115c0,0.023,0,0.046,0,0.069  c-0.001,0.031-0.001,0.063,0,0.092c0.041,1.529,0.608,2.839,1.699,3.931C60.207,68.432,61.583,69,63.196,69  c0.069,0.001,0.182-0.012,0.338-0.038c0.154-0.029,0.285-0.095,0.392-0.2l0.215-0.215l-3.19-3.192l1.084-3.308l3.314-1.092  l3.191,3.192l0.215-0.223c0.105-0.107,0.172-0.238,0.2-0.392c0.029-0.154,0.045-0.264,0.046-0.331c0-1.611-0.569-2.986-1.707-4.124  c-0.992-0.991-2.163-1.552-3.514-1.684c-0.141-0.011-0.285-0.019-0.43-0.024l-0.153-0.008c-1.383-0.052-2.573-0.534-3.568-1.445  l-5.551-5.554c-0.912-0.993-1.393-2.18-1.445-3.562c-0.002-0.023-0.004-0.045-0.008-0.069c0-0.031,0-0.062,0-0.092  c-0.041-1.532-0.608-2.845-1.699-3.939c-1.138-1.136-2.511-1.703-4.121-1.7c-0.07-0.004-0.182,0.007-0.338,0.031  c-0.154,0.028-0.285,0.095-0.392,0.2l-0.223,0.223l3.191,3.193l-1.084,3.308l-3.306,1.084l-3.183-3.185L41.246,46.07z" />
</svg>