<?xml version='1.0' encoding='utf-8'?>
<svg xmlns="http://www.w3.org/2000/svg" width="110" height="110" viewBox="0 0 110 110" fill="none" stroke="currentColor" stroke-width="1.5">
<path d="M42.5 63.4287L23.8638 85.4084C23.6379 85.6748 23.5675 86.0399 23.6779 86.3713L23.7257 86.5147C23.8831 86.9869 23.6694 87.5028 23.2243 87.7254L23.2111 87.7319C23.0723 87.8014 22.9192 87.8375 22.7639 87.8375H22.4142C22.149 87.8375 21.8946 87.9429 21.7071 88.1304L21.1768 88.6608C21.0636 88.7739 21 88.9275 21 89.0875C21 89.2476 21.0636 89.4011 21.1768 89.5143L23.8232 92.1608C23.9364 92.2739 24.0899 92.3375 24.25 92.3375C24.4101 92.3375 24.5636 92.2739 24.6768 92.1608L25.2071 91.6304C25.3946 91.4429 25.5 91.1885 25.5 90.9233V90.5736C25.5 90.4183 25.5361 90.2652 25.6056 90.1264L25.7236 89.8903C25.893 89.5515 26.2393 89.3375 26.618 89.3375H27.0368C27.3306 89.3375 27.6095 89.2083 27.7996 88.9842L46.2647 66.8036M70.1035 29.5339L70.5372 23.4626C70.5746 22.9393 71.01 22.5339 71.5346 22.5339H72.0295C72.6099 22.5339 73.0684 23.0263 73.027 23.6051L72.6699 28.6051C72.6325 29.1284 72.197 29.5339 71.6724 29.5339H70.1035ZM70.1035 29.5339L66.5 33.3036M74.7015 34.132L79.7425 30.7208C80.177 30.4268 80.3104 29.8469 80.0481 29.3926L79.8007 28.964C79.5105 28.4614 78.8549 28.3105 78.3742 28.6358L74.2227 31.4451C73.7881 31.7391 73.6547 32.3189 73.9171 32.7733L74.7015 34.132ZM74.7015 34.132L70.5372 37.6309M61.5 25.8036L66.6035 20.5339M63 28.8036L70.6035 20.5339M84.5 34.3036L77.5 41.6081M82.5 31.8036L74.5 40.2108M61.1925 21.5405C61.1925 21.5405 46.6034 41.5339 44.1033 46.5339C41.6032 51.5339 57.6031 67.0339 63.6033 63.0339C69.6035 59.0339 85 42.8036 85 42.8036M63.1035 70.0339C59.6244 73.642 50.2802 70.9718 43.6035 64.5339C36.9268 58.0959 34.1243 51.1419 37.6034 47.5338C41.0825 43.9257 49.9656 45.5959 56.6423 52.0338C63.319 58.4718 66.5826 66.4258 63.1035 70.0339ZM88.0003 41.3527C84.5212 44.9609 74.7805 41.972 68.1038 35.534C61.4271 29.0961 59.1243 22.6421 62.6034 19.0339C66.0825 15.4258 74.1034 16.5339 81.1426 23.034C88.0007 29.3664 91.4794 37.7446 88.0003 41.3527Z" stroke="currentColor" stroke-width="1.5" stroke-linecap="round" stroke-linejoin="bevel" fill="none" />
</svg>