<?xml version='1.0' encoding='utf-8'?>
<svg xmlns="http://www.w3.org/2000/svg" width="110" height="110" viewBox="0 0 110 110" fill="none" stroke="currentColor" stroke-width="1.5">
<path d="M17 64.4106H56M24.5 75.1606H48.5M24.5 84.1606H48.5M20 94.1606H53C54.6569 94.1606 56 92.8175 56 91.1606V20.1606C56 18.5038 54.6569 17.1606 53 17.1606H20C18.3431 17.1606 17 18.5038 17 20.1606V91.1606C17 92.8175 18.3431 94.1606 20 94.1606Z" stroke="currentColor" stroke-width="1.5" stroke-linecap="round" fill="none" />
<path d="M36.7891 33.6023C37.3481 34.5623 38.0924 35.8751 38.8359 37.2878C39.5806 38.7028 40.3187 40.2063 40.8682 41.5515C41.4316 42.9308 41.75 44.0346 41.75 44.6941C41.7499 47.5635 39.4047 49.8992 36.5 49.8992C33.5953 49.8992 31.2501 47.5635 31.25 44.6941C31.25 44.0346 31.5684 42.9308 32.1318 41.5515C32.6813 40.2063 33.4194 38.7028 34.1641 37.2878C34.9076 35.8751 35.6519 34.5623 36.2109 33.6023C36.3135 33.4261 36.4112 33.2627 36.5 33.1121C36.5888 33.2627 36.6865 33.4261 36.7891 33.6023Z" stroke="currentColor" stroke-width="1.5" stroke-linejoin="round" fill="none" />
<path d="M73.8492 73.3617L56 59.4205M62.1155 76.9727L56 72.1962M56.9267 83.616L56 82.8921M56 36.8727L70.5731 18.2144C71.5284 16.9914 73.2942 16.7744 74.5172 17.7296L98.8757 36.755C100.099 37.7103 100.316 39.476 99.3606 40.699L58.427 93.1069C57.5076 94.2841 55.8372 94.5293 54.6227 93.6941" stroke="currentColor" stroke-width="1.5" stroke-linecap="round" fill="none" />
<path d="M77.3839 39.539C77.2432 40.5694 77.0362 41.9664 76.7708 43.4367C76.5048 44.9099 76.1825 46.4441 75.8131 47.7518C75.4337 49.0948 75.0346 50.0843 74.6607 50.563C73.0228 52.66 69.9751 53.0292 67.8514 51.3708C65.7277 49.7121 65.3473 46.6651 66.9852 44.568C67.3591 44.0894 68.2225 43.4624 69.4336 42.7691C70.613 42.094 72.0234 41.4096 73.3883 40.7948C74.7505 40.1811 76.0558 39.642 77.0214 39.2559C77.1699 39.1965 77.3109 39.1419 77.4421 39.0901C77.4237 39.2301 77.4056 39.3804 77.3839 39.539Z" stroke="currentColor" stroke-width="1.5" stroke-linejoin="round" fill="none" />
</svg>