<?xml version='1.0' encoding='utf-8'?>
<svg xmlns="http://www.w3.org/2000/svg" id="Layer_1" data-name="Layer 1" width="110" height="110" viewBox="0 0 110 110">
  <g>
    <path d="M67.0524,68.2738c.0813.0813.1879.122.2945.122s.2131-.0407.2945-.122c.1627-.1627.1627-.4262,0-.5889l-1.8658-1.8658,1.8658-1.8658c.1627-.1627.1627-.4262,0-.5889-.1627-.1627-.4262-.1627-.5889,0l-1.8658,1.8658-1.8658-1.8658c-.1627-.1627-.4262-.1627-.5889,0-.1627.1627-.1627.4262,0,.5889l1.8658,1.8658-1.8658,1.8658c-.1627.1627-.1627.4262,0,.5889.0813.0813.1879.122.2945.122s.2131-.0407.2945-.122l1.8658-1.8658,1.8658,1.8658Z" style="fill:none;stroke:currentColor;stroke-width:1.5" />
    <path d="M45.0476,53.0507c-.1627-.1627-.4262-.1627-.5889,0l-1.8658,1.8658-1.8658-1.8658c-.1627-.1627-.4262-.1627-.5889,0-.1627.1627-.1627.4262,0,.5889l1.8658,1.8658-1.8658,1.8658c-.1627.1627-.1627.4262,0,.5889.0813.0813.1879.122.2945.122s.2131-.0407.2945-.122l1.8658-1.8658,1.8658,1.8658c.0813.0813.1879.122.2945.122s.2131-.0407.2945-.122c.1627-.1627.1627-.4262,0-.5889l-1.8658-1.8658,1.8658-1.8658c.1627-.1627.1627-.4262,0-.5889Z" style="fill:none;stroke:currentColor;stroke-width:1.5" />
    <path d="M61.7,53.1556c.0813.0813.1879.122.2945.122s.2131-.0407.2945-.122l1.8658-1.8658,1.8658,1.8658c.0813.0813.1879.122.2945.122s.2131-.0407.2945-.122c.1627-.1627.1627-.4262,0-.5889l-1.8658-1.8658,1.8658-1.8658c.1627-.1627.1627-.4262,0-.5889-.1627-.1627-.4262-.1627-.5889,0l-1.8658,1.8658-1.8658-1.8658c-.1627-.1627-.4262-.1627-.5889,0-.1627.1627-.1627.4262,0,.5889l1.8658,1.8658-1.8658,1.8658c-.1627.1627-.1627.4262,0,.5889Z" style="fill:none;stroke:currentColor;stroke-width:1.5" />
    <path d="M69.3601,75.8051c-.3408-.5657-.8814-.9647-1.5224-1.1234-1.3222-.329-2.6665.4811-2.9947,1.8042v.0004c-.3274,1.3231.482,2.6665,1.805,2.9947.1989.0492.3982.0728.5942.0728,1.1099,0,2.1215-.7537,2.4001-1.8778.159-.641.0586-1.3056-.2823-1.8709ZM68.8338,77.4759c-.2176.8761-1.1063,1.4125-1.9852,1.1966-.8773-.2176-1.4142-1.1083-1.197-1.9856.2176-.8773,1.1087-1.4146,1.986-1.1966.4246.1053.7833.3697,1.0091.7447.2261.375.2924.8155.1871,1.2409Z" style="fill:none;stroke:currentColor;stroke-width:1.5" />
    <path d="M48.414,73.7105c-.6398-.1578-1.3052-.0586-1.8709.2823-.5657.3408-.9647.8814-1.1234,1.5224-.3282,1.3231.4811,2.6665,1.8046,2.9947.1989.0492.3978.0728.5942.0728,1.1095,0,2.1215-.7537,2.4005-1.8778.3278-1.3235-.482-2.6665-1.805-2.9943ZM49.4105,76.5042c-.2176.8777-1.1075,1.4146-1.9856,1.197-.425-.1053-.7837-.3701-1.0095-.7451-.2261-.375-.2924-.8155-.1871-1.2401v-.0004c.1053-.425.3697-.7837.7447-1.0095.2587-.1562.5487-.2359.8431-.2359.1326,0,.266.0163.3978.0488.8769.2172,1.4138,1.1079,1.1966,1.9852Z" style="fill:none;stroke:currentColor;stroke-width:1.5" />
    <path d="M62.7188,73.6116c-2.859-1.2369-5.9455-1.4868-9.3981-.7714l.6-.7481c.144-.1798.1151-.4417-.0643-.5857-.179-.1432-.4421-.1143-.5857.0643l-1.2916,1.6109c-.1037.0677-.1733.1745-.1876.2969-.0189.0699-.024.1429-.0049.2149.0338.1277.1269.2318.2501.2802l2.0934.8212c.05.0195.1013.0289.1521.0289.1663,0,.3233-.1.3876-.2644.0842-.2143-.0216-.4559-.2355-.5397l-.9337-.3663c3.2759-.676,6.1949-.4423,8.8872.7229.0541.0232.1102.0342.1651.0342.1615,0,.3148-.094.3827-.2509.0911-.2115-.0057-.4563-.2168-.5479Z" style="fill:none;stroke:currentColor;stroke-width:1.5" />
    <path d="M53.4931,57.7816c-.1452.6442-.0305,1.3064.3225,1.8644.353.558.9021.9452,1.5468,1.0904.1814.0407.3632.0606.5422.0606,1.1307,0,2.154-.7821,2.4123-1.9299.1452-.6442.0305-1.3064-.3225-1.8644-.353-.558-.9025-.9456-1.5468-1.0904-1.3304-.2989-2.6551.5397-2.9544,1.8693ZM57.2903,57.4481c.2343.3701.3099.809.2139,1.236-.1981.8822-1.0782,1.439-1.9592,1.2397-.8818-.1985-1.4378-1.0774-1.2393-1.9592.1712-.7614.8496-1.2795,1.5992-1.2795.1188,0,.2392.0126.3595.0399.4275.0964.7915.353,1.0257.7232Z" style="fill:none;stroke:currentColor;stroke-width:1.5" />
    <path d="M52.1062,61.1387c.0118-.1322-.0395-.2619-.1387-.3498-.0555-.0489-.1232-.0766-.1943-.0909-.1148-.0412-.2406-.0272-.3474.034l-2.0206.4343c-.2249.0484-.3681.2697-.3197.4946.0484.2249.2701.3689.4946.3197l.9379-.2015c-2.185,2.7657-3.3442,5.6378-3.5189,8.7483-.013.2294.1627.4262.3925.4389.0077.0004.0159.0008.0236.0008.2192,0,.4031-.1712.4153-.3933.1645-2.9288,1.2622-5.644,3.3334-8.2695l-.0906.9985c-.0207.2294.148.4319.377.4527.013.0012.0256.0016.0382.0016.2131,0,.3949-.1627.4144-.3787l.2034-2.2398Z" style="fill:none;stroke:currentColor;stroke-width:1.5" />
    <path d="M52.4971,41.0288c.336.1594.6955.2396,1.0567.2396.2802,0,.5613-.0484.833-.1456.6223-.2221,1.1201-.6731,1.4028-1.2698.2827-.5967.316-1.2677.094-1.8896-.2221-.6223-.6731-1.1201-1.2698-1.4028-.5967-.2831-1.2682-.3168-1.8896-.094-.6223.2221-1.1201.6731-1.4028,1.2698-.2827.5967-.316,1.2678-.0939,1.8896.2221.6223.6731,1.1201,1.2698,1.4028ZM53.0039,37.2508c.1818-.0647.3673-.0956.5499-.0956.6735,0,1.3064.4185,1.5455,1.088.3038.8513-.1411,1.7912-.9924,2.0954-.8521.3038-1.7916-.1415-2.0954-.9924-.3038-.8513.1411-1.7912.9924-2.0954Z" style="fill:none;stroke:currentColor;stroke-width:1.5" />
    <path d="M50.167,45.2669l.6849-.6719c-.3666,3.5061.1899,6.553,1.7058,9.274.0765.1371.218.2139.3644.2139.0687,0,.1383-.0171.2021-.0525.2009-.1123.2733-.3656.1615-.5666-1.4279-2.5626-1.9527-5.4444-1.6073-8.7714l.4579.8928c.0736.144.2196.2265.3709.2265.0639,0,.1289-.0146.1895-.046.2046-.1049.2855-.3559.1806-.5605l-1.0262-2.0011c-.0602-.1179-.1733-.2001-.3038-.2213-.0748-.0118-.1463.0003-.213.0257-.1212.0259-.2208.1069-.2776.218l-1.473,1.4454c-.1643.1611-.1668.425-.0057.5889.1611.1643.4246.1655.5889.0057Z" style="fill:none;stroke:currentColor;stroke-width:1.5" />
  </g>
  <g>
    <path d="M82.916,36.9904v52.1262c0,1.4857-1.2412,2.7269-2.7269,2.7269H28.5393c-1.4857,0-2.7269-1.2264-2.7269-2.7269V21.9467c0-1.5005,1.2265-2.727,2.7269-2.727h36.6055" style="fill:none;stroke:currentColor;stroke-linecap:round;stroke-linejoin:round;stroke-width:1.5" />
    <path d="M82.916,36.9904h-15.0444c-1.5004,0-2.7269-1.2264-2.7269-2.7268v-15.0438l17.7713,17.7706h0Z" style="fill:none;stroke:currentColor;stroke-linecap:round;stroke-linejoin:round;stroke-width:1.5" />
  </g>
</svg>