<?xml version='1.0' encoding='utf-8'?>
<svg xmlns="http://www.w3.org/2000/svg" width="110" height="110" viewBox="0 0 110 110" fill="none" stroke="currentColor" stroke-width="1.5">
<path d="M70.8002 26.0553L70.7679 29.8882C70.6816 32.1365 70.7463 33.9352 70.7355 35.1236C70.7139 44.2347 63.2499 52.7998 57.7273 54.0632C56.0663 54.4379 54.3405 54.3309 52.7117 53.8277C43.2522 50.8941 40.3076 40.3376 40.3076 34.7167C40.3076 32.083 40.3939 30.7661 40.3831 30.0488V26.066M70.8002 26.0553L40.3831 26.066M70.8002 26.0553C71.6631 25.0168 72.073 23.6571 71.9112 22.308L71.0267 14.7707C70.6924 11.9121 68.2439 9.74945 65.3424 9.74945H45.8301M40.3831 26.066C39.5094 25.0168 39.1103 23.6571 39.2721 22.308L40.1566 14.7707C40.4909 11.9121 42.9286 9.74945 45.8409 9.74945M66.5 56.9794C66.2303 56.3049 65.8386 55.1552 65.8386 54.4165L65.6356 48.3814M44.9393 48.3814L45.0319 54.4165C45.0427 55.1767 44.7804 56.2835 44.5 56.9794M38.5063 78.1633C38.5063 78.1633 38.571 69.6196 38.5602 67.9708M38.5602 67.9708C38.5602 67.2213 38.2366 66.4184 37.6326 65.9473C37.158 65.5833 36.4569 65.4976 35.9284 65.776C35.3459 66.0865 35.0763 67.1464 35.087 67.7674M38.5602 67.9708C39.38 67.7353 40.4478 67.9387 41.0195 68.6667C41.4401 69.1913 41.4833 69.9194 41.4401 70.5939C41.4401 70.5939 41.3215 76.643 41.2783 78.1633M35.087 67.7674C35.0008 67.4355 34.6124 67.2106 34.3536 67.0929C33.8898 66.8894 33.3612 66.9751 32.919 67.2321C32.3258 67.5747 32.0022 68.2384 31.9914 68.913L31.7433 81.9533C31.711 82.3816 31.4305 82.767 30.9991 82.9383C30.449 83.1525 29.8234 82.8741 29.5429 82.3495L28.5074 80.3795C28.0436 79.5123 27.267 79.1483 26.5551 79.3838C25.7785 79.63 25.3579 80.4009 25.5197 81.1504L28.0544 86.3001C30.1793 90.6255 31.3334 95.347 31.4413 100.154L43.9749 100.197L44.2122 91.3107C44.2338 89.9189 44.2445 84.0732 44.2122 82.6814V73.2276C44.2122 72.5424 43.8455 71.6431 43.0904 71.2362C42.6374 70.99 41.8794 71.0095 41.4264 71.2878M35.087 67.7674L34.8821 78.174M72.4937 78.1633C72.4937 78.1633 72.4289 69.6196 72.4397 67.9708M72.4397 67.9708C72.4397 67.2213 72.7633 66.4184 73.3674 65.9473C73.8419 65.5833 74.5431 65.4976 75.0716 65.776C75.654 66.0865 75.9237 67.1464 75.9129 67.7674M72.4397 67.9708C71.62 67.7353 70.5522 67.9387 69.9805 68.6667C69.5598 69.1913 69.5167 69.9194 69.5598 70.5939C69.5598 70.5939 69.6785 76.643 69.7216 78.1633M75.9129 67.7674C75.9992 67.4355 76.3875 67.2106 76.6464 67.0929C77.1102 66.8894 77.6387 66.9751 78.0809 67.2321C78.6742 67.5747 78.9978 68.2384 79.0086 68.913L79.2566 81.9533C79.289 82.3816 79.5694 82.767 80.0009 82.9383C80.5618 83.1525 81.1766 82.8741 81.457 82.3495L82.4925 80.3795C82.9563 79.5123 83.7329 79.1483 84.4448 79.3838C85.2214 79.63 85.6421 80.4009 85.4803 81.1504L82.9455 86.3001C80.8206 90.6255 79.6665 95.347 79.5586 100.154L67.0251 100.229L66.7878 91.3107C66.7662 89.9189 66.7554 84.0732 66.7878 82.6814V73.2276C66.7878 72.5424 67.1545 71.6431 67.9095 71.2362C68.3625 70.99 69.1212 71.0419 69.5742 71.3203M75.9129 67.7674L76.1178 78.174M43.2567 45.8293C45.9101 41.7823 45.0535 36.7081 45.0535 36.7081M45.0535 36.7081L50.8134 34.6311C52.2911 34.0958 53.8551 33.8281 55.4406 33.8281C56.9076 33.8281 58.3529 34.0637 59.7444 34.524L66.3347 36.7081M45.0535 36.7081L40.3348 32.2508M66.3347 36.7081C66.3347 36.7081 65.2552 40.5939 67.4556 45.8293M66.3347 36.7081L70.7244 31.8516M26.3826 100.208H21.6474C17.8399 100.208 14.755 97.1457 14.755 93.3663V71.2041C14.755 67.5747 17.3653 64.4484 20.9571 63.7739L40.9224 60.0052C41.7637 59.7483 42.3138 58.9453 42.3138 58.0674V57.5214C42.3138 57.0396 42.7453 56.6863 43.2199 56.7719C46.7254 57.3715 50.9212 57.8318 55.6779 57.8318C60.3268 57.8318 64.4471 57.3715 67.8987 56.7719C68.3733 56.6863 68.8048 57.0503 68.8048 57.5214V58.2066C68.8048 59.1166 69.4412 59.9089 70.3364 60.1123L90.0321 63.806C93.6347 64.4805 96.2342 67.5961 96.2342 71.2362V93.3985C96.2342 97.1778 93.1493 100.24 89.3418 100.24H84.3585" stroke="currentColor" stroke-width="1.5" stroke-linecap="round" stroke-linejoin="round" fill="none" />
</svg>