<?xml version='1.0' encoding='utf-8'?>
<svg xmlns="http://www.w3.org/2000/svg" version="1.1" id="Layer_1" x="0px" y="0px" viewBox="0 0 110 110" style="enable-background:new 0 0 110 110;fill:none;stroke:currentColor;stroke-width:1.5" xml:space="preserve">
<path style="fill:none;stroke:currentColor;stroke-width:1.5;stroke-linecap:round;stroke-linejoin:round" d="M98.4,34.35H80.61  c-1.6,0-3.15-0.59-4.34-1.65l-11.2-9.95c-4.63-4.12-11.63-4.05-16.19,0.15L29.91,40.4c-1.94,1.79-2.19,4.75-0.59,6.84  c1.79,2.34,5.19,2.68,7.4,0.74l10.11-8.83c2.49-2.17,6.23-2.05,8.58,0.27L77.4,61.54c2.08,2.07,2.09,5.42,0.02,7.5  s-5.42,2.09-7.5,0.02L67,66.22l2.76,2.85c2.08,2.07,2.09,5.42,0.02,7.5s-5.42,2.09-7.5,0.02l-3.09-2.99l1.98,2.08  c2.08,2.07,2.09,5.42,0.02,7.5s-5.42,2.09-7.5,0.02l-2.51-2.46l1,1.11c2.08,2.07,2.09,5.42,0.02,7.5c-2.07,2.08-5.42,2.09-7.5,0.02  L29.72,73.9c-1.03-0.93-2.36-1.44-3.75-1.44H11.7 M44.2,57.32l2.98-9.16l2.98,9.16h9.64L52,62.98l2.98,9.16l-7.8-5.66l-7.8,5.66  l2.98-9.16l-7.8-5.66H44.2z" />
</svg>