<?xml version='1.0' encoding='utf-8'?>
<svg xmlns="http://www.w3.org/2000/svg" width="110" height="110" viewBox="0 0 110 110" fill="none" stroke="currentColor" stroke-width="1.5">
<path d="M54.4693 15.4804L58.2793 14.2024C60.0864 13.5932 62.044 14.5941 62.6464 16.4218L66.8629 29.3141C67.4652 31.1418 66.4756 33.1219 64.6686 33.7312L60.8933 34.9783M62.3974 15.8441L82.3412 9.14344C83.7933 8.65386 85.3637 9.45895 85.8477 10.9277L88.7304 19.7292C89.2145 21.198 88.4185 22.7864 86.9664 23.2759L67.0096 29.955M54.0198 32.8499L39.6279 37.6696M60.5597 34.1011L54.4931 15.5515C53.7724 13.3538 51.7395 11.8742 49.4484 11.8851C46.8346 11.9068 43.2313 12.2006 39.6817 13.3865C36.1321 14.5723 33.0666 16.5089 30.9583 18.0755C29.1082 19.4464 28.3553 21.8616 29.076 24.0593L34.2067 39.7367C35.3684 43.3051 34.1637 47.2218 31.1842 49.4738C28.5489 51.4648 27 54.5981 27 57.9272V89.8586C27 93.4597 29.1835 96.6801 32.4857 98.0074C36.8743 99.7807 43.4249 101.815 50.3627 101.815C57.3005 101.815 63.8511 99.7807 68.2397 98.0074C71.5418 96.6692 73.7254 93.4597 73.7254 89.8586V49.9417C73.7254 45.5137 70.8965 41.5971 66.723 40.2589C63.8081 39.3232 61.517 37.0385 60.5597 34.1011ZM35.4007 55.0333H65.3462V80.1758H35.4007V55.0333ZM52.2881 94.2431H48.4481C47.6306 94.2431 46.9422 93.6338 46.8454 92.807L46.243 87.9221C46.1247 86.9429 46.8776 86.0834 47.8457 86.0834H52.8904C53.8585 86.0834 54.6114 86.9429 54.4931 87.9221L53.8908 92.807C53.7939 93.6229 53.1055 94.2431 52.2881 94.2431ZM61.646 86.0834H65.9701C67.562 86.0834 68.2397 88.1397 66.9704 89.1079L60.4091 94.0799C59.4195 94.8306 58.0212 94.0255 58.161 92.7852L58.5805 88.8686C58.7526 87.2911 60.0649 86.0943 61.6353 86.0943L61.646 86.0834ZM39.1008 86.0834H34.7768C33.1849 86.0834 32.5072 88.1397 33.7765 89.1079L40.3378 94.0799C41.3274 94.8306 42.7257 94.0255 42.5859 92.7852L42.1664 88.8686C41.9943 87.2911 40.682 86.0943 39.1116 86.0943L39.1008 86.0834Z" stroke="currentColor" stroke-width="1.5" stroke-linecap="round" stroke-linejoin="round" fill="none" />
</svg>