<?xml version='1.0' encoding='utf-8'?>
<svg xmlns="http://www.w3.org/2000/svg" width="110" height="110" viewBox="0 0 110 110" fill="none" stroke="currentColor" stroke-width="1.5">
<path d="M60.2062 20.6154C60.2062 20.6154 59.2351 22.5857 55.3681 19.6259C51.5012 16.6661 42.7961 13.8311 37.8705 19.6259C32.9449 25.4207 35.5433 32.5527 36.9956 35.3966C38.4479 38.2405 38.8503 40.6565 38.9291 42.2969C39.0078 43.9373 40.7838 44.2671 42.7961 44.2671H66.9691C67.6428 44.2671 69.655 44.1512 70.0924 42.2969C70.5299 40.4426 70.5299 38.8022 71.7985 35.3966C73.067 31.9911 77.529 20.9631 68.3427 16.9514C65.2106 15.6141 60.4687 15.1683 54.782 19.1534M47.5754 67.907H47.6342M47.6342 67.907H62.1397M47.6342 67.907V73.8177M62.1397 67.907H62.1985M62.1397 67.907V73.8177M45.2195 73.8177H47.6342M47.6342 73.8177H62.1397M47.6342 73.8177V78.7388C47.6342 78.7388 47.5826 79.1048 47.5861 79.7284M62.1397 73.8177H64.0732M62.1397 73.8177V78.7388C62.1027 79.0772 62.06 79.407 62.0122 79.7284M46.1819 79.7284H47.5861M47.5861 79.7284H62.0122M47.5861 79.7284C47.5978 81.8108 48.2235 86.7663 53.4346 90.5602C53.4346 90.5602 54.4058 91.5498 56.3393 90.5602C56.3393 90.5602 60.8072 87.8302 62.0122 79.7284M62.0122 79.7284H63.1021M65.5255 49.2596V44.2939H44.2484V49.2596M84 52.9759C84.4877 52.9868 84.9647 53.0098 85.4323 53.0467C87.9338 53.2936 89.8206 55.8808 89.8547 58.8759L89.9999 85.7891C90.0255 90.8669 86.5934 95 82.3417 95H27.7951C23.5861 95 20.1625 90.9313 20.1369 85.8965L20.0003 59.037C19.9747 56.2458 21.5627 53.723 23.8422 53.1863C24.3819 53.0901 24.9336 53.0215 25.5 52.9765M30.0002 66C37.3545 66.0001 44.4866 66.0002 55.5001 66C64.6989 66 72.3627 66 79.5 66C81.1569 66 82.4999 64.6569 82.5 63L82.5 52.1396C82.5 50.4557 81.1148 49.1034 79.4363 49.2393C73.3021 49.7358 65.4132 51.0914 54 51.0914C43.1945 51.0913 35.762 49.5345 29.9614 49.1073C28.3227 48.9866 27 50.3237 27 51.9668V63C27 64.6569 28.3433 66 30.0002 66ZM30.0002 66L41 50.5M50 50.9999L39.5 66M59.5 51.4999L49 66M78 49.4999L66.5 65.9999M69 50.4999L58 65.9999" stroke="currentColor" stroke-width="1.5" stroke-linecap="round" stroke-linejoin="round" fill="none" />
</svg>