<?xml version='1.0' encoding='utf-8'?>
<svg xmlns="http://www.w3.org/2000/svg" width="110" height="110" viewBox="0 0 110 110" fill="none" stroke="currentColor" stroke-width="1.5">
<path d="M40.5721 40.6481C40.5273 40.6481 41.2739 40.5903 41.318 40.5824C43.2762 40.2325 44.7622 38.529 44.7622 36.4802M40.5721 40.6481L48.3043 40.6482C50.377 40.6482 52.3073 39.2606 52.6628 37.2294C53.1234 34.5973 51.0992 32.3122 48.5384 32.3122C48.5384 32.3122 40.2893 32.3122 40.5721 32.3122M40.5721 40.6481C42.8862 40.6481 44.7622 38.7821 44.7622 36.4802M40.5721 40.6481C38.258 40.6481 36.3821 38.782 36.3821 36.4801C36.3821 34.1781 38.258 32.3122 40.5721 32.3122M44.7622 36.4802C44.7622 34.1782 42.8862 32.3122 40.5721 32.3122M50.1735 32.6414C49.9178 32.6414 57.9007 32.6607 57.9007 32.6607C60.0493 32.6607 61.78 34.4403 61.6843 36.5985C61.5931 38.6552 59.7231 40.1955 57.6536 40.1955H50.3143M56.1623 40.1955V44.9815M59.1707 39.9124V44.9815M38.9616 44.9815V36.4801C38.9616 35.5952 39.6824 34.8782 40.5719 34.8782C41.4614 34.8782 42.1822 35.5952 42.1822 36.4801V44.9815M22.2982 30.4338L29.4475 41.5547M11 44.9815H84.1653M31.702 44.9815L46.5036 68.0855C47.1838 69.1435 48.3593 69.7837 49.6218 69.7837H99.7565M33.1438 79.754H99.7723C99.7922 79.754 99.8084 79.7382 99.8089 79.7184L99.9984 71.6148C100.026 70.4211 99.6969 69.2461 99.0522 68.2388L73.8034 28.7935C73.0043 27.6625 71.7699 27 70.4615 27H15.2202C12.8895 27 11 29.0626 11 31.6071V79.7176C11 79.7377 11.0164 79.754 11.0366 79.754H47.3623V69.0181M85.3881 79.754L85.6811 81.2617C85.8995 82.2757 86.8003 83 87.8428 83H92.3131C93.3001 83 94.1676 82.3491 94.4387 81.405L94.9014 79.754M65.074 79.754L65.4021 81.2617C65.6205 82.2757 66.5213 83 67.5638 83H72.0341C73.0211 83 73.8886 82.3491 74.1597 81.405L74.6207 79.754M38.2894 79.754L38.5965 81.2617C38.8149 82.2757 39.7158 83 40.7582 83H45.2285C46.2155 83 47.083 82.3491 47.3542 81.405L47.7861 79.754M18.0339 79.754L18.3175 81.2617C18.5359 82.2757 19.4368 83 20.4792 83H24.9495C25.9365 83 26.804 82.3491 27.0751 81.405L27.5305 79.754" stroke="currentColor" stroke-width="1.5" stroke-miterlimit="10" stroke-linecap="round" stroke-linejoin="round" fill="none" />
</svg>