<?xml version='1.0' encoding='utf-8'?>
<svg xmlns="http://www.w3.org/2000/svg" id="Layer_1" data-name="Layer 1" width="110" height="110" viewBox="0 0 110 110">
  <path d="M55.2692,63.9719h2.9592c9.5263,0,14.2838,7.011,14.2838,14.0221v7.5232M94.6151,77.9257c-2.9023-10.3458-14.8756-18.4381-24.4475-18.4381h-14.9326M55.1553,55.0716h46.9147M94.6149,31.6598c-2.9023,10.3344-14.8757,18.347-24.4476,18.347h-14.9326M55.2689,45.5452h2.9592c9.5264,0,14.2838-7.011,14.2838-14.022v-7.5232" style="fill:none;stroke:currentColor;stroke-dasharray:.5 4;stroke-linecap:round;stroke-miterlimit:10;stroke-width:1.5" />
  <path d="M47.6203,67.3492l-12.1233-1.6516c-1.42-.1934-2.4788-1.4062-2.4788-2.8393v-15.7985c0-1.4331,1.0587-2.6459,2.4788-2.8393l12.1233-1.6516c1.7204-.2344,3.2524,1.103,3.2524,2.8393v19.1017c0,1.7363-1.5319,3.0737-3.2524,2.8393ZM33.0183,47.3663H6.413M33.0183,62.572H6.413" style="fill:none;stroke:currentColor;stroke-linecap:round;stroke-linejoin:round;stroke-width:1.5" />
</svg>