<?xml version='1.0' encoding='utf-8'?>
<svg xmlns="http://www.w3.org/2000/svg" width="111" height="110" viewBox="0 0 111 110" fill="none" stroke="currentColor" stroke-width="1.5">
<path d="M28.0216 59.5189H29.9221M29.9221 59.5189H31.8225M29.9221 59.5189L29.9221 65.3153M21.94 59.5189V65.3153M21.94 59.5189H19.8494M21.94 59.5189H24.0306M35.6236 59.5189H37.524M37.524 59.5189H39.4244M37.524 59.5189L37.524 65.3153M19.1158 34.6681H27.0847M19.1158 39.0751H27.0847M27.4176 48.2887V51.6102C27.4176 52.5506 26.6551 53.3131 25.7146 53.3129L17.3166 53.3114C15.9163 53.3114 14.7794 54.4485 14.7794 55.8487V65.3174M31.2738 48.2887V51.6102C31.2738 52.5506 32.0363 53.3131 32.9767 53.3129L41.3733 53.3114C42.7735 53.3114 43.9104 54.4485 43.9104 55.8487V65.9628M96.3224 71.8466H14.7V81.0323H96.3224V71.8466ZM96.3224 71.8466V68.2327C96.3224 66.4809 95.2227 65.0607 93.8661 65.0607H76.9761C75.6196 65.0607 74.5199 66.4809 74.5199 68.2327V71.8466M85.6998 84.2598C85.6998 85.5934 84.6187 86.6744 83.2852 86.6744H62.4894C61.2234 86.6744 60.1972 87.7007 60.1972 88.9667V90.7975M26.7819 84.2598C26.7819 85.5934 27.863 86.6744 29.1965 86.6744H48.5329C49.7989 86.6744 50.8251 87.7007 50.8251 88.9667V90.7975M92.8502 24.7894V56.4016M87.7195 24.7894H96.3224V19.7H53.7489V27.242C53.7489 28.933 55.1196 30.3039 56.8107 30.3039H81.1787C82.8697 30.3039 84.2406 28.933 84.2406 27.242M59.6656 33.7589H78.5337M68.9556 36.676V38.4139M65.4534 36.676L64.2421 37.9479M72.7459 36.676L73.9572 37.9479M14.7816 27.8595H43.9095V48.2887H14.7816V27.8595ZM39.2601 34.5145C38.8874 34.1788 38.4497 33.916 37.9435 33.8635C37.1865 33.7851 36.4075 34.1366 35.8804 34.6737C35.3531 34.1366 34.5743 33.785 33.8173 33.8635C33.3111 33.916 32.8733 34.1788 32.5006 34.5145C31.6547 35.2762 31.6758 36.5694 32.1653 37.5158C32.426 38.0198 32.833 38.4148 33.2397 38.8015C33.7478 39.2845 34.3027 39.7105 34.8407 40.1567C35.1801 40.438 35.8731 41.0252 35.8804 41.0191C35.8876 41.0252 36.5808 40.438 36.9202 40.1567C37.4581 39.7105 38.013 39.2845 38.5212 38.8015C38.9278 38.4148 39.3347 38.0198 39.5954 37.5158C40.085 36.5694 40.106 35.2763 39.2601 34.5145Z" stroke="currentColor" stroke-width="1.5" stroke-linecap="round" stroke-linejoin="round" fill="none" />
</svg>