<?xml version='1.0' encoding='utf-8'?>
<svg xmlns="http://www.w3.org/2000/svg" id="Layer_1" data-name="Layer 1" width="110" height="110" viewBox="0 0 110 110">
  <path d="M34.4985,65.9893v-24.0309M42.182,37.5179l20.7641,12.0518v7.4411l5.5906-3.2182v-7.4538l-20.7641-12.0635M39.7863,44.9958l15.5249,8.9658.0117.0124v18.2589M76.148,66.0011v.0248l-20.8127,12.027h-.0124l-.0117-.0121M55.3112,78.0408l-20.8127-12.0274v-.0241M34.4985,41.9584l7.6836-4.4405,5.5906-3.2427,7.5386-4.3562,20.8368,12.0277v24.0544M47.4213,55.9224l-5.554-3.1948" style="fill:none;fill-rule:evenodd;stroke:currentColor;stroke-linecap:round;stroke-linejoin:round;stroke-width:1.5" />
  <path d="M33.3984,28.7688l-5.1902-9.3415,12.5058-6.9484,5.1902,9.3415c.7441,1.3392,2.258,2.0563,3.7626,1.7676,1.4316-.2747,2.8904-.4468,4.3668-.5097,1.5177-.0646,2.814-1.0969,3.2313-2.5575,1.0697-3.7447,2.9372-10.2817,2.9372-10.2817l13.7485,3.9275-2.9323,10.2651c-.4187,1.4655.1365,3.0401,1.395,3.8999,1.2178.832,2.3632,1.7471,3.4316,2.7347,1.1251,1.0399,2.7894,1.2307,4.1286.4867l9.3415-5.1902,6.9484,12.5058-9.3415,5.1902c-1.3392.7441-2.0563,2.2581-1.7676,3.7626.2742,1.4292.4463,2.8856.5094,4.3595.0652,1.5221,1.1003,2.8222,2.5651,3.2407,3.7458,1.0701,10.2744,2.9351,10.2744,2.9351l-3.9275,13.7485-10.2651-2.9323c-1.4655-.4187-3.0401.1365-3.8999,1.395-.832,1.2178-1.7471,2.3632-2.7347,3.4316-1.0399,1.1251-1.2307,2.7894-.4867,4.1286l5.1902,9.3415-12.5058,6.9484-5.1902-9.3415c-.7441-1.3392-2.2581-2.0563-3.7626-1.7676-1.4292.2742-2.8856.4463-4.3595.5094-1.5221.0652-2.8222,1.1003-3.2407,2.5651-1.0701,3.7458-2.9351,10.2744-2.9351,10.2744l-13.7485-3.9275,2.9323-10.2651c.4187-1.4655-.1365-3.0401-1.395-3.8999-1.2178-.832-2.3632-1.7471-3.4316-2.7347-1.1251-1.0399-2.7894-1.2307-4.1286-.4867l-9.3415,5.1902-6.9484-12.5058,9.3415-5.1902c1.3392-.7441,2.0563-2.2581,1.7676-3.7626-.2742-1.4292-.4463-2.8856-.5094-4.3595-.0652-1.5221-1.1003-2.8222-2.5651-3.2407-3.7458-1.0701-10.2744-2.9351-10.2744-2.9351l3.9275-13.7485,10.2651,2.9323c1.4655.4187,3.0401-.1365,3.8999-1.395.832-1.2178,1.7471-2.3632,2.7347-3.4316,1.0399-1.1251,1.2307-2.7894.4867-4.1286Z" style="fill:none;stroke:currentColor;stroke-linecap:round;stroke-linejoin:round;stroke-width:1.5" />
</svg>