<?xml version='1.0' encoding='utf-8'?>
<svg xmlns="http://www.w3.org/2000/svg" width="110" height="110" viewBox="0 0 110 110" fill="none" stroke="currentColor" stroke-width="1.5">
<path d="M71.3217 99.2288H18.6979C15.4261 99.2288 12.7712 96.5739 12.7712 93.3021V46.1527C12.7712 42.8809 15.4261 40.226 18.6979 40.226H20.2291M71.3217 99.2288V88M71.3217 99.2288L87.3611 99.2178C92.3183 99.1517 96.2951 94.8995 96.229 90.2176L96.1849 86.9458C96.1298 82.2639 92.0539 78.5184 87.0967 78.5845L77.8872 78.6726M20.2291 40.226C21.9476 40.226 23.3467 38.8269 23.3467 37.1084V32.041M20.2291 40.226L40.6749 40.226M55.5797 32.041V37.1084C55.5797 38.8269 56.9897 40.226 58.7083 40.226M58.7083 40.226L60.2285 40.226C63.5002 40.226 66.1551 42.8809 66.1551 46.1527V54.0293H12.7712M58.7083 40.226H49.6641M12.7712 86.417H39.4742M25.8804 32.041V25.8168M32.6663 32.041V25.8168M39.4522 32.041V25.8168M46.2381 32.041V25.8168M53.024 32.041V25.8168M71.7623 82.8477L81.5115 70.113C84.5189 66.1802 83.9681 60.6721 80.2447 57.8299L77.6449 55.847C73.9214 52.9938 68.4685 53.8861 65.4501 57.8189L55.6898 70.5536M71.7623 82.8477L55.6898 70.5536M71.7623 82.8477L62.0131 95.5825C58.9947 99.5153 53.5417 100.408 49.8183 97.5544L47.2185 95.5715C43.4951 92.7293 42.9332 87.2212 45.9406 83.2884L55.6898 70.5536M84.9045 82.2198C84.9045 82.2198 92.1971 80.8428 92.2302 88.3889M67.3779 62.0381C67.3779 62.0381 70.3963 55.2631 76.6204 59.5264M61.5945 15.3844V32.041H17.3429V15.3844C17.3429 13.4015 18.9513 11.7711 20.9562 11.7711H57.9922C59.9751 11.7711 61.5945 13.3905 61.5945 15.3844ZM54.412 83.6629C53.74 84.5442 52.4842 84.7095 51.6139 84.0375C50.7326 83.3655 50.5674 82.1097 51.2394 81.2394C51.9113 80.3581 53.1672 80.1928 54.0374 80.8648C54.9187 81.5368 55.084 82.7927 54.412 83.6629ZM60.7022 81.3826C60.2395 81.9885 59.3802 82.0986 58.7743 81.636C58.1685 81.1733 58.0583 80.314 58.521 79.7081C58.9837 79.1022 59.8429 78.9921 60.4488 79.4547C61.0547 79.9174 61.1648 80.7767 60.7022 81.3826ZM63.7095 89.4685C63.2469 90.0744 62.3876 90.1845 61.7817 89.7219C61.1759 89.2592 61.0657 88.3999 61.5284 87.794C61.991 87.1881 62.8503 87.078 63.4562 87.5406C64.0621 88.0033 64.1722 88.8626 63.7095 89.4685ZM56.7694 94.0072C55.6458 95.4723 53.5527 95.7477 52.0876 94.6241C50.6225 93.5004 50.3471 91.4073 51.4707 89.9422C52.5943 88.477 54.6874 88.2016 56.1525 89.3253C57.6177 90.4489 57.8931 92.542 56.7694 94.0072Z" stroke="currentColor" stroke-width="1.5" stroke-linecap="round" stroke-linejoin="round" fill="none" />
<path d="M33.4431 59C35.7293 59 38.3739 61.0922 39.4799 63.2337C40.5427 61.0922 43.1564 59 45.4488 59C51.4732 59 54.6615 67.2274 49.1747 72.5995L39.4794 82L29.9829 72.5995C24.3168 67.5228 27.4248 59 33.4431 59Z" stroke="currentColor" stroke-width="1.5" stroke-linecap="round" stroke-linejoin="round" fill="none" />
</svg>