<?xml version='1.0' encoding='utf-8'?>
<svg xmlns="http://www.w3.org/2000/svg" width="110" height="110" viewBox="0 0 110 110" fill="none" stroke="currentColor" stroke-width="1.5">
<path d="M62.1374 16.8602C57.2441 11.9669 49.2905 11.987 44.3724 16.9051L28.9348 32.3427C24.0167 37.2608 23.9966 45.2144 28.8898 50.1077L60.786 82.0039C65.6793 86.8971 73.6329 86.877 78.551 81.9589L93.9886 66.5213C98.9067 61.6032 98.9268 53.6496 94.0335 48.7563M83.6303 76.8795L62.8497 97.6601C59.4088 101.101 53.8377 101.115 50.4142 97.6915L31.8081 79.0855L13.202 60.4794C9.77851 57.0559 9.79259 51.4848 13.2335 48.0439L34.0141 27.2633M68.5 23.2228L74.4142 29.137M80.9635 35.6862L87.5 42.2228" stroke="currentColor" stroke-width="1.5" stroke-miterlimit="10" stroke-linecap="round" fill="none" />
<path d="M48.4884 34.9121L48.3114 33.5212L49.1398 32.6708M49.1398 32.678L49.5505 33.1032L51.8516 30.7394M51.8516 30.7394L51.3772 30.2565L65.6439 15.8432L65.9979 15.4756C66.6139 14.8415 67.6193 14.8415 68.2352 15.4756L69.538 16.8089C70.154 17.4431 70.154 18.4736 69.538 19.1078L69.184 19.4754L55.158 34.1337L54.6837 33.6509M51.8516 30.7394L54.6837 33.6437L52.3826 36.0075L52.7932 36.4327L51.9648 37.283L50.6054 37.1029M63.0456 18.4682L66.6347 22.1396M46.0458 37.1605L39.3054 44.1329M41.717 46.633L48.4884 39.6322M48.4884 39.6322L50.1523 41.3404C50.301 41.4917 50.5346 41.4917 50.6762 41.3404L52.4534 39.5171C52.595 39.373 52.595 39.1352 52.4534 38.9838L46.7042 33.0816C46.5555 32.9302 46.3219 32.9302 46.1803 33.0816L44.4031 34.9048C44.2615 35.049 44.2615 35.2868 44.4031 35.4381L48.4884 39.6322ZM40.5 39.1458C39.5794 39.9698 39 41.1673 39 42.5C39 44.9853 41.0147 47 43.5 47C44.9136 47 46.175 46.3482 47 45.3287" stroke="currentColor" stroke-width="1.5" stroke-linecap="round" fill="none" />
<path d="M57.4884 50.9121L57.3114 49.5212L58.1398 48.6708M58.1398 48.678L58.5505 49.1032L60.8516 46.7394M60.8516 46.7394L60.3772 46.2565L69.9914 36.5M60.8516 46.7394L63.6837 49.6437L61.3826 52.0075L61.7932 52.4327L60.9648 53.283L59.6054 53.1029M63.6837 49.6509L64.158 50.1337L73.677 40.1856M72 34.4895L75.6347 38.1396M55.0458 53.1605L48.3054 60.1329M50.717 62.633L57.4884 55.6322M57.4884 55.6322L59.1523 57.3404C59.301 57.4917 59.5346 57.4917 59.6762 57.3404L61.4534 55.5171C61.595 55.373 61.595 55.1352 61.4534 54.9838L55.7042 49.0816C55.5555 48.9302 55.3219 48.9302 55.1803 49.0816L53.4031 50.9048C53.2615 51.049 53.2615 51.2868 53.4031 51.4381L57.4884 55.6322ZM49.5 55.1458C48.5794 55.9698 48 57.1673 48 58.5C48 60.9853 50.0147 63 52.5 63C53.9136 63 55.175 62.3482 56 61.3287M69.9914 36.5L74.6439 31.8432L74.9979 31.4756C75.6139 30.8415 76.6193 30.8415 77.2352 31.4756L78.538 32.8089C79.154 33.4431 79.154 34.4736 78.538 35.1078L78.184 35.4754L73.677 40.1856M69.9914 36.5L73.677 40.1856" stroke="currentColor" stroke-width="1.5" stroke-linecap="round" fill="none" />
<path d="M75.4884 58.9121L75.3114 57.5212L76.1398 56.6708M76.1398 56.678L76.5505 57.1032L78.8516 54.7394M78.8516 54.7394L78.3772 54.2565L87.9914 44.5M78.8516 54.7394L81.6837 57.6437L79.3826 60.0075L79.7932 60.4327L78.9648 61.283L77.6054 61.1029M92.5782 39.8453L87.9914 44.5M92.6439 39.8432L92.9979 39.4756C93.6139 38.8415 94.6193 38.8415 95.2352 39.4756L96.538 40.8089C97.154 41.4431 97.154 42.4736 96.538 43.1078L96.184 43.4754L91.677 48.1856M81.6837 57.6509L82.158 58.1337L91.677 48.1856M89.9874 42.4383L93.6347 46.1396M73.0458 61.1605L66.3054 68.1329M68.717 70.633L75.4884 63.6322M75.4884 63.6322L77.1523 65.3404C77.301 65.4917 77.5346 65.4917 77.6762 65.3404L79.4534 63.5171C79.595 63.373 79.595 63.1352 79.4534 62.9838L73.7042 57.0816C73.5555 56.9302 73.3219 56.9302 73.1803 57.0816L71.4031 58.9048C71.2615 59.049 71.2615 59.2868 71.4031 59.4381L75.4884 63.6322ZM67.5 63.1458C66.5794 63.9698 66 65.1673 66 66.5C66 68.9853 68.0147 71 70.5 71C71.9136 71 73.175 70.3482 74 69.3287M87.9914 44.5L91.677 48.1856" stroke="currentColor" stroke-width="1.5" stroke-linecap="round" fill="none" />
</svg>