<?xml version='1.0' encoding='utf-8'?>
<svg xmlns="http://www.w3.org/2000/svg" width="110" height="110" viewBox="0 0 110 110" fill="none" stroke="currentColor" stroke-width="1.5">
<path d="M73.018 22C75.5805 22 77.7591 24.1408 77.9913 26.6532C78.0538 27.7324 77.777 28.7321 77.2502 29.5725C75.8484 31.8017 75.1877 34.4114 75.5269 37.0122L75.7323 38.5869C75.8841 39.7723 74.4466 40.4711 73.5983 39.6307L70.9643 35.2164C70.0804 33.7391 67.9196 33.7391 67.0357 35.2164L64.4017 39.6307C63.5534 40.4711 62.1159 39.7634 62.2677 38.5869L62.4731 37.0122C62.8123 34.4026 62.1516 31.8017 60.7498 29.5725C60.223 28.7321 59.9462 27.7236 60.0087 26.6532C60.2409 24.1408 62.4373 22 64.9999 22C66.6428 22 68.0982 22.7785 69.0089 23.9816C69.9197 22.7785 71.3751 22 73.018 22Z" stroke="currentColor" stroke-width="1.5" stroke-linecap="round" stroke-linejoin="round" fill="none" />
<path d="M16 60.5234L29.9992 50.1037C31.2929 49.0816 33.165 49.1963 34.322 50.3749C35.6052 51.6787 35.707 53.6677 34.3397 54.8881M34.3397 54.8881L24.3722 63.1205M34.3397 54.8881C35.6754 53.6886 37.7192 53.9107 38.9709 55.204C40.2856 56.5495 40.1278 58.8129 38.729 60.0749M38.1189 80.7369C33.712 84.9089 36.0364 92.888 52.5914 91.4382M52.5914 91.4382C52.36 91.4382 52.8333 91.4173 52.5914 91.4382ZM52.5914 91.4382C59.7225 91.4278 59.733 96.6845 59.733 98.854L22.3002 99M43.5162 64.8951C44.8835 63.5184 44.8503 61.3161 43.4094 60.0123C42.0736 58.8129 40.0226 58.8337 38.729 60.0749M38.729 60.0749L30.0833 68.0435M38.3082 80.5283L59.8066 58.9797C61.1739 57.603 61.1003 55.3814 59.6594 54.0776C58.3236 52.8781 56.2726 52.899 54.9789 54.1402L35.0582 72.8309M52.0129 73.7347V79.1411C52.0129 83.1004 55.3471 86.4839 59.4385 86.4735L86.606 86.4317C90.6974 86.4317 94.0105 83.1254 94 79.0681L93.9053 20.2841C93.9053 16.2268 90.5712 12.9413 86.4797 12.9517L59.3123 12.9935C55.5527 12.9935 53.7518 15.0332 52.5212 17.4008M47.4272 71.3811V76.1894C47.4377 80.2467 50.7613 83.5322 54.8527 83.5218L82.0202 83.48C86.1116 83.48 89.4247 80.1737 89.4142 76.1164L89.3196 17.3324C89.3196 13.2751 85.9854 9.98959 81.894 10L54.7265 10.0417C50.6351 10.0417 47.322 13.3481 47.3325 17.4054L47.4062 61.2454M49.9401 68.9092V73.7383L86.9943 73.6757L86.8996 17.3428L49.8454 17.4054L49.9813 58.8679M64.6448 55.5378L81.4943 55.5065M64.6553 58.6251L81.4943 58.6043M62.7832 61.7229L81.5048 61.6916M59.6699 64.8206L81.5048 64.7893M56.5566 67.9183L81.5154 67.8766M86.1852 11.3351L90.5081 14.1199M51.0768 82.4996L55.3997 85.274M65.9385 80.278L72.1755 80.2676M80.0808 46.5399C80.8533 46.5387 81.4806 47.1692 81.4819 47.9354C81.4831 48.7015 80.8578 49.3235 80.0852 49.3248C79.3126 49.326 78.6748 48.7059 78.6736 47.9397C78.6724 47.1736 79.3082 46.5411 80.0808 46.5399ZM71.6666 46.5635C72.4392 46.5623 73.0664 47.1928 73.0677 47.9589C73.0689 48.725 72.4436 49.3471 71.671 49.3483L71.6605 49.3483C70.8879 49.3495 70.2606 48.7294 70.2594 47.9633C70.2582 47.1972 70.894 46.5647 71.6666 46.5635ZM63.2208 46.5662C63.9934 46.565 64.6312 47.1851 64.6324 47.9512C64.6336 48.7173 64.0083 49.3498 63.2357 49.351C62.4632 49.3522 61.8254 48.7321 61.8242 47.966C61.823 47.1999 62.4482 46.5674 63.2208 46.5662ZM54.8066 46.5793C55.5792 46.5781 56.217 47.1982 56.2182 47.9643C56.2194 48.7304 55.5941 49.3629 54.8215 49.3641C54.049 49.3653 53.4112 48.7452 53.41 47.9791C53.4087 47.213 54.034 46.5805 54.8066 46.5793Z" stroke="currentColor" stroke-width="1.5" stroke-linecap="round" stroke-linejoin="round" fill="none" />
</svg>