<?xml version='1.0' encoding='utf-8'?>
<svg xmlns="http://www.w3.org/2000/svg" id="Layer_1" data-name="Layer 1" width="110" height="110" viewBox="0 0 110 110">
  <rect width="110" height="110" style="fill:none;stroke:currentColor;stroke-width:1.5" />
  <path d="M39.5026,46.4179l2.8599,6.7719M42.3625,53.1898l-5.7813,4.1549-4.0447-.5873M42.3625,53.1898l-1.7365,5.9387,1.1541,5.3404M42.3625,53.1898l2.8799,4.7532h3.4731l.5716,4.1549M54.9777,57.8511c0-.1405-.0226-.2693-.0339-.3981-.5758-6.4281-5.8825-11.4862-12.149-11.4979-4.0082,0-7.5649,1.9904-9.8004,5.0698-2.2243-3.0911-5.781-5.0815-9.7892-5.0815-6.2665,0-11.5844,5.0698-12.149,11.4979-.0113.1288-.0226.2693-.0339.3981-.158,2.7398.5307,5.3158,1.8179,7.4584,3.4211,5.7022,5.0357,12.3527,4.2115,19.015l-.4968,4.0278c-.3726,3.0091,3.1501,4.8123,5.2163,2.6579l6.4358-11.2989c2.1566-3.782,7.4294-3.782,9.586,0l6.4358,11.2989c2.0775,2.1544,5.5889.3512,5.2163-2.6579l-.4968-4.0278c-.8242-6.6506.7904-13.3128,4.2115-19.015,1.2872-2.1426,1.9759-4.7068,1.8179-7.4584v.0117ZM39.913,43.854v-5.299h15.2329M92.0963,31.9752h-30.4938v13.0807h30.4938v-13.0807ZM92.0963,27.15v22.81M103.9752,35.7019h-11.8789v5.5027h11.8789v-5.5027ZM103.9752,32.58v11.74M92.0963,38.55h9.2137M84.5217,45.0559v-5.4159M77.95,45.0559v-5.4159M71.43,45.0559v-5.4159M64.91,45.0559v-5.4159M68.1149,45.0559v-3.7859M74.7391,45.0559v-3.7859M81.2236,45.0559v-3.7859M59.5497,36.4101l-4.4037.4843v3.5138l4.4037.2253v-4.2234ZM61.6025,32.1988l-2.0497.5963v10.9287l2.0497.5963v-12.1212ZM65.1801,34.205h12.7699M80.8975,34.21h.5963" style="fill:none;stroke:currentColor;stroke-linecap:round;stroke-linejoin:round;stroke-width:1.5" />
</svg>