<?xml version='1.0' encoding='utf-8'?>
<svg xmlns="http://www.w3.org/2000/svg" version="1.1" id="Layer_1" x="0px" y="0px" viewBox="0 0 110 110" style="enable-background:new 0 0 110 110;fill:none;stroke:currentColor;stroke-width:1.5" xml:space="preserve">
<path style="fill:none;stroke:currentColor;stroke-width:1.5;stroke-linecap:round;stroke-miterlimit:10" d="M67.827,69.001  c0,0,9.145-3.999,14.786-6.532c5.933-2.664,9.467-0.213,11.874,3.618L65.119,83.356l-29.95-6.551 M24.373,64.23  c7.652-6.081,13.443-8.367,19.27-7.092c4.875,1.066,7.336,2.207,10.834,5.898c3.185,0.697,7.49,1.638,8.924,1.952  c1.433,0.314,6.015,1.983,4.365,8.926l-18.785-4.109 M12.867,65.251l8.708-5.473l15.262,24.284l-8.708,5.473 M59,45.5h-4.121  c-3.035,0-5.494-2.442-5.494-5.455v-4.091c0-3.013,2.46-5.455,5.494-5.455H59 M46.5,36.125h9.615 M46.5,39.875h9.615 M19.069,68.945  c-0.888,0.558-1.163,1.717-0.615,2.59c0.548,0.872,1.712,1.127,2.6,0.569c0.888-0.558,1.163-1.717,0.615-2.59  S19.957,68.387,19.069,68.945z M69,38c0,8.284-6.716,15-15,15s-15-6.716-15-15s6.716-15,15-15S69,29.716,69,38z" />
</svg>