<?xml version='1.0' encoding='utf-8'?>
<svg xmlns="http://www.w3.org/2000/svg" id="Layer_1" data-name="Layer 1" width="110" height="110" viewBox="0 0 110 110">
  <polyline points="8.6483 86.2552 8.6483 57.967 37.4242 57.967 37.4242 30.4104 46.9348 30.4104" style="fill:none;stroke:currentColor;stroke-miterlimit:10;stroke-width:1.5" />
  <polyline points="101.3164 86.2552 101.3164 57.967 72.5405 57.967 72.5405 30.4104 63.0298 30.4104" style="fill:none;stroke:currentColor;stroke-miterlimit:10;stroke-width:1.5" />
  <polygon points="50.0851 5.279 59.9716 5.279 59.9716 15.1654 69.858 15.1654 69.858 25.0518 59.9716 25.0518 59.9716 34.9383 50.0851 34.9383 50.0851 25.0518 40.1987 25.0518 40.1987 15.1654 50.0851 15.1654 50.0851 5.279" style="fill:none;stroke:currentColor;stroke-linecap:round;stroke-linejoin:round;stroke-width:1.5" />
  <g>
    <line x1="51.0805" y1="44.3107" x2="65.9562" y2="44.3107" style="fill:none;stroke:currentColor;stroke-linecap:round;stroke-linejoin:round;stroke-width:1.5" />
    <line x1="48.4643" y1="44.3107" x2="44.1657" y2="44.3107" style="fill:none;stroke:currentColor;stroke-linecap:round;stroke-linejoin:round;stroke-width:1.5" />
  </g>
  <g>
    <line x1="51.0805" y1="49.5742" x2="65.9562" y2="49.5742" style="fill:none;stroke:currentColor;stroke-linecap:round;stroke-linejoin:round;stroke-width:1.5" />
    <line x1="48.4643" y1="49.5742" x2="44.1657" y2="49.5742" style="fill:none;stroke:currentColor;stroke-linecap:round;stroke-linejoin:round;stroke-width:1.5" />
  </g>
  <g>
    <line x1="51.0805" y1="54.8378" x2="65.9562" y2="54.8378" style="fill:none;stroke:currentColor;stroke-linecap:round;stroke-linejoin:round;stroke-width:1.5" />
    <line x1="48.4643" y1="54.8378" x2="44.1657" y2="54.8378" style="fill:none;stroke:currentColor;stroke-linecap:round;stroke-linejoin:round;stroke-width:1.5" />
  </g>
  <g>
    <line x1="51.0805" y1="60.1013" x2="65.9562" y2="60.1013" style="fill:none;stroke:currentColor;stroke-linecap:round;stroke-linejoin:round;stroke-width:1.5" />
    <line x1="48.4643" y1="60.1013" x2="44.1657" y2="60.1013" style="fill:none;stroke:currentColor;stroke-linecap:round;stroke-linejoin:round;stroke-width:1.5" />
  </g>
  <g>
    <line x1="51.0805" y1="65.3649" x2="65.9562" y2="65.3649" style="fill:none;stroke:currentColor;stroke-linecap:round;stroke-linejoin:round;stroke-width:1.5" />
    <line x1="48.4643" y1="65.3649" x2="44.1657" y2="65.3649" style="fill:none;stroke:currentColor;stroke-linecap:round;stroke-linejoin:round;stroke-width:1.5" />
  </g>
  <g>
    <line x1="25.4801" y1="65.3649" x2="32.9807" y2="65.3649" style="fill:none;stroke:currentColor;stroke-linecap:round;stroke-linejoin:round;stroke-width:1.5" />
    <line x1="17.0584" y1="65.3649" x2="12.7599" y2="65.3649" style="fill:none;stroke:currentColor;stroke-linecap:round;stroke-linejoin:round;stroke-width:1.5" />
    <line x1="23.5063" y1="65.3649" x2="19.2077" y2="65.3649" style="fill:none;stroke:currentColor;stroke-linecap:round;stroke-linejoin:round;stroke-width:1.5" />
  </g>
  <g>
    <line x1="25.4801" y1="69.9558" x2="32.9807" y2="69.9558" style="fill:none;stroke:currentColor;stroke-linecap:round;stroke-linejoin:round;stroke-width:1.5" />
    <line x1="17.0584" y1="69.9558" x2="12.7599" y2="69.9558" style="fill:none;stroke:currentColor;stroke-linecap:round;stroke-linejoin:round;stroke-width:1.5" />
    <line x1="23.5063" y1="69.9558" x2="19.2077" y2="69.9558" style="fill:none;stroke:currentColor;stroke-linecap:round;stroke-linejoin:round;stroke-width:1.5" />
  </g>
  <g>
    <line x1="25.4801" y1="74.5468" x2="32.9807" y2="74.5468" style="fill:none;stroke:currentColor;stroke-linecap:round;stroke-linejoin:round;stroke-width:1.5" />
    <line x1="17.0584" y1="74.5468" x2="12.7599" y2="74.5468" style="fill:none;stroke:currentColor;stroke-linecap:round;stroke-linejoin:round;stroke-width:1.5" />
    <line x1="23.5063" y1="74.5468" x2="19.2077" y2="74.5468" style="fill:none;stroke:currentColor;stroke-linecap:round;stroke-linejoin:round;stroke-width:1.5" />
  </g>
  <g>
    <line x1="25.4801" y1="79.1378" x2="32.9807" y2="79.1378" style="fill:none;stroke:currentColor;stroke-linecap:round;stroke-linejoin:round;stroke-width:1.5" />
    <line x1="17.0584" y1="79.1378" x2="12.7599" y2="79.1378" style="fill:none;stroke:currentColor;stroke-linecap:round;stroke-linejoin:round;stroke-width:1.5" />
    <line x1="23.5063" y1="79.1378" x2="19.2077" y2="79.1378" style="fill:none;stroke:currentColor;stroke-linecap:round;stroke-linejoin:round;stroke-width:1.5" />
  </g>
  <g>
    <line x1="84.5184" y1="79.1378" x2="77.0179" y2="79.1378" style="fill:none;stroke:currentColor;stroke-linecap:round;stroke-linejoin:round;stroke-width:1.5" />
    <line x1="92.9401" y1="79.1378" x2="97.2387" y2="79.1378" style="fill:none;stroke:currentColor;stroke-linecap:round;stroke-linejoin:round;stroke-width:1.5" />
    <line x1="86.4923" y1="79.1378" x2="90.7908" y2="79.1378" style="fill:none;stroke:currentColor;stroke-linecap:round;stroke-linejoin:round;stroke-width:1.5" />
  </g>
  <g>
    <line x1="84.5184" y1="74.5468" x2="77.0179" y2="74.5468" style="fill:none;stroke:currentColor;stroke-linecap:round;stroke-linejoin:round;stroke-width:1.5" />
    <line x1="92.9401" y1="74.5468" x2="97.2387" y2="74.5468" style="fill:none;stroke:currentColor;stroke-linecap:round;stroke-linejoin:round;stroke-width:1.5" />
    <line x1="86.4923" y1="74.5468" x2="90.7908" y2="74.5468" style="fill:none;stroke:currentColor;stroke-linecap:round;stroke-linejoin:round;stroke-width:1.5" />
  </g>
  <g>
    <line x1="84.5184" y1="69.9558" x2="77.0179" y2="69.9558" style="fill:none;stroke:currentColor;stroke-linecap:round;stroke-linejoin:round;stroke-width:1.5" />
    <line x1="92.9401" y1="69.9558" x2="97.2387" y2="69.9558" style="fill:none;stroke:currentColor;stroke-linecap:round;stroke-linejoin:round;stroke-width:1.5" />
    <line x1="86.4923" y1="69.9558" x2="90.7908" y2="69.9558" style="fill:none;stroke:currentColor;stroke-linecap:round;stroke-linejoin:round;stroke-width:1.5" />
  </g>
  <g>
    <line x1="84.5184" y1="65.3649" x2="77.0179" y2="65.3649" style="fill:none;stroke:currentColor;stroke-linecap:round;stroke-linejoin:round;stroke-width:1.5" />
    <line x1="92.9401" y1="65.3649" x2="97.2387" y2="65.3649" style="fill:none;stroke:currentColor;stroke-linecap:round;stroke-linejoin:round;stroke-width:1.5" />
    <line x1="86.4923" y1="65.3649" x2="90.7908" y2="65.3649" style="fill:none;stroke:currentColor;stroke-linecap:round;stroke-linejoin:round;stroke-width:1.5" />
  </g>
  <g>
    <polygon points="65.2246 97.8387 45.5936 97.8387 45.5936 79.9147 54.8604 79.9147 65.2246 79.9147 65.2246 97.8387" style="fill:none;stroke:currentColor;stroke-linecap:round;stroke-linejoin:round;stroke-width:1.5" />
    <line x1="54.9797" y1="80.7682" x2="54.9797" y2="97.1071" style="fill:none;stroke:currentColor;stroke-linecap:round;stroke-linejoin:round;stroke-width:1.5" />
    <line x1="33.0346" y1="98.2045" x2="75.9546" y2="98.2045" style="fill:none;stroke:currentColor;stroke-linecap:round;stroke-linejoin:round;stroke-width:1.5" />
  </g>
  <path d="M7.4444,96.3386s-1.4273-5.3797,3.0741-6.5874c0,0,.6587-4.5014,5.7091-3.9525,0,0,6.2581-2.3056,6.807,3.9525,0,0,4.172,1.5371,3.2937,6.4776,0,0,7.4658,2.1958,0,3.2937-7.4658,1.0979-19.6525,0-19.6525,0,0,0-3.5133-.7685-.6587-3.0741,2.8546-2.3056,1.4273-.1098,1.4273-.1098Z" style="fill:none;stroke:currentColor;stroke-linecap:round;stroke-linejoin:round;stroke-width:1.5" />
  <path d="M101.6976,96.3386s1.4273-5.3797-3.0741-6.5874c0,0-.6587-4.5014-5.7091-3.9525,0,0-6.2581-2.3056-6.807,3.9525,0,0-4.172,1.5371-3.2937,6.4776,0,0-7.4658,2.1958,0,3.2937,7.4658,1.0979,19.6525,0,19.6525,0,0,0,3.5133-.7685.6587-3.0741-2.8546-2.3056-1.4273-.1098-1.4273-.1098Z" style="fill:none;stroke:currentColor;stroke-linecap:round;stroke-linejoin:round;stroke-width:1.5" />
  <path d="M11.3308,54.0555c0-.4491,1.2319-15.1167,2.0062-24.2912.0949-1.1247,1.7115-1.1959,1.9127-.0853l4.3771,24.1582,5.1579-13.9426c.6479-1.7513,3.1105-1.7909,3.8144-.0614l5.6549,13.8948" style="fill:none;stroke:currentColor;stroke-linecap:round;stroke-linejoin:round;stroke-width:1.5" />
  <path d="M101.6212,53.8726c0-.4491-1.2319-15.1167-2.0062-24.2912-.0949-1.1247-1.7115-1.1959-1.9127-.0853l-4.3771,24.1582-5.1579-13.9426c-.6479-1.7513-3.1105-1.7909-3.8144-.0614l-5.6549,13.8948" style="fill:none;stroke:currentColor;stroke-linecap:round;stroke-linejoin:round;stroke-width:1.5" />
</svg>