<?xml version='1.0' encoding='utf-8'?>
<svg xmlns="http://www.w3.org/2000/svg" width="110" height="110" viewBox="0 0 110 110" fill="none" stroke="currentColor" stroke-width="1.5">
<rect width="110" height="110" fill="none" stroke="currentColor" stroke-width="1.5" />
<path d="M23.2027 44.0278C21.2763 42.1042 21.2255 38.96 23.1619 37.0364L32.2316 27.9794C34.1579 26.0558 37.1693 26.0616 39.0956 27.9852M82.2256 71.0461C84.1519 72.9697 84.523 76.3401 82.5967 78.2737L73.527 87.3307C71.6007 89.2543 67.841 88.815 65.9147 86.8914M81.5543 71.2518L78.3227 74.8974M78.3227 74.8974L76.3262 76.8911C72.9852 79.9769 70.5071 82.6319 68.8015 84.3251C62.842 90.2462 54.8658 93.7928 47.0301 95.3457C37.6795 97.1992 28.5295 96.1973 23.2823 92.9212C20.3928 91.1178 18.0952 88.4929 16.51 85.4772C12.5872 77.9832 12.3163 70.1886 13.9216 63.0852C16.0686 53.5273 21.6168 45.2217 26.2219 40.6231C29.9842 36.8661 31.9908 35.1128 32.9941 34.0608L38.6827 28.3802L44.6523 22.6695C56.3507 10.9976 75.4433 11.1278 87.2921 22.96C99.151 34.8022 99.2814 53.8579 87.5831 65.5398L81.7439 71.5411L80.3193 72.9037L78.3227 74.8974ZM42.3464 31.0913L79.463 68.2079M42.0389 27.8561L42.9325 27.8538C43.9439 27.8512 44.9129 28.2504 45.6262 28.9638L81.9697 65.3073C82.7573 66.0949 83.0627 67.245 82.7709 68.3244L82.7513 68.3967C82.6208 68.8797 82.3655 69.3204 82.0113 69.6747L73.3596 78.3263C70.1152 81.5707 62.285 82.3921 56.7889 76.896C51.7196 71.8268 51.3457 63.8327 55.6532 58.2866C56.3506 57.3886 56.9155 56.2389 56.4715 55.1975C56.2268 54.6233 55.8556 54.2569 55.2984 54.0287C54.2866 53.6144 53.1849 54.1818 52.3209 54.8595C46.7728 59.2109 38.7438 58.8509 33.6582 53.7654C28.1622 48.2693 28.838 40.8342 32.0838 37.0505L40.7354 28.3989C41.0817 28.0526 41.5505 27.8574 42.0389 27.8561Z" stroke="currentColor" stroke-width="1.5" stroke-linecap="round" stroke-linejoin="round" fill="none" />
</svg>