<?xml version='1.0' encoding='utf-8'?>
<svg xmlns="http://www.w3.org/2000/svg" width="110" height="110" viewBox="0 0 110 110" fill="none" stroke="currentColor" stroke-width="1.5">
<path d="M50.4246 28.0426L55.5 12L60.5754 28.0426H77L63.7123 37.9574L68.7877 54L55.5 44.0851L42.2123 54L47.2876 37.9574L34 28.0426H50.4246Z" stroke="currentColor" stroke-width="1.5" stroke-linecap="round" stroke-linejoin="round" fill="none" />
<path d="M69.1667 69.167C68.8329 69.4124 68.7613 69.8818 69.0066 70.2155C69.2519 70.5493 69.7214 70.6209 70.0551 70.3756L69.1667 69.167ZM82.5481 60.1844L82.9984 60.7842L82.9984 60.7842L82.5481 60.1844ZM95 61.1887L95.5142 61.7347C95.6618 61.5956 95.7469 61.4027 95.7499 61.1999C95.7529 60.9971 95.6737 60.8017 95.5303 60.6583L95 61.1887ZM70.3031 84.4467L70.303 85.1967C70.4941 85.1968 70.6781 85.1238 70.8173 84.9927L70.3031 84.4467ZM39.4949 83.6913C39.0807 83.6912 38.7448 84.027 38.7447 84.4412C38.7447 84.8554 39.0804 85.1912 39.4946 85.1913L39.4949 83.6913ZM25.426 73.9439C25.1678 74.2678 25.2212 74.7397 25.5451 74.9978C25.8691 75.256 26.3409 75.2026 26.5991 74.8787L25.426 73.9439ZM43.2042 63.3121L43.204 64.0621L43.2041 64.0621L43.2042 63.3121ZM55.1696 66.7778L54.7515 67.4004C54.8751 67.4834 55.0206 67.5277 55.1694 67.5278L55.1696 66.7778ZM70.6939 74.6073L70.6937 75.3573C70.8927 75.3574 71.0836 75.2783 71.2242 75.1376C71.3649 74.9969 71.4439 74.806 71.4439 74.6071L70.6939 74.6073ZM51.3712 73.8539C50.957 73.8538 50.6211 74.1896 50.621 74.6038C50.621 75.018 50.9567 75.3538 51.3709 75.3539L51.3712 73.8539ZM22.2411 70.6405L22.7714 70.1101C22.4785 69.8173 22.0036 69.8173 21.7107 70.1102L22.2411 70.6405ZM42.8135 91.2094L43.3439 91.7396C43.6367 91.4467 43.6367 90.9719 43.3438 90.679L42.8135 91.2094ZM14.4696 77.3526C14.1767 77.6455 14.1768 78.1204 14.4697 78.4133C14.7626 78.7061 15.2375 78.7061 15.5304 78.4132L14.4696 77.3526ZM35.042 97.9215C34.7491 98.2144 34.7491 98.6892 35.0421 98.9821C35.335 99.275 35.8099 99.2749 36.1027 98.982L35.042 97.9215ZM69.6109 69.7713C70.0551 70.3756 70.0551 70.3756 70.0552 70.3755C70.0553 70.3755 70.0554 70.3754 70.0555 70.3753C70.0557 70.3751 70.0561 70.3749 70.0566 70.3745C70.0576 70.3738 70.059 70.3727 70.061 70.3713C70.0648 70.3684 70.0706 70.3642 70.0783 70.3586C70.0936 70.3473 70.1164 70.3305 70.1464 70.3085C70.2063 70.2644 70.2948 70.1993 70.4092 70.1151C70.638 69.9468 70.9703 69.7022 71.3844 69.3972C72.2126 68.7872 73.3683 67.9352 74.6779 66.9677C77.2967 65.033 80.533 62.6349 82.9984 60.7842L82.0979 59.5846C79.6373 61.4316 76.4049 63.8269 73.7866 65.7613C72.4777 66.7283 71.3226 67.5797 70.4948 68.1895C70.0809 68.4943 69.7488 68.7388 69.5203 68.9069C69.406 68.991 69.3175 69.0561 69.2577 69.1001C69.2278 69.1221 69.205 69.1388 69.1897 69.1501C69.1821 69.1557 69.1763 69.1599 69.1725 69.1628C69.1705 69.1642 69.1691 69.1653 69.1681 69.166C69.1676 69.1663 69.1673 69.1666 69.167 69.1668C69.1669 69.1669 69.1668 69.1669 69.1667 69.167C69.1667 69.167 69.1667 69.167 69.6109 69.7713ZM82.9984 60.7842C85.4671 58.931 87.5678 58.46 89.3807 58.7519C91.2209 59.0482 92.902 60.1517 94.4697 61.7191L95.5303 60.6583C93.8529 58.9812 91.8985 57.638 89.6192 57.271C87.3126 56.8996 84.8099 57.5487 82.0979 59.5846L82.9984 60.7842ZM94.4858 60.6427L69.7889 83.9007L70.8173 84.9927L95.5142 61.7347L94.4858 60.6427ZM70.3032 83.6967L39.4949 83.6913L39.4946 85.1913L70.303 85.1967L70.3032 83.6967ZM26.5991 74.8787C32.6251 67.3167 37.5627 64.061 43.204 64.0621L43.2043 62.5621C36.8574 62.5609 31.5332 66.2799 25.426 73.9439L26.5991 74.8787ZM43.2041 64.0621C45.6868 64.0625 47.5296 64.2102 49.2627 64.6907C50.99 65.1695 52.6535 65.9918 54.7515 67.4004L55.5876 66.1551C53.407 64.6909 51.5953 63.7807 49.6634 63.2452C47.7372 62.7112 45.7367 62.5625 43.2043 62.5621L43.2041 64.0621ZM55.1694 67.5278C58.4459 67.5284 62.8742 67.5291 64.3486 67.5294L64.3489 66.0294C62.8744 66.0291 58.4461 66.0284 55.1697 66.0278L55.1694 67.5278ZM64.3486 67.5294C65.0017 67.5295 66.4008 67.6792 67.6208 68.6022C68.8008 69.4951 69.9427 71.21 69.9439 74.6076L71.4439 74.6071C71.4426 70.8331 70.1491 68.6342 68.5258 67.406C66.9425 66.2081 65.1703 66.0295 64.3489 66.0294L64.3486 67.5294ZM70.694 73.8573L51.3712 73.8539L51.3709 75.3539L70.6937 75.3573L70.694 73.8573ZM21.7108 71.1709L42.2832 91.7397L43.3438 90.679L22.7714 70.1101L21.7108 71.1709ZM15.5304 78.4132L22.7715 71.1708L21.7107 70.1102L14.4696 77.3526L15.5304 78.4132ZM42.2831 90.6791L35.042 97.9215L36.1027 98.982L43.3439 91.7396L42.2831 90.6791ZM21.3936 79.6493C20.3621 80.6809 20.3631 82.3534 21.3946 83.3847L22.4552 82.3239C22.009 81.8778 22.0092 81.1551 22.4543 80.7099L21.3936 79.6493ZM21.3946 83.3847C22.4261 84.416 24.0985 84.4165 25.1299 83.3849L24.0691 82.3244C23.6239 82.7697 22.9013 82.7699 22.4552 82.3239L21.3946 83.3847ZM25.1299 83.3849C26.1612 82.3534 26.1604 80.681 25.1289 79.6497L24.0683 80.7104C24.5145 81.1565 24.5143 81.8791 24.0691 82.3244L25.1299 83.3849ZM25.1289 79.6497C24.0975 78.6184 22.425 78.6177 21.3936 79.6493L22.4543 80.7099C22.8995 80.2646 23.6222 80.2643 24.0683 80.7104L25.1289 79.6497Z" fill="none" stroke="currentColor" stroke-width="1.5" />
</svg>