<?xml version='1.0' encoding='utf-8'?>
<svg xmlns="http://www.w3.org/2000/svg" width="110" height="110" viewBox="0 0 110 110" fill="none" stroke="currentColor" stroke-width="1.5">
<path d="M89.0594 63.8725V90.3644M89.0594 90.3644H54.679M89.0594 90.3644C92.2108 90.3644 94.7693 92.923 94.7693 96.0743H48.9692C48.9692 92.923 51.5277 90.3644 54.679 90.3644M54.679 90.3644V73.2348M54.679 73.2348L8.99999 27.5558M54.679 73.2348H89.0594M49.1046 62.1693C50.1778 63.2591 51.6434 63.8725 53.1728 63.8725H89.0162C92.8115 63.8725 95.8882 60.7958 95.8882 57.0005C95.8882 53.2052 92.8115 50.1285 89.0162 50.1285H56.4751L31.2756 24.9289C27.4559 21.1093 21.2932 21.0135 17.3567 24.7126L14.6867 27.2215L49.1046 62.1693Z" stroke="currentColor" stroke-width="1.5" stroke-miterlimit="10" stroke-linecap="round" fill="none" />
</svg>