<?xml version='1.0' encoding='utf-8'?>
<svg xmlns="http://www.w3.org/2000/svg" id="Layer_1" data-name="Layer 1" width="110" height="110" viewBox="0 0 110 110">
  <path d="M73.0143,83.1226v7.1834c0,1.4949-1.2489,2.7438-2.7438,2.7438H18.3003c-1.4949,0-2.7438-1.2341-2.7438-2.7438V22.7196c0-1.5098,1.2341-2.7439,2.7438-2.7439h36.8325M73.0143,37.8565v15.9442M73.0143,37.8565l-17.8815-17.8808v15.1371c0,1.5097,1.2341,2.7437,2.7438,2.7437h15.1377ZM38.8838,30.3485h-12.2521v12.2521M33.0999,37.1417l4.1619,6.7326,9.0704-12.2521M38.8838,51.7156h-12.2521v12.252M33.0999,58.5088l4.1619,6.7326,9.0704-12.252M38.8838,73.0827h-12.2521v12.2521M90.2628,43.4424l8.1471,8.1471M94.9741,38.7309l-36.6204,36.6217-6.0371,14.1836,14.1835-6.037,36.6212-36.6211c.7726-.7726.7726-2.0252,0-2.7978l-5.3494-5.3494c-.7726-.7726-2.0252-.7726-2.7978,0ZM66.6118,83.4225l-8.1056-8.1057M59.2671,86.6025l-4.0338-4.0338" style="fill:none;stroke:currentColor;stroke-linecap:round;stroke-linejoin:round;stroke-width:1.5" />
</svg>