<?xml version='1.0' encoding='utf-8'?>
<svg xmlns="http://www.w3.org/2000/svg" width="110" height="110" viewBox="0 0 110 110" fill="none" stroke="currentColor" stroke-width="1.5">
<path d="M51.3456 50.0517L55.4973 54.1545M55.4973 54.1545L59.6491 58.2574M55.4973 54.1545L49.6231 54.1519M55.4973 54.1545L61.3716 54.1572M55.4973 54.1545L51.3418 58.2536M55.4973 54.1545L59.6529 50.0553M55.4973 54.1545L55.4947 59.9541M55.4973 54.1545L55.5 48.3548M78.6271 61.5566L71.0229 69.0643M71.0229 69.0643L63.4185 76.5722M71.0229 69.0643V58.4468M71.0229 69.0643V79.6822M71.0229 69.0643L63.4185 61.5566M71.0229 69.0643L78.6271 76.5722M71.0229 69.0643L60.2687 69.0644M71.0229 69.0643L81.7769 69.0644M60.0225 81.5339L50.9668 90.4747M55.4947 79.6822V92.3265M50.9668 81.5339L60.0225 90.4747M49.0912 86.0043H61.8981M25 66.8868C25 83.5179 38.6553 97 55.5 97C72.3447 97 86 83.5179 86 66.8868C86 50.2557 56.635 14.1208 55.5 13C53.8557 14.215 25 50.2557 25 66.8868Z" stroke="currentColor" stroke-width="1.5" stroke-miterlimit="10" stroke-linecap="round" stroke-linejoin="round" fill="none" />
</svg>