<?xml version='1.0' encoding='utf-8'?>
<svg xmlns="http://www.w3.org/2000/svg" width="110" height="110" viewBox="0 0 110 110" fill="none" stroke="currentColor" stroke-width="1.5">
<path d="M50.9082 60.4167L57.3105 53.6274C66.5002 43.8776 81.8617 43.4068 91.6277 52.5813C101.394 61.7557 101.866 77.0783 92.676 86.8281L85.7597 94.175M79.1931 80.6315C75.316 82.0961 70.5344 81.4123 67.3175 78.389C64.0587 75.3344 63.0636 70.6621 64.342 66.6764M69.4971 101.257L32.6127 101.174L36.4583 99.8136L35.1694 98.4536L39.015 97.0936L37.7262 95.7337L41.5718 94.3737L40.2829 93.0138C40.2829 93.0138 75.7108 93.2335 80.2585 93.0975C84.2927 92.9719 88.8193 90.8921 93.1784 86.2787M92.8642 77.0291C92.8642 90.4157 81.9942 101.268 68.5854 101.268C55.1767 101.268 44.3067 90.4157 44.3067 77.0291C44.3067 63.6425 55.1767 52.7905 68.5854 52.7905C81.9942 52.7905 92.8642 63.6425 92.8642 77.0291ZM79.787 77.0291C79.787 83.2053 74.7719 88.2121 68.5854 88.2121C62.399 88.2121 57.3839 83.2053 57.3839 77.0291C57.3839 70.8529 62.399 65.8461 68.5854 65.8461C74.7719 65.8461 79.787 70.8529 79.787 77.0291ZM82.6895 77.0082C82.6895 84.7559 76.3984 91.0366 68.6378 91.0366C60.8773 91.0366 54.5861 84.7559 54.5861 77.0082C54.5861 69.2605 60.8773 62.9797 68.6378 62.9797C76.3984 62.9797 82.6895 69.2605 82.6895 77.0082ZM13.8686 54.1675L55.2355 12.869C59.4422 8.6693 66.2626 8.66931 70.4693 12.869C74.676 17.0688 74.6834 23.8853 70.4767 28.085L29.1098 69.3835C24.9032 73.5832 18.0753 73.5758 13.8686 69.3761C9.66195 65.1764 9.66195 58.3672 13.8686 54.1675ZM25.8497 42.2063L43.2693 24.8155L58.5105 40.0315L41.0909 57.4223L25.8497 42.2063Z" stroke="currentColor" stroke-width="1.5" stroke-miterlimit="10" stroke-linecap="round" fill="none" />
</svg>