<?xml version='1.0' encoding='utf-8'?>
<svg xmlns="http://www.w3.org/2000/svg" width="110" height="110" viewBox="0 0 110 110" fill="none" stroke="currentColor" stroke-width="1.5">
<g clip-path="url(#clip0_1952_130)">
<path d="M55.7807 71.7189C61.0086 66.4825 61.0894 58.0733 55.9612 52.9366C50.8329 47.8 42.4377 47.8809 37.2098 53.1174C31.9819 58.3539 31.9011 66.763 37.0294 71.8997C42.1576 77.0364 50.5529 76.9554 55.7807 71.7189Z" stroke="currentColor" stroke-width="1.5" stroke-miterlimit="10" fill="none" />
<path d="M37.1126 53.2175L30.7336 59.6071C25.5028 64.8465 25.4299 73.2533 30.5513 78.3831C35.6819 83.5222 44.0748 83.44 49.2965 78.2006L56.4683 71.0169" stroke="currentColor" stroke-width="1.5" stroke-miterlimit="10" fill="none" />
<path d="M36.0646 54.0391C33.5677 54.751 31.1984 56.0928 29.2209 58.0736C23.1426 64.1619 23.0515 73.9288 29.0113 79.8984C34.9711 85.8681 44.7219 85.7768 50.8001 79.6885C52.8414 77.6438 54.1992 75.1884 54.8918 72.5961" stroke="currentColor" stroke-width="1.5" stroke-miterlimit="10" fill="none" />
<path d="M34.9802 90.5234C38.4522 90.1765 41.8422 88.6613 44.5214 85.9777L51.7935 78.6936" stroke="currentColor" stroke-width="1.5" stroke-miterlimit="10" fill="none" />
<path d="M29.4123 57.8818L22.9422 64.3626C16.8639 70.451 16.7728 80.2178 22.7326 86.1875C24.4823 87.94 26.5691 89.1723 28.7926 89.8843" stroke="currentColor" stroke-width="1.5" stroke-miterlimit="10" fill="none" />
<path d="M32.7749 93.2981C37.6776 93.4807 42.6806 91.6642 46.4624 87.8762C48.8865 85.4481 50.4994 82.5181 51.3014 79.4329" stroke="currentColor" stroke-width="1.5" stroke-miterlimit="10" fill="none" />
<path d="M29.5126 57.6445C26.4415 58.4478 23.5254 60.0634 21.1014 62.4823C13.966 69.6295 13.8566 81.1124 20.8553 88.1226C23.3614 90.6328 26.4324 92.2301 29.6766 92.9147" stroke="currentColor" stroke-width="1.5" stroke-miterlimit="10" fill="none" />
<path d="M21.1104 62.4824L19.0692 64.5271C11.9338 71.6742 11.8244 83.1571 18.8231 90.1673C25.8218 97.1776 37.2858 97.068 44.4211 89.9209L45.7425 88.5973" stroke="currentColor" stroke-width="1.5" stroke-miterlimit="10" fill="none" />
<path d="M54.0618 69.9605C58.3217 65.6936 58.388 58.842 54.21 54.6571C50.032 50.4722 43.1917 50.5387 38.9318 54.8056C34.6719 59.0725 34.6056 65.924 38.7836 70.109C42.9616 74.2939 49.8019 74.2274 54.0618 69.9605Z" stroke="currentColor" stroke-width="1.5" stroke-miterlimit="10" fill="none" />
<path d="M54.0739 65.2079C56.96 62.3169 57.0033 57.6731 54.1705 54.8357C51.3377 51.9982 46.7016 52.0415 43.8154 54.9325C40.9292 57.8234 40.8859 62.4672 43.7187 65.3047C46.5515 68.1422 51.1877 68.0988 54.0739 65.2079Z" stroke="currentColor" stroke-width="1.5" stroke-miterlimit="10" fill="none" />
<path d="M83.6885 17.8469L45.296 56.3028C43.2182 58.3839 43.1818 61.7247 45.2231 63.7694C47.2643 65.814 50.5996 65.7775 52.6774 63.6964L90.8238 25.487" stroke="currentColor" stroke-width="1.5" stroke-miterlimit="10" fill="none" />
<path d="M85.8848 16.6877C84.9917 16.9251 84.1442 17.3906 83.4425 18.0934" stroke="currentColor" stroke-width="1.5" stroke-miterlimit="10" fill="none" />
<path d="M90.8239 25.487C91.5711 24.7385 92.0632 23.8166 92.2728 22.8582" stroke="currentColor" stroke-width="1.5" stroke-miterlimit="10" fill="none" />
<path d="M87.2607 15.6472L84.2717 18.6412C82.5584 20.3572 82.5311 23.123 84.217 24.8025C85.9029 26.4912 88.655 26.4638 90.3682 24.7477L94.0589 21.0509" stroke="currentColor" stroke-width="1.5" stroke-miterlimit="10" fill="none" />
<path d="M94.0571 21.0481C95.7724 19.3299 95.7984 16.5702 94.115 14.8841C92.4317 13.198 89.6766 13.224 87.9612 14.9422C86.2459 16.6604 86.2199 19.4201 87.9032 21.1062C89.5866 22.7922 92.3417 22.7662 94.0571 21.0481Z" stroke="currentColor" stroke-width="1.5" stroke-miterlimit="10" fill="none" />
<path d="M37.1309 71.9937L31.0526 78.082" stroke="currentColor" stroke-width="1.5" stroke-miterlimit="10" fill="none" />
<path d="M35.1442 69.803L29.0659 75.8822" stroke="currentColor" stroke-width="1.5" stroke-miterlimit="10" fill="none" />
<path d="M33.8411 66.9094L27.772 72.9886" stroke="currentColor" stroke-width="1.5" stroke-miterlimit="10" fill="none" />
<path d="M33.0483 63.5139L26.97 69.6022" stroke="currentColor" stroke-width="1.5" stroke-miterlimit="10" fill="none" />
<path d="M33.6497 59.5249L27.5714 65.6132" stroke="currentColor" stroke-width="1.5" stroke-miterlimit="10" fill="none" />
<path d="M39.1266 73.7917L33.0483 79.8801" stroke="currentColor" stroke-width="1.5" stroke-miterlimit="10" fill="none" />
<path d="M42.0153 75.0881L35.937 81.1764" stroke="currentColor" stroke-width="1.5" stroke-miterlimit="10" fill="none" />
<path d="M45.4053 75.8821L39.327 81.9704" stroke="currentColor" stroke-width="1.5" stroke-miterlimit="10" fill="none" />
<path d="M49.3876 75.2888L43.3093 81.3771" stroke="currentColor" stroke-width="1.5" stroke-miterlimit="10" fill="none" />
<path d="M34.9438 83.7686L28.8655 89.8569L29.3576 92.9512" stroke="currentColor" stroke-width="1.5" stroke-linecap="round" stroke-linejoin="round" fill="none" />
<path d="M32.7476 93.1521L35.3356 90.5507L35.044 89.2545L38.033 86.2606L37.9328 84.3711" stroke="currentColor" stroke-width="1.5" stroke-linecap="round" stroke-linejoin="round" fill="none" />
</g>
<defs>
<clipPath id="clip0_1952_130">
<rect width="83" height="83" fill="none" transform="translate(13 13)" stroke="currentColor" stroke-width="1.5" />
</clipPath>
</defs>
</svg>