<?xml version='1.0' encoding='utf-8'?>
<svg xmlns="http://www.w3.org/2000/svg" version="1.1" id="Layer_1" x="0px" y="0px" viewBox="0 0 110 110" style="enable-background:new 0 0 110 110;fill:none;stroke:currentColor;stroke-width:1.5" xml:space="preserve">
<path style="fill:none;stroke:currentColor;stroke-width:1.5;stroke-linecap:round;stroke-linejoin:round" d="M62.333,79.795h38.107  c0.356,0,0.643,0.29,0.643,0.649v1.978c0,1.869-1.501,3.383-3.352,3.383H11.437c-1.851,0-3.353-1.515-3.353-3.384l0-1.977  c0-0.358,0.288-0.649,0.643-0.649h39.657 M53.174,28.46h2.818 M17.008,32.917h75.151 M8.347,79.92l8.66-9.607 M17.008,70.313V30.679  c0-3.797,3.049-6.874,6.811-6.874h61.53c3.761,0,6.811,3.078,6.811,6.874v39.634 M17.008,70.313H37.5 M92.159,70.313l8.7,9.639   M92.159,70.313H71.141 M33.447,75.371h1.879 M20.296,75.371h1.879 M26.871,75.371h1.879 M80.416,75.371h1.879 M86.992,75.371h1.879   M73.841,75.371h1.879 M66.286,49.942c4.309,5.923,3.798,14.273-1.529,19.624c-5.891,5.912-15.447,5.912-21.338,0  c-5.891-5.912-5.891-15.502,0-21.415c5.327-5.346,13.652-5.859,19.554-1.534 M63.303,52.93c2.717,4.25,2.226,9.97-1.481,13.69  c-4.272,4.287-11.202,4.287-15.479,0c-4.272-4.287-4.272-11.242,0-15.534c3.702-3.715,9.402-4.212,13.641-1.486 M60.256,55.988  c1.161,2.523,0.708,5.608-1.364,7.687c-2.653,2.662-6.957,2.662-9.615,0c-2.653-2.662-2.653-6.981,0-9.649  c2.072-2.079,5.151-2.534,7.66-1.368 M56.623,59.639c-0.123,0.401-0.341,0.78-0.66,1.101c-1.039,1.042-2.717,1.042-3.75,0  c-1.033-1.042-1.033-2.726,0-3.763c0.32-0.321,0.693-0.54,1.097-0.663 M54.285,58.72l18.851-18.918 M66.207,46.755l4.345,1.429  L75,43.72l-4.309-1.465L69.3,38l-4.448,4.464L66.207,46.755z" />
</svg>