<?xml version='1.0' encoding='utf-8'?>
<svg xmlns="http://www.w3.org/2000/svg" version="1.1" id="Layer_1" x="0px" y="0px" viewBox="0 0 110 110" style="enable-background:new 0 0 110 110;fill:none;stroke:currentColor;stroke-width:1.5" xml:space="preserve">
<path style="fill:none;stroke:currentColor;stroke-width:1.5" d="M18,93.5h6 M24,93.5V16h39v15 M24,93.5h22 M63,31v62.5 M63,31h24v62.5   M63,93.5h24 M63,93.5h-7 M87,93.5h6 M46,93.5V67h10v26.5 M46,93.5h10 M70,37h10v10H70V37z M70,52h10v10H70V52z M46,52h10v10H46V52z   M31,52h10v10H31V52z M31,67h10v10H31V67z M46,37h10v10H46V37z M31,37h10v10H31V37z M46,22h10v10H46V22z M31,22h10v10H31V22z M70,67  h10v10H70V67z" />
</svg>