<?xml version='1.0' encoding='utf-8'?>
<svg xmlns="http://www.w3.org/2000/svg" width="110" height="110" viewBox="0 0 110 110" fill="none" stroke="currentColor" stroke-width="1.5">
<path d="M79.9193 72.1761L84.9022 81.4766C85.0642 81.7816 85.1614 82.1301 85.183 82.4786L87.5909 96.4838L87.5909 79.0807C87.5909 78.656 87.4937 78.2203 87.3209 77.8283L79.6761 60.5994L81.4901 59.2817L95.8727 76.2383C96.2075 76.6303 96.4018 77.1204 96.4234 77.6323L97.2441 96.4838M30.9381 31.0982C28.6706 24.1718 24.8667 19.6074 21.3898 19.6074C16.4984 19.6074 14.1229 26.1309 13.8853 31.6633C13.637 37.5986 13.745 40.4846 14.2848 44.3725C14.5872 46.5398 15.3646 48.01 17.5674 48.511C21.0658 49.306 26.7455 49.1317 29.1102 48.4129C29.5529 48.2822 30.6017 47.9313 30.9256 47.7461M80.2484 24.9438C82.246 21.5133 84.6323 19.5748 86.997 19.5748C91.8128 19.5748 94.1559 25.9893 94.3827 31.4455C94.631 37.2828 94.523 40.1361 93.9939 43.9587C93.8428 45.026 93.5836 45.919 93.0761 46.6051M58.7608 50.4821C55.7375 50.0683 55.1436 48.1842 54.9708 45.8863C54.6145 41.2034 54.8628 35.5076 55.5971 31.6524C56.6553 26.1418 62.1621 18.7144 67.4638 19.0085C70.282 19.1609 72.7655 21.3499 74.6012 24.0726M83.9628 71.7949C78.7151 72.4157 70.2713 72.7969 65.747 72.1761C61.687 71.6207 60.888 69.0832 60.6612 66.0121C60.1861 59.7282 60.5209 52.0613 61.5143 46.8991C62.9288 39.4936 70.3252 29.5178 77.4626 29.9099C85.0318 30.3237 90.841 41.6608 91.3809 47.8575C91.856 53.3355 91.9316 61.1875 91.3809 66.3279C91.2405 67.6239 90.9117 68.6997 90.199 69.5492M53.2864 31.8811C52.2174 26.2833 46.6241 18.7362 41.2253 19.0411C35.5025 19.357 31.1078 27.9278 30.6974 32.6108C30.3303 36.7492 30.2763 42.6954 30.6974 46.5833C30.9242 48.6634 31.8312 50.0138 34.5954 50.4821C38.1479 51.0811 46.0951 51.5494 50.0794 51.0049C53.146 50.5802 53.7507 48.6634 53.9234 46.3437C54.2798 41.5955 54.0314 35.7908 53.2864 31.8811Z" stroke="currentColor" stroke-width="1.5" stroke-linecap="round" stroke-linejoin="round" fill="none" />
</svg>