<?xml version='1.0' encoding='utf-8'?>
<svg xmlns="http://www.w3.org/2000/svg" width="110" height="110" viewBox="0 0 110 110" fill="none" stroke="currentColor" stroke-width="1.5">
<path d="M63.7274 70.5396L75.073 61.2986C76.2029 60.1707 78.0399 60.1707 79.1764 61.2986C80.3064 62.4265 80.3064 64.2602 79.1764 65.3947L69.9321 76.7332M45.6946 88.573L63.9983 70.3021C65.7031 68.6003 68.4586 68.6003 70.1634 70.3021C71.8682 72.0039 71.8682 74.7544 70.1634 76.4562L51.8597 94.7271M95.544 44.8746L77.1148 63.2642M90.6939 46.3257L94.0837 49.716M88.9824 48.034L92.3723 51.4244M87.271 49.7424L90.6608 53.1327M85.5596 51.4508L88.9494 54.8411M83.8416 53.1591L87.238 56.5495M82.1301 54.8741L85.5266 58.2578M80.4187 56.5824L83.8151 59.9662M93.185 44.4194V47.2293H96M53.1416 91.6467C53.1416 94.051 51.1891 96.0001 48.7805 96.0001C46.3719 96.0001 44.4193 94.051 44.4193 91.6467C44.4193 89.2424 46.3719 87.2934 48.7805 87.2934C51.1891 87.2934 53.1416 89.2424 53.1416 91.6467ZM79.8769 63.1323C79.8769 64.6185 78.6698 65.8234 77.1809 65.8234C75.6919 65.8234 74.4849 64.6185 74.4849 63.1323C74.4849 61.646 75.6919 60.4411 77.1809 60.4411C78.6698 60.4411 79.8769 61.646 79.8769 63.1323Z" stroke="currentColor" stroke-width="1.5" stroke-miterlimit="10" stroke-linecap="round" fill="none" />
<path d="M59.6542 59.8637C59.6542 60.416 60.1019 60.8637 60.6542 60.8637C61.2065 60.8637 61.6542 60.416 61.6542 59.8637H60.6542H59.6542ZM61.6542 38.9756C61.6542 38.4234 61.2065 37.9756 60.6542 37.9756C60.1019 37.9756 59.6542 38.4234 59.6542 38.9756H60.6542H61.6542ZM60.6682 59.8637H59.6682C59.6682 62.3319 57.6881 64.823 53.9045 66.7565C50.1747 68.6626 44.9523 69.871 39.129 69.871V70.871V71.871C45.2016 71.871 50.7488 70.6153 54.8146 68.5375C58.8266 66.4872 61.6682 63.4746 61.6682 59.8637H60.6682ZM39.129 70.871V69.871C33.3058 69.871 28.0834 68.6626 24.3536 66.7565C20.57 64.823 18.5899 62.3319 18.5899 59.8637H17.5899H16.5899C16.5899 63.4746 19.4314 66.4872 23.4435 68.5375C27.5093 70.6153 33.0565 71.871 39.129 71.871V70.871ZM17.5899 59.8637H18.5899C18.5899 57.3955 20.57 54.9044 24.3536 52.9708C28.0834 51.0648 33.3058 49.8564 39.129 49.8564V48.8564V47.8564C33.0565 47.8564 27.5093 49.1121 23.4435 51.1899C19.4314 53.2402 16.5899 56.2527 16.5899 59.8637H17.5899ZM39.129 48.8564V49.8564C44.9523 49.8564 50.1747 51.0648 53.9045 52.9708C57.6881 54.9044 59.6682 57.3955 59.6682 59.8637H60.6682H61.6682C61.6682 56.2527 58.8266 53.2402 54.8146 51.1899C50.7488 49.1121 45.2016 47.8564 39.129 47.8564V48.8564ZM17.5899 59.8637H18.5899V38.9638H17.5899H16.5899V59.8637H17.5899ZM60.6542 59.8637H61.6542V38.9756H60.6542H59.6542V59.8637H60.6542ZM14 26.8418H13V32.3455H14H15V26.8418H14ZM64.2581 32.3455H63.2581C63.2581 35.3203 60.8761 38.27 56.4429 40.5356C52.0634 42.7736 45.9436 44.1873 39.129 44.1873V45.1873V46.1873C46.1929 46.1873 52.6375 44.7263 57.353 42.3165C62.0147 39.9342 65.2581 36.463 65.2581 32.3455H64.2581ZM39.129 45.1873V44.1873C32.3145 44.1873 26.1946 42.7736 21.8152 40.5356C17.382 38.27 15 35.3203 15 32.3455H14H13C13 36.463 16.2434 39.9342 20.9051 42.3165C25.6205 44.7263 32.0652 46.1873 39.129 46.1873V45.1873ZM64.2581 26.8418H63.2581C63.2581 29.8166 60.8761 32.7664 56.4429 35.0319C52.0634 37.27 45.9436 38.6837 39.129 38.6837V39.6837V40.6837C46.1929 40.6837 52.6375 39.2226 57.353 36.8128C62.0147 34.4305 65.2581 30.9594 65.2581 26.8418H64.2581ZM39.129 39.6837V38.6837C32.3145 38.6837 26.1946 37.27 21.8152 35.0319C17.382 32.7664 15 29.8166 15 26.8418H14H13C13 30.9594 16.2434 34.4305 20.9051 36.8128C25.6205 39.2226 32.0652 40.6837 39.129 40.6837V39.6837ZM14 26.8418H15C15 23.867 17.382 20.9173 21.8152 18.6517C26.1946 16.4137 32.3145 15 39.129 15V14V13C32.0652 13 25.6205 14.4611 20.9051 16.8708C16.2434 19.2531 13 22.7243 13 26.8418H14ZM39.129 14V15C45.9436 15 52.0634 16.4137 56.4429 18.6517C60.8761 20.9173 63.2581 23.867 63.2581 26.8418H64.2581H65.2581C65.2581 22.7243 62.0147 19.2531 57.353 16.8708C52.6375 14.4611 46.1929 13 39.129 13V14ZM64.2581 32.3455H65.2581V26.8418H64.2581H63.2581V32.3455H64.2581Z" fill="none" stroke="currentColor" stroke-width="1.5" />
</svg>