<?xml version='1.0' encoding='utf-8'?>
<svg xmlns="http://www.w3.org/2000/svg" width="111" height="110" viewBox="0 0 111 110" fill="none" stroke="currentColor" stroke-width="1.5">
<path d="M87.3163 75.7487H37.8552C34.4021 75.7487 31.605 72.9491 31.605 69.4985C31.605 66.048 34.4021 63.2483 37.8552 63.2483M12 14.066H24.5004L34.955 63.2483H87.3163L95.1145 26.5664H70.1025M27.1576 26.5664H52.325M46.6059 90.7497C46.6059 94.2027 43.8088 96.9999 40.3557 96.9999C36.9027 96.9999 34.1056 94.2002 34.1056 90.7497C34.1056 87.2991 36.9027 84.4995 40.3557 84.4995C43.8088 84.4995 46.6059 87.2966 46.6059 90.7497ZM84.8182 90.7497C84.8182 94.2027 82.0186 96.9999 78.568 96.9999C75.1175 96.9999 72.3178 94.2002 72.3178 90.7497C72.3178 87.2991 75.1175 84.4995 78.568 84.4995C82.0186 84.4995 84.8182 87.2966 84.8182 90.7497Z" stroke="currentColor" stroke-width="1.5" stroke-linecap="round" stroke-linejoin="round" fill="none" />
<path d="M61.9123 14C61.9123 13.5858 61.5765 13.25 61.1623 13.25C60.748 13.25 60.4123 13.5858 60.4123 14L61.9123 14ZM60.6319 51.6358C60.9248 51.9286 61.3997 51.9286 61.6926 51.6358L66.4655 46.8628C66.7584 46.5699 66.7584 46.095 66.4655 45.8021C66.1727 45.5092 65.6978 45.5092 65.4049 45.8021L61.1622 50.0448L56.9196 45.8021C56.6267 45.5092 56.1518 45.5092 55.8589 45.8021C55.5661 46.095 55.5661 46.5699 55.8589 46.8628L60.6319 51.6358ZM61.1623 14L60.4123 14L60.4122 51.1054L61.1622 51.1054L61.9122 51.1054L61.9123 14L61.1623 14Z" fill="none" stroke="currentColor" stroke-width="1.5" />
</svg>