<?xml version='1.0' encoding='utf-8'?>
<svg xmlns="http://www.w3.org/2000/svg" id="Layer_1" data-name="Layer 1" width="110" height="110" viewBox="0 0 110 110">
  <path d="M50.4246,29.8618l5.0754-16.0426,5.0754,16.0426h16.4246l-13.2877,9.9148,5.0754,16.0426-13.2877-9.9149-13.2877,9.9149,5.0753-16.0426-13.2876-9.9148h16.4246Z" style="fill:none;stroke:currentColor;stroke-linecap:round;stroke-linejoin:round;stroke-width:1.5" />
  <path d="M69.1502,75.6477s9.1451-3.9991,14.7858-6.5322c5.9326-2.6642,9.4667-.2125,11.8741,3.618l-29.3677,17.2686-29.95-6.5514M25.6958,70.876c7.6517-6.0811,13.4432-8.367,19.2703-7.0923,4.8754,1.0664,7.3363,2.2072,10.8341,5.8975,3.1852.6968,7.4901,1.6384,8.9235,1.952,1.4334.3135,6.0149,1.9831,4.3653,8.9264l-18.7845-4.109M14.1899,71.897l8.7081-5.4728,15.2616,24.2838-8.7081,5.4728M20.3922,75.5916c-.8879.558-1.1634,1.7174-.6153,2.5895.5481.8721,1.7122,1.1267,2.6001.5687.8879-.558,1.1634-1.7174.6153-2.5895-.5481-.8721-1.7123-1.1267-2.6001-.5687Z" style="fill:none;stroke:currentColor;stroke-linecap:round;stroke-width:1.5" />
</svg>