<?xml version='1.0' encoding='utf-8'?>
<svg xmlns="http://www.w3.org/2000/svg" width="110" height="110" viewBox="0 0 110 110" fill="none" stroke="currentColor" stroke-width="1.5">
<path d="M71.3872 28.6289L55.7593 39.9693C55.0213 40.4567 54.3332 41.0138 53.7049 41.6405L13.1642 82.0879M71.3872 28.6289C69.4624 30.5488 69.4624 33.6724 71.3872 35.5923C73.312 37.5122 76.4436 37.5122 78.3684 35.5923M71.3872 28.6289C72.7635 27.2561 74.7382 26.8781 76.4635 27.465M78.3684 35.5923L66.9093 51.0908C66.4206 51.8269 65.8621 52.5133 65.2338 53.14L25.102 93.1597M78.3684 35.5923C79.7447 34.2195 80.1237 32.2498 79.5352 30.5289L87.5736 22.511M65.174 21.0388L63.7179 22.4911C57.8836 28.3105 57.8836 37.741 63.7179 43.5604C69.5521 49.3798 79.0067 49.3798 84.8409 43.5604L86.297 42.108M65.174 21.0388C70.4298 15.7963 78.6177 15.2989 84.452 19.4969M65.174 21.0388C59.3397 26.8582 59.3397 36.2886 65.174 42.108C71.0082 47.9274 80.4627 47.9274 86.297 42.108M86.297 42.108C91.6625 36.7561 92.0814 28.3503 87.5736 22.511M87.5736 22.511L90.9744 19.1189C91.6725 18.4225 92.6998 18.1639 93.6572 18.4424L96.9882 19.2283M79.5352 30.5189L76.4137 33.6326C75.5759 34.4781 74.1996 34.4682 73.3519 33.6326C72.5042 32.797 72.5042 31.4242 73.3519 30.5786L76.4735 27.465L84.462 19.4969L87.9127 16.055C89.7477 14.2246 92.4205 13.5581 94.9038 14.2942L98.4842 15.6173M27.316 87.5989C27.316 92.0953 23.6659 95.7361 19.158 95.7361C14.6502 95.7361 11 92.0953 11 87.5989C11 83.1025 14.6502 79.4617 19.158 79.4617C23.6659 79.4617 27.316 83.1025 27.316 87.5989ZM99.6111 17.3979C99.6111 18.4723 98.7335 19.3477 97.6564 19.3477C96.5793 19.3477 95.7017 18.4723 95.7017 17.3979C95.7017 16.3236 96.5793 15.4482 97.6564 15.4482C98.7335 15.4482 99.6111 16.3236 99.6111 17.3979Z" stroke="currentColor" stroke-width="1.5" stroke-miterlimit="10" fill="none" />
</svg>