<?xml version='1.0' encoding='utf-8'?>
<svg xmlns="http://www.w3.org/2000/svg" width="110" height="110" viewBox="0 0 110 110" fill="none" stroke="currentColor" stroke-width="1.5">
<g clip-path="url(#clip0_535_48)">
<path d="M74.8934 20.7286L77.7654 20.522C79.2367 20.4162 80.5 21.5569 80.5446 23.0313L81.3064 48.2912C81.3265 48.9604 81.0873 49.6115 80.6385 50.1082L44.3134 90.3225C43.353 91.3857 41.7127 91.4691 40.6494 90.5087L14.692 67.0617C13.6289 66.1014 13.5455 64.461 14.5059 63.3978L50.8314 23.183C51.2799 22.6865 51.903 22.3825 52.5703 22.3344L66.7567 21.3139M79.4377 56.5561C80.3225 57.3554 80.3917 58.7203 79.5927 59.605L44.7146 98.2174C43.7543 99.2806 42.1139 99.364 41.0507 98.4035L16.8349 76.5298C15.873 75.661 15.7976 74.1768 16.6665 73.2149M83.6672 45.5353C87.4509 45.2715 91.1415 43.5992 93.8848 40.5624C99.5104 34.3344 99.0221 24.7251 92.7942 19.0995C86.5662 13.4739 76.9569 13.9622 71.3313 20.1902C67.6228 24.2958 66.5712 29.8708 68.0694 34.8054M71.5219 36.7479C70.2611 38.8626 67.5248 39.5549 65.4101 38.2941C63.2955 37.0334 62.6032 34.2971 63.8639 32.1824C65.1246 30.0677 67.8609 29.3755 69.9756 30.6362C72.0903 31.8969 72.7826 34.6332 71.5219 36.7479Z" stroke="currentColor" stroke-width="1.5" stroke-linecap="round" stroke-linejoin="round" fill="none" />
<path d="M52.4 63H48.9714C46.4467 63 44.4 60.8835 44.4 58.2727V54.7273C44.4 52.1165 46.4467 50 48.9714 50H52.4M42 54.875H50M42 58.125H50" stroke="currentColor" stroke-width="1.5" stroke-miterlimit="10" stroke-linecap="round" fill="none" />
<path d="M48.1637 38.6219V45.456M36.0778 43.9373L40.6859 48.5697M30.7903 56.0868H37.5886M36.0778 68.2363L40.6859 63.604M60.2495 68.2363L55.6414 63.604M65.537 56.0868H58.7388M60.2495 43.9373L55.6414 48.5697M42.9605 43.4591L44.1167 46.2653M35.6021 50.8563L38.3936 52.0186M35.6021 61.3174L38.3936 60.1551M60.7252 61.3174L57.9338 60.1551M60.7252 50.8563L57.9338 52.0186M53.3668 43.4591L52.2106 46.2653" stroke="currentColor" stroke-width="1.5" stroke-linejoin="round" fill="none" />
</g>
<defs>
<clipPath id="clip0_535_48">
<rect width="110" height="110" fill="none" stroke="currentColor" stroke-width="1.5" />
</clipPath>
</defs>
</svg>