<?xml version='1.0' encoding='utf-8'?>
<svg xmlns="http://www.w3.org/2000/svg" id="Layer_1" data-name="Layer 1" width="110" height="110" viewBox="0 0 110 110">
  <path d="M57.2898,36.9014l-16.7078,28.5114c-.5187.8852.0776,2.0065,1.1015,2.0713l10.7056.6776c1.0657.0675,1.8525,1.0218,1.7154,2.0808l-2.7089,20.9323c-.0304.2352.2886.3364.3993.1267l16.74-31.7086c.254-.4811-.0721-1.0643-.615-1.0997l-12.1372-.7933c-.6114-.04-1.0546-.5991-.9539-1.2035l3.22-19.3199c.0749-.4493-.5287-.668-.759-.275Z" style="fill:none;stroke:currentColor;stroke-miterlimit:10;stroke-width:1.5" />
  <g>
    <g>
      <path d="M79.9064,102.4971H28.2691c-1.0304,0-1.8657-.8353-1.8657-1.8657V20.5294c0-.8045.5092-1.5107,1.272-1.7664,4.0516-1.3585,12.884-5.7636,26.5879-5.7636,13.8351,0,22.1325,4.432,26.2286,5.7765.7671.2518,1.2802.9612,1.2802,1.7687v80.0868c0,1.0304-.8353,1.8657-1.8657,1.8657Z" style="fill:none;stroke:currentColor;stroke-miterlimit:10;stroke-width:1.5" />
      <path d="M26.3368,36.869s12.7367-5.7551,28.3982-6.2268c0,0,15.5671-.0943,26.4169,6.0382" style="fill:none;stroke:currentColor;stroke-miterlimit:10;stroke-width:1.5" />
    </g>
    <path d="M44.7916,13.2698c-.025-.3753.0371-4.8933.0371-4.8933,0,0,3.3965-2.6417,9.4346-2.6417,0,0,3.0191-.0943,7.5477,2.3587l-.0072,5.2264" style="fill:none;stroke:currentColor;stroke-miterlimit:10;stroke-width:1.5" />
  </g>
</svg>