<?xml version='1.0' encoding='utf-8'?>
<svg xmlns="http://www.w3.org/2000/svg" id="Layer_1" data-name="Layer 1" width="110" height="110" viewBox="0 0 110 110">
  <line x1="49.2131" y1="77.8376" x2="14.3402" y2="77.8376" style="fill:none;stroke:currentColor;stroke-linecap:round;stroke-linejoin:round;stroke-width:1.5" />
  <polyline points="63.9825 59.2382 63.9825 23.765 58.5897 23.765 68.4764 13.8784 78.3631 23.765 72.9704 23.765 72.9704 54.4423 72.9704 57.0382" style="fill:none;stroke:currentColor;stroke-linecap:round;stroke-linejoin:round;stroke-width:1.5" />
  <line x1="44.2091" y1="77.8376" x2="47.8043" y2="77.8376" style="fill:none;stroke:currentColor;stroke-linecap:round;stroke-linejoin:round;stroke-width:1.5" />
  <path d="M85.3353,66.784c-.1769-.25-.5525-.3576-.8347-.2389l-3.4995,1.2535c-.2911.1223-.7377.0702-.9927-.1158l-2.3144-1.4629c-.2774-.1509-.5162-.5322-.531-.8474l-.3727-3.7c-.0142-.3059-.2728-.5986-.5747-.6505l-3.8784-.6663c-.3019-.0518-.6431.1379-.7589.4213l-1.5853,3.3622c-.119.2922-.4717.5708-.7836.6195l-2.6711.6006c-.3027.0893-.7414-.0113-.9749-.2236l-2.8827-2.35c-.2266-.2059-.6166-.2298-.8666-.0529l-3.2071,2.2676c-.2501.1768-.3575.5525-.2388.8347l1.2537,3.4993c.1223.2911.0702.7377-.1158.9927l-1.4634,2.3143c-.1508.2773-.532.5162-.8473.5309l-3.6997.3727c-.3058.0143-.5986.2729-.6505.5747l-.6662,3.8785c-.0518.3019.1378.6434.4214.7589l3.362,1.5854c.2922.1191.5712.4717.6197.7835l.6011,2.6714c.0893.3027-.0114.7413-.2236.9748l-2.3506,2.8821c-.2061.2267-.23.6165-.0531.8666l2.2681,3.2072c.1769.25.5525.3576.8349.239l3.4993-1.2537c.291-.1222.7378-.0701.9927.1158l2.3137,1.4637c.2773.1509.5161.5322.5308.8475l.3732,3.6993c.0142.3059.2729.5987.5747.6504l3.8785.6662c.3018.0518.643-.1377.7588-.4213l1.5855-3.3612c.1191-.2923.4718-.5712.7836-.62l2.671-.6011c.3029-.0893.7416.0113.9749.2236l2.8824,2.3501c.2267.206.6164.2298.8667.0531l3.2074-2.268c.2499-.1768.3574-.5525.2389-.8348l-1.2539-3.4993c-.1224-.2909-.0703-.7376.1157-.9927l1.4632-2.3137c.1509-.2773.5321-.5162.8474-.531l3.7-.3731c.3059-.0142.5986-.2729.6504-.5747l.6664-3.8787c.0517-.3018-.1378-.6433-.4215-.7588l-3.3617-1.5848c-.2922-.1191-.5712-.4717-.6198-.7836l-.601-2.6718c-.0896-.3028.0112-.7415.2236-.9749l2.3502-2.882c.2061-.2267.2298-.6166.053-.8666l-2.2676-3.2071ZM79.7828,73.1048c1.6431,2.3248,2.2826,5.1502,1.8006,7.9559-.482,2.8057-2.0276,5.2558-4.3524,6.8989-4.7989,3.3918-11.4628,2.2471-14.8546-2.5518-1.6432-2.3248-2.2826-5.1502-1.8006-7.9559.4819-2.8057,2.0276-5.2558,4.3524-6.8989,4.799-3.3917,11.4627-2.247,14.8546,2.5518Z" style="fill:none;stroke:currentColor;stroke-miterlimit:10;stroke-width:1.5" />
  <g>
    <path d="M21.9548,56.0891s6.0862,5.5329,12.7256,0c0,0,8.1887,3.2091,5.9755,15.1601,0,0-11.1764,3.873-24.4553,0,0,0-2.1025-10.7338,5.7542-15.1601Z" style="fill:none;stroke:currentColor;stroke-miterlimit:10;stroke-width:1.5" />
    <circle cx="28.4836" cy="49.0071" r="6.8608" style="fill:none;stroke:currentColor;stroke-miterlimit:10;stroke-width:1.5" />
    <path d="M33.8334,41.9536c.3839-3.3305,1.7669-7.3792,5.882-9.6976,0,0,6.0862,5.5329,12.7256,0,0,0,8.1887,3.2091,5.9755,15.1601,0,0-8.5569,2.9653-19.592,1.112" style="fill:none;stroke:currentColor;stroke-miterlimit:10;stroke-width:1.5" />
    <circle cx="46.2441" cy="25.1739" r="6.8608" style="fill:none;stroke:currentColor;stroke-miterlimit:10;stroke-width:1.5" />
  </g>
</svg>