<?xml version='1.0' encoding='utf-8'?>
<svg xmlns="http://www.w3.org/2000/svg" version="1.1" id="Layer_1" x="0px" y="0px" viewBox="0 0 110 110" style="enable-background:new 0 0 110 110;fill:none;stroke:currentColor;stroke-width:1.5" xml:space="preserve">
<path style="fill:none;stroke:currentColor;stroke-width:1.5;stroke-linecap:round;stroke-linejoin:round" d="M41.947,65.35  c0,0,1.283,5.322,6.386,14.174c1.384,2.401,0.121,5.093-2.293,6.156c-2.413,1.063-4.588,0.4-6.291-2.334  c-4.597-7.379-6.984-15.89-6.984-15.89 M69.703,39.92c3.532-0.81,7.035,1.329,7.826,4.779c0.791,3.45-1.43,6.902-4.961,7.712   M87.418,54.55l5.736,1.76 M88.035,42.132l5.878-1.371 M82.078,31.219l4.365-4.115 M45.937,51.976l-2.443-10.651  c3.463-1.607,11.444-5.803,19.785-17.544c0.789-1.111,2.539-0.796,2.84,0.515l10.047,43.797c0.301,1.311-1.136,2.357-2.332,1.701  c-12.624-6.932-21.637-7.23-25.453-7.167L45.937,51.976z M23.243,44.715l17.295-3.967c1.481-0.34,2.951,0.558,3.283,2.005  l4.23,18.44c0.332,1.447-0.6,2.895-2.081,3.235l-17.295,3.967c-1.481,0.34-2.951-0.558-3.283-2.005l-4.23-18.44  C20.83,46.503,21.761,45.055,23.243,44.715z M20.134,49.808l1.383-0.308l3.512,15.351l-1.372,0.315  c-4.339,0.995-8.651-1.638-9.623-5.876C13.062,55.052,15.795,50.804,20.134,49.808z" />
</svg>