<?xml version='1.0' encoding='utf-8'?>
<svg xmlns="http://www.w3.org/2000/svg" id="Layer_1" data-name="Layer 1" width="110" height="110" viewBox="0 0 110 110">
  <path d="M68.2401,63.0582c-.2689-.1464-.6535-.0775-.8545.1534l-2.5887,2.6676c-.2074.2381-.6312.3881-.9421.3336l-2.7222-.2931c-.3155-.0131-.6979-.2502-.8501-.5266l-1.9653-3.1569c-.1476-.2684-.5087-.417-.8026-.3306l-3.775,1.1114c-.2938.0865-.5165.4072-.4955.7126l.0589,3.7168c.0219.3147-.1719.7203-.4303.9015l-2.1329,1.7164c-.2323.2136-.6705.3166-.9737.229l-3.6234-.8388c-.2941-.0849-.6548.0655-.8012.3345l-1.8793,3.449c-.1465.2689-.0774.6535.1536.8545l2.6677,2.5885c.2381.2074.3882.6313.3336.9421l-.2936,2.7224c-.0131.3154-.25.6978-.5265.85l-3.1567,1.9652c-.2682.1476-.4171.5088-.3306.8025l1.1114,3.7751c.0865.2938.4072.5168.7128.4955l3.7165-.0588c.3147-.0219.7206.1716.9016.4301l1.7171,2.133c.2136.2324.3165.6704.2289.9736l-.8397,3.6231c-.0851.2943.0652.6548.3343.8013l3.4495,1.8792c.2689.1464.6535.0775.8547-.1535l2.5885-2.6677c.2074-.2379.6313-.3881.9421-.3336l2.722.294c.3154.0132.6978.2502.85.5268l1.9655,3.1561c.1476.2683.5089.4171.8025.3305l3.7751-1.1115c.2937-.0865.5165-.407.4955-.7126l-.0583-3.7159c-.0219-.3149.1717-.7207.4301-.9019l2.1326-1.7169c.2325-.2137.6706-.3167.9737-.229l3.6231.8391c.2943.085.6546-.0654.8013-.3344l1.8794-3.4495c.1464-.2688.0773-.6534-.1535-.8546l-2.6679-2.5884c-.238-.2072-.3882-.6311-.3337-.9421l.2936-2.7217c.0132-.3154.2501-.6979.5266-.8501l3.1568-1.9657c.2683-.1476.417-.5088.3305-.8025l-1.1114-3.7754c-.0866-.2937-.4073-.5167-.7127-.4953l-3.7161.0591c-.3148.0219-.7206-.1716-.9017-.4302l-1.7171-2.1334c-.2139-.2324-.3168-.6706-.229-.9737l.8393-3.6228c.085-.2943-.0655-.6548-.3344-.8013l-3.449-1.8793ZM66.0419,71.1792c2.4996,1.3626,4.3189,3.6169,5.1229,6.3478.804,2.7309.4965,5.6114-.8661,8.111-2.8126,5.1598-9.2989,7.0694-14.4586,4.2567-2.4997-1.3625-4.3189-3.6169-5.1229-6.3478-.804-2.7309-.4965-5.6114.8661-8.111,2.8127-5.1597,9.2988-7.0693,14.4586-4.2567Z" style="fill:none;stroke:currentColor;stroke-miterlimit:10;stroke-width:1.5" />
  <path d="M87.3808,43.5821c-.1805-.0983-.4387-.052-.5736.103l-1.7378,1.7907c-.1392.1598-.4237.2606-.6324.2239l-1.8274-.1967c-.2118-.0088-.4685-.1679-.5707-.3535l-1.3193-2.1192c-.0991-.1801-.3415-.2799-.5388-.2219l-2.5341.7461c-.1972.0581-.3467.2733-.3326.4784l.0395,2.495c.0147.2113-.1154.4835-.2889.6051l-1.4318,1.1522c-.156.1434-.4501.2126-.6536.1537l-2.4323-.5631c-.1974-.057-.4395.044-.5378.2245l-1.2615,2.3153c-.0984.1805-.0519.4387.1031.5736l1.7908,1.7376c.1598.1392.2606.4238.2239.6324l-.1971,1.8275c-.0088.2117-.1678.4684-.3534.5706l-2.119,1.3192c-.1801.0991-.28.3415-.2219.5387l.7461,2.5342c.0581.1972.2734.3469.4785.3326l2.4949-.0394c.2113-.0147.4837.1152.6052.2887l1.1526,1.4318c.1434.156.2125.45.1537.6536l-.5637,2.4322c-.0571.1975.0438.4395.2244.5379l2.3156,1.2615c.1805.0983.4387.052.5738-.103l1.7376-1.7908c.1392-.1597.4238-.2605.6324-.2239l1.8272.1974c.2118.0089.4685.168.5706.3536l1.3194,2.1186c.0991.1801.3416.28.5387.2219l2.5342-.7462c.1972-.0581.3467-.2732.3326-.4784l-.0392-2.4945c-.0147-.2114.1152-.4838.2887-.6054l1.4316-1.1525c.1561-.1434.4502-.2126.6536-.1537l2.4322.5633c.1976.0571.4394-.0439.5379-.2244l1.2616-2.3156c.0983-.1805.0519-.4386-.1031-.5737l-1.7909-1.7376c-.1598-.1391-.2606-.4237-.224-.6324l.1971-1.8271c.0089-.2117.1679-.4685.3535-.5707l2.1191-1.3196c.1801-.0991.2799-.3415.2219-.5387l-.7461-2.5343c-.0581-.1972-.2734-.3468-.4785-.3325l-2.4946.0397c-.2113.0147-.4837-.1152-.6053-.2888l-1.1527-1.4321c-.1436-.156-.2126-.4501-.1537-.6536l.5634-2.432c.0571-.1976-.044-.4395-.2245-.5379l-2.3153-1.2615ZM85.9052,49.0336c1.678.9147,2.8992,2.428,3.4389,4.2612.5397,1.8332.3333,3.7669-.5814,5.4448-1.8881,3.4637-6.2422,4.7456-9.7058,2.8575-1.678-.9146-2.8993-2.428-3.4389-4.2612-.5397-1.8332-.3333-3.7669.5814-5.4448,1.8882-3.4636,6.2422-4.7455,9.7059-2.8575Z" style="fill:none;stroke:currentColor;stroke-miterlimit:10;stroke-width:1.5" />
  <g>
    <g>
      <polyline points="47.9494 25.1747 61.8101 39.0352 61.8101 43.7921 57.3812 48.221 52.6242 43.4641 40.8142 43.4641" style="fill:none;stroke:currentColor;stroke-linecap:round;stroke-linejoin:round;stroke-width:1.5" />
      <path d="M40.8142,43.4641c-2.8924,0-5.2371-2.3447-5.2371-5.2367" style="fill:none;stroke:currentColor;stroke-linecap:round;stroke-linejoin:round;stroke-width:1.5" />
      <path d="M56.2599,22.2655c-3.9539-3.9511-9.4146-6.3945-15.4456-6.3945-12.0687,0-21.8522,9.7835-21.8522,21.8519v17.8795l7.1669,7.1669v10.5875" style="fill:none;stroke:currentColor;stroke-linecap:round;stroke-linejoin:round;stroke-width:1.5" />
      <path d="M26.1333,37.723c0-8.1079,6.5727-14.6806,14.6809-14.6806" style="fill:none;stroke:currentColor;stroke-linecap:round;stroke-linejoin:round;stroke-width:1.5" />
      <line x1="43.6846" y1="43.4641" x2="43.6846" y2="54.1497" style="fill:none;stroke:currentColor;stroke-linecap:round;stroke-linejoin:round;stroke-width:1.5" />
      <path d="M33.4736,51.1298c10.369,0,15.4846,4.872,15.4846,15.241" style="fill:none;stroke:currentColor;stroke-linecap:round;stroke-linejoin:round;stroke-width:1.5" />
      <line x1="23.0907" y1="77.7781" x2="42.7982" y2="77.7781" style="fill:none;stroke:currentColor;stroke-linecap:round;stroke-linejoin:round;stroke-width:1.5" />
      <line x1="23.0907" y1="84.4099" x2="34.3282" y2="84.4099" style="fill:none;stroke:currentColor;stroke-linecap:round;stroke-linejoin:round;stroke-width:1.5" />
    </g>
    <line x1="50.6534" y1="27.8722" x2="56.2599" y2="22.2655" style="fill:none;stroke:currentColor;stroke-linecap:round;stroke-linejoin:round;stroke-width:1.5" />
  </g>
</svg>