<?xml version='1.0' encoding='utf-8'?>
<svg xmlns="http://www.w3.org/2000/svg" width="110" height="110" viewBox="0 0 110 110" fill="none" stroke="currentColor" stroke-width="1.5">
<path d="M13 49.101H97.2341V41.7033C97.2341 36.477 92.9959 32.2353 87.7738 32.2353H13V49.101ZM13 49.101V21M41.078 26.6177H80.3822M46.6911 26.6177V49.101M74.7691 26.6177V49.101M13 23.8151C13 23.8151 29.8448 23.8025 29.8448 32.2353M29.8519 49.101L80.3822 83.8801M80.3822 49.101L29.3221 83.8801M34.5063 84.0442C34.5063 86.9097 32.1853 89.2326 29.3221 89.2326C26.4589 89.2326 24.1379 86.9097 24.1379 84.0442C24.1379 81.1787 26.4589 78.8557 29.3221 78.8557C32.1853 78.8557 34.5063 81.1787 34.5063 84.0442ZM30.9366 83.8801C30.9366 84.7725 30.2138 85.4959 29.3221 85.4959C28.4304 85.4959 27.7075 84.7725 27.7075 83.8801C27.7075 82.9876 28.4304 82.2642 29.3221 82.2642C30.2138 82.2642 30.9366 82.9876 30.9366 83.8801ZM85.5791 84.0442C85.5791 86.9097 83.258 89.2326 80.3948 89.2326C77.5317 89.2326 75.2106 86.9097 75.2106 84.0442C75.2106 81.1787 77.5317 78.8557 80.3948 78.8557C83.258 78.8557 85.5791 81.1787 85.5791 84.0442ZM81.9968 83.8801C81.9968 84.7725 81.2739 85.4959 80.3822 85.4959C79.4905 85.4959 78.7677 84.7725 78.7677 83.8801C78.7677 82.9876 79.4905 82.2642 80.3822 82.2642C81.2739 82.2642 81.9968 82.9876 81.9968 83.8801Z" stroke="currentColor" stroke-width="1.5" stroke-miterlimit="10" stroke-linecap="round" fill="none" />
</svg>