<?xml version='1.0' encoding='utf-8'?>
<svg xmlns="http://www.w3.org/2000/svg" width="110" height="110" viewBox="0 0 110 110" fill="none" stroke="currentColor" stroke-width="1.5">
<path d="M18.1529 64L18.5382 87.7328C18.5152 88.8838 19.0099 90.0579 20.0569 91.1284L30.9988 101.269C34.0133 104.308 40.4794 105.275 45.4383 103.433L96.9376 84.3486C100.205 83.14 102.012 81.0106 102 78.8235L101.471 52.7634M82.3484 37L82.8226 19.7215C82.8518 18.6554 82.313 17.6539 81.4071 17.0911L73.0001 11.8668C71.2437 10.8009 70.4132 10.8239 69.0631 11.3668L10.5002 30.8668C8.2448 31.9378 7.56726 31.8668 7.0002 34.3668V44.3668V52.3636C7.0002 53.3097 7.44647 54.2003 8.2043 54.7667L18.0507 62.1252M20.7581 49.7066L66.727 33.371C72 31.5 70.8907 30.8935 74.6853 33.2644L80 36.7556M8 32.1834L19.7018 40.5696C20.5133 41.1512 20.9824 42.0985 20.9529 43.0965L20.5 58.4602M25.8599 55.8148C25.8599 55.8148 59.5 43.5 74.4326 38.0754C79.403 36.2337 81.473 36.1223 85.5 39L100.063 49.3609C103.078 52.3997 101.49 56.3479 96.5197 58.1896L45.0204 77.7462C40.0499 79.5879 36.5 80.6103 33 78C28.7929 74.8624 23 69.5 19.0139 65.8334C17.561 63.7243 17.8152 61.6716 18.8613 59.9969C19.9275 58.2899 24.1175 56.3958 25.8599 55.8148ZM43.7507 61.2291C43.7507 61.8481 44.7881 62.2546 46.0518 62.1252C47.3156 61.9959 48.353 61.3862 48.353 60.7672C48.353 60.1483 47.3156 59.7418 46.0518 59.8711C44.7881 60.0005 43.7507 60.6102 43.7507 61.2291ZM66.762 52.0206C66.762 52.6396 67.7994 53.0461 69.0631 52.9167C70.3268 52.7874 71.3642 52.1777 71.3642 51.5587C71.3642 50.9398 70.3268 50.5333 69.0631 50.6626C67.7994 50.792 66.762 51.4017 66.762 52.0206ZM24.1911 61.2291C24.1911 61.8481 25.2285 62.2546 26.4922 62.1252C27.756 61.9959 28.7934 61.3862 28.7934 60.7672C28.7934 60.1483 27.756 59.7418 26.4922 59.8711C25.2285 60.0005 24.1911 60.6102 24.1911 61.2291ZM48.353 52.0206C48.353 52.6396 49.3903 53.0461 50.6541 52.9167C51.9178 52.7874 52.9552 52.1777 52.9552 51.5587C52.9552 50.9398 51.9178 50.5333 50.6541 50.6626C49.3903 50.792 48.353 51.4017 48.353 52.0206ZM71.3642 42.8121C71.3642 43.4311 72.4016 43.8376 73.6653 43.7082C74.9291 43.5789 75.9665 42.9692 75.9665 42.3502C75.9665 41.7313 74.9291 41.3248 73.6653 41.4541C72.4016 41.5835 71.3642 42.1932 71.3642 42.8121ZM37.9979 71.5887C37.9979 72.2077 39.0353 72.6141 40.299 72.4848C41.5627 72.3555 42.6001 71.7458 42.6001 71.1268C42.6001 70.5079 41.5627 70.1014 40.299 70.2307C39.0353 70.3601 37.9979 70.9698 37.9979 71.5887ZM62.1597 62.3802C62.1597 62.9992 63.1971 63.4056 64.4608 63.2763C65.7246 63.147 66.762 62.5373 66.762 61.9183C66.762 61.2994 65.7246 60.8929 64.4608 61.0222C63.1971 61.1515 62.1597 61.7613 62.1597 62.3802ZM85.171 53.1717C85.171 53.7906 86.2084 54.1971 87.4721 54.0678C88.7358 53.9385 89.7732 53.3287 89.7732 52.7098C89.7732 52.0908 88.7358 51.6844 87.4721 51.8137C86.2084 51.943 85.171 52.5527 85.171 53.1717Z" stroke="currentColor" stroke-width="1.5" stroke-miterlimit="10" stroke-linecap="round" fill="none" />
</svg>