<?xml version='1.0' encoding='utf-8'?>
<svg xmlns="http://www.w3.org/2000/svg" width="110" height="110" viewBox="0 0 110 110" fill="none" stroke="currentColor" stroke-width="1.5">
<path d="M58.169 52.2187C56.9756 50.2848 56.3371 47.9599 56.4836 45.4871C56.4941 45.3709 56.5045 45.244 56.515 45.1278C57.0384 39.3261 61.9689 34.7503 67.7786 34.7503C71.4948 34.7503 74.7922 36.5468 76.8649 39.3261C78.9376 36.5468 82.235 34.7503 85.9512 34.7503C91.7609 34.7609 96.6809 39.3261 97.2148 45.1278C97.2253 45.244 97.2462 45.3603 97.2462 45.4871H97.2357C97.3823 47.9705 96.7437 50.2848 95.5504 52.2187M58.169 52.2187C61.3408 57.3652 62.8377 63.3677 62.0736 69.3807L61.613 73.016C61.2675 75.7319 64.5335 77.3593 66.4492 75.4148L72.416 65.217C74.4154 61.8036 79.304 61.8036 81.3034 65.217L87.2702 75.4148C89.1963 77.3593 92.4519 75.7319 92.1064 73.016L91.6458 69.3807C90.8816 63.3782 92.3786 57.3652 95.5504 52.2187M58.169 52.2187C58.169 52.2187 73.8606 67.6476 95.5504 52.2187M38.1585 35.168L40.8099 41.28M40.8099 41.28L35.4499 45.03L31.6999 44.5M40.8099 41.28L39.1999 46.64L40.2699 51.46M40.8099 41.28L43.4799 45.57H46.6999L47.2299 49.32M52.5058 45.4871C52.5058 45.3603 52.4848 45.244 52.4743 45.1278C51.9405 39.3261 47.0205 34.7609 41.2107 34.7503C37.4946 34.7503 34.1971 36.5468 32.1245 39.3261C30.0622 36.5363 26.7648 34.7397 23.0486 34.7397C17.2389 34.7397 12.3084 39.3156 11.785 45.1172C11.7746 45.2335 11.7641 45.3603 11.7536 45.4765C11.6071 47.9494 12.2456 50.2743 13.439 52.2082C16.6108 57.3546 18.1077 63.3571 17.3436 69.3701L16.883 73.0054C16.5375 75.7213 19.8036 77.3487 21.7192 75.4043L27.686 65.2064C29.6854 61.7931 34.574 61.7931 36.5734 65.2064L42.5402 75.4043C44.4663 77.3487 47.7218 75.7213 47.3764 73.0054L46.9158 69.3701C46.1516 63.3677 47.6486 57.3546 50.8204 52.2082C52.0138 50.2743 52.6523 47.9599 52.5058 45.4765V45.4871Z" stroke="currentColor" stroke-width="1.5" stroke-linecap="round" stroke-linejoin="round" fill="none" />
</svg>