<?xml version='1.0' encoding='utf-8'?>
<svg xmlns="http://www.w3.org/2000/svg" width="110" height="110" viewBox="0 0 110 110" fill="none" stroke="currentColor" stroke-width="1.5">
<path d="M30.7532 48.5133V35.0212M78.4914 48.5133V35.0212M78.4914 48.5133V91.2413H30.7437V48.5133L26.4073 52.8656M78.4914 48.5133L82.8278 52.8656L98.0146 37.6231M98.0146 37.6231L81.0367 20.5735C79.4058 18.9367 77.1999 18.0189 74.8997 18.0189L66.3588 18L54.7731 29.6282L43.1873 18L34.3448 18.0189C32.0447 18.0189 29.8387 18.9367 28.2079 20.5735L11.2205 37.6231M98.0146 37.6231C98.0146 37.6231 87.1736 41.9754 82.8372 52.8656M11.2205 37.6231L26.4073 52.8656M11.2205 37.6231C11.2205 37.6231 22.0709 41.9754 26.4073 52.8656M39.4214 18.0081L54.6223 33.2614L69.8243 18.0077M62.5598 42.0416C61.9847 42.0227 61.4474 42.2214 60.9101 42.4012C58.7513 43.1202 56.9979 44.4732 55.4141 46.0817C53.7833 47.7374 52.4541 49.6392 51.2097 51.6072C49.3432 54.5402 47.0241 57.0286 44.1112 58.9115C42.6406 59.8671 41.0663 60.6145 39.3883 61.0971C38.6058 61.3241 37.8045 61.5134 36.975 61.5323M71.3834 56.7732C70.8084 56.7542 70.2711 56.9529 69.7337 57.1327C67.5749 57.8518 65.8215 59.2048 64.2378 60.8132C62.6069 62.469 61.2777 64.3707 60.0334 66.3387C58.1668 69.2718 55.8478 71.7601 52.9348 73.643C51.4642 74.5986 49.8899 75.346 48.2119 75.8286C47.4295 76.0557 46.6282 76.2449 45.7986 76.2638" stroke="currentColor" stroke-width="1.5" stroke-linecap="round" stroke-linejoin="round" fill="none" />
</svg>