<?xml version='1.0' encoding='utf-8'?>
<svg xmlns="http://www.w3.org/2000/svg" id="Layer_1" data-name="Layer 1" width="110" height="110" viewBox="0 0 110 110">
  <path d="M14.6619,68.4243l4.1096-5.5649,5.6419,4.6574M68.6972,16.7705l2.8622,6.2975-6.8134,2.6631M72.1688,93.1105c-22.5852,10.175-50.1787-4.0634-53.3973-30.2511M19.1026,51.107c4.2449-22.9372,29.1951-37.9093,52.4568-28.039" style="fill:none;stroke:currentColor;stroke-linecap:round;stroke-linejoin:round;stroke-width:1.5" />
  <path d="M74.3668,32.6457v31.7405c-2.3188,1.4223-3.8467,4.0073-3.7532,6.9487.1298,4.0612,3.4815,7.4371,7.5427,7.5922,4.4792.1705,8.1631-3.4089,8.1631-7.8496,0-2.8347-1.5059-5.3097-3.7565-6.6913v-31.7405" style="fill:none;stroke:currentColor;stroke-miterlimit:10;stroke-width:1.5" />
  <path d="M85.7515,55.6191l3.1581,5.9367,3.1581-5.9367h-3.1581v-20.0915h-3.1581l3.1581-5.9367,3.1581,5.9367M81.2096,66.5916c1.5796.9691,2.5223,2.6466,2.5223,4.4858,0,2.9051-2.3628,5.2668-5.2679,5.2668-2.9029,0-5.2668-2.3617-5.2668-5.2668,0-1.8392.9438-3.5167,2.5234-4.4858l1.2342-.7579v-23.7743" style="fill:none;stroke:currentColor;stroke-linecap:round;stroke-linejoin:round;stroke-width:1.5" />
  <circle cx="78.432" cy="32.5567" r="4.0898" transform="translate(-6.3551 27.7968) rotate(-19.3299)" style="fill:none;stroke:currentColor;stroke-miterlimit:10;stroke-width:1.5" />
  <path d="M85.251,89.6307l-6.8607-.8888.9306-5.038M93.2139,66.138c-1.8656,8.6086-6.7452,16.7189-14.8236,22.6039M30.8846,57.9914h41.8429M35.6487,71.8844h33.2849M35.6487,43.3812h37.1525M66.3651,57.9914c0,13.6906-4.7861,24.7896-10.6909,24.7896s-10.6909-11.099-10.6909-24.7896,4.7861-24.7896,10.6909-24.7896,10.6909,11.0979,10.6909,24.7896ZM69.5914,78.5086c-1.3354.9075-2.7643,1.6874-4.268,2.3243-2.9656,1.254-6.2271,1.9481-9.6492,1.9481-13.6906,0-24.7896-11.099-24.7896-24.7896s11.099-24.7896,24.7896-24.7896c3.4221,0,6.6836.693,9.6492,1.9481,1.1121.4697,2.1824,1.0197,3.2054,1.6401,1.2309.7491,2.3914,1.6016,3.4705,2.5454" style="fill:none;stroke:currentColor;stroke-linecap:round;stroke-linejoin:round;stroke-width:1.5" />
</svg>