<?xml version='1.0' encoding='utf-8'?>
<svg xmlns="http://www.w3.org/2000/svg" version="1.1" id="Layer_1" x="0px" y="0px" viewBox="0 0 110 110" style="enable-background:new 0 0 110 110;fill:none;stroke:currentColor;stroke-width:1.5" xml:space="preserve">
<path style="fill:none;stroke:currentColor;stroke-width:1.5;stroke-linecap:round;stroke-linejoin:round" d="M57.079,47.959l-1.885-5.807  l-1.881,5.794 M57.079,47.959l1.97,6.069h12.487l-10.098,7.343l3.389,10.441 M57.079,47.959c7.992-0.908,14.202-7.693,14.202-15.928  C71.28,23.177,64.103,16,55.25,16c-8.854,0-16.031,7.177-16.031,16.031c0,8.198,6.154,14.959,14.094,15.915 M53.313,47.946  l-1.974,6.082H38.852l10.098,7.343L45.53,71.909 M64.827,71.812l0.466,1.435l-0.835-0.608 M64.827,71.812  c2.588-5.376,8.087-9.086,14.452-9.086c8.854,0,16.031,7.177,16.031,16.031s-7.177,16.031-16.031,16.031  s-16.031-7.177-16.031-16.031c0-2.167,0.43-4.233,1.209-6.118 M64.457,72.639l-9.263-6.736l-9.323,6.779 M45.871,72.683  l-0.775,0.564l0.434-1.338 M45.871,72.683c0.768,1.873,1.191,3.924,1.191,6.074c0,8.854-7.177,16.031-16.031,16.031  S15,87.611,15,78.757s7.177-16.031,16.031-16.031c6.404,0,11.931,3.755,14.499,9.183 M28.176,74.991l2.844-8.743l2.844,8.743h9.188  l-7.432,5.399l2.844,8.743l-7.432-5.399l-7.432,5.399l2.844-8.743l-7.432-5.399H28.176z M91.322,74.991L83.89,80.39l2.844,8.743  l-7.432-5.399l-7.432,5.399l2.844-8.743l-7.432-5.399h9.188l2.844-8.743l2.844,8.743H91.322z M52.394,28.265l2.844-8.743  l2.844,8.743h9.187l-7.432,5.399l2.844,8.743l-7.432-5.399l-7.432,5.399l2.844-8.743l-7.432-5.399H52.394z" />
</svg>