<?xml version='1.0' encoding='utf-8'?>
<svg xmlns="http://www.w3.org/2000/svg" version="1.1" id="Layer_1" x="0px" y="0px" viewBox="0 0 110 110" style="enable-background:new 0 0 110 110;fill:none;stroke:currentColor;stroke-width:1.5" xml:space="preserve">
<path style="fill:none;stroke:currentColor;stroke-width:1.5" d="M76.5,67.52l-0.857-0.516l-0.217,0.361l0.106,0.408L76.5,67.52z M79.5,79l-0.262,0.965  c0.344,0.093,0.712-0.004,0.966-0.255c0.254-0.251,0.354-0.618,0.264-0.963L79.5,79z M68.448,76l0.262-0.965l-0.44-0.12  l-0.379,0.255L68.448,76z M85.5,64.691l-0.96-0.281l-0.371,1.268l1.321,0.012L85.5,64.691z M85.416,44  c-0.552-0.005-1.004,0.438-1.009,0.991c-0.005,0.552,0.438,1.004,0.991,1.009L85.416,44z M95.262,55.114l1,0.009l0,0L95.262,55.114z   M24.584,46c0.552,0.005,1.004-0.438,1.009-0.991c0.005-0.552-0.438-1.004-0.991-1.009L24.584,46z M14.738,54.577l1,0.009  L14.738,54.577z M24.375,65.338c0.552,0.005,1.004-0.438,1.009-0.991c0.005-0.552-0.438-1.004-0.991-1.009L24.375,65.338z M55,79  c-13.236,0-24-10.95-24-24.5h-2C29,69.117,40.622,81,55,81V79z M31,54.5C31,40.95,41.764,30,55,30v-2c-14.378,0-26,11.883-26,26.5  H31z M55,30c13.236,0,24,10.95,24,24.5h2C81,39.883,69.378,28,55,28V30z M75.533,67.773l3,11.48l1.935-0.506l-3-11.48L75.533,67.773  z M79.762,78.035l-11.052-3l-0.524,1.93l11.052,3L79.762,78.035z M67.891,75.17C64.12,77.702,59.879,79,55,79v2  c5.263,0,9.895-1.409,14.006-4.17L67.891,75.17z M79,54.5c0,4.71-1.123,8.792-3.357,12.505l1.714,1.031  C79.788,63.996,81,59.553,81,54.5H79z M57,87c0,1.381-1.119,2.5-2.5,2.5v2c2.485,0,4.5-2.015,4.5-4.5H57z M54.5,89.5  c-1.381,0-2.5-1.119-2.5-2.5h-2c0,2.485,2.015,4.5,4.5,4.5V89.5z M52,87c0-1.381,1.119-2.5,2.5-2.5v-2c-2.485,0-4.5,2.015-4.5,4.5  H52z M54.5,84.5c1.381,0,2.5,1.119,2.5,2.5h2c0-2.485-2.015-4.5-4.5-4.5V84.5z M24,55c0-17.121,13.879-31,31-31v-2  c-18.225,0-33,14.775-33,33H24z M55,24c17.121,0,31,13.879,31,31h2c0-18.225-14.775-33-33-33V24z M51.124,85.76  C35.833,83.853,24,70.808,24,55h-2c0,16.829,12.597,30.715,28.876,32.745L51.124,85.76z M86,55c0,3.007-0.644,6.622-1.46,9.41  l1.92,0.562C87.314,62.05,88,58.242,88,55H86z M85.397,46c4.773,0.045,8.91,4.299,8.865,9.105l2,0.019  C96.317,49.229,91.31,44.056,85.416,44L85.397,46z M94.262,55.105c-0.045,4.782-3.955,8.632-8.752,8.586l-0.019,2  c5.904,0.055,10.715-4.682,10.771-10.568L94.262,55.105z M24.603,44c-5.873-0.055-10.809,4.67-10.865,10.568l2,0.019  c0.045-4.769,4.052-8.632,8.846-8.587L24.603,44z M13.738,54.568c-0.056,5.895,4.759,10.715,10.636,10.77l0.019-2  c-4.79-0.045-8.7-3.979-8.655-8.751L13.738,54.568z" />
<path style="fill:none;stroke:currentColor;stroke-width:1.5;stroke-linecap:round" d="M41,55h27 M46.87,47h16.435 M46.87,63h16.435" />
</svg>