<?xml version='1.0' encoding='utf-8'?>
<svg xmlns="http://www.w3.org/2000/svg" id="Layer_1" data-name="Layer 1" width="110" height="110" viewBox="0 0 110 110">
  <path d="M50.9331,43.7788c-1.9421-1.0733-3.6058-2.5839-4.8659-4.3979-10.0281,2.6108-17.8992,8.2849-21.2737,15.3827-3.2229-.537-5.9825-.4155-8.0326.3457-2.9493-.8143-6.5495.5624-10.0198,3.8677-.4399.4189-.4571,1.115-.0381,1.5549.42.4415,1.1161.4576,1.5549.0381,1.911-1.8197,3.8511-2.9654,5.5747-3.344-.6418.8964-.9754,1.9798-.9754,3.1931,0,1.5786.4345,2.9299,1.2568,3.9085.7772.9249,1.8713,1.4556,3.0024,1.4556,1.9454,0,3.9145-1.6205,3.9145-4.718,0-1.7311-.5683-3.2452-1.5834-4.3436,1.2854-.1576,2.8137-.1044,4.4927.1406-.6123,1.8166-.942,3.7091-.942,5.6558,0,5.4353,2.5304,10.4573,6.8081,14.5364.7337,6.1713,2.6165,11.0636,5.7845,16.4609h8.0722c-.6942-2.7769-.8334-6.0995-.7918-8.8198,4.7209,1.6137,10.0291,2.5235,15.6447,2.5235,2.4921,0,4.9233-.1803,7.2705-.5199.8987,2.2726,2.0236,4.4972,3.3848,6.8163h8.0722c-.7702-3.0809-.8582-6.8328-.7724-9.6876,6.129-2.5031,11.0855-6.2444,14.1495-10.7339.4181-.6126,1.1182-.9693,1.856-.8943l4.4505.4526.1084.0734c1.0568.7169,2.4971.0538,2.6395-1.2153l1.1939-10.6366c.1309-1.1659-.9324-2.1098-2.0747-1.8417l-.5704.1339-3.5671-.7017c-.7158-.1408-1.2698-.6774-1.4934-1.3717-1.0945-3.3984-3.1914-6.5326-6.0718-9.242,1.6606-3.0997,4.2203-7.0719,6.7809-8.7418-7.4707-4.3697-12.3567-2.4614-16.7001,2.3911-2.2789-.9804-4.7366-1.7749-7.319-2.3808-1.2174,1.838-2.8496,3.371-4.7585,4.4851" style="fill:none;stroke:currentColor;stroke-linecap:round;stroke-linejoin:round;stroke-width:1.5" />
  <circle cx="84.6699" cy="56.5447" r="1.9373" style="fill:none;stroke:currentColor;stroke-linecap:round;stroke-linejoin:round;stroke-width:1.5" />
  <g>
    <path d="M15.7984,62.9125c-.3384-.4023-.7412-1.1618-.7412-2.4933,0-1.0527.3588-1.8648,1.0968-2.482.2014-.1687.4292-.3217.6816-.4582,1.2531.6155,1.9954,1.9417,1.9954,3.5863.0005,2.7323-2.0324,3.0395-3.0325,1.8471Z" style="fill:none;stroke:currentColor;stroke-linecap:round;stroke-linejoin:round;stroke-width:1.5" />
    <path d="M57.8702,16.8295c-7.9355,0-14.3685,6.433-14.3685,14.3685,0,3.0428.9519,5.8599,2.5656,8.1829,1.2601,1.814,2.9238,3.3246,4.8659,4.3979,2.425-.4373,4.9611-.6827,7.5828-.6827,2.2609,0,4.46.18,6.5788.5081,1.9089-1.1142,3.5411-2.6471,4.7585-4.4851,1.5046-2.2716,2.3855-4.9923,2.3855-7.921,0-7.9355-6.433-14.3685-14.3685-14.3685Z" style="fill:none;stroke:currentColor;stroke-linecap:round;stroke-linejoin:round;stroke-width:1.5" />
  </g>
  <path d="M71.7207,45.031c-3.9445-1.2086-8.3692-1.8861-13.0432-1.8861-5.218,0-10.1252.8444-14.4006,2.3294" style="fill:none;stroke:currentColor;stroke-linecap:round;stroke-linejoin:round;stroke-width:1.5" />
  <g>
    <path d="M62.255,25.9428c0-1.4082-1.1522-2.5604-2.5604-2.5604h-3.7771c-1.4082,0-2.5603,1.1522-2.5603,2.5604v1.51c0,1.4082,1.1521,2.5603,2.5603,2.5603h3.7771c1.4082,0,2.5604,1.1522,2.5604,2.5604v1.51c0,1.4082-1.1522,2.5603-2.5604,2.5603h-3.7771c-1.4082,0-2.5603-1.1521-2.5603-2.5603" style="fill:none;stroke:currentColor;stroke-linecap:round;stroke-linejoin:round;stroke-width:1.5" />
    <line x1="57.8061" y1="23.3823" x2="57.8061" y2="20.7739" style="fill:none;stroke:currentColor;stroke-linecap:round;stroke-linejoin:round;stroke-width:1.5" />
    <line x1="57.8061" y1="39.2523" x2="57.8061" y2="36.6439" style="fill:none;stroke:currentColor;stroke-linecap:round;stroke-linejoin:round;stroke-width:1.5" />
  </g>
</svg>