<?xml version='1.0' encoding='utf-8'?>
<svg xmlns="http://www.w3.org/2000/svg" id="Layer_1" data-name="Layer 1" width="110" height="110" viewBox="0 0 110 110">
  <path d="M60.8767,97.6408h4.4773c11.1272,0,20.1476-9.0204,20.1476-20.1476V30.3014h-6.7159l12.3124-12.3124,12.3124,12.3124h-6.7159v47.1918c0,11.1272-9.0204,20.1476-20.1476,20.1476H9.9805" style="fill:none;stroke:currentColor;stroke-linecap:round;stroke-linejoin:round;stroke-width:1.5" />
  <g>
    <path d="M49.0004,50.8826l-3.7624,2.5924-4.0844-13.2422-.1606-.1606-4.6799,14.3609h-15.0951l12.1128,9.0846-3.1026,9.334c-1.9269,2.1566-4.1207,4.6742-6.4606,6.0966l4.4934-13.8936-20.532-15.2557,25.4412.0151.2752-.2903,7.7081-23.8358,7.8468,25.1945Z" style="fill:none;stroke:currentColor;stroke-linecap:round;stroke-linejoin:round;stroke-width:1.5" />
    <path d="M72.1471,51.6802l-5.3454,3.8542c-8.8781-2.4549-17.1602,2.34-22.5739,9.4745-5.6206,8.8094-11.6998,20.0043-22.3902,23.5602-1.4911.6195-3.051,1.0325-4.6799,1.2618.4817-1.9273,1.2615-3.7165,1.8123-5.6206.8257-.5045,1.8582-.757,2.753-1.2618,11.9291-5.6434,14.2919-18.9262,24.0651-27.0242,6.033-5.0701,14.1541-7.7541,22.115-5.5747,1.4449.3899,2.8904.7801,4.2441,1.3306Z" style="fill:none;stroke:currentColor;stroke-linecap:round;stroke-linejoin:round;stroke-width:1.5" />
    <path d="M48.4272,63.8433l4.2429,14.0354-.1146.1147-9.042-7.0525-2.2749,3.5488,19.6905,15.0201c0-.0691,0-.1378-.0692-.1609l-7.3642-23.5143-.1146-.6651,10.7635-7.7652c-6.1948-.5353-11.3278,2.3464-15.7174,6.4389Z" style="fill:none;stroke:currentColor;stroke-linecap:round;stroke-linejoin:round;stroke-width:1.5" />
  </g>
</svg>