<?xml version='1.0' encoding='utf-8'?>
<svg xmlns="http://www.w3.org/2000/svg" width="110" height="110" viewBox="0 0 110 110" fill="none" stroke="currentColor" stroke-width="1.5">
<path d="M55 44.0189C55 51.7405 61.268 58 69 58C76.732 58 83 51.7405 83 44.0189C83 36.2973 69.521 19.5204 69 19C68.2452 19.5641 55 36.2973 55 44.0189Z" stroke="currentColor" stroke-width="1.5" stroke-miterlimit="10" stroke-linecap="round" stroke-linejoin="round" fill="none" />
<path d="M68.9603 70.2049C68.9603 70.2049 78.1054 66.2058 83.7461 63.6727C89.6787 61.0085 93.2128 63.4602 95.6202 67.2907L66.2525 84.5593L36.3025 78.0079M25.5059 65.4332C33.1576 59.3521 38.9491 57.0662 44.7762 58.3409C49.6516 59.4073 52.1125 60.5481 55.6103 64.2384C58.7955 64.9352 63.1004 65.8768 64.5338 66.1904C65.9672 66.5039 70.5487 68.1735 68.8991 75.1168L50.1146 71.0078M14 66.4542L22.7081 60.9814L37.9697 85.2652L29.2616 90.738M20.2023 70.1488C19.3144 70.7068 19.0389 71.8662 19.587 72.7383C20.1351 73.6104 21.2992 73.865 22.1871 73.307C23.075 72.749 23.3505 71.5896 22.8024 70.7175C22.2543 69.8454 21.0901 69.5908 20.2023 70.1488Z" stroke="currentColor" stroke-width="1.5" stroke-linecap="round" fill="none" />
</svg>