<?xml version='1.0' encoding='utf-8'?>
<svg xmlns="http://www.w3.org/2000/svg" width="110" height="110" viewBox="0 0 110 110" fill="none" stroke="currentColor" stroke-width="1.5">
<path d="M25.6738 50.3449C26.6184 49.6726 27.8122 49.3519 29.0371 49.6105C31.352 50.0966 32.826 52.3618 32.3381 54.6684L31.2586 59.7573C31.0094 60.9261 30.3035 61.8983 29.3693 62.4983L26.3277 64.4738C18.5007 69.3145 15.7602 56.5509 24.044 51.3585L25.6738 50.3449ZM25.6738 50.3449L46.4143 36.8675M46.4143 36.8675C47.9714 35.8229 49.6531 37.4468 48.1998 39.6085C45.5216 43.5803 43.7154 51.824 41.6496 57.8438C39.5942 63.8636 36.0648 61.8053 33.9056 60.833M46.4143 36.8675L63.9161 25.5209C68.4317 22.5938 75.8747 19.0977 75.8747 19.0977M30.1997 61.7639C31.3727 60.7916 32.7222 60.2331 33.9056 60.833M33.9056 60.833C33.9056 60.833 31.6323 67.4113 31.4973 68.0216M31.4973 68.0216C30.999 70.3902 32.7326 72.2106 35.1098 72.7174C37.1652 73.1519 39.1894 72.0658 40.0198 70.2454M31.4973 68.0216L28.2585 76.9375C27.345 78.9648 28.2585 81.3438 30.2828 82.2643C32.3174 83.1745 34.7049 82.2643 35.6288 80.2474L40.0198 70.2454M75.8747 19.0977C76.3418 18.9219 76.8712 18.8598 77.4006 18.9736C78.8435 19.2736 79.757 20.6906 79.456 22.118C79.3003 22.8834 78.7294 23.4626 78.7294 23.4626M75.8747 19.0977C80.4837 17.0291 84.4076 12.3229 85.7156 11.2161C86.8678 10.2439 89.6706 12.7676 91.2796 14.495C91.6118 14.8466 91.6014 15.3948 91.2692 15.7362C90.937 16.0775 90.4076 16.0982 90.0443 15.7879C88.5806 14.526 86.8574 13.6675 86.0166 14.8673C85.0512 16.243 80.849 21.2996 78.7294 23.4626M40.0198 70.2454C46.2794 57.8024 43.7776 61.557 49.6012 53.1376C55.4455 44.6974 66.7293 34.2817 70.5286 31.2408C75.2726 27.4448 78.7294 23.4626 78.7294 23.4626M28.1973 80.0881L24.1374 90.1149M24.1374 90.1149C23.7779 91.5774 24.2931 93.1455 25.7257 93.6937C27.1582 94.2419 28.6121 93.41 29.3278 92.1008M24.1374 90.1149L22.8814 95.2245C22.4661 96.3002 23.0059 97.5104 24.0855 97.9344C25.1651 98.3482 26.3796 97.8103 26.7949 96.7346L29.3278 92.1008M29.3278 92.1008L33.2101 82.4091M27.262 56.7267C28.1444 56.9129 28.6115 58.1851 28.3208 59.5608C28.0302 60.9468 27.0751 61.9087 26.2032 61.7329C25.3208 61.5467 24.8537 60.2744 25.1443 58.8988C25.435 57.5128 26.39 56.5509 27.262 56.7267Z" stroke="currentColor" stroke-width="1.5" stroke-miterlimit="10" fill="none" />
</svg>