<?xml version='1.0' encoding='utf-8'?>
<svg xmlns="http://www.w3.org/2000/svg" width="110" height="110" viewBox="0 0 110 110" fill="none" stroke="currentColor" stroke-width="1.5">
<path d="M55.4015 17.5486V8.74683M55.6149 59.637V50.8353M60.0211 55.2415H51.2194M45.8103 18.5728L43.5271 10.0698M36.8058 22.0402L32.4102 14.4226M29.0069 27.7266L22.787 21.5067M22.947 35.2375L15.3295 30.8419M19.0422 44.0606L10.5392 41.7881M17.5486 53.5985H8.74683M18.5728 63.1898L10.0698 65.4729M22.0402 72.1942L14.4226 76.6004M27.7266 79.9931L21.5067 86.213M35.2375 86.053L30.8419 93.6705M44.0606 89.9685L41.7881 98.4608M53.5985 91.4514V100.253M63.1898 90.4272L65.4729 98.9303M72.1942 86.9599L76.6004 94.5774M79.9931 81.2734L86.213 87.4933M86.053 73.7625L93.6705 78.1581M89.9685 64.9394L98.4608 67.2119M91.4514 55.4015H100.253M90.4272 45.8103L98.9303 43.5271M86.9599 36.8058L94.5774 32.4102M81.2734 29.0069L87.4933 22.787M73.7625 22.947L78.1581 15.3295M64.9394 19.0422L67.2119 10.5392M85.4556 55.0601C85.4556 71.6055 72.0429 85.0181 55.4975 85.0181C38.9522 85.0181 25.5395 71.6055 25.5395 55.0601C25.5395 38.5148 38.9522 25.1021 55.4975 25.1021C72.0429 25.1021 85.4556 38.5148 85.4556 55.0601ZM78.8089 55.0601C78.8089 67.9346 68.372 78.3715 55.4975 78.3715C42.623 78.3715 32.1862 67.9346 32.1862 55.0601C32.1862 42.1856 42.623 31.7488 55.4975 31.7488C68.372 31.7488 78.8089 42.1856 78.8089 55.0601ZM72.1622 55.0601C72.1622 64.2638 64.7012 71.7248 55.4975 71.7248C46.2939 71.7248 38.8329 64.2638 38.8329 55.0601C38.8329 45.8565 46.2939 38.3954 55.4975 38.3954C64.7012 38.3954 72.1622 45.8565 72.1622 55.0601ZM65.5156 55.0601C65.5156 60.5929 61.0303 65.0781 55.4975 65.0781C49.9647 65.0781 45.4795 60.5929 45.4795 55.0601C45.4795 49.5273 49.9647 45.0421 55.4975 45.0421C61.0303 45.0421 65.5156 49.5273 65.5156 55.0601Z" stroke="currentColor" stroke-width="1.5" stroke-linecap="round" stroke-linejoin="round" fill="none" />
</svg>