<?xml version='1.0' encoding='utf-8'?>
<svg xmlns="http://www.w3.org/2000/svg" width="110" height="110" viewBox="0 0 110 110" fill="none" stroke="currentColor" stroke-width="1.5">
<path d="M49.731 79.5358C49.731 79.5358 43.4495 70.8679 34.1004 69.4487C30.4622 68.8964 27.4035 69.2196 25.0242 69.8206C24.5965 69.9286 24.1908 70.0456 23.8076 70.1681M49.731 79.5358L48.4058 94.7416M49.731 79.5358L58.1142 78.063M48.4058 94.7416C48.4058 94.7416 38.1745 98.7875 30.543 96.2927C20.6748 93.0666 18 86.4916 18 86.4916L19.2288 72.3915C19.2288 72.3915 20.8445 71.1153 23.8076 70.1681M48.4058 94.7416L56.8114 93.0119M58.1142 78.063L56.8114 93.0119M58.1142 78.063C58.1142 78.063 52.1023 70.1681 45.1788 68.1057C43.032 67.4662 41.008 67.1844 39.2222 67.1045C34.9736 66.9144 32.073 67.8677 32.073 67.8677M32.073 67.8677L23.8076 70.1681M32.073 67.8677L46.3715 21.8123C46.3715 21.8123 46.9456 18.9301 54.9702 19.7127C56.499 19.8618 58.2981 20.1439 60.4153 20.6043C65.8544 21.787 69.4164 23.2744 71.6835 24.5443C74.3984 26.065 75.256 27.2738 75.256 27.2738M75.256 27.2738L80 32.8956L63.5459 91.8239L56.8114 93.0119M75.256 27.2738L56.8114 93.0119M76.0856 17.5129C75.3742 20.2734 70.2383 21.2628 64.6142 19.7228C58.9902 18.1828 55.0078 14.6966 55.7192 11.9361M76.0856 17.5129C76.7971 14.7524 72.8146 11.2662 67.1906 9.72622C61.5666 8.18622 56.4307 9.17561 55.7192 11.9361M76.0856 17.5129L73.4698 25.6714M55.7192 11.9361L53.3855 19.5997" stroke="currentColor" stroke-width="1.5" stroke-linecap="round" stroke-linejoin="round" fill="none" />
<path d="M45.7369 80.3441C45.7369 80.3441 41.2623 74.4574 33.3078 72.8808C27.5604 71.7417 22.219 74.8773 22.219 74.8773L21.2632 85.704C21.2632 85.704 23.3221 90.7507 30.9302 93.2216C36.8138 95.1325 44.7061 92.0199 44.7061 92.0199L45.7369 80.3441Z" stroke="currentColor" stroke-width="1.5" stroke-linecap="round" stroke-linejoin="round" fill="none" />
<path d="M31 73L30 83.0723C30 83.0723 32.0589 88.119 39.667 90.59C40.8877 90.9864 42.1948 91.1666 43.5 91.2033" stroke="currentColor" stroke-width="1.5" stroke-linecap="round" stroke-linejoin="round" fill="none" />
<path d="M21.5 85.5L29.5 83.3564" stroke="currentColor" stroke-width="1.5" stroke-linecap="round" fill="none" />
<path d="M58.2156 34.0851C58.0413 34.7572 57.3553 35.1607 56.6833 34.9864C56.0114 34.8122 55.608 34.126 55.7824 33.4539M58.2156 34.0851C58.3899 33.413 57.9866 32.7269 57.3146 32.5526C56.6427 32.3783 55.9567 32.7818 55.7824 33.4539M58.2156 34.0851L56.7335 39.9244C56.5966 40.452 56.7062 41.0134 57.0336 41.4487L58.4698 43.3678M55.7824 33.4539L54.2698 39.2853C54.1329 39.8129 53.7643 40.2503 53.2666 40.4716L51.0787 41.4506M50.3111 44.4097L52.0678 43.3763C53.6679 42.4351 55.7284 42.9695 56.6693 44.5699L57.7022 46.3269M53.3213 42.9418L52.2718 46.9879C51.9142 48.3666 50.5059 49.195 49.1276 48.8374L45.4965 47.8956C44.1181 47.5381 43.2901 46.1296 43.6477 44.7508L44.5813 41.1517C44.799 40.3122 45.296 39.5728 45.9891 39.0518L50.45 35.7144C51.0774 35.244 51.8841 35.0854 52.6412 35.2818C54.0196 35.6393 54.8509 37.045 54.4933 38.4237M55.785 43.5808L54.7355 47.6269C54.3779 49.0056 55.206 50.4141 56.5843 50.7716L60.2154 51.7135C61.5938 52.071 63.0021 51.2426 63.3597 49.8639L64.2933 46.2647C64.511 45.4253 64.4361 44.5375 64.0836 43.7454L61.8074 38.6604C61.4878 37.9444 60.8599 37.4136 60.1027 37.2172C58.7243 36.8597 57.3101 37.6829 56.9525 39.0616" stroke="currentColor" stroke-width="1.5" stroke-miterlimit="10" stroke-linecap="round" fill="none" />
<path d="M44.5 28C44.5 28 47 25.9613 59 28C67 29.3591 73 34.4999 73 34.4999" stroke="currentColor" stroke-width="1.5" stroke-linecap="round" fill="none" />
<path d="M36 54.906C36 54.906 38.5 52.8674 50.5 54.906C56.4458 55.9161 65 61.406 65 61.406" stroke="currentColor" stroke-width="1.5" stroke-linecap="round" fill="none" />
<path d="M79.5472 95.1644C82.5116 92.868 82.4532 87.809 79.4221 83.8726C76.3833 79.923 71.5379 78.6099 68.5735 80.9063M79.5472 95.1644C79.2801 95.3717 79.0006 95.5423 78.7163 95.6893C75.7289 97.1985 71.4491 95.7616 68.691 92.1773C65.9224 88.5903 65.6303 84.0712 67.8393 81.5612C68.0496 81.3163 68.3168 81.1164 68.5735 80.9063M79.5472 95.1644L76.0985 97.8629C75.411 98.3928 74.5679 98.7136 73.6887 98.7123C70.8343 98.7285 67.8023 97.2466 65.705 94.5201C63.6077 91.7935 62.9401 88.4681 63.6793 85.7093C63.9052 84.8661 64.4268 84.1244 65.1171 83.5841L68.5735 80.9063M79.5472 95.1644L68.5735 80.9063" stroke="currentColor" stroke-width="1.5" stroke-linecap="round" stroke-linejoin="round" fill="none" />
</svg>