<?xml version='1.0' encoding='utf-8'?>
<svg xmlns="http://www.w3.org/2000/svg" width="110" height="110" viewBox="0 0 110 110" fill="none" stroke="currentColor" stroke-width="1.5">
<path d="M67.5461 38.3607L76.6875 29.981M67.5461 38.3607C67.5461 38.3607 65.6633 40.2201 63.8285 42.0618M67.5461 38.3607C66.0158 39.8778 70.2122 44.0742 71.7359 42.5505M76.6875 29.981L89.5985 17.0701C90.0519 16.6166 90.5911 16.1141 91.1996 15.9118C92.0651 15.6242 93.3239 15.303 93.8277 15.1262C94.6332 14.8435 95.2919 15.4771 94.9704 16.2689C94.7647 16.7755 94.5096 18.0881 94.2309 18.9577C94.0375 19.561 93.484 20.0407 93.0359 20.4887L80.1156 33.409M76.6875 29.981C74.7001 31.8028 78.2108 35.487 80.1156 33.409M80.1156 33.409L71.7359 42.5505M71.7359 42.5505C71.7359 42.5505 69.8329 44.4327 67.9608 46.3117M56.5002 41.0269C55.3786 42.1485 55.4307 43.8979 56.1961 45.7709C57.6161 49.2455 61.4911 53.1456 64.8822 54.2524C66.4918 54.7777 67.9923 54.6737 69.0697 53.5964M56.5002 41.0269C57.5775 39.9496 59.0781 39.8456 60.6876 40.371C61.7174 40.7071 62.7918 41.3007 63.8285 42.0618M56.5002 41.0269L53.5647 43.9624C52.4431 45.084 52.4952 46.8334 53.2606 48.7064C54.6806 52.181 58.5556 56.0811 61.9467 57.1879C63.5563 57.7132 65.0568 57.6092 66.1342 56.5319L69.0697 53.5964M69.0697 53.5964C70.1913 52.4748 70.1392 50.7254 69.3737 48.8524C69.0316 48.0152 68.5469 47.1533 67.9608 46.3117M66.4033 47.8831C64.2218 50.099 60.0917 45.8549 62.2135 43.6933M66.4033 47.8831C68.5848 45.6672 64.3352 41.5317 62.2135 43.6933M66.4033 47.8831C66.8895 47.3892 67.4239 46.8506 67.9608 46.3117M62.2135 43.6933C62.7105 43.187 63.2672 42.6252 63.8285 42.0618M23.564 80.3567C21.2786 82.642 26.992 88.3554 29.2774 86.0701M23.564 80.3567L21.2786 82.642M23.564 80.3567L33.4672 70.4534M29.2774 86.0701L26.992 88.3554M29.2774 86.0701L39.1806 76.1668M21.2786 82.642C18.8899 85.0394 24.7067 90.6408 26.992 88.3554M21.2786 82.642L18.9933 84.9274M26.992 88.3554L24.7067 90.6408M18.9933 84.9274C16.7079 87.2127 22.4213 92.9261 24.7067 90.6408M18.9933 84.9274L16.7079 87.2127M24.7067 90.6408L22.4213 92.9261M16.6156 87.3122C16.4162 87.5218 15.8097 88.1427 14.0417 89.879C11.6097 92.2672 17.2181 98.0735 19.7551 95.5924C22.292 93.1113 22.4213 92.9261 22.4213 92.9261M16.6156 87.3122C16.6904 87.2335 16.7079 87.2127 16.7079 87.2127M16.6156 87.3122C16.6448 87.2783 16.6755 87.2452 16.7079 87.2127M16.6156 87.3122C14.5872 89.6618 20.1723 95.183 22.4213 92.9261M44.8736 60.0344C42.5882 62.3198 47.1794 67.4063 49.4648 65.1209M44.8736 60.0344L39.1806 64.74M44.8736 60.0344L53.3634 48.949M49.4648 65.1209L44.894 70.4534M49.4648 65.1209L60.5502 56.6311M39.1806 64.74C36.1335 67.7872 41.8469 73.5006 44.894 70.4534M39.1806 64.74L33.4672 70.4534M44.894 70.4534L39.1806 76.1668M33.4672 70.4534C30.4201 73.5006 36.5144 78.8331 39.1806 76.1668" stroke="currentColor" stroke-width="1.5" stroke-linecap="round" fill="none" />
</svg>