<?xml version='1.0' encoding='utf-8'?>
<svg xmlns="http://www.w3.org/2000/svg" version="1.1" id="Layer_1" x="0px" y="0px" viewBox="0 0 110 110" style="enable-background:new 0 0 110 110;fill:none;stroke:currentColor;stroke-width:1.5" xml:space="preserve">
<path style="fill:none;stroke:currentColor;stroke-width:1.5;stroke-miterlimit:10" d="M40.88,38.79l5.69-8.06l5.69-8l-22.78,0.02  L40.88,38.79z" />
<path style="fill:none;stroke:currentColor;stroke-width:1.5;stroke-miterlimit:10" d="M32.43,31.83l-5.7-8.07l-11.37,16l22.78-0.02  L32.43,31.83z" />
<path style="fill:none;stroke:currentColor;stroke-width:1.5;stroke-miterlimit:10" d="M15.75,42.7l36.16,42.32L39.83,42.68L15.75,42.7z" />
<path style="fill:none;stroke:currentColor;stroke-width:1.5;stroke-miterlimit:10" d="M43.63,39.73l22.78-0.02L55,23.84l-5.68,7.9  L43.63,39.73z" />
<path style="fill:none;stroke:currentColor;stroke-width:1.5;stroke-miterlimit:10" d="M71.9,39.71l22.78-0.02L83.27,23.78l-5.68,7.94  L71.9,39.71z" />
<path style="fill:none;stroke:currentColor;stroke-width:1.5;stroke-miterlimit:10" d="M69.15,38.76l5.69-8.05l5.69-8.01l-22.78,0.02  L69.15,38.76z" />
<path style="fill:none;stroke:currentColor;stroke-width:1.5;stroke-miterlimit:10" d="M42.77,42.68l12.29,43.04l12.21-43.06L42.77,42.68z  " />
<path style="fill:none;stroke:currentColor;stroke-width:1.5;stroke-miterlimit:10" d="M58.21,85.02l36.08-42.39l-24.08,0.02L58.21,85.02z  " />
</svg>