<?xml version='1.0' encoding='utf-8'?>
<svg xmlns="http://www.w3.org/2000/svg" width="110" height="110" viewBox="0 0 110 110" fill="none" stroke="currentColor" stroke-width="1.5">
<path d="M60.6346 26.7733V28.2057M67.3848 40.7106H65.9489M35.3096 32.3597H33.8736M75.4136 60.6463V62.0823M58.0921 76.0018V77.4378M42.5074 71.2139H41.075M32.7921 49.9605V51.3965M85.8022 83.3322H84.3662M56.0809 46.115C61.69 47.4389 65.1638 53.0591 63.84 58.6682C62.5161 64.2773 56.8959 67.7511 51.2868 66.4272C45.6777 65.1034 42.2039 59.4831 43.5278 53.8741C44.8516 48.265 50.4719 44.7912 56.0809 46.115ZM47.8655 31.6992C49.9418 32.0649 51.3285 34.0446 50.9628 36.1209C50.597 38.1972 48.6173 39.5839 46.541 39.2182C44.4647 38.8524 43.078 36.8728 43.4437 34.7964C43.8095 32.7201 45.7892 31.3334 47.8655 31.6992ZM80.1049 44.3351C82.1568 44.8194 83.4276 46.8754 82.9433 48.9273C82.459 50.9792 80.403 52.25 78.3511 51.7657C76.2992 51.2814 75.0284 49.2254 75.5127 47.1735C75.997 45.1216 78.053 43.8508 80.1049 44.3351ZM76.0526 74.0184C77.5434 75.5092 77.5434 77.9263 76.0526 79.417C74.5619 80.9078 72.1448 80.9078 70.654 79.417C69.1633 77.9262 69.1633 75.5092 70.654 74.0184C72.1448 72.5277 74.5619 72.5277 76.0526 74.0184ZM30.8941 14.4867C35.4527 9.19035 43.2486 23.2423 49.1251 20.245C55.0016 17.2477 63.2022 8.97191 69.537 22.4044C75.8719 35.8369 94.8227 27.6828 94.5828 43.3928C94.3429 59.1064 78.751 59.5863 89.4261 72.5389C100.101 85.4915 96.1442 92.8076 88.2265 95.2069C80.3088 97.6062 75.9149 95.3251 69.537 90.4083C63.1592 85.4915 54.0419 92.206 42.2889 92.0878C30.536 91.9661 26.937 80.3348 28.2548 70.1396C29.5727 59.9444 14.3425 60.1843 14.2207 50.5907C14.1026 40.9936 24.2942 43.5146 25.1358 38.5978C25.9737 33.6811 17.5798 31.6399 18.8976 26.7231C20.2154 21.8063 28.7311 27.4429 31.0122 23.9657C33.2898 20.4885 27.1734 18.809 30.8905 14.4903L30.8941 14.4867Z" stroke="currentColor" stroke-width="1.5" stroke-linecap="round" stroke-linejoin="round" fill="none" />
</svg>