<?xml version='1.0' encoding='utf-8'?>
<svg xmlns="http://www.w3.org/2000/svg" id="Layer_1" data-name="Layer 1" width="110" height="110" viewBox="0 0 110 110">
  <path d="M81.2107,26.4255c-.004-.0668-.0107-.1329-.0168-.1992-.2919-3.1728-3.0091-5.6675-6.2151-5.6717-2.0486-.0027-3.8676.9802-5.0097,2.5005-1.1421-1.5204-2.9611-2.5032-5.0097-2.5005-3.206.0042-5.9232,2.4989-6.2151,5.6718-.0061.0663-.0128.1323-.0168.1992-.0802,1.3539.2708,2.6212.9287,3.6778,1.7491,2.8095,2.5773,6.094,2.1546,9.3763l-.2557,1.9854c-.1914,1.4864,1.6091,2.3712,2.6689,1.3115l3.2924-5.5696c1.1029-1.8657,3.8024-1.8657,4.9053,0l3.2924,5.5696c1.0597,1.0598,2.8603.175,2.6689-1.3115l-.2557-1.9854c-.4227-3.2824.4054-6.5669,2.1546-9.3763.6578-1.0566,1.0089-2.3238.9287-3.6778Z" style="fill:none;stroke:currentColor;stroke-linecap:round;stroke-linejoin:round;stroke-width:1.5" />
  <g>
    <line x1="76.7168" y1="23.6784" x2="76.7168" y2="29.6989" style="fill:none;stroke:currentColor;stroke-linecap:round;stroke-linejoin:round;stroke-width:1.5" />
    <line x1="74.5882" y1="24.56" x2="78.8453" y2="28.8172" style="fill:none;stroke:currentColor;stroke-linecap:round;stroke-linejoin:round;stroke-width:1.5" />
    <line x1="74.5882" y1="28.8172" x2="78.8453" y2="24.56" style="fill:none;stroke:currentColor;stroke-linecap:round;stroke-linejoin:round;stroke-width:1.5" />
  </g>
  <polyline points="34.9226 15.4787 96.3982 15.4787 96.3982 50.2055 39.0036 50.2055" style="fill:none;stroke:currentColor;stroke-miterlimit:10;stroke-width:1.5" />
  <g>
    <g>
      <path d="M25.3287,27.2565c-3.2467,0-5.8888-2.642-5.8888-5.8886s2.6422-5.8891,5.8888-5.8891,5.8882,2.6417,5.8882,5.8891-2.6414,5.8886-5.8882,5.8886Z" style="fill:none;stroke:currentColor;stroke-miterlimit:10;stroke-width:1.5" />
      <path d="M35.1398,37.8648l-3.5367,55.1105c-.0693.9504-.878,1.7231-1.8022,1.7231h-8.9445c-.9234,0-1.7325-.7728-1.8028-1.7231l-1.7844-31.7572c-.0985-.0089-.2007-.0213-.3076-.0366-2.3391-.3456-5.5874-2.2227-5.7776-4.3671l-1.3254-17.8016c-.0075-.1485-.0045-.2498-.0023-.308,0-3.5485,2.7938-6.4978,6.2284-6.5825h40.7561c0,3.1715-2.5707,5.7424-5.7422,5.7424h-15.9587" style="fill:none;stroke:currentColor;stroke-miterlimit:10;stroke-width:1.5" />
    </g>
    <g>
      <path d="M25.3287,27.2565c-3.2467,0-5.8888-2.642-5.8888-5.8886s2.6422-5.8891,5.8888-5.8891,5.8882,2.6417,5.8882,5.8891-2.6414,5.8886-5.8882,5.8886Z" style="fill:none;stroke:currentColor;stroke-miterlimit:10;stroke-width:1.5" />
      <path d="M35.1398,37.8648l-3.5367,55.1105c-.0693.9504-.878,1.7231-1.8022,1.7231h-8.9445c-.9234,0-1.7325-.7728-1.8028-1.7231l-1.7844-31.7572c-.0985-.0089-.2007-.0213-.3076-.0366-2.3391-.3456-5.5874-2.2227-5.7776-4.3671l-1.3254-17.8016c-.0075-.1485-.0045-.2498-.0023-.308,0-3.5485,2.7938-6.4978,6.2284-6.5825h40.7561c0,3.1715-2.5707,5.7424-5.7422,5.7424h-15.9587" style="fill:none;stroke:currentColor;stroke-miterlimit:10;stroke-width:1.5" />
    </g>
    <line x1="25.3237" y1="59.5252" x2="25.3237" y2="93.9377" style="fill:none;stroke:currentColor;stroke-miterlimit:10;stroke-width:1.5" />
    <line x1="17.2692" y1="61.2181" x2="15.7811" y2="41.1043" style="fill:none;stroke:currentColor;stroke-miterlimit:10;stroke-width:1.5" />
  </g>
  <g>
    <path d="M54.092,67.7813c-3.154,0-5.7208-2.5669-5.7208-5.7211s2.5669-5.7213,5.7208-5.7213,5.7207,2.5664,5.7207,5.7213-2.5661,5.7211-5.7207,5.7211Z" style="fill:none;stroke:currentColor;stroke-miterlimit:10;stroke-width:1.5" />
    <path d="M68.1855,94.6984v-15.6216c0-3.6275-2.9408-6.5683-6.5683-6.5683h-15.0762c-3.6275,0-6.5683,2.9408-6.5683,6.5683v15.6216" style="fill:none;stroke:currentColor;stroke-miterlimit:10;stroke-width:1.5" />
    <line x1="45.8978" y1="83.1719" x2="45.8978" y2="94.6984" style="fill:none;stroke:currentColor;stroke-miterlimit:10;stroke-width:1.5" />
    <line x1="62.2399" y1="83.1719" x2="62.2399" y2="94.6984" style="fill:none;stroke:currentColor;stroke-miterlimit:10;stroke-width:1.5" />
    <line x1="45.8978" y1="81.2346" x2="45.8978" y2="93.6554" style="fill:none;stroke:currentColor;stroke-miterlimit:10;stroke-width:1.5" />
    <line x1="62.2399" y1="81.2346" x2="62.2399" y2="93.6554" style="fill:none;stroke:currentColor;stroke-miterlimit:10;stroke-width:1.5" />
  </g>
  <g>
    <path d="M82.3048,67.7813c-3.1543,0-5.7208-2.5669-5.7208-5.7211s2.5665-5.7213,5.7208-5.7213,5.7205,2.5664,5.7205,5.7213-2.5659,5.7211-5.7205,5.7211Z" style="fill:none;stroke:currentColor;stroke-miterlimit:10;stroke-width:1.5" />
    <path d="M96.3982,94.6984v-15.6216c0-3.6275-2.9408-6.5683-6.5682-6.5683h-15.0762c-3.6275,0-6.5683,2.9408-6.5683,6.5683v15.6216" style="fill:none;stroke:currentColor;stroke-miterlimit:10;stroke-width:1.5" />
    <line x1="74.1105" y1="83.1719" x2="74.1105" y2="94.6984" style="fill:none;stroke:currentColor;stroke-miterlimit:10;stroke-width:1.5" />
    <line x1="90.4525" y1="83.1719" x2="90.4525" y2="94.6984" style="fill:none;stroke:currentColor;stroke-miterlimit:10;stroke-width:1.5" />
    <line x1="74.1105" y1="81.2346" x2="74.1105" y2="93.6554" style="fill:none;stroke:currentColor;stroke-miterlimit:10;stroke-width:1.5" />
    <line x1="90.4525" y1="81.2346" x2="90.4525" y2="93.6554" style="fill:none;stroke:currentColor;stroke-miterlimit:10;stroke-width:1.5" />
  </g>
</svg>