<?xml version='1.0' encoding='utf-8'?>
<svg xmlns="http://www.w3.org/2000/svg" version="1.1" id="Layer_1" x="0px" y="0px" viewBox="0 0 110 110" style="enable-background:new 0 0 110 110;fill:none;stroke:currentColor;stroke-width:1.5" xml:space="preserve">
<path style="fill:none;stroke:currentColor;stroke-width:1.5;stroke-linecap:round;stroke-linejoin:round" d="M80.325,63.896L66.09,78.384  c-4.401,4.479-11.43,4.772-15.7,0.654l-2.982-2.876c-4.27-4.118-4.164-11.087,0.237-15.566L61.88,46.108 M80.325,63.896  L61.88,46.108 M80.325,63.896l14.238-14.492c4.401-4.479,4.507-11.448,0.237-15.566l-2.982-2.876  c-4.27-4.118-11.299-3.825-15.7,0.654L61.88,46.108 M77.925,37.2c0,0,4.828-8.034,12.057-1.77 M13.519,53.18  c3.581-10.016,12.66-15.973,20.276-13.301c0.679,0.238,1.324,0.539,1.932,0.891c6.21,3.616,8.63,12.964,5.368,22.087  c-3.264,9.127-11.084,14.882-18.202,13.816c-0.005,0.003-0.003-0.001-0.003-0.001c-0.698-0.101-1.39-0.27-2.069-0.508  C13.206,73.491,9.936,63.201,13.519,53.18z M20.82,76.163l8.89,3.12c1.781,0.625,3.726,0.692,5.524,0.116  c5.857-1.878,11.087-6.905,13.566-13.838c2.479-6.933,1.608-14.098-1.75-19.209c-1.031-1.568-2.584-2.729-4.365-3.354l-8.89-3.12  L20.82,76.163z M60.658,72.836c-0.979,0.997-2.589,1.018-3.595,0.048c-1.006-0.97-1.028-2.565-0.049-3.562  c0.979-0.997,2.589-1.018,3.595-0.048C61.616,70.244,61.637,71.839,60.658,72.836z M60.492,61.342  c-0.674,0.686-1.782,0.701-2.474,0.033c-0.693-0.668-0.707-1.765-0.033-2.451c0.674-0.686,1.781-0.701,2.474-0.033  C61.151,59.558,61.166,60.656,60.492,61.342z M69.941,65.701c-0.674,0.686-1.781,0.701-2.474,0.033  c-0.692-0.668-0.707-1.765-0.033-2.451c0.674-0.686,1.782-0.701,2.474-0.033C70.6,63.918,70.616,65.015,69.941,65.701z" />
</svg>