<?xml version='1.0' encoding='utf-8'?>
<svg xmlns="http://www.w3.org/2000/svg" id="Layer_1" data-name="Layer 1" width="110" height="110" viewBox="0 0 110 110">
  <polygon points="64.2731 71.9809 48.5656 71.9809 40.7118 85.584 48.5656 99.1871 64.2731 99.1871 72.1268 85.584 64.2731 71.9809" style="fill:none;stroke:currentColor;stroke-linejoin:round;stroke-width:1.5" />
  <polygon points="64.2731 40.3431 48.5656 40.3431 40.7118 53.9462 48.5656 67.5493 64.2731 67.5493 72.1268 53.9462 64.2731 40.3431" style="fill:none;stroke:currentColor;stroke-linejoin:round;stroke-width:1.5" />
  <polygon points="64.2731 8.7054 48.5656 8.7054 40.7118 22.3085 48.5656 35.9116 64.2731 35.9116 72.1268 22.3085 64.2731 8.7054" style="fill:none;stroke:currentColor;stroke-linejoin:round;stroke-width:1.5" />
  <polygon points="91.2434 56.3619 75.5359 56.3619 67.6821 69.965 75.5359 83.5681 91.2434 83.5681 99.0971 69.965 91.2434 56.3619" style="fill:none;stroke:currentColor;stroke-linejoin:round;stroke-width:1.5" />
  <polygon points="91.2434 24.7241 75.5359 24.7241 67.6821 38.3272 75.5359 51.9304 91.2434 51.9304 99.0971 38.3272 91.2434 24.7241" style="fill:none;stroke:currentColor;stroke-linejoin:round;stroke-width:1.5" />
  <polygon points="37.2139 56.3619 21.5064 56.3619 13.6526 69.965 21.5064 83.5681 37.2139 83.5681 45.0677 69.965 37.2139 56.3619" style="fill:none;stroke:currentColor;stroke-linejoin:round;stroke-width:1.5" />
  <polygon points="37.2139 24.7241 21.5064 24.7241 13.6526 38.3272 21.5064 51.9304 37.2139 51.9304 45.0677 38.3272 37.2139 24.7241" style="fill:none;stroke:currentColor;stroke-linejoin:round;stroke-width:1.5" />
</svg>