<?xml version='1.0' encoding='utf-8'?>
<svg xmlns="http://www.w3.org/2000/svg" width="110" height="110" viewBox="0 0 110 110" fill="none" stroke="currentColor" stroke-width="1.5">
<g clip-path="url(#clip0_1371_8)">
<path d="M91.9239 20.5486C88.5433 20.5486 81.7819 22.5757 81.7819 30.6842V60.4564V90.2287C81.7819 94.9983 79.0376 102.153 68.0603 102.153C57.0831 102.153 53.7422 94.9983 53.7422 90.2287V84.3432M46.2848 74.8038C42.7053 72.8164 36.3814 66.4568 39.7223 56.9175C43.0632 47.3781 48.6712 42.6084 51.0575 41.416C51.4272 41.2312 52.4499 40.8748 53.7422 40.8255M53.7422 40.8255C53.8401 40.8217 53.9396 40.8198 54.0405 40.8198M53.7422 40.8255C55.0345 40.8748 56.0571 41.2312 56.4268 41.416C58.8132 42.6084 64.4211 47.3781 67.762 56.9175C71.1029 66.4568 64.7791 72.8164 61.1995 74.8038M53.7422 40.8255C53.6442 40.8217 53.5448 40.8198 53.4439 40.8198M51.3558 84.3432H56.1285C57.4465 84.3432 58.5149 83.2754 58.5149 81.9583V74.8038C58.5149 73.4867 57.4465 72.4189 56.1285 72.4189H51.3558C50.0379 72.4189 48.9695 73.4867 48.9695 74.8038V81.9583C48.9695 83.2754 50.0379 84.3432 51.3558 84.3432Z" stroke="currentColor" stroke-width="1.5" stroke-linecap="round" stroke-linejoin="round" fill="none" />
<path d="M32.6314 56.2231C30.7322 56.2245 29.156 54.6984 29.1623 52.7942L29.1685 43.8517C29.1699 41.9524 30.6583 40.4697 32.5576 40.4683M32.5576 40.4683L32.6765 35.1046C32.6896 23.5754 42.1728 14.2206 53.8554 14.2124C65.5479 14.2042 75.013 23.5406 75.0049 35.0748L75.0783 40.4342M32.5576 40.4683L32.5488 40.8669L32.5449 46.4757C32.5689 47.4896 32.4439 49.3445 32.4413 53.054C32.4381 57.5945 33.7984 64.429 37.4544 70.2034C39.4767 73.4065 42.203 76.2847 45.7936 78.2721M75.0783 40.4342C76.9775 40.4329 78.8234 41.9125 78.827 43.8168L78.8207 52.7592C78.8193 54.6585 76.7479 56.2965 74.8486 56.2979M75.0783 40.4342L75.0848 40.9161L75.0542 42.2911L75.0514 46.2282C74.9256 49.3987 75.0128 51.931 75.0067 53.6077C75.0038 54.5097 74.9495 55.4075 74.8486 56.2979M74.8486 56.2979C74.2935 61.1935 72.3255 65.8661 69.703 69.785C66.9569 73.889 63.4887 77.1618 60.1635 78.9733" stroke="currentColor" stroke-width="1.5" stroke-linecap="round" stroke-linejoin="round" fill="none" />
</g>
<defs>
<clipPath id="clip0_1371_8">
<rect width="110" height="110" fill="none" stroke="currentColor" stroke-width="1.5" />
</clipPath>
</defs>
</svg>