<?xml version='1.0' encoding='utf-8'?>
<svg xmlns="http://www.w3.org/2000/svg" width="110" height="110" viewBox="0 0 110 110" fill="none" stroke="currentColor" stroke-width="1.5">
<path d="M61.129 80.1307L74.2245 79.4485M61.129 80.1307L54.9189 67.708C53.6189 65.1017 51.8989 62.715 49.8289 60.6479C47.5988 58.421 44.9988 56.6036 42.1488 55.2655L31.0387 50.0727M61.129 80.1307C61.129 80.1307 52.4289 85.2036 47.9188 95.0797M31.0387 50.0727C31.0387 50.0727 24.1686 60.618 14.9185 62.9247M31.0387 50.0727L30.6989 37.0971M47.9188 95.0797C38.5988 96.9272 29.4787 95.9286 24.2486 92.6631C21.3686 90.8656 19.0786 88.2493 17.4986 85.2435C13.5885 77.774 13.3185 70.0048 14.9185 62.9247M47.9188 95.0797C55.7289 93.5319 63.679 89.9969 69.619 84.0951C71.3191 82.4075 73.7891 79.7612 77.1191 76.6855L81.0991 72.711L82.5192 71.3529L88.3392 65.3713C99.9993 53.7276 99.8693 34.7342 88.0492 22.9307C76.2391 11.1372 57.2089 11.0074 45.5488 22.6411L39.5988 28.3331L33.9287 33.9952C32.9287 35.0438 30.9287 36.7913 27.1787 40.5361C22.5886 45.1197 17.0586 53.3981 14.9185 62.9247M28.3187 53.5978L38.3988 59.5295C41.1688 60.7777 43.6788 62.5053 45.8188 64.6423C47.7988 66.6196 49.4389 68.9263 50.6589 71.4528L57.4936 82.7838M25.7788 56.2983L33.6487 63.8734C36.0087 65.6709 38.3488 67.708 40.5588 69.915C42.6088 71.9621 44.5188 74.1191 46.2188 76.296L54.934 85.1272M23.0686 58.6807L28.8987 68.2273C30.8487 70.564 33.0087 72.9208 35.2887 75.2076C37.3988 77.3146 39.5888 79.3318 41.7688 81.1692L52.6445 87.6347M20.5086 60.4782L24.1486 72.5613C25.6886 75.4472 27.6787 78.1135 30.0287 80.4702C32.2087 82.6471 34.6687 84.5145 37.3188 86.0024L50.8589 89.9669M17.8086 61.9162L19.3986 76.9052C20.5286 80.3304 22.3386 83.3162 24.7586 85.7428C27.0087 87.9897 29.7387 89.7073 32.8687 90.8457L49.3789 92.2337M24.1693 43.9296C22.2493 42.0123 22.1986 38.8784 24.1286 36.9611L33.1687 27.9337C35.0887 26.0164 38.0903 26.0221 40.0103 27.9395M82.9992 70.8595C84.9193 72.7769 85.2892 76.1363 83.3692 78.0636L74.3291 87.0909C72.4091 89.0082 68.6617 88.5703 66.7417 86.653" stroke="currentColor" stroke-width="1.5" stroke-linecap="round" stroke-linejoin="round" fill="none" />
</svg>