<?xml version='1.0' encoding='utf-8'?>
<svg xmlns="http://www.w3.org/2000/svg" id="Layer_1" data-name="Layer 1" width="110" height="110" viewBox="0 0 110 110">
  <path d="M55.714,93l23.286-14.312v-25.545M55.714,93v-26.998M55.714,93v-26.993l-23.714-12.864M55.714,93l-23.714-14.312v-25.545M55.714,66.002l23.286-12.859M55.714,66.002l-23.714-12.859M79,53.143l-23.286-14.143-23.714,14.143" style="fill:none;stroke:currentColor;stroke-linecap:round;stroke-linejoin:round;stroke-width:1.5" />
  <polyline points="62.8383 23.8418 56 17.0035 49.1617 23.8418 56 17 56 32" style="fill:none;stroke:currentColor;stroke-linecap:round;stroke-linejoin:round;stroke-width:1.5" />
  <polyline points="16.8418 59.6617 10.0035 66.5 16.8418 73.3383 10 66.5 25 66.5" style="fill:none;stroke:currentColor;stroke-linecap:round;stroke-linejoin:round;stroke-width:1.5" />
  <polyline points="94.1582 73.3383 100.9965 66.5 94.1582 59.6617 101 66.5 86 66.5" style="fill:none;stroke:currentColor;stroke-linecap:round;stroke-linejoin:round;stroke-width:1.5" />
  <polyline points="88.6044 42.5135 88.6044 32.8426 78.9335 32.8426 88.6068 32.8402 78.0002 43.4468" style="fill:none;stroke:currentColor;stroke-linecap:round;stroke-linejoin:round;stroke-width:1.5" />
  <polyline points="32.672 32.8426 23.0012 32.8426 23.0012 42.5135 22.9987 32.8402 33.6053 43.4468" style="fill:none;stroke:currentColor;stroke-linecap:round;stroke-linejoin:round;stroke-width:1.5" />
</svg>