<?xml version='1.0' encoding='utf-8'?>
<svg xmlns="http://www.w3.org/2000/svg" width="110" height="110" viewBox="0 0 110 110" fill="none" stroke="currentColor" stroke-width="1.5">
<path d="M40.9177 27.5181V31.308C40.9399 31.9919 40.8512 33.2477 40.8512 35.7481C40.8512 41.0853 43.6011 51.1093 52.4275 53.9012C53.9466 54.3721 55.5655 54.4842 57.1068 54.1254C62.2518 52.9257 69.2153 44.7854 69.2375 36.1293C69.2375 34.9969 69.1821 33.2926 69.2597 31.151V28.4936L69.2708 27.5181M40.9177 27.5181H69.2708M40.9177 27.5181C40.1083 26.5202 39.7313 25.2196 39.8754 23.9413L40.6959 16.7765C41.0064 14.0519 43.2906 12 45.9962 12M69.2708 27.5181C70.0802 26.5202 70.4572 25.2308 70.3131 23.9525L69.4926 16.7877C69.1821 14.0631 66.8979 12.0112 64.1923 12.0112H45.9962M65.4369 56.8966C65.1818 56.2575 64.658 55.1458 64.658 54.4506L64.7632 48.3641M44.905 48.3641L45.2422 54.4506C45.2422 55.1794 44.982 56.2351 44.7159 56.8966M39.1657 77.0214C39.1657 77.0214 39.2212 68.9035 39.2101 67.3338C39.2101 66.6274 38.9107 65.8537 38.3452 65.4164C37.9017 65.0688 37.2474 64.9904 36.7485 65.2482C36.2051 65.5398 35.939 66.2986 35.9501 66.8928V67.1432M39.2101 67.5356C39.9752 67.3113 40.9732 67.3001 41.5054 67.9953C41.8935 68.4999 41.9378 69.1838 41.8935 69.8229C41.8935 69.8229 41.7826 75.5638 41.7493 77.0214M41.88 70.5182C42.3014 70.2491 43.0134 70.2042 43.4348 70.4396C44.1444 70.8209 44.4771 71.673 44.4771 72.3346V81.3158C44.5104 82.6389 44.4993 88.2003 44.4771 89.5121L44.2553 97.9552L32.5681 97.9215C32.4683 93.358 31.3928 88.8618 29.4079 84.758L27.0461 79.8694C26.902 79.163 27.29 78.423 28.0108 78.1875C28.6761 77.9632 29.3968 78.3108 29.8293 79.1406L30.794 81.013C31.049 81.5064 31.6367 81.7755 32.1468 81.5737C32.557 81.4167 32.8121 81.0467 32.8343 80.6318L33.0671 68.242C33.0782 67.6029 33.3776 66.975 33.932 66.6386C34.3423 66.3919 34.8302 66.3134 35.2737 66.504C35.5177 66.6162 35.8725 66.8292 35.9501 67.1432M35.9501 67.1432L35.7616 77.0326M70.8675 77.0214C70.8675 77.0214 70.8121 68.9035 70.8232 67.3338C70.8232 66.6274 71.1225 65.8537 71.6881 65.4164C72.1316 65.0688 72.7858 64.9904 73.2848 65.2482C73.8281 65.5398 74.0721 66.3022 74.061 66.8965L74.0721 67.1432M70.8222 67.5427C70.0571 67.3184 69.049 67.3001 68.5168 67.9953C68.1287 68.4999 68.0843 69.1838 68.1287 69.8229C68.1287 69.8229 68.2396 75.5638 68.2728 77.0214M68.1422 70.5184C67.7208 70.2493 67.0088 70.2042 66.5874 70.4396C65.8777 70.8209 65.5451 71.673 65.5451 72.3346V81.3158C65.5118 82.6389 65.5229 88.2003 65.5451 89.5121L65.7668 97.9888L77.454 97.9215C77.5538 93.358 78.6294 88.8618 80.6142 84.758L82.9761 79.8694C83.1202 79.163 82.7321 78.423 82.0114 78.1875C81.3461 77.9632 80.6253 78.3108 80.1929 79.1406L79.2282 81.013C78.9731 81.5064 78.3855 81.7755 77.8754 81.5737C77.4651 81.4167 77.2101 81.0467 77.1879 80.6318L76.9551 68.242C76.944 67.6029 76.6446 66.975 76.0902 66.6386C75.6799 66.3919 75.192 66.3134 74.7485 66.504C74.5045 66.6162 74.1497 66.8292 74.0721 67.1432M74.0721 67.1432L74.2606 77.0326M43.7344 46.5359C46.2071 42.69 45.2644 37.6318 45.2644 37.6318M45.2644 37.6318L50.6422 35.6584C52.0283 35.1538 53.4809 34.896 54.9556 34.896C56.3195 34.896 57.6723 35.1202 58.9696 35.5575L65.1237 37.6318M45.2644 37.6318L40.8786 33.401M65.1237 37.6318C65.1237 37.6318 63.9805 41.5687 66.0319 46.5359M65.1237 37.6318L69.2203 33.0096M27.8556 97.9664H23.4313C19.883 97.9664 17 95.0511 17 91.4631V70.406C17 66.9525 19.4284 63.9924 22.7882 63.3533L41.0175 59.8887C41.1506 59.855 41.2836 59.8214 41.4167 59.7765C42.204 59.5299 42.714 58.7674 42.714 57.9377V57.4219C42.714 56.9734 43.1243 56.6258 43.5568 56.7043C46.8278 57.2761 50.742 57.7134 55.1774 57.7134C59.513 57.7134 63.3607 57.2761 66.5763 56.7043C67.0198 56.6258 67.419 56.9622 67.419 57.4219V58.0722C67.419 58.9356 68.1398 59.7317 68.9825 59.9223L87.2118 63.387C90.5716 64.0261 93 66.9862 93 70.4396V91.4967C93 95.0847 90.117 98 86.5687 98H81.9227" stroke="currentColor" stroke-width="1.5" stroke-linecap="round" stroke-linejoin="round" fill="none" />
</svg>