<?xml version='1.0' encoding='utf-8'?>
<svg xmlns="http://www.w3.org/2000/svg" width="110" height="110" viewBox="0 0 110 110" fill="none" stroke="currentColor" stroke-width="1.5">
<g clip-path="url(#clip0_1879_35)">
<path d="M61.6466 32.0316V31.2816H60.8965L60.8966 32.0317L61.6466 32.0316ZM92.0668 32.0338L92.8168 32.0337L92.8167 31.2838H92.0668V32.0338ZM92.0677 45.072L92.0676 45.822H92.8177V45.0719L92.0677 45.072ZM61.6475 45.0698L60.8975 45.0699L60.8976 45.8198H61.6475V45.0698ZM55.1343 40.1795L54.3843 40.1806L54.3853 40.8416L55.0412 40.9237L55.1343 40.1795ZM55.1292 36.919L55.0365 36.1748L54.3782 36.2568L54.3792 36.9202L55.1292 36.919ZM59.4797 36.3767L60.2297 36.3775L60.2306 35.5273L59.387 35.6325L59.4797 36.3767ZM59.4752 40.7224L59.3821 41.4666L60.2243 41.5719L60.2252 40.7231L59.4752 40.7224ZM39.9221 38.5507V37.8007L39.1721 37.8006V38.5507H39.9221ZM59.4803 43.9829L58.7303 43.9832L58.7306 44.5685L59.2983 44.7104L59.4803 43.9829ZM59.4747 33.1163L59.2947 32.3882L58.7244 32.5291L58.7247 33.1167L59.4747 33.1163ZM61.6499 32.5787L62.3999 32.5786L62.3998 31.6208L61.4699 31.8506L61.6499 32.5787ZM61.6507 44.5256L61.4688 45.2532L62.4008 45.4863L62.4007 44.5256H61.6507ZM92.0773 35.832L92.0774 35.082L91.3273 35.0819V35.832H92.0773ZM104.026 35.8328H104.776V35.0829L104.026 35.0828V35.8328ZM104.026 41.266V42.016H104.777L104.776 41.2659L104.026 41.266ZM92.0777 41.2651L91.3277 41.2652L91.3278 42.0151H92.0777V41.2651ZM39.1721 43.9829C39.1721 44.3971 39.5079 44.7329 39.9221 44.7329C40.3363 44.7329 40.6721 44.3971 40.6721 43.9829H39.1721ZM92.074 27.1451L91.324 27.145L91.3208 49.9585L92.0708 49.9586L92.8208 49.9587L92.824 27.1452L92.074 27.1451ZM61.6466 32.0316L61.6465 32.7816L92.0667 32.7838L92.0668 32.0338V31.2838L61.6466 31.2816V32.0316ZM92.0668 32.0338H91.3168L91.3177 45.072H92.0677L92.8177 45.0719L92.8168 32.0337L92.0668 32.0338ZM92.0677 45.072V44.322L61.6476 44.3198L61.6475 45.0698V45.8198L92.0676 45.822L92.0677 45.072ZM61.6475 45.0698H62.3975L62.3966 32.0316H61.6466L60.8966 32.0317L60.8975 45.0699L61.6475 45.0698ZM104.026 32.5768L103.276 32.5765L103.272 44.5283L104.022 44.5286L104.772 44.5288L104.776 32.577L104.026 32.5768ZM92.1669 38.5544L92.1672 39.3044L101.309 39.3002V38.5502L101.308 37.8002L92.1665 37.8044L92.1669 38.5544ZM55.1343 40.1795L55.8843 40.1783L55.8792 36.9178L55.1292 36.919L54.3792 36.9202L54.3843 40.1806L55.1343 40.1795ZM55.1292 36.919L55.222 37.6632L59.5725 37.1209L59.4797 36.3767L59.387 35.6325L55.0365 36.1748L55.1292 36.919ZM59.4797 36.3767L58.7297 36.3759L58.7252 40.7216L59.4752 40.7224L60.2252 40.7231L60.2297 36.3775L59.4797 36.3767ZM59.4752 40.7224L59.5683 39.9782L55.2274 39.4353L55.1343 40.1795L55.0412 40.9237L59.3821 41.4666L59.4752 40.7224ZM55.1343 38.5518L55.1344 37.8018L39.9221 37.8007V38.5507L39.922 39.3007L55.1343 39.3018V38.5518ZM59.4803 43.9829L60.2303 43.9825L60.2247 33.1159L59.4747 33.1163L58.7247 33.1167L58.7303 43.9832L59.4803 43.9829ZM59.4747 33.1163L59.6546 33.8444L61.8298 33.3068L61.6499 32.5787L61.4699 31.8506L59.2947 32.3882L59.4747 33.1163ZM61.6499 32.5787H60.8999L60.9007 44.5257L61.6507 44.5256H62.4007L62.3999 32.5786L61.6499 32.5787ZM61.6507 44.5256L61.8327 43.798L59.6622 43.2553L59.4803 43.9829L59.2983 44.7104L61.4688 45.2532L61.6507 44.5256ZM92.0773 35.832V36.582L104.026 36.5828V35.8328V35.0828L92.0774 35.082L92.0773 35.832ZM104.026 35.8328L103.276 35.8329V41.266H104.026L104.776 41.2659V35.8328H104.026ZM104.026 41.266L104.027 40.516L92.0778 40.5151L92.0777 41.2651V42.0151L104.026 42.016V41.266ZM92.0777 41.2651H92.8277L92.8273 35.8319L92.0773 35.832H91.3273L91.3277 41.2652L92.0777 41.2651ZM64.911 39.6377L64.161 39.6378L64.1614 45.0735L64.9114 45.0734H65.6614L65.661 39.6377H64.911ZM68.1668 41.2658L67.4168 41.2668L67.4219 45.0698L68.1719 45.0688L68.9219 45.0678L68.9168 41.2648L68.1668 41.2658ZM71.4319 39.6382L70.6819 39.6376L70.6775 45.0684L71.4275 45.069L72.1774 45.0697L72.1819 39.6388L71.4319 39.6382ZM74.6877 41.2662L73.9377 41.2663L73.9379 45.0742H74.6879L75.4379 45.0741L75.4377 41.2662H74.6877ZM77.9478 39.6337H77.1978L77.1982 45.0694H77.9482L78.6982 45.0693L78.6978 39.6336L77.9478 39.6337ZM81.2086 41.2667H80.4586L80.4588 45.0747L81.2088 45.0746H81.9588L81.9586 41.2666L81.2086 41.2667ZM84.4639 39.639L83.7139 39.6397L83.7191 45.0706L84.4691 45.0698L85.2191 45.0691L85.2139 39.6382L84.4639 39.639ZM64.9105 34.2018L64.9101 34.9518L77.9471 34.9576L77.9474 34.2076L77.9478 33.4576L64.9108 33.4518L64.9105 34.2018ZM80.1179 34.2078L80.118 33.4578L79.0327 33.4577V34.2077L79.0326 34.9577L80.1178 34.9578L80.1179 34.2078ZM39.9221 38.5507H39.1721V43.9829H39.9221H40.6721V38.5507H39.9221Z" fill="none" stroke="currentColor" stroke-width="1.5" />
<path d="M39.5026 46.4179L42.3625 53.1898M42.3625 53.1898L36.5812 57.3447L32.5365 56.7574M42.3625 53.1898L40.626 59.1285L41.7801 64.4689M42.3625 53.1898L45.2424 57.943H48.7155L49.2871 62.0979M54.9777 57.8511C54.9777 57.7106 54.9551 57.5818 54.9438 57.453C54.368 51.0249 49.0613 45.9668 42.7948 45.9551C38.7866 45.9551 35.2299 47.9455 32.9944 51.0249C30.7701 47.9338 27.2134 45.9434 23.2052 45.9434C16.9387 45.9434 11.6208 51.0132 11.0562 57.4413C11.0449 57.5701 11.0336 57.7106 11.0223 57.8394C10.8643 60.5792 11.553 63.1552 12.8402 65.2978C16.2613 71 17.8759 77.6505 17.0517 84.3128L16.5549 88.3406C16.1823 91.3497 19.705 93.1529 21.7712 90.9985L28.207 79.6996C30.3636 75.9176 35.6364 75.9176 37.793 79.6996L44.2288 90.9985C46.3063 93.1529 49.8177 91.3497 49.4451 88.3406L48.9483 84.3128C48.1241 77.6622 49.7387 71 53.1598 65.2978C54.447 63.1552 55.1357 60.591 54.9777 57.8394V57.8511Z" stroke="currentColor" stroke-width="1.5" stroke-linecap="round" stroke-linejoin="round" fill="none" />
</g>
<defs>
<clipPath id="clip0_1879_35">
<rect width="110" height="110" fill="none" stroke="currentColor" stroke-width="1.5" />
</clipPath>
</defs>
</svg>