<?xml version='1.0' encoding='utf-8'?>
<svg xmlns="http://www.w3.org/2000/svg" id="Layer_1" data-name="Layer 1" width="110" height="110" viewBox="0 0 110 110">
  <path d="M56.5481,93.0234c0-1.6731-.3489-2.8317-1.0665-3.5421-1.3456-1.3324-4.2588-1.3037-7.0763-1.2757-3.5038.0354-7.1281.0704-9.3667-2.3177-1.3836-1.4764-1.9526-3.5774-1.7397-6.4236.1129-1.5069-.1659-1.7969-.5518-2.1979-.4461-.4641-1.1929-1.2409-1.1929-2.7068,0-1.7176,1.4764-2.9209,2.7789-3.9822.1414-.1152.2847-.232.4194-.3447-.1611-.0827-.328-.1645-.4765-.2363l-.6893-.1751c-.1267-.0322-.2494-.0784-.3657-.138-3.4841-1.7797-3.0188-4.094-2.769-5.3372.0425-.2115.0827-.4114.1014-.583.045-.4151-.4483-.8398-.9513-1.0109-1.8621-.6329-3.0535-1.6574-3.5411-3.0455-.9044-2.5738.905-5.4131,2.8206-8.419,1.7162-2.6931,3.6613-5.7456,3.1312-7.9625-.9653-4.0364-.3686-8.939,1.6798-13.8047,2.0387-4.8428,5.3435-9.2221,9.3055-12.331,4.5031-3.5333,10.7172-5.8351,17.4978-6.4813,6.532-.6235,12.9987.3096,18.2076,2.6247,7.1195,3.1642,13.3125,10.6713,16.1622,19.5917,3.1866,9.9758,1.8587,20.6814-3.7394,30.1444" style="fill:none;stroke:currentColor;stroke-miterlimit:10;stroke-width:1.5" />
  <path d="M18.9183,50.8024c-12.0313,12.0313-12.0312,31.5026.0002,43.534" style="fill:none;stroke:currentColor;stroke-miterlimit:10;stroke-width:1.5" />
  <path d="M21.1774,58.7046c-7.6587,7.6587-7.6586,20.0534.0001,27.7121" style="fill:none;stroke:currentColor;stroke-miterlimit:10;stroke-width:1.5" />
  <path d="M25.1153,65.5959c-4.2578,4.2578-4.2578,11.1485,0,15.4063" style="fill:none;stroke:currentColor;stroke-miterlimit:10;stroke-width:1.5" />
</svg>