<?xml version='1.0' encoding='utf-8'?>
<svg xmlns="http://www.w3.org/2000/svg" id="Layer_1" data-name="Layer 1" width="110" height="110" viewBox="0 0 110 110">
  <polyline points="49.7318 96 14 96 14 36.6519 34.6145 36.6519 34.6145 19.4365 74.4693 19.4365 74.4693 27.5912 96 27.5912 96 95.0939 59.8101 95.0939" style="fill:none;stroke:currentColor;stroke-linecap:round;stroke-miterlimit:10;stroke-width:1.5" />
  <line x1="34.6145" y1="36.6519" x2="34.6145" y2="95.8324" style="fill:none;stroke:currentColor;stroke-linecap:round;stroke-miterlimit:10;stroke-width:1.5" />
  <line x1="74.4693" y1="27.5912" x2="74.4693" y2="95.0939" style="fill:none;stroke:currentColor;stroke-linecap:round;stroke-miterlimit:10;stroke-width:1.5" />
  <polyline points="42.1675 18.6976 43.7765 14 64.8492 14 66.6949 18.6976" style="fill:none;stroke:currentColor;stroke-linecap:round;stroke-miterlimit:10;stroke-width:1.5" />
  <rect x="20.8715" y="41.6354" width="8.2458" height="13.1381" rx="2.4405" ry="2.4405" style="fill:none;stroke:currentColor;stroke-linecap:round;stroke-miterlimit:10;stroke-width:1.5" />
  <rect x="20.8715" y="58.3978" width="8.2458" height="13.1381" rx="2.4405" ry="2.4405" style="fill:none;stroke:currentColor;stroke-linecap:round;stroke-miterlimit:10;stroke-width:1.5" />
  <rect x="20.8715" y="76.0663" width="8.2458" height="13.1381" rx="2.4405" ry="2.4405" style="fill:none;stroke:currentColor;stroke-linecap:round;stroke-miterlimit:10;stroke-width:1.5" />
  <rect x="80.8827" y="33.0276" width="8.2458" height="13.1381" rx="2.4405" ry="2.4405" style="fill:none;stroke:currentColor;stroke-linecap:round;stroke-miterlimit:10;stroke-width:1.5" />
  <rect x="80.8827" y="49.7901" width="8.2458" height="13.1381" rx="2.4405" ry="2.4405" style="fill:none;stroke:currentColor;stroke-linecap:round;stroke-miterlimit:10;stroke-width:1.5" />
  <rect x="80.8827" y="67.4586" width="8.2458" height="13.1381" rx="2.4405" ry="2.4405" style="fill:none;stroke:currentColor;stroke-linecap:round;stroke-miterlimit:10;stroke-width:1.5" />
  <rect x="40.1117" y="26.6851" width="7.7877" height="7.7017" rx="3.0109" ry="3.0109" style="fill:none;stroke:currentColor;stroke-linecap:round;stroke-miterlimit:10;stroke-width:1.5" />
  <rect x="51.1061" y="26.6851" width="7.7877" height="7.7017" rx="3.0109" ry="3.0109" style="fill:none;stroke:currentColor;stroke-linecap:round;stroke-miterlimit:10;stroke-width:1.5" />
  <rect x="62.5587" y="26.6851" width="7.7877" height="7.7017" rx="3.0109" ry="3.0109" style="fill:none;stroke:currentColor;stroke-linecap:round;stroke-miterlimit:10;stroke-width:1.5" />
  <rect x="40.1117" y="43.9006" width="7.7877" height="7.7017" rx="3.0109" ry="3.0109" style="fill:none;stroke:currentColor;stroke-linecap:round;stroke-miterlimit:10;stroke-width:1.5" />
  <rect x="51.1061" y="43.9006" width="7.7877" height="7.7017" rx="3.0109" ry="3.0109" style="fill:none;stroke:currentColor;stroke-linecap:round;stroke-miterlimit:10;stroke-width:1.5" />
  <rect x="62.5587" y="43.9006" width="7.7877" height="7.7017" rx="3.0109" ry="3.0109" style="fill:none;stroke:currentColor;stroke-linecap:round;stroke-miterlimit:10;stroke-width:1.5" />
  <rect x="40.1117" y="61.5691" width="7.7877" height="7.7017" rx="3.0109" ry="3.0109" style="fill:none;stroke:currentColor;stroke-linecap:round;stroke-miterlimit:10;stroke-width:1.5" />
  <rect x="51.1061" y="61.5691" width="7.7877" height="7.7017" rx="3.0109" ry="3.0109" style="fill:none;stroke:currentColor;stroke-linecap:round;stroke-miterlimit:10;stroke-width:1.5" />
  <rect x="62.5587" y="61.5691" width="7.7877" height="7.7017" rx="3.0109" ry="3.0109" style="fill:none;stroke:currentColor;stroke-linecap:round;stroke-miterlimit:10;stroke-width:1.5" />
</svg>