<?xml version='1.0' encoding='utf-8'?>
<svg xmlns="http://www.w3.org/2000/svg" width="110" height="110" viewBox="0 0 110 110" fill="none" stroke="currentColor" stroke-width="1.5">
<g clip-path="url(#clip0_535_39)">
<path d="M74.8934 20.7286L77.7654 20.522C79.2367 20.4162 80.5 21.5569 80.5446 23.0313L81.3064 48.2912C81.3265 48.9604 81.0873 49.6115 80.6385 50.1082L44.3134 90.3225C43.353 91.3857 41.7127 91.4691 40.6494 90.5087L14.692 67.0617C13.6289 66.1014 13.5455 64.461 14.5059 63.3978L50.8314 23.183C51.2799 22.6865 51.903 22.3825 52.5703 22.3344L66.7567 21.3139M79.4377 56.5561C80.3225 57.3554 80.3917 58.7203 79.5927 59.605L44.7146 98.2174C43.7543 99.2806 42.1139 99.364 41.0507 98.4035L16.8349 76.5298C15.873 75.661 15.7976 74.1768 16.6665 73.2149M83.6672 45.5353C87.4509 45.2715 91.1415 43.5992 93.8848 40.5624C99.5104 34.3344 99.0221 24.7251 92.7942 19.0995C86.5662 13.4739 76.9569 13.9622 71.3313 20.1902C67.6228 24.2958 66.5712 29.8708 68.0694 34.8054M71.5219 36.7479C70.2611 38.8626 67.5248 39.5549 65.4101 38.2941C63.2955 37.0334 62.6032 34.2971 63.8639 32.1824C65.1246 30.0677 67.8609 29.3755 69.9756 30.6362C72.0903 31.8969 72.7826 34.6332 71.5219 36.7479Z" stroke="currentColor" stroke-width="1.5" stroke-linecap="round" stroke-linejoin="round" fill="none" />
<path d="M43.3377 55.8594C42.9235 55.8594 42.5877 56.1952 42.5877 56.6094C42.5877 57.0236 42.9235 57.3594 43.3377 57.3594L43.3377 55.8594ZM50.391 57.3595C50.8052 57.3595 51.141 57.0237 51.141 56.6095C51.141 56.1953 50.8052 55.8595 50.391 55.8595L50.391 57.3595ZM52.9896 63.9842C53.4038 63.9842 53.7396 63.6484 53.7396 63.2342C53.7396 62.82 53.4038 62.4842 52.9896 62.4842V63.9842ZM43.3377 63.2342L42.9242 62.6085C42.648 62.791 42.5242 63.133 42.6195 63.4501C42.7148 63.7671 43.0067 63.9842 43.3377 63.9842V63.2342ZM46.3075 57.9344L47.0522 57.845L47.0522 57.845L46.3075 57.9344ZM48.1636 49.1015L48.5142 49.7646L48.5142 49.7646L48.1636 49.1015ZM51.4196 50.1384C51.7483 50.3904 52.2191 50.3282 52.4711 49.9995C52.7231 49.6708 52.661 49.2 52.3322 48.948L51.4196 50.1384ZM43.3377 57.3594L46.1247 57.3594L46.1247 55.8594L43.3377 55.8594L43.3377 57.3594ZM46.1247 57.3594L50.391 57.3595L50.391 55.8595L46.1247 55.8594L46.1247 57.3594ZM52.9896 62.4842H43.3377V63.9842H52.9896V62.4842ZM43.7512 63.8599C44.3775 63.4459 45.2667 62.6746 45.968 61.663C46.6691 60.6516 47.2302 59.3277 47.0522 57.845L45.5629 58.0238C45.6818 59.0143 45.3148 59.9723 44.7352 60.8084C44.1558 61.6444 43.4115 62.2864 42.9242 62.6085L43.7512 63.8599ZM47.0522 57.845C46.9995 57.4061 46.9323 56.9512 46.8668 56.5014L45.3825 56.7175C45.449 57.1739 45.5129 57.6078 45.5629 58.0238L47.0522 57.845ZM46.8668 56.5014C46.6579 55.0665 46.4702 53.6836 46.6519 52.4794C46.8253 51.3306 47.3264 50.3926 48.5142 49.7646L47.8131 48.4385C46.1218 49.3327 45.3979 50.7369 45.1687 52.2556C44.9479 53.7189 45.1803 55.3288 45.3825 56.7175L46.8668 56.5014ZM48.5142 49.7646C49.1983 49.4029 49.8969 49.471 50.4777 49.6655C50.7662 49.7621 51.0093 49.8853 51.1798 49.9845C51.2644 50.0337 51.3292 50.0758 51.3707 50.1041C51.3914 50.1181 51.4061 50.1286 51.4144 50.1347C51.4186 50.1377 51.4211 50.1396 51.422 50.1403C51.4225 50.1406 51.4225 50.1406 51.4221 50.1403C51.4219 50.1401 51.4216 50.1399 51.4212 50.1396C51.4209 50.1394 51.4207 50.1393 51.4204 50.1391C51.4203 50.139 51.4201 50.1388 51.42 50.1387C51.4198 50.1386 51.4196 50.1384 51.8759 49.5432C52.3322 48.948 52.332 48.9478 52.3317 48.9476C52.3316 48.9475 52.3314 48.9473 52.3312 48.9472C52.3308 48.9469 52.3304 48.9466 52.33 48.9463C52.3291 48.9456 52.3281 48.9449 52.327 48.944C52.3248 48.9424 52.3222 48.9403 52.319 48.938C52.3128 48.9333 52.3047 48.9274 52.2948 48.9202C52.275 48.9059 52.2481 48.8868 52.2144 48.8639C52.1471 48.8181 52.0524 48.7567 51.934 48.6879C51.6985 48.5509 51.3615 48.3796 50.954 48.2432C50.1427 47.9715 48.9851 47.8188 47.8131 48.4385L48.5142 49.7646Z" fill="none" stroke="currentColor" stroke-width="1.5" />
<path d="M48.1637 38.6219V45.456M36.0778 43.9373L40.6859 48.5697M30.7903 56.0868H37.5886M36.0778 68.2363L40.6859 63.604M60.2495 68.2363L55.6414 63.604M65.537 56.0868H58.7388M60.2495 43.9373L55.6414 48.5697M42.9605 43.4591L44.1167 46.2653M35.6021 50.8563L38.3936 52.0186M35.6021 61.3174L38.3936 60.1551M60.7252 61.3174L57.9338 60.1551M60.7252 50.8563L57.9338 52.0186M53.3668 43.4591L52.2106 46.2653" stroke="currentColor" stroke-width="1.5" stroke-linejoin="round" fill="none" />
</g>
<defs>
<clipPath id="clip0_535_39">
<rect width="110" height="110" fill="none" stroke="currentColor" stroke-width="1.5" />
</clipPath>
</defs>
</svg>