<?xml version='1.0' encoding='utf-8'?>
<svg xmlns="http://www.w3.org/2000/svg" width="110" height="110" viewBox="0 0 110 110" fill="none" stroke="currentColor" stroke-width="1.5">
<path d="M23.6626 51.4855V86.8944M23.6626 51.4855C37.2095 51.4889 47.7966 51.5166 61.3528 51.5199M23.6626 51.4855C22.1921 51.4851 21 50.2906 21 48.817L21 44.6813C21 41.8406 23.8605 39.5354 26.6953 39.5354H34.4933M23.6626 86.8944C22.1922 86.8944 21.0672 88.1099 21.6349 89.4691C22.8199 92.3061 25.4405 95.577 27.5617 95.577H52.3077M23.6626 86.8944H48.8923M61.3528 51.5199C62.7884 51.5202 63.9522 50.354 63.9522 48.9154V44.35C63.9522 41.5092 61.0019 39.5354 58.1671 39.5354L34.4933 39.5354M61.3528 51.5199V72.331M34.4933 32.4287H55.6664V20.473C55.6664 18.7418 54.4066 17 52.6885 17H32.7604C31.0232 17 29.7278 18.7513 29.7278 20.473V28.2873M34.4933 32.4287H29.7278V28.2873M34.4933 32.4287V39.5354M50.5224 33.0627V39.1405M52.6885 28.2873H31.5154M55.2244 28.2873H29.7278M69.4839 98L67.6516 93.6677M73.1907 84.177L67.6516 93.6677M73.1907 84.177H80.1095M73.1907 84.177L70.8635 79.9612M67.6516 93.6677H56.6912M56.6912 93.6677L51.2657 84.0075M56.6912 93.6677L53.9131 98M51.2657 84.0075L56.8154 74.4955M51.2657 84.0075L48.6119 84.5371M56.8154 74.4955L61.9018 74.5379M56.8154 74.4955L54.7514 71.392M70.9898 69.0511L73.3066 65.0048M73.3066 65.0048L84.2691 65.0789M73.3066 65.0048L67.8832 55.4187M84.2691 65.0789L89.7135 74.6756M84.2691 65.0789L87.2283 59.984M89.7135 74.6756L86.3542 80.4484M89.7135 74.6756L93.0097 75.3535M67.8832 55.4187L73.4224 45.9809H84.385L87.323 51.1817M67.8832 55.4187H62.4141M89.8294 50.3237C92.6937 50.3343 95.0105 52.6964 95 55.5776C95 56.6792 94.6419 57.7066 94.0627 58.554M85.7224 58.7659C85.0273 57.8761 84.6166 56.7427 84.6166 55.5246C84.6166 54.3488 85.0168 53.2578 85.6802 52.3893M88.1339 81.5712C88.6499 82.3551 88.9237 83.266 88.9132 84.2193C88.9027 86.6344 87.1019 88.6575 84.7114 88.9329C84.5219 88.9541 84.3323 88.9647 84.1427 88.9647C82.363 88.9647 80.815 87.9584 80.0147 86.4967M67.7674 80.7768C65.5033 80.7662 63.5235 79.5163 62.4599 77.6732M73.5699 72.4088C73.8226 73.0867 73.9595 73.8282 73.9595 74.6015C73.9595 75.9891 73.4961 77.2601 72.7274 78.2876M62.2914 71.7839C63.3129 69.7501 65.4085 68.3626 67.8306 68.3731M60.4971 63.8261C57.8351 62.6835 56.3505 62.5418 53.6025 62.8028C50.7832 63.0723 48.0957 63.8436 45.4356 64.7444C41.4573 66.0941 37.3662 66.5948 33.1076 65.9874C30.953 65.6734 28.8488 65.0748 26.8333 64.1074C25.8887 63.6493 24.9528 63.1636 24.1123 62.4675M89.8188 52.9718C91.23 52.9718 92.3673 54.137 92.3567 55.5564C92.3567 56.9758 91.1984 58.1197 89.7872 58.1091C88.3761 58.0985 87.2388 56.944 87.2493 55.5246C87.2493 54.1052 88.4077 52.9612 89.8188 52.9718ZM84.1849 82.3869C85.1748 82.3869 85.9751 83.2025 85.9751 84.1981C85.9751 85.1938 85.1642 85.9988 84.1743 85.9988C83.1844 85.9988 82.3841 85.1832 82.3841 84.1876C82.3841 83.1919 83.195 82.3869 84.1849 82.3869ZM67.8095 71.3602C69.5682 71.3602 71.0004 72.8113 70.9898 74.5909C70.9898 76.3598 69.5471 77.8004 67.7779 77.7898C66.0193 77.7898 64.5871 76.3386 64.5977 74.5591C64.5977 72.7902 66.0404 71.3496 67.8095 71.3602Z" stroke="currentColor" stroke-width="1.5" stroke-linecap="round" stroke-linejoin="round" fill="none" />
</svg>