<?xml version='1.0' encoding='utf-8'?>
<svg xmlns="http://www.w3.org/2000/svg" width="110" height="110" viewBox="0 0 110 110" fill="none" stroke="currentColor" stroke-width="1.5">
<path d="M45.0433 62.9273C47.8318 65.7143 47.8318 70.2309 45.0433 73.007M50.0912 57.8929C52.8798 60.68 52.8798 65.1966 50.0912 67.9726M55.1392 52.8476C57.9277 55.6346 57.9277 60.1512 55.1392 62.9273M60.1872 47.8022C62.9757 50.5893 62.9757 55.1059 60.1872 57.8819M65.2242 42.7569C68.0127 45.5439 68.0127 50.0605 65.2242 52.8366M32.6878 71.9164L25.9646 78.6472M29.3262 82.0071L36.0605 75.2763M71.9585 39.397L89.1084 22.256M85.7467 18.8961L68.5968 36.0371M27.6509 80.3217L14.1713 93.7943M65.2242 32.6772L29.3262 68.5565M75.3201 42.7569L39.4222 78.6472M86.8048 40.3223H96.2284V68.6777H68.6629V96.2289H40.337V84.684M20.8284 68.6777H12.7715V40.3223H40.337V12.7711H68.6629V20.945M41.5053 73.6019C41.5053 77.5382 38.3126 80.7293 34.3742 80.7293C30.4358 80.7293 27.2431 77.5382 27.2431 73.6019C27.2431 69.6655 30.4358 66.4745 34.3742 66.4745C38.3126 66.4745 41.5053 69.6655 41.5053 73.6019ZM36.7549 73.6019C36.7549 74.916 35.689 75.9813 34.3742 75.9813C33.0594 75.9813 31.9935 74.916 31.9935 73.6019C31.9935 72.2877 33.0594 71.2224 34.3742 71.2224C35.689 71.2224 36.7549 72.2877 36.7549 73.6019ZM30.0316 80.3217C30.0316 81.6358 28.9657 82.7011 27.6509 82.7011C26.3361 82.7011 25.2702 81.6358 25.2702 80.3217C25.2702 79.0075 26.3361 77.9422 27.6509 77.9422C28.9657 77.9422 30.0316 79.0075 30.0316 80.3217ZM77.4032 37.7225C77.4032 41.6589 74.2105 44.8499 70.2721 44.8499C66.3337 44.8499 63.141 41.6589 63.141 37.7225C63.141 33.7862 66.3337 30.5951 70.2721 30.5951C74.2105 30.5951 77.4032 33.7862 77.4032 37.7225ZM94.6854 20.4493C94.6854 24.3857 91.4927 27.5767 87.5543 27.5767C83.6159 27.5767 80.4232 24.3857 80.4232 20.4493C80.4232 16.513 83.6159 13.3219 87.5543 13.3219C91.4927 13.3219 94.6854 16.513 94.6854 20.4493ZM72.6528 37.7225C72.6528 39.0367 71.587 40.102 70.2721 40.102C68.9573 40.102 67.8914 39.0367 67.8914 37.7225C67.8914 36.4084 68.9573 35.343 70.2721 35.343C71.587 35.343 72.6528 36.4084 72.6528 37.7225ZM89.935 20.4493C89.935 21.7635 88.8691 22.8288 87.5543 22.8288C86.2395 22.8288 85.1736 21.7635 85.1736 20.4493C85.1736 19.1352 86.2395 18.0698 87.5543 18.0698C88.8691 18.0698 89.935 19.1352 89.935 20.4493ZM60.5501 30.6188L63.1142 28.0561C65.1932 25.9782 68.5638 25.9782 70.6428 28.0561L79.9327 37.3412C82.0117 39.4191 82.0117 42.788 79.9327 44.8659L77.3687 47.4287C75.2897 49.5066 71.919 49.5066 69.8401 47.4287L60.5501 38.1435C58.4711 36.0657 58.4711 32.6967 60.5501 30.6188Z" stroke="currentColor" stroke-width="1.5" stroke-linecap="round" stroke-linejoin="round" fill="none" />
</svg>