<?xml version='1.0' encoding='utf-8'?>
<svg xmlns="http://www.w3.org/2000/svg" version="1.1" id="Layer_1" x="0px" y="0px" viewBox="0 0 110 110" style="enable-background:new 0 0 110 110;fill:none;stroke:currentColor;stroke-width:1.5" xml:space="preserve">
<path style="fill:none;stroke:currentColor;stroke-width:1.5;stroke-miterlimit:10" d="M90.685,57.047  c0,19.889-16.123,36.016-36.016,36.016c-19.889,0-36.013-16.127-36.013-36.016 M82.48,57.047c0,15.356-12.451,27.807-27.811,27.807  c-15.357,0-27.807-12.451-27.807-27.807 M74.274,57.047c0,10.827-8.778,19.601-19.605,19.601c-10.824,0-19.598-8.774-19.598-19.601   M66.065,57.047c0,6.294-5.101,11.396-11.396,11.396c-6.291,0-11.392-5.101-11.392-11.396 M30.535,16.942l4.062,12.589l13.228-0.03  l-10.719,7.753l4.114,12.574L30.535,42.03L19.85,49.828l4.114-12.574l-10.719-7.753l13.228,0.03L30.535,16.942z M78.71,16.942  l4.062,12.589L96,29.501l-10.719,7.753l4.114,12.574L78.71,42.03l-10.685,7.798l4.114-12.574L61.42,29.501l13.232,0.03L78.71,16.942  z" />
</svg>