<?xml version='1.0' encoding='utf-8'?>
<svg xmlns="http://www.w3.org/2000/svg" width="110" height="110" viewBox="0 0 110 110" fill="none" stroke="currentColor" stroke-width="1.5">
<path d="M62.537 63.461L62.6138 66.409C63.1142 72.3515 69.7216 75.2841 75.3771 75.2436C80.5874 74.8681 85.2931 72.0363 86.3558 67.1438L86.9777 64.037M17.6286 80.6084L17.7054 83.5565C18.2058 89.4989 24.8132 92.4315 30.4687 92.3911C35.679 92.0156 40.3847 89.1838 41.4474 84.2913L42.0693 81.1845M30.6685 37.6363L30.8626 40.5791C31.5994 46.4972 38.3183 49.1676 43.9676 48.9047C49.1588 48.3245 53.748 45.3097 54.6149 40.3792L55.1125 37.2503M59.589 56.9516C59.1183 50.0929 65.8212 44.0223 74.5603 43.3924C80.1452 42.9899 85.2102 44.9069 88.2617 48.1332C92.348 49.2756 95.0232 51.5548 95.2379 54.6831C95.4688 58.0479 92.8544 60.8592 88.4537 62.5045C85.7609 65.6472 81.3588 67.8628 76.265 68.2299C70.9791 68.6109 66.1591 66.9141 63.0709 63.996C61.0534 62.0896 59.7751 59.6618 59.589 56.9516ZM87.7227 54.8955C88.1684 60.3314 82.9492 65.0664 76.0654 65.4714C69.1816 65.8763 63.2398 61.7979 62.7942 56.3619C62.3485 50.926 67.5677 46.191 74.4515 45.7861C81.3353 45.3811 87.2771 49.4595 87.7227 54.8955ZM14.6806 74.0991C14.2099 67.2404 20.9128 61.1698 29.652 60.5399C35.2368 60.1374 40.3018 62.0544 43.3533 65.2807C47.4396 66.4231 50.1148 68.7023 50.3295 71.8306C50.5604 75.1953 47.946 78.0066 43.5454 79.6519C40.8525 82.7947 36.4504 85.0103 31.3566 85.3774C26.0707 85.7584 21.2507 84.0616 18.1625 81.1435C16.145 79.2371 14.8666 76.8093 14.6806 74.0991ZM42.8143 72.043C43.26 77.4789 38.0408 82.2139 31.157 82.6188C24.2732 83.0238 18.3314 78.9454 17.8858 73.5094C17.4401 68.0735 22.6593 63.3385 29.5431 62.9335C36.4269 62.5286 42.3687 66.607 42.8143 72.043ZM27.4636 31.2479C26.7201 24.413 33.1758 18.0833 41.8829 17.1101C47.4473 16.4882 52.5845 18.2044 55.7621 21.3081C59.8906 22.2889 62.6544 24.4611 62.9936 27.5785C63.3583 30.9316 60.858 33.8436 56.5264 35.6608C53.9608 38.9071 49.6506 41.2942 44.5754 41.8615C39.309 42.4501 34.4252 40.9443 31.2233 38.1499C29.1314 36.3243 27.7574 33.9487 27.4636 31.2479ZM55.4929 28.0864C56.1547 33.5007 51.1283 38.4374 44.2661 39.1129C37.4039 39.7883 31.3045 35.9468 30.6427 30.5326C29.9809 25.1183 35.0073 20.1816 41.8695 19.5061C48.7317 18.8307 54.8311 22.6722 55.4929 28.0864Z" stroke="currentColor" stroke-width="1.5" stroke-linecap="round" stroke-linejoin="round" fill="none" />
</svg>