<?xml version='1.0' encoding='utf-8'?>
<svg xmlns="http://www.w3.org/2000/svg" version="1.1" id="Layer_1" x="0px" y="0px" viewBox="0 0 110 110" style="enable-background:new 0 0 110 110;fill:none;stroke:currentColor;stroke-width:1.5" xml:space="preserve">
<path style="fill:none;stroke:currentColor;stroke-width:1.5" d="M50.368,33.384L54.388,21l4.02,12.384h13.021l-10.53,7.657l4.02,12.384l-10.53-7.657l-10.53,7.657  l4.02-12.384l-10.53-7.657H50.368z" />
<path style="fill:none;stroke:currentColor;stroke-width:1.5" d="M28.114,33.384h6.337H28.114z" />
<path style="fill:none;stroke:currentColor;stroke-width:1.5" d="M39.536,63.468H16.68l2.433,6.418h17.991L39.536,63.468z" />
<path style="fill:none;stroke:currentColor;stroke-width:1.5" d="M80.985,33.384c-0.683,0-6.337,0-6.337,0H80.985z" />
<path style="fill:none;stroke:currentColor;stroke-width:1.5" d="M69.552,63.468h22.868l-2.444,6.418H71.996L69.552,63.468z" />
<path style="fill:none;stroke:currentColor;stroke-width:1.5" d="M42.792,82.78c-3.834,0-6.939,3.105-6.939,6.951h37.082c0-3.834-3.105-6.951-6.951-6.951H42.792z" />
<path style="fill:none;stroke:currentColor;stroke-width:1.5;stroke-linecap:round;stroke-linejoin:round" d="M54.388,45.768l10.53,7.657  l-4.02-12.384l10.53-7.657H58.408L54.388,21l-4.02,12.384H37.347l10.53,7.657l-4.02,12.384L54.388,45.768z M54.388,45.768v26.158   M28.114,33.384h6.337 M28.114,33.384l11.422,30.108 M28.114,33.384L16.68,63.492 M80.985,33.384c-0.683,0-6.337,0-6.337,0   M80.985,33.384L69.552,63.492 M80.985,33.384l11.434,30.108 M54.388,71.925c6.001,0,10.862,4.854,10.862,10.855 M54.388,71.925  c-6.001,0-10.864,4.854-10.864,10.855 M39.536,63.468H16.68l2.433,6.418h17.991L39.536,63.468z M69.552,63.468h22.868l-2.444,6.418  H71.996L69.552,63.468z M42.792,82.78c-3.834,0-6.939,3.105-6.939,6.951h37.082c0-3.835-3.105-6.951-6.951-6.951H42.792z" />
</svg>