<?xml version='1.0' encoding='utf-8'?>
<svg xmlns="http://www.w3.org/2000/svg" id="Layer_1" data-name="Layer 1" width="110" height="110" viewBox="0 0 110 110">
  <g>
    <path d="M66.1689,48.6639s6.113,5.5573,12.7818,0c0,0,8.2248,3.2232,6.0019,15.227,0,0-11.2258,3.8901-24.5633,0,0,0-2.1118-10.7812,5.7796-15.227Z" style="fill:none;stroke:currentColor;stroke-linecap:round;stroke-linejoin:round;stroke-width:1.5" />
    <path d="M82.3962,42.1062s.0767,2.0234-1.556,4.557c0,0,6.5576,3.8901,6.6688,11.3369,0,0,8.4471.3334,12.4484-1.4449,0,0,2.8898-10.2254-5.5573-15.3382,0,0-5.6685,4.8904-12.0038.8892Z" style="fill:none;stroke:currentColor;stroke-linecap:round;stroke-linejoin:round;stroke-width:1.5" />
    <path d="M63.0852,42.1062s-.0767,2.0234,1.556,4.557c0,0-6.5576,3.8901-6.6688,11.3369,0,0-8.4471.3334-12.4484-1.4449,0,0-2.8898-10.2254,5.5573-15.3382,0,0,5.6685,4.8904,12.0038.8892Z" style="fill:none;stroke:currentColor;stroke-linecap:round;stroke-linejoin:round;stroke-width:1.5" />
    <circle cx="72.7265" cy="41.5505" r="6.8911" style="fill:none;stroke:currentColor;stroke-linecap:round;stroke-linejoin:round;stroke-width:1.5" />
    <circle cx="72.7265" cy="16.6498" r="6.8911" style="fill:none;stroke:currentColor;stroke-linecap:round;stroke-linejoin:round;stroke-width:1.5" />
    <circle cx="87.8819" cy="34.2944" r="6.8911" style="fill:none;stroke:currentColor;stroke-linecap:round;stroke-linejoin:round;stroke-width:1.5" />
    <circle cx="57.6427" cy="34.2944" r="6.8911" style="fill:none;stroke:currentColor;stroke-linecap:round;stroke-linejoin:round;stroke-width:1.5" />
    <path d="M66.2942,23.7785s5.5573,5.335,12.8929,0c0,0,2.1118,1.0003,3.0009,2.4452,0,0-3.8901,2.8898-3.8901,7.4468,0,0-4.6681-3.8901-11.2258-.2223,0,0-.1111-4.4458-4.0013-7.1133,0,0,.6669-1.4449,3.2232-2.5564Z" style="fill:none;stroke:currentColor;stroke-linecap:round;stroke-linejoin:round;stroke-width:1.5" />
  </g>
  <g>
    <g>
      <path d="M73.8639,78.867s9.0189-3.7858,15.1477-6.3336c6.4457-2.6796,10.2085.1133,12.7303,4.3638l-31.9861,17.6994-32.1588-8.2089" style="fill:none;stroke:currentColor;stroke-linecap:round;stroke-linejoin:round;stroke-width:1.5" />
      <path d="M26.6879,71.8036c8.3641-6.3306,14.1618-8.0789,20.4188-6.4817,5.2349,1.3362,7.8658,2.6655,11.5657,6.8033,3.4201.873,8.0425,2.0529,9.5815,2.4458,1.539.3929,6.4458,2.3739,4.5349,9.8598l-20.1698-5.1486" style="fill:none;stroke:currentColor;stroke-linecap:round;stroke-linejoin:round;stroke-width:1.5" />
      <line x1="23.2685" y1="67.3891" x2="39.2555" y2="94.3354" style="fill:none;stroke:currentColor;stroke-linecap:round;stroke-linejoin:round;stroke-width:1.5" />
      <polyline points="13.7771 73.0202 23.2685 67.3891 39.2555 94.3354 29.7642 99.9665" style="fill:none;stroke:currentColor;stroke-linecap:round;stroke-linejoin:round;stroke-width:1.5" />
    </g>
    <path d="M20.3922,77.261c-.9677.5741-1.2868,1.8241-.7127,2.7919s1.8241,1.2867,2.7918.7125,1.2869-1.824.7127-2.7917c-.5741-.9677-1.8241-1.2868-2.7919-.7127Z" style="fill:none;stroke:currentColor;stroke-linecap:round;stroke-linejoin:round;stroke-width:1.5" />
  </g>
</svg>