<?xml version='1.0' encoding='utf-8'?>
<svg xmlns="http://www.w3.org/2000/svg" width="110" height="110" viewBox="0 0 110 110" fill="none" stroke="currentColor" stroke-width="1.5">
<path d="M74.0566 18.5486L76.9286 18.342C78.3999 18.2362 79.6632 19.3769 79.7078 20.8513L80.4696 46.1112C80.4897 46.7804 80.2505 47.4315 79.8017 47.9282L43.4766 88.1425C42.5162 89.2057 40.8759 89.2891 39.8126 88.3287L13.8552 64.8817C12.7921 63.9214 12.7087 62.281 13.6691 61.2178L49.9946 21.003C50.4431 20.5065 51.0662 20.2025 51.7335 20.1544L65.9199 19.1339M78.6009 54.3761C79.4857 55.1754 79.5549 56.5403 78.7559 57.425L43.8778 96.0374C42.9175 97.1006 41.2771 97.184 40.2139 96.2235L15.9981 74.3498C15.0362 73.481 14.9608 71.9968 15.8297 71.0349M82.8304 43.3553C86.6141 43.0915 90.3047 41.4192 93.048 38.3824C98.6736 32.1544 98.1853 22.5451 91.9574 16.9195C85.7294 11.2939 76.1201 11.7822 70.4945 18.0102C66.786 22.1158 65.7344 27.6908 67.2326 32.6254M70.6851 34.5679C69.4243 36.6826 66.688 37.3749 64.5733 36.1141C62.4587 34.8534 61.7664 32.1171 63.0271 30.0024C64.2878 27.8877 67.0241 27.1955 69.1388 28.4562C71.2535 29.7169 71.9458 32.4532 70.6851 34.5679Z" stroke="currentColor" stroke-width="1.5" stroke-linecap="round" stroke-linejoin="round" fill="none" />
</svg>