<?xml version='1.0' encoding='utf-8'?>
<svg xmlns="http://www.w3.org/2000/svg" id="Layer_1" data-name="Layer 1" width="110" height="110" viewBox="0 0 110 110">
  <g>
    <path d="M63.1859,49.4845c.009.0192.0183.038.0286.0569.3284.5384.7602.8021,1.2952.7897l2.2515-.052c.0572.2911.1054.5861.1439.8874.1541,1.2614.1254,2.4742-.0859,3.636l-2.2897-.007c-.5345-.0019-.96.2693-1.2755.8125-.0128.0247-.0249.0489-.0367.0743l-.5958,1.2456c-.0095.0248-.0185.0497-.0266.076-.2075.5881-.1351,1.0859.2159,1.4925l1.4312,1.7148c-1.0161,1.2261-2.182,2.1882-3.4982,2.8881l-1.4328-1.7981c-.3286-.4221-.8016-.5891-1.419-.5004-.0281.0029-.0561.007-.0841.0122l-1.3344.3313c-.0222.0047-.0438.0108-.0651.0169-.5989.2032-.9527.5674-1.0616,1.0933l-.4453,2.1947c-1.5534-.0222-3.0246-.3441-4.4135-.9668l.5097-2.2112c.1172-.5217-.0549-.9964-.5159-1.4257-.0154-.0212-.0313-.0414-.0475-.0616l-1.0724-.8321c-.0267-.0171-.0538-.0337-.0813-.0487-.5263-.336-1.0258-.3793-1.499-.1316l-1.9894,1.005c-.9276-1.1916-1.5869-2.5367-1.9772-4.0337l2.0147-.9786c.4847-.2266.7527-.6507.8047-1.2707.0032-.0273.0056-.0536.0077-.0807l-.0172-1.3785c-.0009-.0246-.0027-.0483-.0048-.0714-.0688-.6199-.3484-1.0367-.8386-1.251l-2.0505-.9236c.354-1.4364.9976-2.794,1.9315-4.0713l2.0283.9791c.482.2333.9835.1756,1.5038-.1741.0248-.0167.0491-.0353.0733-.0545l1.0422-.8636c.0218-.0192.043-.0384.0636-.0578.44-.4375.5907-.9138.4527-1.4294l-.5482-2.2168c1.0632-.4814,2.2187-.8019,3.4665-.9599.3222-.0411.6407-.0711.9556-.087l.4931,2.1433c.1101.5287.4627.8903,1.0581,1.0838.0321.0088.0643.0158.0975.0211l1.3518.293c.0258.0074.0515.013.0778.0169.6251.0711,1.0991-.1114,1.4218-.5462l1.3381-1.7578c.6542.3376,1.2892.7443,1.9051,1.2185.622.4845,1.1813,1.0067,1.6773,1.5647l-1.4225,1.7699c-.3361.4152-.3901.9161-.1626,1.5018.0105.0262.022.0525.0336.0789l.6165,1.2435Z" style="fill:none;fill-rule:evenodd;stroke:currentColor;stroke-linecap:round;stroke-linejoin:round;stroke-width:1.5" />
    <path d="M56.1758,48.1882c-1.2321-.2671-2.3799-.0605-3.4436.6188-1.0636.6788-1.729,1.6343-1.996,2.8658-.2672,1.2327-.0572,2.3779.6298,3.4367.6871,1.0583,1.6463,1.7215,2.8785,1.9885s2.3798.0606,3.4435-.6182c1.0638-.6793,1.7291-1.6348,1.9963-2.8675.267-1.2316.0569-2.3768-.6302-3.4351-.687-1.0588-1.6465-1.7221-2.8783-1.9891Z" style="fill:none;fill-rule:evenodd;stroke:currentColor;stroke-linecap:round;stroke-linejoin:round;stroke-width:1.5" />
  </g>
  <g>
    <line x1="55.769" y1="14.7946" x2="55.769" y2="29.5314" style="fill:none;stroke:currentColor;stroke-linejoin:round;stroke-width:1.5" />
    <line x1="29.5701" y1="26.2566" x2="39.5592" y2="36.2457" style="fill:none;stroke:currentColor;stroke-linejoin:round;stroke-width:1.5" />
    <line x1="18.1081" y1="52.4554" x2="32.845" y2="52.4554" style="fill:none;stroke:currentColor;stroke-linejoin:round;stroke-width:1.5" />
    <line x1="29.5701" y1="78.6542" x2="39.5592" y2="68.6651" style="fill:none;stroke:currentColor;stroke-linejoin:round;stroke-width:1.5" />
    <line x1="81.9678" y1="78.6542" x2="71.9787" y2="68.6651" style="fill:none;stroke:currentColor;stroke-linejoin:round;stroke-width:1.5" />
    <line x1="93.4298" y1="52.4554" x2="78.6929" y2="52.4554" style="fill:none;stroke:currentColor;stroke-linejoin:round;stroke-width:1.5" />
    <line x1="81.9678" y1="26.2566" x2="71.9787" y2="36.2457" style="fill:none;stroke:currentColor;stroke-linejoin:round;stroke-width:1.5" />
    <polyline points="62.3187 88.4788 60.6812 88.4788 59.0438 90.1162 55.769 90.1162 52.4941 90.1162 50.8567 88.4788 49.2192 88.4788" style="fill:none;stroke:currentColor;stroke-linejoin:round;stroke-width:1.5" />
    <line x1="45.9444" y1="78.6542" x2="65.5935" y2="78.6542" style="fill:none;stroke:currentColor;stroke-linejoin:round;stroke-width:1.5" />
    <line x1="47.5818" y1="83.5665" x2="63.9561" y2="83.5665" style="fill:none;stroke:currentColor;stroke-linejoin:round;stroke-width:1.5" />
    <path d="M63.9561,75.3794v-3.2749c0-2.9577,1.0278-5.684,3.0811-7.7788,3.0941-3.1565,5.106-7.0601,5.106-11.8704,0-9.0432-7.3311-16.3743-16.3743-16.3743s-16.3743,7.3311-16.3743,16.3743c0,4.8103,2.0119,8.7139,5.106,11.8704,2.0533,2.0948,3.0812,4.8211,3.0812,7.7788v3.2749" style="fill:none;stroke:currentColor;stroke-linejoin:round;stroke-width:1.5" />
    <line x1="44.4898" y1="25.2253" x2="46.9963" y2="31.2764" style="fill:none;stroke:currentColor;stroke-linejoin:round;stroke-width:1.5" />
    <line x1="28.5388" y1="41.1763" x2="34.59" y2="43.6827" style="fill:none;stroke:currentColor;stroke-linejoin:round;stroke-width:1.5" />
    <line x1="28.5388" y1="63.7345" x2="34.59" y2="61.2281" style="fill:none;stroke:currentColor;stroke-linejoin:round;stroke-width:1.5" />
    <line x1="82.999" y1="63.7345" x2="76.9479" y2="61.2281" style="fill:none;stroke:currentColor;stroke-linejoin:round;stroke-width:1.5" />
    <line x1="82.999" y1="41.1763" x2="76.9479" y2="43.6827" style="fill:none;stroke:currentColor;stroke-linejoin:round;stroke-width:1.5" />
    <line x1="67.048" y1="25.2253" x2="64.5416" y2="31.2764" style="fill:none;stroke:currentColor;stroke-linejoin:round;stroke-width:1.5" />
  </g>
</svg>