<?xml version='1.0' encoding='utf-8'?>
<svg xmlns="http://www.w3.org/2000/svg" width="110" height="110" viewBox="0 0 110 110" fill="none" stroke="currentColor" stroke-width="1.5">
<g clip-path="url(#clip0_1205_39)">
<path d="M84.7674 17.8517L82.3105 15.3948L85.8176 11.8877L95.3176 21.3878L91.8106 24.8949L89.3537 22.438M84.7674 17.8517L82.7634 19.8557M84.7674 17.8517L89.3537 22.438M82.7634 19.8557L74.4964 11.5887L70.1544 15.9307L72.361 18.1374M82.7634 19.8557L87.3497 24.442M72.361 18.1374L17.2505 73.2479M72.361 18.1374L89.068 34.8444M16.9648 85.6543L14.5079 83.1974L11.0009 86.7044L20.501 96.2045L24.008 92.6975L21.5511 90.2406M16.9648 85.6543L18.9688 83.6503M16.9648 85.6543L21.5511 90.2406M18.9688 83.6503L10.7682 75.4496L15.1102 71.1076L17.2505 73.2479M18.9688 83.6503L23.5551 88.2366M17.2505 73.2479L33.9575 89.9549M89.3537 22.438L87.3497 24.442M87.3497 24.442L95.6492 32.7415L91.3072 37.0836L89.068 34.8444M89.068 34.8444L33.9575 89.9549M21.5511 90.2406L23.5551 88.2366M23.5551 88.2366L31.6998 96.3813L36.0419 92.0392L33.9575 89.9549M86.2612 37.8061L98.2982 49.843L94.0499 54.0913L82.013 42.0543M41.2841 82.7831L53.3211 94.8201L49.0729 99.0683L37.0359 87.0314" stroke="currentColor" stroke-width="1.5" stroke-linejoin="round" fill="none" />
</g>
<defs>
<clipPath id="clip0_1205_39">
<rect width="110" height="110" fill="none" stroke="currentColor" stroke-width="1.5" />
</clipPath>
</defs>
</svg>