<?xml version='1.0' encoding='utf-8'?>
<svg xmlns="http://www.w3.org/2000/svg" version="1.1" id="Layer_1" x="0px" y="0px" viewBox="0 0 110 110" style="enable-background:new 0 0 110 110;fill:none;stroke:currentColor;stroke-width:1.5" xml:space="preserve">
<path style="fill:none;stroke:currentColor;stroke-width:1.5" d="M18.5,91v-8h73v8 M18.5,39h73 M18.5,39v8h73v-8 M18.5,39L55,12l36.5,27   M25.5,47v36 M34,47v36 M51,47v36 M59.5,47v36 M76,47v36 M84.5,47v36 M13.5,91h83v7h-83V91z M59.072,28.602  c0,2.249-1.823,4.072-4.072,4.072s-4.072-1.823-4.072-4.072S52.751,24.53,55,24.53S59.072,26.353,59.072,28.602z" />
</svg>