<?xml version='1.0' encoding='utf-8'?>
<svg xmlns="http://www.w3.org/2000/svg" width="110" height="110" viewBox="0 0 110 110" fill="none" stroke="currentColor" stroke-width="1.5">
<path d="M45.17 55.7C44.23 55.99 41.98 56.05 40.59 55.74C39.72 55.54 39.41 54.96 39.29 54.11C39.2576 53.8844 39.229 53.6673 39.2043 53.4536M45.882 48.9555C45.6967 48.3628 45.4875 47.8186 45.2596 47.3283C44.3862 45.4487 43.2381 44.36 42.11 44.36V44.37C40.523 44.37 39.6052 46.0899 39.269 47.9037M45.882 48.9555C46.2839 47.0642 47.912 44.2493 49.98 44.14C52.12 44.02 54.33 46.99 54.76 49.19L54.77 49.18C55.06 50.72 55.16 53 55.02 54.87C54.95 55.79 54.71 56.55 53.49 56.71C51.91 56.92 48.76 56.74 47.35 56.5C46.25 56.32 45.89 55.79 45.8 54.97C45.63 53.44 45.66 51.11 45.8 49.48C45.8151 49.3162 45.8427 49.1403 45.882 48.9555ZM64.2621 48.9747C63.8671 47.0832 62.235 44.2497 60.16 44.14C58.02 44.02 55.81 46.99 55.38 49.19L55.37 49.18C55.08 50.72 54.98 53 55.12 54.87C55.19 55.79 55.43 56.55 56.65 56.71C58.23 56.92 61.38 56.74 62.79 56.5C63.7132 56.3489 64.1152 55.9513 64.2737 55.3427M64.2621 48.9747C64.2992 49.1524 64.3254 49.3219 64.34 49.48C64.48 51.11 64.51 53.44 64.34 54.97C64.3255 55.1018 64.3041 55.2261 64.2737 55.3427M64.2621 48.9747C65.157 46.0986 66.6144 44.36 68.04 44.36V44.37C69.627 44.37 70.5448 46.0899 70.881 47.9037M64.2737 55.3427C64.446 55.4928 64.6767 55.6072 64.98 55.7C65.92 55.99 68.17 56.05 69.56 55.74C70.43 55.54 70.74 54.96 70.86 54.11C70.8924 53.8844 70.921 53.6673 70.9457 53.4536M39.269 47.9037C39.1942 48.3071 39.1482 48.7152 39.13 49.11C39.0447 51.0965 39.0612 52.218 39.2043 53.4536M39.269 47.9037C38.3337 46.1269 36.4564 44.4308 35.1 44.44H35.11C34.09 44.45 33.54 45.59 33.54 47.63C33.54 47.7535 33.5408 47.8745 33.5423 47.9934M39.2043 53.4536C39.1785 53.5014 39.1505 53.5406 39.12 53.57C37.92 54.75 36.78 55.21 36.12 54.99C35.7386 54.8629 35.0079 54.3965 34.5024 53.5873M33.5423 47.9934C33.5654 49.7708 33.7582 51.0502 34.03 52.4C34.121 52.8552 34.2923 53.2509 34.5024 53.5873M33.5423 47.9934C32.942 46.8806 32.096 45.4669 31.25 45.39H31.26C30.5 45.32 30.31 46.77 30.29 47.78C30.26 49.5 30.4 51.58 30.68 52.53C30.89 53.23 31.44 53.52 32.21 53.63C32.9648 53.7338 33.8353 53.7307 34.5024 53.5873M70.881 47.9037C70.9558 48.3071 71.0018 48.7152 71.02 49.11C71.1053 51.0965 71.0888 52.218 70.9457 53.4536M70.881 47.9037C71.8163 46.1269 73.6936 44.4308 75.05 44.44H75.04C76.06 44.45 76.61 45.59 76.61 47.63C76.61 47.7469 76.6093 47.8617 76.6079 47.9744M70.9457 53.4536C70.9715 53.5014 70.9995 53.5406 71.03 53.57C72.23 54.75 73.37 55.21 74.03 54.99C74.4111 54.863 75.1409 54.3972 75.6464 53.5892M76.6079 47.9744C76.5859 49.7617 76.3928 51.0455 76.12 52.4C76.0314 52.8429 75.8669 53.2295 75.6644 53.56C75.6585 53.5698 75.6524 53.5795 75.6464 53.5892M76.6079 47.9744C77.2076 46.8646 78.0488 45.4665 78.89 45.39H78.88C79.64 45.32 79.83 46.77 79.85 47.78C79.88 49.5 79.74 51.58 79.46 52.53C79.25 53.23 78.7 53.52 77.93 53.63C77.1785 53.7333 76.3123 53.7308 75.6464 53.5892M38.2093 58.9316C38.6622 58.3875 39.36 57.9025 39.83 57.79C40.54 57.61 41.39 58.23 42.27 59.16C42.63 59.55 42.66 60.25 42.66 60.86C42.66 61.8 42.65 63.42 42.22 64.42C41.66 65.73 40.54 67.41 39.59 67.34C38.99 67.29 38.37 66.32 38.05 65.18C37.909 64.6765 37.812 64.0389 37.7517 63.3678M38.2093 58.9316C37.978 59.2096 37.8106 59.5029 37.77 59.77C37.6571 60.5805 37.6324 62.0397 37.7517 63.3678M38.2093 58.9316C37.7007 58.3259 36.8577 57.5188 35.81 57.32C34.68 57.11 34.17 57.3 34 57.78C33.74 58.51 33.77 62.47 34.24 64.05C34.49 64.87 34.84 65.84 35.25 66.01C35.9075 66.2824 37.3323 64.3494 37.7517 63.3678M72.0367 59.2662C71.6325 58.5938 70.6915 57.911 70.16 57.78C69.47 57.61 68.72 58.52 67.86 59.45C67.5 59.84 67.27 59.75 67.37 60.36C67.47 60.96 67.4 63.36 67.86 64.34C68.32 65.32 69.7 67.45 70.39 67.33C71.08 67.22 71.08 66.93 71.71 65.26C71.9763 64.5651 72.111 63.6503 72.1776 62.7613M72.0367 59.2662C72.1572 59.4667 72.23 59.6662 72.23 59.85C72.23 60.3171 72.2709 61.5138 72.1776 62.7613M72.0367 59.2662C72.5825 58.5067 73.4789 57.3687 74.19 57.33C75.11 57.27 75.63 57.33 75.97 58.02C76.32 58.71 76.03 63.26 75.74 64.06C75.45 64.87 75.16 66.07 74.76 65.9C74.36 65.73 72.59 63.2 72.24 62.85C72.2187 62.8287 72.1979 62.7988 72.1776 62.7613M58.32 59.17C60.43 59.17 61.53 59.39 61.53 61C61.53 62.61 61.35 64.97 61.23 65.66C61.11 66.35 60.09 68.08 58.32 68.08C56.55 68.08 55.53 66.35 55.41 65.66C55.29 64.97 55.11 62.61 55.11 61C55.11 59.39 56.22 59.17 58.32 59.17ZM62.97 58.76H66.6C67 58.76 67.41 59.68 67.41 60.89V64.69C67.41 65.15 66.95 67.57 64.88 67.68C62.81 67.8 61.95 65.26 61.83 64.28C61.71 63.3 61.83 61 61.83 60.25C61.83 59.5 62.17 58.75 62.98 58.75L62.97 58.76ZM55.1 60.97C55.08 59.98 54.88 59.33 54.04 59.26C53.27 59.2 52.52 59.17 51.81 59.17C51.1 59.17 50.35 59.2 49.58 59.26C48.74 59.33 48.54 59.98 48.52 60.97C48.48 62.43 48.48 64.39 48.82 65.69C49.14 66.91 50.35 68.09 51.81 68.09C53.27 68.09 54.48 66.91 54.8 65.69C55.14 64.4 55.14 62.43 55.1 60.97ZM47.33 58.98C46.33 58.86 44.81 58.77 43.99 58.76C43.12 58.76 42.69 59.05 42.63 60.16C42.55 61.58 42.53 63.51 42.65 64.68C42.72 65.38 43.11 67.56 45.2 67.67C47.29 67.79 48.16 65.25 48.27 64.27C48.39 63.29 48.42 61.19 48.42 60.45C48.42 59.71 48.28 59.08 47.33 58.97V58.98Z" stroke="currentColor" stroke-width="1.5" stroke-linecap="round" stroke-linejoin="round" fill="none" />
<path d="M85.87 53.4799C85.87 62.7099 72.08 71.0799 55.08 71.0799C38.08 71.0799 24.29 62.7199 24.29 53.4799C24.29 44.2399 38.08 39.3999 55.08 39.3999C72.08 39.3999 85.87 44.2399 85.87 53.4799Z" stroke="currentColor" stroke-width="1.5" stroke-miterlimit="10" fill="none" />
<path d="M89.94 90.91C66.56 94.78 43.17 94.78 19.79 90.91C16.91 90.42 15.2 87.66 15.84 84.82C20.11 65.11 20.11 45.4 15.83 25.69C15.2 22.85 16.91 20.09 19.79 19.6C43.17 15.73 66.55 15.73 89.94 19.6C92.82 20.09 94.53 22.85 93.89 25.69C89.61 45.4 89.61 65.11 93.89 84.82C94.52 87.66 92.81 90.43 89.94 90.91Z" stroke="currentColor" stroke-width="1.5" stroke-miterlimit="10" fill="none" />
<path d="M19.01 27.0901C19.01 27.0901 25.17 49.9601 19.01 84.2801" stroke="currentColor" stroke-width="1.5" stroke-miterlimit="10" stroke-linecap="round" fill="none" />
<path d="M25.89 21.23C25.89 21.23 48.76 15.61 83.08 21.23" stroke="currentColor" stroke-width="1.5" stroke-miterlimit="10" stroke-linecap="round" fill="none" />
</svg>