<?xml version='1.0' encoding='utf-8'?>
<svg xmlns="http://www.w3.org/2000/svg" version="1.1" id="Layer_1" x="0px" y="0px" viewBox="0 0 110 110" style="enable-background:new 0 0 110 110;fill:none;stroke:currentColor;stroke-width:1.5" xml:space="preserve">
<path style="fill:none;stroke:currentColor;stroke-width:1.5;stroke-linecap:round;stroke-linejoin:round" d="M52.93,94.914  c1.578,0.817,2.648,0.48,4.66-0.475 M52.93,94.914l-15.81-7.16 M52.93,94.914c1.017,0.456,1.8-0.323,1.8-1.723 M56.604,46.287  l16.032-7.383 M56.604,46.287c-1.038,0.456-1.874,1.973-1.874,3.373 M56.604,46.287c-1.038,0.477-2.743,0.424-3.781-0.053   M72.637,38.904v8.136c0.201,0.785,0.847,1.124,1.62,0.753c1.483-0.711,1.535-3.352,4.172-4.54c2.192-0.987,3.96,0.626,3.96,3.596  c0,2.97-1.768,6.174-3.96,7.15c-2.404,1.082-2.647-1.199-4.172-0.467c-0.561,0.276-1.281,1.241-1.62,1.973v7.871l-6.258,2.811  c-0.254-0.361-0.455-0.849-0.466-1.337c-0.042-2.058,1.726-3.182,1.726-6.439c0-2.97-1.768-4.572-3.96-3.596  c-2.192,0.976-3.96,4.19-3.96,7.15c0,3.575,1.927,2.8,1.959,4.784c0.011,0.594-0.138,1.199-0.381,1.718l-6.565,2.949 M72.637,38.904  l15.944-7.281c1.027-0.467,1.962,0.565,1.962,1.965 M72.637,38.904l16.287-7.437c1.038-0.467,1.038-1.241,0-1.719 M72.637,38.904  l-5.782-2.748c-0.858-0.202-1.98-0.117-2.732,0.244c-1.451,0.7,0.424,1.612-2.234,2.822c-2.203,1.008-5.782,1.008-7.984,0  c-2.203-1.008-2.203-2.641,0-3.649c2.425-1.103,4.448-0.403,5.951-1.125c0.551-0.265,0.805-0.817,0.709-1.167l-5.845-2.673   M54.73,71.417V49.66 M54.73,71.417v21.774 M54.73,71.417l-6.438-2.896c-0.244,0.297-0.381,0.764-0.371,1.368  c0.042,2.026,1.938,2.97,1.938,6.545c0,2.97-1.747,4.583-3.907,3.607c-2.16-0.976-3.908-4.169-3.908-7.139  c0-3.267,1.747-2.811,1.705-4.901c-0.011-0.499-0.201-1.167-0.455-1.75l-6.174-2.79 M54.73,49.66c0-1.4-0.889-2.97-1.906-3.426   M72.637,87.679l-16.032,7.203c-1.027,0.467-1.874-0.291-1.874-1.691 M72.637,87.679l16.032-7.192  c1.038-0.456,1.874-1.973,1.874-3.373V55.346 M72.637,87.679v-7.945c-0.201-0.785-0.847-1.125-1.62-0.753  c-1.483,0.711-1.535,3.352-4.172,4.54c-2.192,0.987-3.96-0.626-3.96-3.596c0-2.97,1.768-6.174,3.96-7.15  c2.404-1.082,2.647,1.199,4.172,0.467c0.561-0.276,1.281-1.241,1.62-1.973v-7.871l6.258-2.811c0.254,0.361,0.455,0.849,0.466,1.337  c0.042,2.058-1.726,3.182-1.726,6.439c0,2.97,1.768,4.572,3.96,3.596c2.192-0.987,3.961-4.19,3.961-7.15  c0-3.575-1.927-2.801-1.959-4.784c-0.01-0.594,0.138-1.199,0.381-1.718l6.565-2.96 M90.544,55.346V33.589 M90.544,33.589  c0-1.803-0.116-3.087-1.62-3.84 M37.119,39.169l-15.78-7.31c-1.017-0.456-1.873,0.457-1.873,1.857 M37.119,39.169v7.945  c0.201,0.965,0.837,1.888,1.599,2.207c1.461,0.605,1.514-1.973,4.119-0.796c2.16,0.976,3.908,4.169,3.908,7.139  c0,2.97-1.747,4.583-3.908,3.607c-2.372-1.071-2.616-3.575-4.119-4.201c-0.551-0.233-1.271,0.085-1.599,0.52v7.871 M37.119,39.169  l15.704,7.065 M37.119,39.169l6.163-3.342c-0.053-0.255-0.307-0.499-0.762-0.7c-1.525-0.658-3.526,0.191-6.184-1.018  c-2.203-1.008-2.203-2.641,0-3.649c2.203-1.008,5.782-1.008,7.985,0c2.425,1.103,0.889,2.026,2.467,2.716  c0.371,0.159,1.006,0.265,1.61,0.308l6.322-2.875 M37.119,39.169l-16.625-7.701c-1.038-0.477-1.038-1.252,0-1.719 M37.119,63.461  l-6.174-2.79c-0.254-0.583-0.445-1.252-0.455-1.75c-0.042-2.09,1.705-1.634,1.705-4.901c0-2.97-1.747-6.163-3.907-7.139  c-2.16-0.976-3.908,0.636-3.908,3.607c0,3.575,1.896,4.519,1.938,6.545c0.01,0.605-0.127,1.071-0.371,1.368l-6.491-2.928   M37.119,63.461l0,7.871c-0.328,0.435-1.048,0.753-1.599,0.52c-1.504-0.626-1.747-3.129-4.119-4.201  c-2.16-0.976-3.908,0.637-3.908,3.607c0,2.97,1.747,6.163,3.908,7.139c2.605,1.177,2.658-1.4,4.119-0.796  c0.763,0.318,1.398,1.241,1.599,2.206v7.945 M19.456,55.473l0.01-21.757 M19.456,55.473v21.757c0,1.4,0.826,2.917,1.843,3.373  l15.821,7.15 M19.467,33.716c0-1.014-0.049-2.261,0.069-2.859c0.142-0.722,0.489-0.72,0.959-1.108 M20.494,29.749l16.16-7.383   M36.654,22.366l5.909,2.694c0.858,0.201,1.98,0.117,2.732-0.244c1.451-0.7-0.424-1.612,2.234-2.822  c2.203-1.008,5.782-1.008,7.985,0c2.203,1.008,2.203,2.641,0,3.649c-2.425,1.103-4.448,0.403-5.951,1.125  c-0.551,0.265-0.805,0.817-0.71,1.167l5.867,2.673 M36.654,22.366l16.16-7.383c1.038-0.477,2.732-0.477,3.77,0l16.181,7.383   M54.719,30.608l6.301-2.875c0.604,0.042,1.239,0.149,1.61,0.308c1.578,0.69,0.042,1.612,2.467,2.716  c2.203,1.008,5.782,1.008,7.984,0c2.203-1.008,2.203-2.641,0-3.649c-2.658-1.209-4.659-0.361-6.184-1.018  c-0.455-0.202-0.71-0.446-0.762-0.7l6.629-3.023 M72.764,22.366l16.16,7.383" />
</svg>