<?xml version='1.0' encoding='utf-8'?>
<svg xmlns="http://www.w3.org/2000/svg" width="110" height="110" viewBox="0 0 110 110" fill="none" stroke="currentColor" stroke-width="1.5">
<path d="M71.5301 71.7419V95.0462M71.5301 95.0462H51.5062M71.5301 95.0462C74.288 95.0462 76.5387 97.2929 76.5387 100.069H46.4976C46.4976 97.3035 48.7377 95.0462 51.5062 95.0462M51.5062 95.0462V79.9869M51.5062 79.9869L11.4584 39.8217M51.5062 79.9869H66.5215M68.4975 59.6605V51.1824C68.4975 47.1341 71.7731 43.8382 75.8202 43.8382H90.4551C94.4916 43.8382 97.7778 47.1235 97.7778 51.1824V68.3082M60.3726 18.7061C63.2268 21.5687 63.2343 26.2222 60.3726 29.0923L59.334 30.1339L48.9856 19.7552L50.0242 18.7136C52.8784 15.851 57.5109 15.836 60.3726 18.7061ZM60.3726 18.7061L65.6445 13.1156C67.4831 11.1656 70.0085 10.0317 72.6713 9.93628C78.3985 9.74553 83.1429 14.3449 83.1429 20.0888V43.8276M46.6138 70.2582L16.4459 39.525L19.2883 36.6742C22.4266 33.5267 27.5092 33.5267 30.6475 36.6742L53.0806 59.6605H74.6156C75.947 59.6605 77.215 60.1904 78.1554 61.1336L95.4954 78.5244C97.8518 80.8877 97.8518 84.7134 95.4954 87.0661C93.139 89.4294 89.3244 89.4294 86.9786 87.0661L71.6992 71.7419H50.1854C48.8434 71.7419 47.5648 71.212 46.6138 70.2582Z" stroke="currentColor" stroke-width="1.5" stroke-miterlimit="10" stroke-linecap="round" fill="none" />
</svg>