<?xml version='1.0' encoding='utf-8'?>
<svg xmlns="http://www.w3.org/2000/svg" width="110" height="110" viewBox="0 0 110 110" fill="none" stroke="currentColor" stroke-width="1.5">
<path d="M9.78552 83.4535L15.8007 77.9164C20.1213 73.9485 22.6464 68.4786 23.2075 62.65C23.9706 54.6918 29.4247 50.1298 29.4247 50.1298M23.3983 98.2154L29.4135 92.6783C33.7341 88.7104 39.3902 86.648 45.2595 86.5695C53.2611 86.4574 58.2551 81.4135 58.2551 81.4135M58.2551 81.4135L61.6779 78.2526C62.5757 77.4344 62.643 76.0333 61.8126 75.1366L51.6226 64.0735L53.5641 62.2913C54.0354 61.8654 54.2038 61.2041 54.0018 60.61C53.7436 59.8815 53.306 58.9624 52.5429 58.0769C51.6451 57.0344 50.6238 56.418 49.827 56.0593C49.2435 55.7903 48.5589 55.8911 48.0763 56.3283L46.1349 58.1105L35.9898 47.1035C35.1706 46.2068 33.7678 46.1395 32.87 46.969L29.4359 50.1298L58.2551 81.4135ZM45.6944 33.2762L48.7272 30.4809C51.3645 28.2728 54.6863 26.9725 58.0867 26.5578C60.9148 26.2103 63.8214 26.7259 66.5933 26.3112C69.4213 25.8853 72.0923 24.8205 74.2133 22.8589L86.2549 11.7847M101.214 27.9925L89.1728 39.0668C87.0517 41.0171 85.7611 43.5839 85.099 46.3637C84.4481 49.0874 84.7175 52.0353 84.1451 54.8151C83.4718 58.0769 81.968 61.1929 79.6674 63.6028L76.425 66.582M69.8141 45.736C68.6694 46.7896 66.8739 46.7224 65.819 45.5679C64.764 44.4246 64.8314 42.6312 65.9873 41.5776C67.132 40.5239 68.9276 40.5912 69.9825 41.7457C71.0374 42.889 70.97 44.6824 69.8141 45.736ZM75.8293 65.0935C76.9628 66.3153 76.4241 68.2768 74.853 68.8261C72.8891 69.5098 70.7792 69.79 68.7031 69.6107C66.1893 69.3529 63.6306 68.1199 61.835 66.2032L61.3188 65.654L60.7464 65.0263C59.31 63.4683 58.3561 61.4731 57.9857 59.2538C57.7052 57.6061 57.043 56.149 55.9881 54.916C55.9432 54.8599 55.8983 54.8151 55.8759 54.7815L55.7973 54.6918C55.7973 54.6918 55.7412 54.6246 55.7076 54.6021C54.5517 53.4364 53.1376 52.6406 51.5216 52.2259C49.3445 51.6767 47.4254 50.5558 45.989 48.9978L45.4166 48.3813L44.9228 47.8433C43.1497 45.8817 42.1509 43.427 42.0948 40.905V40.7257C42.0948 38.6409 42.5325 36.5672 43.3742 34.6618C44.0475 33.1374 46.0563 32.7787 47.1785 34.0116L49.7485 36.8026C51 38 51.9593 38.8426 53.3172 39.4815C55.7188 40.6024 58.6142 40.5015 61.027 38.9883C61.4422 38.7305 61.8238 38.4167 62.1941 38.0804L65.1568 35.3567C67.2442 33.44 70.4987 33.5745 72.4177 35.6593L76.2782 39.8514C78.1973 41.9362 78.0626 45.1868 75.9752 47.1035L73.0237 49.816C72.6646 50.1523 72.3167 50.5109 72.0137 50.9032C70.2967 53.1786 69.96 56.0257 70.8802 58.514C71.4077 59.9151 72.2494 61.2041 73.2594 62.3138L75.8293 65.0935Z" stroke="currentColor" stroke-width="1.5" stroke-linecap="round" stroke-linejoin="round" fill="none" />
</svg>