<?xml version='1.0' encoding='utf-8'?>
<svg xmlns="http://www.w3.org/2000/svg" id="Layer_1" data-name="Layer 1" width="110" height="110" viewBox="0 0 110 110">
  <g>
    <path d="M63.6218,79.1172h35.2714c.3286,0,.5949.2663.5949.5948v1.8134c-.0001,1.7135-1.3891,3.1026-3.1026,3.1026H16.514c-1.7137,0-3.103-1.3891-3.1033-3.1029l-.0004-1.8128c-.0001-.3286.2663-.5949.5949-.5949h36.705" style="fill:none;stroke:currentColor;stroke-linecap:round;stroke-linejoin:round;stroke-width:1.5" />
    <line x1="55.1448" y1="32.0438" x2="57.7533" y2="32.0438" style="fill:none;stroke:currentColor;stroke-linecap:round;stroke-linejoin:round;stroke-width:1.5" />
    <line x1="21.6702" y1="36.1304" x2="91.2279" y2="36.1304" style="fill:none;stroke:currentColor;stroke-linecap:round;stroke-linejoin:round;stroke-width:1.5" />
    <path d="M13.845,79.1475l7.8253-8.7252v-36.3437c0-3.4814,2.8223-6.3037,6.3037-6.3037h56.9501c3.4814,0,6.3037,2.8223,6.3037,6.3037v36.3437l7.8253,8.7252" style="fill:none;stroke:currentColor;stroke-linecap:round;stroke-linejoin:round;stroke-width:1.5" />
    <line x1="80.3595" y1="70.4527" x2="91.2279" y2="70.4527" style="fill:none;stroke:currentColor;stroke-linecap:round;stroke-linejoin:round;stroke-width:1.5" />
    <line x1="21.6702" y1="70.4527" x2="32.5384" y2="70.4527" style="fill:none;stroke:currentColor;stroke-linecap:round;stroke-linejoin:round;stroke-width:1.5" />
    <line x1="36.886" y1="75.061" x2="38.6249" y2="75.061" style="fill:none;stroke:currentColor;stroke-linecap:round;stroke-linejoin:round;stroke-width:1.5" />
    <line x1="24.7134" y1="75.061" x2="26.4523" y2="75.061" style="fill:none;stroke:currentColor;stroke-linecap:round;stroke-linejoin:round;stroke-width:1.5" />
    <line x1="30.7997" y1="75.061" x2="32.5386" y2="75.061" style="fill:none;stroke:currentColor;stroke-linecap:round;stroke-linejoin:round;stroke-width:1.5" />
    <line x1="80.3595" y1="75.061" x2="82.0985" y2="75.061" style="fill:none;stroke:currentColor;stroke-linecap:round;stroke-linejoin:round;stroke-width:1.5" />
    <line x1="86.4458" y1="75.061" x2="88.1848" y2="75.061" style="fill:none;stroke:currentColor;stroke-linecap:round;stroke-linejoin:round;stroke-width:1.5" />
  </g>
  <g>
    <line x1="55.2068" y1="43.7229" x2="55.2068" y2="64.5039" style="fill:none;stroke:currentColor;stroke-linecap:round;stroke-linejoin:round;stroke-width:1.5" />
    <path d="M55.2068,64.5039s-7.4046-3.5341-16.5965,0v-20.7811c8.5604-5.1978,16.5965,0,16.5965,0" style="fill:none;stroke:currentColor;stroke-linecap:round;stroke-linejoin:round;stroke-width:1.5" />
    <path d="M55.2068,67.751c-.6677,0-1.2488-.3703-1.5494-.9167l-17.6369-.0019v-21.4139h2.5898" style="fill:none;stroke:currentColor;stroke-linecap:round;stroke-linejoin:round;stroke-width:1.5" />
    <line x1="51.291" y1="48.1475" x2="42.4872" y2="48.1475" style="fill:none;stroke:currentColor;stroke-linecap:round;stroke-linejoin:round;stroke-width:1.5" />
    <line x1="51.291" y1="52.9584" x2="42.4872" y2="52.9584" style="fill:none;stroke:currentColor;stroke-linecap:round;stroke-linejoin:round;stroke-width:1.5" />
    <line x1="51.304" y1="57.7692" x2="42.5001" y2="57.7692" style="fill:none;stroke:currentColor;stroke-linecap:round;stroke-linejoin:round;stroke-width:1.5" />
    <line x1="55.2068" y1="43.7229" x2="55.2068" y2="64.5039" style="fill:none;stroke:currentColor;stroke-linecap:round;stroke-linejoin:round;stroke-width:1.5" />
    <path d="M71.8033,60.726v-17.0031c-8.5604-5.1978-16.5965,0-16.5965,0" style="fill:none;stroke:currentColor;stroke-linecap:round;stroke-linejoin:round;stroke-width:1.5" />
    <path d="M55.2068,64.5039s3.7412-2.0192,9.7016-1.5222" style="fill:none;stroke:currentColor;stroke-linecap:round;stroke-linejoin:round;stroke-width:1.5" />
    <polyline points="74.3931 61.4589 74.3931 45.4186 71.8033 45.4186" style="fill:none;stroke:currentColor;stroke-linecap:round;stroke-linejoin:round;stroke-width:1.5" />
    <path d="M55.2068,67.751c.6677,0,1.2488-.3703,1.5494-.9167l8.3893-.0009" style="fill:none;stroke:currentColor;stroke-linecap:round;stroke-linejoin:round;stroke-width:1.5" />
    <line x1="59.1226" y1="48.1475" x2="67.9265" y2="48.1475" style="fill:none;stroke:currentColor;stroke-linecap:round;stroke-linejoin:round;stroke-width:1.5" />
    <line x1="59.1226" y1="52.9584" x2="67.9265" y2="52.9584" style="fill:none;stroke:currentColor;stroke-linecap:round;stroke-linejoin:round;stroke-width:1.5" />
    <line x1="59.1096" y1="57.7692" x2="63.5245" y2="57.7692" style="fill:none;stroke:currentColor;stroke-linecap:round;stroke-linejoin:round;stroke-width:1.5" />
    <path d="M76.7206,65.0325l-8.5599-3.464c-.5086-.2058-1.0604.1808-1.0406.729l.3274,9.1031c.0067.1868.2519.2479.3417.0839.3603-.6575,1.1909-1.7204,2.1891-2.018.6204-.1849,1.2854.1237,1.6527.6569l2.1082,3.0605c.4548.6602,1.2356,1.0683,2.0018.6121.0264-.0157.0519-.0319.0765-.0485.7576-.5118.6903-1.4511.2141-2.1425l-2.0878-3.031c-.3747-.544-.4121-1.2882-.0061-1.8094.228-.2927.3557-.4222.6886-.6166" style="fill:none;stroke:currentColor;stroke-linecap:round;stroke-linejoin:round;stroke-width:1.5" />
  </g>
</svg>