<?xml version='1.0' encoding='utf-8'?>
<svg xmlns="http://www.w3.org/2000/svg" id="Layer_1" data-name="Layer 1" width="110" height="110" viewBox="0 0 110 110">
  <path d="M39.9322,68.4616c11.644-22.0463,28.9531-37.208,53.6044-42.4672.1449-.031.2883.0523.3335.1934.0452.1412-.0231.2923-.1592.3512-24.8501,10.7901-40.0311,37.2996-49.5695,61.3592-.0335.0847-.0977.1435-.185.1696-3.0848.9196-6.167,1.8499-9.2502,2.775-.0794.0238-.1567.0144-.228-.0276-.0715-.042-.1172-.1048-.1351-.1857-2.567-11.6187-7.5827-24.6884-18.3666-31.0353-.087-.0512-.1378-.1363-.1414-.2374-.0036-.1009.0409-.1895.1241-.2467,10.645-7.3373,18.5144-.1113,23.9729,9.3516" style="fill:none;fill-rule:evenodd;stroke:currentColor;stroke-miterlimit:10;stroke-width:1.5" />
</svg>