<?xml version='1.0' encoding='utf-8'?>
<svg xmlns="http://www.w3.org/2000/svg" width="110" height="110" viewBox="0 0 110 110" fill="none" stroke="currentColor" stroke-width="1.5">
<path d="M97 67.7059L86.1111 45.4706V40.7059H23.8889V45.4706L13 67.7059V75.6471H97V67.7059ZM97 67.7059H22.3333M76.7778 51.8235H73.6667M70.5556 51.8235H67.4444M78.3333 56.5882H75.2222M72.1111 56.5882H69M61.2222 47.0588L64.3333 61.3529M90.7778 75.6471V82H78.3333V75.6471M19.2222 75.6471V82H31.6667V75.6471M76.7778 34.3529V40.7059M33.2222 34.3529V40.7059M86.1111 31.1765C86.1111 32.9235 84.7111 34.3529 83 34.3529H27C25.2733 34.3529 23.8889 32.9235 23.8889 31.1765V28H86.1111V31.1765ZM30.0644 47.0588L23.0644 61.3529H86.9356L79.9356 47.0588H30.0644Z" stroke="currentColor" stroke-width="1.5" stroke-linecap="round" stroke-linejoin="round" fill="none" />
</svg>