<?xml version='1.0' encoding='utf-8'?>
<svg xmlns="http://www.w3.org/2000/svg" width="110" height="110" viewBox="0 0 110 110" fill="none" stroke="currentColor" stroke-width="1.5">
<path d="M27.8134 68.9007C27.9679 68.7948 28.1321 68.7082 28.306 68.6312L33.1262 66.4948L34.5751 64.647L56.802 30.1363C60.917 23.8328 67.9395 20.0218 75.4837 20.0026L91.1323 19.6465L91.3062 19.8871C93.0933 22.4181 92.9967 25.8153 91.0647 28.2405L76.3627 28.8371C72.6148 28.9045 69.1373 30.8196 67.0895 33.957L43.2688 70.3924L41.8488 72.5673V76.8884" stroke="currentColor" stroke-width="1.5" stroke-linecap="round" stroke-linejoin="round" fill="none" />
<path d="M26.7701 69.9882C26.2098 70.9217 25.3887 72.2787 25.1859 72.5963C24.1716 74.1553 24.3938 76.1089 25.1859 77.9855C26.7121 81.6041 30.2862 83.9715 34.2176 84.2217C36.3814 84.3564 38.4196 83.9137 39.4821 82.2873C39.685 81.9698 40.6027 80.6802 41.2305 79.7852M26.7701 69.9882C27.0309 69.5455 27.3883 69.2568 27.8133 68.9777M26.7701 69.9882L24.6353 70.6138C20.443 71.7494 16.724 74.1745 14 77.5525M26.7701 69.9882C25.7172 71.5954 26.1229 73.7703 27.0115 75.8106C28.5957 79.458 32.2567 81.9313 36.2462 81.8639C38.2747 81.835 40.2163 81.3346 41.2402 79.7756M41.8488 76.8788V77.8219C41.8488 78.5245 41.6363 79.2078 41.2305 79.7756L41.8198 82.0275C42.95 86.0887 42.2931 90.4386 40.0327 93.9898M43.5199 76.9847C42.4766 76.9847 40.9408 76.465 39.8879 76.1955C36.507 75.2332 27.5911 70.9506 26.8087 66.8509C26.5286 65.3881 27.1564 64.0696 28.5667 63.1554C32.759 60.4319 37.1638 53.1563 41.8198 45.4574C49.1708 34.3323 57.0917 20.1951 67.5338 18.0201C70.1322 17.4812 74.3825 17.3849 79.3089 17.2695C83.221 17.1829 87.7031 17 91.567 17C92.9483 17 94.2137 18.0682 94.8126 20.5319C95.6433 23.9002 95.4984 29.5975 92.5716 31.118C91.992 31.4163 90.4271 31.4933 84.5154 31.6762C80.8061 31.7917 77.6667 31.6569 74.6626 31.9264C70.7987 31.9264 61.3516 47.8055 56.6377 55.8991C53.6142 61.0863 51.0061 65.5613 49.1708 68.0539C48.0503 69.8824 47.8281 70.633 47.461 71.8937C47.2195 72.731 46.9104 73.7704 46.2439 75.4256C45.9541 76.1378 45.249 76.9847 43.5295 76.9847H43.5199Z" stroke="currentColor" stroke-width="1.5" stroke-linecap="square" stroke-linejoin="round" fill="none" />
</svg>