<?xml version="1.0" encoding="UTF-8"?><svg id="Layer_1" xmlns="http://www.w3.org/2000/svg" width="110" height="110" viewBox="0 0 110 110"><polyline points="38.55 19.21 94.1 19.21 94.1 50.59 42.24 50.59" style="fill:none; stroke:currentColor; stroke-miterlimit:10; stroke-width:1.5px;"/><path d="M29.88,29.85c-2.93,0-5.32-2.39-5.32-5.32s2.39-5.32,5.32-5.32,5.32,2.39,5.32,5.32-2.39,5.32-5.32,5.32Z" style="fill:none; stroke:currentColor; stroke-miterlimit:10; stroke-width:1.5px;"/><path d="M38.75,39.44l-3.2,49.8c-.06.86-.79,1.56-1.63,1.56h-8.08c-.83,0-1.57-.7-1.63-1.56l-1.61-28.7c-.09,0-.18-.02-.28-.03-2.11-.31-5.05-2.01-5.22-3.95l-1.2-16.09c0-.13,0-.23,0-.28,0-3.21,2.52-5.87,5.63-5.95h36.83c0,2.87-2.32,5.19-5.19,5.19h-14.42" style="fill:none; stroke:currentColor; stroke-miterlimit:10; stroke-width:1.5px;"/><path d="M29.88,29.85c-2.93,0-5.32-2.39-5.32-5.32s2.39-5.32,5.32-5.32,5.32,2.39,5.32,5.32-2.39,5.32-5.32,5.32Z" style="fill:none; stroke:currentColor; stroke-miterlimit:10; stroke-width:1.5px;"/><path d="M38.75,39.44l-3.2,49.8c-.06.86-.79,1.56-1.63,1.56h-8.08c-.83,0-1.57-.7-1.63-1.56l-1.61-28.7c-.09,0-.18-.02-.28-.03-2.11-.31-5.05-2.01-5.22-3.95l-1.2-16.09c0-.13,0-.23,0-.28,0-3.21,2.52-5.87,5.63-5.95h36.83c0,2.87-2.32,5.19-5.19,5.19h-14.42" style="fill:none; stroke:currentColor; stroke-linecap:round; stroke-miterlimit:10; stroke-width:1.5px;"/><line x1="29.88" y1="59.01" x2="29.88" y2="90.11" style="fill:none; stroke:currentColor; stroke-miterlimit:10; stroke-width:1.5px;"/><line x1="22.6" y1="60.54" x2="21.25" y2="42.36" style="fill:none; stroke:currentColor; stroke-miterlimit:10; stroke-width:1.5px;"/><path d="M55.87,66.47c-2.85,0-5.17-2.32-5.17-5.17s2.32-5.17,5.17-5.17,5.17,2.32,5.17,5.17-2.32,5.17-5.17,5.17Z" style="fill:none; stroke:currentColor; stroke-miterlimit:10; stroke-width:1.5px;"/><path d="M68.61,90.79v-14.12c0-3.28-2.66-5.94-5.94-5.94h-13.62c-3.28,0-5.94,2.66-5.94,5.94v14.12" style="fill:none; stroke:currentColor; stroke-miterlimit:10; stroke-width:1.5px;"/><line x1="48.47" y1="80.38" x2="48.47" y2="90.79" style="fill:none; stroke:currentColor; stroke-miterlimit:10; stroke-width:1.5px;"/><line x1="63.24" y1="80.38" x2="63.24" y2="90.79" style="fill:none; stroke:currentColor; stroke-miterlimit:10; stroke-width:1.5px;"/><line x1="48.47" y1="78.63" x2="48.47" y2="89.85" style="fill:none; stroke:currentColor; stroke-miterlimit:10; stroke-width:1.5px;"/><line x1="63.24" y1="78.63" x2="63.24" y2="89.85" style="fill:none; stroke:currentColor; stroke-miterlimit:10; stroke-width:1.5px;"/><path d="M81.37,66.47c-2.85,0-5.17-2.32-5.17-5.17s2.32-5.17,5.17-5.17,5.17,2.32,5.17,5.17-2.32,5.17-5.17,5.17Z" style="fill:none; stroke:currentColor; stroke-miterlimit:10; stroke-width:1.5px;"/><path d="M94.1,90.79v-14.12c0-3.28-2.66-5.94-5.94-5.94h-13.62c-3.28,0-5.94,2.66-5.94,5.94v14.12" style="fill:none; stroke:currentColor; stroke-miterlimit:10; stroke-width:1.5px;"/><line x1="73.96" y1="80.38" x2="73.96" y2="90.79" style="fill:none; stroke:currentColor; stroke-miterlimit:10; stroke-width:1.5px;"/><line x1="88.73" y1="80.38" x2="88.73" y2="90.79" style="fill:none; stroke:currentColor; stroke-miterlimit:10; stroke-width:1.5px;"/><line x1="73.96" y1="78.63" x2="73.96" y2="89.85" style="fill:none; stroke:currentColor; stroke-miterlimit:10; stroke-width:1.5px;"/><line x1="88.73" y1="78.63" x2="88.73" y2="89.85" style="fill:none; stroke:currentColor; stroke-miterlimit:10; stroke-width:1.5px;"/></svg>