<?xml version='1.0' encoding='utf-8'?>
<svg xmlns="http://www.w3.org/2000/svg" id="Layer_1" data-name="Layer 1" width="110" height="110" viewBox="0 0 110 110">
  <path d="M37.8938,50.3714c0,14.9838,7.3057,28.2287,18.5159,36.4757,11.2092-8.2469,18.5149-21.4918,18.5149-36.4757s-7.3057-28.2287-18.5149-36.4754c-11.2102,8.2466-18.5159,21.4915-18.5159,36.4754Z" style="fill:none;stroke:currentColor;stroke-linecap:round;stroke-linejoin:round;stroke-width:1.5" />
  <line x1="56.4092" y1="13.896" x2="56.4092" y2="99.3205" style="fill:none;stroke:currentColor;stroke-linecap:round;stroke-linejoin:round;stroke-width:1.5" />
  <g>
    <line x1="44.4262" y1="27.0677" x2="56.4092" y2="36.2533" style="fill:none;stroke:currentColor;stroke-linecap:round;stroke-linejoin:round;stroke-width:1.5" />
    <line x1="68.3921" y1="27.0677" x2="56.4092" y2="36.2533" style="fill:none;stroke:currentColor;stroke-linecap:round;stroke-linejoin:round;stroke-width:1.5" />
  </g>
  <g>
    <line x1="64.2413" y1="21.4463" x2="56.4005" y2="27.4566" style="fill:none;stroke:currentColor;stroke-linecap:round;stroke-linejoin:round;stroke-width:1.5" />
    <line x1="48.5599" y1="21.4463" x2="56.4005" y2="27.4566" style="fill:none;stroke:currentColor;stroke-linecap:round;stroke-linejoin:round;stroke-width:1.5" />
  </g>
  <g>
    <line x1="41.2209" y1="33.3136" x2="56.4092" y2="44.9564" style="fill:none;stroke:currentColor;stroke-linecap:round;stroke-linejoin:round;stroke-width:1.5" />
    <line x1="71.5975" y1="33.3136" x2="56.4092" y2="44.9564" style="fill:none;stroke:currentColor;stroke-linecap:round;stroke-linejoin:round;stroke-width:1.5" />
  </g>
  <g>
    <line x1="39.312" y1="39.8719" x2="56.4092" y2="52.978" style="fill:none;stroke:currentColor;stroke-linecap:round;stroke-linejoin:round;stroke-width:1.5" />
    <line x1="73.5064" y1="39.8719" x2="56.4092" y2="52.978" style="fill:none;stroke:currentColor;stroke-linecap:round;stroke-linejoin:round;stroke-width:1.5" />
  </g>
  <g>
    <line x1="74.6925" y1="47.5406" x2="56.4092" y2="61.261" style="fill:none;stroke:currentColor;stroke-linecap:round;stroke-linejoin:round;stroke-width:1.5" />
    <line x1="38.1259" y1="47.5406" x2="56.4092" y2="61.261" style="fill:none;stroke:currentColor;stroke-linecap:round;stroke-linejoin:round;stroke-width:1.5" />
  </g>
  <g>
    <line x1="38.3257" y1="56.6667" x2="56.4092" y2="70.5289" style="fill:none;stroke:currentColor;stroke-linecap:round;stroke-linejoin:round;stroke-width:1.5" />
    <line x1="74.4927" y1="56.6667" x2="56.4092" y2="70.5289" style="fill:none;stroke:currentColor;stroke-linecap:round;stroke-linejoin:round;stroke-width:1.5" />
  </g>
  <g>
    <line x1="72.0271" y1="66.2092" x2="56.4092" y2="78.1812" style="fill:none;stroke:currentColor;stroke-linecap:round;stroke-linejoin:round;stroke-width:1.5" />
    <line x1="40.7912" y1="66.2092" x2="56.4092" y2="78.1812" style="fill:none;stroke:currentColor;stroke-linecap:round;stroke-linejoin:round;stroke-width:1.5" />
  </g>
</svg>