<?xml version='1.0' encoding='utf-8'?>
<svg xmlns="http://www.w3.org/2000/svg" width="110" height="110" viewBox="0 0 110 110" fill="none" stroke="currentColor" stroke-width="1.5">
<path d="M44.9597 37.1468C44.7443 36.8928 44.4678 36.6639 44.1321 36.4574L42.7532 35.7232C43.2917 34.1289 44.1553 32.6686 45.3429 31.3427L46.6139 32.1372C47.5869 32.6587 48.4855 32.6919 49.3104 32.2449L51.3328 31.0817C52.1334 30.596 52.5518 29.8044 52.5885 28.7065L52.5427 27.1436C53.3596 26.9911 54.207 26.9139 55.0858 26.9139C55.9647 26.9139 56.8119 26.9911 57.6289 27.1436L57.5984 28.6759C57.6351 29.7791 58.0535 30.5763 58.8551 31.0654L60.8614 32.2306C61.6864 32.6786 62.5848 32.6426 63.5578 32.1228L64.8442 31.3258C66.0336 32.657 66.8971 34.122 67.4338 35.7233L66.055 36.4728C65.1187 37.0473 64.6385 37.7968 64.6143 38.7241V41.0544C64.6385 41.9925 65.1187 42.7527 66.055 43.3361L67.4338 44.0866C66.8962 45.6871 66.0336 47.153 64.8442 48.4832L63.5578 47.6726C62.5848 47.152 61.6862 47.117 60.8614 47.5648L58.8551 48.7452C58.0535 49.2281 57.6353 50.0207 57.5984 51.1194L57.6289 52.6508M81.3589 57.5223C83.1156 56.8402 84.7133 55.7773 86.1541 54.3366C88.8749 51.606 90.2328 48.3125 90.2294 44.4544C90.233 40.6072 88.8749 37.3236 86.1541 34.6037C83.9197 32.3668 81.3051 31.0429 78.3105 30.6362C78.5197 29.8894 78.6221 29.0985 78.6175 28.262C78.6247 25.9309 77.8078 23.939 76.1661 22.2864C74.5099 20.642 72.5136 19.8189 70.1762 19.8215C68.1915 19.8153 66.4554 20.4078 64.9673 21.597C64.2214 20.2909 63.277 19.0648 62.1334 17.9213C58.8328 14.6233 54.8499 12.9735 50.1841 12.9735C45.5236 12.9735 41.5453 14.6234 38.25 17.9213C34.952 21.2175 33.3022 25.1949 33.3018 29.8562C33.2988 30.0763 33.2988 30.296 33.3018 30.5142C29.7184 30.6579 26.6387 32.0223 24.0637 34.6039C21.3381 37.3237 19.9745 40.6074 19.9737 44.4546C19.9741 47.0291 20.5813 49.353 21.7963 51.4257M63.5883 61.6586L71.7075 53.571M71.7075 53.571L70.3592 52.2209L73.0099 46.968L78.2495 44.3316L80.946 47.0129L78.2952 52.2686L73.0557 54.9184L71.7075 53.571ZM50.7656 82.7836L37.6672 95.9277C36.9976 96.565 36.2467 97.0041 35.4155 97.2454C34.9047 97.3963 34.3631 97.4725 33.7916 97.4761C33.0754 97.4725 32.4061 97.3559 31.785 97.1232C31.1042 96.8675 30.4803 96.4679 29.9156 95.9277L29.334 95.3613C28.6343 94.6271 28.1748 93.7949 27.9552 92.8641C27.8456 92.427 27.7891 91.9674 27.7865 91.4852C27.7937 90.9081 27.8749 90.3615 28.0315 89.8462C28.2681 89.0249 28.702 88.2834 29.334 87.6255L42.4776 74.4957M27.7256 52.3592C27.516 52.5719 27.383 52.8331 27.327 53.1411C27.2681 53.4508 27.2381 53.6753 27.2345 53.8142C27.2395 57.0223 28.379 59.7601 30.6508 62.0267C32.8298 64.2052 35.4442 65.339 38.4948 65.4261C38.5548 65.4287 38.6169 65.4287 38.6788 65.4261C38.7201 65.4269 38.7605 65.4269 38.8009 65.4261C41.5574 65.5337 43.9273 66.4996 45.9092 68.3227L56.9699 79.3673C58.7347 81.2936 59.6898 83.5871 59.8352 86.2467C59.8407 86.3222 59.8459 86.3984 59.8505 86.4764C59.8496 86.5222 59.8496 86.5671 59.8505 86.6129C59.8487 86.6748 59.8487 86.7376 59.8505 86.7969C59.9323 89.8416 61.0615 92.452 63.2354 94.6259C65.5074 96.8943 68.2497 98.0263 71.4632 98.0263C71.6015 98.0281 71.8258 98.0021 72.1365 97.9499C72.4444 97.8925 72.7048 97.7607 72.9184 97.5523L73.3465 97.1232L66.9895 90.7662L69.1492 84.1784L75.7522 82.0025L82.1102 88.3597L82.5383 87.9154C82.7483 87.7016 82.8812 87.4414 82.9369 87.1353C82.9953 86.8283 83.0257 86.6093 83.0294 86.4764C83.0294 83.2683 81.8956 80.5305 79.6282 78.2641C77.6516 76.2911 75.3177 75.1735 72.6266 74.9105C72.3457 74.8881 72.0593 74.8718 71.7694 74.8629C71.7137 74.8619 71.6581 74.8619 71.6007 74.8629C71.5539 74.8575 71.5082 74.852 71.4634 74.8476C68.7068 74.7444 66.3369 73.7848 64.3541 71.9688L53.2934 60.9081C51.4764 58.9297 50.5169 56.5663 50.4137 53.8141C50.4093 53.7691 50.4047 53.7234 50.3984 53.6768C50.3994 53.6157 50.3994 53.5538 50.3984 53.4936C50.3159 50.4426 49.1875 47.8278 47.0125 45.6491C44.746 43.3871 42.009 42.257 38.801 42.2632C38.6618 42.256 38.4375 42.2767 38.1269 42.3251C37.8199 42.3816 37.5596 42.5137 37.346 42.7237L36.9016 43.1671L43.2596 49.5251L41.099 56.1129L34.5117 58.2727L28.1694 51.93L27.7256 52.3592ZM52.1749 42.8317C51.3689 42.0237 50.9649 41.0489 50.9649 39.9045C50.9649 38.7609 51.3689 37.786 52.1749 36.9782C52.9828 36.1713 53.9576 35.7682 55.1011 35.7682C56.2446 35.7682 57.2204 36.1713 58.0273 36.9782C58.8334 37.7861 59.2373 38.7609 59.2373 39.9045C59.2373 41.0491 58.8334 42.0237 58.0273 42.8317C57.2204 43.6378 56.2446 44.0408 55.1011 44.0408C53.9576 44.0408 52.9827 43.6379 52.1749 42.8317Z" stroke="currentColor" stroke-width="1.5" stroke-linecap="round" stroke-linejoin="round" fill="none" />
</svg>