<?xml version='1.0' encoding='utf-8'?>
<svg xmlns="http://www.w3.org/2000/svg" id="Layer_1" data-name="Layer 1" width="110" height="110" viewBox="0 0 110 110">
  <path d="M96.5799,35.2208c-.2737-.66-1.0731-1.0983-1.7764-.9737l-8.6095,1.0503c-.7255.1283-1.7149-.2202-2.1995-.7749l-4.5134-4.5212c-.5536-.4862-.9006-1.4769-.772-2.2019l1.0576-8.6121c.1253-.7035-.3126-1.5027-.9729-1.7763l-8.4832-3.5138c-.6602-.2735-1.5345-.0175-1.9441.5678l-5.3396,6.835c-.4213.6036-1.3676,1.056-2.1024,1.0063l-6.388-.0089c-.7348.0473-1.6814-.4076-2.1035-1.011l-5.35-6.8327c-.4097-.5852-1.2849-.8406-1.9449-.5666l-8.4665,3.5087c-.6601.2735-1.098,1.0732-.9733,1.7766l1.0508,8.6092c.1283.7255-.2202,1.715-.7749,2.1995l-4.5223,4.513c-.4859.5535-1.4766.9007-2.2016.7719l-8.6115-1.0574c-.7034-.125-1.5028.3126-1.7763.9728l-3.5138,8.4833c-.2735.6602-.0179,1.5352.5682,1.9442l6.8344,5.3394c.6036.4215,1.0569,1.3676,1.0068,2.1022l-.0079,6.3891c.0473.7349-.4077,1.6811-1.011,2.1033l-6.8339,5.3482c-.5857.4097-.841,1.2845-.5673,1.9449l3.5096,8.467c.2737.66,1.0731,1.0984,1.7768.9738l8.6092-1.0508c.7252-.1282,1.715.2205,2.1995.7749l4.5116,4.5226c.5534.4863.9004,1.4769.7715,2.2021l-1.056,8.6108c-.1252.7035.3128,1.503.9729,1.7762l8.4834,3.5137c.6601.2733,1.5343.0177,1.9439-.568l5.3393-6.8327c.4216-.6038,1.3678-1.057,2.1026-1.0073l6.388.0076c.7353-.0472,1.6818.4077,2.1035,1.011l5.3492,6.8328c.4098.5856,1.2845.8405,1.945.5672l8.4673-3.5094c.6597-.2736,1.0979-1.0732.9735-1.7767l-1.0512-8.6094c-.1286-.7251.2199-1.7149.7746-2.1995l4.5216-4.5117c.4862-.5534,1.4768-.9007,2.2019-.772l8.6124,1.0566c.7035.1252,1.5027-.3128,1.7762-.9729l3.5143-8.4837c.2732-.6601.0176-1.5349-.5683-1.9438l-6.8341-5.3381c-.6037-.4215-1.0569-1.3676-1.0069-2.1025l.0084-6.3899c-.0479-.7353.4075-1.6818,1.011-2.1035l6.8328-5.3482c.5857-.4098.8406-1.2849.5669-1.945l-3.5087-8.4665ZM82.5004,54.1126c.3455,3.9316-.2586,7.9149-1.8123,11.6657-2.5419,6.1368-7.3214,10.9164-13.4583,13.4584-4.6253,1.9159-9.5049,2.3274-14.0919,1.461M33.2659,60.8573c-.8951-4.7092-.4041-9.5802,1.473-14.1117,2.5418-6.1368,7.3213-10.9164,13.4583-13.4584,4.4893-1.8594,9.218-2.3017,13.6863-1.534" style="fill:none;stroke:currentColor;stroke-miterlimit:10;stroke-width:1.5" />
  <g>
    <path d="M77.2624,39.2017l-1.3271-1.3258c-1.7209-1.7235-4.0108-2.6734-6.4451-2.6734h-.0115c-2.4343,0-4.7242.9499-6.4464,2.6734l-10.553,10.553c-1.726,1.7247-2.6747,4.0171-2.6721,6.454-.0013,2.4343.9487,4.7255,2.6734,6.4489.39.39.9039.5856,1.4166.5856s1.0267-.1956,1.4166-.5856c.7812-.7825.7812-2.0546,0-2.8345-.9653-.9666-1.4972-2.2502-1.4984-3.6144.0013-1.3693.5331-2.6542,1.4984-3.6195l10.553-10.553c.9653-.9653,2.2502-1.4972,3.6157-1.4997,1.368.0026,2.6542.5357,3.6195,1.4997l1.3271,1.3258c.964.9653,1.4959,2.2489,1.4984,3.6144-.0026,1.3693-.5357,2.6555-1.4997,3.6208l-7.5446,7.5459c-.3797.3797-.5881.8835-.5881,1.4192.0013.5344.2097,1.0382.5881,1.4153.7799.7799,2.052.7825,2.8345,0l7.5446-7.5459c1.7247-1.7235,2.6747-4.0159,2.6734-6.454.0013-2.4343-.9474-4.7255-2.6734-6.4502Z" style="fill:none;stroke:currentColor;stroke-linecap:round;stroke-linejoin:round;stroke-width:1.5" />
    <path d="M58.3426,55.2882c-.7812.7825-.7812,2.0546,0,2.8345.9653.9666,1.4972,2.2515,1.4984,3.617-.0013,1.368-.5331,2.653-1.4984,3.6182l-10.5517,10.553c-.9666.964-2.2528,1.4959-3.6195,1.4972-1.3655-.0013-2.6504-.5331-3.6157-1.4972l-1.3284-1.3284c-.9653-.9666-1.4972-2.2502-1.4984-3.6157.0013-1.3667.5331-2.6517,1.4984-3.617l7.7402-7.7415c.3784-.3784.5868-.8822.5868-1.4166,0-.5357-.2084-1.0394-.5868-1.4179-.7799-.7799-2.052-.7812-2.8345,0l-7.7402,7.7415c-1.7247,1.7222-2.6734,4.0133-2.6721,6.4515-.0013,2.4356.9487,4.7267,2.6734,6.4502l1.3271,1.3284c1.7222,1.7222,4.0095,2.6709,6.4387,2.6709.0102.0013.0153,0,.0217,0,2.4343,0,4.7216-.9487,6.4425-2.6709l10.553-10.553c1.7247-1.726,2.6734-4.0171,2.6721-6.4527.0013-2.4356-.9474-4.7267-2.6721-6.4515-.7825-.7825-2.0546-.7786-2.8345,0Z" style="fill:none;stroke:currentColor;stroke-linecap:round;stroke-linejoin:round;stroke-width:1.5" />
  </g>
</svg>