<?xml version='1.0' encoding='utf-8'?>
<svg xmlns="http://www.w3.org/2000/svg" width="110" height="110" viewBox="0 0 110 110" fill="none" stroke="currentColor" stroke-width="1.5">
<path d="M55.8348 31.9974C58.077 35.128 59.008 39.4225 57.7267 45.7037C57.7267 45.7037 57.3263 47.5499 56.3853 50.3995M19.2274 32.3687C17.4756 35.429 16.6548 39.9041 17.8259 45.7037C17.8259 45.7037 18.0962 46.9579 18.7068 48.9847C17.4255 49.7172 16.5446 51.0818 16.5146 52.6671L16.2944 63.5338C16.2443 65.9218 18.1463 67.8985 20.5287 67.9487L22.8311 67.9988H25.8041C26.4247 67.9988 27.0053 67.8784 27.5058 67.6577C29.1575 69.9855 31.0494 72.203 33.2117 74.1295C35.5641 76.2165 39.0977 76.2667 41.5101 74.2499C43.7624 72.3736 45.7445 70.2163 47.4662 67.9487M33.7922 16.0035C33.7922 18.2109 32.0104 20.007 29.7982 20.007C27.5859 20.007 25.8041 18.221 25.8041 16.0035C25.8041 13.786 27.5859 12 29.7982 12C32.0104 12 33.7922 13.7961 33.7922 16.0035ZM33.7922 16.0035V24.3717M25.8141 16.0035V24.743M33.7922 39.9944C36.4149 34.7367 37.7863 28.9371 37.7863 23.0573V16.0035M45.7545 16.0035V24.0005H61.7108M61.7208 31.9974C63.923 31.9974 65.7148 30.2114 65.7148 27.9939C65.7148 25.7765 63.933 23.9904 61.7208 23.9904C59.5085 23.9904 57.7267 25.7765 57.7267 27.9939C57.7267 30.2114 59.5185 31.9974 61.7208 31.9974ZM61.7208 31.9974H53.2221C48.8276 31.9974 45.0037 34.9875 43.9426 39.2519L41.7804 47.9914M37.7663 24.1209C33.7922 24.1209 29.4478 24.8734 26.4548 26.2781L21.4997 14.4382M14.2923 17.8497L21.82 39.9944M23.2315 48.473L20.9291 48.4228C20.1283 48.4028 19.3675 48.6135 18.7169 48.9847M23.2315 48.473C25.6139 48.5232 27.5158 50.4998 27.4658 52.8879L27.2456 63.7545C27.2255 64.6375 26.9453 65.4502 26.4848 66.1325C25.684 67.2864 24.3426 68.0289 22.8411 67.9988M23.2315 48.473H25.8041C28.1865 48.5232 30.1385 50.4998 30.0885 52.8879L29.8682 63.7545C29.8282 65.5205 28.9373 67.0055 27.5058 67.6476M50.179 67.9487L52.4813 67.9988C54.8638 68.049 56.8358 66.1526 56.8858 63.7545L57.1061 52.8879C57.1261 51.9648 56.8558 51.1019 56.3753 50.3895M50.179 67.9487C47.7966 67.8985 45.8946 65.9218 45.9447 63.5338L46.1649 52.6671C46.2149 50.2791 48.1869 48.3727 50.5694 48.4228M50.179 67.9487H47.6064C47.6064 67.9487 47.5163 67.9487 47.4662 67.9487M47.4662 67.9487C45.1438 67.8283 43.2719 65.8817 43.322 63.5338L43.5422 52.6671C43.5923 50.269 45.2239 48.3827 47.6064 48.4228H50.5794L52.8817 48.473C54.3432 48.5031 55.6245 49.2556 56.3853 50.3895M79.6991 37.1548H90.8805C95.8156 37.1548 99.5494 41.7102 98.4783 46.5365C96.8366 53.8913 96.5463 62.5404 98.7786 71.8117C99.9598 76.7082 96.266 81.4241 91.2409 81.4241H79.3488L79.3988 86.8123C79.3988 90.1937 76.666 92.9329 73.2926 92.9329H68.4777C64.5937 92.9329 61.4405 89.7723 61.4405 85.8791V63.3833C61.4405 60.634 59.2182 58.4165 56.4854 58.4165H51.9908M20.9091 58.4065H16.9551C14.2123 58.4065 12 60.634 12 63.3732V90.9462C12 94.8393 15.1532 98 19.0372 98H80.5099C83.8834 98 86.6162 95.2608 86.6162 91.8794V81.4141M37.7763 16.0035C37.7763 18.2109 39.5581 20.007 41.7704 20.007C43.9827 20.007 45.7645 18.221 45.7645 16.0035C45.7645 13.786 43.9827 12 41.7704 12C39.5581 12 37.7763 13.7961 37.7763 16.0035ZM21.82 16.0035C21.82 18.2109 20.0382 20.007 17.8259 20.007C15.6137 20.007 13.8319 18.221 13.8319 16.0035C13.8319 13.786 15.6237 12 17.8259 12C20.0282 12 21.82 13.786 21.82 16.0035ZM94.7745 71.8117C92.5422 62.5404 92.8325 53.8913 94.4742 46.5365C95.5453 41.7102 91.8115 37.1548 86.8764 37.1548H75.695C70.76 37.1548 67.0262 41.7102 68.0973 46.5365C69.7389 53.8913 70.0292 62.5404 67.797 71.8117C66.6158 76.7082 70.3095 81.4241 75.3347 81.4241H87.2268C92.2519 81.4241 95.9457 76.7082 94.7645 71.8117H94.7745ZM76.4558 41.5496H86.3359C87.8074 41.5496 89.0086 42.7437 89.0086 44.2287C89.0086 45.7137 87.8174 46.9077 86.3359 46.9077H76.4558C74.9843 46.9077 73.7831 45.7137 73.7831 44.2287C73.7831 42.7437 74.9743 41.5496 76.4558 41.5496Z" stroke="currentColor" stroke-width="1.5" stroke-miterlimit="10" stroke-linecap="round" fill="none" />
</svg>