<?xml version='1.0' encoding='utf-8'?>
<svg xmlns="http://www.w3.org/2000/svg" width="110" height="110" viewBox="0 0 110 110" fill="none" stroke="currentColor" stroke-width="1.5">
<path d="M24.4735 69.4411C24.8644 71.9383 27.2814 73.5861 29.7601 73.0642L43.6348 70.1268C45.5273 69.7174 47.4609 70.5567 48.4483 72.2147L61.6853 95.2836H12.0594L12.0593 46.2698C12.0696 44.6323 13.417 43.3223 15.0523 43.3325L17.8087 43.353C19.259 43.3632 20.4932 44.4174 20.7194 45.8502L24.4735 69.4411ZM24.4735 69.4411L21.111 48.3108C20.751 45.9773 22.6325 43.8749 25.0084 43.8954L28.3305 43.9159C30.223 43.9261 31.8274 45.3078 32.1154 47.1603L34.9541 62.5839L47.0598 62.5327C48.6129 62.5327 50.0528 63.3105 50.8859 64.6206L61.4796 81.866L64.6886 80.2796C66.1388 79.512 67.9284 80.1158 68.6175 81.5999C69.2346 82.9304 68.7307 84.5065 67.4656 85.2434L58.5 89.7391M26.006 48.4601L46.7821 48.6034C48.4483 48.6136 49.7854 49.9646 49.7751 51.6226C49.7648 53.2806 48.4072 54.6111 46.741 54.6008L26.7568 54.4678M53.7335 19.9152L53.7232 19.9151C50.44 19.8923 47.7599 22.5223 47.737 25.7893L47.7148 28.9517C47.6919 32.2188 50.3348 34.8857 53.618 34.9085L53.6283 34.9086M53.7335 19.9152C57.0166 19.938 59.6596 22.605 59.6367 25.872L59.6145 29.0344C59.5916 32.3014 56.9114 34.9314 53.6283 34.9086M53.7335 19.9152V14.7164M53.6283 34.9086V38C53.6077 40.5894 51.3796 42.7901 48.7774 42.7696L44.8382 42.7389C42.8017 42.7287 40.899 43.7112 39.7367 45.3692L37.7777 48.5412M47.8586 24.6338H51.0813M47.8304 30.1605H51.0402M47.3786 14.7164H72.4436M67.7639 14.7164V22.068M64.5035 56.4533L64.7297 24.5826C64.7297 23.1805 65.8817 22.0547 67.2907 22.0649L91.5508 22.2208C92.9598 22.2208 94.0939 23.3852 94.0836 24.7873L93.7957 66.1251C93.7957 67.5272 92.6394 68.6452 91.2304 68.635L66.9719 68.479C65.5628 68.479 64.4315 67.3225 64.4417 65.9204V64.6717M71.4974 22.0854L95.7498 22.2491C97.1589 22.2491 98.2903 23.4056 98.28 24.8078L97.992 66.1455C97.992 67.5477 96.8298 68.6735 95.4207 68.6633L71.1683 68.4995M66.9308 74.3128L95.071 74.5072M38.5 54.546C45.2676 62.9589 93.7854 66.9131 93.9602 41.1832M64.6704 32.9341H94.0269M69.7798 27.4483L82.3174 27.5302M69.6975 39.4433L88.4165 39.5764M87.5526 27.5711L88.8176 27.5814M69.6666 44.1001L70.9317 44.1103M69.6255 49.0741L74.8606 49.1048M78.8307 49.1356L82.9551 49.1663M76.1669 44.141L77.4422 44.1513M72.783 68.5104V74.3128M85.3207 68.6029V74.4399M89.4553 68.623V74.4684M30.8709 34.8685C30.8709 38.2712 28.0988 41.0297 24.6792 41.0297C21.2597 41.0297 18.4876 38.2712 18.4876 34.8685C18.4876 31.4657 21.2597 28.7072 24.6792 28.7072C28.0988 28.7072 30.8709 31.4657 30.8709 34.8685Z" stroke="currentColor" stroke-width="1.5" stroke-miterlimit="10" stroke-linecap="round" fill="none" />
</svg>