<?xml version='1.0' encoding='utf-8'?>
<svg xmlns="http://www.w3.org/2000/svg" width="110" height="110" viewBox="0 0 110 110" fill="none" stroke="currentColor" stroke-width="1.5">
<path d="M86.2794 45.3666C85.247 44.7641 84.1798 44.2543 83.1126 43.8025C83.391 42.2153 83.5534 40.5933 83.5534 38.925C83.5534 27.1076 76.1526 17.0166 65.7357 13.0079C71.9998 16.4952 76.2338 23.1685 76.2338 30.8382C76.2338 33.8505 75.5726 36.7005 74.4126 39.2725C69.5522 34.7078 63.0213 31.9041 55.8177 31.9041C48.6141 31.9041 42.0832 34.7078 37.2228 39.2725C36.0512 36.7005 35.4016 33.8505 35.4016 30.8382C35.4016 23.0295 39.798 16.2519 46.2477 12.8226C35.564 16.7038 27.9312 26.9223 27.9312 38.9365C27.9312 40.1299 28.0124 41.3 28.1632 42.4586C26.6436 43.0031 25.1588 43.6866 23.7088 44.5208C13.4659 50.4179 8.41989 61.8645 10.1483 72.8824C10.0323 65.7225 13.7095 58.7248 20.3563 54.8899C23.2564 53.21 26.4116 52.3411 29.5436 52.1905C28.9752 54.3686 28.6736 56.6509 28.6736 59.0028C28.6736 70.8897 36.3412 80.9923 47.0133 84.6418C45.3893 86.843 43.3012 88.7547 40.7724 90.2145C33.998 94.1188 25.9244 93.7017 19.7183 89.8321C28.4184 97.1311 41.0972 98.614 51.5141 92.6127C52.5465 92.0102 53.5209 91.3499 54.4489 90.6547C55.6785 91.6858 57.0125 92.6359 58.4625 93.47C68.717 99.3787 81.1638 98.0232 89.8406 91.0139C83.6926 94.6865 75.7814 95.0225 69.1346 91.1877C66.4665 89.6468 64.2857 87.5961 62.6269 85.2326C74.3082 82.2088 82.9386 71.608 82.9386 58.9912C82.9386 57.0564 82.7298 55.168 82.347 53.349C84.8178 53.7198 87.2654 54.5308 89.5622 55.8631C96.3367 59.7675 100.014 66.9621 99.7587 74.2611C101.742 63.081 96.6847 51.3679 86.2794 45.3666ZM62.3717 81.2009C61.8033 81.3746 61.2117 81.5253 60.6201 81.6411C58.5553 76.8794 58.3349 71.3878 60.2489 66.3249C60.5621 65.4908 60.9449 64.6566 61.3857 63.8456L59.9705 63.023C58.8569 64.3206 57.2097 65.1548 55.3537 65.1548C53.6021 65.1548 52.0245 64.4133 50.9225 63.22L49.2057 64.2163C49.4841 64.8304 49.7277 65.456 49.9365 66.0816C51.6185 71.1098 51.2357 76.4971 49.0781 81.1429C48.3009 80.9112 47.5469 80.6332 46.8161 80.3319C38.4988 76.8215 32.664 68.5957 32.664 59.0144C32.664 57.6241 32.7916 56.257 33.0352 54.9247C33.186 54.0558 33.3948 53.21 33.6384 52.3759C38.522 53.1173 43.104 55.6198 46.3753 59.6169C46.8741 60.2309 47.3497 60.8797 47.7789 61.5632L49.4957 60.5785C49.3797 60.1035 49.3101 59.6169 49.3101 59.1071C49.3101 56.1875 51.3749 53.7545 54.1241 53.1753V51.1478C53.3121 51.0783 52.5233 50.974 51.7461 50.8118C46.6537 49.7807 42.2572 46.8611 39.3108 42.8061C39.9256 42.1805 40.5868 41.5781 41.2712 41.022C45.25 37.8127 50.3077 35.8779 55.8293 35.8779C61.6989 35.8779 67.0581 38.0676 71.1414 41.6707C71.559 42.0415 71.9534 42.4122 72.3478 42.8061C69.2506 47.0581 64.5525 50.0703 59.1353 50.9508C58.4857 51.0551 57.8245 51.1362 57.1517 51.171V53.3027C59.6341 54.0558 61.4437 56.3729 61.4437 59.0955C61.4437 59.5126 61.3973 59.9181 61.3277 60.3004L63.0445 61.2852C63.3809 60.8334 63.7289 60.4047 64.1001 59.9876C67.7657 55.8399 72.9046 53.4533 78.2522 53.1521C78.3914 53.6734 78.5074 54.218 78.6002 54.7509C78.8554 56.1296 78.9946 57.543 78.9946 59.0028C78.9946 69.4994 71.9882 78.3624 62.3949 81.1893L62.3717 81.2009Z" stroke="currentColor" stroke-width="1.5" stroke-linecap="round" stroke-linejoin="round" fill="none" />
</svg>