<?xml version='1.0' encoding='utf-8'?>
<svg xmlns="http://www.w3.org/2000/svg" version="1.1" id="Layer_1" x="0px" y="0px" viewBox="0 0 110 110" style="enable-background:new 0 0 110 110;fill:none;stroke:currentColor;stroke-width:1.5" xml:space="preserve">
<path style="fill:none;stroke:currentColor;stroke-width:1.5;stroke-linecap:round;stroke-linejoin:round" d="M53.64,32.581h2.371   M23.209,36.296h63.234 M61.347,75.375h32.065c0.299,0,0.541,0.242,0.541,0.541v1.649c0,1.558-1.263,2.821-2.82,2.821H18.522  c-1.558,0-2.821-1.263-2.821-2.821l0-1.648c0-0.299,0.242-0.541,0.541-0.541h33.368 M16.095,75.402l7.114-7.904 M23.209,67.498  l0-33.067c0-3.165,2.566-5.731,5.731-5.731h51.773c3.165,0,5.731,2.566,5.731,5.731l0,33.067 M23.209,67.498h9.88 M86.443,67.498  l7.114,7.904 M86.443,67.498h-9.88 M37.042,71.688h1.581 M25.976,71.688h1.581 M31.509,71.688h1.581 M76.563,71.688h1.581   M82.096,71.688h1.581 M63.384,58.322V43.74H61.03 M30.854,43.74H28.5v19.467l16.034,0.002c0.273,0.497,0.801,0.833,1.409,0.833  c0.607,0,1.135-0.337,1.408-0.833l7.627-0.001 M45.942,61.09c0,0-6.731-3.213-15.088,0V42.198c7.782-4.725,15.088,0,15.088,0   M45.942,61.09V42.198 M45.942,61.09c0,0,3.401-1.836,8.82-1.384 M45.942,42.198c0,0,7.306-4.725,15.088,0v15.457 M42.382,46.221  h-8.003 M42.382,50.594h-8.003 M42.394,54.967H34.39 M49.502,46.221h8.003 M49.502,50.594h8.003 M49.49,54.967h4.014 M65.5,61.57  l-7.782-3.149c-0.462-0.187-0.964,0.164-0.946,0.663l0.298,8.276c0.006,0.17,0.229,0.225,0.311,0.076  c0.328-0.598,1.083-1.564,1.99-1.835c0.564-0.168,1.169,0.112,1.502,0.597l1.917,2.782c0.413,0.6,1.123,0.971,1.82,0.556  c0.024-0.014,0.047-0.029,0.07-0.044c0.689-0.465,0.628-1.319,0.195-1.948l-1.898-2.755c-0.341-0.495-0.375-1.171-0.006-1.645  c0.207-0.266,0.323-0.384,0.626-0.561 M70.006,48.81L70,41.007L76.841,41 M73.615,45.33l2.327,4.285L81,41.807 M70.006,61.195  L70,53.392l6.841-0.007 M73.615,57.715L75.942,62L81,54.192" />
</svg>