<?xml version='1.0' encoding='utf-8'?>
<svg xmlns="http://www.w3.org/2000/svg" width="110" height="110" viewBox="0 0 110 110" fill="none" stroke="currentColor" stroke-width="1.5">
<path d="M65.8492 15.9517L71.0518 39.2946M39.3293 71.2857L71.0518 39.3041L94.607 44.5563M20.6803 76.4709C18.2033 78.9487 19.1884 83.8086 22.7747 87.3961C26.3611 90.9837 31.1524 91.9021 33.6294 89.4243M20.6803 76.4709L13.4024 83.7512C10.9254 86.229 11.8148 91.1367 15.3916 94.7147C18.9684 98.2927 23.8745 99.1824 26.3515 96.7046L33.6294 89.4243M20.6803 76.4709C20.9959 76.1552 21.4071 75.9256 21.8375 75.8108C25.4908 74.8254 25.9785 73.7444 27.3461 69.956M33.6294 89.4243C33.6294 89.4243 34.0598 88.9938 34.2893 88.2571C34.5188 87.5205 36.1064 84.1626 40.1135 82.718M65.9927 71.1805C70.8988 66.2728 68.8713 56.2851 61.4691 48.8804C54.0668 41.4758 44.0824 39.4476 39.1763 44.3554M65.9927 71.1805C61.0865 76.0883 51.1021 74.0601 43.6999 66.6554C36.2977 59.2508 34.2702 49.2631 39.1763 44.3554M65.9927 71.1805L59.7189 77.4563C54.8128 82.364 44.8284 80.3359 37.4262 72.9312C30.0239 65.5266 27.9965 55.5389 32.9026 50.6312L39.1763 44.3554M31.8984 65.0004L28.2164 68.7027C25.8064 71.1135 26.801 76.0117 30.4352 79.6471C34.0693 83.2824 38.9563 84.2678 41.3664 81.857L44.9432 78.279M42.8774 72.7877L66.4326 78.0399L95.8024 48.6604C98.1168 46.3452 98.3272 44.011 97.9638 41.6767L92.6082 17.6642L68.7374 12.3355C65.1797 11.5319 64.4338 12.0485 61.2395 15.2438L32.367 44.1353L37.5696 67.4782C38.5738 71.2475 39.5397 72.1276 42.8774 72.7877Z" stroke="currentColor" stroke-width="1.5" stroke-miterlimit="10" stroke-linecap="round" fill="none" />
</svg>