<?xml version='1.0' encoding='utf-8'?>
<svg xmlns="http://www.w3.org/2000/svg" id="Layer_1" data-name="Layer 1" width="110" height="110" viewBox="0 0 110 110">
  <path d="M64.6644,45.4873l-5.2011,3.5837-5.6463-18.3062-.222-.222-6.4696,19.8526h-20.8676l16.7448,12.5586-4.2891,12.9034c-2.6638,2.9813-5.6964,6.4617-8.9312,8.428l6.2117-19.2066L7.6106,43.9894l35.1701.0209.3805-.4014,10.6558-32.9507,10.8474,34.829Z" style="fill:none;stroke:currentColor;stroke-linecap:round;stroke-linejoin:round;stroke-width:1.5" />
  <path d="M96.6625,46.5898l-7.3895,5.3281c-12.2732-3.3937-23.7223,3.2348-31.2063,13.0976-7.77,12.1781-16.1739,27.6541-30.9524,32.5698-2.0614.8564-4.2177,1.4274-6.4696,1.7444.666-2.6643,1.7439-5.1377,2.5053-7.77,1.1415-.6975,2.5688-1.0464,3.8057-1.7444,16.4909-7.8015,19.7572-26.1637,33.2677-37.3585,8.34-7.009,19.5667-10.7193,30.5719-7.7065,1.9975.539,3.9958,1.0784,5.8671,1.8394Z" style="fill:none;stroke:currentColor;stroke-linecap:round;stroke-linejoin:round;stroke-width:1.5" />
  <path d="M63.872,63.4041l5.8654,19.4026-.1584.1585-12.4997-9.7494-3.1448,4.9059,27.2203,20.7639c0-.0955,0-.1905-.0956-.2224l-10.1804-32.5063-.1584-.9195,14.8795-10.7346c-8.5637-.7401-15.6596,3.2437-21.7279,8.9012Z" style="fill:none;stroke:currentColor;stroke-linecap:round;stroke-linejoin:round;stroke-width:1.5" />
</svg>