<?xml version='1.0' encoding='utf-8'?>
<svg xmlns="http://www.w3.org/2000/svg" id="Layer_1" data-name="Layer 1" width="110" height="110" viewBox="0 0 110 110">
  <rect x="63.2785" y="36.9624" width="45.3096" height="11.6677" rx="3.4904" ry="3.4904" transform="translate(128.7295 -43.1371) rotate(90)" style="fill:none;stroke:currentColor;stroke-linecap:round;stroke-miterlimit:10;stroke-width:1.5" />
  <path d="M25.1951,54.0015c-3.4693,0-6.2818-2.8124-6.2818-6.2818h0c0-3.4693,2.8124-6.2818,6.2818-6.2818h7.0407" style="fill:none;stroke:currentColor;stroke-linecap:round;stroke-miterlimit:10;stroke-width:1.5" />
  <path d="M27.6527,41.438c-3.4693,0-6.2818-2.8124-6.2818-6.2817h0c0-3.4693,2.8124-6.2818,6.2818-6.2818h7.0407" style="fill:none;stroke:currentColor;stroke-linecap:round;stroke-miterlimit:10;stroke-width:1.5" />
  <path d="M80.0994,62.7455c-4.2425.2723-8.2778,2.2142-10.891,5.5889-4.883,6.306-5.4789,14.2881-7.0363,20.4149-1.522,5.9874-10.1497,6.7718-12.4336,1.0317-2.1991-5.527-.8502-13.248,2.3515-21.2436.3777-.9432-.2923-1.9723-1.3083-1.9723h-26.2672c-3.4693,0-6.2818-2.8125-6.2818-6.2818h0c0-3.4693,2.8125-6.2818,6.2818-6.2818h6.9618" style="fill:none;stroke:currentColor;stroke-linecap:round;stroke-miterlimit:10;stroke-width:1.5" />
  <path d="M30.1102,28.8745c-3.4693,0-6.2818-2.8124-6.2818-6.2818h0c0-3.4694,2.8125-6.2818,6.2818-6.2818h5.6834l25.5154-.0003c7.2741.6308,11.5023,6.6035,17.8711,6.6035" style="fill:none;stroke:currentColor;stroke-linecap:round;stroke-miterlimit:10;stroke-width:1.5" />
</svg>