<?xml version='1.0' encoding='utf-8'?>
<svg xmlns="http://www.w3.org/2000/svg" id="Layer_1" data-name="Layer 1" width="110" height="110" viewBox="0 0 110 110">
  <polyline points="93.5024 59.4752 93.5024 26.2238 97.7514 26.2238 88.8128 15.5586 79.8742 26.2238 84.1236 26.2238 84.1236 59.4752 78.358 59.4753 78.358 35.6291 68.9791 35.6291 68.9791 59.4753 63.2135 59.4753 63.2135 45.0344 53.8347 45.0344 53.8347 59.4753" style="fill:none;stroke:currentColor;stroke-linecap:round;stroke-linejoin:round;stroke-width:1.5" />
  <g>
    <g>
      <path d="M70.54,74.2461s9.1109-3.8244,15.3023-6.3983c6.5115-2.707,10.3126.1145,12.8601,4.4083l-32.3125,17.8799-32.4869-8.2927" style="fill:none;stroke:currentColor;stroke-linecap:round;stroke-linejoin:round;stroke-width:1.5" />
      <path d="M22.8827,67.1106c8.4494-6.3952,14.3063-8.1613,20.6271-6.5479,5.2883,1.3498,7.946,2.6927,11.6837,6.8727,3.455.8819,8.1245,2.0739,9.6793,2.4708,1.5547.3969,6.5115,2.3981,4.5812,9.9604l-20.3756-5.2011" style="fill:none;stroke:currentColor;stroke-linecap:round;stroke-linejoin:round;stroke-width:1.5" />
      <line x1="19.4284" y1="62.6511" x2="35.5786" y2="89.8723" style="fill:none;stroke:currentColor;stroke-linecap:round;stroke-linejoin:round;stroke-width:1.5" />
      <polyline points="9.8402 68.3396 19.4284 62.6511 35.5786 89.8723 25.9904 95.5609" style="fill:none;stroke:currentColor;stroke-linecap:round;stroke-linejoin:round;stroke-width:1.5" />
    </g>
    <path d="M16.5228,72.6237c-.9776.58-1.2999,1.8428-.7199,2.8204s1.8427,1.2998,2.8203.7198,1.3-1.8426.72-2.8202-1.8428-1.2999-2.8204-.7199Z" style="fill:none;stroke:currentColor;stroke-miterlimit:10;stroke-width:1.5" />
  </g>
</svg>