<?xml version='1.0' encoding='utf-8'?>
<svg xmlns="http://www.w3.org/2000/svg" id="Layer_1" data-name="Layer 1" width="110" height="110" viewBox="0 0 110 110">
  <circle cx="55.0365" cy="39.6251" r="18.9444" style="fill:none;stroke:currentColor;stroke-miterlimit:10;stroke-width:1.5" />
  <path d="M35.6711,51.3425h-3.8539c-6.2821,0-11.6506,4.5258-12.713,10.7175l-5.3244,31.0304h82.5134l-5.2096-30.9876c-1.0443-6.2114-6.4218-10.7603-12.7203-10.7603h-3.5404" style="fill:none;stroke:currentColor;stroke-miterlimit:10;stroke-width:1.5" />
  <line x1="78.3633" y1="51.3425" x2="78.3633" y2="63.1818" style="fill:none;stroke:currentColor;stroke-miterlimit:10;stroke-width:1.5" />
  <path d="M83.0908,83.7076c1.6688,0,3.4664-1.1681,3.4664-4.8394v-6.7892c0-4.6501-3.6557-8.4197-8.3058-8.4197-4.6501,0-8.3058,3.7696-8.3058,8.4197v6.7892c0,3.6713,1.7977,4.8394,3.4664,4.8394" style="fill:none;stroke:currentColor;stroke-miterlimit:10;stroke-width:1.5" />
  <circle cx="75.0807" cy="83.5407" r="1.1681" style="fill:none;stroke:currentColor;stroke-miterlimit:10;stroke-width:1.5" />
  <circle cx="81.5889" cy="83.5407" r="1.1681" style="fill:none;stroke:currentColor;stroke-miterlimit:10;stroke-width:1.5" />
  <line x1="31.8173" y1="51.3425" x2="31.8173" y2="74.5294" style="fill:none;stroke:currentColor;stroke-miterlimit:10;stroke-width:1.5" />
  <circle cx="31.8599" cy="81.2044" r="6.3413" style="fill:none;stroke:currentColor;stroke-miterlimit:10;stroke-width:1.5" />
  <circle cx="31.7614" cy="81.2044" r="2.5982" style="fill:none;stroke:currentColor;stroke-miterlimit:10;stroke-width:1.5" />
</svg>