<?xml version='1.0' encoding='utf-8'?>
<svg xmlns="http://www.w3.org/2000/svg" id="Layer_1" data-name="Layer 1" width="110" height="110" viewBox="0 0 110 110">
  <path d="M45.9129,72.5438s8.8589,8.0536,18.5232,0c0,0,11.9193,4.6711,8.6978,22.0667,0,0-16.2682,5.6375-35.5967,0,0,0-3.0604-15.6239,8.3757-22.0667Z" style="fill:none;stroke:currentColor;stroke-miterlimit:10;stroke-width:1.5" />
  <path d="M69.4293,63.0406s.1112,2.9323-2.255,6.6039c0,0,9.5032,5.6375,9.6643,16.4293,0,0,12.2414.4832,18.04-2.0939,0,0,4.1878-14.8185-8.0536-22.2278,0,0-8.2146,7.0871-17.3957,1.2886Z" style="fill:none;stroke:currentColor;stroke-miterlimit:10;stroke-width:1.5" />
  <path d="M41.4441,63.0406s-.1112,2.9323,2.255,6.6039c0,0-9.5032,5.6375-9.6643,16.4293,0,0-12.2414.4832-18.04-2.0939,0,0-4.1878-14.8185,8.0536-22.2278,0,0,8.2146,7.0871,17.3957,1.2886Z" style="fill:none;stroke:currentColor;stroke-miterlimit:10;stroke-width:1.5" />
  <circle cx="55.4161" cy="62.2352" r="9.9864" style="fill:none;stroke:currentColor;stroke-miterlimit:10;stroke-width:1.5" />
  <circle cx="55.4161" cy="26.1495" r="9.9864" style="fill:none;stroke:currentColor;stroke-miterlimit:10;stroke-width:1.5" />
  <circle cx="77.3791" cy="51.7198" r="9.9864" style="fill:none;stroke:currentColor;stroke-miterlimit:10;stroke-width:1.5" />
  <circle cx="33.557" cy="51.7198" r="9.9864" style="fill:none;stroke:currentColor;stroke-miterlimit:10;stroke-width:1.5" />
  <path d="M46.0946,36.4803s8.0536,7.7314,18.6842,0c0,0,3.0604,1.4496,4.3489,3.5436,0,0-5.6375,4.1878-5.6375,10.7918,0,0-6.765-5.6375-16.2682-.3221,0,0-.1611-6.4428-5.7986-10.3086,0,0,.9664-2.0939,4.6711-3.7046Z" style="fill:none;stroke:currentColor;stroke-miterlimit:10;stroke-width:1.5" />
</svg>