<?xml version='1.0' encoding='utf-8'?>
<svg xmlns="http://www.w3.org/2000/svg" width="110" height="110" viewBox="0 0 110 110" fill="none" stroke="currentColor" stroke-width="1.5">
<path d="M31.132 34.2786V37.0385C31.132 38.8183 30.0522 39.742 27.7464 39.742C25.4406 39.742 24.3607 38.8183 24.3607 37.0385V34.2786M30.8679 38.3452H35.5975C35.5975 44.1353 37.4421 49.6888 27.7351 49.6888C18.0281 49.6888 19.8728 44.1353 19.8728 38.3452H24.6249M35.7219 42.0513H38.6794L39.523 49.8465M39.523 49.8465L39.3655 88.4282C39.3655 93.824 33.8203 96.4487 27.7351 96.4487C21.65 96.4487 16.1047 93.824 16.1047 88.4282L15.9473 49.8465L16.7909 42.0513H19.7483M39.523 49.8465C42.3125 49.9704 45.6194 55.0057 47.0367 61.2239C48.2739 66.6535 47.8128 71.7113 46.0918 74.0319M39.523 49.8465C39.523 49.8465 54.5953 47.3007 57.8235 46.9515C61.0516 46.591 63.7511 47.2556 65.8995 50.973M39.2981 48.2244C38.9944 51.3109 35.1363 53.7779 27.7464 53.7779C20.3565 53.7779 16.4984 51.3109 16.1947 48.2244M22.1561 42.2879H33.3254M39.3764 85.7567L46.0918 92.0554M46.0918 92.0554V74.0319M46.0918 92.0554L94.1432 78.5378V61.7195M46.0918 74.0319L94.1432 61.7195M94.1432 61.7195C96.0891 59.7482 96.6065 55.5352 95.2117 51.0518C93.4458 45.3857 89.2841 41.4543 85.9322 42.2653L72.1421 44.3493M72.1421 44.3493C68.4866 44.845 65.8995 50.973 65.8995 50.973M72.1421 44.3493C79.2509 44.3493 83.5476 52.7641 82.9065 60.1425C81.6242 62.08 73.5481 64.7385 67.6205 64.5357C68.7003 56.9095 66.8297 52.6342 65.8995 50.973M67.2745 54.4792C67.3869 51.3476 73.1095 45.5659 76.7763 51.1194C80.4319 56.6617 77.6498 62.4104 77.6498 62.9399M13.9901 11.6253H41.4914V34.2786H13.9901V11.6253ZM29.4336 45.2167C29.4336 45.6397 28.6732 45.9827 27.7351 45.9827C26.7971 45.9827 26.0367 45.6397 26.0367 45.2167C26.0367 44.7936 26.7971 44.4507 27.7351 44.4507C28.6732 44.4507 29.4336 44.7936 29.4336 45.2167ZM21.425 96.5951C21.425 97.5781 20.6294 98.3749 19.6478 98.3749C18.6663 98.3749 17.8707 97.5781 17.8707 96.5951C17.8707 95.6121 18.6663 94.8153 19.6478 94.8153C20.6294 94.8153 21.425 95.6121 21.425 96.5951ZM34.1352 96.5951C34.1352 97.5751 34.9338 98.3749 35.9124 98.3749C36.891 98.3749 37.6896 97.5751 37.6896 96.5951C37.6896 95.6151 36.891 94.8153 35.9124 94.8153C34.9338 94.8153 34.1352 95.6151 34.1352 96.5951ZM90.5551 49.5423C90.5551 49.5423 90.1277 46.9853 87.2144 45.3744L82.9065 45.9151C84.8411 47.1655 85.5947 50.6688 85.5947 50.6688L90.5438 49.5423H90.5551Z" stroke="currentColor" stroke-width="1.5" stroke-linecap="round" stroke-linejoin="round" fill="none" />
</svg>