<?xml version='1.0' encoding='utf-8'?>
<svg xmlns="http://www.w3.org/2000/svg" width="110" height="110" viewBox="0 0 110 110" fill="none" stroke="currentColor" stroke-width="1.5">
<path d="M94.2156 25.0919C94.3096 22.6235 93.5946 18.7175 90.8662 15.9842C88.1472 13.2509 83.4148 12.9104 81.6836 12.7308M73.3478 31.996L86.6042 18.7175M86.6042 18.7175L88.2789 20.4009M86.6042 18.7175C84.572 19.0958 83.4618 18.3864 83.4618 18.3864L71.2027 30.6341M88.2789 20.4009L75.0413 33.689M88.2789 20.4009C87.9026 22.4438 88.4106 23.3706 88.4106 23.3706L76.3303 35.5805M57.8899 32.8472C58.1157 32.6581 61.8132 29.2533 62.9798 28.7048C65.2284 28.9412 70.6759 29.2249 74.204 32.7716C77.7227 36.3087 78.3719 40.8484 78.2496 44.0451C77.7039 45.2084 74.3451 48.9158 74.3451 48.9158M57.8899 32.8472C58.7931 31.996 60.035 31.0976 61.0982 30.5868C63.3468 30.8233 68.7942 31.107 72.3223 34.6536C75.8411 38.1908 76.4902 42.7305 76.3679 45.9272C75.8693 46.9959 75.1919 47.9984 74.3451 48.9063M57.8899 32.8472C57.8053 32.9229 57.9652 32.7716 57.8899 32.8472ZM57.8899 32.8472C54.7099 36.0439 53.7785 40.6782 55.1239 44.6977L61.1358 38.6637M74.3451 48.9063C74.2699 48.9726 74.4204 48.8401 74.3451 48.9063ZM74.3451 48.9063C74.2699 48.9915 74.204 49.0766 74.1193 49.1522C71.0522 52.2354 66.6773 53.2001 62.7917 52.0652L68.6343 46.192M68.6343 46.192C70.7041 44.1113 70.7041 40.7349 68.6343 38.6542C66.5644 36.5735 63.2056 36.5735 61.1358 38.6542L35.1029 64.8331M68.6343 46.192L42.4696 72.4654M28.3759 70.2334L32.0734 66.5165C34.4914 64.0859 38.424 64.0859 40.842 66.5165C43.2599 68.9472 43.2599 72.9005 40.842 75.3311L37.1821 79.0101M23.4366 83.9084L19.8238 87.5401L14 99.1825M84.0357 11C83.1419 11.4256 81.2038 13.1185 81.0439 13.3171C80.8369 13.4874 80.6393 13.6671 80.4511 13.8562C76.9889 17.3366 76.9889 22.9829 80.4511 26.4633C83.9134 29.9437 89.5302 29.9437 92.9925 26.4633C93.1806 26.2741 93.3594 26.0661 93.5288 25.8675C93.7263 25.7067 95.4104 23.7584 95.8338 22.8599C95.9279 20.3915 95.4292 16.8827 92.7102 14.1399C89.9912 11.4067 85.7763 11.1892 84.0357 11ZM39.1109 74.4893C39.1109 77.9319 36.3354 80.722 32.9108 80.722C29.4861 80.722 26.7107 77.9319 26.7107 74.4893C26.7107 71.0468 29.4861 68.2567 32.9108 68.2567C36.3354 68.2567 39.1109 71.0468 39.1109 74.4893ZM34.9147 76.7024C36.1002 75.5108 36.1002 73.572 34.9147 72.3803C33.7293 71.1886 31.8006 71.1886 30.6057 72.3803L23.2766 79.7478C22.0912 80.9395 20.9577 84.0075 22.1431 85.2086C23.3286 86.4003 26.3908 85.2711 27.5856 84.0794L34.9147 76.7119V76.7024Z" stroke="currentColor" stroke-width="1.5" stroke-linecap="round" stroke-linejoin="round" fill="none" />
</svg>