<?xml version='1.0' encoding='utf-8'?>
<svg xmlns="http://www.w3.org/2000/svg" width="110" height="110" viewBox="0 0 110 110" fill="none" stroke="currentColor" stroke-width="1.5">
<g clip-path="url(#clip0_1757_33)">
<path d="M69.3008 39.7931H69.2673M73.9813 48.0908C73.9762 47.9738 73.961 47.8622 73.9508 47.7505C73.4729 42.2958 69.0038 38.0106 63.7314 38C60.3656 38 57.376 39.6853 55.4949 42.2958C53.6188 39.6853 50.6292 37.9947 47.2634 38C41.991 38.0053 37.5219 42.2958 37.044 47.7505C37.0338 47.8622 37.0237 47.9791 37.0186 48.0908C36.8864 50.4194 37.466 52.5992 38.5439 54.4121C41.4216 59.2395 42.7791 64.8857 42.0876 70.5318L41.6656 73.945C41.3504 76.5023 44.3094 78.0228 46.0534 76.1992L51.4681 66.6242C53.2832 63.4183 57.7167 63.4183 59.5318 66.6242L64.9465 76.1992C66.6904 78.0228 69.6495 76.5023 69.3343 73.945L68.9123 70.5318C68.2157 64.891 69.5783 59.2448 72.456 54.4121C73.539 52.5939 74.1135 50.4194 73.9813 48.0908Z" stroke="currentColor" stroke-width="1.5" stroke-linejoin="round" fill="none" />
<circle cx="65.1249" cy="100.125" r="4.33096" transform="rotate(-135 65.1249 100.125)" stroke="currentColor" stroke-width="1.5" fill="none" />
<circle cx="10.5443" cy="51.8678" r="4" transform="rotate(-135 10.5443 51.8678)" stroke="currentColor" stroke-width="1.5" fill="none" />
<circle cx="93.2758" cy="37.0187" r="4" transform="rotate(-135 93.2758 37.0187)" stroke="currentColor" stroke-width="1.5" fill="none" />
<path d="M30.7877 65.77C20.7737 41.7749 23.8677 17.6857 37.6724 11.9636C51.4889 6.2415 70.7965 21.053 80.8106 45.0481C81.4364 46.5551 82.0151 48.0504 82.5347 49.5457" stroke="currentColor" stroke-width="1.5" stroke-linecap="round" stroke-linejoin="round" fill="none" />
<path d="M85.5578 60.6719C88.7226 78.4387 84.5658 94.4511 73.9259 98.8545" stroke="currentColor" stroke-width="1.5" stroke-linecap="round" stroke-linejoin="round" fill="none" />
<path d="M75.6736 73.7529C84.6895 64.0507 90.5299 53.1558 92.645 43.4591M62.3767 18.7338C72.497 15.1074 82.0268 15.4842 87.8723 20.8884C90.7729 23.5687 92.5251 27.1947 93.2062 31.4312" stroke="currentColor" stroke-width="1.5" stroke-linecap="round" stroke-linejoin="round" fill="none" />
<path d="M53.6026 22.8193C47.5328 26.2926 41.4512 31.0963 35.9127 37.0539C18.1993 56.1157 12.7435 79.7811 23.7141 89.9184C32.7243 98.2425 50.6385 94.5926 66.3445 82.548" stroke="currentColor" stroke-width="1.5" stroke-linecap="round" stroke-linejoin="round" fill="none" />
<path d="M17.6914 36.1237C14.4794 38.7611 12.3065 41.9871 11.4799 45.6959M86.0536 79.4868C76.7953 82.9248 63.3803 83.6547 50.2133 80.7701C32.5458 76.8935 18.5909 67.6333 13.3588 57.5107" stroke="currentColor" stroke-width="1.5" stroke-linecap="round" stroke-linejoin="round" fill="none" />
<path d="M93.942 74.6594C97.1422 72.0339 99.3033 68.8196 100.118 65.1108C103.2 51.1 85.8529 35.4054 61.3846 30.0366C48.2176 27.152 34.6373 28.0703 25.3673 31.5083" stroke="currentColor" stroke-width="1.5" stroke-linecap="round" stroke-linejoin="round" fill="none" />
<path d="M44.8115 88.5C46.3666 90.1552 47.9655 91.6598 49.5911 93C51.8581 94.869 54.1767 96.4183 56.5001 97.6106" stroke="currentColor" stroke-width="1.5" stroke-linecap="round" fill="none" />
</g>
<defs>
<clipPath id="clip0_1757_33">
<rect width="110" height="110" fill="none" stroke="currentColor" stroke-width="1.5" />
</clipPath>
</defs>
</svg>