<?xml version='1.0' encoding='utf-8'?>
<svg xmlns="http://www.w3.org/2000/svg" width="110" height="110" viewBox="0 0 110 110" fill="none" stroke="currentColor" stroke-width="1.5">
<path d="M68 87.0769C68 94.2141 62.4036 100 55.5 100C48.5964 100 43 94.2141 43 87.0769M68 87.0769C68 79.9397 62.4036 74.1538 55.5 74.1538C48.5964 74.1538 43 79.9397 43 87.0769M68 87.0769H43M68 87.0769V40.4718M43 87.0769V40.4718M47.7203 30.5436C45.0119 32.9128 43 36.5128 43 40.4718M43 40.4718C43 47.6103 48.5952 53.3949 55.5 53.3949C62.4048 53.3949 68 47.6103 68 40.4718M68 40.4718C68 36.4821 65.7896 32.9128 63.0416 30.5436M51.2508 26.3522C48.6019 27.8291 47.0377 30.6769 47.0377 34.0103V40.4718C47.0377 45.3026 50.8274 49.2205 55.5 49.2205C60.1726 49.2205 63.9623 45.3026 63.9623 40.4718V34.0103C63.9623 30.8 61.9316 27.8334 59.4316 26.3052M59.7956 24.5026C59.7956 21.959 57.8016 19.8974 55.3413 19.8974C52.881 19.8974 50.8869 21.959 50.8869 24.5026M59.7956 24.5026V33.8359C59.7956 36.3795 57.8016 38.441 55.3413 38.441C52.881 38.441 50.8869 36.3795 50.8869 33.8359V24.5026M59.7956 24.5026C59.7956 27.0462 57.7917 29.1077 55.3313 29.1077C52.871 29.1077 50.8869 27.0462 50.8869 24.5026M58.3671 13.0769C58.3671 14.7763 57.0346 16.1538 55.3909 16.1538C53.7472 16.1538 52.4147 14.7763 52.4147 13.0769M58.3671 13.0769C58.3671 11.3776 57.0346 10 55.3909 10C53.7472 10 52.4147 11.3776 52.4147 13.0769M58.3671 13.0769L59.7489 23.8332M52.4147 13.0769L50.9347 23.8255M63.6448 33.7538C63.6448 38.4723 59.945 42.2974 55.381 42.2974C50.8169 42.2974 47.1171 38.4723 47.1171 33.7538C47.1171 29.0354 50.8169 25.2103 55.381 25.2103C59.945 25.2103 63.6448 29.0354 63.6448 33.7538Z" stroke="currentColor" stroke-width="1.5" stroke-miterlimit="10" fill="none" />
</svg>