<?xml version='1.0' encoding='utf-8'?>
<svg xmlns="http://www.w3.org/2000/svg" id="Layer_1" data-name="Layer 1" width="110" height="110" viewBox="0 0 110 110">
  <path d="M18.0626,38.346c-3.0303,2.3952-5.0831,5.3281-5.8561,8.7081-2.9233,12.7731,13.5248,27.0899,36.7364,31.978,12.4841,2.6296,25.3655,1.7982,34.1508-1.3368M90.3758,73.4887c3.047-2.4,5.1104-5.3412,5.8859-8.7319,2.9221-12.7719-13.5248-27.0888-36.7364-31.9768-12.4853-2.6295-25.2025-1.9659-33.9891,1.1691M56.3117,85.616c5.7598-3.1719,11.522-7.5509,16.7704-12.9824,16.7977-17.3817,21.9748-38.9616,11.5648-48.2001-8.5487-7.5878-25.532-4.2637-40.4268,6.716M35.3859,39.1773c-16.7977,17.3817-21.9759,38.9616-11.566,48.2013,5.5469,4.9225,14.5773,5.2746,24.1785,1.9683M26.0142,51.1072c-3.0077-16.1959.9443-30.7946,11.0344-34.8145,4.6835-1.866,10.0353-1.338,15.411,1.112M60.535,22.4509c4.3112,3.5346,8.8567,8.9198,12.3973,14.4679M77.9535,46.457c9.4906,21.8772,6.5661,43.8425-6.534,49.0611-13.099,5.2187-31.4131-8.2871-40.9049-30.1643-.5947-1.3689-1.1405-2.739-1.6377-4.1043" style="fill:none;stroke:currentColor;stroke-linecap:round;stroke-linejoin:round;stroke-width:1.5" />
  <g>
    <path d="M61.6703,49.5447c1.1455-2.0878,2.4438-4.2764,3.4546-6.3416-.7244.459-1.467.8999-2.2718,1.2779-.4403-.7273-.8767-1.4194-1.467-2.1297-.4777-.5756-1.1755-1.4217-1.9401-1.6022-.5812-.1364-1.4783.0549-2.2718.0549h-2.3663c-1.6305,0-3.2854-.2071-4.59-.1019-.5835.047-1.1365.4347-1.4675.7301-1.8728,1.6713-3.2469,4.6403-4.3534,6.5171,2.1903,1.2479,4.3715,2.4993,6.5782,3.732,1.158-2.029,2.2531-4.123,3.5486-6.0139.4686.9361,1.0663,1.7409,1.5151,2.6962-.6373.4511-1.4262.7488-2.0352,1.2293,2.4614-.1098,5.1265-.017,7.6665-.0481" style="fill:none;stroke:currentColor;stroke-miterlimit:10;stroke-width:1.5" />
    <path d="M68.9583,55.7913c-.8308-2.2463-1.9418-3.887-3.076-5.7264-2.1048,1.1138-4.3302,2.5157-6.4837,3.7388,1.0646,2.0748,2.4235,4.1072,3.4077,6.105-1.0255-.0317-2.1767.0628-3.1235-.0475-.0317-.7573.0628-1.6407-.0475-2.3188-1.2389,2.231-2.5587,4.3817-3.7852,6.6252,1.2264,2.0856,2.4727,4.1525,3.7382,6.1996.0311-.8518-.0628-1.8298.047-2.6029,1.6532-.2156,3.7161-.1053,4.8271-.9463.4805-.3633.8942-1.3821,1.2779-2.0352.8948-1.5236,1.6243-2.7545,2.4608-4.2119.3803-.6627,1.0023-1.5145,1.1829-2.1767.2105-.7697-.1528-1.8648-.4256-2.6029" style="fill:none;stroke:currentColor;stroke-miterlimit:10;stroke-width:1.5" />
    <path d="M53.1045,59.9557c-2.2548-.0956-4.6743-.0266-7.0038-.047.5303-.9208,1.0063-1.8965,1.609-2.7449.6729.352,1.4025.8999,2.0352,1.1353-1.2938-2.1925-2.5582-4.4145-3.8338-6.6252-2.3657.1104-4.8877.0651-7.2404.189.7454.4539,1.583.815,2.2242,1.3725-.5003,1.1116-1.4325,2.5434-1.5615,4.0698-.0764.9016.2179,1.1942.5677,1.7986,1.1031,1.9045,2.012,3.4954,3.076,5.3472.3379.5886.8642,1.6866,1.3255,2.0352.9055.6859,2.5548.8325,4.0223.9469,1.6011.1245,3.2192.1064,4.8271.047.0181-2.5423-.0843-4.9635-.0475-7.5245" style="fill:none;stroke:currentColor;stroke-miterlimit:10;stroke-width:1.5" />
  </g>
</svg>