<?xml version='1.0' encoding='utf-8'?>
<svg xmlns="http://www.w3.org/2000/svg" version="1.1" id="Layer_1" x="0px" y="0px" viewBox="0 0 110 110" style="enable-background:new 0 0 110 110;fill:none;stroke:currentColor;stroke-width:1.5" xml:space="preserve">
<path style="fill:none;stroke:currentColor;stroke-width:1.5;stroke-linecap:round;stroke-linejoin:round" d="M78.159,40.954  c7.922,10.889,6.982,26.239-2.81,36.077c-10.83,10.869-28.396,10.869-39.226,0c-10.83-10.869-10.83-28.5,0-39.369  c9.792-9.827,25.097-10.771,35.946-2.82 M72.675,46.448c4.994,7.813,4.093,18.328-2.722,25.168c-7.853,7.882-20.592,7.882-28.455,0  c-7.853-7.882-7.853-20.667,0-28.559c6.805-6.83,17.283-7.744,25.077-2.732 M67.074,52.069c2.135,4.639,1.302,10.309-2.507,14.132  c-4.876,4.894-12.788,4.894-17.674,0c-4.876-4.894-4.876-12.835,0-17.739c3.809-3.823,9.469-4.658,14.081-2.516 M60.396,58.782  c-0.225,0.737-0.627,1.435-1.214,2.024c-1.909,1.916-4.994,1.916-6.893,0s-1.9-5.012,0-6.918c0.588-0.59,1.273-0.993,2.017-1.219   M56.098,57.091l34.653-34.779 M16.06,55.29c1.05-24.1,24.45-43.02,49.69-36.25 M65.75,19.04L61.91,13 M65.75,19.04l-6.6,3.71   M76.44,90.68c-21.67,13.67-51.97,3.05-59.03-23.3 M17.41,67.38L14,73.67 M17.41,67.38l6.45,3.96 M83.44,85.07l7.15-0.19   M83.44,85.07l0.21-7.56 M83.44,85.07C95.583,72.933,97.727,55.94,92,42.036 M78.015,35.094l7.987,2.627l8.176-8.206l-7.922-2.693  L83.701,19l-8.176,8.206L78.015,35.094z" />
</svg>