<?xml version='1.0' encoding='utf-8'?>
<svg xmlns="http://www.w3.org/2000/svg" id="Layer_1" data-name="Layer 1" width="110" height="110" viewBox="0 0 110 110">
  <g>
    <path d="M76.8027,38.0037l-1.1607-1.1596c-1.5051-1.5074-3.5079-2.3382-5.637-2.3382h-.0101c-2.1291,0-4.1319.8308-5.6381,2.3382l-9.2299,9.2299c-1.5096,1.5085-2.3393,3.5135-2.3371,5.6448-.0011,2.1291.8297,4.133,2.3382,5.6404.3411.3411.7906.5122,1.239.5122s.8979-.1711,1.239-.5122c.6832-.6844.6832-1.797,0-2.4791-.8443-.8454-1.3095-1.9681-1.3106-3.1612.0011-1.1976.4663-2.3215,1.3106-3.1657l9.2299-9.2299c.8443-.8443,1.9681-1.3095,3.1624-1.3117,1.1965.0022,2.3215.4685,3.1657,1.3117l1.1607,1.1596c.8431.8443,1.3083,1.967,1.3106,3.1612-.0022,1.1976-.4685,2.3226-1.3117,3.1668l-6.5987,6.5998c-.3321.3321-.5144.7727-.5144,1.2412.0011.4674.1834.908.5144,1.2379.6821.6821,1.7948.6844,2.4791,0l6.5987-6.5998c1.5085-1.5074,2.3393-3.5124,2.3382-5.6448.0011-2.1291-.8286-4.133-2.3382-5.6415Z" style="fill:none;stroke:currentColor;stroke-linecap:round;stroke-linejoin:round;stroke-width:1.5" />
    <path d="M60.2551,52.0733c-.6832.6844-.6832,1.797,0,2.4791.8443.8454,1.3095,1.9692,1.3106,3.1635-.0011,1.1965-.4663,2.3203-1.3106,3.1646l-9.2288,9.2299c-.8454.8431-1.9703,1.3083-3.1657,1.3095-1.1943-.0011-2.3181-.4663-3.1624-1.3095l-1.1618-1.1618c-.8443-.8454-1.3095-1.9681-1.3106-3.1624.0011-1.1954.4663-2.3192,1.3106-3.1635l6.7698-6.7709c.331-.331.5133-.7716.5133-1.239,0-.4685-.1823-.9091-.5133-1.2401-.6821-.6821-1.7948-.6832-2.4791,0l-6.7698,6.7709c-1.5085,1.5063-2.3382,3.5101-2.3371,5.6426-.0011,2.1302.8297,4.1341,2.3382,5.6415l1.1607,1.1618c1.5063,1.5063,3.5068,2.336,5.6314,2.336.0089.0011.0134,0,.019,0,2.1291,0,4.1296-.8297,5.6348-2.336l9.2299-9.2299c1.5085-1.5096,2.3382-3.5135,2.3371-5.6437.0011-2.1302-.8286-4.1341-2.3371-5.6426-.6844-.6844-1.797-.681-2.4791,0Z" style="fill:none;stroke:currentColor;stroke-linecap:round;stroke-linejoin:round;stroke-width:1.5" />
  </g>
  <path d="M88.5952,25.5231c-11.7661-.0164-23.6121-7.8822-28.1593-11.2635-1.8319-1.362-4.3837-1.3502-6.2047.0285-4.4536,3.372-16.0759,11.2173-27.7862,11.2349-2.8354.0042-5.1423,2.3198-5.1423,5.1612v34.0368c0,1.0883.3314,2.1254.9584,2.9989,10.722,14.9343,27.4452,26.1495,32.3147,29.2311.8386.5309,1.8004.7966,2.7626.7966.9574,0,1.9152-.2632,2.7514-.7895,4.8941-3.0799,21.7131-14.2892,32.6589-29.2126.647-.8822.9891-1.9336.9891-3.0413V30.6843c0-2.8415-2.3068-5.157-5.1426-5.1612Z" style="fill:none;stroke:currentColor;stroke-linecap:round;stroke-linejoin:round;stroke-width:1.5" />
  <path d="M84.3446,29.4086c-10.2848-.0142-20.6396-6.8605-24.6143-9.8034-1.6012-1.1854-3.8319-1.1752-5.4235.0248-3.8929,2.9349-14.0521,9.7632-24.2882,9.7786-2.4784.0037-4.495,2.0191-4.495,4.4922v29.6246c0,.9472.2896,1.8499.8378,2.6101,9.3722,12.9984,23.9901,22.7598,28.2466,25.4419.733.4621,1.5737.6934,2.4148.6934.8368,0,1.6741-.229,2.4051-.6872,4.278-2.6806,18.9796-12.4369,28.5474-25.4258.5655-.7679.8645-1.683.8645-2.647v-29.61c0-2.4731-2.0164-4.4885-4.4952-4.4922Z" style="fill:none;stroke:currentColor;stroke-linecap:round;stroke-linejoin:round;stroke-width:1.5" />
</svg>