<?xml version='1.0' encoding='utf-8'?>
<svg xmlns="http://www.w3.org/2000/svg" width="110" height="110" viewBox="0 0 110 110" fill="none" stroke="currentColor" stroke-width="1.5">
<path d="M63.5038 25.9181C63.0524 27.5469 61.9734 28.2943 61.2577 28.5955C60.3218 28.986 59.1548 29.2872 57.8666 29.4546M63.5038 25.9181L63.7771 18.3318L71.5632 22.6939M63.5038 25.9181L71.5632 22.6939M55.4554 29.6108C56.3032 29.6108 57.1069 29.555 57.8776 29.4546L57.5253 89.4861M72.1027 23.9657L71.8274 83.7295M72.1027 23.9657C72.1027 25.9404 68 28.0001 62.7918 27.3906M72.1027 23.9657C72.1027 23.5195 71.9155 23.0844 71.5632 22.6939M41.1532 29.5327L40.878 89.4861M40.878 89.4861C40.878 91.4639 44.6046 93.0672 49.2016 93.0672C53.7987 93.0672 57.5253 91.4639 57.5253 89.4861M40.878 89.4861C40.878 87.5083 44.6046 85.9049 49.2016 85.9049C53.7987 85.9049 57.5253 87.5083 57.5253 89.4861M61.2687 28.5955L60.9935 87.8238M41.8028 27.5469L47.3079 18.9789L47.1317 26.342M41.8028 27.5469L47.1317 26.342M41.8028 27.5469C41.3624 27.9819 41.0982 28.4617 41.0982 28.9637C41.0982 30.6148 43.6856 31.9982 47.2088 32.411M47.1317 26.342C47.7593 27.5022 48.5062 28.2951 49.1228 28.2727M47.2088 32.411L52.2294 28.9637V21.556L47.2088 32.411ZM47.2088 32.411C47.8804 32.4891 48.6952 32.556 49.4218 32.556C53.6167 32.556 57.0739 31.2172 57.6464 29.488C56.9417 29.5661 56.2151 29.6219 55.4554 29.6219C54.1562 29.6219 52.923 29.488 51.822 29.2538M75.2295 84.1199C74.6615 82.0001 72.433 79.6686 65.6397 79.0216C62.0725 78.6869 59.6929 79.2283 56.5 80.5001L42.5409 85.9049C40 87.0001 39.843 87.1879 38.9402 87.7457C37.7621 88.482 37.0465 89.3968 37.0024 90.4232V93.1565C36.8813 95.8339 41.3294 98.2102 46.9225 98.4668C49.1466 98.5672 51.2165 98.3218 52.912 97.8086C53.4956 97.6301 66.8949 92.9668 73.0495 90.3786C74.7451 89.6646 76.1742 87.6453 75.2295 84.1199ZM75.2295 84.1199C75.2295 86.0001 74.4505 86.8574 73 87.6948C66.8453 90.2942 53.5506 94.908 52.9781 95.0753C51.2825 95.5773 49.1576 95.8451 46.9335 95.7447C42.3974 95.5327 38 93.5001 37.0202 90.4232M63.779 18.2537C63.779 20.2316 60.0524 21.8349 55.4554 21.8349C50.8584 21.8349 47.1317 20.2316 47.1317 18.2537C47.1317 16.2759 50.8584 14.6726 55.4554 14.6726C60.0524 14.6726 63.779 16.2759 63.779 18.2537ZM72.0256 84.4881C72.0256 86.4659 68.299 88.0692 63.702 88.0692C59.1049 88.0692 55.3783 86.4659 55.3783 84.4881C55.3783 82.5103 59.1049 80.907 63.702 80.907C68.299 80.907 72.0256 82.5103 72.0256 84.4881Z" stroke="currentColor" stroke-width="1.5" stroke-linecap="round" stroke-linejoin="round" fill="none" />
<path d="M51 19.2858V13.7858L59 11V16" stroke="currentColor" stroke-width="1.5" stroke-linecap="round" stroke-linejoin="round" fill="none" />
</svg>