<?xml version='1.0' encoding='utf-8'?>
<svg xmlns="http://www.w3.org/2000/svg" width="110" height="110" viewBox="0 0 110 110" fill="none" stroke="currentColor" stroke-width="1.5">
<path d="M67.8443 39.0136C67.8443 46.753 54.6716 53.0271 38.4222 53.0271C22.1728 53.0271 9 46.753 9 39.0136M67.8443 39.0136C67.8443 31.2741 54.6716 25 38.4222 25C22.1728 25 9 31.2741 9 39.0136M67.8443 39.0136V58.038C67.8443 65.7773 54.6748 72.0516 38.4222 72.0516C22.1695 72.0516 9 65.7773 9 58.038V39.0136M100 38.4615C100 41.657 94.5639 44.2474 87.8582 44.2474C81.1525 44.2474 75.7164 41.657 75.7164 38.4615C75.7164 35.266 81.1525 32.6756 87.8582 32.6756C94.5639 32.6756 100 35.266 100 38.4615ZM100 38.4615V60.7027M100 60.7027C100 63.8982 94.5639 66.4886 87.8582 66.4886C81.1525 66.4886 75.7164 63.8982 75.7164 60.7027C75.7164 57.5073 81.1525 54.9168 87.8582 54.9168C94.5639 54.9168 100 57.5073 100 60.7027ZM67.8126 58.6113V37.6016C67.8126 35.5632 69.476 33.8965 71.5102 33.8965C73.5444 33.8965 75.2078 35.5632 75.2078 37.6016V58.6113M66.7742 42.5276C66.764 42.3537 66.7531 42.1878 66.7425 42.0286C66.0114 34.0133 59.1565 27.7178 51.0725 27.7072C45.9128 27.7072 41.3252 30.1808 38.4434 34.0239C35.5615 30.1808 30.9845 27.6965 25.8142 27.7072C17.7302 27.7178 10.8859 34.0239 10.1443 42.0286C10.1337 42.1985 10.1125 42.3577 10.1019 42.5276C9.90057 45.946 10.78 49.1522 12.4434 51.8169C16.8509 58.9086 18.9381 67.2105 17.8786 75.5019L17.2323 80.5128C16.7449 84.271 21.2901 86.5004 23.9601 83.8251L32.2559 69.7585C35.0318 65.0448 41.8443 65.0448 44.6202 69.7585L52.9161 83.8251C55.586 86.5004 60.1206 84.271 59.6438 80.5128L58.9976 75.5019C57.9275 67.2105 60.0147 58.9192 64.4328 51.8169C66.0962 49.1522 66.9756 45.946 66.7742 42.5276ZM71.5102 37.3574C73.5523 37.3574 75.2078 39.0162 75.2078 41.0625V62.0722C75.2078 64.1185 73.5523 65.7773 71.5102 65.7773C69.468 65.7773 67.8126 64.1185 67.8126 62.0722V41.0625C67.8126 39.0162 69.468 37.3574 71.5102 37.3574Z" stroke="currentColor" stroke-width="1.5" stroke-linecap="round" stroke-linejoin="round" fill="none" />
</svg>