<?xml version='1.0' encoding='utf-8'?>
<svg xmlns="http://www.w3.org/2000/svg" version="1.1" id="Layer_1" x="0px" y="0px" viewBox="0 0 110 110" style="enable-background:new 0 0 110 110;fill:none;stroke:currentColor;stroke-width:1.5" xml:space="preserve">
<path style="fill:none;stroke:currentColor;stroke-width:1.5;stroke-linecap:round;stroke-linejoin:round;stroke-miterlimit:10" d="  M93.857,75.69c0,0,0.396,0.214,0.396,0.513l0.001,1.649c0.001,1.558-1.26,2.822-2.818,2.823l-72.61,0.067  c-1.558,0.001-2.822-1.26-2.824-2.818L16,76.276c0-0.299,0.395-0.514,0.395-0.514 M93.857,75.69l-7.121-7.925 M93.857,75.69  l-77.462,0.072 M16.395,75.762l7.107-7.939 M86.707,36.612l-63.234,0.007 M23.501,67.824l-0.031-33.04  c-0.003-3.165,2.56-5.733,5.725-5.736L80.969,29c3.165-0.003,5.733,2.56,5.736,5.725l0.031,33.04 M23.501,67.824h9.884   M86.735,67.765h-9.931 M37.338,72.028l1.581-0.002 M26.272,72.038l1.581-0.002 M31.805,72.033l1.581-0.001 M82.338,72.028  l1.581-0.002 M71.272,72.038l1.581-0.002 M76.805,72.033l1.581-0.001 M55.113,70.209l12.226-7.51V49.302 M55.113,70.209V56.042   M55.113,70.209V56.045l-12.451-6.743 M55.113,70.209l-12.451-7.51V49.302 M55.113,56.042l12.226-6.74 M55.113,56.042l-12.451-6.74   M67.339,49.302l-12.226-7.428l-12.451,7.428" />
</svg>