<?xml version='1.0' encoding='utf-8'?>
<svg xmlns="http://www.w3.org/2000/svg" version="1.1" id="Layer_1" x="0px" y="0px" viewBox="0 0 110 110" style="enable-background:new 0 0 110 110;fill:none;stroke:currentColor;stroke-width:1.5" xml:space="preserve">
<path style="fill:none;stroke:currentColor;stroke-width:1.5;stroke-linecap:round;stroke-linejoin:round" d="M49.85,31.35  c0,0,4.44,6.46,3.01,9.68c-1.43,3.22-4.33,2.62-5.36,3.22c-1.04,0.6-7.39,1.19-5.44,3.14c1.95,1.95,5.35,2.13,7.58,4.37  c2.23,2.23,1.28,5.36,3.5,5.36s3.78-4.26,5.91-2.13c2.13,2.13-1.18,7.49-3.87,10.17c-2.68,2.68-0.31,4.33-1.51,5.54  c-1.2,1.21-2.96,2.32-2.96,4.65s-5.36,4.65-6.07,0.71c-0.71-3.93,1.16-9.74-0.54-11.44c-1.7-1.7-4.83-5.95-3.57-9.86  c1.25-3.91-7.43-10.15-7.43-10.15 M82.43,50.53c0,0-7.1,0.21-9.37-1.1c-2.26-1.31-7.15,1.43-6.26,6.43s4.75,2.18,7.76,5.18  c3,3-1.57,6.29,0,7.86s2.542,3.187,1.052,6.877 M67.436,32.768c0,0-5.996,5.222-4.746,7.902c1.25,2.68,2.81,1.78,4.74,0.67  s2.21-2.36,4.38-1.11c2.17,1.25,5.994,0.741,5.994,0.741 M16.76,54.99c1.05-24.1,24.45-43.02,49.69-36.25 M66.45,18.74l-3.84-6.04   M66.45,18.74l-6.6,3.71 M77.14,90.38c-21.67,13.67-51.97,3.05-59.03-23.3 M18.11,67.08l-3.41,6.29 M18.11,67.08l6.45,3.96   M77.14,23.33c20.73,12.8,25.62,42.83,7,61.44 M84.14,84.77l7.15-0.19 M84.14,84.77l0.21-7.56 M83.25,57.11  c0,14.707-11.923,26.63-26.63,26.63c-14.707,0-26.63-11.923-26.63-26.63c0-14.707,11.923-26.63,26.63-26.63  C71.327,30.48,83.25,42.403,83.25,57.11z" />
</svg>