<?xml version='1.0' encoding='utf-8'?>
<svg xmlns="http://www.w3.org/2000/svg" version="1.1" id="Layer_1" x="0px" y="0px" viewBox="0 0 110 110" style="enable-background:new 0 0 110 110;fill:none;stroke:currentColor;stroke-width:1.5" xml:space="preserve">
<path style="fill:none;stroke:currentColor;stroke-width:1.5;stroke-miterlimit:10" d="M90.838,57.031  c0,19.765-16.022,35.791-35.791,35.791c-19.765,0-35.788-16.026-35.788-35.791 M82.684,57.031c0,15.261-12.373,27.633-27.637,27.633  c-15.261,0-27.633-12.373-27.633-27.633 M74.529,57.031c0,10.76-8.723,19.479-19.483,19.479c-10.756,0-19.475-8.719-19.475-19.479   M66.371,57.031c0,6.255-5.069,11.325-11.325,11.325c-6.251,0-11.321-5.07-11.321-11.325 M31.063,17.178l4.036,12.51l13.146-0.03  l-10.652,7.705l4.088,12.495l-10.618-7.749l-10.618,7.749l4.088-12.495l-10.652-7.705l13.146,0.03L31.063,17.178z M78.937,17.178  l4.036,12.51l13.146-0.03l-10.652,7.705l4.088,12.495l-10.618-7.749l-10.618,7.749l4.088-12.495l-10.652-7.705l13.15,0.03  L78.937,17.178z" />
</svg>