<?xml version='1.0' encoding='utf-8'?>
<svg xmlns="http://www.w3.org/2000/svg" width="110" height="110" viewBox="0 0 110 110" fill="none" stroke="currentColor" stroke-width="1.5">
<path d="M20.2426 53.7733C20.2426 71.8992 36.9934 84.2523 55.1579 84.2523C73.3224 84.2523 89.7476 71.8992 89.7476 53.7733V34.645M89.7476 34.645V56.9288C89.7476 75.0547 73.3224 87.4078 55.1579 87.4078C36.9934 87.4078 20.2426 75.0547 20.2426 56.9288V34.645C20.2426 30.7006 22.605 27.5079 26.5578 27.5079C30.5014 27.5079 32.8731 30.7006 32.8731 34.645V53.7733C32.8731 65.3468 42.3506 71.6486 55.1486 71.6486H55.1579C67.6396 71.6486 77.1171 65.3375 77.1171 53.7733V34.645C77.1171 30.7006 79.4795 27.5079 83.4324 27.5079C87.6457 27.5079 89.7476 30.7006 89.7476 34.645ZM83.1069 47.7592H83.73M83.1069 47.7592C81.535 47.7592 80.2608 48.9564 80.2608 50.5249V53.0401C80.2608 54.6086 81.535 55.8801 83.1069 55.8801H83.73C85.3018 55.8801 86.5761 54.6086 86.5761 53.0401V50.5249C86.5761 48.9564 85.3018 47.7592 83.73 47.7592M83.1069 47.7592C81.535 47.7592 80.2608 46.4877 80.2608 44.9192V42.404C80.2608 40.8355 81.535 39.629 83.1069 39.629M83.73 47.7592C85.3018 47.7592 86.5761 46.4877 86.5761 44.9192V42.404C86.5761 40.8355 85.3018 39.629 83.73 39.629M83.1069 39.629H83.73M83.1069 39.629C81.535 39.629 80.2608 38.3575 80.2608 36.789V34.2738C80.2608 32.7053 81.535 31.4338 83.1069 31.4338H83.73C85.3018 31.4338 86.5761 32.7053 86.5761 34.2738V36.789C86.5761 38.3575 85.3018 39.629 83.73 39.629M26.0835 47.7499C24.5117 47.7499 23.2375 48.9657 23.2375 50.5342V53.0494C23.2375 54.6179 24.5117 55.8894 26.0835 55.8894H26.7067C28.2785 55.8894 29.5527 54.6179 29.5527 53.0494V50.5342C29.5527 48.9657 28.2785 47.7499 26.7067 47.7499M26.0835 47.7499H26.7067M26.0835 47.7499C24.5117 47.7499 23.2375 46.4784 23.2375 44.9099V42.3947C23.2375 40.8262 24.5117 39.6197 26.0835 39.6197M26.7067 47.7499C28.2785 47.7499 29.5527 46.4784 29.5527 44.9099V42.3947C29.5527 40.8262 28.2785 39.6197 26.7067 39.6197M26.0835 39.6197H26.7067M26.0835 39.6197C24.5117 39.6197 23.2375 38.3482 23.2375 36.7797V34.2645C23.2375 32.696 24.5117 31.4245 26.0835 31.4245H26.7067C28.2785 31.4245 29.5527 32.696 29.5527 34.2645V36.7797C29.5527 38.3482 28.2785 39.6197 26.7067 39.6197M26.3904 33.6613V37.1324M24.6512 35.3968H28.1297M26.3904 41.9214V45.3925M24.6512 43.6569H28.1297M26.3904 50.0516V53.5227M24.6512 51.7871H28.1297M83.4138 33.6613V37.1324M81.6838 35.3968H85.153M83.4138 41.9214V45.3925M81.6838 43.6569H85.153M83.4138 50.0516V53.5227M81.6838 51.7871H85.153M27.7297 59.9359L28.5203 63.0172M82.0745 59.9359L81.2839 63.0172M62.8869 78.5908L56.5716 79.157C55.6973 79.157 54.9905 78.4516 54.9905 77.5792C54.9905 76.7068 55.6973 76.0014 56.5716 76.0014L62.8869 75.4353C63.7611 75.4353 64.468 76.1406 64.468 77.013C64.468 77.8855 63.7611 78.5908 62.8869 78.5908ZM80.6235 68.3817L76.4289 72.5674C75.815 73.18 74.8105 73.18 74.1967 72.5674L74.0851 72.456C73.5084 71.8806 73.4619 70.9711 73.9734 70.3492L77.6287 65.8572C78.1309 65.2354 79.0331 65.0869 79.7028 65.5231L80.3538 65.9407C81.2002 66.479 81.3304 67.667 80.6235 68.3817ZM65.7639 74.4992L71.861 71.8966C72.5835 71.5882 73.4199 71.9226 73.729 72.6437L73.8534 72.9338C74.1625 73.6549 73.8273 74.4894 73.1047 74.7979L67.0076 77.4005C66.2851 77.7089 65.4487 77.3745 65.1396 76.6534L65.0152 76.3633C64.7061 75.6422 65.0413 74.8077 65.7639 74.4992ZM85.2646 59.0264L82.9673 64.762C82.6697 65.5045 81.8512 65.9129 81.0793 65.6901L79.74 65.3189C78.9122 65.0869 78.4192 64.2423 78.6332 63.407L80.1306 57.5878C80.3445 56.7711 81.163 56.2606 81.9908 56.4369L84.1393 56.901C85.0972 57.1052 85.6367 58.1261 85.2739 59.0264H85.2646ZM46.9267 78.5908L53.2419 79.157C54.1162 79.157 54.823 78.4516 54.823 77.5792C54.823 76.7068 54.1162 76.0014 53.2419 76.0014L46.9267 75.4353C46.0524 75.4353 45.3455 76.1406 45.3455 77.013C45.3455 77.8854 46.0524 78.5908 46.9267 78.5908ZM29.1807 68.3817L33.3753 72.5674C33.9892 73.18 34.9937 73.18 35.6075 72.5674L35.7192 72.456C36.2958 71.8806 36.3423 70.9711 35.8308 70.3492L32.1755 65.8572C31.6733 65.2354 30.7711 65.0869 30.1015 65.5231L29.4504 65.9407C28.604 66.479 28.4738 67.667 29.1807 68.3817ZM42.7873 77.3951L36.6903 74.7924C35.9677 74.484 35.6325 73.6494 35.9416 72.9284L36.066 72.6383C36.3751 71.9172 37.2114 71.5827 37.934 71.8912L44.0311 74.4938C44.7536 74.8022 45.0888 75.6368 44.7797 76.3579L44.6554 76.648C44.3463 77.369 43.5099 77.7035 42.7873 77.3951ZM24.5396 59.0264L26.8369 64.762C27.1345 65.5045 27.953 65.9129 28.7249 65.6901L30.0643 65.3189C30.892 65.0869 31.385 64.2423 31.1711 63.407L29.6736 57.5878C29.4597 56.7711 28.6412 56.2606 27.8135 56.4369L25.665 56.901C24.707 57.1052 24.1675 58.1261 24.5303 59.0264H24.5396ZM54.9428 97.2557L19.7331 85.4474L9.42786 27.695L18.2303 19.9662C20.5203 18.1771 26.7321 15.6724 33.2588 19.9662C39.7854 24.26 46.2835 25.6197 48.7167 25.7628H61.1688C63.602 25.6197 70.1001 24.26 76.6267 19.9662C83.1534 15.6724 89.3652 18.1771 91.6552 19.9662L100.458 27.695L90.1524 85.4474L54.9428 97.2557Z" stroke="currentColor" stroke-width="1.5" fill="none" />
</svg>