<?xml version='1.0' encoding='utf-8'?>
<svg xmlns="http://www.w3.org/2000/svg" width="110" height="110" viewBox="0 0 110 110" fill="none" stroke="currentColor" stroke-width="1.5">
<path d="M49.8646 15.6318L49.9645 15.5812C54.0383 13.5112 58.8714 13.5447 62.9159 15.6709M56.757 36.6237L54.4107 98.7251H39.4531C39.4531 98.7251 38.5462 37.5816 39.4531 19.1305C39.5997 16.1467 40.4794 11.55 40.4794 11.55H72.8876C72.8876 11.55 73.8097 16.1449 73.9139 19.1305C74.6699 40.7597 73.9139 98.7251 73.9139 98.7251H58.9564L56.757 36.6237ZM56.1704 14.4656L52.1106 16.8022C51.3565 17.2361 51.2361 18.2699 51.8705 18.8635C52.4892 19.4422 53.4905 19.2862 53.9014 18.5473L56.1704 14.4656ZM56.6101 14.4656L60.6699 16.8022C61.424 17.2361 61.5444 18.2699 60.91 18.8635C60.2913 19.4422 59.29 19.2862 58.8791 18.5473L56.6101 14.4656Z" stroke="currentColor" stroke-width="1.5" stroke-linecap="round" stroke-linejoin="round" fill="none" />
</svg>