<?xml version='1.0' encoding='utf-8'?>
<svg xmlns="http://www.w3.org/2000/svg" width="110" height="110" viewBox="0 0 110 110" fill="none" stroke="currentColor" stroke-width="1.5">
<path d="M48.9521 49.1156C50.005 48.5199 52.1717 47.709 54.1582 47.6115C56.5571 47.5032 59.2895 48.4658 60.4727 49.1156M86.5247 46.6259C87.9033 46.106 89.8383 45.5753 92.2915 45.6295C92.5954 45.6295 92.8994 45.6511 93.1924 45.6728C96.3729 45.9219 98.7719 48.5322 98.8153 51.554L98.9998 78.7071C99.0324 83.8301 94.6687 88 89.263 88H19.9109C14.5595 88 10.2066 83.8951 10.1741 78.8154L10.0004 51.7165C9.96782 48.9004 11.9868 46.3552 14.8851 45.8136H14.9502C18.5649 45.1421 21.238 45.7703 22.8988 46.6259M49.4037 34.9827C49.7077 34.3328 50.055 33.7047 50.4458 33.0981C51.2599 31.7876 51.6941 30.2171 51.5964 28.5383C51.5964 28.4517 51.5856 28.3758 51.5747 28.2892C51.2165 24.3576 47.8406 21.2708 43.8569 21.2599C41.3168 21.2599 39.059 22.473 37.637 24.3576C36.215 22.473 33.9572 21.2599 31.4171 21.2599C27.4334 21.2599 24.0575 24.3576 23.6993 28.2892C23.6993 28.3758 23.6884 28.4517 23.6776 28.5383C23.5799 30.2171 24.0141 31.7876 24.8282 33.0981C25.2515 33.7696 25.6315 34.4737 25.9571 35.1885C25.9571 35.1885 30.6247 30.542 36.0522 35.1885M60.606 34.7228C60.3021 34.0729 59.9547 33.4447 59.5639 32.8382C58.7498 31.5276 58.3156 29.9572 58.4133 28.2784C58.4133 28.1917 58.4242 28.1159 58.435 28.0293C58.7932 24.0976 62.1691 21.0108 66.1529 21C68.6929 21 70.9507 22.2131 72.3727 24.0976C73.7947 22.2131 76.0525 21 78.5926 21C82.5763 21 85.9522 24.0976 86.3104 28.0293C86.3104 28.1159 86.3213 28.1917 86.3321 28.2784C86.4298 29.9572 85.9956 31.5276 85.1815 32.8382C84.7582 33.5097 84.3783 34.2137 84.0526 34.9285C84.0526 34.9285 79.385 30.2821 73.9575 34.9285M50.5001 43.9074C50.5001 43.8207 50.4892 43.7449 50.4784 43.6583C50.1202 39.7266 46.7443 36.6398 42.7605 36.629C40.2205 36.629 37.9626 37.8421 36.5407 39.7266C35.1187 37.8421 32.8608 36.629 30.3208 36.629C26.337 36.629 22.9612 39.7266 22.6029 43.6583C22.6029 43.7449 22.5921 43.8207 22.5812 43.9074C22.4835 45.5862 22.9177 47.1566 23.7319 48.4672C25.9028 51.9439 26.9341 56.0163 26.4022 60.0887L26.0874 62.5474C25.8486 64.3886 28.0847 65.4825 29.3981 64.172L33.4904 57.2727C34.8581 54.9657 38.2123 54.9657 39.58 57.2727L43.6723 64.172C44.9858 65.4825 47.2219 64.3886 46.9831 62.5474L46.6683 60.0887C46.1473 56.0272 47.1676 51.9547 49.3386 48.4672C50.1527 47.1566 50.5869 45.5862 50.4892 43.9074H50.5001ZM86.8532 43.9074C86.8532 43.8207 86.8423 43.7449 86.8315 43.6583C86.4733 39.7266 83.0974 36.6398 79.1136 36.629C76.5736 36.629 74.3157 37.8421 72.8938 39.7266C71.4718 37.8421 69.2139 36.629 66.6739 36.629C62.6901 36.629 59.3143 39.7266 58.956 43.6583C58.94 43.8342 58.9452 43.8207 58.9343 43.9074C58.8366 45.5862 59.2708 47.1566 60.085 48.4672C62.2559 51.9439 63.2872 56.0163 62.7553 60.0887L62.4405 62.5474C62.2017 64.3886 64.4378 65.4825 65.7512 64.172L69.8435 57.2727C71.2113 54.9657 74.5654 54.9657 75.9331 57.2727L80.0254 64.172C81.3389 65.4825 83.575 64.3886 83.3362 62.5474L83.0214 60.0887C82.5004 56.0272 83.5207 51.9547 85.6917 48.4672C86.5058 47.1566 86.9509 45.5862 86.8532 43.9074Z" stroke="currentColor" stroke-width="1.5" stroke-linecap="round" stroke-linejoin="round" fill="none" />
</svg>