<?xml version='1.0' encoding='utf-8'?>
<svg xmlns="http://www.w3.org/2000/svg" id="Layer_1" data-name="Layer 1" width="110" height="110" viewBox="0 0 110 110">
  <path d="M44.5997,37.0269c-.2016-.2377-.4604-.4519-.7745-.6451l-1.2902-.6871c.504-1.4919,1.3121-2.8585,2.4234-4.0992l1.1894.7434c.9106.4881,1.7514.5192,2.5234.1008l1.8925-1.0886c.7493-.4544,1.1408-1.1953,1.1752-2.2227l-.0428-1.4625c.7644-.1428,1.5573-.215,2.3797-.215s1.6153.0723,2.3797.215l-.0286,1.4339c.0344,1.0324.4259,1.7783,1.176,2.2361l1.8774,1.0903c.772.4192,1.6128.3855,2.5234-.1008l1.2037-.7459c1.1131,1.2458,1.9211,2.6166,2.4234,4.1152l-1.2902.7014c-.8762.5376-1.3255,1.2391-1.3482,2.1068v2.1806c.0227.8778.4721,1.5893,1.3482,2.1353l1.2902.7022c-.5032,1.4977-1.3104,2.8695-2.4234,4.1143l-1.2037-.7585c-.9106-.4872-1.7514-.52-2.5234-.1008l-1.8774,1.1046c-.7502.4519-1.1416,1.1937-1.176,2.2218l.0286,1.433M78.6619,56.0942c1.6439-.6384,3.1391-1.6329,4.4873-2.9812,2.5461-2.5553,3.817-5.6373,3.8136-9.2476.0034-3.6002-1.2675-6.673-3.8136-9.2182-2.0908-2.0933-4.5377-3.3323-7.34-3.7128.1957-.6989.2915-1.4389.2873-2.2218.0067-2.1815-.7577-4.0454-2.2941-5.5919-1.5498-1.5388-3.418-2.3091-5.6054-2.3066-1.8573-.0058-3.4819.5485-4.8746,1.6615-.698-1.2222-1.5818-2.3696-2.6519-3.4398-3.0887-3.0862-6.8158-4.6301-11.1821-4.6301-4.3613,0-8.0842,1.5439-11.1679,4.6301-3.0862,3.0846-4.6301,6.8066-4.6305,11.1687-.0029.2058-.0029.4116,0,.6157-3.3533.1344-6.2353,1.4112-8.6449,3.827-2.5506,2.5452-3.8266,5.618-3.8275,9.2182.0004,2.4092.5687,4.5839,1.7056,6.5235M28.472,51.2624c-.1961.1991-.3205.4436-.373.7317-.0551.2898-.0832.4998-.0865.63.0046,3.0022,1.071,5.5642,3.1971,7.6852,2.0391,2.0387,4.4857,3.0996,7.3404,3.1811.0563.0025.1142.0025.1722,0,.0386.0008.0765.0008.1142,0,2.5796.1007,4.7973,1.0046,6.652,2.7106l10.3506,10.3355c1.6514,1.8026,2.5452,3.9488,2.6813,6.4377.0051.0706.0101.142.0143.215-.0009.0428-.0009.0849,0,.1277-.0017.0579-.0017.1167,0,.1722.0765,2.8493,1.1332,5.292,3.1676,7.3265,2.1261,2.1227,4.6923,3.182,7.6995,3.182.1294.0016.3393-.0227.63-.0715.2882-.0538.5317-.1772.7316-.3721l.4007-.4015-5.9489-5.9489,2.0211-6.1648,6.1791-2.0362,5.9498,5.949.4007-.4158c.1965-.2.3209-.4436.373-.73.0546-.2873.0832-.4922.0865-.6166,0-3.0021-1.0609-5.5642-3.1828-7.6851-1.8497-1.8463-4.0337-2.8921-6.552-3.1383-.263-.021-.5309-.0361-.8022-.0445-.0521-.0009-.1042-.0009-.1579,0-.0437-.0051-.0865-.0101-.1285-.0143-2.5796-.0966-4.7973-.9946-6.6529-2.694l-10.3505-10.3505c-1.7002-1.8513-2.5981-4.0631-2.6947-6.6386-.0042-.042-.0084-.0848-.0143-.1285.0009-.0571.0009-.1151,0-.1713-.0772-2.8551-1.1332-5.3021-3.1685-7.3408-2.121-2.1168-4.6822-3.1744-7.6844-3.1685-.1302-.0067-.3402.0126-.6308.058-.2873.0529-.5309.1764-.7308.373l-.4158.4149,5.9498,5.9498-2.0219,6.1648-6.1644,2.021-5.935-5.9355-.4154.4015ZM51.3516,42.3467c-.7543-.756-1.1323-1.6682-1.1323-2.7393,0-1.0701.378-1.9824,1.1323-2.7384.756-.7551,1.6683-1.1323,2.7384-1.1323s1.9833.3772,2.7384,1.1323c.7544.756,1.1323,1.6683,1.1323,2.7384,0,1.0711-.378,1.9833-1.1323,2.7393-.7551.7544-1.6683,1.1315-2.7384,1.1315s-1.9824-.3771-2.7384-1.1315ZM62.0323,59.9649l7.5978-7.5684-1.2617-1.2634,2.4805-4.9157,4.9031-2.4671,2.5234,2.5091-2.4806,4.9183-4.9031,2.4797-1.2617-1.2608M50.0328,79.7336l-12.2574,12.3003c-.6266.5964-1.3293,1.0072-2.1072,1.233-.478.1412-.9849.2125-1.5196.2159-.6703-.0034-1.2965-.1125-1.8778-.3301-.6371-.2394-1.2209-.6132-1.7493-1.1188l-.5443-.5301c-.6548-.6871-1.0848-1.4658-1.2902-2.3369-.1025-.409-.1554-.8391-.1579-1.2902.0067-.5401.0827-1.0516.2293-1.5338.2213-.7686.6275-1.4625,1.2189-2.0782l12.2998-12.2868" style="fill:none;fill-rule:evenodd;stroke:currentColor;stroke-linecap:round;stroke-linejoin:round;stroke-width:1.5" />
</svg>