<?xml version='1.0' encoding='utf-8'?>
<svg xmlns="http://www.w3.org/2000/svg" id="Layer_1" data-name="Layer 1" width="110" height="110" viewBox="0 0 110 110">
  <path d="M69.8758,31.4988l-.0449-5.5033-30.268.247.0449,5.5033-2.7516.0225c-3.0395.0248-5.4832,2.5087-5.4584,5.5482l.4267,52.281c.0248,3.0395,2.5087,5.4832,5.5482,5.4584l35.7712-.2919c3.0394-.0248,5.4832-2.5087,5.4584-5.5482l-.4267-52.281c-.0248-3.0395-2.5088-5.4832-5.5482-5.4584l-2.7516.0225h0Z" style="fill:none;stroke:currentColor;stroke-linecap:round;stroke-linejoin:round;stroke-width:1.5" />
  <rect x="34.0139" y="15.1122" width="41.2759" height="11.0069" transform="translate(-.1664 .4467) rotate(-.4676)" style="fill:none;stroke:currentColor;stroke-linecap:round;stroke-linejoin:round;stroke-width:1.5" />
  <g>
    <path d="M41.849,57.4421h0c-1.6173-2.3836-.9961-5.6272,1.3875-7.2445l14.3867-9.7617c2.3835-1.6173,5.6272-.9961,7.2445,1.3875h0c1.6173,2.3836.996,5.6272-1.3875,7.2445l-14.3867,9.7617c-2.3836,1.6173-5.6272.9961-7.2445-1.3875Z" style="fill:none;stroke:currentColor;stroke-linecap:round;stroke-linejoin:round;stroke-width:1.5" />
    <line x1="50.4298" y1="45.3167" x2="56.2868" y2="53.9487" style="fill:none;stroke:currentColor;stroke-linecap:round;stroke-linejoin:round;stroke-width:1.5" />
  </g>
  <g>
    <path d="M61.3559,82.3289h0c-2.8697.2495-5.3984-1.8747-5.6479-4.7445l-1.5057-17.3205c-.2495-2.8696,1.8748-5.3984,4.7445-5.6479h0c2.8697-.2495,5.3984,1.8748,5.6479,4.7445l1.5057,17.3205c.2495,2.8697-1.8748,5.3984-4.7445,5.6479Z" style="fill:none;stroke:currentColor;stroke-linecap:round;stroke-linejoin:round;stroke-width:1.5" />
    <line x1="54.9552" y1="68.9242" x2="65.3475" y2="68.0207" style="fill:none;stroke:currentColor;stroke-linecap:round;stroke-linejoin:round;stroke-width:1.5" />
  </g>
  <line x1="45.618" y1="63.3684" x2="45.618" y2="74.4799" style="fill:none;stroke:currentColor;stroke-linecap:round;stroke-linejoin:round;stroke-width:1.5" />
  <line x1="49.5465" y1="64.9957" x2="41.6896" y2="72.8526" style="fill:none;stroke:currentColor;stroke-linecap:round;stroke-linejoin:round;stroke-width:1.5" />
  <line x1="51.1738" y1="68.9242" x2="40.0623" y2="68.9242" style="fill:none;stroke:currentColor;stroke-linecap:round;stroke-linejoin:round;stroke-width:1.5" />
  <line x1="49.5465" y1="72.8526" x2="41.6896" y2="64.9957" style="fill:none;stroke:currentColor;stroke-linecap:round;stroke-linejoin:round;stroke-width:1.5" />
</svg>