<?xml version='1.0' encoding='utf-8'?>
<svg xmlns="http://www.w3.org/2000/svg" version="1.1" id="Layer_1" x="0px" y="0px" viewBox="0 0 110 110" style="enable-background:new 0 0 110 110;fill:none;stroke:currentColor;stroke-width:1.5" xml:space="preserve">
<path style="fill:none;stroke:currentColor;stroke-width:1.5" d="M55,95c22.09,0,40-17.907,40-40c0-22.09-17.91-40-40-40 M55,95  c-22.093,0-40-17.907-40-40c0-22.09,17.907-40,40-40 M55,95V15 M55,95c10.026,0,18.33-14.756,19.776-34.005 M55,95  c-7.832,0-14.614-9.005-17.897-22.122 M55,15c-11.045,0-20,17.91-20,40c0,2.752,0.139,5.439,0.404,8.035 M55,15  c10.37,0,18.897,15.789,19.901,36.001 M92.8,41.915c-16.469,0-28.901,0-41.801,0 M17.2,41.915c8.87,0,16.569,0,23.801,0   M92.8,68.077H40.999 M17.2,68.077h13.801 M41.001,41.915C41,41.943,41,41.972,41,42c0,2.761,2.239,5,5,5s5-2.239,5-5  c0-0.028,0-0.057-0.001-0.085 M41.001,41.915C41.046,39.193,43.267,37,46,37s4.954,2.193,4.999,4.915 M74.901,51.001  C72.185,51.054,70,53.272,70,56c0,2.687,2.119,4.878,4.776,4.995 M74.901,51.001C74.934,51,74.967,51,75,51c2.761,0,5,2.239,5,5  s-2.239,5-5,5c-0.075,0-0.149-0.002-0.224-0.005 M35.403,63.035C32.923,63.33,31,65.44,31,68c0,0.026,0,0.052,0.001,0.077   M35.403,63.035C35.599,63.012,35.798,63,36,63c2.761,0,5,2.239,5,5c0,0.026,0,0.052-0.001,0.077 M37.103,72.878  C36.748,72.958,36.379,73,36,73c-2.736,0-4.958-2.197-4.999-4.923 M37.103,72.878c2.206-0.497,3.86-2.452,3.896-4.8" />
</svg>