<?xml version='1.0' encoding='utf-8'?>
<svg xmlns="http://www.w3.org/2000/svg" version="1.1" id="Layer_1" x="0px" y="0px" viewBox="0 0 110 110" style="enable-background:new 0 0 110 110;fill:none;stroke:currentColor;stroke-width:1.5" xml:space="preserve">
<path style="fill:none;stroke:currentColor;stroke-width:1.5;stroke-linecap:round" d="M55.066,78.29c-3.185,0-5.768,2.582-5.768,5.768  c0,3.185,2.582,5.768,5.768,5.768c3.185,0,5.768-2.582,5.768-5.768C60.833,80.873,58.251,78.29,55.066,78.29z M55.066,78.29V51   M51,66h8 M51,60h8 M51,54h8 M51,48h8 M51,42h8 M51,36h8 M51,30h8 M63.989,75.795c-0.69-0.758-1.085-1.74-1.085-2.767V22.838  c0-4.329-3.509-7.838-7.838-7.838c-0.81,0-1.594,0.123-2.33,0.353c-0.246,0.078-0.486,0.165-0.719,0.262  c-2.813,1.189-4.786,3.976-4.786,7.223v50.189c0,1.027-0.395,2.009-1.089,2.767c-2.025,2.223-3.231,5.204-3.137,8.47  c0.175,6.173,5.12,11.306,11.286,11.691c7.019,0.441,12.848-5.12,12.848-12.044c0-3.127-1.192-5.975-3.143-8.12L63.989,75.795z" />
<path style="fill:none;stroke:currentColor;stroke-width:1.5" d="M33,71c0,0.552,0.448,1,1,1s1-0.448,1-1H33z M34.707,35.293c-0.39-0.39-1.024-0.39-1.414,0  l-6.364,6.364c-0.39,0.391-0.39,1.024,0,1.414c0.391,0.391,1.024,0.391,1.414,0L34,37.414l5.657,5.657  c0.391,0.391,1.024,0.391,1.414,0c0.391-0.391,0.391-1.024,0-1.414L34.707,35.293z M35,71V36h-2v35H35z" />
<path style="fill:none;stroke:currentColor;stroke-width:1.5" d="M75,36c0-0.552,0.448-1,1-1s1,0.448,1,1H75z M76.707,71.707c-0.391,0.391-1.024,0.391-1.414,0  l-6.364-6.364c-0.391-0.391-0.391-1.024,0-1.414c0.391-0.391,1.024-0.391,1.414,0L76,69.586l5.657-5.657  c0.391-0.391,1.024-0.391,1.414,0c0.391,0.391,0.391,1.024,0,1.414L76.707,71.707z M77,36v35h-2V36H77z" />
</svg>