<?xml version='1.0' encoding='utf-8'?>
<svg xmlns="http://www.w3.org/2000/svg" id="Layer_1" data-name="Layer 1" width="110" height="110" viewBox="0 0 110 110">
  <g>
    <path d="M87.1858,81.0401s-6.8582,6.2348-14.34,0c0,0-9.2275,3.6162-6.7336,17.0833,0,0,12.5942,4.3643,27.5577,0,0,0,2.3692-12.0955-6.4842-17.0833Z" style="fill:none;stroke:currentColor;stroke-miterlimit:10;stroke-width:1.5" />
    <path d="M68.9803,73.6831s-.0861,2.2701,1.7457,5.1125c0,0-7.357,4.3643-7.4817,12.7189,0,0-9.4769.3741-13.9659-1.621,0,0-3.2421-11.472,6.2348-17.208,0,0,6.3595,5.4866,13.4671.9976Z" style="fill:none;stroke:currentColor;stroke-miterlimit:10;stroke-width:1.5" />
    <circle cx="79.8288" cy="73.0596" r="7.7311" style="fill:none;stroke:currentColor;stroke-miterlimit:10;stroke-width:1.5" />
    <circle cx="62.8258" cy="64.9189" r="7.7311" style="fill:none;stroke:currentColor;stroke-miterlimit:10;stroke-width:1.5" />
  </g>
  <g>
    <circle cx="28.5481" cy="51.0189" r="5.2887" style="fill:none;stroke:currentColor;stroke-linecap:round;stroke-linejoin:round;stroke-width:1.5" />
    <path d="M35.1915,63.2815c-.4246-.489-1.1134-.6535-1.7105-.4028-.5672.2381-1.1546.4364-1.7587.5911-.6239.1598-1.0713.7013-1.1166,1.3437-.1158,1.6427-.3175,4.5058-.3175,4.5058l-6.0293-.4249.3172-4.5016c.0453-.6427-.3217-1.2455-.9173-1.4913-.5763-.2379-1.1299-.5164-1.658-.8317-.5561-.332-1.2611-.2657-1.7501.1589l-3.4109,2.9618-3.9651-4.5663,3.4109-2.9618c.489-.4246.6535-1.1134.4028-1.7105-.2381-.5672-.4364-1.1546-.5911-1.7587-.1598-.6239-.7013-1.0713-1.3437-1.1166-1.6427-.1158-4.5058-.3175-4.5058-.3175l.4249-6.0293,4.5016.3172c.6427.0453,1.2455-.3217,1.4913-.9173.2379-.5763.5164-1.1299.8317-1.658.332-.5561.2657-1.2611-.1589-1.7501l-2.9618-3.4109,4.5663-3.9651,2.9618,3.4109c.4246.489,1.1134.6535,1.7105.4028.5682-.2385,1.1565-.437,1.7617-.5918.6221-.1592,1.0682-.6992,1.1134-1.3398.1157-1.6422.3177-4.509.3177-4.509l6.0293.4249-.3172,4.5016c-.0453.6427.3217,1.2455.9173,1.4913.5763.2379,1.1299.5164,1.658.8317.5561.332,1.2611.2657,1.7501-.1589l3.4109-2.9618,3.9651,4.5663-3.4109,2.9618c-.489.4246-.6535,1.1134-.4028,1.7105" style="fill:none;stroke:currentColor;stroke-linecap:round;stroke-linejoin:round;stroke-width:1.5" />
  </g>
  <g>
    <ellipse cx="45.446" cy="22.2395" rx="3.7271" ry="3.9031" transform="translate(-2.5848 6.3344) rotate(-7.7534)" style="fill:none;stroke:currentColor;stroke-linecap:round;stroke-linejoin:round;stroke-width:1.5" />
    <path d="M36.485,17.8817l-2.5485-2.0321,2.5603-3.5336,2.5485,2.0321c.3654.2913.8647.3095,1.2393.041.3564-.2555.7326-.485,1.127-.6854.4053-.206.6328-.6616.5689-1.1312-.1639-1.2038-.45-3.3054-.45-3.3054l4.2206-.5746.4493,3.3c.0641.4711.4067.8532.8538.9437.4327.0876.8558.208,1.2667.3586.4327.1586.909.0076,1.1832-.3708l1.9125-2.6395,3.4118,2.7205-1.9125,2.6395c-.2742.3784-.2854.9003-.0239,1.2952.2484.3751.4722.7707.6686,1.1847.2028.4275.6426.6717,1.0923.6105,1.1499-.1566,3.1541-.4294,3.1541-.4294l.6018,4.4199-3.1512.4291c-.4499.0613-.8111.4147-.8922.8811-.0785.4513-.1884.8922-.3274,1.32-.1464.4505.004.9503.3693,1.2417l2.5485,2.0321-2.5603,3.5336-2.5485-2.0321c-.3654-.2913-.8647-.3095-1.2393-.041-.3558.2551-.7314.4842-1.125.6844-.4065.2067-.6346.6636-.5705,1.1345.164,1.2042.4497,3.303.4497,3.303l-4.2206.5746-.4493-3.3c-.0641-.4711-.4067-.8532-.8538-.9437-.4327-.0876-.8558-.208-1.2667-.3586-.4327-.1586-.909-.0076-1.1832.3708l-1.9125,2.6395-3.4118-2.7205,1.9125-2.6395c.2742-.3784.2854-.9003.0239-1.2952-.2484-.3751-.4722-.7707-.6686-1.1847-.2028-.4275-.6426-.6717-1.0923-.6105-1.1499.1566-3.1541.4294-3.1541.4294l-.6018-4.4199,3.1512-.4291c.4499-.0613.8111-.4147.8922-.8811.0785-.4513.1884-.8922.3274-1.32.1464-.4505-.004-.9503-.3693-1.2417Z" style="fill:none;stroke:currentColor;stroke-linecap:round;stroke-linejoin:round;stroke-width:1.5" />
  </g>
  <path d="M47.7658,74.2669l-5.0152,2.7865-3.7304-6.714,5.0152-2.7865c.719-.3995,1.104-1.2123.949-2.0201-.1472-.7673-.2396-1.5492-.2735-2.3405-.035-.8172-.5907-1.5152-1.3771-1.7398-2.011-.5745-5.5161-1.5758-5.5161-1.5758l2.1086-7.3812,5.511,1.5743c.7868.2248,1.6322-.0733,2.0938-.7489.4467-.6538.938-1.2687,1.4682-1.8423.5583-.604.6608-1.4975.2613-2.2165l-2.7865-5.0152,6.714-3.7304,2.7865,5.0152c.3995.719,1.2123,1.104,2.0201.949.7686-.1475,1.5518-.2399,2.3444-.2736.8148-.0347,1.5108-.5889,1.7348-1.3731.5743-2.0104,1.5769-5.52,1.5769-5.52l7.3812,2.1086-1.5743,5.511c-.2248.7868.0733,1.6322.7489,2.0938.6538.4467,1.2687.938,1.8423,1.4682.604.5583,1.4975.6608,2.2165.2613l5.0152-2.7865,3.7304,6.714-5.0152,2.7865c-.719.3995-1.104,1.2123-.949,2.0201.1472.7673.2396,1.5492.2735,2.3405" style="fill:none;stroke:currentColor;stroke-linecap:round;stroke-linejoin:round;stroke-width:1.5" />
</svg>