<?xml version='1.0' encoding='utf-8'?>
<svg xmlns="http://www.w3.org/2000/svg" id="Layer_1" data-name="Layer 1" width="110" height="110" viewBox="0 0 110 110">
  <path d="M43.7621,32.3905c0-13.3812,11.8134-24.2287,26.3861-24.2287s26.3861,10.8475,26.3861,24.2287-11.8134,24.2287-26.3861,24.2287c-2.4546,0-4.828-.3143-7.0828-.8902l-11.207,7.5958,1.0162-12.6277c-5.579-4.4424-9.1125-10.9936-9.1125-18.3067h0Z" style="fill:none;stroke:currentColor;stroke-linecap:round;stroke-linejoin:round;stroke-width:1.5" />
  <path d="M38.692,62.9593l.0199-.0096,17.1607,9.9268M21.5313,92.7003v-19.8142M21.5313,72.8861l6.3353-3.6614,4.6096-2.6737,6.2158-3.5918M27.8666,69.2248l17.1206,9.9371v6.1354l4.6096-2.6535v-6.1459l-17.1206-9.9467M25.8912,75.3905l12.8007,7.3926.0096.0102v15.055M55.8725,92.71v.0204l-17.1607,9.9166h-.0102l-.0096-.0099M38.692,102.6371l-17.1607-9.9169v-.0199M55.8725,72.8765v19.8335M32.1865,84.3998l-4.5795-2.6342" style="fill:none;stroke:currentColor;stroke-linecap:round;stroke-linejoin:round;stroke-width:1.5" />
  <circle cx="54.297" cy="33.5735" r="2.9264" style="fill:none;stroke:currentColor;stroke-linecap:round;stroke-linejoin:round;stroke-width:1.5" />
  <circle cx="64.2954" cy="33.5735" r="2.9264" style="fill:none;stroke:currentColor;stroke-linecap:round;stroke-linejoin:round;stroke-width:1.5" />
  <circle cx="74.2938" cy="33.5735" r="2.9264" style="fill:none;stroke:currentColor;stroke-linecap:round;stroke-linejoin:round;stroke-width:1.5" />
  <circle cx="84.2922" cy="33.5735" r="2.9264" style="fill:none;stroke:currentColor;stroke-linecap:round;stroke-linejoin:round;stroke-width:1.5" />
</svg>