<?xml version='1.0' encoding='utf-8'?>
<svg xmlns="http://www.w3.org/2000/svg" width="110" height="110" viewBox="0 0 110 110" fill="none" stroke="currentColor" stroke-width="1.5">
<path d="M58.3897 45.9277C63.1384 42.3541 73.083 34.9068 74.8718 33.7056C77.6445 31.8437 85.0279 24.6757 88.988 20.9115C89.3071 18.1561 91.0623 17.7359 92.4303 17.8714C93.4729 17.9747 94.3161 18.7638 94.4063 19.8078C94.5224 21.1523 94.0128 22.8429 91.1915 23.115C87.7761 26.7262 80.6615 34.2627 78.1771 37.0108C75.9624 39.4605 68.864 48.4784 65.3674 52.9054M58.3897 45.9277L22.6234 80.6958C22.0313 81.2713 22.0163 82.2118 22.59 82.7855L23.0892 83.2847M58.3897 45.9277L65.3674 52.9054M23.0892 83.2847L19.7254 86.6485M23.0892 83.2847L27.4962 87.6917M19.7254 86.6485L19.5051 86.4282C18.7749 85.698 17.5806 85.7085 16.8375 86.4516L15.7162 87.5729M19.7254 86.6485L24.1324 91.0555M15.7162 87.5729L23.208 95.0647M15.7162 87.5729C15.7162 90.0999 15.6901 90.9797 17.4497 92.7392C19.5051 94.7946 20.5289 95.0647 23.208 95.0647M23.208 95.0647L24.3293 93.9434C25.0724 93.2003 25.0829 92.006 24.3527 91.2758L24.1324 91.0555M24.1324 91.0555L27.4962 87.6917M27.4962 87.6917L28.0103 88.2059C28.5782 88.7738 29.5071 88.7656 30.0851 88.1876L65.3674 52.9054" stroke="currentColor" stroke-width="1.5" fill="none" />
</svg>