<?xml version='1.0' encoding='utf-8'?>
<svg xmlns="http://www.w3.org/2000/svg" width="110" height="110" viewBox="0 0 110 110" fill="none" stroke="currentColor" stroke-width="1.5">
<path d="M7.78381 66.6826C18.4766 66.6826 23.28 57.9079 23.28 47.0699M23.28 47.0699H37.802C40.5788 47.0699 42.8181 44.7005 42.639 41.8437C42.471 39.2362 40.2205 37.2636 37.6453 37.2636H8.75792M23.28 47.0699L23.28 47.1833M23.28 47.0699C25.7656 47.0699 29 52 28.1169 56.8762L20.3688 90.2178M52.3353 61.7737C55.0066 61.7737 57.1722 59.5811 57.1722 56.8762C57.1722 54.1714 55.0066 51.9674 52.3353 51.9674H37.802C35.1306 51.9674 32.9651 54.1601 32.9651 56.8649C32.9651 59.5697 35.1306 61.7737 37.802 61.7737M52.3353 61.7737H37.802M52.3353 61.7737C55.0066 61.7737 57.1722 63.9664 57.1722 66.6712C57.1722 69.3761 55.0066 71.5801 52.3353 71.5801M37.802 61.7737C35.1306 61.7737 32.9651 63.9664 32.9651 66.6712C32.9651 69.3761 35.1306 71.5801 37.802 71.5801H52.3353M52.3353 71.5801H42.639C39.9676 71.5801 37.802 73.7728 37.802 76.4776C37.802 79.1824 39.9676 81.3864 42.639 81.3864H52.3353M52.3353 71.5801C55.0066 71.5801 57.1722 73.7728 57.1722 76.4776C57.1722 79.1824 55.0066 81.3864 52.3353 81.3864M52.3353 81.3864L54.2723 90.2064M18.4318 37.2636C18.4318 31.8446 22.7649 27.4573 28.1169 27.4573H71.6942M71.6942 27.4573V37.2636M71.6942 27.4573H76.5312V37.2636H71.6942M71.6942 37.2636H62.0091V42.1611M62.0091 51.9674V66.6712C57.1722 66.6712 57.1722 51.9674 57.1722 51.9674M57.1722 42.1611V37.2636H52.3353V42.1611M102.216 32.3548H97.2786M93.4269 32.3548H88.4892M84.6488 32.3548H79.711M100.089 19.7936L95.6327 21.9476M92.1505 23.6141L87.6942 25.7681M84.2233 27.4459L79.767 29.5886M100.089 44.4738L95.6327 42.3311M92.1505 40.6533L87.6942 38.4993M84.2233 36.8328L79.767 34.6788M47.4871 42.1611H62.0203C64.6917 42.1611 66.8573 44.3651 66.8573 47.0699C66.8573 49.7747 64.6917 51.9674 62.0203 51.9674H47.4871C44.8157 51.9674 42.6502 49.7634 42.6502 47.0586C42.6502 44.3538 44.8157 42.1611 47.4871 42.1611Z" stroke="currentColor" stroke-width="1.5" stroke-linecap="round" stroke-linejoin="round" fill="none" />
</svg>