<?xml version='1.0' encoding='utf-8'?>
<svg xmlns="http://www.w3.org/2000/svg" version="1.1" id="Layer_1" x="0px" y="0px" viewBox="0 0 110 110" style="enable-background:new 0 0 110 110;fill:none;stroke:currentColor;stroke-width:1.5" xml:space="preserve">
<path style="fill:none;stroke:currentColor;stroke-width:1.5" d="M30.508,36.297h5.541H30.508z" />
<path style="fill:none;stroke:currentColor;stroke-width:1.5" d="M41.088,64.32H19.94l2.251,5.952h16.646L41.088,64.32z" />
<path style="fill:none;stroke:currentColor;stroke-width:1.5" d="M79.77,36.319c-0.632,0-5.82,0-5.82,0H79.77z" />
<path style="fill:none;stroke:currentColor;stroke-width:1.5;stroke-linecap:round;stroke-linejoin:round" d="M57.953,27.658  l-0.702,19.248 M52.032,27.658l0.549,19.248 M45.128,43.489c-0.139-0.464,0.011-0.906,0.139-1.186  c0.236,0.021,0.568,0.065,0.986,0.086c1.233,0.086,1.844,0.14,2.262,0.022c0.782-0.205,1.811-0.895,1.876-1.801  c0.054-0.765-0.59-1.359-0.9-1.65c-1.297-1.197-3.43-1.542-5.209-0.841c-0.89,0.356-1.801,0.981-2.315,1.811  c-0.043,0.065-0.075,0.129-0.118,0.205c-0.665,1.272-0.825,2.792-0.429,4.173c0.493,1.682,1.79,2.847,3.248,3.698  c1.694,0.992,3.537,1.757,5.327,2.566c0,0.065,1.04,0.485,1.147,0.539c0.45,0.216,0.89,0.442,1.318,0.669  c0.847,0.453,1.683,0.949,2.465,1.509 M54.925,53.29c0.021,0.011,0.043,0.032,0.075,0.043c0.386,0.28,0.761,0.582,1.104,0.906  c1.447,1.337,2.347,3.299,1.361,5.078c-0.493,0.895-1.49,1.79-2.465,2.297l-0.107,0.065c0.654,0.464,1.34,0.884,2.015,1.315  c0.643,0.399,1.318,0.819,1.972,1.272l0.311-0.205c0.461-0.313,4.073-2.803,4.127-6.965c0.032-2.652-1.372-4.863-3.43-6.523  c-0.847-0.679-2.219-1.315-4.973-2.609 M54.925,53.29c-0.386,0.28-0.825,0.636-1.168,0.96c-1.19,1.111-2.154,2.771-1.64,4.442  c0.268,0.83,0.954,1.445,1.586,2.027c0.375,0.345,0.782,0.669,1.2,0.96 M54.914,47.963c-1.318-0.625-1.972-0.927-2.615-1.164  c-0.514-0.194-1.222-0.485-3.58-1.348 M54.914,47.963c1.318-0.625,1.994-0.938,2.637-1.175c0.514-0.194,1.222-0.485,3.58-1.348   M64.732,43.489c0.139-0.464-0.011-0.906-0.139-1.186c-0.236,0.021-0.568,0.065-0.986,0.086c-1.233,0.097-1.844,0.14-2.262,0.032  c-0.782-0.216-1.811-0.895-1.876-1.801c-0.054-0.766,0.59-1.359,0.9-1.65c1.297-1.197,3.43-1.531,5.209-0.841  c0.89,0.356,1.801,0.981,2.315,1.811c0.043,0.065,0.075,0.14,0.118,0.205c0.664,1.272,0.825,2.793,0.429,4.173  c-0.482,1.682-1.79,2.847-3.248,3.698c-1.683,0.992-3.526,1.747-5.295,2.555 M62.342,68.341c0,0,0,0,0-0.011 M50.831,64.384  c-1.672,1.208-3.173,2.771-3.43,4.992c-0.107,0.949,0.032,1.908,0.364,2.803c0.332,0.873,0.836,1.671,1.468,2.34  c0.664,0.701,1.533,1.186,2.326,1.736c0.804,0.561,1.618,1.121,2.433,1.65c0.397,0.259,0.793,0.55,1.158,0.852 M55.15,78.757  c-0.386,0.324-0.729,0.679-1.04,1.1c-1.008,1.337-0.118,2.965,0.943,3.989h0.214c1.061-1.024,1.951-2.642,0.943-3.989  C55.9,79.447,55.547,79.091,55.15,78.757z M59.116,76.072c0.054-0.032,0.107-0.076,0.161-0.119c0.697-0.571,1.351-1.208,1.876-1.93   M58.891,64.266c0.107,0.076,0.204,0.14,0.311,0.216c1.383,0.992,2.615,2.178,3.13,3.849c0,0,0,0,0,0.011  c0.107,0.324,0.171,0.669,0.214,1.035c0.193,1.66-0.375,3.332-1.415,4.647 M49.962,50.562c-2.069,1.661-3.462,3.871-3.43,6.523  c0.043,3.526,2.905,6.415,5.606,8.281c1.618,1.121,3.419,2.016,4.759,3.493c1.726,1.898-0.118,3.569-1.715,4.604 M51.27,76.072  c-0.911,0.766-1.597,1.671-1.897,2.911c-0.375,1.553,0.118,2.922,0.375,3.45c1.05,2.135,3.323,2.728,3.719,2.825L55.193,93  l1.726-7.742c0,0,0.054-0.011,0.097-0.022c0.204-0.054,2.583-0.722,3.623-2.803c0.257-0.518,0.761-1.898,0.375-3.45  c-0.782-3.191-4.094-4.119-7.085-6.415c-0.836-0.647-1.64-1.79-1.318-2.911c0.322-1.11,1.479-1.822,2.38-2.415 M42.224,39.575  l-2.562-3.817 M39.662,35.758c-1.779,0.863-3.023,0.69-3.612,0.539 M39.662,35.758l1.672-0.938 M36.05,36.297  c-1.383-0.345-2.744-1.445-4.395-2.76c-0.021-0.011-0.032-0.021-0.043-0.032 M36.05,36.297h-5.541 M31.612,33.505  c-0.461,0.043-1.34,0.065-2.326-0.334c-0.332-0.129-0.9-0.399-1.468-0.917c-0.933-0.841-1.318-1.801-1.468-2.307 M31.612,33.505  c2.958-0.442,5.499-2.361,8.06-3.785 M26.35,29.947C18.761,30.033,18,25.709,18,25.709c6.538-0.474,15.049-4.507,19.797-7.019  c0.868-0.464,1.822-0.69,2.765-0.69c1.436,0,2.851,0.517,3.966,1.531c1.276,1.164,1.962,2.782,1.962,4.421  c0,0.917-0.214,1.833-0.643,2.685c-0.804,1.596,0.354,3.472,2.122,3.472h4.152 M26.35,29.947c0.279-0.043,0.686-0.119,1.168-0.226  c2.154-0.485,3.826-1.24,7.203-3.094c1.286-0.701,2.83-1.563,4.545-2.577 M57.863,30.13h4.168c1.769,0,2.926-1.887,2.122-3.472  c-0.429-0.852-0.643-1.779-0.643-2.685c0-1.65,0.675-3.267,1.962-4.421c1.115-1.014,2.53-1.531,3.966-1.531  c0.943,0,1.887,0.226,2.765,0.69c4.748,2.512,13.259,6.545,19.797,7.019c0,0-0.793,4.291-8.382,4.205 M83.618,29.936  c-0.15,0.507-0.504,1.499-1.436,2.34c-0.568,0.518-1.136,0.787-1.468,0.917c-0.986,0.399-1.886,0.356-2.347,0.313 M83.618,29.936  c-0.279-0.043-0.675-0.119-1.168-0.226c-2.154-0.485-3.816-1.24-7.203-3.094c-1.286-0.701-2.819-1.563-4.545-2.577 M78.366,33.505  c-1.64,1.326-3.033,2.48-4.416,2.814 M78.366,33.505c-2.958-0.442-5.499-2.361-8.06-3.785 M73.95,36.319  c-0.579,0.14-1.844,0.291-3.634-0.561 M73.95,36.319c0,0,5.188,0,5.82,0 M70.317,35.758l-2.658,3.838 M70.317,35.758l-1.661-0.938   M30.508,36.297L41.088,64.32 M30.508,36.297L19.94,64.32 M41.088,64.32H19.94 M41.088,64.32l-2.251,5.952H22.191L19.94,64.32   M79.77,36.319L69.202,64.32 M79.77,36.319L90.349,64.32 M69.202,64.32h21.148 M69.202,64.32l2.251,6.75h16.646l2.251-6.75   M59.845,21.272c1.11,2.696-0.163,5.786-2.842,6.903c-2.68,1.117-5.752-0.163-6.862-2.859c-1.11-2.696,0.163-5.786,2.842-6.903  C55.662,17.296,58.735,18.576,59.845,21.272z" />
</svg>