<?xml version='1.0' encoding='utf-8'?>
<svg xmlns="http://www.w3.org/2000/svg" width="110" height="110" viewBox="0 0 110 110" fill="none" stroke="currentColor" stroke-width="1.5">
<path d="M54.5738 94.0914C52.1549 94.0914 50.1939 96.0857 50.1939 98.5457C50.1939 101.006 52.1549 103 54.5738 103C56.9927 103 58.9537 101.006 58.9537 98.5457C58.9537 96.0857 56.9927 94.0914 54.5738 94.0914ZM54.5738 94.0914V77.965M27.6446 62.6297C29.4662 62.6297 30.9411 61.1255 30.9411 59.27V44.1732C30.9411 42.3177 29.4644 40.8135 27.6429 40.8135C25.8213 40.8135 24.3446 42.3177 24.3446 44.1732V59.27C24.3446 61.1255 25.8231 62.6297 27.6446 62.6297ZM27.6446 62.6297C27.6446 66.618 31.0415 69.7943 34.9631 69.7943M82.3672 62.6297C80.5456 62.6297 79.069 61.1255 79.069 59.27V44.1732C79.069 42.3177 80.5456 40.8135 82.3672 40.8135C84.1887 40.8135 85.6654 42.3177 85.6654 44.1732V59.27C85.6654 61.1255 84.1887 62.6297 82.3672 62.6297ZM82.3672 62.6297C82.3672 66.618 78.9799 69.7943 75.0583 69.7943M30.9411 55.7586C30.9411 57.601 29.4598 59.1183 27.6375 59.1183C25.8259 59.1183 24.334 57.6119 24.334 55.7586M79.0583 55.7586C79.0583 57.601 80.5396 59.1183 82.3619 59.1183C84.1735 59.1183 85.6654 57.6119 85.6654 55.7586M57.8773 46.8067V52.6374M51.5899 46.8067V52.6374M33.41 94.2035C35.6798 89.0881 44.2476 85.1749 54.5738 85.1749C64.9 85.1749 73.1587 89.0881 75.4285 94.2035M55.9272 98.4048C55.9272 99.171 55.3165 99.7921 54.5631 99.7921C53.8098 99.7921 53.1991 99.171 53.1991 98.4048C53.1991 97.6387 53.8098 97.0176 54.5631 97.0176C55.3165 97.0176 55.9272 97.6387 55.9272 98.4048ZM36.8093 98.5457C36.8093 101.006 34.8483 103 32.4294 103C30.0105 103 28.0496 101.006 28.0496 98.5457C28.0496 96.0857 30.0105 94.0914 32.4294 94.0914C34.8483 94.0914 36.8093 96.0857 36.8093 98.5457ZM33.7935 98.4048C33.7935 99.171 33.1828 99.7921 32.4294 99.7921C31.6761 99.7921 31.0654 99.171 31.0654 98.4048C31.0654 97.6387 31.6761 97.0176 32.4294 97.0176C33.1828 97.0176 33.7935 97.6387 33.7935 98.4048ZM46.6986 46.8067C41.3063 46.8067 37.2249 41.8648 38.1627 36.4676L40.5817 18.9865C41.3063 14.7706 44.9083 11.6927 49.1176 11.6927H59.8275C64.0475 11.6927 67.6494 14.7814 68.3741 19.0081L70.7505 36.4893C71.667 41.8756 67.5855 46.8067 62.2039 46.8067H46.6986ZM46.6986 42.114C41.3063 42.114 37.2249 37.172 38.1627 31.7749L40.5817 14.2937C41.3063 10.0779 44.9083 7 49.1176 7H59.8275C64.0475 7 67.6494 10.0887 68.3741 14.3154L70.7505 31.7966C71.667 37.1829 67.5855 42.114 62.2039 42.114H46.6986ZM44.9829 57.0808H65.0386C70.7063 57.0808 75.3009 61.7535 75.3009 67.5175C75.3009 73.2815 70.7063 77.965 65.0386 77.965H44.9829C39.3152 77.965 34.7206 73.2923 34.7206 67.5283C34.7206 61.7643 39.3152 57.0808 44.9829 57.0808ZM44.9829 52.6374H65.0386C70.7063 52.6374 75.3009 57.31 75.3009 63.0741C75.3009 68.8381 70.7063 73.5216 65.0386 73.5216H44.9829C39.3152 73.5216 34.7206 68.8381 34.7206 63.0741C34.7206 57.31 39.3152 52.6374 44.9829 52.6374ZM80.789 98.5457C80.789 101.006 78.8282 103 76.4091 103C73.9901 103 72.0293 101.006 72.0293 98.5457C72.0293 96.0856 73.9901 94.0914 76.4091 94.0914C78.8282 94.0914 80.789 96.0856 80.789 98.5457ZM77.7732 98.4048C77.7732 99.171 77.1625 99.7921 76.4091 99.7921C75.6558 99.7921 75.0451 99.171 75.0451 98.4048C75.0451 97.6387 75.6558 97.0176 76.4091 97.0176C77.1625 97.0176 77.7732 97.6387 77.7732 98.4048Z" stroke="currentColor" stroke-width="1.5" stroke-miterlimit="10" fill="none" />
</svg>