<?xml version='1.0' encoding='utf-8'?>
<svg xmlns="http://www.w3.org/2000/svg" id="Layer_1" data-name="Layer 1" width="110" height="110" viewBox="0 0 110 110">
  <path d="M23.2027,44.0278c-1.9264-1.9236-1.9772-5.0678-.0408-6.9914l9.0697-9.057c1.9263-1.9236,4.9377-1.9178,6.864.0058M82.2256,71.0461c1.9263,1.9236,2.2974,5.294.3711,7.2276l-9.0697,9.057c-1.9263,1.9236-5.686,1.4843-7.6123-.4393M81.5543,71.2518l-3.2316,3.6456M78.3227,74.8974l-1.9965,1.9937c-3.341,3.0858-5.8191,5.7408-7.5247,7.434-5.9595,5.9211-13.9357,9.4677-21.7714,11.0206-9.3506,1.8535-18.5006.8516-23.7478-2.4245-2.8895-1.8034-5.1871-4.4283-6.7723-7.444-3.9228-7.494-4.1937-15.2886-2.5884-22.392,2.147-9.5579,7.6952-17.8635,12.3003-22.4621,3.7623-3.757,5.7689-5.5103,6.7722-6.5623l5.6886-5.6806,5.9696-5.7107c11.6984-11.6719,30.791-11.5417,42.6398.2905,11.8589,11.8422,11.9893,30.8979.291,42.5798l-5.8392,6.0013-1.4246,1.3626-1.9966,1.9937ZM42.3464,31.0913l37.1166,37.1166M42.0389,27.8561l.8936-.0023c1.0114-.0026,1.9804.3966,2.6937,1.11l36.3435,36.3435c.7876.7876,1.093,1.9377.8012,3.0171l-.0196.0723c-.1305.483-.3858.9237-.74,1.278l-8.6517,8.6516c-3.2444,3.2444-11.0746,4.0658-16.5707-1.4303-5.0693-5.0692-5.4432-13.0633-1.1357-18.6094.6974-.898,1.2623-2.0477.8183-3.0891-.2447-.5742-.6159-.9406-1.1731-1.1688-1.0118-.4143-2.1135.1531-2.9775.8308-5.5481,4.3514-13.5771,3.9914-18.6627-1.0941-5.496-5.4961-4.8202-12.9312-1.5744-16.7149l8.6516-8.6516c.3463-.3463.8151-.5415,1.3035-.5428Z" style="fill:none;stroke:currentColor;stroke-linecap:round;stroke-linejoin:round;stroke-width:1.5" />
</svg>