<?xml version='1.0' encoding='utf-8'?>
<svg xmlns="http://www.w3.org/2000/svg" width="110" height="110" viewBox="0 0 110 110" fill="none" stroke="currentColor" stroke-width="1.5">
<path d="M73.2213 42.7992L73.3233 40.1402C73.3342 39.5647 73.5828 39.0136 74.0069 38.6246L74.1998 38.4408C74.5678 38.0889 75.1783 38.3548 75.1845 38.8707L75.1966 40.8054M77.6685 38.2822L77.8171 35.6327C77.828 35.0572 78.0582 34.6431 78.4721 34.2569L78.665 34.0731C79.033 33.7212 79.6721 33.8473 79.6653 34.3556L79.732 36.1656M68.9539 47.1249L69.0137 44.1028C69.0659 43.6814 69.3145 43.1303 69.7386 42.7414L69.9315 42.5576C70.2995 42.2057 70.9101 42.4715 70.9162 42.9874L70.8937 45.1627M64.5142 51.6289L64.6455 48.2574C64.6564 47.6818 64.9049 47.1307 65.3291 46.7418L65.522 46.558C65.89 46.2061 66.5005 46.472 66.5067 46.9878L66.5251 49.6036M91.3462 45.2101L59.3073 65.6766M91.3462 45.2101L82.0757 32.014C81.3649 31.0042 79.923 30.84 79.0139 31.6782L63.3994 45.9485C59.8888 48.662 58.0284 48.4558 54.9654 46.6778C51.9024 44.8999 50.7834 43.3938 51.3797 39.0057L55.9252 18.3418C56.1962 17.135 55.3331 15.9678 54.1036 15.8568L38.0455 14.4226M91.3462 45.2101C91.9672 46.0898 91.9303 47.2669 91.0984 47.9413C77.9921 58.6325 62.2459 71.6718 46.8925 62.8033L45.2126 61.833C29.8592 52.9646 33.3968 32.0311 35.9745 16.1007M38.0455 14.4226C36.9735 14.3245 36.1423 15.0427 35.9745 16.1007M38.0455 14.4226L36.4165 52.1325M35.9745 16.1007L32.0328 39.6751C31.1899 48.2365 32.3904 62.9453 41.9331 68.4486L42.6493 68.8624C52.1817 74.3684 65.517 68.0645 72.5065 63.0534L91.1114 47.9488M34.1559 58.6073C33.1334 64.486 29.983 69.7347 27.1765 74.5829L22.8092 82.1507C20.013 86.9961 21.6702 93.1809 26.5118 95.9688C31.3561 98.767 37.5384 97.1105 40.3244 92.2678L44.6916 84.7C47.4878 79.8545 50.4065 74.5093 54.9738 70.6868M52.9179 15.745L45.8172 41.1679C44.8981 45.3782 46.1473 49.5472 51.3172 52.5334L51.7078 52.759C56.8777 55.7453 61.1213 54.7403 64.296 51.8416L82.8051 33.0518M49.3383 28.5524L51.3647 27.4478C51.8575 27.1506 52.2102 26.6597 52.3348 26.0978L52.3975 25.8387C52.5181 25.3439 51.9827 24.9479 51.533 25.2005L50.0724 25.9112M51.031 22.5051L53.0224 21.3108C53.5151 21.0136 53.8679 20.5227 53.9925 19.9607L54.0552 19.7017C54.1757 19.2069 53.6403 18.8108 53.1907 19.0634L51.7481 19.9235M47.6142 34.7292L50.0894 33.1631C50.4281 32.9072 50.7808 32.4162 50.9054 31.8543L50.9681 31.5953C51.0887 31.1005 50.5533 30.7044 50.1036 30.957L48.3579 32.0414M45.8751 40.9321L48.7972 39.1031C49.2899 38.8059 49.6427 38.315 49.7673 37.753L49.83 37.494C49.9505 36.9992 49.4151 36.6031 48.9655 36.8557L46.6529 38.125M43.6642 34.6607C43.6642 34.6607 38.4838 32.1738 42.4554 27.4079C45.4774 23.7814 47.6305 23.0632 43.6642 18.3418" stroke="currentColor" stroke-width="1.5" stroke-miterlimit="10" stroke-linecap="round" fill="none" />
<path d="M71.3456 51.4441C71.3456 51.4441 76.3315 54.3011 78.0052 48.3273C79.2788 43.7818 78.6497 41.6011 84.7876 42.191" stroke="currentColor" stroke-width="1.5" stroke-miterlimit="10" stroke-linecap="round" fill="none" />
<path d="M67 89.9577C67 94.6312 63.8653 98.4175 60 98.4175C56.1347 98.4175 53 94.6312 53 89.9577C53 85.2842 60 76.4175 60 76.4175C60 76.4175 67 85.2842 67 89.9577Z" stroke="currentColor" stroke-width="1.5" stroke-linecap="round" stroke-linejoin="round" fill="none" />
</svg>