<?xml version='1.0' encoding='utf-8'?>
<svg xmlns="http://www.w3.org/2000/svg" width="110" height="110" viewBox="0 0 110 110" fill="none" stroke="currentColor" stroke-width="1.5">
<path d="M13.7588 54.6377C13.7496 54.2236 13.4064 53.8954 12.9922 53.9046C12.5781 53.9139 12.2499 54.2571 12.2592 54.6712L13.7588 54.6377ZM13.5381 78.3659L14.2879 78.3809L14.2882 78.3651L14.2879 78.3492L13.5381 78.3659ZM15.0568 81.7616L14.5206 82.286L14.5335 82.2991L14.547 82.3116L15.0568 81.7616ZM25.9987 91.9024L26.5311 91.3742L26.5201 91.3631L26.5085 91.3523L25.9987 91.9024ZM40.4383 94.0664L40.1776 93.3632L40.1771 93.3634L40.4383 94.0664ZM91.9375 74.9818L91.6773 74.2784L91.6769 74.2785L91.9375 74.9818ZM96.9999 69.4567L97.75 69.4527L97.7498 69.4415L96.9999 69.4567ZM97.2207 43.3814C97.2123 42.9672 96.8697 42.6383 96.4556 42.6468C96.0415 42.6552 95.7126 42.9977 95.721 43.4118L97.2207 43.3814ZM18.5587 47.948L18.796 48.6595L18.8138 48.6535L18.8314 48.6467L18.5587 47.948ZM68.8023 28.4823L68.5417 27.779L68.5331 27.7822L68.5244 27.7856L68.8023 28.4823ZM79.7327 29.0578L79.2966 29.668L79.2971 29.6683L79.7327 29.0578ZM95.0633 39.9941L95.5958 39.4659L95.5508 39.4206L95.4989 39.3835L95.0633 39.9941ZM91.5196 48.8228L91.259 48.1195L91.2533 48.1216L91.5196 48.8228ZM40.0203 68.3793L40.2809 69.0826L40.2865 69.0805L40.0203 68.3793ZM24.7868 65.4211L25.3192 64.8929L25.2799 64.8533L25.2352 64.8199L24.7868 65.4211ZM14.0138 57.3867L13.3961 57.8121L13.4663 57.914L13.5654 57.9879L14.0138 57.3867ZM27.7152 56.6833C27.7152 57.0976 28.051 57.4333 28.4652 57.4333C28.8794 57.4333 29.2152 57.0975 29.2152 56.6833L27.7152 56.6833ZM29.2151 50.4242C29.2151 50.01 28.8793 49.6742 28.4651 49.6742C28.0509 49.6742 27.7151 50.01 27.7151 50.4242H29.2151ZM27.2706 50.4485L27.2705 51.1985L27.2705 51.1985L27.2706 50.4485ZM29.3599 50.4487L29.3598 51.1987L29.3598 51.1987L29.3599 50.4487ZM30.834 48.839L31.5812 48.7737L31.5807 48.7688L30.834 48.839ZM30.4631 45.788L29.7208 45.8951L29.7209 45.8957L30.4631 45.788ZM28.6006 37.1152L29.321 36.9067C29.2316 36.5978 28.9551 36.3802 28.6337 36.366C28.3124 36.3518 28.0177 36.544 27.9014 36.8439L28.6006 37.1152ZM26.175 45.9983L25.4349 45.8772L25.4347 45.8782L26.175 45.9983ZM25.8046 48.8639L25.0584 48.7887L25.0582 48.7908L25.8046 48.8639ZM47.2745 57.8344C47.2745 58.2486 47.6103 58.5844 48.0245 58.5844C48.4387 58.5844 48.7745 58.2486 48.7745 57.8344L47.2745 57.8344ZM48.7745 54.334C48.7745 53.9198 48.4387 53.584 48.0245 53.584C47.6103 53.584 47.2745 53.9198 47.2745 54.334H48.7745ZM47.3564 54.3476H48.1064C48.1064 53.9334 47.7707 53.5976 47.3565 53.5976L47.3564 54.3476ZM48.5249 54.3477L48.5249 53.5977L48.5249 53.5977L48.5249 54.3477ZM49.3493 53.4475L50.0964 53.3822L50.096 53.3773L49.3493 53.4475ZM49.1418 51.7412L48.3995 51.8484L48.3996 51.849L49.1418 51.7412ZM48.1002 46.891L48.8206 46.6825C48.7312 46.3735 48.4547 46.156 48.1334 46.1417C47.812 46.1275 47.5174 46.3198 47.401 46.6197L48.1002 46.891ZM46.7437 51.8588L46.0036 51.7377L46.0034 51.7387L46.7437 51.8588ZM46.5366 53.4614L45.7904 53.3862L45.7902 53.3883L46.5366 53.4614ZM59.5 39L60.2484 39.0492L60.25 39.0246V39H59.5ZM60 38.0496L59.25 38.0423V38.0496H60ZM59.7506 53.0296C59.7669 53.4434 60.1157 53.7657 60.5296 53.7494C60.9435 53.7331 61.2657 53.3843 61.2494 52.9704L59.7506 53.0296ZM33.5595 62.0223C33.554 62.4364 33.8853 62.7766 34.2995 62.7821C34.7137 62.7875 35.0539 62.4562 35.0593 62.042L33.5595 62.0223ZM35.562 62.0039C35.5963 62.4167 35.9588 62.7235 36.3716 62.6891C36.7844 62.6548 37.0912 62.2923 37.0568 61.8795L35.562 62.0039ZM26.0781 45.871C26.4638 45.72 26.654 45.2848 26.5029 44.8992C26.3519 44.5135 25.9167 44.3233 25.5311 44.4744L26.0781 45.871ZM30.5589 42.7483C30.1735 42.9001 29.9841 43.3356 30.1359 43.721C30.2877 44.1064 30.7232 44.2957 31.1086 44.1439L30.5589 42.7483ZM44.6786 42.3031C45.0595 42.1404 45.2365 41.6997 45.0738 41.3188C44.9111 40.9378 44.4704 40.7609 44.0895 40.9236L44.6786 42.3031ZM47.6725 40.8153C47.2943 40.6462 46.8507 40.8157 46.6817 41.1939C46.5126 41.572 46.6821 42.0156 47.0603 42.1847L47.6725 40.8153ZM34.3677 61.0557L35.116 61.1062L34.3677 61.0557ZM58.2504 53.4744C58.2363 53.8884 58.5604 54.2354 58.9744 54.2495C59.3884 54.2637 59.7354 53.9396 59.7496 53.5256L58.2504 53.4744ZM80.5064 30.5309C80.8436 30.7715 81.3119 30.6931 81.5525 30.3559C81.793 30.0187 81.7147 29.5504 81.3775 29.3098L80.5064 30.5309ZM84.1196 31.2659C83.7824 31.0254 83.314 31.1037 83.0734 31.4409C82.8329 31.7781 82.9112 32.2465 83.2484 32.4871L84.1196 31.2659ZM74.1673 27.7628C74.5807 27.7364 74.8944 27.3799 74.868 26.9666C74.8416 26.5532 74.4851 26.2395 74.0718 26.2659L74.1673 27.7628ZM76.6327 26.5607C76.2365 26.4398 75.8173 26.663 75.6965 27.0592C75.5756 27.4554 75.7988 27.8745 76.195 27.9954L76.6327 26.5607ZM44.6579 38.8241C45.0435 38.6729 45.2335 38.2377 45.0823 37.8521C44.9311 37.4664 44.4959 37.2764 44.1102 37.4276L44.6579 38.8241ZM47.0924 36.2579C46.7068 36.4092 46.5169 36.8444 46.6682 37.23C46.8195 37.6156 47.2548 37.8055 47.6403 37.6542L47.0924 36.2579ZM48.0245 56.091L48.7745 56.091L48.0245 56.091ZM13.009 54.6544L12.2592 54.6712L12.7883 78.3827L13.5381 78.3659L14.2879 78.3492L13.7588 54.6377L13.009 54.6544ZM13.5381 78.3659L12.7882 78.3509C12.7604 79.7424 13.3629 81.1023 14.5206 82.286L15.0568 81.7616L15.593 81.2371C14.6567 80.2798 14.2697 79.2916 14.2879 78.3809L13.5381 78.3659ZM15.0568 81.7616L14.547 82.3116L25.4889 92.4525L25.9987 91.9024L26.5085 91.3523L15.5666 81.2115L15.0568 81.7616ZM25.9987 91.9024L25.4662 92.4306C27.1235 94.1013 29.665 95.15 32.3782 95.5564C35.1018 95.9643 38.0877 95.7395 40.6994 94.7695L40.4383 94.0664L40.1771 93.3634C37.8299 94.2351 35.1032 94.4477 32.6004 94.0729C30.0872 93.6965 27.8883 92.7424 26.5311 91.3742L25.9987 91.9024ZM40.4383 94.0664L40.6989 94.7697L92.1981 75.6851L91.9375 74.9818L91.6769 74.2785L40.1776 93.3632L40.4383 94.0664ZM91.9375 74.9818L92.1977 75.6852C95.6045 74.4251 97.7638 72.0944 97.7499 69.4527L96.9999 69.4567L96.25 69.4606C96.2591 71.193 94.8056 73.1213 91.6773 74.2784L91.9375 74.9818ZM96.9999 69.4567L97.7498 69.4415L97.2207 43.3814L96.4708 43.3966L95.721 43.4118L96.2501 69.4719L96.9999 69.4567ZM95.0633 39.9941L94.5309 40.5223C95.8574 41.8595 96.1046 43.2961 95.5898 44.5778C95.0536 45.913 93.6236 47.2433 91.259 48.1195L91.5196 48.8228L91.7802 49.526C94.3861 48.5605 96.2351 46.9959 96.9818 45.1369C97.7499 43.2244 97.2837 41.1675 95.5958 39.4659L95.0633 39.9941ZM91.5196 48.8228L91.2533 48.1216L39.754 67.6782L40.0203 68.3793L40.2865 69.0805L91.7859 49.5239L91.5196 48.8228ZM40.0203 68.3793L39.7597 67.6761C37.4445 68.5339 34.5412 68.5668 31.8241 67.9964C29.0986 67.4243 26.6877 66.2725 25.3192 64.8929L24.7868 65.4211L24.2543 65.9493C25.9003 67.6086 28.621 68.8567 31.516 69.4644C34.4194 70.0739 37.6256 70.0665 40.2809 69.0826L40.0203 68.3793ZM24.7868 65.4211L25.2352 64.8199C23.1316 63.2511 21.4901 62.0269 19.8487 60.8027C18.2072 59.5785 16.5657 58.3543 14.4621 56.7855L14.0138 57.3867L13.5654 57.9879C15.6689 59.5567 17.3104 60.7809 18.9519 62.0051C20.5934 63.2293 22.2348 64.4535 24.3384 66.0223L24.7868 65.4211ZM18.5587 47.948L18.3215 47.2365C16.4579 47.8579 14.4364 49.2491 13.2589 51.0992C12.6645 52.0332 12.273 53.1045 12.251 54.2628C12.2288 55.4278 12.5818 56.63 13.3961 57.8121L14.0138 57.3867L14.6314 56.9612C13.9789 56.0139 13.7351 55.1154 13.7507 54.2913C13.7665 53.4604 14.0473 52.6541 14.5244 51.9046C15.4898 50.3878 17.2076 49.1891 18.796 48.6595L18.5587 47.948ZM26.0944 56.4666H25.3444C25.3444 57.2558 25.9948 57.6974 26.4985 57.8939C27.0518 58.1098 27.7517 58.1825 28.4719 58.1088L28.3955 57.3627L28.3192 56.6166C27.7757 56.6722 27.325 56.6063 27.0437 56.4965C26.7127 56.3674 26.8444 56.2963 26.8444 56.4666H26.0944ZM28.3955 57.3627L28.4719 58.1088C29.1928 58.035 29.8757 57.8229 30.4008 57.5134C30.872 57.2357 31.4467 56.7339 31.4467 56.0047H30.6967H29.9467C29.9467 55.8944 30.0026 56.0069 29.6392 56.2212C29.3297 56.4036 28.862 56.561 28.3192 56.6166L28.3955 57.3627ZM30.6967 56.0047H31.4467C31.4467 55.2154 30.7963 54.7738 30.2926 54.5773C29.7393 54.3614 29.0394 54.2888 28.3192 54.3625L28.3955 55.1086L28.4719 55.8547C29.0154 55.7991 29.4661 55.865 29.7474 55.9747C30.0784 56.1039 29.9467 56.175 29.9467 56.0047H30.6967ZM28.3955 55.1086L28.3192 54.3625C27.5982 54.4363 26.9154 54.6483 26.3902 54.9578C25.9191 55.2355 25.3444 55.7373 25.3444 56.4666H26.0944H26.8444C26.8444 56.5769 26.7884 56.4643 27.1519 56.2501C27.4614 56.0677 27.9291 55.9102 28.4719 55.8547L28.3955 55.1086ZM38.7506 51.8623H38.0006C38.0006 52.6516 38.651 53.0932 39.1547 53.2897C39.708 53.5056 40.4079 53.5782 41.1281 53.5045L41.0517 52.7584L40.9754 52.0123C40.4319 52.0679 39.9812 52.002 39.6999 51.8923C39.3689 51.7631 39.5006 51.692 39.5006 51.8623H38.7506ZM41.0517 52.7584L41.1281 53.5045C41.849 53.4307 42.5319 53.2187 43.057 52.9091C43.5282 52.6314 44.1029 52.1297 44.1029 51.4004H43.3529H42.6029C42.6029 51.2901 42.6588 51.4027 42.2954 51.6169C41.9859 51.7993 41.5182 51.9568 40.9754 52.0123L41.0517 52.7584ZM43.3529 51.4004H44.1029C44.1029 50.6112 43.4525 50.1696 42.9488 49.9731C42.3955 49.7572 41.6956 49.6845 40.9754 49.7582L41.0517 50.5043L41.1281 51.2504C41.6716 51.1948 42.1223 51.2607 42.4036 51.3705C42.7346 51.4996 42.6029 51.5707 42.6029 51.4004H43.3529ZM41.0517 50.5043L40.9754 49.7582C40.2544 49.832 39.5716 50.0441 39.0464 50.3536C38.5753 50.6313 38.0006 51.1331 38.0006 51.8623H38.7506H39.5006C39.5006 51.9726 39.4446 51.8601 39.8081 51.6458C40.1176 51.4634 40.5853 51.306 41.1281 51.2504L41.0517 50.5043ZM50.2562 47.2581H49.5062C49.5062 48.0473 50.1566 48.4889 50.6603 48.6854C51.2136 48.9013 51.9135 48.974 52.6337 48.9003L52.5574 48.1542L52.481 47.4081C51.9375 47.4637 51.4868 47.3978 51.2055 47.288C50.8745 47.1589 51.0062 47.0878 51.0062 47.2581H50.2562ZM52.5574 48.1542L52.6337 48.9003C53.3547 48.8265 54.0375 48.6144 54.5626 48.3049C55.0338 48.0272 55.6085 47.5254 55.6085 46.7962H54.8585H54.1085C54.1085 46.6858 54.1645 46.7984 53.801 47.0126C53.4915 47.195 53.0238 47.3525 52.481 47.4081L52.5574 48.1542ZM54.8585 46.7962H55.6085C55.6085 46.0069 54.9581 45.5653 54.4544 45.3688C53.9011 45.1529 53.2012 45.0803 52.481 45.154L52.5574 45.9001L52.6337 46.6462C53.1772 46.5905 53.6279 46.6565 53.9092 46.7662C54.2402 46.8953 54.1085 46.9665 54.1085 46.7962H54.8585ZM52.5574 45.9001L52.481 45.154C51.7601 45.2277 51.0772 45.4398 50.5521 45.7493C50.0809 46.027 49.5062 46.5288 49.5062 47.2581H50.2562H51.0062C51.0062 47.3684 50.9502 47.2558 51.3137 47.0416C51.6232 46.8592 52.0909 46.7017 52.6337 46.6462L52.5574 45.9001ZM61.7619 42.6538H61.0119C61.0119 43.4431 61.6623 43.8847 62.1659 44.0812C62.7193 44.2971 63.4191 44.3697 64.1393 44.296L64.063 43.5499L63.9866 42.8038C63.4431 42.8594 62.9924 42.7935 62.7111 42.6838C62.3802 42.5546 62.5119 42.4835 62.5119 42.6538H61.7619ZM64.063 43.5499L64.1393 44.296C64.8603 44.2222 65.5431 44.0102 66.0683 43.7006C66.5394 43.4229 67.1141 42.9212 67.1141 42.1919H66.3641H65.6141C65.6141 42.0816 65.6701 42.1942 65.3066 42.4084C64.9972 42.5908 64.5294 42.7482 63.9866 42.8038L64.063 43.5499ZM66.3641 42.1919H67.1141C67.1141 41.4027 66.4637 40.9611 65.9601 40.7646C65.4067 40.5487 64.7068 40.476 63.9866 40.5497L64.063 41.2958L64.1393 42.0419C64.6829 41.9863 65.1336 42.0522 65.4148 42.162C65.7458 42.2911 65.6141 42.3622 65.6141 42.1919H66.3641ZM64.063 41.2958L63.9866 40.5497C63.2657 40.6235 62.5829 40.8356 62.0577 41.1451C61.5865 41.4228 61.0119 41.9245 61.0119 42.6538H61.7619H62.5119C62.5119 42.7641 62.4559 42.6516 62.8194 42.4373C63.1288 42.2549 63.5966 42.0975 64.1393 42.0419L64.063 41.2958ZM73.2675 38.0496H72.5175C72.5175 38.8388 73.1679 39.2804 73.6716 39.4769C74.2249 39.6928 74.9248 39.7655 75.645 39.6918L75.5686 38.9457L75.4923 38.1996C74.9487 38.2552 74.4981 38.1893 74.2168 38.0795C73.8858 37.9504 74.0175 37.8793 74.0175 38.0496H73.2675ZM75.5686 38.9457L75.645 39.6918C76.3659 39.618 77.0487 39.4059 77.5739 39.0964C78.0451 38.8187 78.6198 38.3169 78.6198 37.5877H77.8698H77.1198C77.1198 37.4773 77.1757 37.5899 76.8123 37.8041C76.5028 37.9865 76.0351 38.144 75.4923 38.1996L75.5686 38.9457ZM77.8698 37.5877H78.6198C78.6198 36.7984 77.9693 36.3568 77.4657 36.1603C76.9124 35.9444 76.2125 35.8717 75.4923 35.9455L75.5686 36.6916L75.645 37.4377C76.1885 37.382 76.6392 37.4479 76.9205 37.5577C77.2515 37.6868 77.1198 37.758 77.1198 37.5877H77.8698ZM75.5686 36.6916L75.4923 35.9455C74.7713 36.0192 74.0885 36.2313 73.5633 36.5408C73.0922 36.8185 72.5175 37.3203 72.5175 38.0496H73.2675H74.0175C74.0175 38.1599 73.9615 38.0473 74.325 37.8331C74.6345 37.6507 75.1022 37.4932 75.645 37.4377L75.5686 36.6916ZM19.191 51.8623H18.441C18.441 52.6516 19.0914 53.0932 19.5951 53.2897C20.1484 53.5056 20.8483 53.5782 21.5685 53.5045L21.4921 52.7584L21.4158 52.0123C20.8723 52.0679 20.4216 52.002 20.1403 51.8923C19.8093 51.7631 19.941 51.692 19.941 51.8623H19.191ZM21.4921 52.7584L21.5685 53.5045C22.2894 53.4307 22.9723 53.2187 23.4974 52.9091C23.9686 52.6314 24.5433 52.1297 24.5433 51.4004H23.7933H23.0433C23.0433 51.2901 23.0993 51.4027 22.7358 51.6169C22.4263 51.7993 21.9586 51.9568 21.4158 52.0123L21.4921 52.7584ZM23.7933 51.4004H24.5433C24.5433 50.6112 23.8929 50.1696 23.3892 49.9731C22.8359 49.7572 22.136 49.6845 21.4158 49.7582L21.4921 50.5043L21.5685 51.2504C22.112 51.1948 22.5627 51.2607 22.844 51.3705C23.175 51.4996 23.0433 51.5707 23.0433 51.4004H23.7933ZM21.4921 50.5043L21.4158 49.7582C20.6949 49.832 20.012 50.0441 19.4869 50.3536C19.0157 50.6313 18.441 51.1331 18.441 51.8623H19.191H19.941C19.941 51.9726 19.885 51.8601 20.2485 51.6458C20.558 51.4634 21.0257 51.306 21.5685 51.2504L21.4921 50.5043ZM31.8472 47.2581H31.0972C31.0972 48.0473 31.7476 48.4889 32.2513 48.6854C32.8046 48.9013 33.5045 48.974 34.2247 48.9003L34.1483 48.1542L34.072 47.4081C33.5285 47.4637 33.0778 47.3978 32.7965 47.288C32.4655 47.1589 32.5972 47.0878 32.5972 47.2581H31.8472ZM34.1483 48.1542L34.2247 48.9003C34.9456 48.8265 35.6285 48.6144 36.1536 48.3049C36.6248 48.0272 37.1995 47.5254 37.1995 46.7962H36.4495H35.6995C35.6995 46.6858 35.7555 46.7984 35.392 47.0126C35.0825 47.195 34.6148 47.3525 34.072 47.4081L34.1483 48.1542ZM36.4495 46.7962H37.1995C37.1995 46.0069 36.5491 45.5653 36.0454 45.3688C35.4921 45.1529 34.7922 45.0803 34.072 45.154L34.1483 45.9001L34.2247 46.6462C34.7682 46.5905 35.2189 46.6565 35.5002 46.7662C35.8312 46.8953 35.6995 46.9665 35.6995 46.7962H36.4495ZM34.1483 45.9001L34.072 45.154C33.3511 45.2277 32.6682 45.4398 32.1431 45.7493C31.6719 46.027 31.0972 46.5288 31.0972 47.2581H31.8472H32.5972C32.5972 47.3684 32.5412 47.2558 32.9047 47.0416C33.2142 46.8592 33.6819 46.7017 34.2247 46.6462L34.1483 45.9001ZM43.3529 42.6538H42.6029C42.6029 43.4431 43.2533 43.8847 43.7569 44.0812C44.3102 44.2971 45.0101 44.3697 45.7303 44.296L45.654 43.5499L45.5776 42.8038C45.0341 42.8594 44.5834 42.7935 44.3021 42.6838C43.9711 42.5546 44.1029 42.4835 44.1029 42.6538H43.3529ZM45.654 43.5499L45.7303 44.296C46.4513 44.2222 47.1341 44.0102 47.6593 43.7006C48.1304 43.4229 48.7051 42.9212 48.7051 42.1919H47.9551H47.2051C47.2051 42.0816 47.2611 42.1942 46.8976 42.4084C46.5882 42.5908 46.1204 42.7482 45.5776 42.8038L45.654 43.5499ZM54.8585 38.0496H54.1085C54.1085 38.8388 54.7589 39.2804 55.2625 39.4769C55.8159 39.6928 56.5158 39.7655 57.236 39.6918L57.1596 38.9457L57.0833 38.1996C56.5397 38.2552 56.0891 38.1893 55.8078 38.0795C55.4768 37.9504 55.6085 37.8793 55.6085 38.0496H54.8585ZM57.1596 38.9457L57.236 39.6918C57.9569 39.618 58.6397 39.4059 59.1649 39.0964C59.6361 38.8187 60.2107 38.3169 60.2107 37.5877H59.4607H58.7107C58.7107 37.4773 58.7667 37.5899 58.4033 37.8041C58.0938 37.9865 57.6261 38.144 57.0833 38.1996L57.1596 38.9457ZM59.4607 37.5877H60.2107C60.2107 36.7984 59.5603 36.3568 59.0567 36.1603C58.5033 35.9444 57.8035 35.8717 57.0833 35.9455L57.1596 36.6916L57.236 37.4377C57.7795 37.382 58.2302 37.4479 58.5115 37.5577C58.8424 37.6868 58.7107 37.758 58.7107 37.5877H59.4607ZM57.1596 36.6916L57.0833 35.9455C56.3623 36.0192 55.6795 36.2313 55.1543 36.5408C54.6832 36.8185 54.1085 37.3203 54.1085 38.0496H54.8585H55.6085C55.6085 38.1599 55.5525 38.0473 55.916 37.8331C56.2254 37.6507 56.6932 37.4932 57.236 37.4377L57.1596 36.6916ZM66.3641 33.4453H65.6141C65.6141 34.2345 66.2645 34.6761 66.7682 34.8727C67.3215 35.0885 68.0214 35.1612 68.7416 35.0875L68.6652 34.3414L68.5889 33.5953C68.0454 33.6509 67.5947 33.585 67.3134 33.4753C66.9824 33.3461 67.1141 33.275 67.1141 33.4453H66.3641ZM68.6652 34.3414L68.7416 35.0875C69.4625 35.0137 70.1454 34.8017 70.6705 34.4921C71.1417 34.2144 71.7164 33.7127 71.7164 32.9834H70.9664H70.2164C70.2164 32.8731 70.2724 32.9857 69.9089 33.1999C69.5994 33.3823 69.1317 33.5397 68.5889 33.5953L68.6652 34.3414ZM70.9664 32.9834H71.7164C71.7164 32.1941 71.066 31.7525 70.5623 31.556C70.009 31.3401 69.3091 31.2675 68.5889 31.3412L68.6652 32.0873L68.7416 32.8334C69.2851 32.7778 69.7358 32.8437 70.0171 32.9534C70.3481 33.0826 70.2164 33.1537 70.2164 32.9834H70.9664ZM68.6652 32.0873L68.5889 31.3412C67.868 31.415 67.1851 31.627 66.66 31.9366C66.1888 32.2143 65.6141 32.716 65.6141 33.4453H66.3641H67.1141C67.1141 33.5556 67.0581 33.443 67.4216 33.2288C67.7311 33.0464 68.1988 32.889 68.7416 32.8334L68.6652 32.0873ZM32.9978 62.2219H32.2478C32.2478 63.0111 32.8982 63.4527 33.4018 63.6493C33.9552 63.8651 34.6551 63.9378 35.3753 63.8641L35.2989 63.118L35.2226 62.3719C34.679 62.4275 34.2283 62.3616 33.9471 62.2518C33.6161 62.1227 33.7478 62.0516 33.7478 62.2219H32.9978ZM35.2989 63.118L35.3753 63.8641C36.0962 63.7903 36.779 63.5782 37.3042 63.2687C37.7754 62.991 38.35 62.4893 38.35 61.76H37.6H36.85C36.85 61.6497 36.906 61.7622 36.5425 61.9765C36.2331 62.1589 35.7653 62.3163 35.2226 62.3719L35.2989 63.118ZM45.654 57.6176H44.904C44.904 58.4069 45.5544 58.8485 46.058 59.045C46.6114 59.2609 47.3113 59.3335 48.0315 59.2598L47.9551 58.5137L47.8788 57.7676C47.3352 57.8233 46.8845 57.7573 46.6033 57.6476C46.2723 57.5185 46.404 57.4473 46.404 57.6176H45.654ZM47.9551 58.5137L48.0315 59.2598C48.7524 59.1861 49.4352 58.974 49.9604 58.6645C50.4316 58.3868 51.0062 57.885 51.0062 57.1557H50.2562H49.5062C49.5062 57.0454 49.5622 57.158 49.1987 57.3722C48.8893 57.5546 48.4215 57.7121 47.8788 57.7676L47.9551 58.5137ZM50.2562 57.1557H51.0062C51.0062 56.3665 50.3558 55.9249 49.8522 55.7284C49.2988 55.5125 48.599 55.4398 47.8788 55.5135L47.9551 56.2596L48.0315 57.0057C48.575 56.9501 49.0257 57.016 49.307 57.1258C49.6379 57.2549 49.5062 57.326 49.5062 57.1557H50.2562ZM47.9551 56.2596L47.8788 55.5135C47.1578 55.5873 46.475 55.7994 45.9498 56.1089C45.4787 56.3866 44.904 56.8884 44.904 57.6176H45.654H46.404C46.404 57.728 46.348 57.6154 46.7115 57.4012C47.0209 57.2188 47.4887 57.0613 48.0315 57.0057L47.9551 56.2596ZM57.1596 53.0134H56.4096C56.4096 53.8026 57.06 54.2442 57.5637 54.4407C58.117 54.6566 58.8169 54.7293 59.5371 54.6556L59.4607 53.9095L59.3844 53.1634C58.8409 53.219 58.3902 53.1531 58.1089 53.0433C57.7779 52.9142 57.9096 52.8431 57.9096 53.0134H57.1596ZM59.4607 53.9095L59.5371 54.6556C60.258 54.5818 60.9409 54.3697 61.466 54.0602C61.9372 53.7825 62.5119 53.2807 62.5119 52.5515H61.7619H61.0119C61.0119 52.4412 61.0678 52.5537 60.7044 52.768C60.3949 52.9504 59.9272 53.1078 59.3844 53.1634L59.4607 53.9095ZM61.7619 52.5515H62.5119C62.5119 51.7622 61.8615 51.3206 61.3578 51.1241C60.8045 50.9082 60.1046 50.8356 59.3844 50.9093L59.4607 51.6554L59.5371 52.4015C60.0806 52.3459 60.5313 52.4118 60.8126 52.5215C61.1436 52.6507 61.0119 52.7218 61.0119 52.5515H61.7619ZM59.4607 51.6554L59.3844 50.9093C58.6634 50.9831 57.9806 51.1951 57.4555 51.5047C56.9843 51.7824 56.4096 52.2841 56.4096 53.0134H57.1596H57.9096C57.9096 53.1237 57.8536 53.0111 58.2171 52.7969C58.5266 52.6145 58.9943 52.457 59.5371 52.4015L59.4607 51.6554ZM68.6652 48.4091H67.9152C67.9152 49.1984 68.5656 49.64 69.0693 49.8365C69.6226 50.0524 70.3225 50.125 71.0427 50.0513L70.9664 49.3052L70.89 48.5591C70.3465 48.6147 69.8958 48.5488 69.6145 48.4391C69.2835 48.3099 69.4152 48.2388 69.4152 48.4091H68.6652ZM70.9664 49.3052L71.0427 50.0513C71.7637 49.9775 72.4465 49.7655 72.9717 49.456C73.4428 49.1783 74.0175 48.6765 74.0175 47.9472H73.2675H72.5175C72.5175 47.8369 72.5735 47.9495 72.21 48.1637C71.9005 48.3461 71.4328 48.5036 70.89 48.5591L70.9664 49.3052ZM73.2675 47.9472H74.0175C74.0175 47.158 73.3671 46.7164 72.8634 46.5199C72.3101 46.304 71.6102 46.2313 70.89 46.305L70.9664 47.0511L71.0427 47.7972C71.5862 47.7416 72.0369 47.8075 72.3182 47.9173C72.6492 48.0464 72.5175 48.1175 72.5175 47.9472H73.2675ZM70.9664 47.0511L70.89 46.305C70.1691 46.3788 69.4862 46.5909 68.9611 46.9004C68.4899 47.1781 67.9152 47.6799 67.9152 48.4091H68.6652H69.4152C69.4152 48.5194 69.3593 48.4069 69.7227 48.1926C70.0322 48.0102 70.4999 47.8528 71.0427 47.7972L70.9664 47.0511ZM80.1709 43.8049H79.4209C79.4209 44.5941 80.0713 45.0357 80.5749 45.2322C81.1283 45.4481 81.8282 45.5208 82.5484 45.4471L82.472 44.701L82.3956 43.9549C81.8521 44.0105 81.4014 43.9446 81.1202 43.8348C80.7892 43.7057 80.9209 43.6346 80.9209 43.8049H80.1709ZM82.472 44.701L82.5484 45.4471C83.2693 45.3733 83.9521 45.1612 84.4773 44.8517C84.9485 44.574 85.5231 44.0722 85.5231 43.343H84.7731H84.0231C84.0231 43.2327 84.0791 43.3452 83.7156 43.5595C83.4062 43.7419 82.9384 43.8993 82.3956 43.9549L82.472 44.701ZM84.7731 43.343H85.5231C85.5231 42.5537 84.8727 42.1121 84.3691 41.9156C83.8157 41.6997 83.1159 41.6271 82.3956 41.7008L82.472 42.4469L82.5484 43.193C83.0919 43.1374 83.5426 43.2033 83.8239 43.313C84.1548 43.4422 84.0231 43.5133 84.0231 43.343H84.7731ZM82.472 42.4469L82.3956 41.7008C81.6747 41.7746 80.9919 41.9866 80.4667 42.2961C79.9956 42.5738 79.4209 43.0756 79.4209 43.8049H80.1709H80.9209C80.9209 43.9152 80.8649 43.8026 81.2284 43.5884C81.5378 43.406 82.0056 43.2485 82.5484 43.193L82.472 42.4469ZM28.4652 56.6833L29.2152 56.6833L29.2151 50.4486L28.4651 50.4486L27.7151 50.4486L27.7152 56.6833L28.4652 56.6833ZM28.4651 50.4486H29.2151V50.4242H28.4651H27.7151V50.4486H28.4651ZM27.2706 50.4485L27.2705 51.1985L28.4651 51.1986L28.4651 50.4486L28.4652 49.6986L27.2706 49.6985L27.2706 50.4485ZM28.4651 50.4486L28.4651 51.1986L29.3598 51.1987L29.3599 50.4487L29.3599 49.6987L28.4652 49.6986L28.4651 50.4486ZM29.3599 50.4487L29.3598 51.1987C30.6783 51.1988 31.6952 50.0778 31.5812 48.7737L30.834 48.839L30.0869 48.9043C30.1246 49.3364 29.7937 49.6987 29.3599 49.6987L29.3599 50.4487ZM30.834 48.839L31.5807 48.7688C31.4866 47.7677 31.3584 46.7351 31.2053 45.6802L30.4631 45.788L29.7209 45.8957C29.8712 46.9311 29.996 47.9381 30.0873 48.9092L30.834 48.839ZM30.4631 45.788L31.2054 45.6808C30.7366 42.4336 30.0716 39.5004 29.321 36.9067L28.6006 37.1152L27.8801 37.3238C28.6126 39.8545 29.2624 42.72 29.7208 45.8951L30.4631 45.788ZM28.6006 37.1152L27.9014 36.8439C26.9337 39.3374 26.0087 42.3713 25.4349 45.8772L26.175 45.9983L26.9152 46.1195C27.4697 42.7312 28.3639 39.7981 29.2997 37.3866L28.6006 37.1152ZM26.175 45.9983L25.4347 45.8782C25.2718 46.8827 25.1521 47.8589 25.0584 48.7887L25.8046 48.8639L26.5508 48.9391C26.6423 48.0315 26.7584 47.0862 26.9154 46.1184L26.175 45.9983ZM25.8046 48.8639L25.0582 48.7908C24.9287 50.113 25.9902 51.1984 27.2705 51.1985L27.2706 50.4485L27.2707 49.6985C26.8324 49.6985 26.5122 49.3341 26.551 48.937L25.8046 48.8639ZM48.0245 54.3476H48.7745V54.334H48.0245H47.2745V54.3476H48.0245ZM47.3564 54.3476C46.6064 54.3476 46.8042 54.8551 47.2932 55.0949C47.3011 55.0955 47.3169 55.0965 47.3248 55.0969C47.333 55.0973 47.3395 55.0974 47.3407 55.0974C47.3448 55.0975 47.348 55.0975 47.3486 55.0975C47.3507 55.0976 47.3523 55.0976 47.3526 55.0976C47.3537 55.0976 47.3545 55.0976 47.3547 55.0976C47.3554 55.0976 47.3561 55.0976 47.3569 55.0976C47.3584 55.0976 47.3612 55.0976 47.3665 55.0976C47.3771 55.0976 47.398 55.0976 47.4398 55.0976C47.5234 55.0976 47.6904 55.0976 48.0245 55.0976L48.0245 54.3476L48.0245 53.5976C47.6905 53.5976 47.5235 53.5976 47.4401 53.5976C47.3983 53.5976 47.3776 53.5976 47.3672 53.5976C47.3621 53.5976 47.3597 53.5976 47.3586 53.5976C47.358 53.5976 47.3581 53.5976 47.3585 53.5976C47.3585 53.5976 47.3593 53.5976 47.3603 53.5976C47.3606 53.5976 47.3622 53.5976 47.3643 53.5976C47.3648 53.5976 47.3681 53.5977 47.3722 53.5977C47.3734 53.5978 47.3799 53.5979 47.3881 53.5983C47.396 53.5986 47.4118 53.5996 47.4197 53.6003C47.9087 53.8401 48.1064 54.3476 47.3564 54.3476ZM48.0245 54.3476L48.0244 55.0976L48.5248 55.0977L48.5249 54.3477L48.5249 53.5977L48.0245 53.5976L48.0245 54.3476ZM48.5249 54.3477L48.5248 55.0977C49.4571 55.0978 50.177 54.3037 50.0964 53.3822L49.3493 53.4475L48.6021 53.5128C48.6045 53.5399 48.5962 53.5594 48.583 53.5738C48.5702 53.5879 48.5522 53.5977 48.5249 53.5977L48.5249 54.3477ZM49.3493 53.4475L50.096 53.3773C50.0427 52.8108 49.9703 52.2277 49.884 51.6334L49.1418 51.7412L48.3996 51.849C48.483 52.4237 48.5521 52.9812 48.6026 53.5177L49.3493 53.4475ZM49.1418 51.7412L49.8841 51.634C49.6197 49.8021 49.2445 48.1468 48.8206 46.6825L48.1002 46.891L47.3798 47.0995C47.7854 48.501 48.1455 50.0886 48.3995 51.8484L49.1418 51.7412ZM48.1002 46.891L47.401 46.6197C46.8529 48.0322 46.3287 49.7512 46.0036 51.7377L46.7437 51.8588L47.4839 51.98C47.7898 50.111 48.283 48.493 48.7994 47.1623L48.1002 46.891ZM46.7437 51.8588L46.0034 51.7387C45.911 52.3085 45.8433 52.8613 45.7904 53.3862L46.5366 53.4614L47.2828 53.5366C47.3335 53.0339 47.3976 52.5121 47.4841 51.979L46.7437 51.8588ZM46.5366 53.4614L45.7902 53.3883C45.6978 54.3316 46.4547 55.0975 47.3564 55.0976L47.3564 54.3476L47.3565 53.5976C47.3306 53.5976 47.3103 53.5873 47.2968 53.5729C47.2902 53.5658 47.2866 53.5591 47.2848 53.554C47.2833 53.5498 47.2821 53.544 47.283 53.5345L46.5366 53.4614ZM59.5 39H60.25C60.25 38.5281 60.2804 38.1923 60.3185 37.9748C60.3376 37.8654 60.3563 37.7998 60.3676 37.7682C60.385 37.7193 60.3734 37.7802 60.2954 37.8615C60.252 37.9068 60.1565 37.9909 60.0021 38.0338C59.8286 38.0821 59.6504 38.0584 59.5044 37.9835C59.3761 37.9177 59.3053 37.83 59.2752 37.7872C59.2429 37.7413 59.2292 37.7065 59.2261 37.6982C59.222 37.6877 59.2525 37.7855 59.25 38.0423L60 38.0496L60.75 38.0568C60.7531 37.7371 60.7238 37.4153 60.6271 37.1624C60.5902 37.066 60.4784 36.7972 60.1889 36.6488C60.0136 36.5589 59.8049 36.5318 59.6004 36.5886C59.415 36.6402 59.288 36.7449 59.2129 36.8231C59.0718 36.9703 58.9968 37.1464 58.9547 37.2644C58.9065 37.3997 58.8695 37.5527 58.8409 37.7163C58.7835 38.0447 58.75 38.4719 58.75 39H59.5ZM60 38.0496H59.25C59.25 42.5565 59.3738 46.2675 59.4986 48.8726C59.5609 50.1753 59.6235 51.2014 59.671 51.9124C59.6947 52.2679 59.7146 52.5444 59.7288 52.7369C59.7358 52.8326 59.7416 52.9086 59.7454 52.9608C59.7501 53.0243 59.7509 53.0368 59.7506 53.0296L60.5 53L61.2494 52.9704C61.2418 52.7774 60.75 47.0183 60.75 38.0496H60ZM18.5587 47.948L18.8314 48.6467C19.8628 48.2442 21.1955 47.7378 22.5117 47.2376C23.8255 46.7384 25.1234 46.245 26.0781 45.871L25.8046 45.1727L25.5311 44.4744C24.5851 44.8449 23.2953 45.3352 21.9789 45.8355C20.6649 46.3348 19.3251 46.8439 18.2861 47.2493L18.5587 47.948ZM44.384 41.6133L44.0895 40.9236C43.7207 41.0811 43.3746 41.2903 43.1086 41.5535C42.8477 41.8115 42.6029 42.1858 42.6029 42.6538H43.3529H44.1029C44.1029 42.7322 44.0636 42.7186 44.1633 42.62C44.2579 42.5265 44.4274 42.4103 44.6786 42.3031L44.384 41.6133ZM47.9551 42.1919H48.7051C48.7051 41.4599 48.1387 41.0237 47.6725 40.8153L47.3664 41.5L47.0603 42.1847C47.1154 42.2093 47.1564 42.2331 47.1855 42.2532C47.2147 42.2734 47.2282 42.2875 47.232 42.2918C47.2354 42.2957 47.2279 42.2882 47.2197 42.268C47.2109 42.2464 47.2051 42.2196 47.2051 42.1919H47.9551ZM34.3094 62.0321L35.0593 62.042C35.0602 61.9725 35.0794 61.648 35.116 61.1062L34.3677 61.0557L33.6194 61.0052C33.5846 61.5207 33.5611 61.9006 33.5595 62.0223L34.3094 62.0321ZM34.3677 61.0557L35.116 61.1062C35.2219 59.5372 35.4544 56.4054 35.6605 53.8227C35.7636 52.5307 35.8598 51.3804 35.93 50.6328C35.9656 50.2536 35.993 49.9945 36.0103 49.8716C36.0147 49.84 36.0164 49.8327 36.015 49.8394C36.0144 49.8423 36.013 49.8491 36.0105 49.8587C36.0084 49.8671 36.0036 49.8853 35.9955 49.9088C35.99 49.9247 35.9706 49.9807 35.931 50.0463C35.9114 50.0789 35.8698 50.1427 35.7996 50.2078C35.7315 50.2709 35.5867 50.3806 35.3679 50.4032C34.8597 50.4558 34.642 50.0328 34.6293 50.0086C34.582 49.919 34.5654 49.8416 34.5617 49.8245C34.5552 49.7951 34.5523 49.7724 34.5511 49.7624C34.5497 49.7508 34.549 49.7425 34.5488 49.7389C34.5481 49.7299 34.5489 49.7368 34.5489 49.7721H35.2989H36.0489C36.0489 49.729 36.0483 49.6781 36.0449 49.6312C36.0436 49.6135 36.0399 49.5626 36.0269 49.5033C36.0221 49.4816 36.0045 49.4008 35.9561 49.3089C35.9421 49.2825 35.7231 48.8585 35.2136 48.9112C34.9942 48.9339 34.8487 49.044 34.7799 49.1077C34.709 49.1734 34.6667 49.2383 34.6463 49.272C34.6053 49.3401 34.5843 49.3997 34.5772 49.4204C34.56 49.4704 34.5506 49.5141 34.5469 49.5318C34.5377 49.5756 34.5305 49.623 34.5249 49.6628C34.502 49.8254 34.4717 50.1186 34.4365 50.4926C34.3653 51.2513 34.2685 52.4106 34.1653 53.7033C33.9589 56.2901 33.7258 59.4283 33.6194 61.0052L34.3677 61.0557ZM34.3677 61.0557L34.1392 60.3414C33.6723 60.4907 33.2358 60.7078 32.9 60.9886C32.579 61.2569 32.2478 61.6748 32.2478 62.2219H32.9978H33.7478C33.7478 62.3121 33.6993 62.2755 33.8621 62.1393C34.0101 62.0156 34.2586 61.878 34.5962 61.7701L34.3677 61.0557ZM35.2989 49.7721H34.5489C34.549 49.7851 34.5496 49.8035 34.5498 49.8089C34.55 49.8119 34.5502 49.8168 34.5504 49.8188C34.5506 49.8225 34.5508 49.8256 34.5509 49.8271C34.5511 49.8304 34.5514 49.8337 34.5516 49.8363C34.552 49.8418 34.5526 49.8489 34.5532 49.8571C34.5546 49.8739 34.5565 49.8979 34.559 49.9287C34.564 49.9903 34.5714 50.0802 34.5809 50.1949C34.5998 50.4245 34.6271 50.7545 34.6606 51.159C34.7276 51.968 34.8196 53.0755 34.9192 54.2751C35.1186 56.6742 35.3488 59.442 35.4724 60.9276L36.2198 60.8655L36.9673 60.8033C36.8437 59.3177 36.6134 56.55 36.4141 54.1509C36.3144 52.9513 36.2225 51.844 36.1555 51.0351C36.122 50.6307 36.0947 50.301 36.0758 50.0717C36.0664 49.9571 36.059 49.8678 36.0541 49.8068C36.0516 49.7763 36.0497 49.7532 36.0485 49.7378C36.0478 49.73 36.0474 49.7248 36.0472 49.7218C36.0448 49.6904 36.0489 49.7347 36.0489 49.7721H35.2989ZM36.2198 60.8655L35.4724 60.9276C35.5002 61.2614 35.5226 61.5305 35.538 61.7161C35.5457 61.8089 35.5517 61.8809 35.5558 61.9296C35.5578 61.954 35.5594 61.9725 35.5604 61.985C35.5609 61.9913 35.5613 61.996 35.5616 61.9991C35.5617 62.0007 35.5618 62.0019 35.5619 62.0027C35.5619 62.0031 35.5619 62.0034 35.5619 62.0036C35.562 62.0037 35.562 62.0038 35.562 62.0038C35.562 62.0038 35.562 62.0039 35.562 62.0039C35.562 62.0039 35.562 62.0039 35.562 62.0039C35.562 62.0039 35.562 62.0039 36.3094 61.9417C37.0568 61.8795 37.0568 61.8795 37.0568 61.8795C37.0568 61.8795 37.0568 61.8795 37.0568 61.8795C37.0568 61.8795 37.0568 61.8794 37.0568 61.8794C37.0568 61.8794 37.0568 61.8793 37.0568 61.8792C37.0568 61.879 37.0567 61.8787 37.0567 61.8783C37.0566 61.8775 37.0565 61.8763 37.0564 61.8747C37.0561 61.8716 37.0558 61.8669 37.0552 61.8606C37.0542 61.8481 37.0526 61.8296 37.0506 61.8052C37.0466 61.7565 37.0406 61.6845 37.0329 61.5917C37.0174 61.4061 36.995 61.137 36.9673 60.8033L36.2198 60.8655ZM37.6 61.76H38.35C38.35 61.1792 37.9819 60.7748 37.6153 60.5423C37.2469 60.3087 36.7828 60.1755 36.3059 60.1204L36.2198 60.8655L36.1338 61.6105C36.4668 61.649 36.6929 61.7336 36.8121 61.8091C36.933 61.8858 36.85 61.8819 36.85 61.76H37.6ZM59.5 39L58.7516 38.9508C58.7455 39.0439 58.6198 42.6917 58.4966 46.2824C58.4348 48.0852 58.3732 49.8832 58.3271 51.2305C58.3041 51.9042 58.2849 52.4651 58.2715 52.8577C58.2648 53.054 58.2595 53.2081 58.2559 53.3132C58.2541 53.3658 58.2528 53.4061 58.2518 53.4332C58.2514 53.4468 58.251 53.4571 58.2508 53.464C58.2507 53.4674 58.2506 53.47 58.2505 53.4718C58.2505 53.4726 58.2505 53.4733 58.2505 53.4737C58.2505 53.474 58.2504 53.4741 58.2504 53.4742C58.2504 53.4743 58.2504 53.4744 59 53.5C59.7496 53.5256 59.7496 53.5255 59.7496 53.5254C59.7496 53.5253 59.7496 53.5251 59.7496 53.5249C59.7496 53.5245 59.7496 53.5238 59.7497 53.523C59.7497 53.5212 59.7498 53.5186 59.7499 53.5152C59.7502 53.5083 59.7505 53.498 59.751 53.4844C59.7519 53.4573 59.7533 53.417 59.7551 53.3644C59.7587 53.2593 59.7639 53.1052 59.7706 52.9089C59.784 52.5164 59.8032 51.9554 59.8263 51.2818C59.8723 49.9345 59.9339 48.1366 59.9957 46.3338C60.0576 44.531 60.1198 42.7235 60.1671 41.357C60.1908 40.6737 60.2108 40.1008 60.2251 39.694C60.2323 39.4905 60.2381 39.3288 60.2422 39.2157C60.2467 39.0917 60.2487 39.0445 60.2484 39.0492L59.5 39ZM79.7327 29.0578L79.2971 29.6683L80.5064 30.5309L80.9419 29.9204L81.3775 29.3098L80.1682 28.4472L79.7327 29.0578ZM83.684 31.8765L83.2484 32.4871L94.6278 40.6047L95.0633 39.9941L95.4989 39.3835L84.1196 31.2659L83.684 31.8765ZM68.8023 28.4823L69.0629 29.1855C71.3108 28.3526 72.8256 27.8485 74.1673 27.7628L74.1196 27.0143L74.0718 26.2659C72.4734 26.3679 70.7519 26.96 68.5417 27.779L68.8023 28.4823ZM76.4138 27.2781L76.195 27.9954C77.0929 28.2694 78.0718 28.7927 79.2966 29.668L79.7327 29.0578L80.1687 28.4475C78.8763 27.524 77.7471 26.9007 76.6327 26.5607L76.4138 27.2781ZM30.8337 43.4461L31.1086 44.1439C35.8072 42.2931 40.2059 40.5699 44.6579 38.8241L44.384 38.1259L44.1102 37.4276C39.6589 39.1732 35.2588 40.897 30.5589 42.7483L30.8337 43.4461ZM47.3664 36.956L47.6403 37.6542C54.1541 35.098 60.9431 32.4249 69.0802 29.1789L68.8023 28.4823L68.5244 27.7856C60.391 31.0302 53.6048 33.7022 47.0924 36.2579L47.3664 36.956ZM48.0245 57.8344L48.7745 57.8344L48.7745 56.091L48.0245 56.091L47.2745 56.091L47.2745 57.8344L48.0245 57.8344ZM48.0245 56.091L48.7745 56.091L48.7745 54.3476L48.0245 54.3476L47.2745 54.3476L47.2745 56.091L48.0245 56.091Z" fill="none" stroke="currentColor" stroke-width="1.5" />
<path d="M20.7418 50.9434C20.7418 51.3576 21.0776 51.6934 21.4918 51.6934C21.906 51.6934 22.2418 51.3576 22.2418 50.9434L20.7418 50.9434ZM21.4918 47.4566L21.4918 46.7066H21.4918L21.4918 47.4566ZM20.8237 47.4566H21.5737C21.5737 47.0424 21.238 46.7066 20.8238 46.7066L20.8237 47.4566ZM21.9922 47.4567L21.9922 46.7067L21.9922 46.7067L21.9922 47.4567ZM22.8166 46.5565L23.5637 46.4912C23.563 46.4827 23.5621 46.4743 23.5611 46.466L22.8166 46.5565ZM22.6091 44.8502L23.3537 44.7597C23.353 44.7541 23.3522 44.7486 23.3514 44.743L22.6091 44.8502ZM21.5675 40L22.288 39.7915C22.1985 39.4825 21.922 39.265 21.6007 39.2507C21.2793 39.2365 20.9847 39.4288 20.8683 39.7287L21.5675 40ZM20.2111 44.9678L19.4709 44.8467L19.4707 44.8477L20.2111 44.9678ZM20.0039 46.5704L19.2577 46.4952L19.2575 46.4973L20.0039 46.5704ZM21.4918 49.2L22.2418 49.2L21.4918 49.2ZM20.8237 47.4566C20.0737 47.4566 20.2715 47.9641 20.7605 48.2039C20.7684 48.2045 20.7842 48.2055 20.7921 48.2059C20.8003 48.2063 20.8068 48.2064 20.808 48.2064C20.8121 48.2065 20.8153 48.2065 20.8159 48.2065C20.818 48.2066 20.8196 48.2066 20.8199 48.2066C20.821 48.2066 20.8218 48.2066 20.822 48.2066C20.8227 48.2066 20.8235 48.2066 20.8242 48.2066C20.8257 48.2066 20.8286 48.2066 20.8338 48.2066C20.8444 48.2066 20.8654 48.2066 20.9071 48.2066C20.9907 48.2066 21.1577 48.2066 21.4918 48.2066L21.4918 47.4566L21.4918 46.7066C21.1578 46.7066 20.9908 46.7066 20.9074 46.7066C20.8656 46.7066 20.8449 46.7066 20.8346 46.7066C20.8294 46.7066 20.827 46.7066 20.8259 46.7066C20.8253 46.7066 20.8254 46.7066 20.8258 46.7066C20.8258 46.7066 20.8266 46.7066 20.8276 46.7066C20.8279 46.7066 20.8295 46.7066 20.8316 46.7066C20.8322 46.7066 20.8354 46.7067 20.8395 46.7067C20.8407 46.7068 20.8472 46.7069 20.8554 46.7072C20.8633 46.7076 20.8791 46.7086 20.887 46.7093C21.376 46.9491 21.5737 47.4566 20.8237 47.4566ZM21.4918 47.4566L21.4917 48.2066L21.9921 48.2067L21.9922 47.4567L21.9922 46.7067L21.4918 46.7066L21.4918 47.4566ZM21.9922 47.4567L21.9921 48.2067C22.9244 48.2068 23.6443 47.4127 23.5637 46.4912L22.8166 46.5565L22.0694 46.6218C22.0718 46.6489 22.0635 46.6684 22.0503 46.6828C22.0375 46.6969 22.0195 46.7067 21.9922 46.7067L21.9922 47.4567ZM22.6091 44.8502L23.3514 44.743C23.087 42.9111 22.7118 41.2558 22.288 39.7915L21.5675 40L20.8471 40.2085C21.2527 41.61 21.6128 43.1976 21.8668 44.9574L22.6091 44.8502ZM21.5675 40L20.8683 39.7287C20.3202 41.1412 19.796 42.8602 19.4709 44.8467L20.2111 44.9678L20.9512 45.089C21.2571 43.22 21.7503 41.602 22.2667 40.2713L21.5675 40ZM20.2111 44.9678L19.4707 44.8477C19.3783 45.4175 19.3106 45.9703 19.2577 46.4952L20.0039 46.5704L20.7501 46.6456C20.8008 46.1429 20.8649 45.6211 20.9514 45.0879L20.2111 44.9678ZM20.0039 46.5704L19.2575 46.4973C19.1651 47.4406 19.922 48.2065 20.8237 48.2066L20.8237 47.4566L20.8238 46.7066C20.7979 46.7066 20.7776 46.6963 20.7641 46.6818C20.7575 46.6748 20.7539 46.6681 20.7521 46.663C20.7507 46.6588 20.7494 46.653 20.7503 46.6435L20.0039 46.5704ZM21.4918 50.9434L22.2418 50.9434L22.2418 49.2L21.4918 49.2L20.7418 49.2L20.7418 50.9434L21.4918 50.9434ZM21.4918 49.2L22.2418 49.2L22.2418 47.4566L21.4918 47.4566L20.7418 47.4566L20.7418 49.2L21.4918 49.2ZM22.6091 44.8502L21.8646 44.9407L22.0721 46.647L22.8166 46.5565L23.5611 46.466L23.3537 44.7597L22.6091 44.8502Z" fill="none" stroke="currentColor" stroke-width="1.5" />
<path d="M44.5 43V33C44.5 33 45.937 26.3312 46 27C46.063 27.6688 46.6095 30.6589 47 32.9728V43" stroke="currentColor" stroke-width="1.5" fill="none" />
<path d="M74 37.9999V28C74.3334 27.7919 75 19.5 75.5 22C76 24.5 76.0893 27.4644 76.5 27.9727V37.9999" stroke="currentColor" stroke-width="1.5" stroke-linecap="round" fill="none" />
<path d="M81 43.4692V33C81 29.5 82 24.4694 82.5 26.9694C83 29.4694 83.5 32.5 83.5 33.442V43.4692" stroke="currentColor" stroke-width="1.5" stroke-linecap="round" fill="none" />
</svg>