<?xml version='1.0' encoding='utf-8'?>
<svg xmlns="http://www.w3.org/2000/svg" width="110" height="110" viewBox="0 0 110 110" fill="none" stroke="currentColor" stroke-width="1.5">
<path d="M49.8253 75.6452C49.8253 76.1974 50.273 76.6452 50.8253 76.6452C51.3776 76.6452 51.8253 76.1974 51.8253 75.6452H49.8253ZM51.8253 50.3023C51.8253 49.75 51.3776 49.3023 50.8253 49.3023C50.273 49.3023 49.8253 49.75 49.8253 50.3023H51.8253ZM42.8341 71.8075C43.326 71.5563 43.5212 70.954 43.2701 70.4621C43.019 69.9702 42.4166 69.775 41.9247 70.0261L42.8341 71.8075ZM35.725 71.5102C35.1727 71.5102 34.725 71.958 34.725 72.5102C34.725 73.0625 35.1727 73.5102 35.725 73.5102V71.5102ZM42.8341 75.5255C43.326 75.2744 43.5212 74.672 43.2701 74.1801C43.019 73.6883 42.4166 73.4931 41.9247 73.7442L42.8341 75.5255ZM35.725 75.2283C35.1727 75.2283 34.725 75.676 34.725 76.2283C34.725 76.7806 35.1727 77.2283 35.725 77.2283V75.2283ZM42.8259 79.2518C43.3178 79.0007 43.513 78.3984 43.2619 77.9065C43.0108 77.4146 42.4084 77.2194 41.9165 77.4705L42.8259 79.2518ZM35.7168 78.9546C35.1645 78.9546 34.7168 79.4023 34.7168 79.9546C34.7168 80.5069 35.1645 80.9546 35.7168 80.9546V78.9546ZM42.8259 82.9781C43.3178 82.727 43.513 82.1247 43.2619 81.6328C43.0108 81.1409 42.4084 80.9457 41.9165 81.1968L42.8259 82.9781ZM35.7168 82.6809C35.1645 82.6809 34.7168 83.1286 34.7168 83.6809C34.7168 84.2332 35.1645 84.6809 35.7168 84.6809V82.6809ZM42.7159 68.1828C43.2078 67.9317 43.403 67.3294 43.1519 66.8375C42.9007 66.3456 42.2984 66.1504 41.8065 66.4015L42.7159 68.1828ZM35.6067 67.8856C35.0545 67.8856 34.6067 68.3333 34.6067 68.8856C34.6067 69.4379 35.0545 69.8856 35.6067 69.8856V67.8856ZM42.8259 60.6451C43.3178 60.394 43.513 59.7916 43.2619 59.2997C43.0108 58.8078 42.4084 58.6126 41.9165 58.8638L42.8259 60.6451ZM35.7168 60.3479C35.1645 60.3479 34.7168 60.7956 34.7168 61.3479C34.7168 61.9001 35.1645 62.3479 35.7168 62.3479V60.3479ZM42.8259 64.3714C43.3178 64.1203 43.513 63.518 43.2619 63.0261C43.0108 62.5342 42.4084 62.339 41.9165 62.5901L42.8259 64.3714ZM35.7168 64.0742C35.1645 64.0742 34.7168 64.5219 34.7168 65.0742C34.7168 65.6265 35.1645 66.0742 35.7168 66.0742V64.0742ZM88.8253 83.6452C88.8253 84.1974 89.273 84.6452 89.8253 84.6452C90.3776 84.6452 90.8253 84.1974 90.8253 83.6452H88.8253ZM90.8253 57C90.8253 56.4477 90.3776 56 89.8253 56C89.273 56 88.8253 56.4477 88.8253 57H90.8253ZM81.8341 79.8075C82.326 79.5563 82.5212 78.954 82.2701 78.4621C82.019 77.9702 81.4166 77.775 80.9247 78.0261L81.8341 79.8075ZM74.725 79.5102C74.1727 79.5102 73.725 79.958 73.725 80.5102C73.725 81.0625 74.1727 81.5102 74.725 81.5102V79.5102ZM81.8341 83.5255C82.326 83.2744 82.5212 82.672 82.2701 82.1801C82.019 81.6883 81.4166 81.4931 80.9247 81.7442L81.8341 83.5255ZM74.725 83.2283C74.1727 83.2283 73.725 83.676 73.725 84.2283C73.725 84.7806 74.1727 85.2283 74.725 85.2283V83.2283ZM81.8259 87.2518C82.3178 87.0007 82.513 86.3984 82.2619 85.9065C82.0108 85.4146 81.4084 85.2194 80.9165 85.4705L81.8259 87.2518ZM74.7168 86.9546C74.1645 86.9546 73.7168 87.4023 73.7168 87.9546C73.7168 88.5069 74.1645 88.9546 74.7168 88.9546V86.9546ZM81.8259 90.9781C82.3178 90.727 82.513 90.1247 82.2619 89.6328C82.0108 89.1409 81.4084 88.9457 80.9165 89.1968L81.8259 90.9781ZM74.7168 90.6809C74.1645 90.6809 73.7168 91.1286 73.7168 91.6809C73.7168 92.2332 74.1645 92.6809 74.7168 92.6809V90.6809ZM81.7159 76.1828C82.2078 75.9317 82.403 75.3294 82.1518 74.8375C81.9007 74.3456 81.2984 74.1504 80.8065 74.4015L81.7159 76.1828ZM74.6067 75.8856C74.0545 75.8856 73.6067 76.3333 73.6067 76.8856C73.6067 77.4379 74.0545 77.8856 74.6067 77.8856V75.8856ZM81.8259 72.3714C82.3178 72.1203 82.513 71.518 82.2619 71.0261C82.0108 70.5342 81.4084 70.339 80.9165 70.5901L81.8259 72.3714ZM74.7168 72.0742C74.1645 72.0742 73.7168 72.5219 73.7168 73.0742C73.7168 73.6265 74.1645 74.0742 74.7168 74.0742V72.0742ZM50.8355 75.6452H49.8355C49.8355 82.3275 43.444 88 35.2191 88V89V90C44.2436 90 51.8355 83.7141 51.8355 75.6452H50.8355ZM35.2191 89V88C26.9942 88 20.6027 82.3275 20.6027 75.6452H19.6027H18.6027C18.6027 83.7141 26.1946 90 35.2191 90V89ZM19.6027 75.6452H20.6027C20.6027 68.9628 26.9942 63.2903 35.2191 63.2903V62.2903V61.2903C26.1946 61.2903 18.6027 67.5762 18.6027 75.6452H19.6027ZM35.2191 62.2903V63.2903C43.444 63.2903 49.8355 68.9628 49.8355 75.6452H50.8355H51.8355C51.8355 67.5762 44.2436 61.2903 35.2191 61.2903V62.2903ZM19.6027 75.6452H20.6027V50.2878H19.6027H18.6027V75.6452H19.6027ZM50.8253 75.6452H51.8253V50.3023H50.8253H49.8253V75.6452H50.8253ZM17 35.5806H16V42.2581H17H18V35.5806H17ZM53.4382 42.2581H52.4382C52.4382 50.1697 44.8814 56.8387 35.2191 56.8387V57.8387V58.8387C45.6811 58.8387 54.4382 51.5563 54.4382 42.2581H53.4382ZM35.2191 57.8387V56.8387C25.5568 56.8387 18 50.1697 18 42.2581H17H16C16 51.5563 24.7572 58.8387 35.2191 58.8387V57.8387ZM53.4382 35.5806H52.4382C52.4382 43.4923 44.8814 50.1613 35.2191 50.1613V51.1613V52.1613C45.6811 52.1613 54.4382 44.8789 54.4382 35.5806H53.4382ZM35.2191 51.1613V50.1613C25.5568 50.1613 18 43.4923 18 35.5806H17H16C16 44.8789 24.7572 52.1613 35.2191 52.1613V51.1613ZM17 35.5806H18C18 27.669 25.5568 21 35.2191 21V20V19C24.7572 19 16 26.2824 16 35.5806H17ZM35.2191 20V21C44.8814 21 52.4382 27.669 52.4382 35.5806H53.4382H54.4382C54.4382 26.2824 45.6811 19 35.2191 19V20ZM53.4382 42.2581H54.4382V35.5806H53.4382H52.4382V42.2581H53.4382ZM42.3794 70.9168L41.9247 70.0261C40.0631 70.9765 37.9567 71.5102 35.725 71.5102V72.5102V73.5102C38.2792 73.5102 40.6965 72.8987 42.8341 71.8075L42.3794 70.9168ZM42.3794 74.6348L41.9247 73.7442C40.0631 74.6945 37.9567 75.2283 35.725 75.2283V76.2283V77.2283C38.2792 77.2283 40.6965 76.6167 42.8341 75.5255L42.3794 74.6348ZM42.3712 78.3612L41.9165 77.4705C40.0549 78.4209 37.9485 78.9546 35.7168 78.9546V79.9546V80.9546C38.271 80.9546 40.6883 80.343 42.8259 79.2518L42.3712 78.3612ZM42.3712 82.0875L41.9165 81.1968C40.0549 82.1472 37.9485 82.6809 35.7168 82.6809V83.6809V84.6809C38.271 84.6809 40.6883 84.0694 42.8259 82.9781L42.3712 82.0875ZM42.2612 67.2921L41.8065 66.4015C39.9449 67.3519 37.8385 67.8856 35.6067 67.8856V68.8856V69.8856C38.1609 69.8856 40.5783 69.274 42.7159 68.1828L42.2612 67.2921ZM42.3712 59.7544L41.9165 58.8638C40.0549 59.8141 37.9485 60.3479 35.7168 60.3479V61.3479V62.3479C38.271 62.3479 40.6883 61.7363 42.8259 60.6451L42.3712 59.7544ZM42.3712 63.4807L41.9165 62.5901C40.0549 63.5405 37.9485 64.0742 35.7168 64.0742V65.0742V66.0742C38.271 66.0742 40.6883 65.4626 42.8259 64.3714L42.3712 63.4807ZM89.8355 83.6452H88.8355C88.8355 90.3275 82.444 96 74.2191 96V97V98C83.2436 98 90.8355 91.7141 90.8355 83.6452H89.8355ZM74.2191 97V96C65.9942 96 59.6027 90.3275 59.6027 83.6452H58.6027H57.6027C57.6027 91.7141 65.1946 98 74.2191 98V97ZM58.6027 83.6452H59.6027C59.6027 76.9628 65.9942 71.2903 74.2191 71.2903V70.2903V69.2903C65.1946 69.2903 57.6027 75.5762 57.6027 83.6452H58.6027ZM74.2191 70.2903V71.2903C82.444 71.2903 88.8355 76.9628 88.8355 83.6452H89.8355H90.8355C90.8355 75.5762 83.2436 69.2903 74.2191 69.2903V70.2903ZM58.6027 83.6452H59.6027V58.5H58.6027H57.6027V83.6452H58.6027ZM89.8253 83.6452H90.8253V57H89.8253H88.8253V83.6452H89.8253ZM81.3794 78.9168L80.9247 78.0261C79.0631 78.9765 76.9567 79.5102 74.725 79.5102V80.5102V81.5102C77.2792 81.5102 79.6965 80.8987 81.8341 79.8075L81.3794 78.9168ZM81.3794 82.6348L80.9247 81.7442C79.0631 82.6945 76.9567 83.2283 74.725 83.2283V84.2283V85.2283C77.2792 85.2283 79.6965 84.6167 81.8341 83.5255L81.3794 82.6348ZM81.3712 86.3612L80.9165 85.4705C79.0549 86.4209 76.9485 86.9546 74.7168 86.9546V87.9546V88.9546C77.271 88.9546 79.6883 88.343 81.8259 87.2518L81.3712 86.3612ZM81.3712 90.0875L80.9165 89.1968C79.0549 90.1472 76.9485 90.6809 74.7168 90.6809V91.6809V92.6809C77.271 92.6809 79.6883 92.0694 81.8259 90.9781L81.3712 90.0875ZM81.2612 75.2921L80.8065 74.4015C78.9448 75.3519 76.8385 75.8856 74.6067 75.8856V76.8856V77.8856C77.1609 77.8856 79.5783 77.274 81.7159 76.1828L81.2612 75.2921ZM81.3712 71.4807L80.9165 70.5901C79.0549 71.5405 76.9485 72.0742 74.7168 72.0742V73.0742V74.0742C77.271 74.0742 79.6883 73.4626 81.8259 72.3714L81.3712 71.4807ZM90 54.5H89C89 61.2511 82.4502 67 74 67V68V69C83.2229 69 91 62.6606 91 54.5H90ZM74 68V67C65.5498 67 59 61.2511 59 54.5H58H57C57 62.6606 64.7771 69 74 69V68ZM58 54.5H59C59 47.7489 65.5498 42 74 42V41V40C64.7771 40 57 46.3394 57 54.5H58ZM74 41V42C82.4502 42 89 47.7489 89 54.5H90H91C91 46.3394 83.2229 40 74 40V41Z" fill="none" stroke="currentColor" stroke-width="1.5" />
<path d="M64.5531 29.0643L73.7666 36.6392L83.0107 29.0271" stroke="currentColor" stroke-width="1.5" stroke-miterlimit="10" stroke-linecap="round" fill="none" />
<path d="M73.7696 35.0524L73.2827 6" stroke="currentColor" stroke-width="1.5" stroke-linecap="round" stroke-linejoin="round" stroke-dasharray="2.1 3.5" fill="none" />
</svg>