<?xml version='1.0' encoding='utf-8'?>
<svg xmlns="http://www.w3.org/2000/svg" version="1.1" id="Layer_1" x="0px" y="0px" viewBox="0 0 110 110" style="enable-background:new 0 0 110 110;fill:none;stroke:currentColor;stroke-width:1.5" xml:space="preserve">
<path style="fill:none;stroke:currentColor;stroke-width:1.5" d="M62.933,41.623H47.863L40.329,54.67l7.535,13.047h15.069l7.535-13.047L62.933,41.623z" />
<path style="fill:none;stroke:currentColor;stroke-width:1.5" d="M35.604,26H20.535L13,39.047l7.535,13.058h15.069l7.535-13.058L35.604,26z" />
<path style="fill:none;stroke:currentColor;stroke-width:1.5" d="M35.604,57.564H20.535L13,70.612l7.535,13.058h15.069l7.535-13.058L35.604,57.564z" />
<path style="fill:none;stroke:currentColor;stroke-width:1.5" d="M90.326,26H75.256l-7.535,13.047l7.535,13.058h15.069l7.535-13.058L90.326,26z" />
<path style="fill:none;stroke:currentColor;stroke-width:1.5" d="M90.326,57.564H75.256l-7.535,13.047l7.535,13.058h15.069l7.535-13.058L90.326,57.564z" />
<path style="fill:none;stroke:currentColor;stroke-width:1.5" d="M26.037,37.089l1.841-5.651l1.841,5.651h5.938l-4.81,3.491l1.841,5.651l-4.81-3.491l-4.81,3.491  l1.841-5.651l-4.81-3.491H26.037z" />
<path style="fill:none;stroke:currentColor;stroke-width:1.5" d="M81.28,37.089l1.841-5.651l1.841,5.651H90.9l-4.81,3.491l1.841,5.651l-4.81-3.491l-4.81,3.491  l1.841-5.651l-4.81-3.491H81.28z" />
<path style="fill:none;stroke:currentColor;stroke-width:1.5" d="M26.037,68.643l1.841-5.651l1.841,5.651h5.938l-4.81,3.491l1.841,5.651l-4.81-3.491l-4.81,3.491  l1.841-5.651l-4.81-3.491H26.037z" />
<path style="fill:none;stroke:currentColor;stroke-width:1.5" d="M53.482,52.531l1.841-5.651l1.841,5.651h5.938l-4.81,3.491l1.841,5.651l-4.81-3.491l-4.81,3.491  l1.841-5.651l-4.81-3.491H53.482z" />
<path style="fill:none;stroke:currentColor;stroke-width:1.5" d="M81.28,68.643l1.841-5.651l1.841,5.651H90.9l-4.81,3.491l1.841,5.651l-4.81-3.491l-4.81,3.491  l1.841-5.651l-4.81-3.491H81.28z" />
<path style="fill:none;stroke:currentColor;stroke-width:1.5;stroke-linecap:round;stroke-linejoin:round" d="M62.933,41.623H47.863  L40.329,54.67l7.535,13.047h15.069l7.535-13.047L62.933,41.623z" />
<path style="fill:none;stroke:currentColor;stroke-width:1.5;stroke-linecap:round;stroke-linejoin:round" d="M35.604,26H20.535L13,39.047  l7.535,13.058h15.069l7.535-13.058L35.604,26z" />
<path style="fill:none;stroke:currentColor;stroke-width:1.5;stroke-linecap:round;stroke-linejoin:round" d="M35.604,57.564H20.535  L13,70.612l7.535,13.058h15.069l7.535-13.058L35.604,57.564z" />
<path style="fill:none;stroke:currentColor;stroke-width:1.5;stroke-linecap:round;stroke-linejoin:round" d="M90.326,26H75.256  l-7.535,13.047l7.535,13.058h15.069l7.535-13.058L90.326,26z" />
<path style="fill:none;stroke:currentColor;stroke-width:1.5;stroke-linecap:round;stroke-linejoin:round" d="M90.326,57.564H75.256  l-7.535,13.047l7.535,13.058h15.069l7.535-13.058L90.326,57.564z" />
<path style="fill:none;stroke:currentColor;stroke-width:1.5;stroke-linecap:round;stroke-linejoin:round" d="M26.037,37.089l1.841-5.651  l1.841,5.651h5.938l-4.81,3.491l1.841,5.651l-4.81-3.491l-4.81,3.491l1.841-5.651l-4.81-3.491H26.037z" />
<path style="fill:none;stroke:currentColor;stroke-width:1.5;stroke-linecap:round;stroke-linejoin:round" d="M26.037,37.089l1.841-5.651  l1.841,5.651h5.938l-4.81,3.491l1.841,5.651l-4.81-3.491l-4.81,3.491l1.841-5.651l-4.81-3.491H26.037z" />
<path style="fill:none;stroke:currentColor;stroke-width:1.5;stroke-linecap:round;stroke-linejoin:round" d="M81.28,37.089l1.841-5.651  l1.841,5.651H90.9l-4.81,3.491l1.841,5.651l-4.81-3.491l-4.81,3.491l1.841-5.651l-4.81-3.491H81.28z" />
<path style="fill:none;stroke:currentColor;stroke-width:1.5;stroke-linecap:round;stroke-linejoin:round" d="M81.28,37.089l1.841-5.651  l1.841,5.651H90.9l-4.81,3.491l1.841,5.651l-4.81-3.491l-4.81,3.491l1.841-5.651l-4.81-3.491H81.28z" />
<path style="fill:none;stroke:currentColor;stroke-width:1.5;stroke-linecap:round;stroke-linejoin:round" d="M26.037,68.643l1.841-5.651  l1.841,5.651h5.938l-4.81,3.491l1.841,5.651l-4.81-3.491l-4.81,3.491l1.841-5.651l-4.81-3.491H26.037z" />
<path style="fill:none;stroke:currentColor;stroke-width:1.5;stroke-linecap:round;stroke-linejoin:round" d="M26.037,68.643l1.841-5.651  l1.841,5.651h5.938l-4.81,3.491l1.841,5.651l-4.81-3.491l-4.81,3.491l1.841-5.651l-4.81-3.491H26.037z" />
<path style="fill:none;stroke:currentColor;stroke-width:1.5;stroke-linecap:round;stroke-linejoin:round" d="M53.482,52.531l1.841-5.651  l1.841,5.651h5.938l-4.81,3.491l1.841,5.651l-4.81-3.491l-4.81,3.491l1.841-5.651l-4.81-3.491H53.482z" />
<path style="fill:none;stroke:currentColor;stroke-width:1.5;stroke-linecap:round;stroke-linejoin:round" d="M53.482,52.531l1.841-5.651  l1.841,5.651h5.938l-4.81,3.491l1.841,5.651l-4.81-3.491l-4.81,3.491l1.841-5.651l-4.81-3.491H53.482z" />
<path style="fill:none;stroke:currentColor;stroke-width:1.5;stroke-linecap:round;stroke-linejoin:round" d="M81.28,68.643l1.841-5.651  l1.841,5.651H90.9l-4.81,3.491l1.841,5.651l-4.81-3.491l-4.81,3.491l1.841-5.651l-4.81-3.491H81.28z" />
<path style="fill:none;stroke:currentColor;stroke-width:1.5;stroke-linecap:round;stroke-linejoin:round" d="M81.28,68.643l1.841-5.651  l1.841,5.651H90.9l-4.81,3.491l1.841,5.651l-4.81-3.491l-4.81,3.491l1.841-5.651l-4.81-3.491H81.28z" />
</svg>