<?xml version='1.0' encoding='utf-8'?>
<svg xmlns="http://www.w3.org/2000/svg" version="1.1" id="Layer_1" x="0px" y="0px" viewBox="0 0 110 110" style="enable-background:new 0 0 110 110;fill:none;stroke:currentColor;stroke-width:1.5" xml:space="preserve">
<path style="fill:none;stroke:currentColor;stroke-width:1.5;stroke-linecap:round;stroke-linejoin:round" d="M66.57,46.36l-4.73,3.26  l-5.33-16.84l-5.88,18.05H31.66l15.22,11.42l-3.9,11.73c-2.42,2.71-5.18,5.87-8.12,7.66l5.65-17.46L14.7,45l31.97,0.02l0.35-0.36  l9.69-29.96L66.57,46.36z" />
<path style="fill:none;stroke:currentColor;stroke-width:1.5;stroke-linecap:round;stroke-linejoin:round" d="M95.65,47.37l-6.71,4.84  c-11.16-3.09-21.57,2.94-28.37,11.91c-7.06,11.07-14.7,25.14-28.14,29.61c-1.87,0.78-3.83,1.3-5.88,1.59  c0.61-2.42,1.59-4.67,2.28-7.06c1.04-0.63,2.34-0.95,3.46-1.59c14.99-7.09,17.96-23.79,30.24-33.96c7.58-6.37,17.79-9.74,27.79-7.01  C92.14,46.19,93.95,46.68,95.65,47.37z" />
<path style="fill:none;stroke:currentColor;stroke-width:1.5;stroke-linecap:round;stroke-linejoin:round" d="M65.85,62.65l5.33,17.64  l-11.5-8.72l-2.86,4.46l24.75,18.88c0-0.09,0-0.17-0.09-0.2l-9.39-30.39l13.53-9.76C77.83,53.89,71.36,57.51,65.85,62.65z" />
</svg>