<?xml version='1.0' encoding='utf-8'?>
<svg xmlns="http://www.w3.org/2000/svg" width="110" height="110" viewBox="0 0 110 110" fill="none" stroke="currentColor" stroke-width="1.5">
<path d="M71.3215 99.2288H18.6978C15.426 99.2288 12.7711 96.5739 12.7711 93.3021V46.1527C12.7711 42.8809 15.426 40.226 18.6978 40.226H20.229M71.3215 99.2288V88M71.3215 99.2288L87.3609 99.2178C92.3182 99.1517 96.295 94.8995 96.2289 90.2176L96.1848 86.9458C96.1297 82.2639 92.0538 78.5184 87.0965 78.5845L77.8871 78.6726M20.229 40.226C21.9475 40.226 23.3465 38.8269 23.3465 37.1084V32.041M20.229 40.226L40.6748 40.226M55.5796 32.041V37.1084C55.5796 38.8269 56.9896 40.226 58.7081 40.226M58.7081 40.226L60.2283 40.226C63.5001 40.226 66.155 42.8809 66.155 46.1527V54.0293H12.7711M58.7081 40.226H49.6639M12.7711 86.417H39.4741M25.8802 32.041V25.8168M32.6661 32.041V25.8168M39.452 32.041V25.8168M46.2379 32.041V25.8168M53.0238 32.041V25.8168M71.7622 82.8477L81.5114 70.113C84.5188 66.1802 83.968 60.6721 80.2445 57.8299L77.6448 55.847C73.9213 52.9938 68.4684 53.8861 65.45 57.8189L55.6897 70.5536M71.7622 82.8477L55.6897 70.5536M71.7622 82.8477L62.013 95.5825C58.9945 99.5153 53.5416 100.408 49.8182 97.5544L47.2184 95.5715C43.4949 92.7293 42.9331 87.2212 45.9405 83.2884L55.6897 70.5536M84.9043 82.2198C84.9043 82.2198 92.197 80.8428 92.23 88.3889M67.3778 62.0381C67.3778 62.0381 70.3962 55.2631 76.6203 59.5264M61.5943 15.3844V32.041H17.3428V15.3844C17.3428 13.4015 18.9511 11.7711 20.9561 11.7711H57.9921C59.975 11.7711 61.5943 13.3905 61.5943 15.3844ZM54.4119 83.6629C53.7399 84.5442 52.4841 84.7095 51.6138 84.0375C50.7325 83.3655 50.5673 82.1097 51.2392 81.2394C51.9112 80.3581 53.167 80.1928 54.0373 80.8648C54.9186 81.5368 55.0838 82.7927 54.4119 83.6629ZM60.702 81.3826C60.2394 81.9885 59.3801 82.0986 58.7742 81.636C58.1683 81.1733 58.0582 80.314 58.5209 79.7081C58.9835 79.1022 59.8428 78.9921 60.4487 79.4547C61.0546 79.9174 61.1647 80.7767 60.702 81.3826ZM63.7094 89.4685C63.2467 90.0744 62.3875 90.1845 61.7816 89.7219C61.1757 89.2592 61.0656 88.3999 61.5282 87.794C61.9909 87.1881 62.8502 87.078 63.4561 87.5406C64.0619 88.0033 64.1721 88.8626 63.7094 89.4685ZM56.7693 94.0072C55.6457 95.4723 53.5526 95.7477 52.0875 94.6241C50.6223 93.5004 50.3469 91.4073 51.4706 89.9422C52.5942 88.477 54.6873 88.2016 56.1524 89.3253C57.6175 90.4489 57.8929 92.542 56.7693 94.0072ZM34.0431 60.7492H42.5806V66.8412H48.6725V75.3787H42.5806V81.4817H34.0431V75.3898H27.9513V66.8522H34.0431V60.7492Z" stroke="currentColor" stroke-width="1.5" stroke-linecap="round" stroke-linejoin="round" fill="none" />
</svg>