<?xml version='1.0' encoding='utf-8'?>
<svg xmlns="http://www.w3.org/2000/svg" width="110" height="110" viewBox="0 0 110 110" fill="none" stroke="currentColor" stroke-width="1.5">
<path d="M38 48.7049C38.9398 48.2033 40.465 47.4524 42.2592 47.367C43.9252 47.2923 46.2561 47.8071 47.2921 48.2234M62.0858 48.2234C62.9936 47.8178 65.0922 47.2923 66.534 47.2282C68.5524 47.1322 70.3466 47.7111 71.4146 48.2234M88 49.3924C88.3097 49.0936 90.6699 47.1855 93.5747 47.2603C93.5961 47.2603 93.6281 47.2603 93.6495 47.2603C96.234 47.3563 98.2417 49.4483 98.2417 51.9138V80.2619C98.2417 84.1149 94.9631 87.2422 90.9155 87.2422H19.0738C15.0262 87.2422 11.7476 84.1149 11.7476 80.2619V52.0312C11.7476 49.6297 13.6485 47.5698 16.1689 47.3883C16.3291 47.3777 16.5 47.367 16.6709 47.367C19.4689 47.3456 21.0511 48.6371 21.4676 49M58.5029 27.1412C58.5029 27.1412 57.8087 28.5287 55.032 26.4475C55.032 26.4475 46.5 19.5 41.832 27.835C41.832 27.835 39.0553 32.6913 41.832 37.5583C41.832 37.5583 43.2204 40.3333 43.2204 42.4146C43.2204 42.4146 43.2204 43.8021 45.9971 43.8021H63.3621C63.3621 43.8021 64.7505 43.8021 65.4446 42.4146C65.4446 42.4146 65.4446 39.6396 66.833 37.5583C66.833 37.5583 71 27.5 64.0563 24.3662C64.0563 24.3662 58.509 22.0312 53.6391 25.5M49.4679 49.3629V65.2767C49.4679 65.2767 48.7738 70.133 53.633 73.6018C53.633 73.6018 54.3272 74.2956 55.7155 73.6018C55.7155 73.6018 59.1864 71.5205 59.8806 65.2767V49.3629M46.6912 53.4721H62.6679M47.3854 57.6346H61.9738M47.7379 61.7972H61.2796M48.432 65.9704H60.5854M62.3262 43.8021V47.3243C62.3262 48.445 61.2796 49.3629 59.9874 49.3629H49.3932C48.101 49.3629 47.0544 48.4557 47.0544 47.3243V43.8021M40.4437 41.6035C40.166 38.5723 37.5602 36.1814 34.4951 36.1814C32.5301 36.1814 30.7893 37.1207 29.7 38.5723C28.6107 37.1207 26.8699 36.1814 24.9048 36.1814C21.8398 36.1814 19.234 38.5723 18.9563 41.6035C18.8815 42.8949 19.1912 44.3038 19.8213 45.3177C21.498 48.0074 22.2883 51.1453 21.8825 54.2939L21.6369 56.1938C21.4553 57.6133 23.1747 58.4672 24.1893 57.4532L27.3398 52.1273C28.3971 50.3448 30.9815 50.3448 32.0388 52.1273L35.1893 57.4532C36.2039 58.4672 37.9233 57.624 37.7417 56.1938L37.4961 54.2939C37.0903 51.156 37.8806 48.0074 39.5573 45.3177C40.1874 44.3038 40.5184 42.9056 40.4437 41.6035ZM90.6378 41.7956C90.3602 38.7644 87.7544 36.1814 84.6893 36.1814C82.7243 36.1814 80.9835 37.1207 79.8942 38.5723C78.8048 37.1207 77.0641 36.1814 75.099 36.1814C72.034 36.1814 69.4068 38.7644 69.1291 41.7956C69.0544 43.087 69.3854 44.3038 70.0155 45.3177C71.6922 48.0074 72.4825 51.1453 72.0767 54.2939L71.8311 56.1938C71.6495 57.6133 73.3689 58.4672 74.3835 57.4532L77.534 52.1273C78.5912 50.3448 81.1757 50.3448 82.233 52.1273L85.3835 57.4532C86.398 58.4672 88.1175 57.624 87.9359 56.1938L87.6903 54.2939C87.2845 51.156 88.0747 48.0074 89.7514 45.3177C90.3815 44.3038 90.7126 43.0977 90.6378 41.7956Z" stroke="currentColor" stroke-width="1.5" stroke-linecap="round" stroke-linejoin="round" fill="none" />
</svg>