<?xml version='1.0' encoding='utf-8'?>
<svg xmlns="http://www.w3.org/2000/svg" id="Layer_1" data-name="Layer 1" width="110" height="110" viewBox="0 0 110 110">
  <g>
    <path d="M74.6118,72.2883l-11.9205,3.1902c-.9606.2571-1.9721.256-2.9321-.0031l-11.1103-2.9985" style="fill:none;stroke:currentColor;stroke-miterlimit:10;stroke-width:1.5" />
    <path d="M42.2734,70.7564l-7.8764-2.1257c-1.9337,0-3.5012-1.5676-3.5012-3.5012v-12.0856c0-1.9337,1.5676-3.5012,3.5012-3.5012h53.882c1.9337,0,3.5012,1.5676,3.5012,3.5012v12.0856c0,1.9337-1.5676,3.5012-3.5012,3.5012l-7.4426,1.9918" style="fill:none;stroke:currentColor;stroke-miterlimit:10;stroke-width:1.5" />
    <rect x="42.4144" y="65.6688" width="6.253" height="11.8478" rx="2.8423" ry="2.8423" style="fill:none;stroke:currentColor;stroke-miterlimit:10;stroke-width:1.5" />
    <rect x="74.6667" y="65.6688" width="6.253" height="11.8478" rx="2.8423" ry="2.8423" style="fill:none;stroke:currentColor;stroke-miterlimit:10;stroke-width:1.5" />
    <path d="M34.1868,68.7043v22.6255c0,2.2771,1.5064,4.123,3.3647,4.123h47.9021c1.8583,0,3.3647-1.8459,3.3647-4.123v-22.7011" style="fill:none;stroke:currentColor;stroke-miterlimit:10;stroke-width:1.5" />
    <path d="M48.0919,49.5927l6.0057-6.7967s.3291-.6582,1.6455-.6582h11.8478s.9873,0,1.9746.9873l5.3759,6.3946" style="fill:none;stroke:currentColor;stroke-miterlimit:10;stroke-width:1.5" />
  </g>
  <path d="M87.0168,49.1529l1.2481-4.4797c.109-.4223-.1198-.9294-.5088-1.1267l-4.5852-2.646c-.4008-.2035-.7552-.7369-.7875-1.1854l-.5382-3.8635c-.0914-.4404.1033-1.0513.4323-1.3576l3.6759-3.814c.3192-.2975.3989-.8482.1773-1.224l-2.8409-4.8199c-.2216-.3757-.7421-.5727-1.1567-.4376l-5.1153,1.3669c-.4276.1392-1.0554.0127-1.3955-.2814l-3.1128-2.3494c-.376-.2468-.67-.8163-.6539-1.2654l-.0929-5.2961c.0159-.4359-.3168-.8818-.7391-.9911l-5.427-1.403c-.4224-.1092-.9291.1199-1.127.5085l-2.6468,4.5859c-.2034.4007-.7369.7546-1.1854.7871l-3.8625.5377c-.4402.0911-1.0511-.1034-1.3576-.4323l-3.8151-3.6757c-.2974-.3189-.8482-.3989-1.2239-.1772l-4.8199,2.8409c-.3758.2214-.5726.7421-.4373,1.1567l1.3672,5.1151c.1392.4276.0127,1.0555-.2814,1.3955l-2.3502,3.1127c-.2467.3759-.816.67-1.2653.6538l-5.2957.0929c-.4358-.0158-.8819.3168-.9911.7391l-1.4029,5.4271c-.1092.4224.1197.9296.5088,1.127l4.5855,2.6467c.4007.2035.7552.7369.7873,1.1852l.5384,3.863c.0911.4403-.1035,1.0509-.4324,1.3574l-1.5756,2.3267M49.2127,49.4609c-.2496-.3514-.4863-.7163-.7091-1.0944-2.0585-3.4938-2.6331-7.5799-1.6182-11.5058s3.4978-7.2217,6.9916-9.2801c7.2121-4.249,16.5364-1.8385,20.7857,5.3734,2.0584,3.4938,2.633,7.58,1.6181,11.5058-.4629,1.7906-1.2312,3.4501-2.2615,4.921" style="fill:none;stroke:currentColor;stroke-miterlimit:10;stroke-width:1.5" />
  <path d="M51.9549,49.6142l3.2031-3.625s.2889-.5778,1.4444-.5778h10.3997s.8666,0,1.7333.8666l2.8858,3.4327" style="fill:none;stroke:currentColor;stroke-miterlimit:10;stroke-width:1.5" />
  <g>
    <circle cx="29.7731" cy="32.2783" r="4.8274" style="fill:none;stroke:currentColor;stroke-linecap:round;stroke-linejoin:round;stroke-width:1.5" />
    <path d="M37.2223,42.6011c-.4416-.393-1.0844-.4612-1.5956-.1644-.4856.282-.9941.5302-1.5229.7409-.546.2177-.8877.7603-.8535,1.3471.0875,1.5006.24,4.1159.24,4.1159l-5.5076.3211-.2398-4.1122c-.0342-.5871-.437-1.0898-1.0049-1.2427-.5495-.1479-1.0833-.3353-1.5982-.5588-.5422-.2354-1.1727-.0929-1.5657.3487l-2.741,3.0804-4.1239-3.6695,2.741-3.0804c.393-.4416.4612-1.0844.1644-1.5956-.282-.4856-.5302-.9941-.7409-1.5229-.2177-.546-.7603-.8877-1.3471-.8535-1.5006.0875-4.1159.24-4.1159.24l-.3211-5.5076,4.1122-.2398c.5871-.0342,1.0898-.437,1.2427-1.0049.1479-.5495.3353-1.0833.5588-1.5982.2354-.5422.0929-1.1727-.3487-1.5657l-3.0804-2.741,3.6695-4.1239,3.0804,2.741c.4416.393,1.0844.4612,1.5956.1644.4864-.2824.9958-.531,1.5255-.742.5445-.2169.8851-.758.851-1.3431-.0875-1.5001-.2401-4.1189-.2401-4.1189l5.5076-.3211.2398,4.1122c.0342.5871.437,1.0898,1.0049,1.2427.5495.1479,1.0833.3353,1.5982.5588.5422.2354,1.1727.0929,1.5657-.3487l2.741-3.0804,4.1239,3.6695-2.741,3.0804c-.393.4416-.4612,1.0844-.1644,1.5956" style="fill:none;stroke:currentColor;stroke-linecap:round;stroke-linejoin:round;stroke-width:1.5" />
  </g>
</svg>