<?xml version='1.0' encoding='utf-8'?>
<svg xmlns="http://www.w3.org/2000/svg" width="110" height="110" viewBox="0 0 110 110" fill="none" stroke="currentColor" stroke-width="1.5">
<path d="M41.5761 50.8012H37.5184V70.9303M40.9922 43.1184H35.441C32.1268 43.1184 29.2162 45.3322 28.3344 48.524L20.3648 77.3737C19.5577 80.2931 20.1368 83.1937 21.6389 85.4747M52.6058 56.8191L53.9547 60.1266C54.6123 61.7393 56.4543 62.5196 58.0721 61.8588L64.8051 59.1224C66.4229 58.4654 67.2001 56.6212 66.5425 55.0048L54.2909 24.9306C53.6333 23.3141 51.7876 22.5376 50.1697 23.1984L43.4405 25.9348C41.8227 26.5918 41.0455 28.436 41.7031 30.0524L43.6199 34.7525M41.2062 19.7079L42.413 22.672M48.6229 20.1447L49.9313 23.2954M44.1691 84.896V77.3588C44.1691 76.3247 43.3322 75.4885 42.2972 75.4885H34.7946L24.7438 87.5018C23.9293 88.4761 24.6205 89.9619 25.8946 89.9619H29.403M44.1691 77.3625H80.9798V79.5763M66.7741 83.8657H82.3361C84.3014 83.8657 85.8968 85.4597 85.8968 87.4234V89.9619M92.3831 100.389V93.5382C92.3831 91.5634 90.7802 89.9619 88.8037 89.9619H29.3993C27.4227 89.9619 25.8199 91.5634 25.8199 93.5382V100.389H92.3831ZM40.1339 46.5081C40.1339 50.4391 43.3247 53.6272 47.2591 53.6272C51.1935 53.6272 54.3843 50.4391 54.3843 46.5081C54.3843 42.5771 51.1935 39.389 47.2591 39.389C43.3247 39.389 40.1339 42.5771 40.1339 46.5081ZM47.8978 16.9789L40.553 19.9721C39.1257 20.5538 37.4967 19.8693 36.9145 18.4432L36.2584 16.8359C35.6762 15.4098 36.3613 13.7822 37.7886 13.2006L45.1334 10.2073C46.5607 9.6256 48.1897 10.3101 48.7719 11.7362L49.428 13.3435C50.0102 14.7696 49.3251 16.3972 47.8978 16.9789Z" stroke="currentColor" stroke-width="1.5" stroke-linecap="round" stroke-linejoin="round" fill="none" />
</svg>