<?xml version='1.0' encoding='utf-8'?>
<svg xmlns="http://www.w3.org/2000/svg" id="Layer_1" data-name="Layer 1" width="110" height="110" viewBox="0 0 110 110">
  <path d="M63.7274,70.5396l11.3456-9.241c1.1299-1.1279,2.9669-1.1279,4.1034,0,1.13,1.1279,1.13,2.9616,0,4.0961l-9.2443,11.3385M45.6946,88.573l18.3037-18.2709c1.7048-1.7018,4.4603-1.7018,6.1651,0,1.7048,1.7018,1.7048,4.4523,0,6.1541l-18.3037,18.2709M95.544,44.8746l-18.4292,18.3896M90.6939,46.3257l3.3898,3.3903M88.9824,48.034l3.3899,3.3904M87.271,49.7424l3.3898,3.3903M85.5596,51.4508l3.3898,3.3903M83.8416,53.1591l3.3964,3.3904M82.1301,54.8741l3.3965,3.3837M80.4187,56.5824l3.3964,3.3838M93.185,44.4194v2.8099h2.815M53.1416,91.6467c0,2.4043-1.9525,4.3534-4.3611,4.3534s-4.3612-1.9491-4.3612-4.3534,1.9526-4.3533,4.3612-4.3533,4.3611,1.949,4.3611,4.3533ZM79.8769,63.1323c0,1.4862-1.2071,2.6911-2.696,2.6911s-2.696-1.2049-2.696-2.6911,1.207-2.6912,2.696-2.6912,2.696,1.2049,2.696,2.6912ZM39.13,13.95c-13.88,0-25.13,5.76-25.13,12.87,0,.95.2,1.88.59,2.77,2.47,5.77,12.52,10.09,24.54,10.09s22.07-4.32,24.54-10.09c.39-.89.59-1.82.59-2.77,0-7.11-11.25-12.87-25.13-12.87ZM39.1291,48.8423c-11.888,0-21.5252,4.9345-21.5252,11.0214s9.6371,11.0214,21.5252,11.0214,21.5252-4.9345,21.5252-11.0214-9.6371-11.0214-21.5252-11.0214ZM17.5899,38.9638v20.8999M60.6682,38.98v20.8837M63.67,29.59c-2.47,5.77-12.52,10.09-24.54,10.09s-22.07-4.32-24.54-10.09c-.39-.89-.59-1.82-.59-2.77v5.53c0,2.42,1.31,4.69,3.59,6.63,4.39,3.73,12.4,6.23,21.54,6.23s17.15-2.5,21.54-6.23c2.28-1.94,3.59-4.21,3.59-6.63v-5.53c0,.95-.2,1.88-.59,2.77Z" style="fill:none;stroke:currentColor;stroke-linecap:round;stroke-miterlimit:10;stroke-width:1.5" />
</svg>