<?xml version='1.0' encoding='utf-8'?>
<svg xmlns="http://www.w3.org/2000/svg" version="1.1" id="Layer_1" x="0px" y="0px" viewBox="0 0 110 110" style="enable-background:new 0 0 110 110;fill:none;stroke:currentColor;stroke-width:1.5" xml:space="preserve">
<path style="fill:none;stroke:currentColor;stroke-width:1.5;stroke-linecap:round;stroke-linejoin:round;stroke-miterlimit:10" d="  M16.06,55.29c1.05-24.1,24.45-43.02,49.69-36.25 M65.75,19.04L61.91,13 M65.75,19.04l-6.6,3.71 M76.44,90.68  c-21.67,13.67-51.97,3.05-59.03-23.3 M17.41,67.38L14,73.67 M17.41,67.38l6.45,3.96 M76.44,23.63c20.73,12.8,25.62,42.83,7,61.44   M83.44,85.07l7.15-0.19 M83.44,85.07l0.21-7.56 M55.587,68L65,61.904V51.03 M55.587,68V56.501 M55.587,68V56.503L46,51.03   M55.587,68L46,61.904V51.03 M55.587,56.501L65,51.03 M55.587,56.501L46,51.03 M65,51.03L55.587,45L46,51.03 M50.981,37.269  l-0.015-6.566l8.784-0.011l0.015,6.566c-0.001,0.94,0.601,1.777,1.503,2.072c0.854,0.282,1.691,0.621,2.503,1.029  c0.833,0.42,1.839,0.253,2.498-0.419c1.689-1.697,4.633-4.651,4.633-4.651l6.226,6.196l-4.627,4.64  c-0.663,0.656-0.827,1.669-0.407,2.515c0.41,0.813,0.756,1.645,1.037,2.495c0.295,0.899,1.142,1.49,2.072,1.486l6.571-0.007  l0.021,8.778l-6.571,0.008c-0.941-0.002-1.778,0.598-2.071,1.5c-0.281,0.854-0.614,1.678-1.021,2.489  c-0.419,0.832-0.241,1.844,0.416,2.507c1.7,1.69,4.659,4.635,4.659,4.635l-6.193,6.215l-4.649-4.629  c-0.657-0.663-1.672-0.829-2.517-0.41c-0.813,0.409-1.645,0.754-2.496,1.033c-0.899,0.294-1.49,1.14-1.485,2.069l0.015,6.566  l-8.784,0.011L51.08,76.82c0.001-0.94-0.601-1.777-1.503-2.072c-0.855-0.282-1.68-0.615-2.492-1.023  c-0.833-0.42-1.845-0.243-2.508,0.413c-1.689,1.697-4.633,4.651-4.633,4.651l-6.226-6.196l4.627-4.64  c0.663-0.656,0.827-1.669,0.408-2.515c-0.41-0.813-0.756-1.645-1.037-2.495c-0.295-0.899-1.142-1.49-2.072-1.486l-6.571,0.007  l-0.021-8.778l6.571-0.007c0.941,0.002,1.778-0.598,2.071-1.5c0.281-0.854,0.614-1.678,1.021-2.489  c0.419-0.832,0.241-1.844-0.416-2.507c-1.7-1.69-4.659-4.635-4.659-4.635l6.194-6.215l4.649,4.629  c0.657,0.663,1.672,0.829,2.517,0.41c0.813-0.409,1.645-0.754,2.496-1.033C50.395,39.045,50.986,38.199,50.981,37.269z" />
</svg>