<?xml version='1.0' encoding='utf-8'?>
<svg xmlns="http://www.w3.org/2000/svg" id="Layer_1" data-name="Layer 1" width="110" height="110" viewBox="0 0 110 110">
  <polygon points="77.6783 34.3047 55.4717 21.4803 34.4313 34.3047 34.4313 90.9376 47.7185 90.9376 47.7185 78.2466 63.7363 78.2466 63.7363 90.9376 77.6783 90.9376 77.6783 34.3047" style="fill:none;stroke:currentColor;stroke-linejoin:round;stroke-width:1.5" />
  <circle cx="56.0549" cy="40.3472" r="11.9138" style="fill:none;stroke:currentColor;stroke-linejoin:round;stroke-width:1.5" />
  <polygon points="62.2325 38.4761 57.522 38.4761 57.522 33.7657 54.5877 33.7657 54.5877 38.4761 49.8772 38.4761 49.8772 41.4104 54.5877 41.4104 54.5877 46.1209 57.522 46.1209 57.522 41.4104 62.2325 41.4104 62.2325 38.4761" style="fill:none;stroke:currentColor;stroke-linejoin:round;stroke-width:1.5" />
  <rect x="41.4805" y="57.2794" width="4.3244" height="4.3244" style="fill:none;stroke:currentColor;stroke-linejoin:round;stroke-width:1.5" />
  <rect x="49.5115" y="57.2794" width="4.3244" height="4.3244" style="fill:none;stroke:currentColor;stroke-linejoin:round;stroke-width:1.5" />
  <rect x="57.5424" y="57.2794" width="4.3244" height="4.3244" style="fill:none;stroke:currentColor;stroke-linejoin:round;stroke-width:1.5" />
  <rect x="65.5734" y="57.2794" width="4.3244" height="4.3244" style="fill:none;stroke:currentColor;stroke-linejoin:round;stroke-width:1.5" />
  <rect x="41.4805" y="65.3103" width="4.3244" height="4.3244" style="fill:none;stroke:currentColor;stroke-linejoin:round;stroke-width:1.5" />
  <rect x="49.5115" y="65.3103" width="4.3244" height="4.3244" style="fill:none;stroke:currentColor;stroke-linejoin:round;stroke-width:1.5" />
  <rect x="13.681" y="67.9358" width="4.3244" height="4.3244" style="fill:none;stroke:currentColor;stroke-linejoin:round;stroke-width:1.5" />
  <rect x="21.712" y="67.9358" width="4.3244" height="4.3244" style="fill:none;stroke:currentColor;stroke-linejoin:round;stroke-width:1.5" />
  <rect x="13.681" y="75.9668" width="4.3244" height="4.3244" style="fill:none;stroke:currentColor;stroke-linejoin:round;stroke-width:1.5" />
  <rect x="21.712" y="75.9668" width="4.3244" height="4.3244" style="fill:none;stroke:currentColor;stroke-linejoin:round;stroke-width:1.5" />
  <rect x="57.5424" y="65.3103" width="4.3244" height="4.3244" style="fill:none;stroke:currentColor;stroke-linejoin:round;stroke-width:1.5" />
  <rect x="65.5734" y="65.3103" width="4.3244" height="4.3244" style="fill:none;stroke:currentColor;stroke-linejoin:round;stroke-width:1.5" />
  <rect x="9.82" y="43.4038" width="20.5407" height="47.3894" style="fill:none;stroke:currentColor;stroke-linejoin:round;stroke-width:1.5" />
  <rect x="93.9907" y="67.9358" width="4.3244" height="4.3244" transform="translate(192.3057 140.196) rotate(-180)" style="fill:none;stroke:currentColor;stroke-linejoin:round;stroke-width:1.5" />
  <rect x="85.9597" y="67.9358" width="4.3244" height="4.3244" transform="translate(176.2438 140.196) rotate(-180)" style="fill:none;stroke:currentColor;stroke-linejoin:round;stroke-width:1.5" />
  <rect x="93.9907" y="75.9668" width="4.3244" height="4.3244" transform="translate(192.3057 156.258) rotate(-180)" style="fill:none;stroke:currentColor;stroke-linejoin:round;stroke-width:1.5" />
  <rect x="85.9597" y="75.9668" width="4.3244" height="4.3244" transform="translate(176.2438 156.258) rotate(-180)" style="fill:none;stroke:currentColor;stroke-linejoin:round;stroke-width:1.5" />
  <rect x="13.681" y="51.9055" width="4.3244" height="4.3244" style="fill:none;stroke:currentColor;stroke-linejoin:round;stroke-width:1.5" />
  <rect x="21.712" y="51.9055" width="4.3244" height="4.3244" style="fill:none;stroke:currentColor;stroke-linejoin:round;stroke-width:1.5" />
  <rect x="13.681" y="59.9365" width="4.3244" height="4.3244" style="fill:none;stroke:currentColor;stroke-linejoin:round;stroke-width:1.5" />
  <rect x="21.712" y="59.9365" width="4.3244" height="4.3244" style="fill:none;stroke:currentColor;stroke-linejoin:round;stroke-width:1.5" />
  <rect x="93.9907" y="51.9055" width="4.3244" height="4.3244" transform="translate(192.3057 108.1354) rotate(-180)" style="fill:none;stroke:currentColor;stroke-linejoin:round;stroke-width:1.5" />
  <rect x="85.9597" y="51.9055" width="4.3244" height="4.3244" transform="translate(176.2438 108.1354) rotate(-180)" style="fill:none;stroke:currentColor;stroke-linejoin:round;stroke-width:1.5" />
  <rect x="93.9907" y="59.9365" width="4.3244" height="4.3244" transform="translate(192.3057 124.1973) rotate(-180)" style="fill:none;stroke:currentColor;stroke-linejoin:round;stroke-width:1.5" />
  <rect x="85.9597" y="59.9365" width="4.3244" height="4.3244" transform="translate(176.2438 124.1973) rotate(-180)" style="fill:none;stroke:currentColor;stroke-linejoin:round;stroke-width:1.5" />
  <rect x="81.6353" y="43.4038" width="20.5407" height="47.3894" transform="translate(183.8114 134.197) rotate(-180)" style="fill:none;stroke:currentColor;stroke-linejoin:round;stroke-width:1.5" />
  <polyline points="34.3706 39.3756 7.5444 39.3756 18.9946 23.9996 51.0552 23.9996" style="fill:none;stroke:currentColor;stroke-linejoin:round;stroke-width:1.5" />
  <polyline points="77.0636 39.3756 103.8898 39.3756 92.4396 23.9996 60.379 23.9996" style="fill:none;stroke:currentColor;stroke-linejoin:round;stroke-width:1.5" />
</svg>