<?xml version='1.0' encoding='utf-8'?>
<svg xmlns="http://www.w3.org/2000/svg" width="110" height="110" viewBox="0 0 110 110" fill="none" stroke="currentColor" stroke-width="1.5">
<path d="M82.5399 22.5C91.077 22.5 98 29.3299 98 37.7521V64.621C98 73.0432 91.077 79.873 82.5399 79.873H27.4601C18.923 79.873 12 73.0432 12 64.621V37.7521C12 29.3199 18.923 22.5 27.4601 22.5H59.3751M50.9653 79.873V93M60.0912 79.873V93M77.7236 93H33.3227M14.1922 72.4534H95.8078M41.7075 28.1962V47.6944M34.7134 31.0503L48.6915 44.8403M34.7134 44.8403L48.6915 31.0503M69.4671 32.7428H71.7584M80.5862 26.1933C81.5607 20.8155 78.7489 17 78.7489 17C78.6879 18.0415 78.2717 18.2518 77.6424 18.372C76.8201 18.5322 75.9675 18.4821 75.1452 18.3019C73.9575 18.0415 69.8159 17.0601 66.8721 17.681C66.6792 17.721 62.9436 18.5623 61.4717 21.5866C60.7205 23.1289 60.7814 24.7712 60.822 25.8728M64.5881 46.6529L68.9389 50M64.5881 46.6529L64.3155 41.3408M64.5881 46.6529L62.7 48.2953M76.6983 46.6529L72.6412 50M76.6983 46.6529L76.7918 41.3408M76.6983 46.6529L78.6575 48.2953M70.2219 51.9806L65.9179 59.6517M65.9179 59.6517L53.7772 50.3082M65.9179 59.6517L62.7101 48.2953L53.7772 50.3082M65.9179 59.6517L70.6787 72.4534L75.4599 59.6317M75.4599 59.6317L71.4198 51.9205M75.4599 59.6317L87.5803 50.3082M75.4599 59.6317L78.6575 48.2953M53.7772 50.3082L52.2748 50.6487C52.0819 50.6888 51.8992 50.7388 51.7165 50.7889C48.3971 51.7904 46.2248 54.9549 46.2248 58.3799L46.2755 65.9208C46.306 69.7263 49.2869 72.4334 53.1444 72.4534M87.5803 50.3082L78.6575 48.2953M87.5803 50.3082L89.0725 50.6487C89.2552 50.6888 89.4481 50.7388 89.6308 50.7889C92.9604 51.7904 95.1124 54.9549 95.1226 58.3799L95.0616 65.9208C95.0312 69.7263 91.8895 72.4334 88.0321 72.4534M65.5829 31.4109H67.9176C68.781 31.4109 69.4809 32.0991 69.4809 32.9481C69.4809 33.7971 68.781 34.4853 67.9176 34.4853H65.5829C64.7195 34.4853 64.0196 33.7971 64.0196 32.9481C64.0196 32.0991 64.7195 31.4109 65.5829 31.4109ZM73.3079 31.4109H75.6426C76.506 31.4109 77.2059 32.0991 77.2059 32.9481C77.2059 33.7971 76.506 34.4853 75.6426 34.4853H73.3079C72.4445 34.4853 71.7446 33.7971 71.7446 32.9481C71.7446 32.0991 72.4445 31.4109 73.3079 31.4109ZM61.36 30.3694C61.3702 30.8 61.36 31.5911 61.3194 33.1834C61.2687 35.4467 61.2078 36.4982 61.8067 36.8387C62.1011 37.009 62.4564 36.9489 62.7101 36.8788C62.7101 36.8788 63.1162 42.9275 68.8414 44.6901C69.826 44.9905 70.8716 45.0606 71.8766 44.8303C75.2264 44.0692 77.8454 41.0047 78.5458 36.8688C78.7489 36.8988 79.0635 36.9088 79.3376 36.7386C79.9568 36.338 79.8147 35.2464 79.764 33.4238C79.7437 32.7127 79.7234 31.6212 79.7843 30.2692V28.5868C79.7843 28.5868 76.3837 29.3278 74.2621 28.3264C70.5265 26.5538 70.0189 24.4508 67.4811 24.5509C67.0446 24.571 65.4712 24.631 64.5576 25.6926C63.4715 26.9544 64.1211 28.7069 62.8522 29.7685C62.3447 30.1991 61.7458 30.3193 61.36 30.3694ZM71.7017 48.7047L72.2759 49.2712C72.7783 49.7669 72.7783 50.5742 72.2759 51.0699L71.7017 51.6364C71.1992 52.1321 70.3809 52.1321 69.8785 51.6364L69.3042 51.0699C68.8018 50.5742 68.8018 49.7669 69.3042 49.2712L69.8785 48.7047C70.3809 48.209 71.1992 48.209 71.7017 48.7047ZM40.6112 41.3953C40.6112 41.3252 40.6011 41.2551 40.5909 41.185C40.2864 37.9003 37.4339 35.3165 34.0638 35.3065C31.9117 35.3065 30.0033 36.318 28.8055 37.9003C27.6077 36.328 25.6993 35.3065 23.5472 35.3065C20.1771 35.3065 17.3246 37.9003 17.0201 41.185C17.0201 41.2551 17.0099 41.3252 16.9998 41.3953C16.9186 42.7973 17.284 44.1092 17.9743 45.2008C19.8116 48.115 20.6846 51.51 20.238 54.9149L19.9741 56.9678C19.771 58.5101 21.6591 59.4214 22.7758 58.3298L26.2373 52.5615C27.3945 50.6287 30.2267 50.6287 31.3839 52.5615L34.8454 58.3298C35.962 59.4314 37.8501 58.5101 37.6471 56.9678L37.3832 54.9149C36.9365 51.51 37.8095 48.115 39.6469 45.2008C40.3371 44.1092 40.7026 42.7973 40.6214 41.3953H40.6112Z" stroke="currentColor" stroke-width="1.5" stroke-linecap="round" stroke-linejoin="round" fill="none" />
</svg>