<?xml version='1.0' encoding='utf-8'?>
<svg xmlns="http://www.w3.org/2000/svg" version="1.1" id="Layer_1" x="0px" y="0px" viewBox="0 0 110 110" style="enable-background:new 0 0 110 110;fill:none;stroke:currentColor;stroke-width:1.5" xml:space="preserve">
<path style="fill:none;stroke:currentColor;stroke-width:1.5" d="M47.406,83.491c-5.209,1.413-8.733,4.123-8.733,7.234  c0,4.57,7.602,8.274,16.98,8.274s16.98-3.705,16.98-8.274c0-3.111-3.524-5.821-8.733-7.234 M83,40.53C83,25.326,70.688,13,55.5,13  S28,25.326,28,40.53c0,4.509,1.082,8.764,3.002,12.52c0.263,0.515,0.543,1.02,0.837,1.516c0.317,0.535,0.652,1.058,1.004,1.568  L55.5,91.551l22.657-35.417l1.841-3.084C81.918,49.294,83,45.039,83,40.53z M55.5,54.565c-7.598,0-13.758-6.166-13.758-13.773  c0-7.606,6.16-13.773,13.758-13.773s13.758,6.166,13.758,13.773C69.258,48.399,63.098,54.565,55.5,54.565z" />
</svg>