<?xml version='1.0' encoding='utf-8'?>
<svg xmlns="http://www.w3.org/2000/svg" width="110" height="110" viewBox="0 0 110 110" fill="none" stroke="currentColor" stroke-width="1.5">
<path d="M17.6029 46.234C16.3603 46.5451 14.953 46.5929 13.4918 46.3971C12.0996 46.2012 11.0986 45.6712 10.7189 44.3922C10.2011 42.6639 9.95951 38.8732 10.0055 35.7507C10.04 33.9071 10.3852 31.2801 11.7659 31.3953C13.7449 31.5682 14.9038 34.5374 15.9164 36.381M26.2068 46.0934C24.0207 48.225 21.799 49.2776 20.6024 48.8743C19.6014 48.5402 17.3577 46.9732 16.7939 44.1503C16.2762 41.5232 15.908 39.046 15.908 35.4626C15.908 31.7525 16.886 29.6901 18.7499 29.667C21.4308 29.644 24.7111 33.0651 26.2068 36.6024M92.5126 46.152C93.7553 46.4631 95.1139 46.5929 96.5751 46.3971C97.9673 46.2012 98.9683 45.6712 99.348 44.3922C99.8658 42.6639 100.107 38.8732 100.061 35.7507C100.027 33.9071 99.6817 31.2801 98.301 31.3953C96.322 31.5682 95.1662 34.3463 94.1537 36.1898M83.8533 46.152C86.0394 48.2836 88.2679 49.2776 89.4645 48.8743C90.4655 48.5402 92.7268 46.9216 93.273 44.1503C93.7907 41.5232 94.1589 39.046 94.1589 35.4626C94.1589 31.7525 93.1809 29.6901 91.317 29.667C88.6361 29.644 85.3386 32.9449 83.8429 36.4822M97.1849 31.7976C97.1849 25.3337 91.7542 20 85.2994 20H76.2789C76.2789 20 64.7501 23.4566 53.2558 23.4566C41.7615 23.4566 36.2157 20 32.5569 20C23.5709 20 23.5363 20 23.5363 20C17.0816 20 12.426 25.0998 12.426 31.5637M31.4753 29.5172C27.9546 29.5172 26.2287 34.1837 26.0676 38.1473C25.8835 42.3989 25.9641 44.4614 26.3553 47.2497C26.5739 48.7937 27.1377 49.8537 28.7255 50.2109C31.2452 50.7755 35.3413 50.6602 37.0441 50.1417C38.5859 49.6809 39.0922 48.8858 39.1267 47.2267C39.1842 44.9338 39.3798 41.9956 38.8851 39.9217C37.3548 33.4923 34.3748 29.5172 31.4753 29.5172ZM54.4639 76.3314C53.693 72.3217 49.6545 66.9294 45.7655 67.1368C41.635 67.3672 38.4709 73.497 38.1717 76.8499C37.9071 79.8111 37.8726 84.0627 38.1717 86.8511C38.3328 88.3374 38.9886 89.3053 40.9791 89.6394C43.5449 90.0657 49.2748 90.4114 52.1397 90.0196C54.3489 89.7201 54.7861 88.3489 54.9126 86.6782C55.1658 83.2792 54.9932 79.1313 54.4524 76.3314H54.4639ZM78.5916 29.5172C82.1123 29.5172 83.8382 34.1837 83.9993 38.1473C84.1834 42.3989 84.1028 44.4614 83.7116 47.2497C83.493 48.7937 82.9292 49.8537 81.3414 50.2109C78.8217 50.7755 74.7256 50.6602 73.0228 50.1417C71.481 49.6809 70.9747 48.8858 70.9402 47.2267C70.8827 44.9338 70.6871 41.9956 71.1818 39.9217C72.7121 33.4923 75.6921 29.5172 78.5916 29.5172ZM55.603 76.3314C56.3739 72.3217 60.4124 66.9294 64.3014 67.1368C68.4319 67.3672 71.596 73.497 71.8952 76.8499C72.1598 79.8111 72.1943 84.0627 71.8952 86.8511C71.7341 88.3374 71.0783 89.3053 69.0878 89.6394C66.522 90.0657 60.7921 90.4114 57.9272 90.0196C55.718 89.7201 55.2808 88.3489 55.1543 86.6782C54.9011 83.2792 55.0737 79.1313 55.6145 76.3314H55.603Z" stroke="currentColor" stroke-width="1.5" stroke-linecap="round" stroke-linejoin="round" fill="none" />
<path d="M42.6013 39.4723C47.963 41.385 52.1166 48.955 52.1166 55.004V64.7171M55.4993 65.0927V36.2645M68.5469 39.4723C63.1852 41.385 59.0316 48.955 59.0316 55.004V64.7171" stroke="currentColor" stroke-width="1.5" stroke-miterlimit="10" stroke-linecap="round" stroke-dasharray="0.3 3.5" fill="none" />
</svg>