<?xml version='1.0' encoding='utf-8'?>
<svg xmlns="http://www.w3.org/2000/svg" width="110" height="110" viewBox="0 0 110 110" fill="none" stroke="currentColor" stroke-width="1.5">
<path d="M47.8057 59.3514L67.2358 39.4335L61.1386 33.2853M47.8057 59.3514L41.6979 53.1926M47.8057 59.3514L33.5258 76.4921C31.0572 79.4602 26.5667 79.651 23.8534 76.9161M61.1386 33.2853L47.6461 47.3413L41.6979 53.1926M61.1386 33.2853L63.9903 30.4868C65.6929 28.812 68.4382 28.8226 70.1301 30.5186C71.8113 32.2147 71.8007 34.9495 70.0981 36.635L67.2464 39.4335M41.6979 53.1926L24.3641 67.3017C21.3847 69.7291 21.1506 74.1919 23.8534 76.9161M23.8534 76.9161L21.8103 79.1634C18.4585 82.8523 18.7032 88.5447 22.353 91.9368C25.9921 95.3183 31.6743 95.1805 35.1432 91.6294L66.9804 59.0016C69.9066 56.0017 74.5992 55.6095 77.983 58.0688C82.0158 60.9945 82.6117 66.761 79.2811 70.4499L48.8698 100.417" stroke="currentColor" stroke-width="1.5" stroke-linecap="round" stroke-linejoin="round" fill="none" />
<path d="M75.13 25.0788L69 31.3388M79.97 26.2188H81.55M76.53 26.2188H77.19M82.57 23.6188H84.15M78.22 23.6188H79.8M73.87 23.6188H75.44M85.17 21.0188H86.75M80.82 21.0188H82.4M76.47 21.0188H78.04M72.12 21.0188H73.69M87.78 18.4188H89.35M83.42 18.4188H85M79.07 18.4188H80.65M74.72 18.4188H76.29M90.38 15.8188H90.78M86.02 15.8188H87.6M81.67 15.8188H83.25M77.32 15.8188H78.89M88.63 13.2188H90.2M84.27 13.2188H85.85M79.92 13.2188H81.5M86.87 10.6188H88.45M82.52 10.6188H84.1M81.22 28.0288L88.94 20.1088C91.34 17.6388 91.56 13.4088 89.15 10.9388C86.62 8.34875 82.47 8.35875 79.96 10.9388L72.03 19.0688C71.2 19.9188 71.22 21.2688 72.07 22.0988L78.19 28.0688C79.04 28.8988 80.39 28.8788 81.22 28.0288Z" stroke="currentColor" stroke-width="1.5" stroke-miterlimit="10" stroke-linecap="round" fill="none" />
</svg>