<?xml version='1.0' encoding='utf-8'?>
<svg xmlns="http://www.w3.org/2000/svg" width="110" height="110" viewBox="0 0 110 110" fill="none" stroke="currentColor" stroke-width="1.5">
<path d="M64.5 92.8761H35.5C33.388 92.8761 32.4846 89.6593 32.1581 86.8322C31.9884 85.3628 33.1992 84.1605 34.6784 84.1605M34.6784 48.6168V84.1605M34.6784 48.6168C48.3053 48.6202 58.955 48.648 72.5912 48.6513M34.6784 48.6168C33.1991 48.6164 32 47.4173 32 45.9381L32 41.7867C32 38.9351 34.8774 36.6212 37.729 36.6212H45.573M34.6784 84.1605H60.5M72.5912 48.6513V59M72.5912 48.6513C74.0353 48.6517 75.2059 47.481 75.2059 46.0369V41.4541C75.2059 38.6025 72.2383 36.6212 69.3867 36.6212L45.573 36.6212M45.573 29.4875H66.8712V17.4862C66.8712 15.7484 65.6039 14 63.8757 14H43.8299C42.0825 14 40.7794 15.758 40.7794 17.4862V29.4875H45.573ZM45.573 29.4875V36.6212M61.6968 30.1238V36.2248M85 83.1567C85 90.8042 79.6262 97 73 97C66.3738 97 61 90.8042 61 83.1567C61 75.5091 73 61 73 61C73 61 85 75.5091 85 83.1567ZM64.0357 60.1866C64.033 60.1265 64.0247 60.0691 64.0192 60.0117C63.7603 57.208 61.339 55.0055 58.4825 55C56.659 55 55.0393 55.8663 54.0201 57.208C53.0037 55.8663 51.384 54.9973 49.5605 55C46.704 55.0027 44.2828 57.208 44.0238 60.0117C44.0183 60.0691 44.0128 60.1292 44.0101 60.1866C43.9384 61.3835 44.2525 62.5039 44.8364 63.4358C46.3955 65.917 47.131 68.8191 46.7564 71.7212L46.5277 73.4756C46.3569 74.79 47.9601 75.5716 48.9049 74.6343L51.8385 69.7127C52.8219 68.0649 55.2239 68.0649 56.2073 69.7127L59.1409 74.6343C60.0857 75.5716 61.6888 74.79 61.518 73.4756L61.2894 71.7212C60.912 68.8219 61.6503 65.9198 63.2093 63.4358C63.7961 62.5012 64.1073 61.3835 64.0357 60.1866Z" stroke="currentColor" stroke-width="1.5" stroke-linecap="round" stroke-linejoin="round" fill="none" />
</svg>