<?xml version='1.0' encoding='utf-8'?>
<svg xmlns="http://www.w3.org/2000/svg" id="Layer_1" data-name="Layer 1" width="110" height="110" viewBox="0 0 110 110">
  <path d="M74.0729,18.6022l2.872-.2066c1.4713-.1058,2.7346,1.0349,2.7792,2.5093l.7618,25.2599c.0201.6692-.2191,1.3203-.6679,1.817l-36.3251,40.2143c-.9604,1.0632-2.6007,1.1466-3.664.1862l-25.9574-23.447c-1.0631-.9603-1.1465-2.6007-.1861-3.6639L50.0109,21.0566c.4485-.4965,1.0716-.8005,1.7389-.8486l14.1864-1.0205M78.6172,54.4297c.8848.7993.954,2.1642.155,3.0489l-34.8781,38.6124c-.9603,1.0632-2.6007,1.1466-3.6639.1861l-24.2158-21.8737c-.9619-.8688-1.0373-2.353-.1684-3.3149M82.8467,43.4089c3.7837-.2638,7.4743-1.9361,10.2176-4.9729,5.6256-6.228,5.1373-15.8373-1.0906-21.4629-6.228-5.6256-15.8373-5.1373-21.4629,1.0907-3.7085,4.1056-4.7601,9.6806-3.2619,14.6152M70.7014,34.6215c-1.2608,2.1147-3.9971,2.807-6.1118,1.5462-2.1146-1.2607-2.8069-3.997-1.5462-6.1117,1.2607-2.1147,3.997-2.8069,6.1117-1.5462s2.807,3.997,1.5463,6.1117Z" style="fill:none;stroke:currentColor;stroke-linecap:round;stroke-linejoin:round;stroke-width:1.5" />
</svg>