<?xml version='1.0' encoding='utf-8'?>
<svg xmlns="http://www.w3.org/2000/svg" width="110" height="110" viewBox="0 0 110 110" fill="none" stroke="currentColor" stroke-width="1.5">
<path d="M20.8185 96.7952L33.6369 83.9768L37.9751 77.9033C38.347 77.3826 38.4474 76.7154 38.245 76.1083L37.7495 74.6217C37.6463 74.312 37.7269 73.9706 37.9577 73.7398V73.7398C38.2942 73.4032 38.8399 73.4032 39.1765 73.7398L40.8181 75.3814C41.2086 75.7719 41.8418 75.7719 42.2323 75.3814L42.7902 74.8235C43.1807 74.433 43.1807 73.7998 42.7902 73.4093L35.8231 66.4422C35.4325 66.0517 34.7994 66.0517 34.4089 66.4422L33.851 67.0001C33.4605 67.3906 33.4605 68.0238 33.851 68.4143L35.9856 70.5489C36.3222 70.8855 36.3222 71.4311 35.9856 71.7677V71.7677C35.7548 71.9985 35.4134 72.0791 35.1037 71.9759L33.6171 71.4804C33.01 71.278 32.3428 71.3783 31.8221 71.7503L25.7486 76.0885L12.9302 88.9069M39.0601 68.6932C39.4545 68.2988 94.0143 14.3398 95.4933 12.8607C96.9724 11.3817 98.3664 12.7761 96.8874 14.2552C95.4083 15.7342 41.0322 70.6653 41.0322 70.6653M54.3566 51.2085L58.0369 54.8887M52.0957 53.6074L55.7511 57.2627M49.9065 55.9814L53.6594 59.7343M47.9344 58.453L51.5677 62.0863M45.9623 60.8049L49.476 64.3186M20.3254 97.2882C18.1471 99.4665 14.6154 99.4665 12.4372 97.2882C10.2589 95.1099 10.2589 91.5782 12.4372 89.4C14.6154 87.2217 18.1471 87.2217 20.3254 89.4C22.5037 91.5782 22.5037 95.1099 20.3254 97.2882Z" stroke="currentColor" stroke-width="1.5" stroke-linecap="round" fill="none" />
</svg>