<?xml version='1.0' encoding='utf-8'?>
<svg xmlns="http://www.w3.org/2000/svg" width="110" height="110" viewBox="0 0 110 110" fill="none" stroke="currentColor" stroke-width="1.5">
<path d="M93.2159 21.2784C92.5432 21.4862 91.5199 20.9252 91 19.2447C90.4801 17.5641 90.9262 16.5781 91.6063 16.3959M93.2159 21.2784C93.8886 21.0706 94.3026 19.8157 93.7827 18.1351C93.2628 16.4546 92.2328 16.2281 91.6063 16.3959M93.2159 21.2784L65.6263 32.7097C61.7304 34.2005 60.9403 34.9885 59.5854 36.9182L20.6496 96.267M91.6063 16.3959L60.2757 29.3667C58.7419 30.0053 57.417 31.059 56.4501 32.4093L16.1873 93.082M20.6496 96.267C20.2446 96.8425 19.2362 96.8152 17.7963 95.8034C16.3563 94.7915 15.7823 93.6575 16.1873 93.082M20.6496 96.267C21.0547 95.6914 20.703 94.7309 19.263 93.7191C17.8231 92.7072 16.5923 92.5064 16.1873 93.082M25.4731 89.1015C25.068 89.677 23.8567 89.6496 22.4167 88.6377C20.9768 87.6259 20.5351 86.5755 20.9402 86M18.0998 94.9931L13 102.5" stroke="currentColor" stroke-width="1.5" stroke-linecap="round" fill="none" />
</svg>