<?xml version='1.0' encoding='utf-8'?>
<svg xmlns="http://www.w3.org/2000/svg" version="1.1" id="Layer_1" x="0px" y="0px" viewBox="0 0 110 110" style="enable-background:new 0 0 110 110;fill:none;stroke:currentColor;stroke-width:1.5" xml:space="preserve">
<path style="fill:none;stroke:currentColor;stroke-width:1.5;stroke-linecap:round;stroke-linejoin:round" d="M54.804,23.252  c15.443-2.304,30.35,10.233,29.159,27.105 M83.963,50.357l3.365-3.185 M83.963,50.357l-3.171-3.736 M48.997,88.574  c-15.443,2.304-30.349-10.233-29.159-27.106 M19.838,61.468l-3.364,3.185 M19.838,61.468l3.171,3.737 M65.06,73.867  c0,0,8.116,7.409,16.965,0c0,0,10.919,4.3,7.965,20.31c0,0-14.907,5.188-32.605,0C57.386,94.176,54.583,79.792,65.06,73.867z   M82.909,64.378c0,5.079-4.097,9.196-9.151,9.196s-9.151-4.117-9.151-9.196c0-5.079,4.097-9.196,9.151-9.196  S82.909,59.299,82.909,64.378z M28.015,32.685c0,0,8.116,7.409,16.965,0c0,0,10.919,4.3,7.965,20.31c0,0-14.907,5.188-32.605,0  C20.34,52.994,17.538,38.61,28.015,32.685z M45.875,23.196c0,5.079-4.097,9.196-9.151,9.196s-9.151-4.117-9.151-9.196  S31.67,14,36.724,14S45.875,18.117,45.875,23.196z" />
</svg>