<?xml version='1.0' encoding='utf-8'?>
<svg xmlns="http://www.w3.org/2000/svg" id="Layer_1" data-name="Layer 1" width="110" height="110" viewBox="0 0 110 110">
  <g>
    <path d="M66.5678,44.7092c.0137.018.0277.0354.0425.0528.4631.4861.9719.663,1.5256.5295l2.3308-.5618c.1251.2899.2418.5861.3498.8909.4448,1.2776.6885,2.5459.7307,3.8024l-2.3839.5091c-.5566.1186-.9381.4967-1.1438,1.133-.0078.0285-.0149.0565-.0214.0856l-.339,1.4303c-.0043.028-.0081.0559-.0106.0851-.0832.6587.1043,1.1603.5612,1.5042l1.8758,1.4614c-.7806,1.5048-1.7767,2.7688-2.9883,3.7938l-1.8963-1.5476c-.437-.3651-.9669-.4321-1.5893-.2006-.0285.0093-.0568.0199-.0847.0317l-1.3136.6457c-.0221.0099-.0432.0211-.064.0322-.5774.3465-.8632.8052-.858,1.3769l.0317,2.3839c-1.6212.3272-3.2245.3241-4.81-.0106l.0317-2.4156c.0043-.5693-.2819-1.0243-.8583-1.367-.0208-.0186-.0419-.036-.0633-.0534l-1.3034-.6239c-.0317-.0118-.0636-.0229-.0956-.0323-.6233-.2309-1.1529-.1632-1.5893.2011l-1.8432,1.4943c-1.2338-1.0305-2.2231-2.2814-2.9669-3.7509l1.8755-1.4726c.4532-.3451.6363-.8468.5507-1.5036-.0028-.0292-.0062-.0571-.0102-.0857l-.3287-1.4303c-.0065-.0254-.0137-.0496-.0211-.0732-.2114-.6295-.5963-1.0001-1.1547-1.1125l-2.3417-.4985c.0444-1.5743.4079-3.1319,1.0914-4.6716l2.3311.5612c.5541.1341,1.0628-.0391,1.5253-.5203.0221-.0229.0432-.0478.064-.0732l.8896-1.1336c.0183-.0249.036-.0496.0531-.0745.3591-.5544.4085-1.0839.1487-1.5893l-1.0703-2.1828c.9976-.7406,2.1275-1.3347,3.3902-1.7805.3259-.1154.6506-.2185.9747-.306l.9964,2.1188c.2338.5252.6822.822,1.3453.889.0354.0019.0704.0019.1062,0h1.4726c.0285.0019.0565.0019.0847,0,.6664-.067,1.1184-.3638,1.3562-.889l.9958-2.1306c.7567.2037,1.5092.4836,2.257.8381.7564.3638,1.4561.781,2.098,1.2497l-1.0808,2.1623c-.2561.5078-.1993,1.0411.1695,1.5992.0168.0249.0348.0496.0528.0745l.9219,1.1547Z" style="fill:none;fill-rule:evenodd;stroke:currentColor;stroke-linecap:round;stroke-linejoin:round;stroke-width:1.5" />
    <path d="M58.9818,44.9413c-1.3422,0-2.4898.4737-3.4433,1.4204-.9536.9461-1.4303,2.0903-1.4303,3.4319,0,1.3428.4768,2.487,1.4303,3.4337.9536.9461,2.1011,1.4198,3.4433,1.4198s2.4897-.4737,3.4433-1.4198c.9536-.9467,1.4303-2.0908,1.4303-3.4337,0-1.3416-.4768-2.4857-1.4303-3.4319-.9536-.9467-2.1015-1.4204-3.4433-1.4204Z" style="fill:none;fill-rule:evenodd;stroke:currentColor;stroke-linecap:round;stroke-linejoin:round;stroke-width:1.5" />
  </g>
  <g>
    <path d="M80.9946,42.4624c6.1322,0,11.1032,4.9709,11.1032,11.103s-4.9709,11.1032-11.1032,11.1032v-22.2062Z" style="fill:none;stroke:currentColor;stroke-linecap:round;stroke-linejoin:round;stroke-width:1.5" />
    <path d="M36.5822,42.4624c-6.1323,0-11.1032,4.9709-11.1032,11.103s4.9709,11.1032,11.1032,11.1032v-22.2062Z" style="fill:none;stroke:currentColor;stroke-linecap:round;stroke-linejoin:round;stroke-width:1.5" />
    <path d="M36.5822,42.4624c0-12.2643,9.9419-22.2064,22.2062-22.2064s22.2062,9.9421,22.2062,22.2064" style="fill:none;stroke:currentColor;stroke-linecap:round;stroke-linejoin:round;stroke-width:1.5" />
    <path d="M64.2064,81.4568c9.2717,0,16.7882-7.5162,16.7882-16.7882" style="fill:none;stroke:currentColor;stroke-linecap:round;stroke-linejoin:round;stroke-width:1.5" />
    <path d="M64.2064,81.4568c0,2.9923-2.4257,5.4182-5.418,5.4182s-5.418-2.4259-5.418-5.4182,2.4257-5.418,5.418-5.418,5.418,2.4259,5.418,5.418Z" style="fill:none;stroke:currentColor;stroke-linecap:round;stroke-linejoin:round;stroke-width:1.5" />
  </g>
</svg>