<?xml version='1.0' encoding='utf-8'?>
<svg xmlns="http://www.w3.org/2000/svg" id="Layer_1" data-name="Layer 1" width="110" height="110" viewBox="0 0 110 110">
  <path d="M55.066,78.29c-3.185,0-5.768,2.582-5.768,5.768s2.582,5.768,5.768,5.768,5.768-2.582,5.768-5.768c-.001-3.185-2.583-5.768-5.768-5.768ZM55.066,78.29v-27.29M51,66h8M51,60h8M51,54h8M51,48h8M51,42h8M51,36h8M51,30h8M63.989,75.795c-.69-.758-1.085-1.74-1.085-2.767V22.838c0-4.329-3.509-7.838-7.838-7.838-.81,0-1.594.123-2.33.353-.246.078-.486.165-.719.262-2.813,1.189-4.786,3.976-4.786,7.223v50.189c0,1.027-.395,2.009-1.089,2.767-2.025,2.223-3.231,5.204-3.137,8.47.175,6.173,5.12,11.306,11.286,11.691,7.019.441,12.848-5.12,12.848-12.044,0-3.127-1.192-5.975-3.143-8.12l-.007.004Z" style="fill:none;stroke:currentColor;stroke-linecap:round;stroke-width:1.5" />
  <path d="M82.5447,64.4553l-6.5447,6.5447-6.5447-6.5447,6.5447,6.5447v-35" style="fill:none;stroke:currentColor;stroke-linecap:round;stroke-linejoin:round;stroke-width:1.5" />
  <path d="M27.4553,42.5447l6.5447-6.5447,6.5447,6.5447-6.5447-6.5447v35" style="fill:none;stroke:currentColor;stroke-linecap:round;stroke-linejoin:round;stroke-width:1.5" />
</svg>