<?xml version='1.0' encoding='utf-8'?>
<svg xmlns="http://www.w3.org/2000/svg" width="110" height="110" viewBox="0 0 110 110" fill="none" stroke="currentColor" stroke-width="1.5">
<path d="M30.1125 77.7242L14.6952 95.0941C13.7135 96.2026 12.0168 96.3092 10.9069 95.3286C9.79713 94.3479 9.69042 92.6531 10.6722 91.5446L26.1548 74.1869M15.0934 74.4239L34.8959 52.1055L47.2852 43.3862L65.4797 24.157C67.8061 21.6947 71.6691 21.5242 74.1982 23.7626C76.7379 26.001 77.0367 29.849 74.8811 32.4605L58.0099 52.8516L50.8601 66.2076L31.0965 88.5615M33.6404 79.716L39.5272 73.1041C40.1995 72.3473 41.3627 72.2727 42.131 72.9442C42.8887 73.6158 42.9634 74.7776 42.2911 75.5451L32.4139 86.7178M65.8871 23.7626C64.4785 21.6308 64.6901 19.1791 66.1947 16.9194C68.2009 13.9135 72.2666 13.0927 75.2866 15.0967L89.5541 24.5834M89.5541 24.5834C86.5341 22.5794 82.4684 23.4002 80.4622 26.4061C78.456 29.4226 79.2777 33.4732 82.287 35.4771M89.5541 24.5834C90.6426 25.3082 91.4536 26.2995 91.9338 27.4187M91.9338 27.4187C89.5221 26.3528 86.6088 27.1522 85.1042 29.412M91.9338 27.4187C92.2219 27.5466 92.4887 27.6959 92.7555 27.8664C93.0436 28.0583 93.2997 28.2821 93.5345 28.506M91.9338 27.4187C92.0938 27.8024 92.2112 28.1968 92.3073 28.6019M91.9338 27.4187C89.5221 26.3528 86.6195 27.1416 85.1042 29.412M85.1042 29.412C83.5568 31.7357 84.005 34.7949 86.0326 36.5856M85.1042 29.412C83.5568 31.725 84.005 34.7842 86.0326 36.5856M86.0326 36.5856C84.7413 36.607 83.4395 36.2445 82.287 35.4771M86.0326 36.5856C86.2247 36.7455 86.4274 36.9054 86.6408 37.0546C86.8649 37.2039 87.0997 37.3424 87.3451 37.4597M86.0326 36.5856C86.3741 36.575 86.7155 36.543 87.057 36.479M82.287 35.4771L75.7457 31.086M93.5345 28.506C93.1183 28.506 92.7128 28.5379 92.3073 28.6019M93.5345 28.506C94.751 28.5166 95.9889 28.8684 97.0773 29.6039C100.087 31.6078 100.908 35.6689 98.9021 38.6855C96.8959 41.6914 92.8302 42.5122 89.8102 40.5082C88.6577 39.7408 87.8253 38.6642 87.3451 37.4597M92.3073 28.6019C90.6105 28.9003 89.0205 29.8703 87.9961 31.4159M92.3073 28.6019C90.6105 28.9003 89.0312 29.8703 87.9961 31.4159M87.3451 37.4597C87.2171 37.1399 87.1317 36.8095 87.057 36.479M87.057 36.479C86.6835 34.7949 86.9716 32.9615 87.9961 31.4159M87.057 36.479C86.6835 34.7949 86.961 32.9615 87.9961 31.4159M33.7861 81.4823C33.7861 87.3751 29.0037 92.1521 23.1042 92.1521C17.2047 92.1521 12.4223 87.3751 12.4223 81.4823C12.4223 75.5895 17.2047 70.8124 23.1042 70.8124C29.0037 70.8124 33.7861 75.5895 33.7861 81.4823ZM31.0863 81.5356C31.0863 85.9213 27.5269 89.4767 23.1362 89.4767C18.7455 89.4767 15.1861 85.9213 15.1861 81.5356C15.1861 77.1498 18.7455 73.5944 23.1362 73.5944C27.5269 73.5944 31.0863 77.1498 31.0863 81.5356ZM92.9582 30.9576C93.2143 30.9149 93.4704 30.9043 93.7265 30.9043C94.4842 30.9043 95.2525 31.1281 95.9355 31.5865C97.8136 32.8336 98.3152 35.3705 97.0667 37.2359C95.8181 39.1012 93.2784 39.6129 91.4109 38.3657C90.6852 37.8861 90.173 37.2145 89.8742 36.4684C89.7995 36.2765 89.7355 36.074 89.6928 35.8608C89.4581 34.8162 89.6288 33.6757 90.2691 32.7057C90.9093 31.7357 91.9018 31.1388 92.9582 30.9576Z" stroke="currentColor" stroke-width="1.5" stroke-miterlimit="10" fill="none" />
</svg>