<?xml version='1.0' encoding='utf-8'?>
<svg xmlns="http://www.w3.org/2000/svg" width="110" height="110" viewBox="0 0 110 110" fill="none" stroke="currentColor" stroke-width="1.5">
<path d="M54.9653 66.7064C58.022 66.7064 60.5 64.2287 60.5 61.1724V61.1027C60.5 58.0464 58.022 55.5688 54.9653 55.5688M54.9653 66.7064H16.5347C13.478 66.7064 11 64.2287 11 61.1724V61.1027C11 58.0464 13.478 55.5688 16.5347 55.5688H54.9653M54.9653 66.7064C58.0029 66.7064 60.5 64.2132 60.5 61.1376C60.5 58.062 58.0029 55.5688 54.9653 55.5688M54.9653 66.7064C51.9277 66.7064 49.5 64.2132 49.5 61.1376C49.5 58.062 51.9277 55.5688 54.9653 55.5688M77 61.1376C77 67.2887 81.9249 72.2752 88 72.2752C94.0751 72.2752 99 67.2887 99 61.1376C99 54.9865 94.0751 50 88 50C81.9249 50 77 54.9865 77 61.1376ZM77 61.1376H55M93.5 61.1376C93.5 64.2132 91.0376 66.7065 88 66.7065C84.9624 66.7065 82.5 64.2132 82.5 61.1376C82.5 58.062 84.9624 55.5688 88 55.5688C91.0376 55.5688 93.5 58.062 93.5 61.1376Z" stroke="currentColor" stroke-width="1.5" stroke-linecap="round" stroke-linejoin="round" fill="none" />
<path d="M77.7111 36.997V36.0193M77.7111 32.1088V31.1311M77.7111 27.2205V26.2429M77.7111 22.3323V21.3547M62.7458 35.5642L63.3205 34.7732M65.6194 31.6095L66.1941 30.8186M68.493 27.6549L69.0678 26.8639M71.3667 23.7002L71.9414 22.9093M74.2403 19.7456L74.815 18.9546M77.1139 15.7909L77.6886 15M92.6539 35.5642L92.0791 34.7732M89.7803 31.6095L89.2055 30.8186M86.9066 27.6549L86.3319 26.8639M84.033 23.7002L83.4583 22.9093M81.1594 19.7456L80.5847 18.9546M78.2858 15.7909L77.7111 15M35.9653 36.997V36.0193M35.9653 32.1088V31.1311M35.9653 27.2205V26.2429M35.9653 22.3323V21.3547M21 35.5642L21.5747 34.7732M23.8736 31.6095L24.4483 30.8186M26.7472 27.6549L27.322 26.8639M29.6209 23.7002L30.1956 22.9093M32.4945 19.7456L33.0692 18.9546M35.3681 15.7909L35.9428 15M50.9081 35.5642L50.3333 34.7732M48.0344 31.6095L47.4597 30.8186M45.1608 27.6549L44.5861 26.8639M42.2872 23.7002L41.7125 22.9093M39.4136 19.7456L38.8389 18.9546M36.54 15.7909L35.9652 15" stroke="currentColor" stroke-width="1.5" stroke-linecap="round" stroke-linejoin="round" fill="none" />
<path d="M36.6986 85V95M13 85L27.0044 95H93.0025C95.7662 95 98 92.765 98 90C98 87.235 95.7662 85 93.0025 85H13Z" stroke="currentColor" stroke-width="1.5" stroke-miterlimit="10" fill="none" />
</svg>