<?xml version='1.0' encoding='utf-8'?>
<svg xmlns="http://www.w3.org/2000/svg" width="110" height="110" viewBox="0 0 110 110" fill="none" stroke="currentColor" stroke-width="1.5">
<path d="M37.3555 64.8874L35.494 95C35.3445 97.3923 33.3634 99.2575 30.9674 99.2575H29.633C27.237 99.2575 25.2522 97.3923 25.1064 95L23.2461 64.8874M94.0295 50.2423V24.0172C94.0295 19.0645 90.0113 15.0462 85.0585 15.0462C80.1058 15.0462 76.0876 19.0645 76.0876 24.0172V87.4643C76.0876 93.2505 71.3965 97.9416 65.6103 97.9416C59.824 97.9416 55.1329 93.2505 55.1329 87.4643V23.9088C55.1329 16.9488 49.4924 11.3083 42.5325 11.3083C35.5725 11.3083 29.932 16.9488 29.932 23.9088V29.5M94.0295 50.2423C91.798 50.2423 89.9888 52.0514 89.9888 54.2829V66.3115C89.9888 67.6571 91.0803 68.7449 92.4222 68.7449H95.6442M94.0295 50.2423C96.261 50.2423 98.0776 52.0514 98.0776 54.2829V66.3115C98.0776 67.6534 96.9899 68.7449 95.6442 68.7449M25.4727 34.988C26.1904 33.2312 27.9173 31.9939 29.9357 31.9939C31.9524 31.9939 33.6778 33.2297 34.3986 34.988M95.648 68.7449H95.6442M43.052 64.8874H17.5521C15.8327 64.8874 14.4048 63.5567 14.2814 61.8447L12.8797 42.2208C12.7452 40.3219 14.2478 38.7109 16.1504 38.7109H44.4537C46.3563 38.7109 47.859 40.3257 47.7244 42.2208L46.3227 61.8447C46.1993 63.5604 44.7715 64.8874 43.052 64.8874ZM19.3052 45.3867H41.299V56.3649H19.3052V45.3867Z" stroke="currentColor" stroke-width="1.5" stroke-linecap="round" stroke-linejoin="round" fill="none" />
</svg>