<?xml version='1.0' encoding='utf-8'?>
<svg xmlns="http://www.w3.org/2000/svg" id="Layer_1" data-name="Layer 1" width="110" height="110" viewBox="0 0 110 110">
  <g>
    <path d="M62.4397,78.7691h36.5848c.3408,0,.6171.2762.6171.6169v1.881c-.0001,1.7773-1.4408,3.2181-3.2181,3.2181H13.5777c-1.7775,0-3.2185-1.4408-3.2189-3.2184l-.0004-1.8803c-.0001-.3408.2762-.6171.617-.6171h38.0718" style="fill:none;stroke:currentColor;stroke-linecap:round;stroke-linejoin:round;stroke-width:1.5" />
    <line x1="53.6471" y1="29.9428" x2="56.3527" y2="29.9428" style="fill:none;stroke:currentColor;stroke-linecap:round;stroke-linejoin:round;stroke-width:1.5" />
    <line x1="18.926" y1="34.1815" x2="91.0738" y2="34.1815" style="fill:none;stroke:currentColor;stroke-linecap:round;stroke-linejoin:round;stroke-width:1.5" />
    <path d="M10.8094,78.8004l8.1167-9.0501v-37.697c0-3.6111,2.9274-6.5384,6.5384-6.5384h59.0707c3.6111,0,6.5384,2.9274,6.5384,6.5384v37.697l8.1167,9.0501" style="fill:none;stroke:currentColor;stroke-linecap:round;stroke-linejoin:round;stroke-width:1.5" />
    <line x1="70.9043" y1="69.7819" x2="91.0738" y2="69.7819" style="fill:none;stroke:currentColor;stroke-linecap:round;stroke-linejoin:round;stroke-width:1.5" />
    <line x1="18.926" y1="69.7819" x2="30.1989" y2="69.7819" style="fill:none;stroke:currentColor;stroke-linecap:round;stroke-linejoin:round;stroke-width:1.5" />
    <line x1="34.7084" y1="74.5618" x2="36.512" y2="74.5618" style="fill:none;stroke:currentColor;stroke-linecap:round;stroke-linejoin:round;stroke-width:1.5" />
    <line x1="22.0825" y1="74.5618" x2="23.8862" y2="74.5618" style="fill:none;stroke:currentColor;stroke-linecap:round;stroke-linejoin:round;stroke-width:1.5" />
    <line x1="28.3954" y1="74.5618" x2="30.1991" y2="74.5618" style="fill:none;stroke:currentColor;stroke-linecap:round;stroke-linejoin:round;stroke-width:1.5" />
    <line x1="79.8007" y1="74.5618" x2="81.6045" y2="74.5618" style="fill:none;stroke:currentColor;stroke-linecap:round;stroke-linejoin:round;stroke-width:1.5" />
    <line x1="86.1137" y1="74.5618" x2="87.9174" y2="74.5618" style="fill:none;stroke:currentColor;stroke-linecap:round;stroke-linejoin:round;stroke-width:1.5" />
    <line x1="73.4878" y1="74.5618" x2="75.2915" y2="74.5618" style="fill:none;stroke:currentColor;stroke-linecap:round;stroke-linejoin:round;stroke-width:1.5" />
  </g>
  <g>
    <path d="M47.2683,59.2769s6.0298,5.4817,12.6079,0c0,0,8.1129,3.1794,5.9202,15.0198,0,0-11.073,3.8372-24.229,0,0,0-2.083-10.6345,5.7009-15.0198Z" style="fill:none;stroke:currentColor;stroke-miterlimit:10;stroke-width:1.5" />
    <circle cx="53.7367" cy="52.2603" r="6.7973" style="fill:none;stroke:currentColor;stroke-miterlimit:10;stroke-width:1.5" />
  </g>
  <path d="M62.6892,48.7507c0-6.1827,5.4584-11.1948,12.1916-11.1948,6.7333,0,12.1916,5.0121,12.1916,11.1948,0,6.1827-5.4584,11.1948-12.1916,11.1948-1.1342,0-2.2308-.1452-3.2726-.4113l-4.7086,3.6454v-5.9703c-2.5777-2.0526-4.2104-5.0796-4.2104-8.4585Z" style="fill:none;stroke:currentColor;stroke-linecap:round;stroke-linejoin:round;stroke-width:1.5" />
</svg>