<?xml version='1.0' encoding='utf-8'?>
<svg xmlns="http://www.w3.org/2000/svg" version="1.1" id="Layer_1" x="0px" y="0px" viewBox="0 0 110 110" style="enable-background:new 0 0 110 110;fill:none;stroke:currentColor;stroke-width:1.5" xml:space="preserve">
<path style="fill:none;stroke:currentColor;stroke-width:1.5;stroke-linecap:round;stroke-linejoin:round" d="M16.06,55.29  c1.05-24.1,24.45-43.02,49.69-36.25 M65.75,19.04L61.91,13 M65.75,19.04l-6.6,3.71 M76.44,90.68c-21.67,13.67-51.97,3.05-59.03-23.3   M17.41,67.38L14,73.67 M17.41,67.38l6.45,3.96 M76.44,23.63c20.73,12.8,25.62,42.83,7,61.44 M83.44,85.07l7.15-0.19 M83.44,85.07  l0.21-7.56 M47.882,64.248c0,0,0.798,3.31,3.972,8.815c0.861,1.493,0.075,3.167-1.426,3.828c-1.501,0.661-2.853,0.249-3.912-1.451  c-2.859-4.589-4.344-9.882-4.344-9.882 M65.144,48.432c2.196-0.504,4.375,0.827,4.867,2.972c0.492,2.145-0.889,4.292-3.085,4.796   M76.162,57.531l3.567,1.095 M76.546,49.808l3.656-0.853 M72.841,43.021l2.714-2.559 M48.843,49.306  c2.154-0.999,7.118-3.609,12.305-10.911c0.491-0.691,1.579-0.495,1.766,0.32l6.248,27.238c0.187,0.816-0.707,1.466-1.45,1.058  c-7.851-4.311-13.457-4.496-15.83-4.457L48.843,49.306z M36.249,51.415l10.756-2.467c0.921-0.211,1.835,0.347,2.042,1.247  l2.631,11.468c0.206,0.9-0.373,1.801-1.294,2.012l-10.756,2.467c-0.921,0.211-1.835-0.347-2.042-1.247l-2.631-11.468  C34.748,52.527,35.328,51.626,36.249,51.415z M34.316,54.582l0.86-0.192l2.184,9.547l-0.854,0.196  c-2.698,0.619-5.38-1.019-5.985-3.654C29.917,57.843,31.618,55.201,34.316,54.582z" />
</svg>