<?xml version='1.0' encoding='utf-8'?>
<svg xmlns="http://www.w3.org/2000/svg" width="110" height="110" viewBox="0 0 110 110" fill="none" stroke="currentColor" stroke-width="1.5">
<path d="M57.273 50.5269V69.2607M57.273 50.5269C57.273 52.2196 58.6481 53.5917 60.3443 53.5917C62.0406 53.5917 63.4156 52.2196 63.4156 50.5269C63.4156 48.8343 62.0406 47.4621 60.3443 47.4621C58.6481 47.4621 57.273 48.8343 57.273 50.5269ZM63.4055 50.5269V69.2607M60.3443 68.8954V84.1991M72.2736 50.872C72.2736 57.4464 66.9327 62.776 60.3443 62.776C53.7559 62.776 48.415 57.4464 48.415 50.872C48.415 44.2976 53.7559 38.968 60.3443 38.968C66.9327 38.968 72.2736 44.2976 72.2736 50.872ZM72.2736 50.872V24.2225M48.4048 50.872V24.2225M30.8108 42.3068C30.8108 37.9938 28.2174 34.5027 23.9054 34.5027C19.5832 34.5027 17 37.9938 17 42.3068V66.6729C17 86.4926 35.3161 100 55.178 100C75.0399 100 93 86.4926 93 66.6729V42.3068C93 37.9938 90.7016 34.5027 86.0946 34.5027C81.7724 34.5027 79.1892 37.9938 79.1892 42.3068M85.7387 56.6464H86.42M85.7387 56.6464C84.0199 56.6464 82.6267 57.9555 82.6267 59.6706V62.4208C82.6267 64.1358 84.0199 65.5262 85.7387 65.5262H86.42C88.1388 65.5262 89.532 64.1358 89.532 62.4208V59.6706C89.532 57.9555 88.1388 56.6464 86.42 56.6464M85.7387 56.6464C84.0199 56.6464 82.6267 55.256 82.6267 53.541V50.7908C82.6267 49.0757 84.0199 47.7564 85.7387 47.7564M86.42 56.6464C88.1388 56.6464 89.532 55.256 89.532 53.541V50.7908C89.532 49.0757 88.1388 47.7564 86.42 47.7564M85.7387 47.7564H86.42M85.7387 47.7564C84.0199 47.7564 82.6267 46.3661 82.6267 44.6511V41.9009C82.6267 40.1858 84.0199 38.7955 85.7387 38.7955H86.42C88.1388 38.7955 89.532 40.1858 89.532 41.9009V44.6511C89.532 46.3661 88.1388 47.7564 86.42 47.7564M23.3867 56.6362C21.668 56.6362 20.2747 57.9657 20.2747 59.6807V62.4309C20.2747 64.146 21.668 65.5363 23.3867 65.5363H24.0681C25.7868 65.5363 27.1801 64.146 27.1801 62.4309V59.6807C27.1801 57.9657 25.7868 56.6362 24.0681 56.6362M23.3867 56.6362H24.0681M23.3867 56.6362C21.668 56.6362 20.2747 55.2459 20.2747 53.5308V50.7806C20.2747 49.0656 21.668 47.7463 23.3867 47.7463M24.0681 56.6362C25.7868 56.6362 27.1801 55.2459 27.1801 53.5308V50.7806C27.1801 49.0656 25.7868 47.7463 24.0681 47.7463M23.3867 47.7463H24.0681M23.3867 47.7463C21.668 47.7463 20.2747 46.356 20.2747 44.6409V41.8907C20.2747 40.1757 21.668 38.7853 23.3867 38.7853H24.0681C25.7868 38.7853 27.1801 40.1757 27.1801 41.8907V44.6409C27.1801 46.356 25.7868 47.7463 24.0681 47.7463M23.7223 41.2311V45.0265M21.8206 43.1288H25.6241M23.7223 50.2631V54.0585M21.8206 52.1608H25.6241M23.7223 59.153V62.9485M21.8206 61.0507H25.6241M86.0743 41.2311V45.0265M84.1827 43.1288H87.976M86.0743 50.2631V54.0585M84.1827 52.1608H87.976M86.0743 59.153V62.9485M84.1827 61.0507H87.976M25.1868 69.961L26.0513 73.3302M84.6098 69.961L83.7453 73.3302M51.6083 76.4052H48.2319M68.5006 69.6667L71.877 66.2974M51.6083 69.6667L48.2319 66.2974M67.5039 50.872C67.5039 54.8177 64.2985 58.0164 60.3443 58.0164C56.3901 58.0164 53.1847 54.8177 53.1847 50.872C53.1847 46.9262 56.3901 43.7276 60.3443 43.7276C64.2985 43.7276 67.5039 46.9262 67.5039 50.872ZM63.4156 68.8954C63.4156 70.588 62.0406 71.9602 60.3443 71.9602C58.6481 71.9602 57.273 70.588 57.273 68.8954C57.273 67.2028 58.6481 65.8306 60.3443 65.8306C62.0406 65.8306 63.4156 67.2028 63.4156 68.8954ZM72.2736 23.8774C72.2736 30.4518 66.9327 35.7814 60.3443 35.7814C53.7559 35.7814 48.415 30.4518 48.415 23.8774C48.415 17.3031 53.7559 11.9735 60.3443 11.9735C66.9327 11.9735 72.2736 17.3031 72.2736 23.8774ZM75.2534 23.8774C75.2534 32.094 68.5784 38.7549 60.3443 38.7549C52.1102 38.7549 45.4352 32.094 45.4352 23.8774C45.4352 15.6609 52.1102 9 60.3443 9C68.5784 9 75.2534 15.6609 75.2534 23.8774ZM55.1678 82.7681C41.174 82.7681 30.8108 75.8774 30.8108 63.2225V38.8564C30.8108 34.5433 28.2174 31.0523 23.9054 31.0523C19.5832 31.0523 17 34.5433 17 38.8564V63.2225C17 83.0422 35.3161 96.5496 55.178 96.5496C75.0399 96.5496 93 83.0422 93 63.2225V38.8564C93 34.5433 90.7016 31.0523 86.0946 31.0523C81.7724 31.0523 79.1892 34.5433 79.1892 38.8564V63.2225C79.1892 75.8673 68.826 82.7681 55.178 82.7681H55.1678ZM63.6292 90.3591L56.7238 90.9781C55.7678 90.9781 54.9949 90.2069 54.9949 89.2529C54.9949 88.299 55.7678 87.5277 56.7238 87.5277L63.6292 86.9087C64.5852 86.9087 65.3581 87.6799 65.3581 88.6339C65.3581 89.5878 64.5852 90.3591 63.6292 90.3591ZM83.0233 79.1959L78.4366 83.7728C77.7654 84.4426 76.6671 84.4426 75.9959 83.7728L75.8738 83.6511C75.2433 83.0219 75.1924 82.0273 75.7518 81.3474L79.7486 76.4356C80.2977 75.7557 81.2842 75.5933 82.0165 76.0703L82.7283 76.5269C83.6538 77.1155 83.7962 78.4145 83.0233 79.1959ZM66.7751 85.8852L73.4419 83.0394C74.232 82.7021 75.1465 83.0678 75.4845 83.8562L75.6205 84.1735C75.9585 84.9619 75.5919 85.8744 74.8018 86.2117L68.135 89.0575C67.3449 89.3948 66.4305 89.0291 66.0925 88.2407L65.9565 87.9234C65.6185 87.135 65.985 86.2224 66.7751 85.8852ZM88.0981 68.9664L85.5861 75.2381C85.2607 76.05 84.3657 76.4965 83.5216 76.2529L82.0571 75.847C81.152 75.5933 80.613 74.6698 80.8469 73.7564L82.4843 67.3934C82.7182 66.5004 83.6131 65.9422 84.5183 66.135L86.8675 66.6425C87.915 66.8657 88.5049 67.982 88.1083 68.9664H88.0981ZM46.1776 90.3591L53.083 90.9781C54.0389 90.9781 54.8119 90.2069 54.8119 89.2529C54.8119 88.299 54.0389 87.5277 53.083 87.5277L46.1776 86.9087C45.2216 86.9087 44.4487 87.6799 44.4487 88.6339C44.4487 89.5878 45.2216 90.3591 46.1776 90.3591ZM26.7733 79.1959L31.36 83.7728C32.0312 84.4426 33.1295 84.4426 33.8007 83.7728L33.9228 83.6511C34.5533 83.0219 34.6042 82.0273 34.0448 81.3474L30.048 76.4356C29.4989 75.7557 28.5124 75.5933 27.7801 76.0703L27.0682 76.5269C26.1428 77.1155 26.0004 78.4145 26.7733 79.1959ZM41.6515 89.0516L34.9847 86.2058C34.1946 85.8685 33.828 84.956 34.166 84.1675L34.302 83.8503C34.64 83.0619 35.5545 82.6961 36.3446 83.0334L43.0114 85.8792C43.8015 86.2165 44.168 87.1291 43.83 87.9175L43.694 88.2347C43.3561 89.0231 42.4416 89.3889 41.6515 89.0516ZM21.6985 68.9664L24.2105 75.2381C24.5359 76.05 25.4309 76.4965 26.275 76.2529L27.7395 75.847C28.6446 75.5933 29.1836 74.6698 28.9497 73.7564L27.3123 67.3934C27.0784 66.5004 26.1835 65.9422 25.2783 66.135L22.9291 66.6425C21.8816 66.8657 21.2917 67.982 21.6883 68.9664H21.6985Z" stroke="currentColor" stroke-width="1.5" stroke-miterlimit="10" fill="none" />
</svg>