<?xml version='1.0' encoding='utf-8'?>
<svg xmlns="http://www.w3.org/2000/svg" width="110" height="110" viewBox="0 0 110 110" fill="none" stroke="currentColor" stroke-width="1.5">
<path d="M96.2746 23.8981C96.3743 21.2855 95.6122 17.1607 92.7191 14.2684C89.826 11.3762 84.804 11.0193 82.9574 10.824M74.0876 31.1975L88.1756 17.1569L89.9555 18.9363L75.8867 32.9865M89.8441 18.8251C89.4395 20.9829 90.1027 22.073 90.1027 22.073L77.2673 34.9798M88.0905 17.0718C85.9321 17.4764 84.8417 16.8133 84.8417 16.8133L71.8143 29.7586M57.664 32.0998C57.9014 31.9031 61.8383 28.2984 63.0702 27.7156C65.4594 27.9681 71.2545 28.2692 74.9976 32.0114C78.7408 35.7536 79.4233 40.5553 79.2944 43.9357C78.7116 45.1673 75.146 49.0812 75.146 49.0812M57.664 32.0998C58.6198 31.1996 59.9433 30.2462 61.0739 29.7115C63.4631 29.9641 69.2581 30.265 73.0012 34.0072C76.7444 37.7494 77.4269 42.5512 77.298 45.9314C76.763 47.0618 76.0464 48.1255 75.146 49.0812M57.664 32.0998C57.5784 32.1803 57.7476 32.0162 57.664 32.0998ZM57.664 32.0998C54.2796 35.4833 53.2929 40.3781 54.719 44.626L61.1052 38.2415M75.146 49.0812C75.2223 49.0086 75.0709 49.1561 75.146 49.0812ZM75.146 49.0812C75.0654 49.1667 74.9928 49.2566 74.9091 49.3403C71.6493 52.5993 67.0034 53.6248 62.8688 52.422L69.0791 46.2133M61.1052 38.2415C63.3071 36.0401 66.8772 36.0401 69.0791 38.2415C71.281 40.4428 71.281 44.0119 69.0791 46.2133M61.1052 38.2415L33.4401 65.9229M69.0791 46.2133L41.2709 73.9971M26.2935 71.6285L30.2237 67.6939C32.7982 65.12 36.9725 65.12 39.547 67.6939C42.1215 70.2677 42.1215 74.4409 39.547 77.0148L35.6567 80.9013M21.0385 85.8428L17.194 89.6864L11 102M85.4494 9C84.4972 9.45037 82.441 11.2443 82.2672 11.4506C82.0497 11.6307 81.838 11.8215 81.6343 12.0253C77.9537 15.705 77.9537 21.6708 81.6343 25.3504C85.3149 29.0301 91.2822 29.0301 94.9628 25.3504C95.1666 25.1467 95.3574 24.935 95.5376 24.7177C95.744 24.544 97.5384 22.4882 97.9889 21.5363C98.0885 18.9237 97.561 15.2124 94.6679 12.3202C91.7748 9.42789 87.2959 9.19525 85.4494 9ZM37.7047 76.1266C37.7047 79.7666 34.7531 82.7175 31.1121 82.7175C27.4711 82.7175 24.5196 79.7666 24.5196 76.1266C24.5196 72.4866 27.4711 69.5357 31.1121 69.5357C34.7531 69.5357 37.7047 72.4866 37.7047 76.1266ZM33.2371 78.4686C34.5007 77.2053 34.5007 75.1572 33.2371 73.8939C31.9736 72.6307 29.9248 72.6307 28.6613 73.8939L20.8674 81.6858C19.6039 82.9491 18.4032 86.1976 19.6667 87.4609C20.9303 88.7241 24.1797 87.5238 25.4432 86.2605L33.2371 78.4686Z" stroke="currentColor" stroke-width="1.5" stroke-linecap="round" stroke-linejoin="round" fill="none" />
</svg>