<?xml version='1.0' encoding='utf-8'?>
<svg xmlns="http://www.w3.org/2000/svg" version="1.1" id="Layer_1" x="0px" y="0px" viewBox="0 0 110 110" style="enable-background:new 0 0 110 110;fill:none;stroke:currentColor;stroke-width:1.5" xml:space="preserve">
<path style="fill:none;stroke:currentColor;stroke-width:1.5;stroke-linecap:round;stroke-linejoin:round;stroke-miterlimit:10" d="  M15.06,54.29c1.05-24.1,24.45-43.02,49.69-36.25 M64.75,18.04L60.91,12 M64.75,18.04l-6.6,3.71 M75.44,89.68  c-21.67,13.67-51.97,3.05-59.03-23.3 M16.41,66.38L13,72.67 M16.41,66.38l6.45,3.96 M75.44,22.63c20.73,12.8,25.62,42.83,7,61.44   M82.44,84.07l7.15-0.19 M82.44,84.07l0.21-7.56 M55.201,80L77,66.483V42.37 M55.201,80V54.502 M55.201,80V54.507L33,42.37   M55.201,80L33,66.483V42.37 M55.201,54.502L77,42.37 M55.201,54.502L33,42.37 M77,42.37L55.201,29L33,42.37" />
</svg>