<?xml version='1.0' encoding='utf-8'?>
<svg xmlns="http://www.w3.org/2000/svg" width="110" height="110" viewBox="0 0 110 110" fill="none" stroke="currentColor" stroke-width="1.5">
<path d="M87.8525 35.6664L101 21M87.8525 35.6664L68.0772 29.0327C63.9228 27.6336 59.5643 26.922 55.1818 26.922M87.8525 35.6664C87.8525 35.6664 84.0103 50.3328 89.7256 65.6746C81.801 77.5789 71.0669 86.2268 62.0618 88.3134C57.0909 89.4712 51.8919 89.1215 47.0292 87.5897C34.9383 83.7904 26.4014 75.7818 20.578 66.5309M24.036 35.6664L10 22.2182M24.036 35.6664L41.3259 29.3705M24.036 35.6664C24.036 35.6664 27.9503 54.2285 20.578 66.5309M24.036 35.6664C24.036 35.6664 27.9503 54.2165 20.578 66.5309M55.1818 26.922C50.4511 26.922 45.7684 27.7543 41.3259 29.3705M55.1818 26.922C50.4631 26.922 45.7684 27.7543 41.3259 29.3705M24.8964 42.3296L41.8782 37.8977C46.1407 36.2815 50.6432 35.4493 55.1818 35.4493C59.3842 35.4493 63.5626 36.1609 67.5489 37.56L86.8174 42.3296M25.067 47.9699L41.458 47.5949C45.8645 46.9918 50.5111 46.6903 55.2058 46.6903C59.5523 46.6903 63.8628 46.9556 67.9931 47.4743L86.5891 47.6431M24.727 53.272L41.0377 57.28C45.5883 57.7021 50.3911 57.9072 55.2178 57.9072C59.7084 57.9072 64.1629 57.7263 68.4134 57.3644L86.8234 52.6835M23.8734 58.1681L40.6175 66.9772C45.3122 68.4125 50.259 69.1482 55.2419 69.1482C59.8645 69.1482 64.4631 68.521 68.8456 67.2787L87.4063 57.0718M22.593 62.3515L40.1973 76.6623C45.024 79.1107 50.1269 80.3771 55.2659 80.3771C60.0326 80.3771 64.7633 79.3037 69.2779 77.1809L88.2518 60.993" stroke="currentColor" stroke-width="1.5" stroke-linecap="round" stroke-linejoin="round" fill="none" />
</svg>