<?xml version='1.0' encoding='utf-8'?>
<svg xmlns="http://www.w3.org/2000/svg" width="110" height="110" viewBox="0 0 110 110" fill="none" stroke="currentColor" stroke-width="1.5">
<path d="M34.4678 47.0029C32.3474 45.8943 28.9347 45.0804 24.3199 45.9505H24.2367C20.5366 46.6521 17.9589 49.9498 18.0005 53.5983L18.2222 88.7083C18.2638 95.2896 23.821 100.608 30.6531 100.608H73.3469C80.179 100.608 85.7362 95.2896 85.7778 88.7083L85.9995 53.5983C86.0411 49.9498 83.4634 46.6521 79.7633 45.9505H79.6801C75.0653 45.0804 71.6526 45.8943 69.5322 47.0029M34.4678 47.0029C34.1386 45.8975 33.9917 44.7116 34.0623 43.4807C34.0761 43.3684 34.09 43.2702 34.09 43.1579C34.5473 38.0641 38.8572 34.0507 43.9432 34.0507C47.1861 34.0507 50.0686 35.6224 51.884 38.0641C53.6995 35.6224 56.582 34.0507 59.8248 34.0507C64.9108 34.0647 69.2208 38.0641 69.6781 43.1579C69.692 43.2702 69.7058 43.3684 69.7058 43.4807H69.692C69.8167 45.6558 69.2623 47.6905 68.223 49.3885C65.4513 53.907 64.1486 59.1834 64.8138 64.4456L65.2157 67.6311C65.5206 70.0167 62.6658 71.434 60.9889 69.736L55.7644 60.7971C54.0182 57.8081 49.736 57.8081 47.9899 60.7971L42.7653 69.736C41.0884 71.434 38.2336 70.0167 38.5385 67.6311L38.9404 64.4456C39.6194 59.1693 38.3029 53.893 35.5312 49.3885C35.0801 48.6514 34.7203 47.8509 34.4678 47.0029ZM81.1029 14.4411L89.5 6M88.4696 22.0735L96.8999 13.6081M74.3759 19.8415L78.0734 16.1246C80.4914 13.694 84.424 13.694 86.842 16.1246C89.2599 18.5552 89.2599 22.5085 86.842 24.9391L83.1821 28.6182M69.4366 33.5164L65.8238 37.1482L60 48.7906M62.6119 51.6305C60.1398 55.2879 60.1624 57.054 63.244 67.6081C60.8889 61.9565 60.3184 61.3388 58.2363 57.0053C56.8857 54.1893 54.4574 52.8615 51.9998 52.8615C49.5423 52.8615 47.114 54.1941 45.7634 57.0053C43.6861 61.3388 43.1157 61.9516 40.7605 67.6081C43.8422 57.054 43.5 56.1081 41.5 51.6305C39.4663 48.1081 43 44.6081 47 44.6081C48.1268 44.6081 49.7427 44.916 50.6476 45.458C52.0348 46.3427 52.8439 46.5226 54.3652 45.6271C55.2701 45.0851 56.742 44.6081 57.8688 44.6081C60.9889 44.6081 64.8138 47.8166 62.6119 51.6305ZM85.1109 24.0974C85.1109 27.54 82.3354 30.33 78.9108 30.33C75.4861 30.33 72.7107 27.54 72.7107 24.0974C72.7107 20.6548 75.4861 17.8648 78.9108 17.8648C82.3354 17.8648 85.1109 20.6548 85.1109 24.0974ZM80.9147 26.3105C82.1002 25.1188 82.1002 23.18 80.9147 21.9883C79.7293 20.7967 77.8006 20.7967 76.6057 21.9883L69.2766 29.3559C68.0912 30.5475 66.9577 33.6155 68.1431 34.8167C69.3286 36.0083 72.3908 34.8791 73.5856 33.6875L80.9147 26.32V26.3105Z" stroke="currentColor" stroke-width="1.5" stroke-linecap="round" stroke-linejoin="round" fill="none" />
</svg>