<?xml version='1.0' encoding='utf-8'?>
<svg xmlns="http://www.w3.org/2000/svg" width="110" height="110" viewBox="0 0 110 110" fill="none" stroke="currentColor" stroke-width="1.5">
<path d="M33.9922 63.0984V46.1284H27.5958V63.0984M33.9922 63.0984H27.5958M33.9922 63.0984L33.9835 67.3365C33.9835 67.8065 33.6528 68.1807 33.2438 68.1807M27.5958 63.0984V67.3365C27.5958 67.8065 27.9265 68.1807 28.3356 68.1807M33.0871 46.1284V41.3857M33.0871 41.3857H31.3467M33.0871 41.3857L32.4171 37.3999H29.1449L28.4748 41.3857V46.1286M33.2438 68.1807H28.3356M33.2438 68.1807C33.2438 75.9694 39.6053 82.3051 47.4028 82.3051C55.2003 82.3051 61.5357 75.9609 61.5357 68.1721C61.5357 57.6681 70.0816 49.1222 80.5856 49.1222C91.0896 49.1222 99.6355 57.6681 99.6355 68.1721C99.6355 78.6761 91.0896 87.222 80.5856 87.222C74.7114 87.222 69.3593 84.5938 65.8174 80.2252M28.3356 68.1807C28.3356 78.6846 36.9076 87.2219 47.4116 87.2219C57.9155 87.2219 66.4615 78.676 66.4615 68.172C66.4615 60.3832 72.7969 54.0391 80.5944 54.0391C88.3919 54.0391 94.7273 60.3832 94.7273 68.172C94.7273 75.9608 88.3919 82.305 80.5944 82.305C75.3119 82.305 70.5952 79.4331 68.1497 74.873M66.4527 45.4844V51.437M66.4527 45.4844H61.5445M66.4527 45.4844L67.2707 37.5478M61.5445 57.755V45.4844M61.5445 45.4844L60.7177 37.5478M33.9835 47.1467L47.4376 43.4133C49.3348 42.8912 51.2145 44.3097 51.2145 46.2852V64.7955C51.2145 66.6839 49.4827 68.0938 47.6291 67.7108L38.7612 65.8659C37.1077 65.5178 35.6196 64.6301 34.5318 63.3335L33.9835 62.6808M45.584 48.0518C45.8015 47.9039 46.0626 47.8168 46.3411 47.8168C47.0895 47.8168 47.6987 48.426 47.6987 49.1744V51.1586C47.6987 51.907 47.0895 52.5162 46.3411 52.5162C46.0626 52.5162 45.8015 52.4292 45.5927 52.29M45.584 58.7993C45.8015 58.6514 46.0626 58.5644 46.3411 58.5644C47.0895 58.5644 47.6987 59.1736 47.6987 59.922V61.9062C47.6987 62.6546 47.0895 63.2638 46.3411 63.2638C46.0626 63.2638 45.8015 63.1767 45.5927 63.0375M37.6995 51.9157V53.604M37.6995 57.2241V58.9124M41.546 54.6918V56.3888M41.546 60.0004V61.6974M41.546 49.3834V51.0803M27.5958 47.1467L14.1417 43.4133C12.2445 42.8912 10.3647 44.3097 10.3647 46.2852V64.7955C10.3647 66.6839 12.0966 68.0938 13.9502 67.7108L22.8181 65.8659C24.4716 65.5178 25.9597 64.6301 27.0475 63.3335L27.5958 62.6808M15.9953 48.0518C15.7778 47.9039 15.5167 47.8168 15.2382 47.8168C14.4898 47.8168 13.8806 48.426 13.8806 49.1744V51.1586C13.8806 51.907 14.4898 52.5162 15.2382 52.5162C15.5167 52.5162 15.7778 52.4292 15.9866 52.29M15.9953 58.7993C15.7778 58.6514 15.5167 58.5644 15.2382 58.5644C14.4898 58.5644 13.8806 59.1736 13.8806 59.922V61.9062C13.8806 62.6546 14.4898 63.2638 15.2382 63.2638C15.5167 63.2638 15.7778 63.1767 15.9866 63.0375M23.8798 51.9157V53.604M23.8798 57.2241V58.9124M20.0333 54.6918V56.3888M20.0333 60.0004V61.6974M20.0333 49.3834V51.0803M30.7809 37.3998V20.778M60.4393 37.5478H67.558C68.202 37.5478 68.7415 37.0518 68.785 36.4078L69.3681 28.6712C69.4203 27.9576 68.8547 27.3484 68.141 27.3484H59.8562C59.1426 27.3484 58.5682 27.9576 58.6292 28.6712L59.2122 36.4078C59.2644 37.0518 59.7953 37.5478 60.4393 37.5478Z" stroke="currentColor" stroke-width="1.5" stroke-linecap="round" stroke-linejoin="round" fill="none" />
</svg>