<?xml version='1.0' encoding='utf-8'?>
<svg xmlns="http://www.w3.org/2000/svg" width="110" height="110" viewBox="0 0 110 110" fill="none" stroke="currentColor" stroke-width="1.5">
<path d="M75.2697 25.2609L70.1302 30.5186M70.1302 30.5186C68.4383 28.8226 65.693 28.812 63.9905 30.4868L61.1387 33.2853M70.1302 30.5186C71.8114 32.2147 71.8008 34.9495 70.0983 36.635L67.2465 39.4335M81.867 13.3673L79.6643 9M78.9727 15.8266L76.77 11.4593M76.1954 18.6357L73.9928 14.2684M87.0065 18.0527L91.4224 20.1727M84.5804 20.9783L88.9963 23.0984M81.8031 23.7874L86.2297 25.9075M47.8059 59.3514L67.2359 39.4335L61.1387 33.2853M47.8059 59.3514L41.698 53.1927M47.8059 59.3514L33.5259 76.4921C31.0573 79.4602 26.5669 79.651 23.8535 76.9161M61.1387 33.2853L47.6462 47.3413L41.698 53.1927M41.698 53.1927L24.3642 67.3017C21.3848 69.7291 21.1507 74.1919 23.8535 76.9161M23.8535 76.9161L21.8104 79.1634C18.4586 82.8523 18.7033 88.5447 22.3531 91.9368C25.9923 95.3183 31.6744 95.1805 35.1433 91.6294L66.9805 59.0016C69.9067 56.0017 74.5993 55.6095 77.9831 58.0688C82.0159 60.9945 82.6118 66.761 79.2813 70.4499L48.8699 100.417M81.2924 28.1654L88.8792 20.4059C91.2734 17.9573 91.582 13.9715 89.2517 11.4487C86.7617 8.76679 82.5693 8.73499 80.0368 11.3215L72.1945 19.3353C71.3752 20.1727 71.3964 21.5084 72.2371 22.314L78.2917 28.1972C79.1323 29.0134 80.473 28.9922 81.2817 28.1548L81.2924 28.1654Z" stroke="currentColor" stroke-width="1.5" stroke-linecap="round" stroke-linejoin="round" fill="none" />
</svg>