<?xml version='1.0' encoding='utf-8'?>
<svg xmlns="http://www.w3.org/2000/svg" id="Layer_1" data-name="Layer 1" width="110" height="110" viewBox="0 0 110 110">
  <g>
    <path d="M49.1817,60.4595l-5.6957,6.1927,3.9543,3.621c-6.3875,8.0781-12.7775,16.1567-19.1698,24.2365l.0007.0161-11.2758-10.37.0332-.0014c7.5001-7.0422,15.0012-14.0834,22.5028-21.1232l3.9548,3.621" style="fill:none;fill-rule:evenodd;stroke:currentColor;stroke-linecap:round;stroke-linejoin:round;stroke-width:1.5" />
    <circle cx="68.0768" cy="40.4023" r="24.9276" style="fill:none;stroke:currentColor;stroke-linecap:round;stroke-linejoin:round;stroke-width:1.5" />
  </g>
  <polyline points="82.1273 54.5815 82.1273 29.0111 85.3947 29.0111 78.521 20.8096 71.6472 29.0111 74.915 29.0111 74.915 54.5815 70.4812 54.5815 70.4812 36.2438 63.2689 36.2438 63.2689 54.5815 58.8351 54.5815 58.8351 43.4765 51.6228 43.4765 51.6228 54.5815" style="fill:none;stroke:currentColor;stroke-linecap:round;stroke-linejoin:round;stroke-width:1.5" />
</svg>