<?xml version='1.0' encoding='utf-8'?>
<svg xmlns="http://www.w3.org/2000/svg" width="110" height="110" viewBox="0 0 110 110" fill="none" stroke="currentColor" stroke-width="1.5">
<path d="M65.2187 60.4779L54.5492 36.6592V23.0377M33.3713 23.0377V36.67M33.3713 36.67L13.687 80.8288C12.4299 83.9714 12.4514 87.5475 13.7515 90.6684C14.4821 92.4023 15.5566 93.8977 16.8889 95.068C16.9642 95.1331 17.0286 95.1981 17.1038 95.2414H72.2135L70.3439 90.8093M33.3713 36.67H48.1131M75.9956 81.0998L70.3439 90.8093M75.9956 81.0998H83.0549M75.9956 81.0998L73.6211 76.7868M70.3439 90.8093H59.1608M59.1608 90.8093L53.6251 80.9264M59.1608 90.8093L56.3263 95.2414M53.6251 80.9264L59.2876 71.1952M53.6251 80.9264L50.9175 81.4682M59.2876 71.1952L64.4773 71.2385M59.2876 71.1952L57.1816 68.0201M73.75 65.6252L76.1138 61.4856M76.1138 61.4856L87.2991 61.5615M76.1138 61.4856L70.5803 51.6786M87.2991 61.5615L92.8541 71.3794M87.2991 61.5615L90.3184 56.3491M92.8541 71.3794L89.4265 77.2853M92.8541 71.3794L96.2172 72.0729M70.5803 51.6786L76.232 42.0232H87.4173L90.4151 47.344M70.5803 51.6786H65M92.9723 46.4662C95.8949 46.4771 98.2587 48.8936 98.248 51.8411C98.248 52.9681 97.8826 54.0193 97.2917 54.8862M88.7819 55.1029C88.0727 54.1927 87.6537 53.0332 87.6537 51.787C87.6537 50.5841 88.062 49.4679 88.7389 48.5793M91.2424 78.434C91.7689 79.2359 92.0483 80.1678 92.0375 81.1431C92.0268 83.6138 90.1894 85.6836 87.7504 85.9654C87.557 85.987 87.3636 85.9979 87.1702 85.9979C85.3543 85.9979 83.7748 84.9684 82.9582 83.473M70.4621 77.6212C68.152 77.6104 66.132 76.3317 65.0468 74.4461M76.3825 69.0604C76.6403 69.7539 76.78 70.5125 76.78 71.3035C76.78 72.7231 76.3072 74.0235 75.5229 75.0747M64.8749 68.421C65.9171 66.3404 68.0553 64.9208 70.5266 64.9317M24.8793 55.7206H63.0877M25.4095 75.4106C26.5592 76.1041 26.9353 77.5996 26.2476 78.7482C25.5599 79.9077 24.0772 80.287 22.9382 79.5935C21.7885 78.8999 21.4125 77.4045 22.1001 76.2558C22.7878 75.0963 24.2706 74.717 25.4095 75.4106ZM38.5503 77.9247C39.7 78.6182 40.076 80.1136 39.3884 81.2623C38.7007 82.4218 37.2179 82.8011 36.079 82.1076C34.9293 81.414 34.5533 79.9186 35.2409 78.7699C35.9286 77.6104 37.4114 77.2311 38.5503 77.9247ZM46.6196 62.5043C47.7693 63.1978 48.1453 64.6933 47.4577 65.8419C46.77 67.0014 45.2872 67.3807 44.1483 66.6872C42.9986 65.9936 42.6225 64.4982 43.3102 63.3495C43.9979 62.19 45.4806 61.8107 46.6196 62.5043ZM31.577 72.994C31.6952 73.0699 31.7381 73.2324 31.6629 73.3516C31.5877 73.4708 31.4265 73.5142 31.3084 73.4383C31.1902 73.3625 31.1472 73.1999 31.2224 73.0807C31.2976 72.9615 31.4588 72.9182 31.577 72.994ZM35.8426 87.0599C35.9608 87.1357 36.0038 87.2983 35.9286 87.4175C35.8534 87.5367 35.6922 87.58 35.574 87.5042C35.4558 87.4283 35.4128 87.2658 35.4881 87.1466C35.5633 87.0274 35.7244 86.984 35.8426 87.0599ZM29.8578 89.4114C29.976 89.4872 30.019 89.6498 29.9438 89.769C29.8686 89.8882 29.7074 89.9315 29.5892 89.8557C29.471 89.7798 29.428 89.6173 29.5032 89.4981C29.5785 89.3789 29.7396 89.3355 29.8578 89.4114ZM40.5703 71.2927C40.6885 71.3686 40.7315 71.5311 40.6563 71.6503C40.581 71.7695 40.4199 71.8129 40.3017 71.737C40.1835 71.6611 40.1405 71.4986 40.2157 71.3794C40.2909 71.2602 40.4521 71.2168 40.5703 71.2927ZM48.7685 70.6642C48.8867 70.74 48.9297 70.9026 48.8545 71.0218C48.7793 71.141 48.6181 71.1843 48.4999 71.1085C48.3817 71.0326 48.3387 70.8701 48.4139 70.7509C48.4892 70.6317 48.6503 70.5883 48.7685 70.6642ZM37.7015 58.6465C37.8197 58.7223 37.8626 58.8849 37.7874 59.0041C37.7122 59.1233 37.551 59.1666 37.4328 59.0908C37.3147 59.0149 37.2717 58.8524 37.3469 58.7332C37.4221 58.614 37.5833 58.5706 37.7015 58.6465ZM44.8252 77.8596C44.9434 77.9355 44.9864 78.098 44.9112 78.2172C44.836 78.3364 44.6748 78.3798 44.5566 78.3039C44.4384 78.2281 44.3954 78.0655 44.4706 77.9463C44.5458 77.8271 44.707 77.7838 44.8252 77.8596ZM29.3098 82.5193C29.428 82.5952 29.471 82.7578 29.3958 82.877C29.3206 82.9962 29.1594 83.0395 29.0412 82.9636C28.923 82.8878 28.88 82.7252 28.9553 82.606C29.0305 82.4868 29.1916 82.4435 29.3098 82.5193ZM36.3584 64.4007C36.4766 64.4765 36.5195 64.6391 36.4443 64.7583C36.3691 64.8775 36.2079 64.9208 36.0898 64.845C35.9716 64.7691 35.9286 64.6066 36.0038 64.4874C36.079 64.3682 36.2402 64.3248 36.3584 64.4007ZM32.039 23.0377H55.6129C56.9882 23.0377 58.0949 21.824 58.0949 20.3394V17.4568C58.0949 15.9614 56.9775 14.7585 55.6129 14.7585H32.039C30.6637 14.7585 29.557 15.9722 29.557 17.4568V20.3394C29.557 21.8348 30.6744 23.0377 32.039 23.0377ZM92.9616 49.1754C94.4013 49.1754 95.5618 50.3674 95.551 51.8195C95.551 53.2716 94.3691 54.4419 92.9293 54.4311C91.4895 54.4202 90.3291 53.2391 90.3399 51.787C90.3399 50.3349 91.5218 49.1645 92.9616 49.1754ZM87.2131 79.2684C88.2231 79.2684 89.0397 80.1028 89.0397 81.1214C89.0397 82.1401 88.2124 82.9636 87.2024 82.9636C86.1924 82.9636 85.3758 82.1292 85.3758 81.1106C85.3758 80.092 86.2031 79.2684 87.2131 79.2684ZM70.5051 67.9876C72.2995 67.9876 73.7607 69.4722 73.75 71.2927C73.75 73.1024 72.278 74.5762 70.4729 74.5653C68.6785 74.5653 67.2172 73.0807 67.228 71.2602C67.228 69.4505 68.7 67.9767 70.5051 67.9876Z" stroke="currentColor" stroke-width="1.5" stroke-linecap="round" stroke-linejoin="round" fill="none" />
</svg>