<?xml version='1.0' encoding='utf-8'?>
<svg xmlns="http://www.w3.org/2000/svg" id="Layer_1" data-name="Layer 1" width="110" height="110" viewBox="0 0 110 110">
  <g>
    <path d="M75.7771,81.9482v12.0618c0,2.9605-2.4003,5.3608-5.3608,5.3608H27.5301c-2.9605,0-5.3608-2.4003-5.3608-5.3608v-28.1443" style="fill:none;stroke:currentColor;stroke-linecap:square;stroke-linejoin:round;stroke-width:1.5" />
    <path d="M22.1693,41.7424v-20.1029c0-2.9605,2.4003-5.3608,5.3608-5.3608h42.8863c2.9605,0,5.3608,2.4003,5.3608,5.3608v4.0206" style="fill:none;stroke:currentColor;stroke-linecap:square;stroke-linejoin:round;stroke-width:1.5" />
    <polyline points="67.736 25.66 67.736 24.3198 30.2105 24.3198 30.2105 39.062" style="fill:none;stroke:currentColor;stroke-linecap:square;stroke-linejoin:round;stroke-width:1.5" />
    <polyline points="30.2105 68.5464 30.2105 83.2884 67.736 83.2884 67.736 81.9482" style="fill:none;stroke:currentColor;stroke-linecap:square;stroke-linejoin:round;stroke-width:1.5" />
    <line x1="43.6124" y1="91.3296" x2="54.334" y2="91.3296" style="fill:none;stroke:currentColor;stroke-linecap:round;stroke-linejoin:round;stroke-width:1.5" />
  </g>
  <g>
    <line x1="23.5095" y1="49.7835" x2="38.2516" y2="49.7835" style="fill:none;stroke:currentColor;stroke-linecap:round;stroke-linejoin:round;stroke-width:1.5" />
    <line x1="27.5301" y1="57.8247" x2="42.2722" y2="57.8247" style="fill:none;stroke:currentColor;stroke-linecap:round;stroke-linejoin:round;stroke-width:1.5" />
  </g>
  <path d="M96.9352,42.0378c-.1568-.3781-.6147-.6292-1.0176-.5578l-4.932.6017c-.4156.0735-.9824-.1262-1.26-.4439l-2.5855-2.59c-.3171-.2785-.5159-.8461-.4422-1.2614l.6058-4.9335c.0718-.403-.1791-.8608-.5573-1.0176l-4.8596-2.0129c-.3782-.1567-.8791-.01-1.1137.3253l-3.0588,3.9155c-.2414.3458-.7834.6049-1.2043.5765l-3.6594-.0051c-.4209.0271-.9632-.2335-1.205-.5792l-3.0648-3.9141c-.2347-.3352-.736-.4816-1.1141-.3246l-4.8501,2.01c-.3781.1567-.629.6148-.5575,1.0177l.602,4.9319c.0735.4156-.1262.9825-.4439,1.26l-2.5907,2.5853c-.2784.3171-.8459.516-1.2612.4422l-4.9331-.6058c-.4029-.0716-.8609.1791-1.0176.5572l-2.0129,4.8597c-.1567.3782-.0102.8794.3255,1.1137l3.9151,3.0587c.3458.2415.6054.7834.5767,1.2043l-.0045,3.66c.0271.421-.2335.963-.5792,1.2049l-3.9148,3.0638c-.3355.2347-.4818.7358-.325,1.1141l2.0105,4.8504c.1568.3781.6147.6292,1.0179.5579l4.9319-.602c.4154-.0734.9825.1263,1.26.4439l2.5845,2.5908c.317.2786.5158.8461.4419,1.2615l-.6049,4.9328c-.0717.403.1792.861.5573,1.0175l4.8598,2.0128c.3782.1566.8789.0102,1.1136-.3254l3.0587-3.9141c.2415-.3459.7836-.6055,1.2045-.5771l3.6594.0044c.4212-.027.9634.2335,1.205.5792l3.0643,3.9142c.2348.3354.7358.4815,1.1142.3249l4.8505-2.0104c.3779-.1567.6289-.6148.5577-1.0178l-.6022-4.9319c-.0737-.4154.126-.9824.4437-1.26l2.5902-2.5846c.2785-.317.846-.516,1.2614-.4422l4.9337.6053c.403.0717.8608-.1792,1.0175-.5573l2.0132-4.8599c.1565-.3782.0101-.8793-.3256-1.1135l-3.915-3.058c-.3458-.2415-.6054-.7834-.5768-1.2044l.0048-3.6605c-.0274-.4212.2334-.9634.5792-1.205l3.9142-3.0638c.3355-.2348.4816-.736.3248-1.1142l-2.01-4.8501ZM87.8315,48.6397c1.4562,3.5156,1.4561,7.3877,0,10.9031-1.4561,3.5155-4.1941,6.2535-7.7097,7.7097-7.257,3.0059-15.6067-.4526-18.6126-7.7096-1.4563-3.5156-1.4562-7.3877,0-10.9031,1.4561-3.5155,4.1941-6.2535,7.7097-7.7097,7.257-3.0058,15.6066.4527,18.6126,7.7096Z" style="fill:none;stroke:currentColor;stroke-miterlimit:10;stroke-width:1.5" />
</svg>