<?xml version='1.0' encoding='utf-8'?>
<svg xmlns="http://www.w3.org/2000/svg" version="1.1" id="Layer_1" x="0px" y="0px" viewBox="0 0 110 110" style="enable-background:new 0 0 110 110;fill:none;stroke:currentColor;stroke-width:1.5" xml:space="preserve">
<path style="fill:none;stroke:currentColor;stroke-width:1.5;stroke-linecap:round;stroke-linejoin:round" d="M65.609,44.348  l10.186-10.152 M75.796,34.196l-1.691-1.695l3.326-6.594l6.573-3.309l3.383,3.366l-3.326,6.597l-6.574,3.326L75.796,34.196z   M49.522,70.866l-16.433,16.5c-0.84,0.8-1.782,1.351-2.825,1.654c-0.641,0.189-1.32,0.285-2.037,0.29  c-0.899-0.004-1.738-0.151-2.517-0.443c-0.854-0.321-1.637-0.823-2.345-1.501l-0.73-0.711c-0.878-0.922-1.454-1.966-1.73-3.135  c-0.137-0.549-0.208-1.126-0.212-1.731c0.009-0.725,0.111-1.411,0.308-2.058c0.297-1.031,0.841-1.962,1.634-2.788l16.49-16.481   M20.616,32.675c-0.263,0.267-0.43,0.595-0.5,0.981c-0.074,0.389-0.111,0.671-0.116,0.845c0.006,4.027,1.436,7.464,4.286,10.309  c2.734,2.735,6.014,4.158,9.841,4.267c0.075,0.003,0.153,0.003,0.231,0c0.052,0.001,0.103,0.001,0.153,0  c3.458,0.135,6.432,1.348,8.918,3.636l13.877,13.864c2.214,2.418,3.412,5.297,3.595,8.636c0.007,0.095,0.013,0.19,0.019,0.288  c-0.001,0.057-0.001,0.114,0,0.171c-0.002,0.078-0.002,0.157,0,0.231c0.103,3.822,1.519,7.099,4.247,9.828  C68.017,88.579,71.457,90,75.489,90c0.173,0.002,0.455-0.03,0.845-0.096c0.386-0.072,0.713-0.238,0.981-0.499l0.537-0.539  l-7.975-7.98l2.71-8.27l8.284-2.731l7.977,7.98l0.537-0.558c0.263-0.268,0.43-0.595,0.5-0.979c0.073-0.385,0.111-0.66,0.116-0.827  c0-4.027-1.422-7.464-4.267-10.309c-2.48-2.477-5.408-3.88-8.784-4.21c-0.353-0.028-0.712-0.049-1.076-0.06  c-0.07-0.001-0.139-0.001-0.212,0c-0.059-0.007-0.116-0.014-0.172-0.019c-3.458-0.13-6.432-1.334-8.919-3.614L52.693,43.406  c-2.28-2.483-3.483-5.45-3.613-8.905c-0.006-0.056-0.011-0.114-0.019-0.172c0.001-0.077,0.001-0.154,0-0.23  c-0.104-3.83-1.519-7.112-4.248-9.847c-2.844-2.839-6.277-4.258-10.302-4.25c-0.175-0.009-0.456,0.017-0.846,0.078  c-0.385,0.071-0.712,0.237-0.98,0.5l-0.557,0.557l7.977,7.981l-2.711,8.269l-8.265,2.711l-7.957-7.962L20.616,32.675z" />
</svg>