<?xml version='1.0' encoding='utf-8'?>
<svg xmlns="http://www.w3.org/2000/svg" width="110" height="110" viewBox="0 0 110 110" fill="none" stroke="currentColor" stroke-width="1.5">
<path d="M64.1417 65.6471C64.1536 65.7804 64.1714 65.9138 64.1773 66.0535C64.3317 68.8351 63.6609 71.4325 62.3965 73.6044C59.0367 79.3771 57.4458 86.1215 58.259 92.8595L58.7517 96.9366C59.1198 99.9913 55.6649 101.808 53.6288 99.6293L47.3069 88.1918C45.1877 84.3624 40.0114 84.3624 37.8922 88.1918L31.5702 99.6293C29.5341 101.808 26.0793 99.9913 26.4473 96.9366L26.94 92.8595C27.7473 86.1151 26.1624 79.3708 22.8025 73.6044C21.5441 71.4388 20.8674 68.8351 21.0217 66.0535C21.0276 65.9201 21.0395 65.7804 21.0514 65.6471C21.6094 59.1313 26.8272 54.0064 32.983 54C36.9127 53.9937 40.4032 56.0132 42.5936 59.1313C44.79 56.0132 48.2804 54 52.2101 54C55.3894 54.0066 57.9115 55.0369 60.0777 57.2565C63.7013 60.4775 64.0548 64.6263 64.139 65.6155L64.1417 65.6471Z" stroke="currentColor" stroke-width="1.5" stroke-linecap="round" stroke-linejoin="round" fill="none" />
<path d="M45.3793 64.5638C46.61 63.8287 48.0263 63.1818 49.5588 63.1818C53.802 63.1818 56.7334 65.44 57.0991 69.6978C57.1049 69.786 57.1166 69.8742 57.1224 69.9624C57.2268 71.8502 55.944 74.7024 55.1023 76.1491C52.1593 80.5715 52.5598 84.2765 56.2284 97.038C53.4247 90.2044 52.7456 89.4576 50.2669 84.2177C48.659 80.8127 45.7683 79.2072 42.8427 79.2072C39.9171 79.2072 37.0263 80.8185 35.4184 84.2177C32.9456 89.4576 32.2664 90.1986 29.4627 97.038C33.1313 84.2765 33.6189 80.5715 30.6759 76.1491C29.8342 74.7024 28.4585 71.8443 28.563 69.9624C28.563 69.8742 28.5746 69.786 28.5862 69.6978C28.9577 65.44 31.8833 63.1876 36.1266 63.1818C37.659 63.1818 39.0928 63.5993 40.3234 64.3344C42.21 65.5341 43.3103 65.7782 45.3793 64.5638Z" stroke="currentColor" stroke-width="1.5" stroke-linecap="round" stroke-linejoin="round" fill="none" />
<path d="M84.5086 23.7734L60.2475 48.53C59.5105 49.2823 58.6511 49.9047 57.7117 50.3662L52.673 52.8416C52.228 53.0603 51.6936 52.969 51.3451 52.6109C50.9943 52.2528 50.9048 51.7097 51.1191 51.2554L53.5442 46.1123C53.9963 45.1533 54.6061 44.2785 55.3431 43.5238L79.6397 18.8034M89.2151 18.9616L89.3587 19.1058C90.6395 20.4132 90.6395 22.5354 89.3587 23.8428L89.288 23.9149C88.0048 25.2223 85.9282 25.2223 84.6473 23.9149L79.4603 18.6203C78.1771 17.3129 78.1771 15.1907 79.4603 13.8833L79.5309 13.8112C80.8118 12.5038 82.8885 12.5038 84.1693 13.8112L89.2151 18.9616ZM89.2151 18.9616L94.9271 13.1334C96.2809 11.7515 96.3869 9.48035 95.0542 8.0768C93.7028 6.65401 91.4777 6.64199 90.1121 8.03594L86.7899 11.4271M69.0884 29.5387H78.8587M55.0464 62.4022C55.0464 64.3898 53.6925 66 52.0232 66C50.3538 66 49 64.3898 49 62.4022C49 60.4146 52.0232 56.6437 52.0232 56.6437C52.0232 56.6437 55.0464 60.4146 55.0464 62.4022Z" stroke="currentColor" stroke-width="1.5" stroke-linecap="round" stroke-linejoin="round" fill="none" />
<path d="M37.9958 67.246V77.246M34.4634 68.7094L41.5366 75.7826M34.4634 75.7826L41.5366 68.7094M33 72.2418H43" stroke="currentColor" stroke-width="1.5" stroke-linecap="round" stroke-linejoin="round" fill="none" />
</svg>