<?xml version='1.0' encoding='utf-8'?>
<svg xmlns="http://www.w3.org/2000/svg" id="Layer_1" data-name="Layer 1" width="110" height="110" viewBox="0 0 110 110">
  <g>
    <path d="M31.0119,33.7494c0-12.9225,10.4745-23.3987,23.3964-23.3987s23.3978,10.4761,23.3978,23.3987" style="fill:none;stroke:currentColor;stroke-miterlimit:10;stroke-width:1.5" />
    <path d="M46.2824,41.5273c0-12.9225,3.3128-31.1765,8.1255-31.1765s8.3745,18.254,8.3745,31.1765" style="fill:none;stroke:currentColor;stroke-miterlimit:10;stroke-width:1.5" />
    <g>
      <line x1="46.2527" y1="41.5488" x2="62.6273" y2="41.5488" style="fill:none;stroke:currentColor;stroke-miterlimit:10;stroke-width:1.5" />
      <line x1="32.4142" y1="25.9497" x2="76.4024" y2="25.9497" style="fill:none;stroke:currentColor;stroke-miterlimit:10;stroke-width:1.5" />
    </g>
  </g>
  <g>
    <path d="M44.1478,69.9051s9.3099,8.4635,19.4661,0c0,0,12.526,4.9088,9.1406,23.19,0,0-17.0963,5.9245-37.4087,0,0,0-3.2161-16.4192,8.8021-23.19Z" style="fill:none;stroke:currentColor;stroke-miterlimit:10;stroke-width:1.5" />
    <path d="M68.8613,59.9182s.1169,3.0816-2.3698,6.9401c0,0,9.9869,5.9245,10.1562,17.2656,0,0,12.8645.5078,18.9583-2.2005,0,0,4.401-15.5729-8.4635-23.3593,0,0-8.6328,7.4479-18.2812,1.3542Z" style="fill:none;stroke:currentColor;stroke-miterlimit:10;stroke-width:1.5" />
    <path d="M39.4515,59.9182s-.1169,3.0816,2.3698,6.9401c0,0-9.9869,5.9245-10.1562,17.2656,0,0-12.8645.5078-18.9583-2.2005,0,0-4.401-15.5729,8.4635-23.3593,0,0,8.6328,7.4479,18.2812,1.3542Z" style="fill:none;stroke:currentColor;stroke-miterlimit:10;stroke-width:1.5" />
    <circle cx="54.1348" cy="59.0718" r="10.4948" style="fill:none;stroke:currentColor;stroke-miterlimit:10;stroke-width:1.5" />
    <circle cx="77.2158" cy="48.0211" r="10.4948" style="fill:none;stroke:currentColor;stroke-miterlimit:10;stroke-width:1.5" />
    <circle cx="31.1629" cy="48.0211" r="10.4948" style="fill:none;stroke:currentColor;stroke-miterlimit:10;stroke-width:1.5" />
  </g>
</svg>