<?xml version='1.0' encoding='utf-8'?>
<svg xmlns="http://www.w3.org/2000/svg" version="1.1" id="Layer_1" x="0px" y="0px" viewBox="0 0 110 110" style="enable-background:new 0 0 110 110;fill:none;stroke:currentColor;stroke-width:1.5" xml:space="preserve">
<path style="fill:none;stroke:currentColor;stroke-width:1.5;stroke-linecap:round;stroke-linejoin:round" d="M63.48,91.69V45.16   M63.48,12.7v14.73 M57.28,37.99h6.2 M57.28,45.16h6.2 M57.28,27.43h10.48c1.03,0,1.86,0.83,1.86,1.86c0,1.03-0.83,1.86-1.86,1.86  H57.28 M16.85,31.66H5.7 M16.85,42.3H5.7 M49.63,22.45v-2.69h-29.3c-1.92,0-3.48,1.56-3.48,3.48v26.91c0,1.92,1.56,3.48,3.48,3.48  h29.3v-3.46 M49.63,22.45h7.65v27.72h-7.65 M49.63,22.45v27.72 M63.48,31.15v6.84 M63.48,37.99h7.04v7.17h-7.04 M90.87,23.2H76.74  c-2.08,3.2-3.4,7.78-3.4,12.89c0,5.38,1.45,10.19,3.73,13.4h13.46c2.28-3.21,3.73-8.02,3.73-13.4S92.96,26.4,90.87,23.2z   M78.81,35.92h2.53v8.56h-2.53V35.92z M86.57,36.92h2.53v6.56h-2.53V36.92z M85.37,25.49h-3.14v1.52c0,1.45,0.7,2.63,1.57,2.63  c0.87,0,1.57-1.18,1.57-2.63V25.49z M90.87,60.66H76.74c-2.08,3.2-3.4,7.78-3.4,12.89c0,5.38,1.45,10.19,3.73,13.4h13.46  c2.28-3.21,3.73-8.02,3.73-13.4C94.26,68.17,92.96,63.86,90.87,60.66z M78.81,73.39h2.53v8.56h-2.53V73.39z M86.57,74.39h2.53v6.56  h-2.53V74.39z M85.37,62.96h-3.14v1.52c0,1.45,0.7,2.63,1.57,2.63c0.87,0,1.57-1.18,1.57-2.63V62.96z M85.57,54.82  c0,1.226-0.793,2.22-1.77,2.22c-0.978,0-1.77-0.994-1.77-2.22c0-1.226,0.792-2.22,1.77-2.22C84.777,52.6,85.57,53.594,85.57,54.82z" />
</svg>