<?xml version='1.0' encoding='utf-8'?>
<svg xmlns="http://www.w3.org/2000/svg" version="1.1" id="Layer_1" x="0px" y="0px" viewBox="0 0 110 110" style="enable-background:new 0 0 110 110;fill:none;stroke:currentColor;stroke-width:1.5" xml:space="preserve">
<path style="fill:none;stroke:currentColor;stroke-width:1.5;stroke-linecap:round;stroke-linejoin:round;stroke-miterlimit:10" d="  M25,39.142c0,0-1.992-5.111,5.871-5.111h41.674c0,0,3.145-0.786,2.359,5.504l-3.145,29.88 M71.759,69.415l5.122,0 M71.759,69.415  l-27.775,0.463 M23.008,58.407l-0.786,6.29c-0.786,5.504,2.359,5.504,2.359,5.504l5.26-0.088 M74.614,42.288h10.905  c0,0,2.359,0,4.718,2.359c2.359,2.359,6.29,7.077,6.29,7.077s1.573,1.573,1.573,4.718c0,3.145-0.786,10.222-0.786,10.222  s-1.573,2.752-2.359,2.752h-3.942 M17.111,39.142h22.803 M12,45.04h22.803 M16.718,50.544h22.803 M12.786,58.407h22.803   M29.84,70.114c0.189,3.739,3.281,6.713,7.068,6.713c3.866,0,7.007-3.099,7.076-6.949 M29.84,70.114  c-0.006-0.12-0.009-0.242-0.009-0.364c0-3.908,3.168-7.077,7.077-7.077s7.077,3.168,7.077,7.077c0,0.043,0,0.085-0.001,0.128   M91.023,69.022c0,3.908-3.168,7.077-7.077,7.077s-7.077-3.168-7.077-7.077c0-3.908,3.168-7.077,7.077-7.077  S91.023,65.114,91.023,69.022z" />
</svg>