<?xml version='1.0' encoding='utf-8'?>
<svg xmlns="http://www.w3.org/2000/svg" width="110" height="110" viewBox="0 0 110 110" fill="none" stroke="currentColor" stroke-width="1.5">
<path d="M44.9352 57.0647L17.1971 84.4983C16.6961 84.9938 16.5324 85.7144 16.5745 86.4178C16.6503 87.6814 16.1085 88.264 15.307 89.1805C14.129 90.3456 14.1185 92.245 15.2836 93.423C16.3532 94.5045 18.0417 94.602 19.2228 93.7092C19.4342 93.5495 19.6529 93.3945 19.8995 93.2974C21.0033 92.863 21.7965 92.6187 22.7122 92.637C23.3802 92.6502 24.0579 92.4807 24.5329 92.0109L52.3187 64.5302M44.9352 57.0647C45.3766 56.3733 45.5941 55.906 45.8188 55.245C45.9242 54.9349 46.0942 54.65 46.327 54.4197L48.4609 52.3092M44.9352 57.0647C41.9851 59.9824 49.3686 67.4478 52.3187 64.5302M52.3187 64.5302C52.3187 64.5302 52.7926 64.2486 53.4514 64C54.2752 63.6892 55.1017 63.3222 55.7277 62.703L57.2508 61.1967M57.2508 61.1967V61.1967C58.1908 60.2872 60.5523 60.4848 61.4823 59.565L72.706 48.4645M57.2508 61.1967C54.2132 64.1356 45.5791 55.8776 48.4609 52.3092M72.706 48.4645L73.3176 47.2909C73.4135 47.107 73.5374 46.9391 73.6848 46.7932L77.3728 43.1458M72.706 48.4645L73.7608 49.531M77.3728 43.1458L77.0937 40.7304M77.3728 43.1458C73.2441 47.2712 62.161 36.4999 66.5341 32.1868M77.0937 40.7304L89.8917 28.0729M77.0937 40.7304C74.2497 43.5432 65.8114 35.0112 68.6554 32.1984M89.8917 28.0729C87.5356 30.4031 83.7367 30.3821 81.4065 28.0261C79.0763 25.6701 79.0973 21.8711 81.4533 19.541M89.8917 28.0729C92.2477 25.7428 92.2687 21.9438 89.9385 19.5878C87.6083 17.2317 83.8094 17.2108 81.4533 19.541M81.4533 19.541L68.6554 32.1984M68.6554 32.1984L66.5341 32.1868M66.5341 32.1868L62.8108 35.8692C62.6866 35.9921 62.5467 36.0982 62.3949 36.1847L61.2745 36.8233M61.2745 36.8233L49.8389 48.1334C48.9335 49.0288 49.3738 50.8189 48.7264 51.9154C48.6533 52.0392 48.5651 52.1701 48.4609 52.3092M61.2745 36.8233L60.0899 35.6256M60.0899 35.6256L65.0669 30.7033L83.5567 15.3511C85.9128 13.0209 90.4109 14.4599 92.7411 16.8159C95.0713 19.172 96.7514 23.9799 94.3954 26.31L78.7792 44.5678L73.7608 49.531M60.0899 35.6256C55.7168 39.9388 69.6321 53.6565 73.7608 49.531" stroke="currentColor" stroke-width="1.5" stroke-linecap="round" fill="none" />
</svg>