<?xml version='1.0' encoding='utf-8'?>
<svg xmlns="http://www.w3.org/2000/svg" id="Layer_1" data-name="Layer 1" width="110" height="110" viewBox="0 0 110 110">
  <path d="M55.0002,28.3557c-1.1627.0009-2.154-.4089-2.9737-1.2292-.8236-.8229-1.2369-1.8178-1.2398-2.984.0029-1.1627.4163-2.154,1.2398-2.9731.8197-.8203,1.811-1.2302,2.9737-1.2292,1.1627-.001,2.1537.4089,2.9731,1.2292.8239.819,1.2369,1.8104,1.2401,2.9731-.0032,1.1662-.4163,2.1611-1.2401,2.984-.8193.8203-1.8104,1.2301-2.9731,1.2292v4.8272l.0219-.0106,18.8718,10.9166,4.1801-2.4137c-.5837-1.0116-.7265-2.0794-.4275-3.2039.3041-1.118.9624-1.9663,1.975-2.5452,1.0042-.5837,2.0643-.7265,3.1817-.4278,1.1218.3005,1.9743.9554,2.5568,1.9637.5837,1.0078.7265,2.0721.4275,3.1926-.3009,1.1222-.9554,1.9737-1.9637,2.5568-1.0116.5837-2.0795.7261-3.2039.4275-1.118-.3009-1.9666-.9554-2.5459-1.9637M85.1735,48.1151c.4757,2.202.7136,4.5022.713,6.9015.0007,2.3999-.2373,4.7002-.713,6.9011M31.9258,68.3142c.5837,1.0113.7265,2.0791.4278,3.2035-.3044,1.1222-.9627,1.9737-1.975,2.5561-1.0042.5805-2.0646.7193-3.182.4172-1.1215-.3009-1.9737-.9554-2.5565-1.964-.5837-1.0074-.7265-2.0717-.4278-3.1926.3009-1.1216.9554-1.9737,1.964-2.5565,1.0113-.5799,2.0794-.7191,3.2042-.4167,1.1176.297,1.9663.948,2.5452,1.9529l4.2026-2.4247v-21.7899l-4.2026-2.4243c-.5789,1.0119-1.4276,1.6702-2.5452,1.975-1.1247.2983-2.1929.1559-3.2042-.4282-1.0087-.5824-1.6632-1.4346-1.964-2.5561-.2986-1.1247-.1559-2.1926.4278-3.2039.5828-1.0045,1.4349-1.6554,2.5565-1.9531,1.1174-.2983,2.1778-.1559,3.182.4282,1.0122.5786,1.6706,1.4272,1.975,2.5452.2986,1.1212.1559,2.1852-.4278,3.1929M24.8379,61.874c-.4751-2.1881-.7123-4.4736-.7133-6.8574.001-2.3694.235-4.6401.7024-6.8134M36.1284,44.0995l6.967-4.0264,5.0692-2.9403,6.8356-3.9499M43.0954,40.0731l18.8278,10.9279v6.7472l5.0692-2.9181v-6.7587l-18.8278-10.9385M40.9231,46.8537l14.0771,8.1297.0106.0113v16.5562M34.0435,32.36c3.524-3.2968,7.4595-5.6009,11.8058-6.9117M78.074,68.3142c.5793-1.0087,1.4279-1.6632,2.5459-1.964,1.1244-.3025,2.1923-.1633,3.2039.4172,1.0083.5825,1.6629,1.4344,1.9637,2.5562.299,1.1244.1562,2.1922-.4275,3.2035-.5825,1.0048-1.4349,1.6557-2.5568,1.9531-1.1174.3021-2.1775.1629-3.1817-.4169-1.0126-.5828-1.6709-1.4346-1.975-2.5565-.2989-1.1209-.1562-2.1852.4275-3.1926l-4.1801-2.4141v.0224l-18.8718,10.9055h-.0113l-.0106-.0109v4.8166c1.1627.0029,2.1537.4159,2.9731,1.2398.8239.8193,1.2369,1.8104,1.2401,2.9731-.0032,1.163-.4163,2.1543-1.2401,2.9734-.8193.8236-1.8104,1.2373-2.9731,1.2398-1.1627-.0026-2.154-.4163-2.9737-1.2398-.8236-.8191-1.2369-1.8104-1.2398-2.9734.0029-1.1627.4163-2.1537,1.2398-2.9731.8197-.8239,1.811-1.2369,2.9737-1.2398M55.0002,76.8171l-18.8718-10.9058v-.0219M45.8387,84.5849c-4.3524-1.3103-8.2914-3.6179-11.8174-6.9227M73.8939,44.0889v21.8112M47.8461,56.7613l-5.0361-2.8969M76.0225,77.6622c-3.533,3.3035-7.4794,5.6112-11.8389,6.9227M64.1836,25.4483c4.3392,1.3105,8.2709,3.6111,11.7952,6.9011" style="fill:none;fill-rule:evenodd;stroke:currentColor;stroke-linecap:round;stroke-linejoin:round;stroke-width:1.5" />
</svg>