<?xml version='1.0' encoding='utf-8'?>
<svg xmlns="http://www.w3.org/2000/svg" id="Layer_1" data-name="Layer 1" width="110" height="110" viewBox="0 0 110 110">
  <g>
    <path d="M63.8267,80.1968h36.5848c.3408,0,.6171.2762.6171.6169v1.881c-.0001,1.7773-1.4408,3.2181-3.2181,3.2181H14.9647c-1.7775,0-3.2185-1.4408-3.2189-3.2184l-.0004-1.8803c-.0001-.3408.2762-.6171.617-.6171h38.0718" style="fill:none;stroke:currentColor;stroke-linecap:round;stroke-linejoin:round;stroke-width:1.5" />
    <line x1="55.0341" y1="31.3705" x2="57.7397" y2="31.3705" style="fill:none;stroke:currentColor;stroke-linecap:round;stroke-linejoin:round;stroke-width:1.5" />
    <line x1="20.313" y1="35.6092" x2="92.4608" y2="35.6092" style="fill:none;stroke:currentColor;stroke-linecap:round;stroke-linejoin:round;stroke-width:1.5" />
    <path d="M12.1964,80.2281l8.1167-9.0501v-37.697c0-3.6111,2.9274-6.5384,6.5384-6.5384h59.0707c3.6111,0,6.5384,2.9274,6.5384,6.5384v37.697l8.1167,9.0501" style="fill:none;stroke:currentColor;stroke-linecap:round;stroke-linejoin:round;stroke-width:1.5" />
    <line x1="72.2913" y1="71.2097" x2="92.4608" y2="71.2097" style="fill:none;stroke:currentColor;stroke-linecap:round;stroke-linejoin:round;stroke-width:1.5" />
    <line x1="20.313" y1="71.2097" x2="31.5859" y2="71.2097" style="fill:none;stroke:currentColor;stroke-linecap:round;stroke-linejoin:round;stroke-width:1.5" />
    <line x1="36.0954" y1="75.9895" x2="37.899" y2="75.9895" style="fill:none;stroke:currentColor;stroke-linecap:round;stroke-linejoin:round;stroke-width:1.5" />
    <line x1="23.4695" y1="75.9895" x2="25.2731" y2="75.9895" style="fill:none;stroke:currentColor;stroke-linecap:round;stroke-linejoin:round;stroke-width:1.5" />
    <line x1="29.7824" y1="75.9895" x2="31.5861" y2="75.9895" style="fill:none;stroke:currentColor;stroke-linecap:round;stroke-linejoin:round;stroke-width:1.5" />
    <line x1="81.1877" y1="75.9895" x2="82.9915" y2="75.9895" style="fill:none;stroke:currentColor;stroke-linecap:round;stroke-linejoin:round;stroke-width:1.5" />
    <line x1="87.5007" y1="75.9895" x2="89.3044" y2="75.9895" style="fill:none;stroke:currentColor;stroke-linecap:round;stroke-linejoin:round;stroke-width:1.5" />
    <line x1="74.8748" y1="75.9895" x2="76.6785" y2="75.9895" style="fill:none;stroke:currentColor;stroke-linecap:round;stroke-linejoin:round;stroke-width:1.5" />
  </g>
  <path d="M39.5823,44.3449c-.1317.1337-.2152.2978-.2504.4912-.037.1946-.0558.3356-.0581.423.0031,2.0156.719,3.7356,2.1464,5.1596,1.369,1.3687,3.0115,2.081,4.9281,2.1357.0378.0017.0767.0017.1156,0,.0259.0005.0513.0005.0767,0,1.7319.0676,3.2208.6744,4.4659,1.8198l6.949,6.9389c1.1087,1.2102,1.7088,2.6511,1.8001,4.3221.0034.0474.0068.0953.0096.1444-.0006.0288-.0006.057,0,.0858-.0012.0389-.0012.0784,0,.1156.0513,1.9129.7608,3.5529,2.1266,4.9187,1.4274,1.4251,3.1502,2.1363,5.1692,2.1363.0869.0011.2278-.0152.423-.048.1935-.0361.357-.119.4912-.2498l.269-.2696-3.9939-3.9939,1.3569-4.1388,4.1484-1.367,3.9945,3.9939.269-.2792c.132-.1343.2155-.2978.2504-.4901.0367-.1929.0558-.3304.0581-.4139,0-2.0155-.7123-3.7356-2.1368-5.1595-1.2418-1.2396-2.7081-1.9417-4.3988-2.107-.1765-.0141-.3564-.0243-.5386-.0299-.035-.0006-.0699-.0006-.106,0-.0293-.0034-.0581-.0068-.0863-.0096-1.7319-.0649-3.2208-.6677-4.4665-1.8086l-6.949-6.949c-1.1415-1.2429-1.7443-2.7278-1.8092-4.4569-.0028-.0282-.0057-.0569-.0096-.0863.0006-.0383.0006-.0773,0-.115-.0519-1.9168-.7608-3.5596-2.1272-4.9284-1.424-1.4211-3.1435-2.1312-5.159-2.1272-.0874-.0045-.2284.0085-.4235.0389-.1929.0355-.3564.1184-.4906.2504l-.2791.2786,3.9945,3.9945-1.3574,4.1388-4.1385,1.3569-3.9846-3.9849-.2789.2696ZM60.5289,52.2096l6.6855-7.1034-.8471-.8482,1.6654-3.3002,3.2918-1.6563,1.6941,1.6845-1.6654,3.3019-3.2918,1.6648-.8471-.8465M54.0575,63.4594l-8.2292,8.258c-.4207.4004-.8925.6762-1.4147.8278-.3209.0948-.6612.1427-1.0202.1449-.45-.0023-.8704-.0755-1.2607-.2216-.4277-.1607-.8197-.4117-1.1744-.7511l-.3654-.3559c-.4396-.4613-.7283-.9841-.8662-1.5689-.0688-.2746-.1044-.5633-.106-.8662.0045-.3626.0556-.706.154-1.0298.1486-.516.4213-.9818.8183-1.3952l8.2576-8.2489" style="fill:none;fill-rule:evenodd;stroke:currentColor;stroke-linecap:round;stroke-linejoin:round;stroke-width:1.5" />
</svg>