<?xml version='1.0' encoding='utf-8'?>
<svg xmlns="http://www.w3.org/2000/svg" width="110" height="110" viewBox="0 0 110 110" fill="none" stroke="currentColor" stroke-width="1.5">
<path d="M78.327 37.5578C77.9567 37.9282 77.3604 37.9282 76.9991 37.5578C76.6287 37.1874 76.6287 36.5912 76.9991 36.2299M78.327 37.5578C78.6974 37.1874 78.6974 36.5912 78.327 36.2299C77.9567 35.8595 77.3604 35.8595 76.9991 36.2299M78.327 37.5578L42.2373 70.9917M78.327 37.5578C74.6684 41.2165 74.6413 47.1697 78.2999 50.8284C81.9586 54.487 87.8938 54.487 91.5524 50.8284C95.2111 47.1697 95.2111 41.2346 91.5524 37.5759C87.8938 33.9172 81.9857 33.8992 78.327 37.5578ZM76.9991 36.2299L43.5924 66.9717L38.2354 67.0078M76.9991 36.2299C72.5906 40.6383 72.5816 47.775 76.9901 52.1834C81.3985 56.5919 88.5352 56.5919 92.9436 52.1834C97.3521 47.775 97.3521 40.6383 92.9436 36.2299C88.5352 31.8214 81.4075 31.8214 76.9991 36.2299ZM42.2373 70.9917V65.6798L73.0062 32.246M42.2373 70.9917L12.9861 92.2571L38.2354 67.0078M42.2373 70.9917L16.979 96.25L38.2354 67.0078M38.2354 67.0078L71.6511 30.9361M73.0062 32.246C73.3766 31.8756 73.3766 31.2794 73.0062 30.918C72.6358 30.5477 72.0125 30.5657 71.6511 30.9361M73.0062 32.246C72.6358 32.6164 72.0396 32.6164 71.6782 32.246C71.3078 31.8756 71.2808 31.2975 71.6511 30.9361M73.0062 32.246C68.5977 36.6545 61.4611 36.6545 57.0526 32.246C52.6442 27.8375 52.6442 20.7009 57.0526 16.2924C61.4611 11.884 68.5977 11.884 73.0062 16.2924C77.4146 20.7009 77.4146 27.8375 73.0062 32.246ZM71.6511 30.9361C67.9925 34.5948 62.0573 34.5948 58.3986 30.9361C54.74 27.2774 54.74 21.3423 58.3986 17.6836C62.0573 14.025 67.9925 14.025 71.6511 17.6836C75.3098 21.3423 75.3098 27.2774 71.6511 30.9361ZM40.2408 70.3232C39.8705 70.6936 39.2742 70.6936 38.9129 70.3232C38.5425 69.9528 38.5425 69.3566 38.9129 68.9952C39.2833 68.6248 39.8795 68.6248 40.2408 68.9952C40.6112 69.3656 40.6112 69.9618 40.2408 70.3232Z" stroke="currentColor" stroke-width="1.5" stroke-miterlimit="10" stroke-linecap="round" fill="none" />
</svg>