<?xml version='1.0' encoding='utf-8'?>
<svg xmlns="http://www.w3.org/2000/svg" width="110" height="110" viewBox="0 0 110 110" fill="none" stroke="currentColor" stroke-width="1.5">
<path d="M50 52C39.5 53.5 36 63.5 36 92.5" stroke="currentColor" stroke-width="1.5" stroke-miterlimit="10" stroke-linecap="round" stroke-dasharray="1 3" fill="none" />
<path d="M54 52.5C43.5 54 44.5 66 44.5 95" stroke="currentColor" stroke-width="1.5" stroke-miterlimit="10" stroke-linecap="round" stroke-dasharray="1 3" fill="none" />
<path d="M45.6522 51C35.1522 52.5 28 61 28 90" stroke="currentColor" stroke-width="1.5" stroke-miterlimit="10" stroke-linecap="round" stroke-dasharray="1 3" fill="none" />
<path d="M84.5985 18.8218L78.5364 17.3828L54.5558 39.9543C52.5101 40.4133 50.3213 41.1529 48.0947 42.209C40.3196 45.8792 35.1848 51.8062 36.6346 55.4442C38.0668 59.0821 45.5313 59.0535 53.3065 55.3657C60.5241 51.9586 65.4664 46.6069 64.9784 42.9467M84.5985 18.8218L84.5809 18.8217L63.6337 40.6955C64.1411 41.0868 64.5424 41.5477 64.7666 42.1305C64.8705 42.3913 64.9407 42.664 64.9784 42.9467M84.5985 18.8218L64.9784 42.9467M36.6697 55.427C36.7557 55.6741 36.8242 55.9211 36.9278 56.1684C40.4484 65.0514 49.5866 69.2787 57.3617 65.6085C65.1367 61.9383 68.5802 51.7552 65.0596 42.8723C64.956 42.625 64.8522 42.3953 64.7309 42.1479" stroke="currentColor" stroke-width="1.5" stroke-linecap="round" stroke-linejoin="round" fill="none" />
</svg>