<?xml version='1.0' encoding='utf-8'?>
<svg xmlns="http://www.w3.org/2000/svg" id="Layer_1" data-name="Layer 1" width="110" height="110" viewBox="0 0 110 110">
  <path d="M47.7917,59.4076l19.4301-19.9179-6.0972-6.1482M47.7917,59.4076l-6.1078-6.1588M47.7917,59.4076l-14.2799,17.1407c-2.4686,2.9681-6.9591,3.1589-9.6724.424M61.1246,33.3415l-13.4925,14.056-5.9482,5.8513M61.1246,33.3415l2.8517-2.7985c1.7026-1.6748,4.4479-1.6642,6.1398.0318,1.6812,1.6961,1.6706,4.4309-.032,6.1164l-2.8517,2.7985M41.6839,53.2488l-17.3338,14.1091c-2.9794,2.4274-3.2135,6.8902-.5107,9.6144M23.8394,76.9723l-2.0431,2.2473c-3.3518,3.6889-3.1071,9.3813.5427,12.7734,3.6391,3.3815,9.3213,3.2437,12.7902-.3074l31.8372-32.6278c2.9262-2.9999,7.6188-3.3921,11.0026-.9328,4.0328,2.9257,4.6287,8.6922,1.2981,12.3811l-30.4113,29.9671M76.1869,24.2636l-6.13,6.26M77.9387,25.8243h5.4084M75.2694,23.2243h10.8505M72.684,20.6243h15.9317M73.5505,18.0243h17.3292M75.9542,15.4243h15.6941M78.4171,12.8243h12.742M81.0971,10.2243h8.8742M82.2769,27.2136l7.72-7.92c2.4-2.47,2.62-6.7.21-9.17-2.53-2.59-6.68-2.58-9.19,0l-7.93,8.13c-.83.85-.81,2.2.04,3.03l6.12,5.97c.85.83,2.2.81,3.03-.04Z" style="fill:none;stroke:currentColor;stroke-linecap:round;stroke-linejoin:round;stroke-width:1.5" />
</svg>