<?xml version='1.0' encoding='utf-8'?>
<svg xmlns="http://www.w3.org/2000/svg" id="Layer_1" data-name="Layer 1" width="110" height="110" viewBox="0 0 110 110">
  <g>
    <path d="M73.3571,12.0155h-37.339c-1.6894,0-3.059,1.3696-3.059,3.059v77.8318h13.3518v-12.7526h16.0956v12.7526h14.0097V15.0745c0-1.6894-1.3696-3.059-3.059-3.059Z" style="fill:none;stroke:currentColor;stroke-miterlimit:10;stroke-width:1.5" />
    <line x1="54.3583" y1="92.9064" x2="54.3583" y2="80.1537" style="fill:none;stroke:currentColor;stroke-linecap:square;stroke-miterlimit:10;stroke-width:1.5" />
  </g>
  <circle cx="54.6876" cy="29.514" r="11.9717" style="fill:none;stroke:currentColor;stroke-miterlimit:10;stroke-width:1.5" />
  <polygon points="60.8953 27.6338 56.1619 27.6338 56.1619 22.9005 53.2133 22.9005 53.2133 27.6338 48.4799 27.6338 48.4799 30.5824 53.2133 30.5824 53.2133 35.3157 56.1619 35.3157 56.1619 30.5824 60.8953 30.5824 60.8953 27.6338" style="fill:none;stroke:currentColor;stroke-miterlimit:10;stroke-width:1.5" />
  <rect x="40.0425" y="46.5284" width="4.3454" height="4.3454" style="fill:none;stroke:currentColor;stroke-miterlimit:10;stroke-width:1.5" />
  <rect x="48.1124" y="46.5284" width="4.3454" height="4.3454" style="fill:none;stroke:currentColor;stroke-miterlimit:10;stroke-width:1.5" />
  <rect x="56.1824" y="46.5284" width="4.3454" height="4.3454" style="fill:none;stroke:currentColor;stroke-miterlimit:10;stroke-width:1.5" />
  <rect x="64.2524" y="46.5284" width="4.3454" height="4.3454" style="fill:none;stroke:currentColor;stroke-miterlimit:10;stroke-width:1.5" />
  <rect x="40.0425" y="54.7017" width="4.3454" height="4.3454" style="fill:none;stroke:currentColor;stroke-miterlimit:10;stroke-width:1.5" />
  <rect x="48.1124" y="54.7017" width="4.3454" height="4.3454" style="fill:none;stroke:currentColor;stroke-miterlimit:10;stroke-width:1.5" />
  <rect x="56.1824" y="54.7017" width="4.3454" height="4.3454" style="fill:none;stroke:currentColor;stroke-miterlimit:10;stroke-width:1.5" />
  <rect x="64.2524" y="54.7017" width="4.3454" height="4.3454" style="fill:none;stroke:currentColor;stroke-miterlimit:10;stroke-width:1.5" />
  <rect x="40.0425" y="62.875" width="4.3454" height="4.3454" style="fill:none;stroke:currentColor;stroke-miterlimit:10;stroke-width:1.5" />
  <rect x="48.1124" y="62.875" width="4.3454" height="4.3454" style="fill:none;stroke:currentColor;stroke-miterlimit:10;stroke-width:1.5" />
  <rect x="56.1824" y="62.875" width="4.3454" height="4.3454" style="fill:none;stroke:currentColor;stroke-miterlimit:10;stroke-width:1.5" />
  <rect x="64.2524" y="62.875" width="4.3454" height="4.3454" style="fill:none;stroke:currentColor;stroke-miterlimit:10;stroke-width:1.5" />
  <rect x="40.0425" y="71.0484" width="4.3454" height="4.3454" style="fill:none;stroke:currentColor;stroke-miterlimit:10;stroke-width:1.5" />
  <rect x="48.1124" y="71.0484" width="4.3454" height="4.3454" style="fill:none;stroke:currentColor;stroke-miterlimit:10;stroke-width:1.5" />
  <rect x="56.1824" y="71.0484" width="4.3454" height="4.3454" style="fill:none;stroke:currentColor;stroke-miterlimit:10;stroke-width:1.5" />
  <rect x="64.2524" y="71.0484" width="4.3454" height="4.3454" style="fill:none;stroke:currentColor;stroke-miterlimit:10;stroke-width:1.5" />
  <rect x="12.108" y="69.7929" width="4.3454" height="4.3454" style="fill:none;stroke:currentColor;stroke-miterlimit:10;stroke-width:1.5" />
  <rect x="20.1779" y="69.7929" width="4.3454" height="4.3454" style="fill:none;stroke:currentColor;stroke-miterlimit:10;stroke-width:1.5" />
  <rect x="12.108" y="77.8628" width="4.3454" height="4.3454" style="fill:none;stroke:currentColor;stroke-miterlimit:10;stroke-width:1.5" />
  <rect x="20.1779" y="77.8628" width="4.3454" height="4.3454" style="fill:none;stroke:currentColor;stroke-miterlimit:10;stroke-width:1.5" />
  <path d="M10.5254,65.6027h18.3432v27.1585H8.2282v-24.8613c0-1.2679,1.0294-2.2973,2.2973-2.2973Z" style="fill:none;stroke:currentColor;stroke-miterlimit:10;stroke-width:1.5" />
  <rect x="92.8076" y="69.7929" width="4.3454" height="4.3454" transform="translate(189.9606 143.9311) rotate(-180)" style="fill:none;stroke:currentColor;stroke-miterlimit:10;stroke-width:1.5" />
  <rect x="84.7377" y="69.7929" width="4.3454" height="4.3454" transform="translate(173.8207 143.9311) rotate(-180)" style="fill:none;stroke:currentColor;stroke-miterlimit:10;stroke-width:1.5" />
  <rect x="92.8076" y="77.8628" width="4.3454" height="4.3454" transform="translate(189.9606 160.071) rotate(-180)" style="fill:none;stroke:currentColor;stroke-miterlimit:10;stroke-width:1.5" />
  <rect x="84.7377" y="77.8628" width="4.3454" height="4.3454" transform="translate(173.8207 160.071) rotate(-180)" style="fill:none;stroke:currentColor;stroke-miterlimit:10;stroke-width:1.5" />
  <path d="M80.3923,65.6027h20.6405v27.1585h-18.3432c-1.2679,0-2.2973-1.0294-2.2973-2.2973v-24.8613h0Z" transform="translate(181.4251 158.3639) rotate(-180)" style="fill:none;stroke:currentColor;stroke-miterlimit:10;stroke-width:1.5" />
</svg>