<?xml version='1.0' encoding='utf-8'?>
<svg xmlns="http://www.w3.org/2000/svg" width="110" height="110" viewBox="0 0 110 110" fill="none" stroke="currentColor" stroke-width="1.5">
<path d="M66.2212 92.5693C66.2212 93.9926 65.0582 95.1503 63.6284 95.1503H13.3398C11.91 95.1503 10.7469 93.9926 10.7469 92.5693V18.3246C10.7469 16.9013 11.91 15.7435 13.3398 15.7435H63.6177C65.0475 15.7435 66.2106 16.9013 66.2106 18.3246V53.8112M38.4788 57.9217V86.8336M38.4788 24.0602V51.3364M14.5669 21.8403L16.9143 19.3442M14.7483 27.098L21.5025 19.6841M24.0313 29.3922H27.2004M24.0313 46.7585H27.2004M24.0313 64.1353H27.2004M24.0313 81.5016H27.2004M52.9369 81.5016H49.7571M52.9369 64.1353H49.7571M52.9369 46.7585H49.7571M52.9369 29.3922H49.7571M90.7093 90.583C98.0717 87.2691 100.441 76.6688 96.0124 66.9394C91.5843 57.1995 82.0238 52.0162 74.6613 55.3301M90.7093 90.583C90.0477 90.8804 89.3755 91.1035 88.6926 91.2734C81.6823 92.941 73.3916 87.832 69.3583 78.963C65.3249 70.094 66.9361 60.524 72.8154 56.3816C73.3916 55.978 74.0105 55.6275 74.6613 55.3301M90.7093 90.583L82.0985 94.4599C80.3806 95.2353 78.4493 95.4689 76.6033 95.0441C70.6067 93.6633 64.9621 89.0641 61.8998 82.3301C58.8375 75.596 59.0935 68.3415 62.0065 62.9351C62.9028 61.2781 64.3539 59.9823 66.0718 59.2069L74.6613 55.3301M90.7093 90.583L74.6613 55.3301M25.6479 24.825C28.1848 24.825 30.2414 26.8722 30.2414 29.3975C30.2414 31.9229 28.1848 33.9701 25.6479 33.9701C23.1109 33.9701 21.0543 31.9229 21.0543 29.3975C21.0543 26.8722 23.1109 24.825 25.6479 24.825ZM25.6479 42.1912C28.1848 42.1912 30.2414 44.2384 30.2414 46.7638C30.2414 49.2892 28.1848 51.3364 25.6479 51.3364C23.1109 51.3364 21.0543 49.2892 21.0543 46.7638C21.0543 44.2384 23.1109 42.1912 25.6479 42.1912ZM25.6479 59.5575C28.1848 59.5575 30.2414 61.6047 30.2414 64.13C30.2414 66.6554 28.1848 68.7026 25.6479 68.7026C23.1109 68.7026 21.0543 66.6554 21.0543 64.13C21.0543 61.6047 23.1109 59.5575 25.6479 59.5575ZM25.6479 76.9237C28.1848 76.9237 30.2414 78.9709 30.2414 81.4963C30.2414 84.0217 28.1848 86.0689 25.6479 86.0689C23.1109 86.0689 21.0543 84.0217 21.0543 81.4963C21.0543 78.9709 23.1109 76.9237 25.6479 76.9237ZM51.3097 86.0689C48.7727 86.0689 46.7161 84.0217 46.7161 81.4963C46.7161 78.9709 48.7727 76.9237 51.3097 76.9237C53.8466 76.9237 55.9032 78.9709 55.9032 81.4963C55.9032 84.0217 53.8466 86.0689 51.3097 86.0689ZM51.3097 68.7026C48.7727 68.7026 46.7161 66.6554 46.7161 64.13C46.7161 61.6047 48.7727 59.5575 51.3097 59.5575C53.8466 59.5575 55.9032 61.6047 55.9032 64.13C55.9032 66.6554 53.8466 68.7026 51.3097 68.7026ZM51.3097 51.3364C48.7727 51.3364 46.7161 49.2892 46.7161 46.7638C46.7161 44.2384 48.7727 42.1912 51.3097 42.1912C53.8466 42.1912 55.9032 44.2384 55.9032 46.7638C55.9032 49.2892 53.8466 51.3364 51.3097 51.3364ZM51.3097 33.9701C48.7727 33.9701 46.7161 31.9229 46.7161 29.3975C46.7161 26.8722 48.7727 24.825 51.3097 24.825C53.8466 24.825 55.9032 26.8722 55.9032 29.3975C55.9032 31.9229 53.8466 33.9701 51.3097 33.9701Z" stroke="currentColor" stroke-width="1.5" stroke-linecap="round" stroke-linejoin="round" fill="none" />
</svg>