<?xml version='1.0' encoding='utf-8'?>
<svg xmlns="http://www.w3.org/2000/svg" width="110" height="110" viewBox="0 0 110 110" fill="none" stroke="currentColor" stroke-width="1.5">
<path d="M20.1308 84.8866C18.1899 86.8472 18.479 87.3994 20.5713 85.3008L74.0074 41.7457L91.6025 24.0212C92.3712 23.2524 89.9395 19.479 88.402 17.9414C86.8644 16.4039 82.9546 13.8496 82.1858 14.6184L64.6629 32.4011L20.1308 84.8866ZM20.1308 84.8866C20.4061 84.6381 20.6263 84.362 20.8741 84.0859M75.9319 39.8071C75.0627 37.2154 69.3619 31.2957 66.5801 30.4554M78.7056 37.0129C78.1676 34.8356 72.1086 28.5085 69.3436 27.6509M82.4383 33.2528C81.6841 30.6206 75.9695 24.8332 73.1454 23.96M87.027 28.6303C86.15 25.9256 80.5448 20.1514 77.7286 19.332" stroke="currentColor" stroke-width="1.5" stroke-miterlimit="10" stroke-linecap="round" fill="none" />
</svg>