<?xml version='1.0' encoding='utf-8'?>
<svg xmlns="http://www.w3.org/2000/svg" id="Layer_1" data-name="Layer 1" width="110" height="110" viewBox="0 0 110 110">
  <path d="M83.5685,63.605l4.6517-4.6448c8.0172-8.0055,4.0535-18.8217-2.4052-25.7651-2.1292-2.2894-4.5607-4.2734-7.079-5.6843-3.2804-1.84-13.5657-4.5325-20.2912,2.0142l-13.9593,13.8904c-3.7678,3.75,5.7404,7.3776,10.5528,2.6349l3.5166-3.4654c5.1949-4.711,11.7229,4.7295,19.8597-1.6913M29.2324,61.4079l-4.6444-4.6373c-15.4772-15.4547,11.3288-41.9888,27.0379-26.6979l3.1297,3.1142M65.9845,45.9497l17.9749,18.843c3.6694,3.8467-1.7791,11.17-6.4877,6.3143l-8.4257-8.6874M61.7035,68.2736l9.2615,9.5151c3.708,3.8086,11.2147-1.823,6.5068-6.6819l-9.0521-9.3406M58.8897,78.7876l4.6262,4.6644c3.7442,3.7739,11.0126-1.6127,6.3426-6.5163" style="fill:none;stroke:currentColor;stroke-linecap:round;stroke-linejoin:round;stroke-width:1.5" />
  <path d="M40.2583,57.5842l.494.4941c1.6693,1.6694,1.6654,4.4151-.0004,6.0809l-6.4012,6.4043c-1.6655,1.6654-4.412,1.6685-6.0806,0l-.494-.4941c-1.6685-1.6685-1.6725-4.4081-.0003-6.081l6.4011-6.4043c1.6721-1.6728,4.412-1.6693,6.0813,0h0ZM51.0267,60.5144l.494.4941c1.6725,1.6724,1.6666,4.4139-.0004,6.081l-10.197,10.1969c-1.667,1.667-4.4135,1.667-6.0805,0l-.4941-.4941c-1.667-1.667-1.6721-4.4085,0-6.0806l10.1969-10.1969c1.6725-1.6725,4.4085-1.6728,6.081-.0004h0ZM55.1941,70.0426l.4939.494c1.6726,1.6725,1.6698,4.4117.0005,6.081l-6.9909,6.9909c-1.6694,1.6693-4.4113,1.6693-6.0811-.0004l-.494-.494c-1.6693-1.6693-1.6725-4.4081,0-6.0806l6.9909-6.9909c1.6721-1.6721,4.4086-1.6721,6.0807,0h0ZM59.6887,79.1335l.4942.4941c1.6704,1.6705,1.6658,4.4148,0,6.0806l-4.2926,4.2926c-1.6658,1.6658-4.4136,1.667-6.0806,0l-.494-.4941c-1.667-1.667-1.6725-4.4089-.0004-6.0809l4.2926-4.2926c1.6721-1.6721,4.4101-1.6705,6.0809.0004h0Z" style="fill:none;stroke:currentColor;stroke-linecap:round;stroke-linejoin:round;stroke-width:1.5" />
</svg>