<?xml version='1.0' encoding='utf-8'?>
<svg xmlns="http://www.w3.org/2000/svg" width="110" height="110" viewBox="0 0 110 110" fill="none" stroke="currentColor" stroke-width="1.5">
<path d="M27.6679 80.9287L23.3471 85.313C20.2176 88.444 20.2176 93.5205 23.3471 96.6516C26.4766 99.7828 31.5505 99.7827 34.6802 96.6516L38.8587 92.4982M36.3326 60.6499C38.8124 58.1688 43.0803 58.2699 46.3134 55.0352M36.3326 60.6499C29.8945 67.0912 29.8945 77.5345 36.3326 83.9758C42.7706 90.417 53.2088 90.417 59.6469 83.9758M36.3326 60.6499L31.9481 65.0365C25.5101 71.4778 25.5101 81.9211 31.9481 88.3624C38.3862 94.8036 48.8244 94.8036 55.2624 88.3624L59.6469 83.9758M59.6469 83.9758C63.0036 80.6173 61.4362 77.9511 65.3271 74.0582M46.3134 55.0352L54.4799 46.8929M46.3134 55.0352C41.0629 60.2883 41.0629 68.8051 46.3134 74.0582C51.5639 79.3113 60.0766 79.3113 65.3271 74.0582M65.3271 74.0582L73.1679 66.0238M77.9429 34.7711C72.7619 32.5994 66.5595 33.6236 62.3418 37.8435M62.3418 37.8435C56.7724 43.4157 56.7724 52.4498 62.3418 58.022C67.9112 63.5942 76.9409 63.5942 82.5104 58.022M62.3418 37.8435L57.2997 42.8881C51.7302 48.4603 51.7302 57.4944 57.2997 63.0667C62.8691 68.6389 71.8988 68.6389 77.4682 63.0667L82.5104 58.022M82.5104 58.022C87.846 52.6838 88.0699 44.1678 83.1821 38.5627M77.258 52.767C74.5833 55.443 70.2019 55.3705 67.6196 52.5496C64.9518 49.635 65.5855 45.0028 68.6941 42.5643C71.7969 40.1304 75.3976 40.2697 79.0027 33.4568C82.7186 26.4343 84.685 19.9953 85.2677 12.6744C85.3321 11.8672 85.9104 11.1941 86.704 11.0353C87.7631 10.8233 88.7675 11.5915 88.8537 12.6688C89.7737 24.1745 86.2166 33.0109 82.0718 40.4754C79.8795 44.862 80.327 49.6963 77.258 52.767Z" stroke="currentColor" stroke-width="1.5" stroke-miterlimit="10" fill="none" />
</svg>