<?xml version='1.0' encoding='utf-8'?>
<svg xmlns="http://www.w3.org/2000/svg" width="110" height="110" viewBox="0 0 110 110" fill="none" stroke="currentColor" stroke-width="1.5">
<path d="M56.6562 42.1399V48.7545L59 51.4999L61.2159 48.7545V42.1399M43.7 14.7H65.6199C79.9794 14.7 91.62 26.3405 91.62 40.7V69.9C91.62 84.2594 79.9794 95.9 65.6199 95.9H43.7C29.3405 95.9 17.7 84.2594 17.7 69.9V40.7C17.7 26.3405 29.3405 14.7 43.7 14.7ZM35.98 37.66H73.34C79.4151 37.66 84.34 42.5848 84.34 48.66V75.9399C84.34 82.0151 79.4151 86.94 73.34 86.94H35.98C29.9048 86.94 24.98 82.0151 24.98 75.9399V48.66C24.98 42.5848 29.9048 37.66 35.98 37.66ZM53 37.66H64.76V42.1399H53V37.66Z" stroke="currentColor" stroke-width="1.5" stroke-linecap="round" stroke-linejoin="round" fill="none" />
<path d="M37.5684 63.825C44.3652 67.5152 49.2053 65.9856 52.7453 65.9856C54.205 65.9856 54.7288 65.9856 56.1437 65.9856C59.6837 65.9856 64.6322 67.5152 71.4291 63.825M40.0442 70.65C42.8763 73.4887 49.5919 73.3345 51.9991 72.7667M40.5313 76.425C42.5137 78.1281 45.8683 78.6339 47.9922 78.35M40.0277 81.0625C42.0101 82.7656 43.2879 83.0089 45.412 82.725M68.958 70.6277C66.1259 73.4663 59.4057 73.3345 56.9985 72.7667M68.4629 76.3467C66.4805 78.0498 63.0261 78.4587 60.9021 78.175M68.9586 80.975C66.9762 82.6781 65.5547 82.7464 63.4307 82.4625M44.575 52.2123C42.3869 51.9354 40.3515 51.3683 38.5041 50.6074M44.575 52.2123C44.3429 54.9186 44.264 57.4138 44.3616 59.0244M44.575 52.2123C46.2161 52.4199 47.9432 52.4609 49.7434 52.2938M38.5041 50.6074C38.1075 52.8272 38.0309 55.3015 38.3454 57.4862M38.5041 50.6074C38.0409 50.4166 37.5905 50.2132 37.1513 50C35.9923 51.553 35.2324 53.4206 35.0461 55.4505C35.0355 55.5656 35.0239 55.6804 35.017 55.7964C35.0158 55.8195 35.0168 55.842 35.0157 55.8651M38.3454 57.4862C40.4152 58.3159 42.3922 58.7814 44.3616 59.0244M38.3454 57.4862C38.5275 58.7521 38.8331 59.923 39.2932 60.8761C41.4173 65.276 43.2581 71.0952 42.6917 75.2112C42.1254 79.3273 40.806 83.4125 41.3726 84.6899M38.3454 57.4862C37.2658 57.0534 36.1586 56.5159 35.0157 55.8651M44.3616 59.0244C46.0567 59.2334 47.7474 59.2829 49.4886 59.2521M44.3616 59.0244C44.3705 59.1727 44.3788 59.3243 44.3909 59.4568C44.6741 62.5793 46.2318 70.2437 45.9485 73.2241C45.666 76.1989 44.2547 82.8479 42.4191 84.9905M54.4987 51.8927C55.5561 51.905 56.6343 51.9793 57.5741 52.1024C58.0419 52.1765 58.5124 52.2276 58.9836 52.2687C59.1032 53.6787 59.2195 55.1569 59.2589 56.6182C59.2797 57.3938 59.2743 58.2898 59.2558 59.2495M54.4987 51.8927V59.0664M54.4987 51.8927C53.3418 51.8793 52.2102 51.9405 51.3149 52.1024C50.7844 52.1864 50.262 52.2456 49.7434 52.2938M54.4987 59.0664C55.401 59.0664 56.2857 59.1019 56.9933 59.1729C57.7632 59.2071 58.5153 59.2347 59.2558 59.2495M54.4987 59.0664C53.5958 59.0664 52.6747 59.1019 51.8956 59.1729C51.0793 59.2093 50.2788 59.2381 49.4886 59.2521M54.4987 59.0664V72.0938M59.2558 59.2495C60.9612 59.2837 62.6027 59.2422 64.2426 59.049M59.2558 59.2495C59.1493 64.7799 58.5577 72.7104 59.3974 75.6236M49.7434 52.2938C49.6374 53.7468 49.5288 55.2681 49.4886 56.7601C49.4687 57.4963 49.4725 58.3432 49.4886 59.2521M49.4886 59.2521C49.5873 64.8246 50.1861 73.1462 49.3339 76.075M64.2426 59.049C64.2339 59.188 64.2262 59.3317 64.2149 59.4568C63.9315 62.5792 62.3741 70.2436 62.6573 73.2242C62.9401 76.2005 64.3525 82.8548 66.1893 84.994M64.2426 59.049C66.2118 58.817 68.182 58.357 70.258 57.5231M59.3974 75.6236L64.455 84.1992C64.9674 84.7129 65.5799 84.9557 66.1893 84.994M59.3974 75.6236L58.7493 74.5244C56.838 71.2836 52.1596 71.2836 50.2484 74.5244L44.5425 84.1993C43.9203 84.8229 43.1517 85.0515 42.4191 84.9905M66.1893 84.994C66.586 85.019 66.9789 84.9556 67.3447 84.8147M70.258 57.5231C70.0755 58.7706 69.7705 59.9274 69.3126 60.8761C67.1885 65.276 65.3477 71.0952 65.9142 75.2112C66.4743 79.2822 67.8624 83.4872 67.3447 84.8147M70.258 57.5231C71.4527 57.0432 72.6835 56.4393 73.9709 55.6821C73.9739 55.7202 73.9781 55.7581 73.9804 55.7965C74.1195 58.1483 73.5111 60.3496 72.3711 62.185C69.3397 67.0652 67.9046 72.7707 68.6371 78.4723L69.0801 81.921C69.2591 83.3137 68.4312 84.3961 67.3447 84.8147M42.4191 84.9905C40.9889 84.8714 39.698 83.6284 39.9174 81.921L40.3604 78.4723C41.093 72.7707 39.6578 67.0653 36.6264 62.185C35.4976 60.3677 34.8926 58.191 35.0157 55.8651" stroke="currentColor" stroke-width="1.5" stroke-linecap="round" stroke-linejoin="round" fill="none" />
</svg>