<?xml version='1.0' encoding='utf-8'?>
<svg xmlns="http://www.w3.org/2000/svg" version="1.1" id="Layer_1" x="0px" y="0px" viewBox="0 0 110 110" style="enable-background:new 0 0 110 110;fill:none;stroke:currentColor;stroke-width:1.5" xml:space="preserve">
  <path style="fill:none;stroke:currentColor;stroke-linecap:round;stroke-linejoin:round;stroke-width:1.5" d="M31.58,102.36l-24.21-13.09v-26.53M31.58,102.36l23.38-13.81M31.58,102.36v-26.65M7.37,62.74l24.21-14.93M7.37,62.74l24.21,12.99M31.58,47.81v-26.53M31.58,47.81l23.38,14.01M31.58,21.27l23.5-13.64,23.75,13.64M31.58,21.27l23.38,13.51M78.84,21.27v26.53M78.84,21.27l-23.88,13.51M78.84,47.81l23.79,13.16M78.84,47.81l-23.88,14.01M102.63,60.97v27.45l-23.79,13.94M102.63,60.97l-23.79,14.75M78.84,102.36l-23.88-13.81M78.84,102.36v-26.65M54.96,88.55v-26.73M54.96,34.78v27.03M31.58,75.72l23.38-13.9M78.84,75.72l-23.88-13.9" vector-effect="non-scaling-stroke" />
</svg>