<?xml version='1.0' encoding='utf-8'?>
<svg xmlns="http://www.w3.org/2000/svg" id="Layer_1" data-name="Layer 1" width="110" height="110" viewBox="0 0 110 110">
  <path d="M39.5,81.0001s.2149-.2774.6415-1.2133c.2853-.6261.5979-1.2372,1.0152-1.7959.406-.5435.8774-1.0196,1.5006-1.3382.1542-.0789.3084-.1628.4854-.1885.2516-.0484.5985-.1728.8276-.2784.4894-.2255.9316-.5203,1.3355-.8699.7969-.6898,1.3841-1.5195,1.8107-2.4554.2853-.6261.5979-1.2372,1.0152-1.7959.406-.5436.8774-1.0196,1.5006-1.3382.1542-.0789.4223-.1925.5993-.2182.2516-.0484.4866-.1451.7157-.2507.4894-.2255.9316-.5203,1.3355-.87.7968-.6897,1.3841-1.5194,1.8106-2.4553.2853-.6262.5979-1.2372,1.0153-1.7959.406-.5436.8773-1.0196,1.5005-1.3382.1543-.079.4203-.1905.5974-.2162.2515-.0484.4865-.1451.7157-.2507.4893-.2256.9316-.5203,1.3355-.87.7968-.6897,1.384-1.5195,1.8106-2.4553.2853-.6262.9316-2.0058,1.9316-2.5058M11,65.4761L65.4762,10.9999l33.5238,33.5237-54.4762,54.4763L11,65.4761ZM48.9698,95.1193l2.5592-2.5592,1.5843,1.5843-2.5592,2.5592-1.5843-1.5843ZM92.7211,51.3679l2.5593-2.5592,1.5843,1.5843-2.5592,2.5592-1.5844-1.5843Z" style="fill:none;stroke:currentColor;stroke-linecap:round;stroke-miterlimit:10;stroke-width:1.5" />
  <path d="M78.9863,64.5375c-1.3579-8.6056-5.2824-16.4132-11.7735-23.0479-5.7711-5.8988-13.3451-9.7237-20.7509-11.4753M64.7418,64.2114c0,10.2687-8.3245,18.5932-18.5932,18.5932s-18.5932-8.3245-18.5932-18.5932,8.3245-18.5932,18.5932-18.5932,18.5932,8.3245,18.5932,18.5932ZM11,65.4762L65.4762,11.0001l33.5238,33.5238-54.4762,54.4762L11,65.4762ZM62.7787,22.5691l.9004-.9004c1.0304-1.0303,2.7009-1.0303,3.7313,0l5.6722,5.6722c1.0303,1.0304,1.0303,2.7009,0,3.7312l-.9004.9005c-1.0304,1.0303-2.7009,1.0303-3.7312,0l-5.6723-5.6723c-1.0303-1.0303-1.0303-2.7008,0-3.7312ZM48.9698,95.1194l2.5592-2.5592,1.5843,1.5843-2.5592,2.5592-1.5843-1.5843ZM92.7212,51.3681l2.5592-2.5593,1.5843,1.5843-2.5592,2.5593-1.5843-1.5843Z" style="fill:none;stroke:currentColor;stroke-linecap:round;stroke-miterlimit:10;stroke-width:1.5" />
  <path d="M36.0755,65.6761c0-2.9328,1.1188-5.8656,3.3564-8.1032s5.1704-3.3564,8.1031-3.3564" style="fill:none;stroke:currentColor;stroke-linecap:round;stroke-miterlimit:10;stroke-width:1.5" />
  <path d="M38.8495,65.6761c0-2.2229.848-4.4457,2.544-6.1417s3.9188-2.544,6.1417-2.544" style="fill:none;stroke:currentColor;stroke-linecap:round;stroke-miterlimit:10;stroke-width:1.5" />
  <path d="M41.2625,65.6761c0-1.6053.6124-3.2106,1.8372-4.4354s2.8301-1.8372,4.4354-1.8372" style="fill:none;stroke:currentColor;stroke-linecap:round;stroke-miterlimit:10;stroke-width:1.5" />
  <path d="M43.7924,65.6761c0-.9578.3654-1.9157,1.0962-2.6465s1.6886-1.0962,2.6464-1.0962" style="fill:none;stroke:currentColor;stroke-linecap:round;stroke-miterlimit:10;stroke-width:1.5" />
</svg>