<?xml version='1.0' encoding='utf-8'?>
<svg xmlns="http://www.w3.org/2000/svg" width="110" height="110" viewBox="0 0 110 110" fill="none" stroke="currentColor" stroke-width="1.5">
<path d="M42.1954 80.4814C39.6322 79.5257 38.3218 76.6701 39.2758 74.0909L45.0459 58.581C46 56.0133 48.8505 54.7006 51.4253 55.6563C53.9885 56.612 55.2988 59.4791 54.3448 62.0468L48.5747 77.5567C47.6207 80.1244 44.7701 81.4371 42.1954 80.4814Z" fill="none" stroke="currentColor" stroke-width="1.5" />
<path d="M69.9425 79.756C70.9425 82.3122 69.6781 85.1908 67.1264 86.1925L51.7356 92.2145C49.1839 93.2163 46.3103 91.9497 45.3103 89.3935C44.3103 86.8373 45.5747 83.9587 48.1264 82.957L63.5172 76.9349C66.0689 75.9332 68.9425 77.1998 69.9425 79.756Z" fill="none" stroke="currentColor" stroke-width="1.5" />
<path d="M33.8046 25.8225L33.8046 33.1802C33.8046 42.0233 43.2988 49.1968 55 49.1968C66.7011 49.1968 76.1954 42.0233 76.1954 33.1802V25.8225" fill="none" stroke="currentColor" stroke-width="1.5" />
<path d="M55 41.8391C66.7059 41.8391 76.1954 34.6682 76.1954 25.8225C76.1954 16.9769 66.7059 9.80603 55 9.80603C43.2941 9.80603 33.8046 16.9769 33.8046 25.8225C33.8046 34.6682 43.2941 41.8391 55 41.8391Z" fill="none" stroke="currentColor" stroke-width="1.5" />
<path d="M64.3736 60.6939L64.3738 60.6902L64.3769 60.6923L64.3736 60.6939Z" fill="none" stroke="currentColor" stroke-width="1.5" />
<path d="M76.1954 84.1775C76.1954 93.0232 66.7059 100.125 55 100.125M76.1954 84.1775C76.1954 75.3318 66.7059 68.0919 55 68.0919C53.9816 68.0919 53.0216 68.1328 52.0416 68.2378M76.1954 84.1775C76.1954 93.0206 66.7011 100.125 55 100.125M76.1954 84.1775V40.8488C76.1954 40.2128 76.0857 39.3776 75.9401 38.5856M55 100.125C43.2941 100.125 33.8046 93.0232 33.8046 84.1775M55 100.125C43.2988 100.125 33.8046 93.0206 33.8046 84.1775M33.8046 84.1775C33.8046 79.864 36.012 75.8797 39.6817 73M33.8046 84.1775V40.8488C33.8046 40.0112 33.878 39.2206 34.0313 38.4433M42.1609 66.3302L51.4597 69.796M54.7358 80.3709C57.2875 79.3692 60.1494 80.585 61.1494 83.1412C62.1494 85.6974 60.8834 88.6319 58.3316 89.6337M33.8046 25.8225L33.8046 33.1802C33.8046 42.0233 43.2988 49.1968 55 49.1968C66.7011 49.1968 76.1954 42.0233 76.1954 33.1802V25.8225M33.8046 25.8225L33.8046 36.0934C33.8046 36.8916 33.8819 37.6763 34.0313 38.4433M33.8046 25.8225C33.8046 34.6682 43.2941 41.8391 55 41.8391C66.7059 41.8391 76.1954 34.6682 76.1954 25.8225M33.8046 25.8225C33.8046 16.9769 43.2941 9.80603 55 9.80603C66.7059 9.80603 76.1954 16.9769 76.1954 25.8225M76.1954 30.0829V36.0934C76.1954 36.9411 76.1081 37.7734 75.9401 38.5856M64.6897 55.7139L64.3738 60.6902M64.3738 60.6902L64.3736 60.6939M64.3738 60.6902L64.3769 60.6923M64.3738 60.6902L60.2299 57.9247M64.3736 60.6939L64.0575 65.6739M64.3736 60.6939L59.908 62.9104M64.3736 60.6939L64.3769 60.6923M64.3769 60.6923L68.8391 58.4774M64.3769 60.6923L68.5287 63.4631M34.0313 38.4433C35.5366 46.1731 44.3551 52.1099 55 52.1099C65.5795 52.1099 74.3549 46.2458 75.9401 38.5856M42.1954 80.4814C39.6322 79.5257 38.3218 76.6701 39.2758 74.0909L45.0459 58.581C46 56.0133 48.8505 54.7006 51.4253 55.6563C53.9885 56.612 55.2988 59.4791 54.3448 62.0468L48.5747 77.5567C47.6207 80.1244 44.7701 81.4371 42.1954 80.4814ZM69.9425 79.756C70.9425 82.3122 69.6781 85.1908 67.1264 86.1925L51.7356 92.2145C49.1839 93.2163 46.3103 91.9497 45.3103 89.3935C44.3103 86.8373 45.5747 83.9587 48.1264 82.957L63.5172 76.9349C66.0689 75.9332 68.9425 77.1998 69.9425 79.756ZM64.6207 22.4028C64.3793 19.789 62.1264 17.5782 59.4942 17.5667C57.8161 17.5667 56.3103 18.3727 55.3793 19.6278C54.4367 18.3727 52.9425 17.5667 51.2643 17.5667C48.6322 17.5667 46.3908 19.6278 46.1609 22.2416L46.1494 22.4028C46.0804 23.5197 46.3678 24.556 46.908 25.4311C48.3448 27.7455 49.023 30.4513 48.6781 33.1572L48.4712 34.7923C48.3103 36.0128 49.7931 36.7497 50.6666 35.8746L53.3678 31.2919C54.2758 29.7605 56.4942 29.7605 57.4023 31.2919L60.1034 35.8746C60.977 36.7497 62.4597 36.0243 62.2988 34.7923L62.0919 33.1572C61.7471 30.4513 62.4253 27.7455 63.862 25.4311C64.4023 24.556 64.6896 23.5197 64.6207 22.4028Z" stroke="currentColor" stroke-width="1.5" stroke-linecap="round" stroke-linejoin="round" fill="none" />
</svg>