<?xml version='1.0' encoding='utf-8'?>
<svg xmlns="http://www.w3.org/2000/svg" version="1.1" id="Layer_1" x="0px" y="0px" viewBox="0 0 110 110" style="enable-background:new 0 0 110 110;fill:none;stroke:currentColor;stroke-width:1.5" xml:space="preserve">
<path style="fill:none;stroke:currentColor;stroke-width:1.5;stroke-linecap:round;stroke-linejoin:round" d="M55.5,40.224L68.445,16H81  L61.778,51.97 M61.778,51.97h2.565v7.165 M61.778,51.97H46.657v7.165 M61.777,51.97H49.222L30,16h12.555L61.777,51.97z   M74.776,76.012C74.776,86.499,66.146,95,55.5,95s-19.276-8.501-19.276-18.988c0-10.487,8.63-18.988,19.276-18.988  S74.776,65.525,74.776,76.012z M55.5,65.47l3.477,6.94l7.774,1.113l-5.626,5.402l1.328,7.628L55.5,82.951l-6.954,3.602l1.328-7.628  l-5.627-5.402l7.775-1.113L55.5,65.47z" />
</svg>