<?xml version='1.0' encoding='utf-8'?>
<svg xmlns="http://www.w3.org/2000/svg" width="110" height="110" viewBox="0 0 110 110" fill="none" stroke="currentColor" stroke-width="1.5">
<path d="M40.0273 37.322V25.9334C36.8076 26.9086 35.1355 30.1131 35.1355 31.6118M35.1355 31.6118C35.1355 37.6274 49.9147 42.5121 68.1835 42.5121C86.4523 42.5121 101.231 37.9029 101.231 31.8771M35.1355 31.6118V31.8771V66.6564C57.7353 71.204 50.5274 89.2814 68.1835 89.2814C85.8499 89.2814 78.6317 71.204 101.231 66.6564V31.8771M101.231 31.8771C101.231 25.8513 85.341 20.7186 60.8303 20.7186C36.3195 20.7186 21.5403 24.8966 14.9972 27.3706V58.5M21.8415 35.8703C15.3295 37.5128 10.7286 39.2579 7.72705 40.5514V34.5153C10.7286 33.2219 15.3192 31.4767 21.8415 29.8343M21.8415 50.242C15.3295 51.8844 10.7286 53.6296 7.72705 54.923V48.8869C10.7286 47.5935 15.3192 45.8484 21.8415 44.2059M35.1355 36.4414C35.1355 42.457 49.9147 47.3266 68.1835 47.3266C86.4523 47.3266 101.231 42.4498 101.231 36.424M15 58.5C21.5535 56.026 36.3403 51.0529 60.8406 51.0529C85.341 51.0529 101.231 56.3396 101.231 62.3552C78.6317 66.9028 82.4641 84.9802 68.1835 84.9802C53.9028 84.9802 57.7353 66.9028 35.1355 62.3552M50.1847 40.7556V45.5747M52.4696 41.2039V46.0218M54.7441 41.5734V46.3905M57.029 41.8759V46.6922M59.3139 42.1153V46.9309M61.5988 42.2958V47.111M63.8837 42.4207V47.2355M66.1582 42.5V47.3065M68.4431 42.5118V47.3262M70.728 42.482V47.2948M73.0129 42.4029V47.2113M75.2875 42.2732V47.0748M77.5723 42.0893V46.8816M79.8573 41.8483V46.6289M82.1422 41.5455V46.312M84.4167 41.1765V45.9268M50.1847 24.8553V21M47.7648 21.1399V25C51.109 24.8255 56.9875 24.4449 60.8303 24.4449C70.0633 24.4449 78.0086 25.1315 84.4167 26.312V22.6665M52.4696 24.7324V20.887M54.7441 24.62V20.8069M57.029 24.5254V20.7526M59.3139 24.4606V20.7239M61.5988 24.4465V20.7203M63.8837 24.4705V20.7456M66.1582 24.5241V20.8022M68.4431 24.6095V20.892M70.728 24.7284V21.0168M73.0129 24.8832V21.1789M75.2875 25.0757V21.3799M77.5723 25.3108V21.6251M79.8573 25.5919V21.9178M82.1422 25.9242V22.2632M43.5481 65.1464V69.5468M45.9368 66.4904V71.0192M48.3256 68.2027V72.9808M50.7144 70.3849V75.6165M52.9162 72.8942V78.7414M92.5696 65.272V69.6823M90.1912 66.6436V71.1914M87.8025 68.398V73.2125M85.4137 70.633V75.9276M83.2119 73.1959V79.1181" stroke="currentColor" stroke-width="1.5" stroke-linecap="round" stroke-linejoin="round" fill="none" />
</svg>