<?xml version='1.0' encoding='utf-8'?>
<svg xmlns="http://www.w3.org/2000/svg" width="110" height="110" viewBox="0 0 110 110" fill="none" stroke="currentColor" stroke-width="1.5">
<path d="M36.7749 33.1221V19.4572M23.1099 37.677L14 28.5672M50.4397 37.677L59.5496 28.5672M49.8718 70.6718L70.3717 90.916L85.5549 65.6106V20.0611M55.1885 58.0191C55.1885 48.236 47.2578 40.3054 37.4748 40.3054C27.6918 40.3054 19.7611 48.236 19.7611 58.0191C19.7611 67.8021 27.6918 75.7328 37.4748 75.7328C47.2578 75.7328 55.1885 67.8021 55.1885 58.0191ZM50.1275 58.0191C50.1275 51.0312 44.4627 45.3664 37.4748 45.3664C30.4869 45.3664 24.8221 51.0312 24.8221 58.0191C24.8221 65.0069 30.4869 70.6718 37.4748 70.6718C44.4627 70.6718 50.1275 65.0069 50.1275 58.0191ZM90.616 20.0611H70.3717C67.5766 20.0611 65.3106 17.7951 65.3106 14.9999H95.677C95.677 17.7951 93.4112 20.0611 90.616 20.0611ZM75.4328 90.916C75.4328 88.1208 73.1669 85.8549 70.3717 85.8549C67.5765 85.8549 65.3106 88.1208 65.3106 90.916C65.3106 93.7111 67.5765 95.9771 70.3717 95.9771C73.1669 95.9771 75.4328 93.7111 75.4328 90.916ZM90.616 65.6107C90.616 62.8155 88.3501 60.5496 85.5549 60.5496C82.7597 60.5496 80.4938 62.8155 80.4938 65.6107C80.4938 68.4058 82.7597 70.6718 85.5549 70.6718C88.3501 70.6718 90.616 68.4058 90.616 65.6107Z" stroke="currentColor" stroke-width="1.5" stroke-miterlimit="10" stroke-linecap="round" fill="none" />
</svg>