<?xml version='1.0' encoding='utf-8'?>
<svg xmlns="http://www.w3.org/2000/svg" id="Layer_1" data-name="Layer 1" width="110" height="110" viewBox="0 0 110 110">
  <polyline points="16.1746 33.5181 25.2945 31.074 55.9092 22.8604 86.4993 31.0625 95.6438 33.5181" style="fill:none;stroke:currentColor;stroke-linecap:round;stroke-linejoin:round;stroke-width:1.5" />
  <line x1="86.4993" y1="79.2709" x2="86.4993" y2="31.0625" style="fill:none;stroke:currentColor;stroke-linecap:round;stroke-linejoin:round;stroke-width:1.5" />
  <path d="M48.7084,62.2237l-7.0216-19.3952c-.1282-.3541-.3465-.6398-.6559-.8585-.3077-.2158-.6489-.3234-1.0254-.3217h-15.5691c-.4942-.0004-.9151.1743-1.264.5242-.3538.3489-.5326.7698-.5365,1.264v9.918h-3.2663c-.4977-.0004-.9227.1743-1.2755.5246-.35.3524-.5246.7774-.5246,1.2755v16.1409c0,.4981.1746.9231.5246,1.2755.2556.2539.5501.417.8822.489" style="fill:none;stroke:currentColor;stroke-linecap:round;stroke-linejoin:round;stroke-width:1.5" />
  <path d="M43.8802,59.4578h-5.8058l-1.7997-4.9232c-.1296-.3538-.3478-.6398-.6559-.8581-.3101-.2158-.6517-.3227-1.0254-.322h-6.7233" style="fill:none;stroke:currentColor;stroke-linecap:round;stroke-linejoin:round;stroke-width:1.5" />
  <line x1="25.2945" y1="36.3555" x2="25.2945" y2="31.074" style="fill:none;stroke:currentColor;stroke-linecap:round;stroke-linejoin:round;stroke-width:1.5" />
  <path d="M45.8235,39.0256c3.7476,10.3553,7.4952,20.7106,11.2421,31.0662.1753.5008.5016.8666.9772,1.0968.4799.2172.9689.2333,1.4666.0475l10.7531-3.8862" style="fill:none;stroke:currentColor;stroke-linecap:round;stroke-linejoin:round;stroke-width:1.5" />
  <path d="M48.0647,67.3257c1.6471.446,2.8989,1.4117,3.7553,2.8968.8546,1.4753,1.0607,3.0326.6199,4.6731-.4439,1.6467-1.4013,2.8944-2.873,3.7434-1.4655.8469-3.0194,1.0495-4.6613.6077-1.6471-.438-2.8988-1.3953-3.7553-2.873-.8546-1.483-1.0614-3.0487-.6199-4.6969.4397-1.6422,1.3932-2.8863,2.8612-3.7309,1.4693-.8515,3.027-1.0576,4.6731-.6202Z" style="fill:none;stroke:currentColor;stroke-linecap:round;stroke-linejoin:round;stroke-width:1.5" />
  <path d="M27.2616,67.9338c1.4693-.847,3.027-1.0495,4.6731-.6081,1.6471.4418,2.8989,1.4033,3.7553,2.8853.8546,1.4791,1.0614,3.0403.6199,4.6847-.4397,1.6467-1.3932,2.8944-2.8612,3.7434-1.4693.8469-3.027,1.0495-4.6731.6077-1.6471-.438-2.8989-1.3953-3.7553-2.873-.8546-1.483-1.0607-3.0487-.6199-4.6969.44-1.6465,1.3939-2.894,2.8612-3.743h0Z" style="fill:none;stroke:currentColor;stroke-linecap:round;stroke-linejoin:round;stroke-width:1.5" />
  <line x1="16.9856" y1="84.3492" x2="94.8209" y2="84.3492" style="fill:none;stroke:currentColor;stroke-linecap:round;stroke-linejoin:round;stroke-width:1.5" />
  <path d="M67.2706,33.9842l.0124-.006,10.7315,6.2078M56.5391,52.5828v-12.3909M56.5391,40.192l3.9618-2.2896,2.8826-1.672,3.8871-2.2461M60.501,37.9023l10.7065,6.2142v3.8368l2.8826-1.6594v-3.8434l-10.7065-6.2202M59.2657,41.7581l8.005,4.623.006.0064v9.4147M78.0146,52.5889v.0128l-10.7315,6.2014h-.0064l-.006-.0062M67.2706,58.7969l-10.7315-6.2016v-.0124M78.0146,40.1859v12.403M63.2024,47.3921l-2.8638-1.6473" style="fill:none;stroke:currentColor;stroke-linecap:round;stroke-linejoin:round;stroke-width:1.5" />
</svg>