<?xml version='1.0' encoding='utf-8'?>
<svg xmlns="http://www.w3.org/2000/svg" width="110" height="110" viewBox="0 0 110 110" fill="none" stroke="currentColor" stroke-width="1.5">
<path d="M78.9863 64.5375C77.6284 55.9319 73.7039 48.1243 67.2128 41.4896C61.4417 35.5908 53.8677 31.7659 46.4619 30.0143M31.8678 61.9348C31.8934 62.1996 32.0078 62.4345 32.1147 62.6692C32.5463 63.6176 33.2244 64.3517 34.0081 64.9935C34.8136 65.6533 35.705 66.1613 36.621 66.6298C37.99 67.3303 39.1886 68.2618 40.1629 69.4945C40.6568 70.1194 41.0657 70.7973 41.3678 71.5402C41.5092 71.888 41.637 72.244 41.6913 72.6211M35.7396 58.0631C35.7652 58.3279 35.8796 58.5628 35.9865 58.7975C36.4182 59.7459 37.0962 60.48 37.8799 61.1219C38.6854 61.7817 39.5768 62.2896 40.4928 62.7582C41.8618 63.4586 43.0604 64.3901 44.0347 65.6229C44.5286 66.2477 44.9375 66.9256 45.2396 67.6685C45.381 68.0164 45.5088 68.3723 45.5631 68.7494M39.6112 54.1915C39.6368 54.4562 39.7513 54.6912 39.8582 54.9259C40.2898 55.8742 40.9679 56.6084 41.7516 57.2502C42.5571 57.91 43.4485 58.4179 44.3644 58.8865C45.7335 59.5869 46.9321 60.5184 47.9064 61.7512C48.4002 62.3761 48.8092 63.0539 49.1113 63.7969C49.2527 64.1447 49.3805 64.5006 49.4348 64.8777M43.4829 50.3196C43.5085 50.5844 43.6229 50.8194 43.7298 51.0541C44.1615 52.0024 44.8395 52.7365 45.6232 53.3784C46.4288 54.0382 47.3202 54.5461 48.2361 55.0147C49.6051 55.7151 50.8038 56.6466 51.778 57.8794C52.2719 58.5042 52.6809 59.1821 52.9829 59.925C53.1244 60.2729 53.2521 60.6288 53.3064 61.0059M64.7418 64.2113C64.7418 74.48 56.4173 82.8045 46.1486 82.8045C35.8799 82.8045 27.5554 74.48 27.5554 64.2113C27.5554 53.9426 35.8799 45.6181 46.1486 45.6181C56.4173 45.6181 64.7418 53.9426 64.7418 64.2113ZM11 65.4762L65.4762 11L99 44.5238L44.5238 99L11 65.4762ZM62.7787 22.569L63.6791 21.6686C64.7095 20.6383 66.38 20.6383 67.4104 21.6686L73.0826 27.3408C74.1129 28.3712 74.1129 30.0417 73.0826 31.072L72.1822 31.9725C71.1518 33.0028 69.4813 33.0028 68.451 31.9725L62.7787 26.3002C61.7484 25.2699 61.7484 23.5994 62.7787 22.569ZM48.9698 95.1193L51.529 92.5601L53.1133 94.1444L50.5541 96.7036L48.9698 95.1193ZM92.7212 51.368L95.2804 48.8087L96.8647 50.393L94.3055 52.9523L92.7212 51.368ZM40.9086 77.2741L59.3436 58.8391L62.1998 61.6952L43.7648 80.1303L40.9086 77.2741Z" stroke="currentColor" stroke-width="1.5" stroke-miterlimit="10" stroke-linecap="round" fill="none" />
</svg>