<?xml version='1.0' encoding='utf-8'?>
<svg xmlns="http://www.w3.org/2000/svg" version="1.1" id="Layer_1" x="0px" y="0px" viewBox="0 0 110 110" style="enable-background:new 0 0 110 110;fill:none;stroke:currentColor;stroke-width:1.5" xml:space="preserve">
<path style="fill:none;stroke:currentColor;stroke-width:1.5;stroke-linecap:round;stroke-linejoin:round;stroke-miterlimit:10" d="  M16,34.654l9.006-2.441 M25.006,32.213L55.239,24l30.212,8.202 M25.006,32.213v5.278 M85.451,32.202l9.028,2.452 M85.451,32.202  v48.179 M48.135,63.339l-6.931-19.384c-0.13-0.352-0.337-0.638-0.652-0.858c-0.304-0.22-0.641-0.319-1.01-0.319H24.17  c-0.489,0-0.902,0.176-1.249,0.528c-0.348,0.352-0.521,0.77-0.532,1.264v9.917h-3.226c-0.489,0-0.913,0.176-1.26,0.528  c-0.348,0.352-0.521,0.781-0.521,1.275v16.129c0,0.495,0.174,0.924,0.521,1.275c0.25,0.253,0.543,0.418,0.869,0.484 M43.366,60.58  H37.63l-1.782-4.926c-0.13-0.352-0.348-0.638-0.652-0.858c-0.304-0.22-0.641-0.319-1.01-0.319h-6.638 M45.278,40.162  c3.705,10.346,7.398,20.703,11.103,31.049c0.174,0.506,0.5,0.869,0.967,1.099c0.478,0.22,0.956,0.231,1.445,0.044l10.625-3.881   M16.804,85.461h76.871 M66.826,64.23l9.413-5.566v-9.929 M66.826,64.23V53.731 M66.826,64.23V53.733l-9.587-4.997 M66.826,64.23  l-9.587-5.566v-9.929 M66.826,53.731l9.413-4.995 M66.826,53.731l-9.587-4.995 M76.24,48.736l-9.413-5.505l-9.587,5.505   M47.494,68.441c1.629,0.451,2.868,1.407,3.704,2.892c0.847,1.473,1.043,3.035,0.608,4.673c-0.434,1.649-1.38,2.892-2.835,3.738  c-1.445,0.847-2.977,1.045-4.606,0.605c-1.63-0.44-2.868-1.396-3.705-2.87c-0.847-1.484-1.043-3.046-0.608-4.695  c0.435-1.638,1.38-2.881,2.825-3.727C44.332,68.21,45.864,68.001,47.494,68.441z M26.951,69.057  c1.456-0.847,2.988-1.045,4.617-0.605c1.63,0.44,2.868,1.407,3.704,2.881c0.847,1.473,1.043,3.035,0.608,4.684  c-0.435,1.649-1.38,2.892-2.825,3.738c-1.456,0.846-2.988,1.045-4.617,0.605c-1.63-0.44-2.868-1.396-3.705-2.87  c-0.847-1.484-1.043-3.046-0.608-4.695C24.561,71.146,25.506,69.903,26.951,69.057z" />
</svg>