<?xml version='1.0' encoding='utf-8'?>
<svg xmlns="http://www.w3.org/2000/svg" width="110" height="110" viewBox="0 0 110 110" fill="none" stroke="currentColor" stroke-width="1.5">
<path d="M86.243 15.114L78.1285 23.2391C72.8816 28.4844 72.8816 36.9823 78.1285 42.2276L86.0373 50.0955M86.243 15.114C80.9576 10.6016 73.0231 10.8458 68.0335 15.834L15.861 68.0169C10.6142 73.2493 10.6142 81.7472 15.861 86.9925L23.0111 94.1405C28.2579 99.3729 36.7583 99.3858 42.0051 94.1405L86.0373 50.0955M86.243 15.114L86.0373 50.0955M28.3382 55.5373L54.4867 81.6626M54.1929 29.6774L80.342 55.8148M81.1468 55.0102L94.1647 68.0298C99.4115 73.275 99.4115 81.7729 94.1647 87.0054L87.0146 94.1534C81.7678 99.3986 73.2674 99.3986 68.0206 94.1534L55 81.1494M28.8752 55.0001L15.8353 41.9833C10.5885 36.738 10.6014 28.2401 15.8353 22.9948L22.9854 15.8468C28.2322 10.6016 36.7326 10.6016 41.9666 15.8468L55 28.8701M59.2373 55.7393C59.2373 58.4019 57.0783 60.5604 54.4149 60.5604C51.7515 60.5604 49.5924 58.4019 49.5924 55.7393C49.5924 53.0767 51.7515 50.9183 54.4149 50.9183C57.0783 50.9183 59.2373 53.0767 59.2373 55.7393ZM59.2373 42.2404C59.2373 44.903 57.0783 47.0615 54.4149 47.0615C51.7515 47.0615 49.5924 44.903 49.5924 42.2404C49.5924 39.5778 51.7515 37.4194 54.4149 37.4194C57.0783 37.4194 59.2373 39.5778 59.2373 42.2404ZM59.2373 69.2382C59.2373 71.9008 57.0783 74.0593 54.4149 74.0593C51.7515 74.0593 49.5924 71.9008 49.5924 69.2382C49.5924 66.5756 51.7515 64.4172 54.4149 64.4172C57.0783 64.4172 59.2373 66.5756 59.2373 69.2382ZM72.7402 55.7393C72.7402 58.4019 70.5811 60.5604 67.9177 60.5604C65.2544 60.5604 63.0953 58.4019 63.0953 55.7393C63.0953 53.0767 65.2544 50.9183 67.9177 50.9183C70.5811 50.9183 72.7402 53.0767 72.7402 55.7393ZM45.7216 55.7393C45.7216 58.4019 43.5625 60.5604 40.8992 60.5604C38.2358 60.5604 36.0767 58.4019 36.0767 55.7393C36.0767 53.0767 38.2358 50.9183 40.8992 50.9183C43.5625 50.9183 45.7216 53.0767 45.7216 55.7393Z" stroke="currentColor" stroke-width="1.5" stroke-linecap="round" stroke-linejoin="round" fill="none" />
</svg>