<?xml version='1.0' encoding='utf-8'?>
<svg xmlns="http://www.w3.org/2000/svg" version="1.1" id="Layer_1" x="0px" y="0px" viewBox="0 0 110 110" style="enable-background:new 0 0 110 110;fill:none;stroke:currentColor;stroke-width:1.5" xml:space="preserve">
<path style="fill:none;stroke:currentColor;stroke-width:1.5;stroke-linecap:round;stroke-linejoin:round" d="M61.347,76.413h33.259  c0.31,0,0.561,0.251,0.561,0.561v1.71c0,1.616-1.31,2.925-2.926,2.925H16.927c-1.616,0-2.926-1.31-2.926-2.926l0-1.709  c0-0.31,0.251-0.561,0.561-0.561h34.611 M53.353,32.025h2.46 M21.789,35.879h65.589 M14.231,76.521l7.558-8.306 M21.789,68.214  v-34.27c0-3.283,2.661-5.944,5.944-5.944h53.701c3.283,0,5.944,2.661,5.944,5.944v34.27 M21.789,68.214h10.23 M87.378,68.214  l7.594,8.334 M87.378,68.214H77.129 M36.136,72.588h1.64 M24.658,72.588h1.64 M30.397,72.588h1.64 M77.129,72.588h1.64   M82.868,72.588h1.64 M71.391,72.588h1.64 M58.638,57.011c-1.109,2.007-3.638,2.733-5.647,1.622  c-2.009-1.111-2.739-3.638-1.629-5.645c1.109-2.007,3.638-2.733,5.647-1.622C59.018,52.477,59.748,55.005,58.638,57.011z   M52.6,44.318l-0.008-3.548l4.746-0.006l0.008,3.548c0,0.508,0.325,0.96,0.812,1.119c0.462,0.152,0.913,0.336,1.352,0.556  c0.45,0.227,0.994,0.137,1.349-0.226c0.913-0.917,2.503-2.513,2.503-2.513l3.364,3.348l-2.5,2.507  c-0.358,0.354-0.447,0.902-0.22,1.359c0.222,0.439,0.409,0.889,0.56,1.348c0.159,0.486,0.617,0.805,1.12,0.803l3.55-0.004  l0.011,4.743l-3.55,0.004c-0.508-0.001-0.961,0.323-1.119,0.81c-0.152,0.461-0.332,0.907-0.552,1.345  c-0.226,0.449-0.13,0.996,0.225,1.354c0.919,0.913,2.518,2.504,2.518,2.504l-3.347,3.358l-2.512-2.501  c-0.355-0.358-0.903-0.448-1.36-0.222c-0.439,0.221-0.889,0.407-1.349,0.558c-0.486,0.159-0.805,0.616-0.803,1.118l0.008,3.548  l-4.746,0.006l-0.008-3.548c0-0.508-0.325-0.96-0.812-1.119c-0.462-0.152-0.908-0.332-1.347-0.553  c-0.45-0.227-0.997-0.131-1.355,0.223c-0.913,0.917-2.503,2.513-2.503,2.513l-3.364-3.348l2.5-2.507  c0.358-0.354,0.447-0.902,0.22-1.359c-0.222-0.439-0.408-0.889-0.56-1.348c-0.159-0.486-0.617-0.805-1.12-0.803l-3.55,0.004  l-0.011-4.743l3.55-0.004c0.508,0.001,0.961-0.323,1.119-0.81c0.152-0.461,0.332-0.907,0.552-1.345  c0.226-0.449,0.13-0.996-0.225-1.354c-0.919-0.913-2.518-2.504-2.518-2.504l3.347-3.358l2.512,2.501  c0.355,0.358,0.903,0.448,1.36,0.222c0.439-0.221,0.889-0.407,1.349-0.558C52.284,45.277,52.603,44.82,52.6,44.318z" />
</svg>