<?xml version='1.0' encoding='utf-8'?>
<svg xmlns="http://www.w3.org/2000/svg" id="Layer_1" data-name="Layer 1" width="110" height="110" viewBox="0 0 110 110">
  <line x1="100.6596" y1="36.7353" x2="99.406" y2="36.7353" style="fill:none;stroke:currentColor;stroke-linecap:round;stroke-linejoin:round;stroke-width:1.5" />
  <path d="M56.8829,89.1407h36.4621c.3397,0,.615.2753.615.6149v1.8747c0,1.7713-1.436,3.2073-3.2073,3.2073H8.1847c-1.7716,0-3.2078-1.436-3.2081-3.2076l-.0004-1.874c-.0001-.3397.2753-.615.615-.615h37.9442M13.515,44.7026h37.969M85.4209,63.3427v16.8095l8.0895,9.0197M5.4256,89.1719l8.0895-9.0197v-37.5707c0-3.599,2.9176-6.5165,6.5165-6.5165h30.4769M74.1857,80.1837h11.2353M13.515,80.1837h11.2351M29.2445,84.9475h1.7976M16.6609,84.9475h1.7976M22.9527,84.9475h1.7977M74.1857,84.9475h1.7977M80.4775,84.9475h1.7977M67.894,84.9475h1.7975M49.4892,53.4915l14.5571,8.4208M34.9151,78.7286v-16.8081M34.9151,61.9205l5.3742-3.1059,3.9102-2.268,5.2727-3.0469M40.2893,58.8146l14.5232,8.4295v5.2045l3.9102-2.2509v-5.2135l-14.5232-8.4376M38.6136,64.045l10.8587,6.271.0082.0087v12.7709M49.4723,87.1578l.0082.0084h.0087l14.5571-8.4121v-.0173M49.4723,87.1578l-14.5571-8.4124v-.0169M64.0463,61.9123v16.8245M43.9538,71.6874l-3.8847-2.2346M78.1135,10.9645c13.7449,0,24.8873,11.1424,24.8873,24.8873s-11.1424,24.8873-24.8873,24.8873-24.8873-11.1424-24.8873-24.8873,11.1424-24.8873,24.8873-24.8873ZM96.9172,23.2799h-36.1476v26.1217M73.4562,29.0465v7.6888h-7.4967M84.605,29.0465v7.6888h-7.4967M95.7538,29.0465v7.6888h-7.4966M73.4562,40.772v7.6888h-7.4967M84.605,40.772v7.6888h-7.4967M95.7538,40.772v7.6888h-7.4966M73.4562,52.4974v4.6469M84.605,52.4974v3.5408M77.1083,43.6553l2.0184,2.0183,2.5949-5.6705M66.1805,29.3495l3.8082,3.8082M66.1805,33.1577l3.8082-3.8082" style="fill:none;stroke:currentColor;stroke-linecap:round;stroke-linejoin:round;stroke-width:1.5" />
</svg>