<?xml version='1.0' encoding='utf-8'?>
<svg xmlns="http://www.w3.org/2000/svg" width="110" height="110" viewBox="0 0 110 110" fill="none" stroke="currentColor" stroke-width="1.5">
<path d="M51.0897 76.1968V89M59.7911 76.1968V89M76.6034 89H34.2677M16.0686 68.8975H93.931M73.6162 34.6198C73.1249 29.2661 68.578 25.0589 63.2089 25.0488M73.6162 34.6198C73.7516 36.9078 73.2001 39.3877 72.0972 41.1706C69.1645 45.9081 67.7809 51.4487 68.4878 56.9893L68.9139 60.3379C69.2347 62.8431 66.2168 64.3381 64.4421 62.5501L58.9276 53.1508C57.0778 50.0042 52.5559 50.0042 50.7111 53.1508L45.1966 62.5501C43.4219 64.3381 40.404 62.8481 40.7248 60.3379L41.1509 56.9893C41.8578 51.4538 40.4692 45.9132 37.5415 41.1706C36.4386 39.3877 35.8329 36.9027 35.9682 34.6198M73.6162 34.6198C66.9136 39.0644 63.3843 38.519 57.2282 38.2412C55.8596 38.1048 53.8042 38.1048 52.3002 38.2412C46.1441 38.519 42.6708 39.0644 35.9682 34.6198M63.2089 25.0488C59.7799 25.0488 56.7319 26.7004 54.8168 29.2661M63.2089 25.0488C64.3118 29.9631 64.4872 35.4835 64.2115 38.5139C63.9358 41.5443 62.4319 48.9941 62.7076 51.8881C62.9833 54.7822 64.728 61.2539 66.5027 63.3247M54.8168 29.2661C52.9068 26.7054 49.8588 25.0488 46.4298 25.0538M54.8168 29.2661V50.7909M46.4298 25.0538C41.0607 25.0589 36.4595 29.2661 35.9682 34.6198M46.4298 25.0538C45.3269 29.9681 44.7755 35.4835 45.0512 38.5139C45.3269 41.5494 46.8309 48.9941 46.5551 51.8881C46.2794 54.7822 44.8976 61.2539 43.123 63.3247M38.5258 28.9206C42.4211 31.0318 46.0538 32.2763 51.7438 31.3722C53.3981 31.0692 55.8897 31.1197 57.7947 31.3722C63.4846 32.2763 67.3751 31.0318 71.2703 28.9206M38.4564 42.7738C45.0237 46.3598 49.7034 44.8576 53.1274 44.8576C54.0849 44.7212 56.411 44.8576 56.411 44.8576C59.83 44.8576 64.6129 46.3548 71.1802 42.7738M40.8411 49.3803C43.5783 52.138 49.9798 52.0579 52.3059 51.5023M41.3186 54.9236C43.2336 56.5802 46.4853 57.1365 48.5357 56.8587M40.8338 59.4815C42.7488 61.1381 44.1671 61.0741 46.2225 60.8014M51.0491 26.1254C48.8584 26.9537 44.229 27.0741 42.8604 25.6953C40.2586 28.1752 38.0679 35.6199 40.1233 39.8927C42.1787 44.1656 43.9533 49.8173 43.4069 53.8175C42.8604 57.8176 41.8439 61.9085 42.3904 63.151M68.7951 49.3803C66.0579 52.138 59.6563 52.0579 57.3302 51.5023M68.3123 54.9236C66.3973 56.5802 63.1534 57.1314 61.103 56.8587M68.8049 59.4815C66.8899 61.1381 65.4666 61.0792 63.4162 60.8014M58.5839 26.1254C60.7747 26.9537 65.3129 27.0408 66.6815 25.662C69.2834 28.1419 71.1899 35.6199 69.1345 39.8927C67.0841 44.1656 65.3044 49.8173 65.8508 53.8175C66.3973 57.8176 67.7903 61.9136 67.2439 63.151M49.7924 25.6042C51.0256 27.1195 50.1145 30.7965 49.9741 35.8977C49.8388 40.9988 51.0203 50.9475 50.0628 54.2557M59.8385 25.6042C58.6052 27.1195 59.2836 30.6601 59.4189 35.7613C59.5543 40.8625 58.6184 50.9475 59.5759 54.2557M28.741 20H81.259C89.3893 20 96 26.691 96 34.942V61.2646C96 69.5058 89.399 76.2066 81.259 76.2066H28.741C20.6107 76.2066 14 69.5156 14 61.2646V34.942C14 26.691 20.601 20 28.741 20Z" stroke="currentColor" stroke-width="1.5" stroke-linecap="round" stroke-linejoin="round" fill="none" />
</svg>