<?xml version='1.0' encoding='utf-8'?>
<svg xmlns="http://www.w3.org/2000/svg" version="1.1" id="Layer_1" x="0px" y="0px" viewBox="0 0 110 110" style="enable-background:new 0 0 110 110;fill:none;stroke:currentColor;stroke-width:1.5" xml:space="preserve">
<path style="fill:none;stroke:currentColor;stroke-width:1.5;stroke-linejoin:round" d="M61.72,71.22H47.44L40.3,83.59l7.14,12.37h14.28  l7.14-12.37L61.72,71.22z" />
<path style="fill:none;stroke:currentColor;stroke-width:1.5;stroke-linejoin:round" d="M61.72,42.46H47.44L40.3,54.83l7.14,12.36h14.28  l7.14-12.36L61.72,42.46z" />
<path style="fill:none;stroke:currentColor;stroke-width:1.5;stroke-linejoin:round" d="M61.72,13.7H47.44L40.3,26.07l7.14,12.36h14.28  l7.14-12.36L61.72,13.7z" />
<path style="fill:none;stroke:currentColor;stroke-width:1.5;stroke-linejoin:round" d="M86.24,57.02H71.96l-7.14,12.37l7.14,12.37h14.28  l7.14-12.37L86.24,57.02z" />
<path style="fill:none;stroke:currentColor;stroke-width:1.5;stroke-linejoin:round" d="M86.24,28.26H71.96l-7.14,12.37L71.96,53h14.28  l7.14-12.37L86.24,28.26z" />
<path style="fill:none;stroke:currentColor;stroke-width:1.5;stroke-linejoin:round" d="M37.12,57.02H22.84L15.7,69.39l7.14,12.37h14.28  l7.14-12.37L37.12,57.02z" />
<path style="fill:none;stroke:currentColor;stroke-width:1.5;stroke-linejoin:round" d="M37.12,28.26H22.84L15.7,40.63L22.84,53h14.28  l7.14-12.37L37.12,28.26z" />
</svg>