<?xml version='1.0' encoding='utf-8'?>
<svg xmlns="http://www.w3.org/2000/svg" id="Layer_1" data-name="Layer 1" width="110" height="110" viewBox="0 0 110 110">
  <g>
    <path d="M43.6685,55.0798v1.0926c0,1.0861,1.0023,2.185,2.2091,2.185h2.161c1.2068,0,2.185-1.099,2.185-2.185v-.3306c0-.8465-.5899-1.5979-1.482-1.8656l-3.5731-1.0703c-.8922-.2677-1.5-1.0191-1.5-1.8656v-.3306c0-1.0861.9782-2.185,2.185-2.185h2.185c1.2068,0,2.185,1.099,2.185,2.185v1.0926" style="fill:none;stroke:currentColor;stroke-miterlimit:10;stroke-width:1.5" />
    <line x1="46.9461" y1="48.5246" x2="46.9461" y2="45.247" style="fill:none;stroke:currentColor;stroke-miterlimit:10;stroke-width:1.5" />
    <line x1="46.9461" y1="58.3574" x2="46.9461" y2="61.635" style="fill:none;stroke:currentColor;stroke-miterlimit:10;stroke-width:1.5" />
  </g>
  <g>
    <path d="M74.0729,18.6022l2.872-.2066c1.4713-.1058,2.7346,1.0349,2.7792,2.5093l.7618,25.2599c.0201.6692-.2191,1.3203-.6679,1.817l-36.3251,40.2143c-.9604,1.0632-2.6007,1.1466-3.664.1862l-25.9574-23.447c-1.0631-.9603-1.1465-2.6007-.1861-3.6639L50.0109,21.0566c.4485-.4965,1.0716-.8005,1.7389-.8486l14.1864-1.0205M78.6172,54.4297c.8848.7993.954,2.1642.155,3.0489l-34.8781,38.6124c-.9603,1.0632-2.6007,1.1466-3.6639.1861l-24.2158-21.8737c-.9619-.8688-1.0373-2.353-.1684-3.3149M82.8467,43.4089c3.7837-.2638,7.4743-1.9361,10.2176-4.9729,5.6256-6.228,5.1373-15.8373-1.0906-21.4629-6.228-5.6256-15.8373-5.1373-21.4629,1.0907-3.7085,4.1056-4.7601,9.6806-3.2619,14.6152M70.7014,34.6215c-1.2608,2.1147-3.9971,2.807-6.1118,1.5462-2.1146-1.2607-2.8069-3.997-1.5462-6.1117,1.2607-2.1147,3.997-2.8069,6.1117-1.5462s2.807,3.997,1.5463,6.1117Z" style="fill:none;stroke:currentColor;stroke-linecap:round;stroke-linejoin:round;stroke-width:1.5" />
    <path d="M47.3432,36.4955v6.8341M35.2573,41.8109l4.6081,4.6324M29.9698,53.9604h6.7983M35.2573,66.1099l4.6081-4.6323M59.429,66.1099l-4.6081-4.6323M64.7165,53.9604h-6.7982M59.429,41.8109l-4.6081,4.6324M42.14,41.3327l1.1562,2.8062M34.7816,48.7299l2.7915,1.1623M34.7816,59.191l2.7915-1.1623M59.9047,59.191l-2.7914-1.1623M59.9047,48.7299l-2.7914,1.1623M52.5463,41.3327l-1.1562,2.8062" style="fill:none;stroke:currentColor;stroke-linejoin:round;stroke-width:1.5" />
  </g>
</svg>