<?xml version='1.0' encoding='utf-8'?>
<svg xmlns="http://www.w3.org/2000/svg" version="1.1" id="Layer_1" x="0px" y="0px" viewBox="0 0 110 110" style="enable-background:new 0 0 110 110;fill:none;stroke:currentColor;stroke-width:1.5" xml:space="preserve">
<path style="fill:none;stroke:currentColor;stroke-width:1.5;stroke-linecap:round;stroke-linejoin:round" d="M76.679,72.976H37.591  c-2.729,0-4.939-2.213-4.939-4.939s2.21-4.939,4.939-4.939 M17.158,24.23h9.879l8.262,38.868h41.38l6.163-28.989H63.075   M29.137,34.109h19.889 M44.507,84.831c0,2.729-2.21,4.939-4.939,4.939s-4.939-2.213-4.939-4.939c0-2.727,2.21-4.939,4.939-4.939  S44.507,82.102,44.507,84.831z M74.705,84.831c0,2.729-2.213,4.939-4.939,4.939c-2.727,0-4.939-2.213-4.939-4.939  c0-2.727,2.213-4.939,4.939-4.939C72.492,79.892,74.705,82.102,74.705,84.831z" />
<path style="fill:none;stroke:currentColor;stroke-width:1.5" d="M57.01,24.177c0-0.552-0.448-1-1-1c-0.552,0-1,0.448-1,1H57.01z M55.303,54.208  c0.391,0.391,1.024,0.391,1.414,0l6.364-6.364c0.39-0.39,0.39-1.024,0-1.414c-0.39-0.391-1.024-0.391-1.414,0l-5.657,5.657  l-5.657-5.657c-0.391-0.391-1.024-0.391-1.414,0c-0.39,0.391-0.39,1.024,0,1.414L55.303,54.208z M55.01,24.177v29.324h2V24.177  H55.01z" />
</svg>