<?xml version='1.0' encoding='utf-8'?>
<svg xmlns="http://www.w3.org/2000/svg" width="110" height="110" viewBox="0 0 110 110" fill="none" stroke="currentColor" stroke-width="1.5">
<path d="M58.3317 54.8668C60.4426 54.515 62.0098 54.6642 63.7369 56.3274C65.4107 57.9159 65.6346 59.8562 65.4321 61.8925M45.4849 49.0458C45.2823 51.0714 45.5169 52.9904 47.18 54.5683C48.7153 56.0289 50.4744 56.2634 52.3188 56.0608M44.6533 38.1073C46.2525 39.6319 46.5297 41.4656 46.3698 43.3953M73.2894 65.4321C68.5132 60.8797 61.4981 68.236 56.7218 63.6836C51.9456 59.1313 58.9714 51.775 54.1951 47.2227C49.4189 42.6703 42.4038 50.0266 37.6276 45.4743M64.5472 67.575C64.4086 69.4833 64.6964 71.2851 66.2743 72.7883M79.9114 76.053L87.6927 83.8333M83.8333 87.6927L76.0361 79.8934M34.9407 38.7977L14.95 18.8076M18.8984 15.039L38.7882 34.9305M85.763 85.763L101.254 101.254M83.8333 72.2446L42.5851 30.9963C39.3867 27.7979 34.1947 27.7979 30.9963 30.9963C27.7979 34.1947 27.7979 39.3867 30.9963 42.5851L72.2446 83.8333M48.3848 36.796C49.9413 34.0561 49.5362 30.2074 47.2014 27.8726L45.7728 26.444C42.9689 23.6401 38.4165 23.6401 35.602 26.444L26.444 35.602C23.6401 38.4059 23.6401 42.9582 26.444 45.7728L27.8726 47.2014C29.9835 49.3123 34.9407 50 37 48.5887M86.2321 78.0336C86.2321 82.5615 82.5615 86.2321 78.0336 86.2321C73.5057 86.2321 69.8351 82.5615 69.8351 78.0336C69.8351 73.5057 73.5057 69.8351 78.0336 69.8351C82.5615 69.8351 86.2321 73.5057 86.2321 78.0336ZM80.7629 78.0336C80.7629 79.541 79.541 80.7629 78.0336 80.7629C76.5263 80.7629 75.3044 79.541 75.3044 78.0336C75.3044 76.5263 76.5263 75.3044 78.0336 75.3044C79.541 75.3044 80.7629 76.5263 80.7629 78.0336ZM88.4923 85.763C88.4923 87.2704 87.2704 88.4923 85.763 88.4923C84.2557 88.4923 83.0337 87.2704 83.0337 85.763C83.0337 84.2557 84.2557 83.0337 85.763 83.0337C87.2704 83.0337 88.4923 84.2557 88.4923 85.763ZM25.1433 16.9448C25.1433 21.4727 21.4727 25.1433 16.9448 25.1433C12.4169 25.1433 8.74634 21.4727 8.74634 16.9448C8.74634 12.4169 12.4169 8.74634 16.9448 8.74634C21.4727 8.74634 25.1433 12.4169 25.1433 16.9448ZM39.5253 36.796C39.5253 38.3034 38.3034 39.5253 36.796 39.5253C35.2887 39.5253 34.0667 38.3034 34.0667 36.796C34.0667 35.2887 35.2887 34.0667 36.796 34.0667C38.3034 34.0667 39.5253 35.2887 39.5253 36.796ZM19.6741 16.9448C19.6741 18.4522 18.4522 19.6741 16.9448 19.6741C15.4375 19.6741 14.2155 18.4522 14.2155 16.9448C14.2155 15.4375 15.4375 14.2155 16.9448 14.2155C18.4522 14.2155 19.6741 15.4375 19.6741 16.9448Z" stroke="currentColor" stroke-width="1.5" stroke-linecap="round" stroke-linejoin="round" fill="none" />
</svg>