<?xml version='1.0' encoding='utf-8'?>
<svg xmlns="http://www.w3.org/2000/svg" version="1.1" id="Layer_1" x="0px" y="0px" viewBox="0 0 110 110" style="enable-background:new 0 0 110 110;fill:none;stroke:currentColor;stroke-width:1.5" xml:space="preserve">
<path style="fill:none;stroke:currentColor;stroke-width:1.5" d="M31,81h3.92 M34.92,81V29H60.4v10.064 M34.92,81h14.373 M60.4,39.064V81   M60.4,39.064h15.68V81 M60.4,81h15.68 M60.4,81h-4.573 M76.08,81H80 M49.293,81V63.219h6.533V81 M49.293,81h6.533 M64.973,43.09  h6.533v6.71h-6.533V43.09z M64.973,53.155h6.533v6.71h-6.533V53.155z M49.293,53.155h6.533v6.71h-6.533V53.155z M39.493,53.155  h6.533v6.71h-6.533V53.155z M39.493,63.219h6.533v6.71h-6.533V63.219z M49.293,43.09h6.533v6.71h-6.533V43.09z M39.493,43.09h6.533  v6.71h-6.533V43.09z M49.293,33.026h6.533v6.71h-6.533V33.026z M39.493,33.026h6.533v6.71h-6.533V33.026z M64.973,63.219h6.533v6.71  h-6.533V63.219z" />
<path style="fill:none;stroke:currentColor;stroke-width:1.5;stroke-linecap:round;stroke-linejoin:round" d="M14.161,55.486  c1.101-25.351,25.648-45.254,52.125-38.132 M66.286,17.354L62.257,11 M66.286,17.354l-6.923,3.903 M77.499,92.713  c-22.732,14.38-54.516,3.208-61.922-24.51 M15.577,68.203L12,74.82 M15.577,68.203l6.766,4.166 M77.499,22.182  c21.746,13.465,26.876,45.054,7.343,64.63 M84.842,86.812l7.5-0.2 M84.842,86.812l0.22-7.952" />
</svg>