<?xml version='1.0' encoding='utf-8'?>
<svg xmlns="http://www.w3.org/2000/svg" version="1.1" id="Layer_1" x="0px" y="0px" viewBox="0 0 110 110" style="enable-background:new 0 0 110 110;fill:none;stroke:currentColor;stroke-width:1.5" xml:space="preserve">
<path style="fill:none;stroke:currentColor;stroke-width:1.5;stroke-linecap:round;stroke-linejoin:round" d="M78.381,52.568  c0.499-0.359,0.977-0.766,1.433-1.224c2.177-2.18,3.263-4.812,3.26-7.892c0.003-3.074-1.083-5.695-3.26-7.867  c-1.788-1.787-3.879-2.844-6.274-3.17c0.168-0.596,0.249-1.229,0.245-1.896c0.006-1.863-0.648-3.454-1.961-4.772  c-1.324-1.316-2.921-1.971-4.791-1.969c-1.588-0.005-2.977,0.469-4.167,1.419c-0.597-1.044-1.353-2.022-2.267-2.937  c-2.64-2.634-5.826-3.951-9.558-3.951c-3.728,0-6.91,1.317-9.546,3.951c-2.638,2.633-3.958,5.81-3.958,9.533  c-0.003,0.176-0.003,0.351,0,0.526c-2.866,0.114-5.329,1.205-7.39,3.266c-2.18,2.172-3.271,4.794-3.272,7.867  c0,3.081,1.091,5.712,3.272,7.892c0.456,0.455,0.93,0.863,1.422,1.224 M23.789,53.669c-1.059,1.029-1.987,2.232-2.782,3.609  c-2.222,3.839-2.761,7.897-1.618,12.174c1.149,4.27,3.645,7.507,7.487,9.717c1.385,0.802,2.798,1.385,4.24,1.749 M86.211,53.669  c1.059,1.029,1.987,2.232,2.782,3.609c2.221,3.839,2.76,7.897,1.617,12.174c-1.149,4.27-3.645,7.507-7.488,9.717  c-1.385,0.802-2.798,1.385-4.24,1.749 M81.09,58.991c0.583,0.566,1.093,1.227,1.532,1.982c1.202,2.076,1.492,4.27,0.87,6.582  c-0.622,2.322-1.973,4.082-4.056,5.286c-0.758,0.438-1.53,0.756-2.316,0.954 M28.911,58.991c-0.583,0.566-1.094,1.227-1.532,1.982  c-1.202,2.076-1.492,4.27-0.87,6.582c0.622,2.322,1.973,4.082,4.056,5.286c0.757,0.438,1.529,0.756,2.316,0.954 M57.471,78.706  c-2.327,1.469-5.405,0.772-6.877-1.558c-1.471-2.33-0.778-5.41,1.549-6.879c2.327-1.469,5.405-0.772,6.877,1.558  C60.491,74.157,59.797,77.237,57.471,78.706z M58.457,61.865l2.042-3.736l4.995,2.737l-2.042,3.736  c-0.294,0.534-0.213,1.198,0.207,1.647c0.398,0.427,0.767,0.881,1.101,1.366c0.342,0.498,0.966,0.718,1.55,0.542  c1.49-0.437,4.085-1.196,4.085-1.196l1.603,5.466l-4.079,1.192c-0.582,0.166-0.992,0.69-1.017,1.302  c-0.021,0.59-0.084,1.171-0.19,1.742c-0.113,0.603,0.184,1.203,0.714,1.492l3.736,2.048l-2.729,4.995l-3.736-2.048  c-0.534-0.295-1.197-0.215-1.646,0.205c-0.426,0.397-0.873,0.762-1.358,1.096c-0.498,0.342-0.713,0.972-0.546,1.554  c0.439,1.492,1.201,4.089,1.201,4.089l-5.46,1.597l-1.196-4.082c-0.166-0.582-0.691-0.993-1.302-1.019  c-0.59-0.021-1.17-0.086-1.741-0.192c-0.603-0.114-1.203,0.182-1.49,0.712l-2.042,3.736l-4.995-2.737l2.042-3.736  c0.294-0.534,0.213-1.198-0.207-1.647c-0.398-0.427-0.763-0.874-1.097-1.36c-0.342-0.499-0.973-0.714-1.554-0.549  c-1.49,0.437-4.085,1.196-4.085,1.196l-1.603-5.466l4.079-1.192c0.582-0.166,0.992-0.69,1.017-1.302  c0.021-0.59,0.084-1.171,0.19-1.742c0.113-0.603-0.184-1.204-0.713-1.492l-3.736-2.048l2.729-4.995l3.736,2.048  c0.534,0.295,1.197,0.215,1.646-0.205c0.426-0.397,0.873-0.762,1.358-1.096c0.498-0.342,0.713-0.972,0.546-1.554  c-0.439-1.491-1.201-4.089-1.201-4.089l5.46-1.598l1.196,4.082c0.166,0.582,0.691,0.993,1.302,1.019  c0.59,0.021,1.17,0.086,1.741,0.192C57.569,62.692,58.169,62.395,58.457,61.865z M58.785,46.142  c-1.838,0.321-3.588-0.911-3.909-2.751c-0.321-1.84,0.909-3.592,2.746-3.912c1.838-0.321,3.588,0.911,3.909,2.752  C61.853,44.07,60.623,45.822,58.785,46.142z M63.75,35.84l2.244-1.815l2.425,3.005l-2.244,1.815  c-0.322,0.259-0.443,0.696-0.295,1.086c0.139,0.37,0.253,0.75,0.337,1.141c0.086,0.401,0.42,0.7,0.832,0.74  c1.047,0.111,2.87,0.305,2.87,0.305l-0.406,3.84l-2.864-0.305c-0.407-0.046-0.8,0.177-0.974,0.554  c-0.165,0.365-0.355,0.712-0.569,1.043c-0.227,0.349-0.196,0.802,0.062,1.119l1.814,2.248l-3,2.427l-1.814-2.248  c-0.259-0.323-0.695-0.444-1.084-0.296c-0.37,0.139-0.744,0.252-1.134,0.336c-0.4,0.086-0.698,0.426-0.744,0.833  c-0.11,1.048-0.303,2.873-0.303,2.873l-3.835-0.408l0.304-2.868c0.046-0.408-0.177-0.801-0.553-0.975  c-0.364-0.166-0.712-0.356-1.042-0.57c-0.348-0.227-0.801-0.196-1.118,0.062l-2.244,1.815l-2.425-3.005l2.244-1.815  c0.322-0.259,0.443-0.696,0.295-1.086c-0.139-0.37-0.252-0.745-0.337-1.135c-0.086-0.401-0.425-0.699-0.833-0.745  c-1.047-0.111-2.87-0.304-2.87-0.304l0.406-3.84l2.864,0.305c0.407,0.046,0.8-0.177,0.974-0.554  c0.165-0.365,0.355-0.712,0.569-1.043c0.227-0.349,0.195-0.802-0.062-1.119l-1.814-2.248l3-2.427l1.814,2.248  c0.259,0.323,0.695,0.444,1.084,0.296c0.37-0.139,0.744-0.252,1.134-0.336c0.4-0.086,0.698-0.426,0.744-0.833  c0.11-1.048,0.303-2.873,0.303-2.873l3.835,0.408l-0.304,2.868c-0.046,0.408,0.177,0.801,0.553,0.975  c0.364,0.166,0.712,0.356,1.042,0.57C62.98,36.129,63.433,36.098,63.75,35.84z" />
</svg>