<?xml version='1.0' encoding='utf-8'?>
<svg xmlns="http://www.w3.org/2000/svg" id="Layer_1" data-name="Layer 1" width="110" height="110" viewBox="0 0 110 110">
  <g>
    <path d="M13.4057,46.424C18.2346,20.3325,46.6157,3.3007,73.078,14.5285" style="fill:none;stroke:currentColor;stroke-linecap:round;stroke-linejoin:round;stroke-width:1.5" />
    <path d="M73.77,94.204c-25.6916,11.5752-57.0793-4.6219-60.7415-34.4108" style="fill:none;stroke:currentColor;stroke-linecap:round;stroke-linejoin:round;stroke-width:1.5" />
    <polyline points="69.8216 7.3647 73.078 14.5285 65.3266 17.5587" style="fill:none;stroke:currentColor;stroke-linecap:round;stroke-linejoin:round;stroke-width:1.5" />
    <polyline points="8.3538 66.1233 13.0284 59.7932 19.4469 65.091" style="fill:none;stroke:currentColor;stroke-linecap:round;stroke-linejoin:round;stroke-width:1.5" />
  </g>
  <g>
    <path d="M76.2703,25.4238v36.1054c-2.6372,1.6187-4.3758,4.5588-4.2688,7.9044.1478,4.6208,3.9607,8.46,8.5805,8.6365,5.0944.1946,9.2856-3.8776,9.2856-8.9286,0-3.2241-1.7135-6.0408-4.2734-7.6122V25.4238" style="fill:none;stroke:currentColor;stroke-miterlimit:10;stroke-width:1.5" />
    <path d="M84.0539,64.0383c1.7969,1.1027,2.8693,3.0105,2.8693,5.1031,0,3.3037-2.6879,5.9913-5.9913,5.9913s-5.9913-2.6876-5.9913-5.9913c0-2.0927,1.073-4.0002,2.8699-5.1031l1.4038-.8616v-27.0449" style="fill:none;stroke:currentColor;stroke-linecap:round;stroke-linejoin:round;stroke-width:1.5" />
    <polyline points="89.2209 51.5561 92.8136 58.3093 96.4061 51.5561 92.8136 51.5561 92.8136 28.7019 89.2209 28.7019 92.8136 21.9487 96.4061 28.7019" style="fill:none;stroke:currentColor;stroke-linecap:round;stroke-linejoin:round;stroke-width:1.5" />
    <circle cx="80.8944" cy="25.3225" r="4.6521" style="fill:none;stroke:currentColor;stroke-miterlimit:10;stroke-width:1.5" />
  </g>
  <g>
    <path d="M70.8381,77.5942c-1.5188,1.0322-3.1436,1.9201-4.8548,2.6438-3.3737,1.427-7.0829,2.216-10.9763,2.216-15.5739,0-28.199-12.6252-28.199-28.199s12.6252-28.199,28.199-28.199c3.8935,0,7.6026.7891,10.9763,2.216,1.2651.5351,2.4831,1.1599,3.6459,1.8664,1.4007.8511,2.7214,1.8208,3.9482,2.8952" style="fill:none;stroke:currentColor;stroke-linecap:round;stroke-linejoin:round;stroke-width:1.5" />
    <ellipse cx="55.007" cy="54.255" rx="12.1617" ry="28.199" style="fill:none;stroke:currentColor;stroke-linecap:round;stroke-linejoin:round;stroke-width:1.5" />
    <line x1="32.2274" y1="37.6354" x2="74.4905" y2="37.6354" style="fill:none;stroke:currentColor;stroke-linecap:round;stroke-linejoin:round;stroke-width:1.5" />
    <line x1="32.2274" y1="70.0595" x2="70.0905" y2="70.0595" style="fill:none;stroke:currentColor;stroke-linecap:round;stroke-linejoin:round;stroke-width:1.5" />
    <line x1="26.808" y1="54.255" x2="74.4061" y2="54.255" style="fill:none;stroke:currentColor;stroke-linecap:round;stroke-linejoin:round;stroke-width:1.5" />
  </g>
  <path d="M97.7096,63.5223c-2.122,9.7925-7.673,19.0178-16.8619,25.7134" style="fill:none;stroke:currentColor;stroke-linecap:round;stroke-linejoin:round;stroke-width:1.5" />
  <polyline points="88.6519 90.2458 80.8478 89.2357 81.9064 83.5047" style="fill:none;stroke:currentColor;stroke-linecap:round;stroke-linejoin:round;stroke-width:1.5" />
</svg>