<?xml version='1.0' encoding='utf-8'?>
<svg xmlns="http://www.w3.org/2000/svg" version="1.1" id="Layer_1" x="0px" y="0px" viewBox="0 0 110 110" style="enable-background:new 0 0 110 110;fill:none;stroke:currentColor;stroke-width:1.5" xml:space="preserve">
<path style="fill:none;stroke:currentColor;stroke-width:1.5;stroke-linecap:round" d="M73.389,68.88l9.054,18.193  c0.424,0.85-0.294,1.822-1.232,1.669L72.14,87.26l-4.291,8.119c-0.443,0.84-1.653,0.826-2.077-0.026l-9.69-19.467 M36.777,68.552  l-9.218,18.521c-0.424,0.85,0.294,1.822,1.233,1.669l9.071-1.482l4.291,8.119c0.445,0.84,1.653,0.826,2.077-0.026l9.709-19.542   M46,47.163L54.586,53L64,38 M85.997,44.803c-0.013-2.348-1.168-4.416-2.937-5.689c-1.027-0.738-1.48-2.083-0.953-3.231  c0.924-2.015,0.888-4.43-0.314-6.493c-1.202-2.062-3.285-3.286-5.496-3.478c-1.221-0.107-2.219-1.099-2.332-2.317  c-0.205-2.207-1.441-4.282-3.511-5.471s-4.488-1.212-6.502-0.279c-1.147,0.532-2.494,0.086-3.24-0.936  C59.427,15.147,57.349,14,54.999,14c-2.465,0-4.631,1.26-5.896,3.17c-0.757,1.144-2.196,1.545-3.437,0.956  c-2.07-0.982-4.577-0.944-6.688,0.33c-2.044,1.233-3.236,3.333-3.395,5.543c-0.087,1.222-1.064,2.235-2.282,2.367  c-2.206,0.241-4.264,1.507-5.42,3.595c-1.158,2.087-1.142,4.503-0.176,6.498c0.552,1.138,0.126,2.49-0.885,3.251  c-1.744,1.31-2.856,3.404-2.819,5.752c0.037,2.346,1.218,4.404,3.002,5.658c1.034,0.727,1.503,2.066,0.988,3.22  c-0.903,2.024-0.841,4.44,0.383,6.488c1.223,2.049,3.321,3.251,5.532,3.42c1.221,0.094,2.23,1.076,2.357,2.293  c0.228,2.204,1.486,4.265,3.57,5.434c2.083,1.166,4.501,1.165,6.504,0.21c1.142-0.545,2.494-0.113,3.249,0.9  c1.304,1.748,3.393,2.871,5.743,2.847c2.35-0.024,4.416-1.192,5.68-2.968c0.734-1.029,2.077-1.49,3.228-0.969  c2.022,0.913,4.44,0.863,6.497-0.347c2.057-1.21,3.272-3.299,3.453-5.508c0.1-1.22,1.088-2.223,2.308-2.343  c2.208-0.216,4.278-1.462,5.457-3.537c1.179-2.075,1.19-4.49,0.244-6.495c-0.539-1.144-0.1-2.491,0.919-3.241  C84.873,49.231,86.008,47.151,85.997,44.803z M76.216,44.785c0,11.704-9.498,21.191-21.214,21.191  c-11.716,0-21.214-9.488-21.214-21.191s9.498-21.191,21.214-21.191C66.718,23.594,76.216,33.082,76.216,44.785z" />
</svg>