<?xml version='1.0' encoding='utf-8'?>
<svg xmlns="http://www.w3.org/2000/svg" id="Layer_1" data-name="Layer 1" width="110" height="110" viewBox="0 0 110 110">
  <path d="M55,26.2391v5.6739M50.2941,19.6196v4.4962M59.7059,19.6196v4.4962M43.7059,32.3859c-1.5686,1.1032-4.7059,4.8228-4.7059,10.875v49.1739c0,2.5217.9412,7.5652,7.0588,7.5652h17.8824c6.1176,0,7.0588-5.0435,7.0588-7.5652v-49.1739c0-6.0522-3.1373-9.7718-4.7059-10.875M62.5294,30.0217c0,4.1782-3.371,7.5653-7.5294,7.5653s-7.5294-3.3871-7.5294-7.5653,3.371-7.5652,7.5294-7.5652,7.5294,3.3871,7.5294,7.5652ZM48.4118,19.6196h13.1764c1.0396,0,1.8824-.8468,1.8824-1.8913v-2.837c0-1.0445-.8428-1.8913-1.8824-1.8913h-13.1764c-1.0396,0-1.8824.8468-1.8824,1.8913v2.837c0,1.0445.8428,1.8913,1.8824,1.8913ZM58.1262,71.6287c0,1.5533-.2856,2.8957-.8568,4.0271-.5711,1.1314-1.3546,2.004-2.3505,2.6176-.9959.6137-2.1333.9205-3.4123.9205s-2.4164-.3068-3.4123-.9205c-.9959-.6136-1.7794-1.4862-2.3505-2.6176-.5712-1.1314-.8568-2.4738-.8568-4.0271s.2856-2.8957.8568-4.0271c.5711-1.1314,1.3546-2.004,2.3505-2.6176.9959-.6137,2.1333-.9205,3.4123-.9205s2.4164.3068,3.4123.9205c.9959.6136,1.7794,1.4862,2.3505,2.6176.5712,1.1314.8568,2.4738.8568,4.0271ZM65.113,83.3175h-4.4348s2.1801-2.7391,3.0559-3.8199.8944-2.087.8944-2.087c0,0,.2981-1.5093-1.2298-2.1615s-2.9814.6894-2.9814.6894" style="fill:none;stroke:currentColor;stroke-linecap:round;stroke-linejoin:round;stroke-width:1.5" />
</svg>