<?xml version='1.0' encoding='utf-8'?>
<svg xmlns="http://www.w3.org/2000/svg" width="110" height="110" viewBox="0 0 110 110" fill="none" stroke="currentColor" stroke-width="1.5">
<path d="M34.2596 33.0436L21.5149 18.8897C20.5176 17.8447 20.5892 16.1879 21.6731 15.2317C22.7094 14.3176 24.2898 14.385 25.2433 15.384L39.1143 29.6708M34.2596 33.0436L19.3908 16.5547C18.4698 15.5302 16.9064 15.3893 15.8144 16.2324C14.6371 17.1414 14.4566 18.8392 15.4167 19.9722L29.5022 36.4163M34.2596 33.0436C33.9395 33.327 33.9116 33.8144 34.1971 34.1321C34.4827 34.4497 34.9738 34.4775 35.2939 34.1941C35.6139 33.9106 35.6419 33.4232 35.3563 33.1056C35.0707 32.7879 34.5796 32.7601 34.2596 33.0436ZM39.1143 29.6708L28.0092 18.1558C27.0334 17.1461 27.1034 15.5326 28.163 14.6098C29.117 13.779 30.5497 13.7994 31.4794 14.657L87.3037 65.9907M39.1143 29.6708C38.7942 29.9542 38.7662 30.4417 39.0518 30.7593C39.3374 31.077 39.8285 31.1047 40.1485 30.8213C40.4686 30.5379 40.4966 30.0504 40.211 29.7328C39.9254 29.4151 39.4343 29.3874 39.1143 29.6708ZM67.1217 84.0068L47.8429 65.6626L19.334 66.149C15.0693 66.2218 14.7287 59.8945 18.9823 59.5803C19.1564 59.5675 19.3355 59.5593 19.5199 59.5562C21.3018 59.5258 22.5699 59.5233 23.4984 59.5075C31.1356 59.3772 32.652 51.0952 28.7423 45.4391L12.5237 24.3615C11.6929 23.2819 11.8687 21.7436 12.9224 20.8763C13.9998 19.9892 15.5962 20.1296 16.4996 21.1909L29.5022 36.4163M29.5022 36.4163C29.8222 36.1329 30.3133 36.1607 30.5989 36.4783C30.8845 36.796 30.8565 37.2834 30.5364 37.5668C30.2164 37.8503 29.7253 37.8225 29.4397 37.5049C29.1614 37.1952 29.2046 36.7024 29.5022 36.4163ZM34.9167 59.4272C35.3423 59.4374 35.7375 59.2946 36.1226 59.162C37.7036 58.6417 39.0008 57.6625 40.1662 56.4996C41.362 55.2959 42.345 53.9289 43.2571 52.5008C44.6354 50.3791 46.3379 48.5735 48.4762 47.2168C49.5606 46.5231 50.7159 45.9825 51.9523 45.6357C52.5299 45.4725 53.1177 45.3296 53.7258 45.3194M48.1777 61.2592C48.6033 61.2694 48.9985 61.1266 49.3836 60.994C50.9646 60.4738 52.2618 59.4945 53.4272 58.3316C54.623 57.1279 55.6061 55.761 56.5181 54.3329C57.8964 52.2111 59.5989 50.4055 61.7372 49.0488C62.8216 48.3552 63.9769 47.8145 65.2133 47.4677C65.7909 47.3045 66.1977 47.1519 66.8058 47.1417M69.588 80.4424C69.588 87.2738 75.1678 92.8118 82.0509 92.8118C88.9339 92.8118 94.5137 87.2738 94.5137 80.4424C94.5137 73.6109 88.9339 68.0728 82.0509 68.0728C75.1678 68.0728 69.588 73.6109 69.588 80.4424ZM66.6952 80.4216C66.6952 88.8796 73.6035 95.7361 82.1254 95.7361C90.6472 95.7361 97.5556 88.8796 97.5556 80.4216C97.5556 71.9636 90.6472 65.107 82.1254 65.107C73.6035 65.107 66.6952 71.9636 66.6952 80.4216ZM69.6784 80.4216C69.6784 87.2443 75.2511 92.7752 82.1254 92.7752C88.9996 92.7752 94.5723 87.2443 94.5723 80.4216C94.5723 73.5988 88.9996 68.0679 82.1254 68.0679C75.2511 68.0679 69.6784 73.5988 69.6784 80.4216Z" stroke="currentColor" stroke-width="1.5" stroke-miterlimit="10" stroke-linecap="round" stroke-linejoin="round" fill="none" />
</svg>