<?xml version='1.0' encoding='utf-8'?>
<svg xmlns="http://www.w3.org/2000/svg" width="110" height="110" viewBox="0 0 110 110" fill="none" stroke="currentColor" stroke-width="1.5">
<path d="M89.4773 66.2783H8.76379V65.5131C8.76379 57.0085 15.649 50.1109 24.1383 50.1109H89.4773V66.2783ZM89.4773 66.2783V39.3326M62.5691 44.7218H24.9021V66.2783M57.1897 44.7218V66.2783M89.4773 42.0217C89.4773 42.0217 73.3389 42.0217 73.3389 50.1109M68.5815 33.9326C71.724 24.16 76.9398 17.7652 82.8539 17.7652C92.4562 17.7652 100.236 34.654 100.236 55.5C100.236 76.346 92.4562 93.2348 82.8539 93.2348C76.5251 93.2348 70.9929 85.9109 67.9486 74.9468M51.8103 23.1543L57.1897 28.5434M57.1897 28.5434L51.8103 33.9326M57.1897 28.5434L41.0514 28.5434" stroke="currentColor" stroke-width="1.5" stroke-miterlimit="10" fill="none" />
</svg>