<?xml version='1.0' encoding='utf-8'?>
<svg xmlns="http://www.w3.org/2000/svg" width="110" height="110" viewBox="0 0 110 110" fill="none" stroke="currentColor" stroke-width="1.5">
<path d="M61.6465 32.0316V31.2816H60.8964L60.8965 32.0317L61.6465 32.0316ZM92.0667 32.0338L92.8167 32.0337L92.8166 31.2838H92.0667V32.0338ZM92.0676 45.072L92.0675 45.822H92.8176V45.0719L92.0676 45.072ZM61.6474 45.0698L60.8974 45.0699L60.8975 45.8198H61.6474V45.0698ZM55.1342 40.1795L54.3842 40.1806L54.3852 40.8416L55.0411 40.9237L55.1342 40.1795ZM55.1291 36.919L55.0364 36.1748L54.3781 36.2568L54.3791 36.9202L55.1291 36.919ZM59.4796 36.3767L60.2296 36.3775L60.2305 35.5273L59.3869 35.6325L59.4796 36.3767ZM59.4751 40.7224L59.382 41.4666L60.2242 41.5719L60.2251 40.7231L59.4751 40.7224ZM39.922 38.5507V37.8007L39.172 37.8006V38.5507H39.922ZM59.4802 43.9829L58.7302 43.9832L58.7305 44.5685L59.2982 44.7104L59.4802 43.9829ZM59.4746 33.1163L59.2946 32.3882L58.7243 32.5291L58.7246 33.1167L59.4746 33.1163ZM61.6498 32.5787L62.3998 32.5786L62.3997 31.6208L61.4698 31.8506L61.6498 32.5787ZM61.6506 44.5256L61.4687 45.2532L62.4007 45.4863L62.4006 44.5256H61.6506ZM92.0772 35.832L92.0773 35.082L91.3272 35.0819V35.832H92.0772ZM104.026 35.8328H104.776V35.0829L104.026 35.0828V35.8328ZM104.026 41.266V42.016H104.777L104.776 41.2659L104.026 41.266ZM92.0776 41.2651L91.3276 41.2652L91.3277 42.0151H92.0776V41.2651ZM39.172 43.9829C39.172 44.3971 39.5078 44.7329 39.922 44.7329C40.3362 44.7329 40.672 44.3971 40.672 43.9829H39.172ZM92.0739 27.1451L91.3239 27.145L91.3207 49.9585L92.0707 49.9586L92.8207 49.9587L92.8239 27.1452L92.0739 27.1451ZM61.6465 32.0316L61.6464 32.7816L92.0666 32.7838L92.0667 32.0338V31.2838L61.6465 31.2816V32.0316ZM92.0667 32.0338H91.3167L91.3176 45.072H92.0676L92.8176 45.0719L92.8167 32.0337L92.0667 32.0338ZM92.0676 45.072V44.322L61.6475 44.3198L61.6474 45.0698V45.8198L92.0675 45.822L92.0676 45.072ZM61.6474 45.0698H62.3974L62.3965 32.0316H61.6465L60.8965 32.0317L60.8974 45.0699L61.6474 45.0698ZM104.026 32.5768L103.276 32.5765L103.272 44.5283L104.022 44.5286L104.772 44.5288L104.776 32.577L104.026 32.5768ZM92.1668 38.5544L92.1671 39.3044L101.309 39.3002V38.5502L101.308 37.8002L92.1664 37.8044L92.1668 38.5544ZM55.1342 40.1795L55.8842 40.1783L55.8791 36.9178L55.1291 36.919L54.3791 36.9202L54.3842 40.1806L55.1342 40.1795ZM55.1291 36.919L55.2219 37.6632L59.5724 37.1209L59.4796 36.3767L59.3869 35.6325L55.0364 36.1748L55.1291 36.919ZM59.4796 36.3767L58.7296 36.3759L58.7251 40.7216L59.4751 40.7224L60.2251 40.7231L60.2296 36.3775L59.4796 36.3767ZM59.4751 40.7224L59.5682 39.9782L55.2273 39.4353L55.1342 40.1795L55.0411 40.9237L59.382 41.4666L59.4751 40.7224ZM55.1342 38.5518L55.1343 37.8018L39.922 37.8007V38.5507L39.9219 39.3007L55.1342 39.3018V38.5518ZM59.4802 43.9829L60.2302 43.9825L60.2246 33.1159L59.4746 33.1163L58.7246 33.1167L58.7302 43.9832L59.4802 43.9829ZM59.4746 33.1163L59.6545 33.8444L61.8297 33.3068L61.6498 32.5787L61.4698 31.8506L59.2946 32.3882L59.4746 33.1163ZM61.6498 32.5787H60.8998L60.9006 44.5257L61.6506 44.5256H62.4006L62.3998 32.5786L61.6498 32.5787ZM61.6506 44.5256L61.8326 43.798L59.6621 43.2553L59.4802 43.9829L59.2982 44.7104L61.4687 45.2532L61.6506 44.5256ZM92.0772 35.832V36.582L104.026 36.5828V35.8328V35.0828L92.0773 35.082L92.0772 35.832ZM104.026 35.8328L103.276 35.8329V41.266H104.026L104.776 41.2659V35.8328H104.026ZM104.026 41.266L104.027 40.516L92.0777 40.5151L92.0776 41.2651V42.0151L104.026 42.016V41.266ZM92.0776 41.2651H92.8276L92.8272 35.8319L92.0772 35.832H91.3272L91.3276 41.2652L92.0776 41.2651ZM64.9109 39.6377L64.1609 39.6378L64.1613 45.0735L64.9113 45.0734H65.6613L65.6609 39.6377H64.9109ZM68.1667 41.2658L67.4167 41.2668L67.4218 45.0698L68.1718 45.0688L68.9218 45.0678L68.9167 41.2648L68.1667 41.2658ZM71.4318 39.6382L70.6818 39.6376L70.6774 45.0684L71.4274 45.069L72.1773 45.0697L72.1818 39.6388L71.4318 39.6382ZM74.6876 41.2662L73.9376 41.2663L73.9378 45.0742H74.6878L75.4378 45.0741L75.4376 41.2662H74.6876ZM77.9477 39.6337H77.1977L77.1981 45.0694H77.9481L78.6981 45.0693L78.6977 39.6336L77.9477 39.6337ZM81.2085 41.2667H80.4585L80.4587 45.0747L81.2087 45.0746H81.9587L81.9585 41.2666L81.2085 41.2667ZM84.4638 39.639L83.7138 39.6397L83.719 45.0706L84.469 45.0698L85.219 45.0691L85.2138 39.6382L84.4638 39.639ZM64.9104 34.2018L64.91 34.9518L77.947 34.9576L77.9473 34.2076L77.9477 33.4576L64.9107 33.4518L64.9104 34.2018ZM80.1178 34.2078L80.1179 33.4578L79.0326 33.4577V34.2077L79.0325 34.9577L80.1177 34.9578L80.1178 34.2078ZM39.922 38.5507H39.172V43.9829H39.922H40.672V38.5507H39.922Z" fill="none" stroke="currentColor" stroke-width="1.5" />
<path d="M39.5026 46.4179L42.3625 53.1898M42.3625 53.1898L36.5812 57.3447L32.5365 56.7574M42.3625 53.1898L40.626 59.1285L41.7801 64.4689M42.3625 53.1898L45.2424 57.943H48.7155L49.2871 62.0979M54.9777 57.8511C54.9777 57.7106 54.9551 57.5818 54.9438 57.453C54.368 51.0249 49.0613 45.9668 42.7948 45.9551C38.7866 45.9551 35.2299 47.9455 32.9944 51.0249C30.7701 47.9338 27.2134 45.9434 23.2052 45.9434C16.9387 45.9434 11.6208 51.0132 11.0562 57.4413C11.0449 57.5701 11.0336 57.7106 11.0223 57.8394C10.8643 60.5792 11.553 63.1552 12.8402 65.2978C16.2613 71 17.8759 77.6505 17.0517 84.3128L16.5549 88.3406C16.1823 91.3497 19.705 93.1529 21.7712 90.9985L28.207 79.6996C30.3636 75.9176 35.6364 75.9176 37.793 79.6996L44.2288 90.9985C46.3063 93.1529 49.8177 91.3497 49.4451 88.3406L48.9483 84.3128C48.1241 77.6622 49.7387 71 53.1598 65.2978C54.447 63.1552 55.1357 60.591 54.9777 57.8394V57.8511Z" stroke="currentColor" stroke-width="1.5" stroke-linecap="round" stroke-linejoin="round" fill="none" />
</svg>