<?xml version='1.0' encoding='utf-8'?>
<svg xmlns="http://www.w3.org/2000/svg" id="Layer_1" data-name="Layer 1" width="110" height="110" viewBox="0 0 110 110">
  <circle cx="56.0843" cy="55.4247" r="48.3959" style="fill:none;stroke:currentColor;stroke-miterlimit:10;stroke-width:1.5" />
  <path d="M33.5842,24.3704c-1.0724-1.4489-3.1928-2.0078-4.8401-1.2758-.6277.2789-1.1716.7135-1.7026,1.1492-.6311.5179-1.2687,1.0606-1.6687,1.7723" style="fill:none;stroke:currentColor;stroke-miterlimit:10;stroke-width:1.5" />
  <path d="M36.0581,26.354c.8448.8341,1.3184,1.9858,1.5322,3.1536s.1877,2.3645.161,3.5514" style="fill:none;stroke:currentColor;stroke-miterlimit:10;stroke-width:1.5" />
  <path d="M24.8178,28.9329c-.483.7563-.4477,1.8089.0848,2.5312-1.7955.1797-3.4865,1.214-4.4642,2.7307s-1.2217,3.4838-.6441,5.1934c-1.522.2179-2.9236,1.1621-3.6972,2.4907" style="fill:none;stroke:currentColor;stroke-miterlimit:10;stroke-width:1.5" />
  <path d="M37.0447,35.6071c-1.1632.6311-2.5672.8033-3.849.4753-.0293-.0075-.0426.0209-.0199.0409.6609.5831.8307,1.5776.7304,2.4622-.2944,2.5987-2.7153,4.7788-5.3276,4.813-.0256.0003-.0364.0274-.0179.0451,1.7946,1.7217,2.3316,4.6256,1.2628,6.8729" style="fill:none;stroke:currentColor;stroke-miterlimit:10;stroke-width:1.5" />
  <path d="M28.8233,52.9635c-1.158,2.4563-3.9454,4.0386-6.648,3.774-.8575-.084-1.7966-.4183-2.1514-1.2035" style="fill:none;stroke:currentColor;stroke-miterlimit:10;stroke-width:1.5" />
  <path d="M15.0538,44.7998c-.6715,2.2549-.5051,4.749.4598,6.8948.3586.7973.8693,1.589,1.6655,1.9501" style="fill:none;stroke:currentColor;stroke-miterlimit:10;stroke-width:1.5" />
  <path d="M42.7575,19.1581c-.0324-1.4757.8044-2.8797,1.9643-3.7926s2.609-1.3878,4.0621-1.6472" style="fill:none;stroke:currentColor;stroke-miterlimit:10;stroke-width:1.5" />
  <path d="M52.637,13.247c.8552.1973,1.7244.3999,2.4861.836.544.3115,1.0322.7635,1.3211,1.3116.1521.2886.5138.3867.7561.1683,1.2348-1.1133,2.9785-1.6575,4.6256-1.4044,1.6215.2492,3.1004,1.2637,3.9507,2.6621.172.2829.5731.3416.7912.0925.4063-.4641.9611-.7995,1.5649-.9281" style="fill:none;stroke:currentColor;stroke-miterlimit:10;stroke-width:1.5" />
  <path d="M71.5376,15.406c1.2322.6076,2.5375,1.2827,3.206,2.483.2913.5231.4396,1.1126.56,1.6991.1498.7298.2612,1.4675.3337,2.209" style="fill:none;stroke:currentColor;stroke-miterlimit:10;stroke-width:1.5" />
  <path d="M75.0723,24.8271c-.4455,2.2733-2.2863,4.2124-4.5334,4.7755" style="fill:none;stroke:currentColor;stroke-miterlimit:10;stroke-width:1.5" />
  <path d="M66.8938,29.5741c-1.02-.8316-1.6334-2.1363-1.6388-3.4506-.0002-.0407-.0428-.0456-.0532-.0062-.3489,1.3287-1.5115,2.4009-2.8549,2.7254-1.4399.3478-3.0175-.1146-4.1409-1.0801s-1.8542-2.3229-2.0527-3.7908c-.0429.8313-.0367,1.5961-.0795,2.4274-.0166.3218-.0371.6575-.1988.9362-.1479.255-.3971.4326-.6419.5969-1.0503.7052-2.1623,1.3185-3.319,1.8308" style="fill:none;stroke:currentColor;stroke-miterlimit:10;stroke-width:1.5" />
  <path d="M42.0152,22.4057c-.7257,1.3934-.5773,3.1976.3663,4.4536.3427.4561.7748.8375,1.2263,1.1862,1.3972,1.079,3.2008,1.8958,4.9014,1.4222" style="fill:none;stroke:currentColor;stroke-miterlimit:10;stroke-width:1.5" />
  <path d="M79.0789,29.3488c.7175-.6809,1.5958-1.1912,2.5427-1.4772.4537-.137.9245-.2234,1.3984-.2306,1.7445-.0266,3.446,1.1311,4.0617,2.7636" style="fill:none;stroke:currentColor;stroke-miterlimit:10;stroke-width:1.5" />
  <path d="M76.0762,31.553c-2.0222,2.0668-2.8516,5.227-2.105,8.0205" style="fill:none;stroke:currentColor;stroke-miterlimit:10;stroke-width:1.5" />
  <path d="M75.3934,43.0898c2.2688,1.6069,5.4393,1.8323,7.9138.566.0103-.0053.0184.0043.0117.0137-.9541,1.3383-.7716,3.3677.4123,4.51,1.1932,1.1513,3.2506,1.254,4.5525.2272-.7403.54-1.4728,1.121-1.9852,1.8807s-.7803,1.7329-.5107,2.6086" style="fill:none;stroke:currentColor;stroke-miterlimit:10;stroke-width:1.5" />
  <path d="M89.8999,32.5697c.8707,2.4738.2111,5.4181-1.6318,7.2841,1.2187.1792,2.2433,1.0679,2.8723,2.127s.9189,2.2809,1.1668,3.4874c1.277-.6344,2.8138-.7237,4.1557-.2416" style="fill:none;stroke:currentColor;stroke-miterlimit:10;stroke-width:1.5" />
  <path d="M98.1945,47.9449c.412,2.0271-.1504,4.23-1.4837,5.8116" style="fill:none;stroke:currentColor;stroke-miterlimit:10;stroke-width:1.5" />
  <path d="M93.6567,55.7837c-1.6879,1.1337-3.9535,1.3512-5.8263.5592" style="fill:none;stroke:currentColor;stroke-miterlimit:10;stroke-width:1.5" />
  <path d="M88.0775,67.4948c-2.4827,1.3597-3.9018,4.4234-3.3333,7.1964" style="fill:none;stroke:currentColor;stroke-miterlimit:10;stroke-width:1.5" />
  <path d="M91.6337,67.1158c2.5624,1.1922,4.1809,4.1458,3.8067,6.9471" style="fill:none;stroke:currentColor;stroke-miterlimit:10;stroke-width:1.5" />
  <path d="M93.8724,77.7924c-.5859.7757-1.5926,1.08-2.5333,1.3249-.9428.2454-1.9102.4787-2.8809.3949s-1.9604-.5396-2.4457-1.3843" style="fill:none;stroke:currentColor;stroke-miterlimit:10;stroke-width:1.5" />
  <path d="M79.8598,69.0876c1.7769-.981,3.1711-2.6354,3.8371-4.5527" style="fill:none;stroke:currentColor;stroke-miterlimit:10;stroke-width:1.5" />
  <path d="M82.0802,56.0946c-.3267.8662-.8935,1.6394-1.6166,2.217-.1666.1331-.0978.4053.1092.4566.6305.1564,1.2486.3625,1.8047.6938.7229.4307,1.3377,1.1003,1.5383,1.9175" style="fill:none;stroke:currentColor;stroke-miterlimit:10;stroke-width:1.5" />
  <path d="M76.941,49.4994c.8766-.2077,1.8037.247,2.4047.9181s.9409,1.5298,1.2689,2.3689" style="fill:none;stroke:currentColor;stroke-miterlimit:10;stroke-width:1.5" />
  <path d="M72.7316,49.7477c-1.9898.4939-3.5791,2.3109-3.8039,4.3487" style="fill:none;stroke:currentColor;stroke-miterlimit:10;stroke-width:1.5" />
  <path d="M69.6112,57.7025c.2331,1.2825,1.6044,2.2286,2.8837,2.0351.0515-.0078.0761.044.0356.0768-.9763.7906-1.6125,1.9915-1.7108,3.2447" style="fill:none;stroke:currentColor;stroke-miterlimit:10;stroke-width:1.5" />
  <path d="M70.5971,66.5472c.8775,2.0747,2.7291,3.7125,4.8954,4.3302" style="fill:none;stroke:currentColor;stroke-miterlimit:10;stroke-width:1.5" />
  <path d="M71.1976,87.1989c.5645-.263.612-1.0235.702-1.6397.2982-2.0416,2.0934-3.7676,4.1452-3.9851" style="fill:none;stroke:currentColor;stroke-miterlimit:10;stroke-width:1.5" />
  <path d="M80.0077,82.7426c.2158.1262.3881.3137.551.5033.8596,1.0008,1.5605,2.1614,1.885,3.4402s.2494,2.6833-.3577,3.8546" style="fill:none;stroke:currentColor;stroke-miterlimit:10;stroke-width:1.5" />
  <path d="M71.3237,90.6831c.7007,1.4431,2.0639,2.5477,3.6209,2.9341s3.2785.0472,4.5726-.9008" style="fill:none;stroke:currentColor;stroke-miterlimit:10;stroke-width:1.5" />
  <path d="M51.2399,76.6911l.8081-.7768c.8193-.7876,1.651-1.5845,2.6456-2.1344,2.2695-1.2548,5.0307-1.0576,7.6135-.8254" style="fill:none;stroke:currentColor;stroke-miterlimit:10;stroke-width:1.5" />
  <path d="M66.2394,74.2635c1.0473,1.3068,1.3876,3.0262,1.6954,4.6723.1647.8808.3293,1.7616.494,2.6424.1027.5494.2053,1.1167.0855,1.6626-.1766.805-.8022,1.4262-1.4228,1.9685-.7984.6975-1.7662,1.3864-2.8174,1.2482" style="fill:none;stroke:currentColor;stroke-miterlimit:10;stroke-width:1.5" />
  <path d="M60.5258,86.9644c-1.9451.829-4.2891.1802-5.9117-1.1756s-2.6316-3.3066-3.3769-5.2853" style="fill:none;stroke:currentColor;stroke-miterlimit:10;stroke-width:1.5" />
  <path d="M43.3624,77.0388c2.806,3.5992,4.0759,8.3572,3.4363,12.8759" style="fill:none;stroke:currentColor;stroke-miterlimit:10;stroke-width:1.5" />
  <path d="M44.1105,92.5392c-.8866,1.17-2.2569,1.9344-3.7021,2.1919s-2.9558.0279-4.3111-.5361c-.3812-.1586-.7543-.3448-1.0802-.5982-.4869-.3786-.8494-.8915-1.1925-1.4041-.5946-.8884-1.1539-1.8005-1.676-2.7333" style="fill:none;stroke:currentColor;stroke-miterlimit:10;stroke-width:1.5" />
  <path d="M30.9395,85.5588c-.087-1.2646-.1514-2.5509.1348-3.7857.2863-1.2349.9712-2.4309,2.0714-3.0605,1.1009-.6301,2.4766-.6295,3.5778-1.2591.3876-.2216.7299-.5155,1.1155-.7407.7349-.4292,1.6217-.5922,2.4612-.4522" style="fill:none;stroke:currentColor;stroke-miterlimit:10;stroke-width:1.5" />
  <path d="M28.1808,60.6642c-1.3183-.1798-2.6918-.355-3.9541.0656-.7844.2614-1.476.7382-2.1558,1.209-1.4507,1.0048-2.9014,2.0096-4.3521,3.0144-.7794.5398-1.6506,1.2639-1.5638,2.208" style="fill:none;stroke:currentColor;stroke-miterlimit:10;stroke-width:1.5" />
  <path d="M16.7508,70.6377c.3403,1.4748,1.2857,2.3264,2.7832,2.9616.0454,1.1798.0811.6257.1469.8938.3968,1.618,1.6555,2.9976,3.2305,3.5407s3.4165.2327,4.7263-.7968" style="fill:none;stroke:currentColor;stroke-miterlimit:10;stroke-width:1.5" />
  <path d="M30.7648,62.8072c.6154.8071,1.7336,1.0283,2.5226,1.6666,1.1455.9266,1.4145,2.5724,1.3024,4.0415-.1735,2.2745-1.0781,4.4877-2.5474,6.2326.0911.0963.1821.1926.2732.2889" style="fill:none;stroke:currentColor;stroke-miterlimit:10;stroke-width:1.5" />
  <path d="M44.3172,57.7781c.6929-1.6263,1.6872-3.277,3.3139-3.969,1.2649-.538,2.7318-.4014,4.0299.051.029.0101.058.0204.087.0307" style="fill:none;stroke:currentColor;stroke-miterlimit:10;stroke-width:1.5" />
  <path d="M53.8732,54.1458c1.2795,1.0205,1.6241,2.7943,2.4843,4.1866.8849-.3883.5829-1.7213,1.1935-2.3814.3677-.3975.9283-.5444,1.4617-.6375" style="fill:none;stroke:currentColor;stroke-miterlimit:10;stroke-width:1.5" />
  <path d="M62.2694,55.8888c.7321.2108,1.2127.8957,1.5973,1.5533.7947,1.3587,1.4568,2.8786,1.3555,4.4494" style="fill:none;stroke:currentColor;stroke-miterlimit:10;stroke-width:1.5" />
  <path d="M64.4705,64.8019c-.7843,1.792-2.5645,3.1082-4.5077,3.3326" style="fill:none;stroke:currentColor;stroke-miterlimit:10;stroke-width:1.5" />
  <path d="M50.7891,67.6229c.4606.2512,1.0356.2345,1.5234.0412s.8973-.5465,1.243-.9412c.4347-.4964.7832-1.0682,1.0252-1.682.0847-.2149.0891-.5993.3198-.6093.315-.0136.3641,1.13.557,1.2569.5445,1.0588.2513.6446.5445,1.3613.2723.6655.709,1.0674,1.4823,1.0285" style="fill:none;stroke:currentColor;stroke-miterlimit:10;stroke-width:1.5" />
  <path d="M45.0935,61.0637c.5216,2.1447,1.4294,4.3125,3.1694,5.6706" style="fill:none;stroke:currentColor;stroke-miterlimit:10;stroke-width:1.5" />
  <path d="M44.6757,36.8537l2.3108,3.0671c.1299.1724.4005.1291.4669-.0763.2469-.7631.5856-1.5119,1.2526-1.9261.4287-.2662.9443-.3567,1.4485-.3785,1.3586-.0588,2.8334.4678,3.6169,1.5287.1358.1838.4314.0993.4646-.1268.2641-1.799,1.1387-3.5074,2.4585-4.7601.4763-.452,1.0802-.868,1.7326-.7941" style="fill:none;stroke:currentColor;stroke-miterlimit:10;stroke-width:1.5" />
  <path d="M61.6784,33.2423c1.1378.1448,2.2333.6085,3.1292,1.3247,1.6244,1.2985,2.5012,3.3113,3.0921,5.3051" style="fill:none;stroke:currentColor;stroke-miterlimit:10;stroke-width:1.5" />
  <path d="M68.4177,42.8807c-.1134.7977-.0019,1.6077.0196,2.4131.0216.8054-.0607,1.6532-.5086,2.323-.2048.3063-.477.5609-.756.8015-.8879.7657-1.8719,1.4199-2.9216,1.9424" style="fill:none;stroke:currentColor;stroke-miterlimit:10;stroke-width:1.5" />
  <path d="M60.2909,50.8736c-2.1282-.3914-4.0138-1.915-4.8433-3.9136-.1668-.4018-.362-.883-.7885-.9683-.3742-.0748-.7148.2035-1.0216.4304-1.3177.9747-3.1254,1.2475-4.6721.705-.1733-.0608-.3595-.1319-.5352-.0785-.2694.0818-.3709.3999-.4581.6676-.3702,1.137-1.2034,2.1156-2.2668,2.6623" style="fill:none;stroke:currentColor;stroke-miterlimit:10;stroke-width:1.5" />
  <path d="M39.0093,45.8478c.3478,1.0812.7027,2.1775,1.3278,3.1257s1.5657,1.7462,2.6846,1.9414" style="fill:none;stroke:currentColor;stroke-miterlimit:10;stroke-width:1.5" />
  <path d="M38.6528,42.7927c-.0993-1.1275.019-2.3001.5328-3.3086s1.4638-1.8307,2.5814-2.0096" style="fill:none;stroke:currentColor;stroke-miterlimit:10;stroke-width:1.5" />
</svg>