<?xml version='1.0' encoding='utf-8'?>
<svg xmlns="http://www.w3.org/2000/svg" width="110" height="110" viewBox="0 0 110 110" fill="none" stroke="currentColor" stroke-width="1.5">
<path d="M68.8896 62.4549V55.4899C68.8896 51.5272 72.1457 48.3025 76.1698 48.3025L83.4499 48.3126M98 72.2504V55.4899C98 51.5171 94.7337 48.3025 90.7199 48.3025L83.4499 48.3126M83.4499 43.521V48.3126M78.5965 33.9479H88.2931M78.5965 38.7395H83.4499M70.2105 73.979V96.2084M70.2105 96.2084H50.807M70.2105 96.2084C72.883 96.2084 75.0639 98.3515 75.0639 101H45.9536C45.9536 98.3616 48.1243 96.2084 50.807 96.2084M50.807 96.2084V81.8336M50.807 81.8336L12 43.521M50.807 81.8336H65.3571M50.7968 19.5832C56.1519 19.5832 60.5036 23.8795 60.5036 29.1563V31.077H41.1001V29.1563C41.1001 23.8694 45.4518 19.5832 50.7968 19.5832ZM50.7968 19.5832L50.807 10M78.8627 29.1563H88.0269C90.8544 29.1563 93.1466 31.4192 93.1466 34.2107V38.4666C93.1466 41.258 90.8544 43.521 88.0269 43.521H78.8627C76.0352 43.521 73.7431 41.258 73.7431 38.4666V34.2107C73.7431 31.4192 76.0352 29.1563 78.8627 29.1563ZM46.0662 72.5537L16.833 43.2481L19.5873 40.5288C22.6284 37.5264 27.5535 37.5264 30.5946 40.5288L52.3327 62.4549H73.2004C74.4905 62.4549 75.7193 62.9603 76.6306 63.86L93.4333 80.4487C95.7166 82.703 95.7166 86.3522 93.4333 88.5964C91.1499 90.8507 87.4535 90.8507 85.1804 88.5964L70.3743 73.979H49.5271C48.2267 73.979 46.9877 73.4635 46.0662 72.5537Z" stroke="currentColor" stroke-width="1.5" stroke-miterlimit="10" stroke-linecap="round" fill="none" />
</svg>