<?xml version='1.0' encoding='utf-8'?>
<svg xmlns="http://www.w3.org/2000/svg" id="Layer_1" data-name="Layer 1" width="110" height="110" viewBox="0 0 110 110">
  <path d="M55.8124,18.5726h-.4135v23.21c5.8905.0012,11.2708-1.226,16.1409-3.68-.7374-2.8126-1.6831-5.4547-2.8396-7.9248-.1567-.3324-.3178-.6631-.4826-.9926-.4567-.9183-.9255-1.7776-1.4057-2.578-3.1433-5.1866-6.8099-7.865-10.9995-8.0347,8.5322.0888,15.9894,2.7673,22.3709,8.0347.2915.2419.5806.4903.8682.7446M28.5759,79.0792c-6.2526-6.8043-9.3814-14.9089-9.3862-24.3133v-.0133c-.0017-9.5312,3.2099-17.7319,9.6346-24.6023.3134-.3324.6352-.6631.9647-.993.9186-.9186,1.8604-1.7772,2.8255-2.5775,6.3815-5.2677,13.8387-7.9458,22.3709-8.0351h.4135v.0279M55.3989,41.7551c-5.8905.0004-11.2708-1.226-16.1409-3.68-1.3229,5.0142-1.9839,10.5735-1.9843,16.6775v.0133h18.1252v-12.9834M28.8243,30.1503c.3134.34.6352.6756.9647,1.0055.922.9215,1.8685,1.7808,2.8396,2.5775,2.0922,1.7271,4.3026,3.1744,6.6294,4.3418.7374-2.8133,1.6831-5.4547,2.8396-7.9248.1567-.3324.3178-.6631.4826-.993.4567-.9186.9255-1.7772,1.4057-2.5775,3.1433-5.1866,6.8099-7.865,10.9995-8.0351M82.9519,54.8213c.9308-1.5914,1.772-3.1942,2.5226-4.8102,1.1457-2.4714,2.0829-4.9701,2.8122-7.498.7987-2.8199,1.272-5.4341,1.419-7.8425.3537-5.7592-1.1715-10.34-4.576-13.7414-.3529-.3607-.7208-.7011-1.1024-1.0204,2.6559,3.4595,2.481,8.9356-.5242,16.4296-.1264.3335-.26.6691-.3994,1.0063-.9664,2.2666-2.1059,4.5365-3.4183,6.8087-1.1178,1.9464-2.3631,3.8944-3.7353,5.844M78.6101,33.3889c-.1458.1268-.2936.2507-.441.3719-2.0922,1.7271-4.3026,3.1744-6.6294,4.3418.5706,2.164,1.0209,4.4282,1.3503,6.7954M50.3819,90.657c1.4977.1862,3.0322.2875,4.6035.3033h.4135v.0275h.4135c8.5273-.0853,15.9798-2.7589,22.3568-8.0213.9712-.7976,1.9178-1.6569,2.8396-2.5775.3258-.3263.6428-.6575.951-.993,6.4275-6.8633,9.6434-15.0639,9.6483-24.6024v-.0133c.0004-1.3931-.0682-2.758-.2068-4.0939M58.5692,68.935h-.0141c-6.686,5.8117-13.3529,10.1306-19.9997,12.956-1.2684.5379-2.481.9978-3.6392,1.3782-.9162.3069-1.7986.5645-2.6462.7721-4.836,1.1751-8.5435.7704-11.123-1.2131.3052.382.6316.749.9789,1.1028,4.8349,4.8219,12.0389,5.865,21.6121,3.1283,7.3567-2.108,14.4598-5.9853,21.3093-11.6327.8875-.7273,1.7699-1.4856,2.6466-2.2743l4.2178,4.2316,5.8024-21.6808-21.6674,5.8165,5.0998,5.0994c-.8593.7955-1.7186,1.5676-2.5771,2.3158ZM39.9889,73.9795c-.2617-.825-.5051-1.6658-.7309-2.5226-1.3221-5.0158-1.9839-10.5791-1.9843-16.6909h-18.084" style="fill:none;fill-rule:evenodd;stroke:currentColor;stroke-linecap:round;stroke-linejoin:round;stroke-width:1.5" />
</svg>