<?xml version='1.0' encoding='utf-8'?>
<svg xmlns="http://www.w3.org/2000/svg" width="110" height="110" viewBox="0 0 110 110" fill="none" stroke="currentColor" stroke-width="1.5">
<path d="M80.5676 51.8073L81.4654 48.9068C81.6473 48.2757 82.0841 47.7417 82.6664 47.4383L82.9332 47.2927C83.4428 47.0135 84.0372 47.4868 83.8916 48.0572L83.3336 50.1932M86.8031 48.1422L87.7494 45.2659C87.9313 44.6348 88.3074 44.2465 88.8776 43.9431L89.1445 43.7974C89.654 43.5183 90.3212 43.846 90.1635 44.4043L89.7025 46.4189M74.5869 55.3147L75.5453 52.0015C75.7273 51.5525 76.164 51.0185 76.7463 50.7151L77.0132 50.5694C77.5227 50.2903 78.1171 50.7636 77.9715 51.334L77.3043 53.7248M68.3636 58.9676L69.5039 55.2904C69.6859 54.6593 70.1226 54.1253 70.7049 53.8219L70.9718 53.6763C71.4813 53.3972 72.0758 53.8705 71.9302 54.4409L71.178 57.3293M99.8321 59.8172L58.4762 72.9126M99.8321 59.8172L93.5117 42.5353C93.0265 41.2124 91.4858 40.6056 90.2363 41.261L68.8124 52.3777C64.1419 54.3316 62.1524 53.5549 59.3015 50.6908C56.4507 47.8267 55.6621 45.8363 57.6153 41.176L68.7275 19.7436C69.3826 18.4936 68.776 16.9523 67.4537 16.4668L50.1788 10.1439M99.8321 59.8172C100.257 60.9701 99.8685 62.2565 98.7524 62.7541C81.1499 70.6669 59.9445 80.388 45.6417 66.0794L44.0768 64.5139C29.774 50.2053 39.8551 28.1782 47.4007 11.3818M50.1788 10.1439C49.0263 9.71912 47.8981 10.2652 47.4007 11.3818M50.1788 10.1439L37.2468 51.2248M47.4007 11.3818L36.0944 36.2002C32.637 45.3873 29.6163 61.9531 38.5085 70.8368L39.1757 71.5043C48.0558 80.388 64.615 77.3782 73.7984 73.9194L98.7646 62.7663M32.8432 57.6934C29.9802 63.8707 24.9579 68.7251 20.4329 73.2398L13.3846 80.2909C8.87179 84.8055 8.87179 92.1115 13.3846 96.614C17.8975 101.129 25.2005 101.129 29.7012 96.614L36.7495 89.5629C41.2623 85.0482 46.0577 80.0189 52.2204 77.1548M66.1799 15.9935L50.846 41.9163C48.5896 46.2854 48.7352 51.2491 53.5513 56.0671L53.9152 56.4312C58.7313 61.2492 63.7052 61.3949 68.0603 59.1376L94.0091 43.8945M58.4523 29.052L61.012 28.4331C61.6429 28.251 62.1766 27.8141 62.4799 27.2316L62.6255 26.9646C62.9045 26.4549 62.4314 25.8602 61.8612 26.0058L60.0415 26.3578M62.1038 22.8868L64.6514 22.1587C65.2822 21.9766 65.816 21.5397 66.1193 20.9572L66.2649 20.6902C66.5439 20.1805 66.0708 19.5858 65.5006 19.7314L63.6566 20.2533M54.728 35.3507L57.9185 34.3555C58.3674 34.1735 58.9012 33.7366 59.2045 33.154L59.35 32.887C59.6291 32.3773 59.1559 31.7827 58.5858 31.9283L56.3415 32.6079M50.9795 41.6736L54.7402 40.5207C55.371 40.3386 55.9048 39.9017 56.208 39.3192L56.3536 39.0522C56.6326 38.5425 56.1595 37.9478 55.5893 38.0935L52.6657 38.8095M91.0612 55.6909C91.0612 57.3414 89.7268 58.6764 88.0769 58.6764C86.427 58.6764 85.0926 57.3414 85.0926 55.6909C85.0926 54.0404 86.427 52.7054 88.0769 52.7054C89.7268 52.7054 91.0612 54.0404 91.0612 55.6909ZM81.4775 59.7201C81.4775 61.0187 80.4342 62.0624 79.1362 62.0624C77.8381 62.0624 76.7948 61.0187 76.7948 59.7201C76.7948 58.4215 77.8381 57.3778 79.1362 57.3778C80.4342 57.3778 81.4775 58.4215 81.4775 59.7201ZM73.4951 63.9313C73.4951 65.2299 72.4518 66.2736 71.1538 66.2736C69.8557 66.2736 68.8124 65.2299 68.8124 63.9313C68.8124 62.6328 69.8557 61.5891 71.1538 61.5891C72.4518 61.5891 73.4951 62.6328 73.4951 63.9313ZM55.2375 65.1935C55.2375 66.4921 54.1942 67.5358 52.8962 67.5358C51.5981 67.5358 50.5549 66.4921 50.5549 65.1935C50.5549 63.8949 51.5981 62.8512 52.8962 62.8512C54.1942 62.8512 55.2375 63.8949 55.2375 65.1935ZM57.2149 21.8189C57.2149 23.4694 55.8805 24.8044 54.2306 24.8044C52.5808 24.8044 51.2463 23.4694 51.2463 21.8189C51.2463 20.1683 52.5808 18.8334 54.2306 18.8334C55.8805 18.8334 57.2149 20.1683 57.2149 21.8189ZM52.5444 30.7753C52.5444 32.0739 51.5011 33.1176 50.2031 33.1176C48.905 33.1176 47.8617 32.0739 47.8617 30.7753C47.8617 29.4768 48.905 28.4331 50.2031 28.4331C51.5011 28.4331 52.5444 29.4768 52.5444 30.7753ZM48.3348 38.7609C48.3348 40.0595 47.2915 41.1032 45.9935 41.1032C44.6955 41.1032 43.6522 40.0595 43.6522 38.7609C43.6522 37.4624 44.6955 36.4187 45.9935 36.4187C47.2915 36.4187 48.3348 37.4624 48.3348 38.7609ZM47.1338 57.0987C47.1338 58.3972 46.0906 59.441 44.7925 59.441C43.4945 59.441 42.4512 58.3972 42.4512 57.0987C42.4512 55.8001 43.4945 54.7564 44.7925 54.7564C46.0906 54.7564 47.1338 55.8001 47.1338 57.0987Z" stroke="currentColor" stroke-width="1.5" stroke-miterlimit="10" stroke-linecap="round" fill="none" />
</svg>