<?xml version='1.0' encoding='utf-8'?>
<svg xmlns="http://www.w3.org/2000/svg" id="Layer_1" data-name="Layer 1" width="110" height="110" viewBox="0 0 110 110">
  <g>
    <path d="M85.5815,25.5021c-11.5793-.0161-23.2372-7.7571-27.7122-11.0846-1.8028-1.3404-4.3141-1.3288-6.1061.0281-4.3829,3.3184-15.8207,11.0392-27.345,11.0565-2.7904.0041-5.0607,2.283-5.0607,5.0793v33.4964c0,1.071.3261,2.0917.9432,2.9512,10.5518,14.6972,27.0094,25.7344,31.8016,28.767.8253.5225,1.7718.784,2.7187.784.9422,0,1.8848-.259,2.7077-.777,4.8164-3.031,21.3684-14.0623,32.1404-28.7488.6367-.8682.9734-1.9029.9734-2.993V30.5814c0-2.7963-2.2701-5.0752-5.0609-5.0793h0Z" style="fill:none;stroke:currentColor;stroke-miterlimit:10;stroke-width:1.5" />
    <path d="M81.3984,29.3259c-10.1215-.014-20.3119-6.7515-24.2235-9.6477-1.5758-1.1666-3.771-1.1565-5.3374.0244-3.8311,2.8883-13.829,9.6082-23.9025,9.6233-2.4391.0036-4.4236,1.987-4.4236,4.4209v29.1543c0,.9322.285,1.8205.8245,2.5687,9.2234,12.792,23.6092,22.3984,27.7981,25.0379.7214.4548,1.5487.6824,2.3764.6824.8235,0,1.6475-.2254,2.3669-.6762,4.21-2.6381,18.6783-12.2394,28.0942-25.0221.5565-.7557.8508-1.6562.8508-2.605v-29.1399c0-2.4339-1.9843-4.4173-4.4238-4.4209h-.0001Z" style="fill:none;stroke:currentColor;stroke-miterlimit:10;stroke-width:1.5" />
    <path d="M36.5152,41.2128c-.1414.1435-.231.3197-.2688.5273-.0397.2089-.0599.3603-.0624.4541.0033,2.1638.7719,4.0104,2.3043,5.5391,1.4697,1.4694,3.233,2.234,5.2905,2.2928.0405.0018.0823.0018.1241,0,.0278.0006.0551.0006.0823,0,1.8593.0726,3.4576.724,4.7944,1.9537l7.4601,7.4492c1.1902,1.2992,1.8345,2.8461,1.9325,4.6399.0037.0509.0073.1024.0103.155-.0006.0309-.0006.0612,0,.0921-.0012.0417-.0012.0841,0,.1241.0551,2.0536.8167,3.8142,2.2831,5.2805,1.5323,1.5299,3.3819,2.2934,5.5494,2.2934.0933.0012.2446-.0164.4541-.0515.2077-.0387.3832-.1277.5273-.2682l.2888-.2894-4.2876-4.2876,1.4567-4.4432,4.4535-1.4676,4.2882,4.2877.2888-.2997c.1417-.1441.2313-.3197.2688-.5262.0394-.2071.0599-.3547.0624-.4444,0-2.1638-.7647-4.0103-2.294-5.539-1.3331-1.3307-2.9073-2.0845-4.7223-2.2619-.1895-.0151-.3826-.026-.5782-.0321-.0376-.0006-.0751-.0006-.1138,0-.0315-.0037-.0624-.0073-.0926-.0103-1.8593-.0696-3.4576-.7169-4.795-1.9416l-7.4601-7.4601c-1.2254-1.3343-1.8726-2.9284-1.9422-4.7847-.003-.0303-.0061-.0611-.0103-.0926.0006-.0412.0006-.083,0-.1235-.0557-2.0578-.8167-3.8214-2.2837-5.2908-1.5287-1.5257-3.3747-2.2879-5.5385-2.2837-.0939-.0048-.2452.0091-.4547.0418-.2071.0381-.3826.1272-.5267.2688l-.2997.2991,4.2882,4.2882-1.4573,4.4432-4.4429,1.4567-4.2776-4.278-.2994.2894h0ZM59.0024,49.656l7.1772-7.6258-.9094-.9106,1.7878-3.5429,3.5339-1.7782,1.8187,1.8084-1.7878,3.5448-3.5339,1.7872-.9094-.9087M52.055,61.7332l-8.8344,8.8653c-.4516.4298-.9581.7259-1.5187.8887-.3445.1017-.7099.1532-1.0952.1556-.4831-.0024-.9345-.0811-1.3534-.2379-.4592-.1725-.88-.442-1.2608-.8064l-.3923-.3821c-.4719-.4952-.7819-1.0565-.9299-1.6843-.0739-.2948-.112-.6048-.1138-.9299.0048-.3893.0596-.758.1653-1.1055.1595-.5539.4523-1.0541.8785-1.4978l8.865-8.8556" style="fill:none;stroke:currentColor;stroke-linecap:round;stroke-linejoin:round;stroke-width:1.5" />
  </g>
  <g>
    <path d="M85.5815,25.5021c-11.5793-.0161-23.2372-7.7571-27.7122-11.0846-1.8028-1.3404-4.3141-1.3288-6.1061.0281-4.3829,3.3184-15.8207,11.0392-27.345,11.0565-2.7904.0041-5.0607,2.283-5.0607,5.0793v33.4964c0,1.071.3261,2.0917.9432,2.9512,10.5518,14.6972,27.0094,25.7344,31.8016,28.767.8253.5225,1.7718.784,2.7187.784.9422,0,1.8848-.259,2.7077-.777,4.8164-3.031,21.3684-14.0623,32.1404-28.7488.6367-.8682.9734-1.9029.9734-2.993V30.5814c0-2.7963-2.2701-5.0752-5.0609-5.0793h0Z" style="fill:none;stroke:currentColor;stroke-miterlimit:10;stroke-width:1.5" />
    <path d="M36.5152,41.2128c-.1414.1435-.231.3197-.2688.5273-.0397.2089-.0599.3603-.0624.4541.0033,2.1638.7719,4.0104,2.3043,5.5391,1.4697,1.4694,3.233,2.234,5.2905,2.2928.0405.0018.0823.0018.1241,0,.0278.0006.0551.0006.0823,0,1.8593.0726,3.4576.724,4.7944,1.9537l7.4601,7.4492c1.1902,1.2992,1.8345,2.8461,1.9325,4.6399.0037.0509.0073.1024.0103.155-.0006.0309-.0006.0612,0,.0921-.0012.0417-.0012.0841,0,.1241.0551,2.0536.8167,3.8142,2.2831,5.2805,1.5323,1.5299,3.3819,2.2934,5.5494,2.2934.0933.0012.2446-.0164.4541-.0515.2077-.0387.3832-.1277.5273-.2682l.2888-.2894-4.2876-4.2876,1.4567-4.4432,4.4535-1.4676,4.2882,4.2877.2888-.2997c.1417-.1441.2313-.3197.2688-.5262.0394-.2071.0599-.3547.0624-.4444,0-2.1638-.7647-4.0103-2.294-5.539-1.3331-1.3307-2.9073-2.0845-4.7223-2.2619-.1895-.0151-.3826-.026-.5782-.0321-.0376-.0006-.0751-.0006-.1138,0-.0315-.0037-.0624-.0073-.0926-.0103-1.8593-.0696-3.4576-.7169-4.795-1.9416l-7.4601-7.4601c-1.2254-1.3343-1.8726-2.9284-1.9422-4.7847-.003-.0303-.0061-.0611-.0103-.0926.0006-.0412.0006-.083,0-.1235-.0557-2.0578-.8167-3.8214-2.2837-5.2908-1.5287-1.5257-3.3747-2.2879-5.5385-2.2837-.0939-.0048-.2452.0091-.4547.0418-.2071.0381-.3826.1272-.5267.2688l-.2997.2991,4.2882,4.2882-1.4573,4.4432-4.4429,1.4567-4.2776-4.278-.2994.2894h0ZM59.0024,49.656l7.1772-7.6258-.9094-.9106,1.7878-3.5429,3.5339-1.7782,1.8187,1.8084-1.7878,3.5448-3.5339,1.7872-.9094-.9087M52.055,61.7332l-8.8344,8.8653c-.4516.4298-.9581.7259-1.5187.8887-.3445.1017-.7099.1532-1.0952.1556-.4831-.0024-.9345-.0811-1.3534-.2379-.4592-.1725-.88-.442-1.2608-.8064l-.3923-.3821c-.4719-.4952-.7819-1.0565-.9299-1.6843-.0739-.2948-.112-.6048-.1138-.9299.0048-.3893.0596-.758.1653-1.1055.1595-.5539.4523-1.0541.8785-1.4978l8.865-8.8556" style="fill:none;stroke:currentColor;stroke-linecap:round;stroke-linejoin:round;stroke-width:1.5" />
  </g>
</svg>