<?xml version='1.0' encoding='utf-8'?>
<svg xmlns="http://www.w3.org/2000/svg" id="Layer_1" data-name="Layer 1" width="110" height="110" viewBox="0 0 110 110">
  <path d="M16.0378,15.7163h10.2849c2.1273,0,3.9637,1.4901,4.4019,3.5717l1.4683,6.9745h59.6678v11.1007l-8.4845,26.9507c-.5663,1.7988-2.2341,3.0222-4.1199,3.0222h-39.2929v9.7136h49.3813c1.2262,0,2.2201.994,2.2201,2.2201h0c0,1.2262-.994,2.2201-2.2201,2.2201h-51.1357c-1.6366,0-2.9634-1.3267-2.9634-2.9634v-15.0524l-9.1586-42.4849c.2384-.2384-6.2734-.2038-10.002-.1306-1.4296.0281-2.6054-1.1172-2.6187-2.5471h0c-.0133-1.4295,1.1419-2.5954,2.5714-2.5954Z" style="fill:none;stroke:currentColor;stroke-linecap:round;stroke-miterlimit:10;stroke-width:1.5" />
  <circle cx="42.3965" cy="91.6938" r="6.3276" style="fill:none;stroke:currentColor;stroke-miterlimit:10;stroke-width:1.5" />
  <circle cx="82.3603" cy="91.6938" r="6.3276" style="fill:none;stroke:currentColor;stroke-miterlimit:10;stroke-width:1.5" />
  <path d="M76.5968,43.4691c0-4.1384-3.3546-7.4935-7.493-7.4935-3.3083,0-6.0837,2.1584-7.077,5.1326-.9932-2.9742-3.7687-5.1326-7.077-5.1326-4.1384,0-7.4932,3.3551-7.4932,7.4935,0,1.6691.5643,3.1952,1.487,4.4408l-.0994-.0005.5667.5667c.1689.1868.3448.3627.5316.5319l11.9455,11.9452,11.1109-11.1112c2.1499-1.3171,3.5978-3.667,3.5978-6.3729Z" style="fill:none;stroke:currentColor;stroke-miterlimit:10;stroke-width:1.5" />
</svg>