<?xml version='1.0' encoding='utf-8'?>
<svg xmlns="http://www.w3.org/2000/svg" width="110" height="110" viewBox="0 0 110 110" fill="none" stroke="currentColor" stroke-width="1.5">
<path d="M44.92 55.2999L62.09 41.29C63.8 39.58 66.5799 39.58 68.2999 41.29C70.0099 43 70.0099 45.78 68.2999 47.5L54.31 64.6899M17.63 82.6399L45.33 54.9399C47.91 52.3599 52.08 52.3599 54.66 54.9399C57.24 57.5199 57.24 61.69 54.66 64.27L26.96 91.97M93.07 16.39L65.18 44.27M85.73 18.59L90.86 23.73M83.14 21.18L88.27 26.32M80.55 23.77L85.68 28.91M77.9599 26.36L83.09 31.5M75.36 28.95L80.5 34.09M72.77 31.55L77.91 36.68M70.18 34.1399L75.32 39.27M89.5 15.7V19.96H93.76M28.9 87.3C28.9 90.945 25.945 93.9 22.3 93.9C18.6549 93.9 15.7 90.945 15.7 87.3C15.7 83.6549 18.6549 80.7 22.3 80.7C25.945 80.7 28.9 83.6549 28.9 87.3ZM69.36 44.07C69.36 46.3233 67.5333 48.15 65.2799 48.15C63.0266 48.15 61.2 46.3233 61.2 44.07C61.2 41.8166 63.0266 39.99 65.2799 39.99C67.5333 39.99 69.36 41.8166 69.36 44.07Z" stroke="currentColor" stroke-width="1.5" stroke-miterlimit="10" stroke-linecap="round" fill="none" />
</svg>