<?xml version='1.0' encoding='utf-8'?>
<svg xmlns="http://www.w3.org/2000/svg" id="Layer_1" data-name="Layer 1" width="110" height="110" viewBox="0 0 110 110">
  <path d="M39.2255,64.261s3.0226-4.374,3.6439-9.4721c-2.2344-3.3145-3.5241-7.2722-3.4937-11.5186.0826-11.5477,9.8685-20.8394,21.8573-20.7536,11.9888.0858,21.6407,9.5166,21.5581,21.0643-.0826,11.5476-9.8685,20.8394-21.8573,20.7536-4.6686-.0335-8.979-1.4887-12.502-3.9295-4.538,3.6364-9.2063,3.8559-9.2063,3.8559Z" style="fill:none;stroke:currentColor;stroke-linecap:round;stroke-linejoin:round;stroke-width:1.5" />
  <g>
    <path d="M89.1327,40.2844c7.9277,0,14.3541,6.4264,14.3541,14.3538s-6.4264,14.3541-14.3541,14.3541v-28.708Z" style="fill:none;stroke:currentColor;stroke-linecap:round;stroke-linejoin:round;stroke-width:1.5" />
    <path d="M31.7167,40.2844c-7.9277,0-14.3541,6.4264-14.3541,14.3538s6.4264,14.3541,14.3541,14.3541v-28.708Z" style="fill:none;stroke:currentColor;stroke-linecap:round;stroke-linejoin:round;stroke-width:1.5" />
    <path d="M31.7167,40.2844c0-15.8552,12.8528-28.7083,28.708-28.7083s28.708,12.8531,28.708,28.7083" style="fill:none;stroke:currentColor;stroke-linecap:round;stroke-linejoin:round;stroke-width:1.5" />
    <path d="M67.429,90.6961c11.9864,0,21.7037-9.7169,21.7037-21.7037" style="fill:none;stroke:currentColor;stroke-linecap:round;stroke-linejoin:round;stroke-width:1.5" />
    <path d="M67.429,90.6961c0,3.8684-3.1359,7.0046-7.0043,7.0046s-7.0043-3.1362-7.0043-7.0046,3.1359-7.0043,7.0043-7.0043,7.0043,3.1362,7.0043,7.0043Z" style="fill:none;stroke:currentColor;stroke-linecap:round;stroke-linejoin:round;stroke-width:1.5" />
  </g>
  <path d="M46.7984,33.9916c-.1064.108-.1739.2406-.2023.3969-.0299.1572-.0451.2711-.0469.3417.0025,1.6286.581,3.0184,1.7343,4.169,1.1061,1.1059,2.4333,1.6814,3.9819,1.7257.0305.0014.062.0014.0934,0,.021.0004.0415.0004.062,0,1.3994.0546,2.6024.545,3.6085,1.4704l5.6148,5.6066c.8958.9779,1.3807,2.1421,1.4545,3.4922.0028.0383.0055.077.0077.1167-.0005.0232-.0005.0461,0,.0693-.0009.0314-.0009.0633,0,.0934.0415,1.5456.6147,2.8707,1.7183,3.9743,1.1533,1.1515,2.5454,1.7261,4.1767,1.7261.0702.0009.1841-.0123.3418-.0388.1563-.0292.2884-.0961.3969-.2019l.2173-.2178-3.2271-3.2271,1.0964-3.3442,3.3519-1.1046,3.2275,3.2271.2173-.2256c.1066-.1085.1741-.2406.2023-.396.0296-.1558.0451-.267.0469-.3345,0-1.6286-.5755-3.0183-1.7265-4.1689-1.0034-1.0016-2.1882-1.5689-3.5542-1.7024-.1426-.0114-.288-.0196-.4352-.0241-.0283-.0005-.0565-.0005-.0857,0-.0237-.0028-.0469-.0055-.0697-.0077-1.3994-.0524-2.6024-.5395-3.6089-1.4614l-5.6148-5.6148c-.9223-1.0043-1.4094-2.2041-1.4618-3.6012-.0023-.0228-.0046-.046-.0077-.0697.0005-.031.0005-.0624,0-.0929-.0419-1.5488-.6147-2.8762-1.7188-3.9821-1.1506-1.1483-2.5399-1.722-4.1685-1.7188-.0706-.0036-.1845.0069-.3422.0314-.1558.0287-.288.0957-.3964.2023l-.2256.2251,3.2275,3.2275-1.0968,3.3442-3.3439,1.0963-3.2195-3.2198-.2253.2178ZM63.7233,40.3463l5.4019-5.7395-.6844-.6854,1.3456-2.6666,2.6598-1.3383,1.3688,1.3611-1.3456,2.668-2.6598,1.3451-.6844-.684M58.4944,49.4361l-6.6492,6.6725c-.3399.3235-.7211.5464-1.1431.6689-.2593.0766-.5343.1153-.8243.1171-.3636-.0018-.7033-.061-1.0187-.1791-.3456-.1299-.6623-.3326-.9489-.6069l-.2953-.2876c-.3552-.3727-.5885-.7951-.6999-1.2677-.0556-.2219-.0843-.4552-.0857-.6999.0036-.293.0449-.5705.1244-.8321.1201-.4169.3404-.7933.6612-1.1273l6.6722-6.6651" style="fill:none;fill-rule:evenodd;stroke:currentColor;stroke-linecap:round;stroke-linejoin:round;stroke-width:1.5" />
</svg>