<?xml version='1.0' encoding='utf-8'?>
<svg xmlns="http://www.w3.org/2000/svg" width="110" height="110" viewBox="0 0 110 110" fill="none" stroke="currentColor" stroke-width="1.5">
<path d="M47.8057 59.3514L67.2358 39.4335L61.1386 33.2853M47.8057 59.3514L41.6979 53.1926M47.8057 59.3514L33.5258 76.4921C31.0572 79.4602 26.5667 79.651 23.8534 76.9161M61.1386 33.2853L47.6461 47.3413L41.6979 53.1926M61.1386 33.2853L63.9903 30.4868C65.6929 28.812 68.4382 28.8226 70.1301 30.5186C71.8113 32.2147 71.8007 34.9495 70.0981 36.635L67.2464 39.4335M41.6979 53.1926L24.3641 67.3017C21.3847 69.7291 21.1506 74.1919 23.8534 76.9161M23.8534 76.9161L21.8103 79.1634C18.4585 82.8523 18.7032 88.5447 22.353 91.9368C25.9921 95.3183 31.6743 95.1805 35.1432 91.6294L66.9804 59.0016C69.9066 56.0017 74.5992 55.6095 77.983 58.0688C82.0158 60.9945 82.6117 66.761 79.2811 70.4499L48.8698 100.417" stroke="currentColor" stroke-width="1.5" stroke-linecap="round" stroke-linejoin="round" fill="none" />
<path d="M82.22 27.0288L82.7566 27.5527L82.7571 27.5523L82.22 27.0288ZM89.94 19.1088L90.4771 19.6323L90.4779 19.6314L89.94 19.1088ZM90.15 9.93875L90.6868 9.41498L90.6865 9.41467L90.15 9.93875ZM80.96 9.93875L81.4969 10.4624L81.4976 10.4617L80.96 9.93875ZM73.03 18.0688L73.5666 18.5927L73.5669 18.5924L73.03 18.0688ZM73.07 21.0988L72.546 21.6354L72.5463 21.6356L73.07 21.0988ZM79.19 27.0688L79.714 26.5321L79.7137 26.5319L79.19 27.0688ZM76.25 14.6388C75.8358 14.6388 75.5 14.9745 75.5 15.3888C75.5 15.803 75.8358 16.1388 76.25 16.1388V14.6388ZM91.37 16.1388C91.7842 16.1388 92.12 15.803 92.12 15.3888C92.12 14.9745 91.7842 14.6388 91.37 14.6388V16.1388ZM78.79 12.1988C78.3758 12.1988 78.04 12.5345 78.04 12.9488C78.04 13.363 78.3758 13.6988 78.79 13.6988V12.1988ZM91.37 13.6988C91.7842 13.6988 92.12 13.363 92.12 12.9488C92.12 12.5345 91.7842 12.1988 91.37 12.1988V13.6988ZM80.8 9.75875C80.3858 9.75875 80.05 10.0945 80.05 10.5088C80.05 10.923 80.3858 11.2588 80.8 11.2588V9.75875ZM90.15 11.2588C90.5642 11.2588 90.9 10.923 90.9 10.5088C90.9 10.0945 90.5642 9.75875 90.15 9.75875V11.2588ZM73.9 17.0888C73.4858 17.0888 73.15 17.4245 73.15 17.8388C73.15 18.253 73.4858 18.5888 73.9 18.5888V17.0888ZM90.95 18.5888C91.3642 18.5888 91.7 18.253 91.7 17.8388C91.7 17.4245 91.3642 17.0888 90.95 17.0888V18.5888ZM73.51 19.5288C73.0958 19.5288 72.76 19.8645 72.76 20.2788C72.76 20.693 73.0958 21.0288 73.51 21.0288V19.5288ZM88.66 21.0288C89.0742 21.0288 89.41 20.693 89.41 20.2788C89.41 19.8645 89.0742 19.5288 88.66 19.5288V21.0288ZM75.4 21.9688C74.9858 21.9688 74.65 22.3045 74.65 22.7188C74.65 23.133 74.9858 23.4688 75.4 23.4688V21.9688ZM86.06 23.4688C86.4742 23.4688 86.81 23.133 86.81 22.7188C86.81 22.3045 86.4742 21.9688 86.06 21.9688V23.4688ZM77.24 24.4188C76.8258 24.4188 76.49 24.7545 76.49 25.1688C76.49 25.583 76.8258 25.9188 77.24 25.9188V24.4188ZM84.03 25.9188C84.4442 25.9188 84.78 25.583 84.78 25.1688C84.78 24.7545 84.4442 24.4188 84.03 24.4188V25.9188ZM76.13 24.0788L75.5941 23.554L69.4641 29.814L70 30.3388L70.5359 30.8635L76.6659 24.6035L76.13 24.0788ZM82.22 27.0288L82.7571 27.5523L90.4771 19.6323L89.94 19.1088L89.4029 18.5852L81.6829 26.5052L82.22 27.0288ZM89.94 19.1088L90.4779 19.6314C93.1284 16.9036 93.4124 12.2084 90.6868 9.41498L90.15 9.93875L89.6132 10.4625C91.7076 12.6091 91.5516 16.3739 89.4021 18.5861L89.94 19.1088ZM90.15 9.93875L90.6865 9.41467C87.8621 6.52329 83.2267 6.53324 80.4224 9.41576L80.96 9.93875L81.4976 10.4617C83.7133 8.18427 87.3779 8.17421 89.6135 10.4628L90.15 9.93875ZM80.96 9.93875L80.4231 9.41507L72.4931 17.5451L73.03 18.0688L73.5669 18.5924L81.4969 10.4624L80.96 9.93875ZM73.03 18.0688L72.4934 17.5448C71.3722 18.6929 71.4015 20.5177 72.546 21.6354L73.07 21.0988L73.594 20.5621C73.0385 20.0198 73.0278 19.1446 73.5666 18.5927L73.03 18.0688ZM73.07 21.0988L72.5463 21.6356L78.6663 27.6056L79.19 27.0688L79.7137 26.5319L73.5937 20.5619L73.07 21.0988ZM79.19 27.0688L78.666 27.6054C79.8142 28.7265 81.639 28.6973 82.7566 27.5527L82.22 27.0288L81.6834 26.5048C81.141 27.0602 80.2658 27.071 79.714 26.5321L79.19 27.0688ZM76.25 15.3888V16.1388H91.37V15.3888V14.6388H76.25V15.3888ZM78.79 12.9488V13.6988H91.37V12.9488V12.1988H78.79V12.9488ZM80.8 10.5088V11.2588H90.15V10.5088V9.75875H80.8V10.5088ZM73.9 17.8388V18.5888H90.95V17.8388V17.0888H73.9V17.8388ZM73.51 20.2788V21.0288H88.66V20.2788V19.5288H73.51V20.2788ZM75.4 22.7188V23.4688H86.06V22.7188V21.9688H75.4V22.7188ZM77.24 25.1688V25.9188H84.03V25.1688V24.4188H77.24V25.1688Z" fill="none" stroke="currentColor" stroke-width="1.5" />
</svg>