<?xml version='1.0' encoding='utf-8'?>
<svg xmlns="http://www.w3.org/2000/svg" id="Layer_1" data-name="Layer 1" width="110" height="110" viewBox="0 0 110 110">
  <path d="M32.3573,32.4769l4.422-13.6099,4.4221,13.6099h14.3104l-11.5773,8.4114,4.4221,13.6099-11.5773-8.4115-11.5772,8.4115,4.422-13.6099-11.5772-8.4114h14.3104Z" style="fill:none;stroke:currentColor;stroke-linecap:round;stroke-linejoin:round;stroke-width:1.5" />
  <path d="M66.2564,37.8207c0-14.6739-12.9547-26.5694-28.9352-26.5694s-28.9352,11.8955-28.9352,26.5694,12.9547,26.5693,28.9352,26.5693c2.6918,0,5.2944-.3447,7.767-.9762l11.1753,8.6518v-14.1697c6.1179-4.8716,9.9929-12.0556,9.9929-20.0752Z" style="fill:none;stroke:currentColor;stroke-linecap:round;stroke-linejoin:round;stroke-width:1.5" />
  <path d="M71.0914,36.1843c.9647-.0892,1.9433-.1349,2.9336-.1349,15.9805,0,28.9352,11.8955,28.9352,26.5694s-12.9547,26.5693-28.9352,26.5693c-2.6918,0-5.2944-.3447-7.767-.9762l-11.1753,8.6518v-14.1697c-4.5426-3.6172-7.8487-8.5094-9.25-14.0718" style="fill:none;stroke:currentColor;stroke-linecap:round;stroke-linejoin:round;stroke-width:1.5" />
  <g>
    <g>
      <path d="M61.7021,56.4911h.518l1.0054,3.2206c.1653.5341.3853,1.2489.5267,1.7281h.0153c.1414-.4636.3613-1.1705.542-1.7439l1.0136-3.2048h.3532l1.037,3.2834c.1572.4948.369,1.1782.5185,1.6653h.0153c.1495-.5027.3537-1.1705.5027-1.6497l1.0294-3.299h.4869l-1.7832,5.687h-.4946l-1.037-3.2834c-.1337-.4241-.3297-1.0603-.4476-1.453h-.0158c-.1179.4006-.3144,1.0368-.4399,1.4295l-1.0447,3.3069h-.5104l-1.7909-5.687h0Z" style="fill:currentColor" />
      <path d="M70.1034,56.4911h.4792v2.5135h3.4404v-2.5135h.4792v5.687h-.4792v-2.7335h-3.4404v2.7335h-.4792v-5.687Z" style="fill:currentColor"/>
      <path d="M77.6574,56.4911h.4557l2.3798,5.687h-.5185l-.6992-1.6967h-2.7881l-.6992,1.6967h-.495s2.3645-5.687,2.3645-5.687ZM78.5215,58.6356c-.2123-.5185-.4241-1.0447-.6283-1.5632h-.0158c-.1965.4948-.393.9819-.6283,1.5553l-.5813,1.414h2.4268l-.5732-1.406h0Z" style="fill:currentColor"/>
      <path d="M81.991,56.931h-1.9557v-.4399h4.3907v.4399h-1.9557v5.247h-.4792v-5.247h0Z" style="fill:currentColor"/>
      <path d="M85.186,61.2433c.5027.4006,1.1549.5734,1.6811.5734.762,0,1.3193-.3692,1.3193-1.1075,0-.8406-.7303-1.0212-1.4688-1.2254-.8166-.2279-1.6179-.5262-1.6179-1.5553,0-.974.7069-1.5237,1.7358-1.5237.5343,0,1.1549.1493,1.5949.4476v.5185c-.4792-.3455-1.0922-.5185-1.6025-.5185-.7385,0-1.2489.3534-1.2489,1.0447,0,.8092.7145.974,1.4214,1.1705.8094.2276,1.6653.5262,1.6653,1.6181,0,.9975-.7303,1.5788-1.7985,1.5788-.5655,0-1.2177-.1651-1.6811-.4792v-.542h0Z" style="fill:currentColor" />
      <path d="M65.5742,68.6977c-.5305-.7109-1.027-1.3993-1.5345-2.1103l-.0225.0113c.011.7787.0225,1.5685.0225,2.3585v3.0354h-1.7266v-8.1698h1.6926l2.4488,3.2951c.5305.7107,1.027,1.3991,1.5345,2.11l.0225-.0113c-.011-.7787-.0225-1.5685-.0225-2.3585v-3.0354h1.7266v8.1698h-1.6926l-2.4488-3.2949h0Z" style="fill:currentColor" />
      <path d="M71.207,63.8228h5.0443v1.5685h-3.2501v1.6023h2.7987v1.4897h-2.7987v1.9409h3.3742v1.5685h-5.1684v-8.1698h0Z" style="fill:currentColor"/>
      <path d="M76.8729,63.8228h1.8843l1.038,3.5094c.2032.6884.4064,1.4219.5871,2.1103h.0225c.1917-.6997.4064-1.4331.6206-2.1215l1.0835-3.4981h1.3088l1.072,3.4981c.2142.6997.4289,1.4219.6206,2.1215h.0225c.1807-.6884.3949-1.4444.6096-2.1441l1.0495-3.4756h1.8052l-2.5164,8.1698h-1.8958l-.8799-2.8775c-.2147-.6884-.3954-1.2977-.5755-1.9521h-.0225c-.1807.6544-.3724,1.2977-.5871,1.9859l-.8803,2.8437h-1.8728s-2.4939-8.1698-2.4939-8.1698Z" style="fill:currentColor" />
    </g>
    <path d="M91.7284,64.1563c2.8265,0,4.9686-1.3251,4.9686-3.6876,0-2.0094-1.568-3.489-3.6435-3.489-.9493,0-1.9873.3091-2.8485.8612l-.1327-1.3248c.795-.4636,1.9212-.795,3.0474-.795,2.8044,0,4.9245,2.0537,4.9245,4.6813,0,2.694-2.1862,4.5488-4.8584,4.7918l.1768,2.6058h-1.2144l-.4198-3.6435v-.0002ZM93.0755,70.0299c.5962,0,1.0821.4859,1.0821,1.0821s-.4859,1.0821-1.0821,1.0821-1.0821-.4859-1.0821-1.0821.4859-1.0821,1.0821-1.0821Z" style="fill:currentColor"/>
  </g>
</svg>