<?xml version='1.0' encoding='utf-8'?>
<svg xmlns="http://www.w3.org/2000/svg" id="Layer_1" data-name="Layer 1" width="110" height="110" viewBox="0 0 110 110">
  <circle cx="57.3156" cy="57.508" r="6.5921" style="fill:none;stroke:currentColor;stroke-linecap:round;stroke-linejoin:round;stroke-width:1.5" />
  <path d="M67.6189,44.6415l2.4067-4.6925c.4154-.8099.0956-1.8031-.7143-2.2185l-2.9328-1.5042c-.8099-.4154-1.8031-.0956-2.2185.7143l-2.4067,4.6925c-2.0725-.5814-4.2011-.7285-6.2598-.5064l-1.6164-5.0202c-.2789-.8664-1.2074-1.3426-2.0738-1.0636l-3.1188,1.0042c-.8664.2789-1.3426,1.2074-1.0636,2.0738l1.6164,5.0202c-1.8015,1.0208-3.4444,2.3822-4.7883,4.0636l-4.6925-2.4067c-.8099-.4154-1.8031-.0956-2.2185.7143l-1.5042,2.9328c-.4154.8099-.0956,1.8031.7143,2.2185l4.6925,2.4067c-.5814,2.0725-.7285,4.2011-.5064,6.2598l-5.0202,1.6164c-.8664.2789-1.3426,1.2074-1.0636,2.0738l1.0042,3.1188c.2789.8664,1.2074,1.3426,2.0738,1.0636l5.0202-1.6164c1.0208,1.8015,2.3822,3.4444,4.0636,4.7883l-2.4067,4.6925c-.4154.8099-.0956,1.8031.7143,2.2185l2.9328,1.5042c.8099.4154,1.8031.0956,2.2185-.7143l2.4067-4.6925c2.0725.5814,4.2011.7285,6.2598.5064l1.6164,5.0202c.2789.8664,1.2074,1.3426,2.0738,1.0636l3.1188-1.0042c.8664-.2789,1.3426-1.2074,1.0636-2.0738l-1.6164-5.0202c1.8015-1.0208,3.4444-2.3822,4.7883-4.0636l4.6925,2.4067c.8099.4154,1.8031.0956,2.2185-.7143l1.5042-2.9328c.4154-.8099.0956-1.8031-.7143-2.2185l-4.6925-2.4067c.5814-2.0725.7285-4.2011.5064-6.2598l5.0202-1.6164c.8664-.2789,1.3426-1.2074,1.0636-2.0738l-1.0042-3.1188c-.2789-.8664-1.2074-1.3426-2.0738-1.0636l-5.0202,1.6164c-1.0208-1.8015-2.3822-3.4444-4.0636-4.7883Z" style="fill:none;stroke:currentColor;stroke-linecap:round;stroke-linejoin:round;stroke-width:1.5" />
  <g>
    <path d="M13.1509,54.2671c1.1546-26.5095,26.8924-47.3216,54.6586-39.8816" style="fill:none;stroke:currentColor;stroke-linecap:round;stroke-linejoin:round;stroke-width:1.5" />
    <path d="M79.5715,93.1911c-23.8329,15.0345-57.1676,3.3584-64.9356-25.6322" style="fill:none;stroke:currentColor;stroke-linecap:round;stroke-linejoin:round;stroke-width:1.5" />
    <path d="M79.567,19.4341c22.7993,14.0848,28.1807,47.1121,7.7052,67.5876" style="fill:none;stroke:currentColor;stroke-linecap:round;stroke-linejoin:round;stroke-width:1.5" />
    <polyline points="63.5887 7.744 67.8094 14.3855 60.5547 18.4639" style="fill:none;stroke:currentColor;stroke-linecap:round;stroke-linejoin:round;stroke-width:1.5" />
    <polyline points="95.1385 86.8094 87.2722 87.0217 87.4966 78.7022" style="fill:none;stroke:currentColor;stroke-linecap:round;stroke-linejoin:round;stroke-width:1.5" />
    <polyline points="10.8867 74.4774 14.6359 67.5589 21.7286 71.913" style="fill:none;stroke:currentColor;stroke-linecap:round;stroke-linejoin:round;stroke-width:1.5" />
  </g>
</svg>