<?xml version='1.0' encoding='utf-8'?>
<svg xmlns="http://www.w3.org/2000/svg" width="110" height="110" viewBox="0 0 110 110" fill="none" stroke="currentColor" stroke-width="1.5">
<path d="M90.1791 44.0518L95.5583 52.9321C95.9127 53.5095 96.6737 53.6879 97.2367 53.31C97.7579 52.9636 97.9247 52.2603 97.612 51.7145L96.9031 50.4549M92.3162 42.3723L96.9031 50.4549M96.9031 50.4549C97.2158 51.0427 97.9352 51.2526 98.5085 50.9272C99.0506 50.6123 99.2487 49.9195 98.9568 49.3632L94.3386 40.4619M85.8134 14.7129L100.176 46.76C100.416 47.2848 100.218 47.9146 99.7178 48.1981C99.1653 48.5235 98.4097 48.313 98.1178 47.7461M74.4394 19.5482L80.4631 32.2114L76.1368 44.4717C75.4905 46.3086 78.1801 47.3793 78.9307 45.5844C78.9619 45.5109 78.9932 45.4374 79.0141 45.3534C79.2851 44.5871 79.4728 44.0413 79.6083 43.6424C80.7654 40.3569 84.5705 40.9133 86.4574 43.4325L93.2336 53.5305C93.5776 54.0448 94.276 54.2023 94.7973 53.8664C95.3394 53.5305 95.4844 52.8225 95.1612 52.2767M11.4606 45.1493C11.7316 42.2627 13.4731 38.7509 16.3504 35.077C18.967 31.739 22.2409 29.1232 24.8054 28M13.937 47.1589C14.208 44.2722 15.9542 40.5039 18.8315 36.83C21.4481 33.492 24.5218 30.9762 27.0863 29.853M16.2495 49.0354C16.5206 46.1488 18.2581 42.4353 21.1354 38.7614C23.752 35.4234 26.883 32.8944 29.4475 31.7712M31.5915 33.513C29.0165 34.6466 26.035 37.0924 23.4184 40.4304C20.5307 44.1148 18.7898 47.9986 18.5187 50.8853M31.5915 33.513L22.4176 26.0602M31.5915 33.513L32.3733 33.2086C41.8704 29.3772 28.2854 20.8079 23 25.5L22.4176 26.0602M18.5187 50.8853L9.34486 43.4325M18.5187 50.8853C17.028 61.0777 6.04019 49.6991 9.34486 43.4325M9.34486 43.4325C9.61591 40.5459 11.3569 36.6515 14.2341 32.9776C16.8507 29.6396 19.8531 27.1834 22.4176 26.0602M58.7482 31.6445L56.6736 26.0497L61.688 24.1288M58.7482 31.6445L61.688 24.1288M58.7482 31.6445L47.4477 35.1715L40.0043 15.7838L56.5068 10.7348L61.688 24.1288M86.1551 76.3191V80.098C86.1551 85.9972 81.3909 90.7943 75.5322 90.7943H38.1278C32.2691 90.7943 27.5049 85.9972 27.5049 80.098V76.3191M30.7042 87.7429L31.9146 99.2653M82.9633 87.7355L81.7454 99.2653M75.5322 86.7635H38.1278C32.2691 86.7635 27.5049 81.9664 27.5049 76.0672V72.2883C27.5049 66.3891 32.2691 61.592 38.1278 61.592H75.5322C81.3909 61.592 86.1551 66.3891 86.1551 72.2883V76.0672C86.1551 81.9664 81.3909 86.7635 75.5322 86.7635ZM38.1278 65.2659C34.2811 65.2659 31.1536 68.415 31.1536 72.2883V76.0672C31.1536 79.9405 34.2811 83.0896 38.1278 83.0896H75.5322C79.3789 83.0896 82.5064 79.9405 82.5064 76.0672V72.2883C82.5064 68.415 79.3789 65.2659 75.5322 65.2659H38.1278ZM86.301 17.1379C86.301 20.5699 83.538 23.352 80.1295 23.352C76.7211 23.352 73.958 20.5699 73.958 17.1379C73.958 13.7059 76.7211 10.9237 80.1295 10.9237C83.538 10.9237 86.301 13.7059 86.301 17.1379Z" stroke="currentColor" stroke-width="1.5" stroke-linecap="round" stroke-linejoin="round" fill="none" />
<path d="M53.9519 36.9559C55.8909 42.6557 57.8299 66.767 57.8299 75.7208" stroke="currentColor" stroke-width="1.5" stroke-linecap="round" stroke-linejoin="round" stroke-dasharray="2.1 3.5" fill="none" />
<path d="M54.1084 75.5633L57.6737 79.3107L61.0722 75.0804" stroke="currentColor" stroke-width="1.5" stroke-linecap="round" stroke-linejoin="round" fill="none" />
<path d="M24.5017 40.2205C34.8536 46.2457 47.4781 66.7775 47.4781 75.7313" stroke="currentColor" stroke-width="1.5" stroke-linecap="round" stroke-linejoin="round" stroke-dasharray="2.1 3.5" fill="none" />
<path d="M43.7563 75.5633L47.3112 79.3107L50.7097 75.0804" stroke="currentColor" stroke-width="1.5" stroke-linecap="round" stroke-linejoin="round" fill="none" />
<path d="M83.3602 46.8754C75.3748 55.6088 68.1816 68.9713 68.1816 75.7313" stroke="currentColor" stroke-width="1.5" stroke-linecap="round" stroke-linejoin="round" stroke-dasharray="2.1 3.5" fill="none" />
<path d="M71.9036 75.5633L68.3487 79.3107L64.9502 75.0804" stroke="currentColor" stroke-width="1.5" stroke-linecap="round" stroke-linejoin="round" fill="none" />
</svg>