<?xml version='1.0' encoding='utf-8'?>
<svg xmlns="http://www.w3.org/2000/svg" width="110" height="110" viewBox="0 0 110 110" fill="none" stroke="currentColor" stroke-width="1.5">
<g clip-path="url(#clip0_1676_7)">
<path d="M81.1585 53.9787C81.1514 53.8198 81.1299 53.668 81.1156 53.5163C80.444 46.1035 74.1631 40.2801 66.7532 40.2656C62.0229 40.2656 57.8214 42.556 55.1776 46.1035C52.5409 42.556 48.3394 40.2584 43.6091 40.2656C36.1992 40.2729 29.9183 46.1035 29.2467 53.5163C29.2324 53.668 29.2181 53.827 29.2109 53.9787C29.0252 57.1433 29.8397 60.1055 31.3546 62.5693C35.3989 69.1296 37.3068 76.8025 36.335 84.4755L35.7419 89.114C35.2989 92.5892 39.4575 94.6556 41.9084 92.1774L49.5184 79.1651C52.0693 74.8084 58.3002 74.8084 60.8511 79.1651L68.461 92.1774C70.9119 94.6556 75.0706 92.5892 74.6276 89.114L74.0345 84.4755C73.0556 76.8098 74.9705 69.1368 79.0149 62.5693C80.5369 60.0983 81.3443 57.1433 81.1585 53.9787Z" stroke="currentColor" stroke-width="1.5" stroke-linecap="round" stroke-linejoin="round" fill="none" />
<path d="M60.3125 32.0275C74.6163 38.4572 85.7653 46.5223 89.5006 52.5689M51.0788 28.2997C35.7052 22.8039 22.9831 21.8872 20.8492 26.6343C18.9071 30.9548 26.2962 38.7209 38.4327 45.9999M49.4999 51.8467C50.0217 52.0896 50.5481 52.3304 51.0788 52.5689C65.8624 59.2144 79.7156 62.1798 86.4999 60.6263" stroke="currentColor" stroke-width="1.5" stroke-linecap="round" stroke-linejoin="round" fill="none" />
<path d="M57.4422 53.1991C57.8411 53.0539 58.2409 52.9061 58.6414 52.7558C78.397 45.3441 92.641 34.6154 90.4565 28.7926C89.7233 26.8383 87.2326 25.685 83.4999 25.2954M51.373 55.2398C34.6948 60.3781 20.8277 60.7298 18.9154 55.6327C16.7309 49.8099 30.975 39.0812 50.7305 31.6695C56.4262 29.5327 61.9583 27.9048 66.9999 26.8096" stroke="currentColor" stroke-width="1.5" stroke-linecap="round" stroke-linejoin="round" fill="none" />
<path d="M80.4228 28.4968C78.6536 26.4785 78.2926 23.5741 79.4968 21.1903C77.4785 22.9595 74.5742 23.3204 72.1903 22.1163C73.9595 24.1346 74.3205 27.0389 73.1163 29.4228C75.1346 27.6535 78.0389 27.2926 80.4228 28.4968Z" stroke="currentColor" stroke-width="1.5" stroke-miterlimit="10" fill="none" />
<path d="M47 48.5C45.2292 48.1563 43.8418 46.7621 43.5 45C43.1563 46.7708 41.7621 48.1582 40 48.5C41.7708 48.8437 43.1582 50.2379 43.5 52C43.8437 50.2292 45.2379 48.8418 47 48.5Z" stroke="currentColor" stroke-width="1.5" stroke-miterlimit="10" fill="none" />
<path d="M93.8184 61.1221C92.903 59.5679 93.0284 57.6049 94.122 56.1817C92.5678 57.0971 90.6049 56.9717 89.1816 55.878C90.0971 57.4323 89.9716 59.3952 88.878 60.8185C90.4322 59.903 92.3952 60.0285 93.8184 61.1221Z" stroke="currentColor" stroke-width="1.5" stroke-miterlimit="10" fill="none" />
</g>
<defs>
<clipPath id="clip0_1676_7">
<rect width="110" height="110" fill="none" stroke="currentColor" stroke-width="1.5" />
</clipPath>
</defs>
</svg>