<?xml version='1.0' encoding='utf-8'?>
<svg xmlns="http://www.w3.org/2000/svg" width="110" height="110" viewBox="0 0 110 110" fill="none" stroke="currentColor" stroke-width="1.5">
<path d="M81.9402 72.3642C82.3961 75.0207 82.5589 77.4502 82.5589 79.6947C82.5589 83.7467 81.2644 85.2514 77.0554 86.4704C72.0728 87.9163 63.6546 88.9167 54.1048 88.9167C44.555 88.9167 36.1449 87.9163 31.1543 86.4704C26.9452 85.2514 25.6507 83.7467 25.6507 79.6947C25.6507 77.4502 25.8135 75.0123 26.2694 72.3642M32.7337 68.3796C32.5953 69.4052 32.5667 71.2575 32.7133 72.9388M32.7337 68.3796C32.7637 68.1727 32.8523 67.9499 32.9824 67.7269M32.7337 68.3796C32.5929 69.4082 32.5638 71.2584 32.7133 72.9388M32.7337 68.3796C32.7625 68.1697 32.8515 67.9481 32.9824 67.7269M32.7133 72.9388C32.2085 74.1746 30.4378 76.6347 29.6237 76.2817C29.1189 76.0631 28.6793 74.8358 28.378 73.8018C27.7919 71.8094 27.7593 66.7991 28.0768 65.8744C28.2885 65.2607 28.9154 65.0254 30.3075 65.286C31.602 65.5298 32.6441 66.5469 33.271 67.3119C33.1614 67.4478 33.0638 67.5874 32.9824 67.7269M32.7133 72.9388C32.7886 73.7854 32.9092 74.5888 33.0838 75.2225C33.4827 76.66 34.248 77.8957 34.9888 77.9546C36.1693 78.047 37.5452 75.9202 38.2373 74.2641C38.4546 73.7489 38.5843 73.0939 38.6659 72.4212M32.9824 67.7269C33.4804 66.8849 34.5839 66.0475 35.2738 65.8744C36.1449 65.6558 37.2033 66.4376 38.2861 67.6062C38.5711 67.9172 38.6932 68.388 38.742 68.8755M38.6659 72.4212C38.6669 72.4134 38.6678 72.4056 38.6687 72.3979C38.6525 71.221 38.685 69.9348 38.742 68.8755M38.6659 72.4212C38.6518 71.2369 38.684 69.9436 38.742 68.8755M38.6659 72.4212C38.6756 73.2316 38.7069 73.9909 38.7664 74.592C38.8479 75.4747 39.3363 78.232 41.9172 78.3749C44.498 78.5178 45.5726 75.3233 45.711 74.0792C45.8576 72.8434 45.8983 70.187 45.8983 69.2454C45.8983 68.3039 45.7192 67.5137 44.5468 67.3708C43.3093 67.2195 41.4368 67.1018 40.4191 67.1018C39.3445 67.1018 38.8153 67.4633 38.742 68.8755M75.3131 68.4804C75.3131 68.2442 75.2204 67.988 75.0676 67.7312M75.3131 68.4804C75.3131 69.0746 75.3603 70.5867 75.2438 72.1621M75.3131 68.4804C75.3131 68.245 75.2223 67.9918 75.0676 67.7312M75.3131 68.4804V68.9092C75.3212 69.6405 75.3334 70.8843 75.2438 72.1621M75.0676 67.7312C74.5622 66.882 73.3986 66.0254 72.7486 65.8576C71.8937 65.639 70.9656 66.7991 69.9072 67.9676C69.5135 68.3964 69.2457 68.3701 69.2753 68.8776M75.0676 67.7312C75.7433 66.7728 76.8437 65.3364 77.7229 65.286C78.8627 65.2103 79.4978 65.286 79.9293 66.1602C80.3526 67.0345 80.0025 72.7762 79.6443 73.8018C79.5792 73.9951 79.5141 74.2053 79.4408 74.4154L79.436 74.4303C79.1443 75.3422 78.8361 76.3059 78.4312 76.1304C78.122 75.9993 77.1792 74.7277 76.3931 73.6673L76.3308 73.5832C75.8667 72.9611 75.4759 72.4315 75.3131 72.2718C75.2887 72.2466 75.2682 72.2125 75.2438 72.1621M69.2753 68.8776C69.2793 68.9457 69.2886 69.0233 69.3037 69.1129M69.2753 68.8776C69.1271 67.8228 68.7356 67.1018 68.3441 67.1018H63.8663C62.8649 67.1018 62.4416 68.0349 62.4416 68.9848C62.4416 69.9348 62.3032 72.8434 62.4416 74.0792C62.5881 75.3233 63.6546 78.5178 66.211 78.3749C68.7674 78.232 69.3373 75.172 69.3373 74.592V69.7918C69.3373 69.5558 69.3255 69.3285 69.3037 69.1129M69.2753 68.8776C69.2861 68.9543 69.2956 69.0328 69.3037 69.1129M69.3037 69.1129C69.304 69.1151 69.3044 69.1172 69.3048 69.1193C69.435 69.8843 69.3373 72.9107 69.9072 74.1548C70.4771 75.3906 72.1787 78.0807 73.0335 77.9378C73.8884 77.7948 73.8884 77.425 74.6699 75.3149C74.995 74.4374 75.1609 73.2837 75.2438 72.1621M54.1637 71.2937C54.2278 73.1168 54.3955 75.1418 54.5119 75.8361C54.6584 76.702 55.9203 78.8877 58.1104 78.8877C60.3004 78.8877 61.5623 76.7104 61.7089 75.8361C61.8635 74.9619 62.0834 71.9859 62.0834 69.9432C62.0834 67.9004 60.7237 67.623 58.1185 67.623C55.6009 67.623 54.2232 67.8916 54.1413 69.7612M54.1637 71.2937C54.147 70.821 54.1374 70.362 54.1374 69.9432C54.1374 69.8809 54.1387 69.8203 54.1413 69.7612M54.1637 71.2937C54.1659 72.8695 54.0941 74.6084 53.771 75.8529C53.3802 77.3913 51.8741 78.8793 50.0748 78.8793C48.2756 78.8793 46.7776 77.3913 46.3786 75.8529C45.9553 74.2221 45.9634 71.7422 46.0041 69.8927C46.0367 68.6402 46.2728 67.8163 47.3149 67.7323C48.2674 67.6482 49.1874 67.6146 50.0748 67.6146C50.9622 67.6146 51.8822 67.6566 52.8347 67.7323C53.8399 67.8133 54.0952 68.5827 54.1413 69.7612M54.1637 71.2937C54.163 70.8044 54.1552 70.3309 54.1455 69.8927C54.1444 69.8483 54.1429 69.8045 54.1413 69.7612M21.6398 44.6409C21.1056 42.1666 20.9165 39.8929 20.9083 37.7947C20.9083 34.0163 22.4371 32.612 27.4015 31.4668C33.2946 30.1126 43.2233 29.5776 54.5 29.5776C65.7767 29.5776 75.7054 30.1126 81.5985 31.4668C86.5711 32.612 88.0917 34.008 88.0917 37.7947C88.0917 39.8929 87.9026 42.1582 87.3602 44.6409M42.9357 47.2657C43.1411 44.9502 45.311 40.7121 48.1466 40.5533C50.8178 40.4028 53.5795 44.131 54.1137 46.9063C54.3305 48.0381 54.4626 49.4915 54.5 50.9737M42.9357 47.2657C42.7548 49.3138 42.7302 52.2478 42.9357 54.1705C42.9404 54.2125 42.9456 54.254 42.9515 54.2948M42.9357 47.2657C42.9521 47.0651 42.985 46.8478 43.0343 46.6137C41.9165 43.0109 40.1 40.8375 38.3329 40.8375C36.3341 40.8375 35.1789 43.0452 34.7741 45.3554M54.5 50.9737C54.5146 51.5522 54.5148 52.135 54.5 52.7048M54.5 50.9737C54.5374 49.4915 54.6695 48.0381 54.8863 46.9063C55.4205 44.131 58.1822 40.4028 60.8534 40.5533C63.689 40.7121 65.8589 44.9502 66.0643 47.2657M54.5 50.9737C54.4854 51.5522 54.4852 52.135 54.5 52.7048M54.5 52.7048C54.488 53.1659 54.4662 53.6186 54.4342 54.0534C54.3438 55.207 54.0479 56.1516 52.5274 56.3606C50.563 56.6281 46.6261 56.394 44.8672 56.1015C43.7256 55.9056 43.2227 55.4055 43.0215 54.6451M54.5 52.7048C54.512 53.1659 54.5338 53.6186 54.5657 54.0534C54.6562 55.207 54.9521 56.1516 56.4726 56.3606C58.437 56.6281 62.3739 56.394 64.1328 56.1015C65.2737 55.9057 65.7767 55.4061 65.9781 54.6465M43.0215 54.6451C42.9921 54.5338 42.9691 54.417 42.9515 54.2948M43.0215 54.6451C42.9969 54.5325 42.9702 54.4162 42.9515 54.2948M43.0215 54.6451C42.8078 54.829 42.5247 54.973 42.1466 55.0816C40.9795 55.4327 38.1685 55.5163 36.4343 55.1318C35.3412 54.881 34.9549 54.1538 34.8069 53.0838C34.5439 51.1611 34.4946 49.7317 34.6179 46.7976M34.7741 45.3554C34.6896 45.8381 34.6378 46.3252 34.6179 46.7976M34.7741 45.3554C34.6931 45.8417 34.641 46.327 34.6179 46.7976M34.7741 45.3554C34.7794 45.3235 34.7849 45.2915 34.7905 45.2595C33.6151 43.0276 31.2891 40.9127 29.6042 40.9294C28.3302 40.9462 27.648 42.3672 27.648 44.9335C27.648 45.0864 27.649 45.2364 27.6509 45.3837M34.6179 46.7976C34.511 49.3054 34.5255 50.7261 34.7063 52.2809C34.6735 52.3394 34.6507 52.3732 34.6179 52.4067C33.122 53.8863 31.6919 54.4714 30.8782 54.1872C30.3965 54.0219 29.4846 53.4399 28.8541 52.4236M66.0643 47.2657C66.2452 49.3138 66.2698 52.2478 66.0643 54.1705C66.0597 54.2117 66.0546 54.2523 66.0488 54.2924M66.0643 47.2657C66.0479 47.0651 66.015 46.8478 65.9657 46.6137C67.0835 43.0109 68.9 40.8375 70.6671 40.8375C72.6659 40.8375 73.8212 43.0454 74.2259 45.3556M65.9781 54.6465C66.0079 54.5341 66.0311 54.416 66.0488 54.2924M65.9781 54.6465C66.0029 54.5331 66.03 54.4152 66.0488 54.2924M65.9781 54.6465C66.1918 54.8304 66.4753 54.973 66.8534 55.0816C68.0205 55.4327 70.8314 55.5163 72.5657 55.1318C73.6588 54.881 74.0451 54.1538 74.1931 53.0838C74.2308 52.808 74.2641 52.5423 74.2932 52.2809M74.2259 45.3556C74.3104 45.8382 74.3622 46.3253 74.3821 46.7976M74.2259 45.3556C74.3069 45.8418 74.359 46.3271 74.3821 46.7976M74.2259 45.3556C74.2206 45.3236 74.2151 45.2916 74.2095 45.2595C75.3849 43.0276 77.7109 40.9127 79.3958 40.9294C80.6698 40.9462 81.352 42.3672 81.352 44.9335C81.352 47.4078 81.089 49.1215 80.7355 50.9354M74.3821 46.7976C74.4877 49.3106 74.4666 50.7202 74.2932 52.2809M74.3821 46.7976C74.489 49.3052 74.474 50.7262 74.2932 52.2809M74.2932 52.2809C74.2932 52.2807 74.2932 52.281 74.2932 52.2809ZM74.2932 52.2809C74.3261 52.3394 74.3492 52.3732 74.3821 52.4067C75.878 53.8863 77.3081 54.4714 78.1218 54.1872C78.6377 54.0102 79.6471 53.3599 80.2757 52.2075M28.8541 52.4236C28.8187 52.3665 28.7842 52.308 28.7507 52.2481M28.8541 52.4236C28.024 52.6075 26.9412 52.6073 25.996 52.4819C25.0343 52.3565 24.3522 51.9887 24.0891 51.1026C23.7357 49.9073 23.5713 47.2908 23.6042 45.1341C23.6289 43.8635 23.8672 42.0412 24.8124 42.1248C25.8563 42.2168 26.903 43.9877 27.6509 45.3837M28.7507 52.2481C28.5358 51.8645 28.3627 51.4244 28.2645 50.9271M28.7507 52.2481C28.5341 51.8633 28.357 51.4275 28.2645 50.9354C27.9275 49.2385 27.6838 47.6239 27.6509 45.3837M27.6509 45.3837C27.6799 47.62 27.9247 49.2336 28.2563 50.9354M80.7355 50.9354C80.6414 51.4123 80.4783 51.836 80.2757 52.2075M80.7355 50.9354C80.6396 51.4091 80.4753 51.8364 80.2757 52.2075M80.7355 50.9354C81.0725 49.2302 81.3246 47.6104 81.3493 45.3702C82.0972 43.9742 83.1437 42.2168 84.1876 42.1248C85.1328 42.0412 85.3793 43.8635 85.3958 45.1341C85.4287 47.2908 85.2643 49.9073 84.9109 51.1026C84.6478 51.9803 83.9657 52.3482 83.004 52.4819C82.067 52.6073 80.9903 52.6073 80.152 52.4234C80.1944 52.3537 80.2357 52.2818 80.2757 52.2075M42.1937 9H66.8063C82.9295 9 96 22.0455 96 38.1379V70.8621C96 86.9545 82.9295 100 66.8063 100H42.1937C26.0705 100 13 86.9545 13 70.8621V38.1379C13 22.0455 26.0705 9 42.1937 9ZM74.217 20.6103C74.217 21.9968 73.0909 23.1207 71.7018 23.1207C70.3128 23.1207 69.1867 21.9968 69.1867 20.6103C69.1867 19.2239 70.3128 18.1 71.7018 18.1C73.0909 18.1 74.217 19.2239 74.217 20.6103ZM81.7624 20.6103C81.7624 21.9968 80.6364 23.1207 79.2473 23.1207C77.8582 23.1207 76.7321 21.9968 76.7321 20.6103C76.7321 19.2239 77.8582 18.1 79.2473 18.1C80.6364 18.1 81.7624 19.2239 81.7624 20.6103Z" stroke="currentColor" stroke-width="1.5" stroke-linecap="round" stroke-linejoin="round" fill="none" />
</svg>