<?xml version='1.0' encoding='utf-8'?>
<svg xmlns="http://www.w3.org/2000/svg" width="110" height="110" viewBox="0 0 110 110" fill="none" stroke="currentColor" stroke-width="1.5">
<path d="M43.2801 46.7899L26.0422 46.7564C19.1689 46.743 13.6949 52.4649 14.0112 59.3321C14.3085 65.784 19.6315 70.8782 26.0891 70.8907L75.3362 70.9865C79.6853 70.995 83.2179 74.5275 83.2263 78.8766C83.2348 83.2258 79.716 86.7446 75.3668 86.7361L37.8827 86.6632M43.1087 36.8805L48.7911 31.1981C49.0674 30.9217 49.4427 30.7669 49.8343 30.7676L78.0024 30.8224C78.394 30.8232 78.7699 30.9795 79.0473 31.2569L84.7519 36.9615C85.0293 37.2389 85.1856 37.6147 85.1863 38.0063L85.2199 55.2438C85.2206 55.6354 85.0658 56.0107 84.7894 56.287L79.107 61.9694C78.8307 62.2458 78.4554 62.4006 78.0638 62.3998L49.8957 62.3451C49.5041 62.3443 49.1282 62.188 48.8508 61.9106L43.1462 56.206C42.8688 55.9286 42.7125 55.5528 42.7118 55.1612L42.6782 37.9237C42.6775 37.5321 42.8323 37.1568 43.1087 36.8805ZM47.6156 39.065L51.9669 34.8635C52.2416 34.5982 52.6091 34.4503 52.9917 34.4511L75.2788 34.4944C75.6614 34.4951 76.0294 34.6444 76.3052 34.9108L80.6729 39.1293C80.9615 39.4081 81.125 39.7917 81.1257 40.1922L81.151 53.1811C81.1518 53.5816 80.9898 53.9646 80.7022 54.2423L76.351 58.4438C76.0762 58.7091 75.7088 58.8569 75.3261 58.8562L53.0391 58.8129C52.6564 58.8121 52.2884 58.6628 52.0126 58.3965L47.645 54.178C47.3564 53.8992 47.1929 53.5156 47.1921 53.115L47.1669 40.1262C47.1661 39.7257 47.3281 39.3427 47.6156 39.065Z" stroke="currentColor" stroke-width="1.5" fill="none" />
</svg>