<?xml version='1.0' encoding='utf-8'?>
<svg xmlns="http://www.w3.org/2000/svg" width="110" height="110" viewBox="0 0 110 110" fill="none" stroke="currentColor" stroke-width="1.5">
<path d="M60.893 65.0355C60.5775 64.7671 60.1042 64.8053 59.8358 65.1208C59.5674 65.4363 59.6056 65.9096 59.9211 66.178L60.893 65.0355ZM71.3411 67.1128L71.7831 66.5069C71.4655 66.2752 71.0229 66.3281 70.7688 66.6281L71.3411 67.1128ZM98.9822 87.2861L98.54 87.8918C98.6845 87.9973 98.8619 88.0477 99.0402 88.0338L98.9822 87.2861ZM99 87.2847L99.5713 87.7706C99.7676 87.5399 99.8058 87.2138 99.6681 86.9439C99.5305 86.6741 99.2441 86.5135 98.9421 86.537L99 87.2847ZM88.0085 100.207L87.2609 100.266C87.2849 100.569 87.4889 100.827 87.7777 100.92C88.0665 101.014 88.3832 100.924 88.5798 100.693L88.0085 100.207ZM88.0056 100.17L88.7533 100.111C88.739 99.9311 88.6605 99.7625 88.5321 99.636L88.0056 100.17ZM63.6666 76.1752L63.0943 75.6906C62.8408 75.9899 62.8608 76.4339 63.14 76.7093L63.6666 76.1752ZM65.4513 44.1395L64.7013 44.133L64.7013 44.133L65.4513 44.1395ZM37.983 71.8042L37.9764 72.5541L37.9764 72.5541L37.983 71.8042ZM11.0011 43.6654L10.2511 43.6588L10.2511 43.6588L11.0011 43.6654ZM38.4688 16.001L38.4623 16.751L38.4623 16.751L38.4688 16.001ZM59.9211 66.178L67.0178 72.2151L67.9898 71.0725L60.893 65.0355L59.9211 66.178ZM68.0761 72.1285L71.9134 67.5975L70.7688 66.6281L66.9315 71.1591L68.0761 72.1285ZM70.899 67.7187C80.1118 74.4403 89.3253 81.1648 98.54 87.8918L99.4245 86.6803C90.2096 79.9533 80.996 73.2286 71.7831 66.5069L70.899 67.7187ZM99.0402 88.0338L99.058 88.0325L98.9421 86.537L98.9242 86.5383L99.0402 88.0338ZM98.4288 86.7988L87.4372 99.7209L88.5798 100.693L99.5713 87.7706L98.4288 86.7988ZM88.7562 100.147L88.7533 100.111L87.258 100.229L87.2609 100.266L88.7562 100.147ZM88.5321 99.636C80.4179 91.6387 72.3048 83.6403 64.1933 75.6412L63.14 76.7093C71.2517 84.7085 79.3649 92.7069 87.4791 100.704L88.5321 99.636ZM64.239 76.6599L68.0762 72.1285L66.9314 71.1591L63.0943 75.6906L64.239 76.6599ZM64.7013 44.133C64.5705 59.146 52.5944 71.1813 37.9895 71.0542L37.9764 72.5541C53.4442 72.6887 66.0636 59.9525 66.2013 44.1461L64.7013 44.133ZM37.9895 71.0542C23.3851 70.9271 11.6204 58.6849 11.7511 43.6719L10.2511 43.6588C10.1136 59.4653 22.5091 72.4195 37.9764 72.5541L37.9895 71.0542ZM11.7511 43.6719C11.8819 28.6595 23.858 16.6239 38.4623 16.751L38.4753 15.2511C23.0082 15.1164 10.3888 27.853 10.2511 43.6588L11.7511 43.6719ZM38.4623 16.751C53.0672 16.8781 64.8321 29.1205 64.7013 44.133L66.2013 44.1461C66.339 28.34 53.9431 15.3857 38.4753 15.2511L38.4623 16.751Z" fill="none" stroke="currentColor" stroke-width="1.5" />
<path d="M60.9991 44.1953C60.8881 56.8975 50.7252 67.107 38.299 66.9992C25.8732 66.8913 15.8901 56.5066 16.0009 43.8044C16.1119 31.1028 26.2748 20.893 38.7005 21.0008C51.1267 21.1087 61.11 31.4935 60.9991 44.1953Z" stroke="currentColor" stroke-width="1.5" stroke-miterlimit="10" fill="none" />
</svg>