<?xml version='1.0' encoding='utf-8'?>
<svg xmlns="http://www.w3.org/2000/svg" width="110" height="110" viewBox="0 0 110 110" fill="none" stroke="currentColor" stroke-width="1.5">
<path d="M42.0022 46.2799C46.3395 52.1468 75.8651 78.2021 84.5396 85.0593L86.7458 78.4896L86.1889 76.4878L91.158 80.896L93 72.6439L90.0014 69.9713M42.0022 46.2799C37.6649 40.4129 36.5298 37.7297 34.5914 35.0145M42.0022 46.2799L66.1813 45.0116M34.5914 35.0145C33.7025 33.3853 27.4697 27.1776 22.4042 22.6843L22.0722 21.5556L17.1031 17.0303L16 7L18.4417 9.26799L18.5702 10.0559L22.7897 13.804L23.7643 13.6655L35.3946 23.9939C39.3356 27.4864 45.804 30.0526 49.7344 31.8627C53.6647 33.6728 62.0929 40.9985 65.5841 44.4271C69.0754 47.8557 84.6146 62.8373 84.6146 62.8373L84.5825 63.8169L90.5047 69.4176L90.0014 69.9713M34.5914 35.0145L40.7921 28.1147M90.0014 69.9713C90.0014 69.9713 86.5851 67.7779 86.2424 68.1505C85.9104 68.5232 85.2036 70.2482 85.2036 70.2482L83.834 74.2855M86.1889 76.4665L82.4299 72.9634L84.8044 64.0268M22.5663 22.8283L22.2372 13.3132M86.3129 80.0578L88.7591 82.5038C91.8434 85.8898 91.6185 91.1073 88.2665 94.2164C84.9252 97.315 79.699 97.1978 76.5076 93.9289L47.2498 64.0085C44.5618 61.2614 40.2566 60.8994 37.1402 63.1567C33.4348 65.8399 32.8886 71.1213 35.9515 74.5179L63.8921 102" stroke="currentColor" stroke-width="1.5" stroke-linecap="round" stroke-linejoin="round" fill="none" />
</svg>