<?xml version='1.0' encoding='utf-8'?>
<svg xmlns="http://www.w3.org/2000/svg" id="Layer_1" data-name="Layer 1" width="110" height="110" viewBox="0 0 110 110">
  <path d="M69.2635,75.8589l-.4578-.1249-.3953.2705c-3.9222,2.6322-8.3334,3.9846-13.4104,3.9846-13.7745,0-24.9689-11.3921-24.9689-25.4891s11.1944-25.4891,24.9689-25.4891,24.9689,11.3921,24.9689,25.4891c0,4.9002-1.1652,9.1449-3.4956,13.0047l-.2185.3745.1041.4266,2.6737,10.2061-9.7691-2.6529Z" style="fill:none;stroke:currentColor;stroke-linecap:round;stroke-linejoin:round;stroke-width:1.5" />
  <path d="M41,55h27M46.87,47h16.435M46.87,63h16.435" style="fill:none;stroke:currentColor;stroke-linecap:round;stroke-width:1.5" />
  <path d="M57.9689,87c0,1.9158-1.5531,3.4689-3.4689,3.4689s-3.4689-1.5531-3.4689-3.4689c0-.0841.003-.1674.0089-.25.1281-1.7992,1.6283-3.2189,3.4601-3.2189,1.9158,0,3.4689,1.5531,3.4689,3.4689ZM85.5242,45.1036c.1704-.01.342-.015.5148-.015,5.0169,0,9.0839,4.2672,9.0839,9.5311s-4.067,9.5311-9.0839,9.5311c-.0928,0-.1853-.0015-.2774-.0044.87-2.9,1.3284-5.9663,1.3284-9.1463,0-17.67-14.33-32-32-32-14.24,0-26.29,9.29-30.45,22.13-1.01,3.11-1.55,6.43-1.55,9.87,0,3.17.46,6.24,1.33,9.13,3.55,11.97,13.9299,21.01,26.6199,22.62M24.42,64.13c-.2.01-.41.02-.61.02-5.01,0-9.08-4.27-9.08-9.53s4.07-9.53,9.08-9.53c.28,0,.56.01.83.04" style="fill:none;stroke:currentColor;stroke-linecap:round;stroke-miterlimit:10;stroke-width:1.5" />
</svg>