<?xml version='1.0' encoding='utf-8'?>
<svg xmlns="http://www.w3.org/2000/svg" width="110" height="110" viewBox="0 0 110 110" fill="none" stroke="currentColor" stroke-width="1.5">
<g clip-path="url(#clip0_2888_2)">
<path d="M13.7798 93.9368L14.9571 95.1141L16.1343 96.2914M66.545 54.8568C66.4088 52.6088 67.1996 50.3151 68.9173 48.5974C70.6351 46.8797 72.9287 46.0889 75.1767 46.2251L74.8251 44.8588M65.6633 35.6969L64.1763 35.2247C64.3125 37.4727 63.5217 39.7664 61.804 41.4841C60.0863 43.2018 57.7926 43.9926 55.5446 43.8564L54.6026 44.7984L57.0926 47.2884M66.5482 54.86L65.6062 55.802L63.0818 53.2776M57.0926 47.2884L63.0818 53.2776M57.0926 47.2884L33.7202 70.6607C34.7091 71.6495 34.7091 73.2527 33.7202 74.2416L22.8302 85.1316C21.8414 86.1204 20.2382 86.1204 19.2493 85.1316L14.6444 89.7365M14.6444 89.7365L20.6337 95.7258M14.6444 89.7365L14.2959 90.085C14.0819 90.2991 13.9616 90.5895 13.9616 90.8922L13.9616 91.2615C13.9616 91.5037 14.0578 91.736 14.2291 91.9073L15.0192 92.6974M20.6337 95.7258L24.5446 91.8148L24.5539 90.7246C24.5626 89.7067 24.9708 88.7329 25.6906 88.0131L56.479 57.2247C57.0705 56.6332 57.8373 56.2486 58.6651 56.1283L60.4976 55.8618L63.0818 53.2776M20.6337 95.7258L20.3059 96.0535C20.0796 96.2798 19.7688 96.4007 19.4491 96.3868L19.03 96.3686C18.8017 96.3587 18.5854 96.2636 18.4238 96.102L17.3738 95.052M15.0192 92.6974L14.4665 93.25L13.2483 94.4683C12.8916 94.8249 12.8916 95.4032 13.2483 95.7599L14.3113 96.8229C14.6679 97.1795 15.2462 97.1795 15.6029 96.8229L16.8211 95.6046L17.3738 95.052M15.0192 92.6974L17.3738 95.052M71.4709 36.7437L68.4468 33.7196C68.0902 33.363 67.5119 33.363 67.1553 33.7196L66.7843 34.0906C60.3883 27.5855 57.781 26.8019 56.666 26.4229C56.3673 26.3214 56.0434 26.4215 55.8203 26.6445L54.7786 27.9122C55.7506 28.1295 57.817 29.124 59.307 30.1764C61.9663 32.0547 66.5977 36.5066 70.0449 39.9537C73.492 43.4009 77.9439 48.0323 79.8222 50.6916C80.8746 52.1817 81.8691 54.248 82.0864 55.22L83.3543 54.0877C83.5774 53.8646 83.6775 53.5411 83.576 53.2424C83.2074 52.1576 81.7364 49.2617 76.4311 43.6481L76.7574 43.3218C77.1141 42.9652 77.1141 42.3869 76.7574 42.0302L73.8724 39.1452M71.4709 36.7437L80.0938 28.1209M71.4709 36.7437L73.8724 39.1452M82.5722 30.4454L73.8724 39.1452M96.2549 29.0787C92.0203 33.3133 85.1545 33.3133 80.9199 29.0787C76.6853 24.844 76.6853 17.9783 80.9199 13.7437C85.1546 9.50903 92.0203 9.50903 96.2549 13.7437C100.49 17.9783 100.49 24.844 96.2549 29.0787Z" stroke="currentColor" stroke-width="1.5" stroke-linecap="round" stroke-linejoin="round" fill="none" />
<path d="M94.3785 27.2342C91.1625 30.4502 85.9484 30.4502 82.7324 27.2342C79.5164 24.0182 79.5164 18.8041 82.7324 15.5881C85.9484 12.3721 91.1625 12.3721 94.3785 15.5881C97.5944 18.8041 97.5944 24.0182 94.3785 27.2342Z" stroke="currentColor" stroke-width="1.5" stroke-linecap="round" stroke-linejoin="round" fill="none" />
</g>
<defs>
<clipPath id="clip0_2888_2">
<rect width="110" height="110" fill="none" stroke="currentColor" stroke-width="1.5" />
</clipPath>
</defs>
</svg>