<?xml version='1.0' encoding='utf-8'?>
<svg xmlns="http://www.w3.org/2000/svg" width="110" height="110" viewBox="0 0 110 110" fill="none" stroke="currentColor" stroke-width="1.5">
<path d="M80.5594 64.5226L66.0537 79.2865C61.5692 83.8508 54.4061 84.1494 50.0547 79.953L47.016 77.0226C42.6645 72.8264 42.7725 65.7244 47.257 61.16L61.7626 46.396M80.5594 64.5226L61.7626 46.396M80.5594 64.5226L95.0689 49.7549C99.5535 45.1905 99.6616 38.0885 95.3102 33.8923L92.2713 30.9619C87.9198 26.7657 80.757 27.0641 76.2723 31.6286L61.7626 46.396M78.1137 37.3188C78.1137 37.3188 83.0335 29.1316 90.4007 35.5148M12.4811 53.6026C16.1308 43.3955 25.3827 37.3249 33.1434 40.0484C33.8351 40.2912 34.4928 40.5977 35.1127 40.9565C41.4405 44.641 43.9069 54.1679 40.5827 63.4646C37.257 72.7658 29.2873 78.6303 22.0345 77.5437C22.0296 77.5469 22.0312 77.5425 22.0312 77.5425C21.3201 77.4392 20.6142 77.2674 19.9225 77.0245C12.1617 74.301 8.82997 63.8143 12.4811 53.6026ZM19.9209 77.0241L28.9798 80.2032C30.7947 80.8401 32.7768 80.9083 34.6086 80.3209C40.5772 78.4073 45.9067 73.2842 48.4327 66.2194C50.9589 59.1544 50.0717 51.8529 46.6492 46.6448C45.5989 45.0467 44.0157 43.8637 42.2014 43.227L33.142 40.0478L19.9209 77.0241ZM60.518 73.6327C59.52 74.6484 57.8797 74.6704 56.8544 73.6817C55.829 72.6929 55.807 71.0679 56.8049 70.0522C57.8029 69.0364 59.4431 69.0145 60.4683 70.0033C61.4936 70.9922 61.5159 72.6168 60.518 73.6327ZM60.3484 61.92C59.6617 62.6191 58.5329 62.634 57.8274 61.9536C57.1217 61.2732 57.1066 60.155 57.7934 59.456C58.4802 58.757 59.6089 58.742 60.3145 59.4224C61.02 60.1027 61.0352 61.2211 60.3484 61.92ZM69.9782 66.3622C69.2914 67.0614 68.1627 67.0763 67.457 66.3959C66.7515 65.7155 66.7363 64.5973 67.423 63.8981C68.1098 63.1991 69.2387 63.1841 69.9441 63.8645C70.6496 64.545 70.665 65.6633 69.9782 66.3622Z" stroke="currentColor" stroke-width="1.5" stroke-linecap="round" stroke-linejoin="round" fill="none" />
</svg>