<?xml version='1.0' encoding='utf-8'?>
<svg xmlns="http://www.w3.org/2000/svg" width="110" height="110" viewBox="0 0 110 110" fill="none" stroke="currentColor" stroke-width="1.5">
<path d="M74.1517 35.8708L36.4695 74.0548C35.3249 75.215 33.9901 76.1751 32.5309 76.8868L24.7049 80.7049C24.0138 81.0422 23.1836 80.9014 22.6424 80.349C22.0975 79.7967 21.9585 78.959 22.2913 78.2584L26.058 70.3257C26.7602 68.8466 27.7073 67.4973 28.852 66.3334L66.5892 28.2052M81.4617 28.4492L81.6848 28.6716C83.6742 30.6882 83.6742 33.9613 81.6848 35.9779L81.575 36.0891C79.582 38.1056 76.3565 38.1056 74.3671 36.0891L66.3107 27.9228C64.3176 25.9063 64.3176 22.6331 66.3107 20.6166L66.4204 20.5054C68.4098 18.4889 71.6353 18.4889 73.6247 20.5054L81.4617 28.4492ZM81.4617 28.4492L90.3336 19.4601C92.4364 17.3286 92.6009 13.8256 90.5311 11.6608C88.4319 9.46635 84.9761 9.44782 82.855 11.5978L77.695 16.8282M50.2011 44.7631H65.3762M28.3912 95.4508C28.3912 98.5164 26.2884 101 23.6956 101C21.1028 101 19 98.5164 19 95.4508C19 92.3852 23.6956 86.5692 23.6956 86.5692C23.6956 86.5692 28.3912 92.3852 28.3912 95.4508Z" stroke="currentColor" stroke-width="1.5" stroke-linecap="round" stroke-linejoin="round" fill="none" />
</svg>