<?xml version='1.0' encoding='utf-8'?>
<svg xmlns="http://www.w3.org/2000/svg" version="1.1" id="Layer_1" x="0px" y="0px" viewBox="0 0 110 110" style="enable-background:new 0 0 110 110;fill:none;stroke:currentColor;stroke-width:1.5" xml:space="preserve">
<path style="fill:none;stroke:currentColor;stroke-width:1.5;stroke-linecap:round;stroke-linejoin:round" d="M74.97,42.15  c9.498,13.056,8.371,31.462-3.37,43.257c-12.985,13.033-34.049,13.033-47.034,0c-12.985-13.033-12.985-34.172,0-47.205  c11.741-11.783,30.092-12.915,43.101-3.382 M68.395,48.737c5.988,9.368,4.908,21.976-3.264,30.178c-9.416,9.45-24.691,9.45-34.119,0  c-9.416-9.45-9.416-24.781,0-34.243c8.16-8.19,20.723-9.285,30.068-3.276 M61.68,55.477c2.559,5.562,1.562,12.361-3.006,16.945  c-5.847,5.868-15.333,5.868-21.192,0c-5.847-5.868-5.847-15.389,0-21.269c4.567-4.584,11.353-5.585,16.883-3.017 M53.672,63.525  c-0.27,0.884-0.751,1.72-1.456,2.427c-2.289,2.298-5.988,2.298-8.265,0c-2.278-2.298-2.278-6.01,0-8.296  c0.704-0.707,1.526-1.19,2.419-1.461 M48.518,61.498l41.551-41.702 M74.798,35.123l9.577,3.15l9.804-9.839l-9.498-3.229l-3.064-9.38  l-9.804,9.839L74.798,35.123z" />
</svg>