<?xml version='1.0' encoding='utf-8'?>
<svg xmlns="http://www.w3.org/2000/svg" id="Layer_1" data-name="Layer 1" width="110" height="110" viewBox="0 0 110 110">
  <g>
    <g>
      <path d="M82.8256,59.9365l4.6517-4.6448c8.0172-8.0055,4.0535-18.8217-2.4052-25.7651-2.1292-2.2894-4.5607-4.2734-7.079-5.6843-3.2804-1.84-13.5657-4.5325-20.2912,2.0142l-13.9593,13.8904c-3.7678,3.75,5.7404,7.3776,10.5528,2.6349l3.5166-3.4654c5.1949-4.711,11.7229,4.7295,19.8597-1.6913M28.4895,57.7394l-4.6444-4.6373c-15.4772-15.4547,11.3288-41.9888,27.0379-26.6979l3.1297,3.1142M65.2416,42.2813l17.9749,18.843c3.6694,3.8467-1.7791,11.17-6.4877,6.3143l-8.4257-8.6874M60.9606,64.6052l9.2615,9.5151c3.708,3.8086,11.2147-1.823,6.5068-6.6819l-9.0521-9.3406M58.1467,75.1192l4.6262,4.6644c3.7442,3.7739,11.0126-1.6127,6.3426-6.5163" style="fill:none;stroke:currentColor;stroke-linecap:round;stroke-linejoin:round;stroke-width:1.5" />
      <path d="M39.5153,53.9158l.494.4941c1.6693,1.6694,1.6654,4.4151-.0004,6.0809l-6.4012,6.4043c-1.6655,1.6654-4.412,1.6685-6.0806,0l-.494-.4941c-1.6685-1.6685-1.6725-4.4081-.0003-6.081l6.4011-6.4043c1.6721-1.6728,4.412-1.6693,6.0813,0h0ZM50.2838,56.8459l.494.4941c1.6725,1.6724,1.6666,4.4139-.0004,6.081l-10.197,10.1969c-1.667,1.667-4.4135,1.667-6.0805,0l-.4941-.4941c-1.667-1.667-1.6721-4.4085,0-6.0806l10.1969-10.1969c1.6725-1.6725,4.4085-1.6728,6.081-.0004h0ZM54.4511,66.3742l.4939.494c1.6726,1.6725,1.6698,4.4117.0005,6.081l-6.9909,6.9909c-1.6694,1.6693-4.4113,1.6693-6.0811-.0004l-.494-.494c-1.6693-1.6693-1.6725-4.4081,0-6.0806l6.9909-6.9909c1.6721-1.6721,4.4086-1.6721,6.0807,0h0ZM58.9458,75.4651l.4942.4941c1.6704,1.6705,1.6658,4.4148,0,6.0806l-4.2926,4.2926c-1.6658,1.6658-4.4136,1.667-6.0806,0l-.494-.4941c-1.667-1.667-1.6725-4.4089-.0004-6.0809l4.2926-4.2926c1.6721-1.6721,4.4101-1.6705,6.0809.0004h0Z" style="fill:none;stroke:currentColor;stroke-miterlimit:22.9256;stroke-width:1.5" />
    </g>
    <path d="M23.4353,70.5423c-10.9763-10.0672-14.7195-25.2419-9.5309-38.7596,4.7716-12.4278,16.1526-20.4592,28.9938-20.4592,4.3718,0,8.5013,2.1862,12.2322,3.9662,3.7199-1.7812,7.8481-3.9662,12.2384-3.9662,12.6493,0,24.0081,7.7842,28.9372,19.8294,5.4248,13.2545,2.0371,28.5952-8.6305,39.0819l-31.9473,31.4085-32.2929-31.101Z" style="fill:none;stroke:currentColor;stroke-linecap:round;stroke-linejoin:round;stroke-width:1.5" />
  </g>
  <text transform="translate(99.3623 42.3181)" style="fill:none;font-family:AzoSans-Light, 'Azo Sans';font-size:14.1832px;font-weight:300;stroke:currentColor;stroke-width:1.5"><tspan x="0" y="0"> </tspan></text>
</svg>