<?xml version='1.0' encoding='utf-8'?>
<svg xmlns="http://www.w3.org/2000/svg" id="Layer_1" data-name="Layer 1" width="110" height="110" viewBox="0 0 110 110">
  <g>
    <circle cx="31.4787" cy="41.7929" r="25.4475" style="fill:none;stroke:currentColor;stroke-miterlimit:10;stroke-width:1.5" />
    <line x1="31.4787" y1="41.7929" x2="38.5474" y2="49.6095" style="fill:none;stroke:currentColor;stroke-linecap:round;stroke-linejoin:round;stroke-width:1.5" />
    <line x1="31.5367" y1="27.2492" x2="31.4787" y2="41.7929" style="fill:none;stroke:currentColor;stroke-linecap:round;stroke-linejoin:round;stroke-width:1.5" />
    <line x1="31.5315" y1="20.3126" x2="31.5315" y2="23.5326" style="fill:none;stroke:currentColor;stroke-linecap:round;stroke-linejoin:round;stroke-width:1.5" />
    <line x1="42.2641" y1="23.2166" x2="40.6542" y2="26.0052" style="fill:none;stroke:currentColor;stroke-linecap:round;stroke-linejoin:round;stroke-width:1.5" />
    <line x1="50.1071" y1="31.0977" x2="47.3185" y2="32.7078" style="fill:none;stroke:currentColor;stroke-linecap:round;stroke-linejoin:round;stroke-width:1.5" />
    <line x1="52.9589" y1="41.8443" x2="49.7389" y2="41.8445" style="fill:none;stroke:currentColor;stroke-linecap:round;stroke-linejoin:round;stroke-width:1.5" />
    <line x1="50.0556" y1="52.5772" x2="47.2669" y2="50.9674" style="fill:none;stroke:currentColor;stroke-linecap:round;stroke-linejoin:round;stroke-width:1.5" />
    <line x1="42.175" y1="60.4206" x2="40.5647" y2="57.6322" style="fill:none;stroke:currentColor;stroke-linecap:round;stroke-linejoin:round;stroke-width:1.5" />
    <line x1="20.6955" y1="60.3705" x2="22.3051" y2="57.5817" style="fill:none;stroke:currentColor;stroke-linecap:round;stroke-linejoin:round;stroke-width:1.5" />
    <line x1="12.8516" y1="52.4903" x2="15.6399" y2="50.8799" style="fill:none;stroke:currentColor;stroke-linecap:round;stroke-linejoin:round;stroke-width:1.5" />
    <line x1="9.9984" y1="41.7441" x2="13.2184" y2="41.7435" style="fill:none;stroke:currentColor;stroke-linecap:round;stroke-linejoin:round;stroke-width:1.5" />
    <line x1="12.9004" y1="31.0109" x2="15.6893" y2="32.6203" style="fill:none;stroke:currentColor;stroke-linecap:round;stroke-linejoin:round;stroke-width:1.5" />
    <line x1="20.78" y1="23.1665" x2="22.3906" y2="25.9547" style="fill:none;stroke:currentColor;stroke-linecap:round;stroke-linejoin:round;stroke-width:1.5" />
    <circle cx="31.4308" cy="41.9521" r="1.1992" style="fill:none;stroke:currentColor;stroke-miterlimit:10;stroke-width:1.5" />
    <line x1="30.9364" y1="62.951" x2="30.9286" y2="59.731" style="fill:none;stroke:currentColor;stroke-linecap:round;stroke-linejoin:round;stroke-width:1.5" />
  </g>
  <g>
    <path d="M61.5363,88.4971c.8535-.3658,13.1686-9.3887,13.1686-9.3887" style="fill:none;stroke:currentColor;stroke-miterlimit:10;stroke-width:1.5" />
    <g>
      <polygon points="33.9099 61.1025 101.544 41.129 91.3591 100.2974 71.047 74.2311 61.8953 87.6443 58.5967 70.9234 33.9099 61.1025" style="fill:none;stroke:currentColor;stroke-miterlimit:10;stroke-width:1.5" />
      <line x1="101.7079" y1="41.2337" x2="57.9943" y2="70.7267" style="fill:none;stroke:currentColor;stroke-miterlimit:10;stroke-width:1.5" />
      <line x1="101.5" y1="41.6216" x2="71.047" y2="74.2311" style="fill:none;stroke:currentColor;stroke-miterlimit:10;stroke-width:1.5" />
    </g>
  </g>
</svg>