<?xml version='1.0' encoding='utf-8'?>
<svg xmlns="http://www.w3.org/2000/svg" width="110" height="110" viewBox="0 0 110 110" fill="none" stroke="currentColor" stroke-width="1.5">
<path d="M54.5 13H18V62H42.5M48 80.5H62M48 80.5C45.2386 80.5 43 78.2614 43 75.5V54.5C43 53.103 43.5729 51.8398 44.4966 50.9326M48 80.5V93.5C48 95.1569 49.3431 96.5 51 96.5H59C60.6569 96.5 62 95.1569 62 93.5V80.5M62 80.5C64.7614 80.5 67 78.2614 67 75.5V54.5C67 53.103 66.4271 51.8398 65.5034 50.9326M52 40.5C52 34.4249 47.0751 29.5 41 29.5C34.9249 29.5 30 34.4249 30 40.5C30 46.5751 34.9249 51.5 41 51.5C42.2224 51.5 43.3981 51.3006 44.4966 50.9326M52 40.5C52 44.2558 50.1177 47.572 47.245 49.5566M52 40.5H58M58 40.5C58 34.4249 62.9249 29.5 69 29.5C75.0751 29.5 80 34.4249 80 40.5C80 46.5751 75.0751 51.5 69 51.5C67.7776 51.5 66.6019 51.3006 65.5034 50.9326M58 40.5C58 44.2558 59.8823 47.572 62.755 49.5566M43 74H18.5V89.5M67 74H91.5V89.5M62.755 49.5566C62.5088 49.5193 62.2567 49.5 62 49.5H48C47.7433 49.5 47.4912 49.5193 47.245 49.5566M62.755 49.5566C63.5941 50.1363 64.5176 50.6024 65.5034 50.9326M44.4966 50.9326C45.4824 50.6024 46.4059 50.1363 47.245 49.5566M49 40.5C49 44.9183 45.4183 48.5 41 48.5C36.5817 48.5 33 44.9183 33 40.5C33 36.0817 36.5817 32.5 41 32.5C45.4183 32.5 49 36.0817 49 40.5ZM77 40.5C77 44.9183 73.4183 48.5 69 48.5C64.5817 48.5 61 44.9183 61 40.5C61 36.0817 64.5817 32.5 69 32.5C73.4183 32.5 77 36.0817 77 40.5Z" stroke="currentColor" stroke-width="1.5" stroke-linecap="round" stroke-linejoin="round" fill="none" />
</svg>