<?xml version='1.0' encoding='utf-8'?>
<svg xmlns="http://www.w3.org/2000/svg" width="110" height="110" viewBox="0 0 110 110" fill="none" stroke="currentColor" stroke-width="1.5">
<path d="M54.5153 98.9999C56.7706 98.9999 58.5988 97.1716 58.5988 94.9163C58.5988 92.661 56.7706 90.8328 54.5153 90.8328C52.26 90.8328 50.4317 92.661 50.4317 94.9163C50.4317 97.1716 52.26 98.9999 54.5153 98.9999Z" stroke="currentColor" stroke-width="1.5" stroke-miterlimit="10" fill="none" />
<path d="M54.5153 96.0687C55.2177 96.0687 55.7871 95.4993 55.7871 94.7969C55.7871 94.0945 55.2177 93.5251 54.5153 93.5251C53.8129 93.5251 53.2435 94.0945 53.2435 94.7969C53.2435 95.4993 53.8129 96.0687 54.5153 96.0687Z" stroke="currentColor" stroke-width="1.5" stroke-miterlimit="10" fill="none" />
<path d="M33.8591 98.9999C36.1144 98.9999 37.9427 97.1716 37.9427 94.9163C37.9427 92.661 36.1144 90.8328 33.8591 90.8328C31.6038 90.8328 29.7756 92.661 29.7756 94.9163C29.7756 97.1716 31.6038 98.9999 33.8591 98.9999Z" stroke="currentColor" stroke-width="1.5" stroke-miterlimit="10" fill="none" />
<path d="M33.8492 96.0687C34.5515 96.0687 35.1209 95.4993 35.1209 94.7969C35.1209 94.0945 34.5515 93.5251 33.8492 93.5251C33.1468 93.5251 32.5774 94.0945 32.5774 94.7969C32.5774 95.4993 33.1468 96.0687 33.8492 96.0687Z" stroke="currentColor" stroke-width="1.5" stroke-miterlimit="10" fill="none" />
<path d="M61.5994 47.4837H47.153C42.1255 47.4837 38.3202 42.953 39.1945 38.0051L41.4499 21.9789C42.1255 18.114 45.4838 15.2922 49.4084 15.2922H59.3937C63.3282 15.2922 66.6864 18.1239 67.3621 21.9988L69.5777 38.025C70.4322 42.963 66.6268 47.4837 61.6093 47.4837H61.5994Z" stroke="currentColor" stroke-width="1.5" stroke-miterlimit="10" fill="none" />
<path d="M61.5994 43.1915H47.153C42.1255 43.1915 38.3202 38.6608 39.1945 33.7129L41.4499 17.6867C42.1255 13.8217 45.4838 11 49.4084 11H59.3937C63.3282 11 66.6864 13.8317 67.3621 17.7066L69.5777 33.7327C70.4322 38.6707 66.6268 43.1915 61.6093 43.1915H61.5994Z" stroke="currentColor" stroke-width="1.5" stroke-miterlimit="10" fill="none" />
<path d="M64.2522 56.9126H45.5533C40.2691 56.9126 35.9853 61.1964 35.9853 66.4806V66.4906C35.9853 71.7748 40.2691 76.0586 45.5533 76.0586H64.2522C69.5365 76.0586 73.8202 71.7748 73.8202 66.4906V66.4806C73.8202 61.1964 69.5365 56.9126 64.2522 56.9126Z" stroke="currentColor" stroke-width="1.5" stroke-miterlimit="10" fill="none" />
<path d="M64.2522 52.8391H45.5533C40.2691 52.8391 35.9853 57.1229 35.9853 62.4071V62.4171C35.9853 67.7013 40.2691 71.9851 45.5533 71.9851H64.2522C69.5365 71.9851 73.8202 67.7013 73.8202 62.4171V62.4071C73.8202 57.1229 69.5365 52.8391 64.2522 52.8391Z" stroke="currentColor" stroke-width="1.5" stroke-miterlimit="10" fill="none" />
<path d="M32.1502 44.8108C32.1502 43.1097 30.7734 41.7307 29.0751 41.7307C27.3768 41.7307 26 43.1097 26 44.8108V58.6511C26 60.3522 27.3768 61.7312 29.0751 61.7312C30.7734 61.7312 32.1502 60.3522 32.1502 58.6511V44.8108Z" stroke="currentColor" stroke-width="1.5" stroke-miterlimit="10" fill="none" />
<path d="M29.388 61.9897C29.388 65.6461 32.3588 68.6168 36.0151 68.6168" stroke="currentColor" stroke-width="1.5" stroke-miterlimit="10" fill="none" />
<path d="M77.6454 58.6414C77.6454 60.3424 79.0222 61.7214 80.7205 61.7214C82.4188 61.7214 83.7956 60.3424 83.7956 58.6414V44.801C83.7956 43.1 82.4188 41.721 80.7205 41.721C79.0222 41.721 77.6454 43.1 77.6454 44.801V58.6414Z" stroke="currentColor" stroke-width="1.5" stroke-miterlimit="10" fill="none" />
<path d="M32.1601 55.4221C32.1601 57.1112 30.779 58.5022 29.0801 58.5022C27.391 58.5022 26 57.1211 26 55.4221" stroke="currentColor" stroke-width="1.5" stroke-miterlimit="10" fill="none" />
<path d="M77.6355 55.4221C77.6355 57.1112 79.0166 58.5022 80.7156 58.5022C82.4046 58.5022 83.7956 57.1211 83.7956 55.4221" stroke="currentColor" stroke-width="1.5" stroke-miterlimit="10" fill="none" />
<path d="M80.4076 61.9897C80.4076 65.6461 77.4368 68.6168 73.7805 68.6168" stroke="currentColor" stroke-width="1.5" stroke-miterlimit="10" fill="none" />
<path d="M39.0554 34.905V39.0482" stroke="currentColor" stroke-width="1.5" stroke-miterlimit="10" fill="none" />
<path d="M69.6771 34.905V39.0482" stroke="currentColor" stroke-width="1.5" stroke-miterlimit="10" fill="none" />
<path d="M57.5755 47.9504V52.7494" stroke="currentColor" stroke-width="1.5" stroke-miterlimit="10" fill="none" />
<path d="M51.7134 47.9504V52.7494" stroke="currentColor" stroke-width="1.5" stroke-miterlimit="10" fill="none" />
<path d="M54.4954 75.4622V91.2797" stroke="currentColor" stroke-width="1.5" stroke-miterlimit="10" fill="none" />
<path d="M54.6643 82.6558C45.0367 82.6558 36.969 86.1531 34.8527 90.8427" stroke="currentColor" stroke-width="1.5" stroke-miterlimit="10" fill="none" />
<path d="M78.9371 94.9163C78.9371 97.1717 77.1089 98.9999 74.8535 98.9999C72.5981 98.9999 70.77 97.1717 70.77 94.9163C70.77 92.6609 72.5981 90.8328 74.8535 90.8328C77.1089 90.8328 78.9371 92.6609 78.9371 94.9163Z" stroke="currentColor" stroke-width="1.5" stroke-miterlimit="10" fill="none" />
<path d="M74.8535 96.0687C75.5559 96.0687 76.1253 95.4993 76.1253 94.7969C76.1253 94.0945 75.5559 93.5251 74.8535 93.5251C74.1512 93.5251 73.5818 94.0945 73.5818 94.7969C73.5818 95.4993 74.1512 96.0687 74.8535 96.0687Z" stroke="currentColor" stroke-width="1.5" stroke-miterlimit="10" fill="none" />
<path d="M54.0483 82.6558C63.676 82.6558 71.7437 86.1531 73.86 90.8427" stroke="currentColor" stroke-width="1.5" stroke-miterlimit="10" fill="none" />
</svg>