<?xml version='1.0' encoding='utf-8'?>
<svg xmlns="http://www.w3.org/2000/svg" id="Layer_1" data-name="Layer 1" width="110" height="110" viewBox="0 0 110 110">
  <g>
    <path d="M84.0074,32.3199c6.6673,0,12.072,5.4047,12.072,12.0718s-5.4047,12.072-12.072,12.072v-24.1438Z" style="fill:none;stroke:currentColor;stroke-linecap:round;stroke-linejoin:round;stroke-width:1.5" />
    <path d="M35.7197,32.3199c-6.6673,0-12.072,5.4047-12.072,12.0718s5.4047,12.072,12.072,12.072v-24.1438Z" style="fill:none;stroke:currentColor;stroke-linecap:round;stroke-linejoin:round;stroke-width:1.5" />
    <path d="M35.7197,32.3199c0-13.3344,10.8094-24.1441,24.1438-24.1441s24.1438,10.8097,24.1438,24.1441" style="fill:none;stroke:currentColor;stroke-linecap:round;stroke-linejoin:round;stroke-width:1.5" />
    <path d="M65.7543,74.7169c10.0807,0,18.2531-8.1721,18.2531-18.2531" style="fill:none;stroke:currentColor;stroke-linecap:round;stroke-linejoin:round;stroke-width:1.5" />
    <path d="M65.7543,74.7169c0,3.2534-2.6373,5.891-5.8907,5.891s-5.8907-2.6376-5.8907-5.891,2.6373-5.8907,5.8907-5.8907,5.8907,2.6376,5.8907,5.8907Z" style="fill:none;stroke:currentColor;stroke-linecap:round;stroke-linejoin:round;stroke-width:1.5" />
    <path d="M41.8152,32.3199c0-9.968,8.0804-18.0484,18.0484-18.0484s18.0484,8.0805,18.0484,18.0484" style="fill:none;stroke:currentColor;stroke-linecap:round;stroke-linejoin:round;stroke-width:1.5" />
    <circle cx="50.5285" cy="38.2886" r="2.581" style="fill:none;stroke:currentColor;stroke-miterlimit:10;stroke-width:1.5" />
    <circle cx="68.8224" cy="38.2886" r="2.581" style="fill:none;stroke:currentColor;stroke-miterlimit:10;stroke-width:1.5" />
    <path d="M41.8152,32.3199c0-9.968,8.0804-18.0484,18.0484-18.0484s18.0484,8.0805,18.0484,18.0484" style="fill:none;stroke:currentColor;stroke-linecap:round;stroke-linejoin:round;stroke-width:1.5" />
    <path d="M70.6743,52.881c-.5939,1.4036-1.4529,2.6678-2.5144,3.7293-1.0616,1.0616-2.3258,1.9206-3.7294,2.5142-1.4038.5939-2.947.9222-4.5669.9222s-3.1633-.3283-4.5669-.9222c-1.4035-.5936-2.6678-1.4526-3.7293-2.5142s-1.9206-2.3258-2.5144-3.7293" style="fill:none;stroke:currentColor;stroke-linecap:round;stroke-linejoin:round;stroke-width:1.5" />
  </g>
  <path d="M18.2298,68.2765c-.1358.1379-.222.3072-.2583.5067-.0381.2007-.0576.3462-.0599.4363.0032,2.0793.7418,3.8537,2.2142,5.3227,1.4123,1.412,3.1067,2.1467,5.0839,2.2032.039.0017.0791.0017.1193,0,.0267.0005.053.0005.0791,0,1.7866.0698,3.3226.6958,4.6071,1.8774l7.1687,7.1582c1.1438,1.2485,1.7628,2.7349,1.857,4.4587.0035.0489.007.0984.0099.1489-.0006.0297-.0006.0588,0,.0885-.0012.0401-.0012.0808,0,.1193.053,1.9734.7848,3.6652,2.1939,5.0742,1.4725,1.4702,3.2498,2.2038,5.3326,2.2038.0896.0011.235-.0157.4363-.0495.1996-.0372.3683-.1227.5067-.2577l.2775-.2781-4.1201-4.1201,1.3998-4.2697,4.2795-1.4102,4.1207,4.1202.2775-.288c.1361-.1385.2223-.3072.2583-.5056.0378-.199.0576-.3409.0599-.427,0-2.0793-.7348-3.8537-2.2044-5.3226-1.2811-1.2788-2.7937-2.0031-4.5379-2.1736-.1821-.0145-.3677-.025-.5556-.0308-.0361-.0006-.0721-.0006-.1094,0-.0303-.0035-.0599-.007-.089-.0099-1.7866-.0669-3.3226-.6889-4.6077-1.8658l-7.1686-7.1687c-1.1775-1.2822-1.7994-2.814-1.8663-4.5978-.0029-.0291-.0058-.0587-.0099-.089.0006-.0396.0006-.0797,0-.1187-.0535-1.9774-.7848-3.6721-2.1945-5.0842-1.469-1.4661-3.2429-2.1985-5.3221-2.1945-.0902-.0046-.2356.0088-.4369.0402-.199.0366-.3677.1222-.5062.2583l-.288.2874,4.1207,4.1207-1.4004,4.2697-4.2694,1.3998-4.1105-4.1108-.2877.2781ZM39.8386,76.3898l6.8969-7.3279-.8738-.875,1.718-3.4045,3.3958-1.7087,1.7477,1.7378-1.718,3.4063-3.3958,1.7174-.8738-.8732M33.1626,87.9952l-8.4893,8.519c-.434.413-.9207.6976-1.4594.854-.3311.0978-.6821.1472-1.0524.1495-.4643-.0023-.898-.0779-1.3006-.2286-.4413-.1658-.8456-.4247-1.2116-.7749l-.377-.3672c-.4535-.4759-.7513-1.0152-.8936-1.6185-.071-.2833-.1077-.5811-.1094-.8936.0046-.3741.0573-.7284.1588-1.0623.1533-.5323.4346-1.0129.8442-1.4393l8.5187-8.5097" style="fill:none;fill-rule:evenodd;stroke:currentColor;stroke-miterlimit:10;stroke-width:1.5" />
</svg>