<?xml version='1.0' encoding='utf-8'?>
<svg xmlns="http://www.w3.org/2000/svg" id="Layer_1" data-name="Layer 1" width="110" height="110" viewBox="0 0 110 110">
  <polygon points="50.6333 46.6875 61.9349 46.6875 61.9349 57.9891 73.2366 57.9891 73.2366 69.2907 61.9349 69.2907 61.9349 80.5923 50.6333 80.5923 50.6333 69.2907 39.3317 69.2907 39.3317 57.9891 50.6333 57.9891 50.6333 46.6875" style="fill:none;stroke:currentColor;stroke-linecap:round;stroke-linejoin:round;stroke-width:1.5" />
  <path d="M91.3191,55.385v28.7787c0,3.6451-2.9549,6.6-6.6,6.6H27.8491c-3.6451,0-6.6-2.9549-6.6-6.6v-41.0477c0-3.6451,2.9549-6.6,6.6-6.6l38.3949.0619" style="fill:none;stroke:currentColor;stroke-linecap:round;stroke-linejoin:round;stroke-width:1.5" />
  <path d="M40.4619,31.9954v-3.3905c0-4.3692,3.5419-7.9111,7.9111-7.9111h15.8223c4.3692,0,7.9111,3.5419,7.9111,7.9111v3.3905" style="fill:none;stroke:currentColor;stroke-linecap:square;stroke-linejoin:round;stroke-width:1.5" />
  <polyline points="48.373 31.9954 48.373 28.6049 64.1953 28.6049 64.1953 31.9954" style="fill:none;stroke:currentColor;stroke-linecap:square;stroke-linejoin:round;stroke-width:1.5" />
  <path d="M93.174,31.7252c-.1348-.1917-.4221-.2748-.6383-.1846l-2.6809.952c-.2231.093-.5647.0522-.7595-.0907l-1.7682-1.1245c-.212-.116-.3939-.4084-.4046-.6496l-.2774-2.8325c-.0102-.2342-.2076-.4587-.4385-.499l-2.9669-.5181c-.2309-.0403-.4925.1042-.5817.3208l-1.2204,2.5699c-.0917.2234-.3623.4358-.601.4725l-2.0456.454c-.2318.0677-.5674-.0102-.7457-.1732l-2.2013-1.8046c-.173-.158-.4714-.1772-.6631-.0423l-2.4593,1.7287c-.1917.1348-.2747.4221-.1845.6383l.9521,2.6808c.093.2231.0522.5648-.0907.7595l-1.1249,1.7681c-.116.2119-.4083.3939-.6496.4046l-2.8323.2774c-.2341.0103-.4587.2076-.4991.4384l-.5181,2.967c-.0403.2309.1041.4927.3209.5817l2.5697,1.2204c.2234.0918.4361.3622.4726.601l.4544,2.0458c.0677.2319-.0103.5673-.1732.7456l-1.8051,2.2008c-.1582.173-.1774.4713-.0425.6632l1.7291,2.4594c.1348.1917.4221.2749.6384.1847l2.6808-.9521c.223-.0929.5648-.0521.7595.0907l1.7677,1.1251c.2119.1161.3939.4084.4045.6498l.2778,2.832c.0102.2342.2076.4588.4385.499l2.967.518c.2309.0403.4924-.1041.5817-.3208l1.2205-2.5691c.0918-.2235.3623-.4362.601-.4728l2.0455-.4544c.232-.0677.5675.0102.7457.1732l2.2011,1.8047c.1731.1581.4713.1772.6632.0425l2.4595-1.729c.1916-.1348.2747-.4221.1846-.6384l-.9523-2.6808c-.093-.2229-.0523-.5647.0907-.7595l1.1247-1.7677c.1161-.2119.4083-.394.6496-.4046l2.8326-.2777c.2341-.0102.4587-.2076.499-.4385l.5182-2.9671c.0402-.2309-.1041-.4926-.321-.5816l-2.5695-1.22c-.2234-.0917-.4361-.3622-.4727-.601l-.4543-2.0461c-.0679-.232.0101-.5675.1732-.7457l1.8048-2.2008c.1582-.1731.1772-.4714.0424-.6632l-1.7287-2.4593ZM88.911,36.551c1.2527,1.7827,1.7361,3.9465,1.3612,6.0928-.3748,2.1463-1.5629,4.0182-3.3457,5.2708-3.68,2.5858-8.7777,1.6956-11.3635-1.9844-1.2527-1.7827-1.7361-3.9465-1.3613-6.0928.3748-2.1463,1.5629-4.0182,3.3457-5.2708,3.68-2.5857,8.7776-1.6955,11.3635,1.9844Z" style="fill:none;stroke:currentColor;stroke-miterlimit:10;stroke-width:1.5" />
</svg>