<?xml version='1.0' encoding='utf-8'?>
<svg xmlns="http://www.w3.org/2000/svg" version="1.1" id="Layer_1" x="0px" y="0px" viewBox="0 0 110 110" style="enable-background:new 0 0 110 110;fill:none;stroke:currentColor;stroke-width:1.5" xml:space="preserve">
<path style="fill:none;stroke:currentColor;stroke-width:1.5;stroke-miterlimit:10" d="M45.029,58.259c0,0,9.276,8.435,19.387,0  c0,0,12.474,4.894,9.099,23.116c0,0-17.024,5.906-37.257,0C36.258,81.375,33.06,65.012,45.029,58.259z" />
<path style="fill:none;stroke:currentColor;stroke-width:1.5;stroke-miterlimit:10" d="M69.647,48.307c0,0,0.114,3.073-2.363,6.917  c0,0,9.946,5.906,10.11,17.211c0,0,12.815,0.506,18.881-2.188c0,0,4.385-15.516-8.43-23.281  C87.846,46.966,79.265,54.377,69.647,48.307z" />
<path style="fill:none;stroke:currentColor;stroke-width:1.5;stroke-miterlimit:10" d="M40.353,48.307c0,0-0.114,3.073,2.363,6.917  c0,0-9.946,5.906-10.111,17.211c0,0-12.815,0.506-18.881-2.188c0,0-4.385-15.516,8.43-23.281  C22.154,46.966,30.735,54.377,40.353,48.307z" />
<path style="fill:none;stroke:currentColor;stroke-width:1.5;stroke-miterlimit:10" d="M54.975,57.918c5.772,0,10.452-4.682,10.452-10.458  c0-5.776-4.679-10.458-10.452-10.458S44.523,41.684,44.523,47.46C44.523,53.235,49.202,57.918,54.975,57.918z" />
<path style="fill:none;stroke:currentColor;stroke-width:1.5;stroke-miterlimit:10" d="M77.963,46.916c5.772,0,10.452-4.682,10.452-10.458  C88.415,30.682,83.736,26,77.963,26s-10.452,4.682-10.452,10.458C67.512,42.234,72.191,46.916,77.963,46.916z" />
<path style="fill:none;stroke:currentColor;stroke-width:1.5;stroke-miterlimit:10" d="M32.1,46.916c5.772,0,10.452-4.682,10.452-10.458  C42.551,30.682,37.872,26,32.1,26s-10.452,4.682-10.452,10.458C21.648,42.234,26.327,46.916,32.1,46.916z" />
</svg>