<?xml version='1.0' encoding='utf-8'?>
<svg xmlns="http://www.w3.org/2000/svg" version="1.1" id="Layer_1" x="0px" y="0px" viewBox="0 0 110 110" style="enable-background:new 0 0 110 110;fill:none;stroke:currentColor;stroke-width:1.5" xml:space="preserve">
<path style="fill:none;stroke:currentColor;stroke-width:1.5;stroke-linecap:round;stroke-linejoin:round" d="M61.569,94.21l-1.804-0.007  L57.953,96l-7.217-0.027l-1.798-1.811l-1.804-0.007 M43.566,83.318l21.652,0.081 M45.35,88.737l18.043,0.067 M63.427,79.784  l0.014-3.608c0.012-3.259,1.156-6.258,3.427-8.558c3.423-3.465,5.656-7.757,5.675-13.057c0.037-9.964-8.011-18.071-17.976-18.108  c-9.965-0.037-18.074,8.01-18.111,17.973c-0.02,5.3,2.181,9.609,5.578,13.099c2.254,2.316,3.375,5.324,3.363,8.583l-0.014,3.608   M54.655,13l-0.061,16.236 M25.738,25.521l10.966,11.047 M13,54.338l16.239,0.061 M25.522,83.25l11.049-10.964 M83.262,83.466  L72.295,72.419 M96,54.648l-16.239-0.061 M83.477,25.736L72.429,36.701 M42.183,24.446l2.737,6.677 M24.541,41.954l6.657,2.786   M24.448,66.808l6.678-2.737 M84.459,67.032l-6.658-2.786 M84.552,42.179l-6.678,2.737 M67.041,24.539l-2.787,6.656 M56.989,57.797  c-1.543,1.225-3.789,0.965-5.015-0.58c-1.227-1.545-0.97-3.791,0.574-5.016c1.543-1.225,3.789-0.965,5.015,0.58  C58.79,54.326,58.533,56.572,56.989,57.797z M56.396,45.732l1.167-2.817l3.767,1.564l-1.167,2.817  c-0.168,0.403-0.06,0.869,0.274,1.156c0.316,0.273,0.614,0.568,0.889,0.888c0.282,0.329,0.743,0.437,1.145,0.267  c1.027-0.426,2.816-1.166,2.816-1.166l1.562,3.768l-2.812,1.162c-0.401,0.163-0.653,0.568-0.624,1.005  c0.031,0.422,0.03,0.84-0.002,1.255c-0.034,0.438,0.223,0.843,0.623,1.007l2.817,1.17l-1.559,3.766l-2.817-1.171  c-0.403-0.169-0.869-0.061-1.156,0.273c-0.273,0.316-0.563,0.61-0.882,0.884c-0.328,0.282-0.433,0.747-0.27,1.149  c0.427,1.028,1.169,2.819,1.169,2.819l-3.765,1.557l-1.166-2.814c-0.163-0.402-0.568-0.654-1.006-0.625  c-0.422,0.03-0.84,0.029-1.254-0.003c-0.438-0.035-0.842,0.222-1.006,0.621l-1.167,2.817l-3.767-1.564l1.167-2.817  c0.168-0.403,0.06-0.869-0.274-1.156c-0.316-0.273-0.61-0.564-0.885-0.884c-0.282-0.329-0.747-0.434-1.149-0.271  c-1.027,0.426-2.816,1.166-2.816,1.166l-1.562-3.768l2.812-1.162c0.401-0.163,0.653-0.568,0.624-1.005  c-0.031-0.422-0.03-0.84,0.001-1.255c0.034-0.438-0.223-0.843-0.623-1.007l-2.817-1.171l1.559-3.766l2.817,1.171  c0.403,0.169,0.869,0.061,1.156-0.273c0.273-0.316,0.563-0.61,0.882-0.885c0.328-0.282,0.433-0.747,0.269-1.149  c-0.427-1.028-1.169-2.819-1.169-2.819l3.764-1.557l1.166,2.814c0.163,0.402,0.568,0.654,1.006,0.625  c0.422-0.03,0.84-0.029,1.254,0.003C55.828,46.389,56.232,46.132,56.396,45.732z" />
</svg>