<?xml version='1.0' encoding='utf-8'?>
<svg xmlns="http://www.w3.org/2000/svg" id="Layer_1" data-name="Layer 1" width="110" height="110" viewBox="0 0 110 110">
  <g>
    <path d="M91.5621,82.6209s-7.362,6.6927-15.3932,0c0,0-9.9052,3.8818-7.2281,18.338,0,0,13.5192,4.6849,29.5817,0,0,0,2.5432-12.9838-6.9604-18.338Z" style="fill:none;stroke:currentColor;stroke-miterlimit:10;stroke-width:1.5" />
    <path d="M72.0195,74.7236s-.0924,2.4368,1.874,5.488c0,0-7.8974,4.6849-8.0312,13.6531,0,0-10.1729.4016-14.9916-1.7401,0,0-3.4802-12.3146,6.6927-18.4718,0,0,6.8265,5.8896,14.4562,1.0708Z" style="fill:none;stroke:currentColor;stroke-miterlimit:10;stroke-width:1.5" />
    <circle cx="83.6648" cy="74.0543" r="8.2989" style="fill:none;stroke:currentColor;stroke-miterlimit:10;stroke-width:1.5" />
    <circle cx="65.413" cy="65.3157" r="8.2989" style="fill:none;stroke:currentColor;stroke-miterlimit:10;stroke-width:1.5" />
  </g>
  <g>
    <circle cx="28.6177" cy="50.3948" r="5.6771" style="fill:none;stroke:currentColor;stroke-linecap:round;stroke-linejoin:round;stroke-width:1.5" />
    <path d="M35.749,63.558c-.4558-.5249-1.1952-.7015-1.8361-.4324-.6089.2556-1.2394.4684-1.8879.6345-.6697.1715-1.15.7528-1.1986,1.4424-.1243,1.7633-.3408,4.8367-.3408,4.8367l-6.4721-.4561.3405-4.8323c.0486-.6899-.3454-1.337-.9846-1.6009-.6186-.2553-1.2129-.5544-1.7797-.8928-.5969-.3563-1.3537-.2852-1.8786.1706l-3.6614,3.1794-4.2564-4.9017,3.6614-3.1794c.5249-.4558.7015-1.1952.4324-1.8361-.2556-.6089-.4684-1.2394-.6345-1.8879-.1715-.6697-.7529-1.15-1.4424-1.1986-1.7633-.1243-4.8367-.3408-4.8367-.3408l.4561-6.4721,4.8323.3405c.6899.0486,1.337-.3454,1.6009-.9846.2553-.6186.5544-1.2129.8928-1.7797.3563-.5969.2852-1.3537-.1706-1.8786l-3.1794-3.6614,4.9017-4.2564,3.1794,3.6614c.4558.5249,1.1951.7015,1.8361.4324.6099-.256,1.2415-.4691,1.8911-.6353.6678-.1708,1.1467-.7506,1.1951-1.4382.1242-1.7628.3411-4.8401.3411-4.8401l6.4721.4561-.3405,4.8323c-.0486.6899.3454,1.337.9846,1.6009.6186.2553,1.2129.5544,1.7797.8928.5969.3563,1.3537.2852,1.8786-.1706l3.6614-3.1794,4.2564,4.9017-3.6614,3.1794c-.5249.4558-.7015,1.1952-.4324,1.8361" style="fill:none;stroke:currentColor;stroke-linecap:round;stroke-linejoin:round;stroke-width:1.5" />
  </g>
  <g>
    <ellipse cx="46.7567" cy="19.5016" rx="4.0008" ry="4.1897" transform="translate(-2.2035 6.4862) rotate(-7.7534)" style="fill:none;stroke:currentColor;stroke-linecap:round;stroke-linejoin:round;stroke-width:1.5" />
    <path d="M37.1376,14.8238l-2.7357-2.1814,2.7483-3.7932,2.7357,2.1814c.3922.3127.9282.3322,1.3303.044.3826-.2742.7864-.5206,1.2097-.7357.4351-.2211.6793-.7102.6107-1.2142-.1759-1.2923-.4831-3.5481-.4831-3.5481l4.5305-.6169.4823,3.5424c.0689.5057.4366.9158.9165,1.0131.4645.0941.9186.2233,1.3597.385.4645.1703.9758.0081,1.2701-.3981l2.0529-2.8334,3.6624,2.9203-2.0529,2.8334c-.2943.4062-.3064.9664-.0257,1.3903.2666.4027.5069.8273.7177,1.2717.2176.4589.6898.7211,1.1725.6554,1.2344-.1681,3.3857-.461,3.3857-.461l.646,4.7445-3.3826.4606c-.4829.0658-.8707.4451-.9578.9458-.0843.4845-.2023.9577-.3515,1.4169-.1571.4835.0042,1.0201.3964,1.3329l2.7357,2.1814-2.7483,3.7932-2.7357-2.1814c-.3922-.3127-.9282-.3322-1.3303-.044-.3819.2738-.7851.5198-1.2076.7347-.4363.2219-.6813.7123-.6124,1.2178.176,1.2927.4827,3.5456.4827,3.5456l-4.5305.6169-.4823-3.5424c-.0689-.5057-.4366-.9158-.9165-1.0131-.4645-.0941-.9186-.2233-1.3597-.385-.4645-.1703-.9758-.0081-1.2701.3981l-2.0529,2.8334-3.6624-2.9203,2.0529-2.8334c.2943-.4062.3064-.9664.0257-1.3903-.2666-.4027-.5069-.8273-.7177-1.2717-.2176-.4589-.6898-.7211-1.1725-.6554-1.2344.1681-3.3857.461-3.3857.461l-.646-4.7445,3.3826-.4606c.4829-.0658.8707-.4451.9578-.9458.0843-.4845.2023-.9577.3515-1.4169.1571-.4835-.0042-1.0201-.3964-1.3329Z" style="fill:none;stroke:currentColor;stroke-linecap:round;stroke-linejoin:round;stroke-width:1.5" />
  </g>
  <path d="M49.2468,75.3502l-5.3835,2.9911-4.0044-7.2072,5.3835-2.9911c.7718-.4288,1.1851-1.3013,1.0187-2.1684-.158-.8237-.2572-1.663-.2936-2.5124-.0376-.8772-.6341-1.6265-1.4783-1.8676-2.1587-.6167-5.9212-1.6915-5.9212-1.6915l2.2634-7.9233,5.9158,1.6899c.8446.2413,1.752-.0787,2.2475-.8039.4795-.7018,1.0069-1.3619,1.576-1.9777.5993-.6484.7093-1.6075.2805-2.3793l-2.9911-5.3835,7.2072-4.0044,2.9912,5.3836c.4288.7718,1.3013,1.185,2.1684,1.0187.825-.1583,1.6657-.2575,2.5166-.2937.8746-.0372,1.6217-.6322,1.8622-1.4739.6165-2.1581,1.6927-5.9254,1.6927-5.9254l7.9233,2.2634-1.6899,5.9158c-.2413.8446.0787,1.752.8039,2.2475.7018.4795,1.3619,1.0069,1.9777,1.576.6484.5993,1.6075.7093,2.3793.2805l5.3835-2.9911,4.0044,7.2072-5.3835,2.9911c-.7718.4288-1.1851,1.3013-1.0187,2.1684.158.8237.2572,1.663.2936,2.5124" style="fill:none;stroke:currentColor;stroke-linecap:round;stroke-linejoin:round;stroke-width:1.5" />
</svg>