<?xml version='1.0' encoding='utf-8'?>
<svg xmlns="http://www.w3.org/2000/svg" id="Layer_1" data-name="Layer 1" width="110" height="110" viewBox="0 0 110 110">
  <path d="M49.9193,28.2947l4.8839-15.0453,4.8839,15.0453h15.8192l-12.7929,9.3025,4.8839,15.0453-12.7929-9.3025-12.7929,9.3025,4.8839-15.0453-12.7929-9.3025h15.8168Z" style="fill:none;stroke:currentColor;stroke-width:1.5" />
  <path d="M36.7595,64.8437H8.9918l2.9558,7.7972h21.8572l2.9546-7.7972Z" style="fill:none;stroke:currentColor;stroke-width:1.5" />
  <path d="M73.2259,64.8437h27.7823l-2.9692,7.7972h-21.8439l-2.9692-7.7972Z" style="fill:none;stroke:currentColor;stroke-width:1.5" />
  <path d="M40.7152,88.3058c-4.6579,0-8.4302,3.7723-8.4302,8.4448h45.0509c0-4.6579-3.7723-8.4448-8.4448-8.4448h-28.1759Z" style="fill:none;stroke:currentColor;stroke-width:1.5" />
  <path d="M54.8032,43.34l12.7929,9.3025-4.8839-15.0453,12.7929-9.3025h-15.818l-4.8839-15.0453-4.8839,15.0453h-15.8192l12.7929,9.3025-4.8839,15.0453,12.7941-9.3025ZM54.8032,43.34v31.7793M22.8829,28.2947h7.6988M22.8829,28.2947l13.8766,36.5782M22.8829,28.2947l-13.8911,36.5782M87.1158,28.2947h-7.6988M87.1158,28.2947l-13.8899,36.5782M87.1158,28.2947l13.8911,36.5782M54.8032,75.1181c7.2906,0,13.1962,5.8971,13.1962,13.1877M54.8032,75.1181c-7.2906,0-13.1987,5.8971-13.1987,13.1877M36.7595,64.8437H8.9918l2.9558,7.7972h21.8572l2.9546-7.7972ZM73.2259,64.8437h27.7823l-2.9692,7.7972h-21.8439l-2.9692-7.7972ZM40.7152,88.3058c-4.6579,0-8.4302,3.7723-8.4302,8.4448h45.0509c0-4.6591-3.7723-8.4448-8.4448-8.4448h-28.1759Z" style="fill:none;stroke:currentColor;stroke-linecap:round;stroke-linejoin:round;stroke-width:1.5" />
</svg>