<?xml version='1.0' encoding='utf-8'?>
<svg xmlns="http://www.w3.org/2000/svg" width="110" height="110" viewBox="0 0 110 110" fill="none" stroke="currentColor" stroke-width="1.5">
<path d="M34.6227 87.1771L45.2925 76.5042M34.6227 87.1771C36.1553 85.6441 33.2155 83.3381 31.9999 84.554M34.6227 87.1771C33 88.5 30.5 86 31.9999 84.554M45.2925 76.5042L89.7103 32.0736L99.1597 20L87.0144 29.5236L42.6597 73.8912M45.2925 76.5042C44.7299 75.3772 44.2992 74.7712 42.6597 73.8912M42.6597 73.8912L31.9999 84.554" stroke="currentColor" stroke-width="1.5" stroke-linecap="round" stroke-linejoin="round" fill="none" />
<path d="M18.6227 89.1772L29.2925 78.5043M18.6227 89.1772C20.0802 87.7193 17.3001 85.2536 15.9999 86.5541M18.6227 89.1772C17.0802 90.6683 14.4464 88.0622 15.9999 86.5541M29.2925 78.5043L73.7103 34.0737L83.1597 22L71.0144 31.5237L26.6597 75.8913M29.2925 78.5043C28.7299 77.3773 28.2992 76.7713 26.6597 75.8913M26.6597 75.8913L15.9999 86.5541" stroke="currentColor" stroke-width="1.5" stroke-linecap="round" stroke-linejoin="round" fill="none" />
</svg>