<?xml version='1.0' encoding='utf-8'?>
<svg xmlns="http://www.w3.org/2000/svg" version="1.1" id="Layer_1" x="0px" y="0px" viewBox="0 0 110 110" style="enable-background:new 0 0 110 110;fill:none;stroke:currentColor;stroke-width:1.5" xml:space="preserve">
<path style="fill:none;stroke:currentColor;stroke-width:1.5;stroke-linecap:round;stroke-linejoin:round" d="M62.083,79.184h37.288  c0.347,0,0.629,0.281,0.629,0.628v1.914C100,83.534,98.532,85,96.72,85H12.281C10.47,85,9.001,83.534,9,81.725l0-1.913  c0-0.347,0.282-0.628,0.629-0.628h38.804 M53.121,29.505h2.758 M17.733,33.818h73.535 M9.258,79.305l8.474-9.297 M17.733,70.008  V31.653c0-3.674,2.984-6.653,6.664-6.653h60.207c3.68,0,6.664,2.978,6.664,6.653v38.355 M17.733,70.008h17.924 M91.267,70.008  l8.514,9.328 M91.267,70.008H73.343 M33.818,74.903h1.838 M20.95,74.903h1.838 M27.384,74.903h1.838 M79.778,74.903h1.838   M86.212,74.903h1.838 M73.343,74.903h1.838" />
<path style="fill:none;stroke:currentColor;stroke-width:1.5;stroke-linejoin:round;stroke-miterlimit:10" d="M67.999,41.021V39H41v21.127  c3.781,0,7.901-2.53,12.008-9.163C57.137,44.295,63.145,41.021,67.999,41.021z M41.001,63.976V66H68V44.871  c-3.817,0.02-7.902,2.53-12.009,9.163C51.862,60.703,45.855,63.976,41.001,63.976z" />
</svg>