<?xml version='1.0' encoding='utf-8'?>
<svg xmlns="http://www.w3.org/2000/svg" id="Layer_1" data-name="Layer 1" width="110" height="110" viewBox="0 0 110 110">
  <circle cx="58.1309" cy="56.0443" r="6.5921" style="fill:none;stroke:currentColor;stroke-linecap:round;stroke-linejoin:round;stroke-width:1.5" />
  <path d="M68.4343,43.1778l2.4067-4.6925c.4154-.8099.0956-1.8031-.7143-2.2185l-2.9328-1.5042c-.8099-.4154-1.8031-.0956-2.2185.7143l-2.4067,4.6925c-2.0725-.5814-4.2011-.7285-6.2598-.5064l-1.6164-5.0202c-.2789-.8664-1.2074-1.3426-2.0738-1.0636l-3.1188,1.0042c-.8664.2789-1.3426,1.2074-1.0636,2.0738l1.6164,5.0202c-1.8015,1.0208-3.4444,2.3822-4.7883,4.0636l-4.6925-2.4067c-.8099-.4154-1.8031-.0956-2.2185.7143l-1.5042,2.9328c-.4154.8099-.0956,1.8031.7143,2.2185l4.6925,2.4067c-.5814,2.0725-.7285,4.2011-.5064,6.2598l-5.0202,1.6164c-.8664.2789-1.3426,1.2074-1.0636,2.0738l1.0042,3.1188c.2789.8664,1.2074,1.3426,2.0738,1.0636l5.0202-1.6164c1.0208,1.8015,2.3822,3.4444,4.0636,4.7883l-2.4067,4.6925c-.4154.8099-.0956,1.8031.7143,2.2185l2.9328,1.5042c.8099.4154,1.8031.0956,2.2185-.7143l2.4067-4.6925c2.0725.5814,4.2011.7285,6.2598.5064l1.6164,5.0202c.2789.8664,1.2074,1.3426,2.0738,1.0636l3.1188-1.0042c.8664-.2789,1.3426-1.2074,1.0636-2.0738l-1.6164-5.0202c1.8015-1.0208,3.4444-2.3822,4.7883-4.0636l4.6925,2.4067c.8099.4154,1.8031.0956,2.2185-.7143l1.5042-2.9328c.4154-.8099.0956-1.8031-.7143-2.2185l-4.6925-2.4067c.5814-2.0725.7285-4.2011.5064-6.2598l5.0202-1.6164c.8664-.2789,1.3426-1.2074,1.0636-2.0738l-1.0042-3.1188c-.2789-.8664-1.2074-1.3426-2.0738-1.0636l-5.0202,1.6164c-1.0208-1.8015-2.3822-3.4444-4.0636-4.7883Z" style="fill:none;stroke:currentColor;stroke-linecap:round;stroke-linejoin:round;stroke-width:1.5" />
  <g>
    <path d="M13.9662,52.8034c1.1546-26.5095,26.8924-47.3216,54.6586-39.8816" style="fill:none;stroke:currentColor;stroke-linecap:round;stroke-linejoin:round;stroke-width:1.5" />
    <path d="M80.3869,91.7274c-23.8329,15.0345-57.1676,3.3584-64.9356-25.6322" style="fill:none;stroke:currentColor;stroke-linecap:round;stroke-linejoin:round;stroke-width:1.5" />
    <path d="M80.3824,17.9704c22.7993,14.0848,28.1807,47.1121,7.7052,67.5876" style="fill:none;stroke:currentColor;stroke-linecap:round;stroke-linejoin:round;stroke-width:1.5" />
    <polyline points="64.4041 6.2802 68.6248 12.9218 61.37 17.0002" style="fill:none;stroke:currentColor;stroke-linecap:round;stroke-linejoin:round;stroke-width:1.5" />
    <polyline points="95.9539 85.3457 88.0876 85.558 88.312 77.2385" style="fill:none;stroke:currentColor;stroke-linecap:round;stroke-linejoin:round;stroke-width:1.5" />
    <polyline points="11.702 73.0137 15.4513 66.0952 22.5439 70.4493" style="fill:none;stroke:currentColor;stroke-linecap:round;stroke-linejoin:round;stroke-width:1.5" />
  </g>
</svg>