<?xml version='1.0' encoding='utf-8'?>
<svg xmlns="http://www.w3.org/2000/svg" version="1.1" id="Layer_1" x="0px" y="0px" viewBox="0 0 110 110" style="enable-background:new 0 0 110 110;fill:none;stroke:currentColor;stroke-width:1.5" xml:space="preserve">
<path style="fill:none;stroke:currentColor;stroke-width:1.5;stroke-linecap:round;stroke-linejoin:round" d="M54.813,33.443  c6.719,4.941,11.1,12.877,11.102,21.857c0.002,8.98-4.374,16.822-11.091,21.766c-6.72-4.941-11.1-12.78-11.103-21.76  C43.72,46.326,48.096,38.387,54.813,33.443z M54.813,33.443l0.014,51.196 M47.614,41.318l7.203,5.582l7.196-5.591 M59.575,37.907  l-4.76,3.531l-4.777-3.51 M45.713,45.083l9.105,6.962l9.091-6.974 M44.47,48.96l10.349,7.884l10.355-7.847 M65.861,53.585  L54.82,61.771l-11.044-8.207 M43.982,59.079l10.84,8.088l10.836-8.094 M64.181,64.793l-9.358,7.051l-9.389-7.087 M16.015,55.397  C17.042,31.809,39.944,13.29,64.651,19.91 M64.651,19.91L60.895,14 M64.651,19.91l-6.455,3.629 M75.117,90.032  C53.91,103.41,24.248,93.02,17.336,67.224 M17.336,67.224L14,73.38 M17.336,67.224l6.311,3.874 M75.113,24.402  c20.287,12.533,25.075,41.921,6.856,60.14 M81.969,84.543l6.999-0.189 M81.969,84.543l0.2-7.403" />
</svg>