<?xml version='1.0' encoding='utf-8'?>
<svg xmlns="http://www.w3.org/2000/svg" id="Layer_1" data-name="Layer 1" width="110" height="110" viewBox="0 0 110 110">
  <g>
    <circle cx="56.9489" cy="55.7404" r="37.7263" style="fill:none;stroke:currentColor;stroke-linecap:round;stroke-linejoin:round;stroke-width:1.5" />
    <path d="M66.9436,85.5119c-2.758,4.985-6.2268,7.9548-9.9947,7.9548-4.0219,0-7.7029-3.3835-10.5425-8.9898" style="fill:none;stroke:currentColor;stroke-linecap:round;stroke-linejoin:round;stroke-width:1.5" />
    <path d="M46.3379,27.1399c2.8488-5.6876,6.5568-9.1258,10.611-9.1258,3.9462,0,7.5643,3.2574,10.3814,8.6759" style="fill:none;stroke:currentColor;stroke-linecap:round;stroke-linejoin:round;stroke-width:1.5" />
    <line x1="82.9846" y1="33.5057" x2="87.4298" y2="33.5057" style="fill:none;stroke:currentColor;stroke-linecap:round;stroke-linejoin:round;stroke-width:1.5" />
    <line x1="26.4729" y1="33.5057" x2="30.3101" y2="33.5057" style="fill:none;stroke:currentColor;stroke-linecap:round;stroke-linejoin:round;stroke-width:1.5" />
    <line x1="78.595" y1="76.8845" x2="87.4298" y2="76.8845" style="fill:none;stroke:currentColor;stroke-linecap:round;stroke-linejoin:round;stroke-width:1.5" />
    <line x1="26.4729" y1="76.8845" x2="35.6751" y2="76.8845" style="fill:none;stroke:currentColor;stroke-linecap:round;stroke-linejoin:round;stroke-width:1.5" />
    <line x1="89.8129" y1="55.7404" x2="94.6752" y2="55.7404" style="fill:none;stroke:currentColor;stroke-linecap:round;stroke-linejoin:round;stroke-width:1.5" />
    <line x1="19.2226" y1="55.7404" x2="24.4574" y2="55.7404" style="fill:none;stroke:currentColor;stroke-linecap:round;stroke-linejoin:round;stroke-width:1.5" />
  </g>
  <g>
    <path d="M80.3439,62.9345l3.8841-3.8783c6.6942-6.6845,3.3846-15.7158-2.0083-21.5135-1.7779-1.9116-3.8081-3.5682-5.9109-4.7463-2.739-1.5363-11.3271-3.7845-16.9428,1.6818l-11.6557,11.5982c-3.1461,3.1312,4.7932,6.1601,8.8114,2.2001l2.9363-2.8935c4.3376-3.9336,9.7884,3.9491,16.5826-1.4122M34.9741,61.0999l-3.878-3.8721c-12.9232-12.9044,9.4594-35.0599,22.5762-22.2923l2.6132,2.6003M65.6615,48.1926l15.0087,15.7336c3.0639,3.212-1.4855,9.3268-5.4172,5.2723l-7.0353-7.2538M62.087,66.8327l7.7332,7.9449c3.0961,3.1802,9.3641-1.5222,5.433-5.5793l-7.5583-7.7993M59.7374,75.6117l3.8628,3.8947c3.1263,3.1511,9.1953-1.3466,5.296-5.441" style="fill:none;stroke:currentColor;stroke-linecap:round;stroke-linejoin:round;stroke-width:1.5" />
    <path d="M44.1805,57.9072l.4125.4126c1.3939,1.3939,1.3906,3.6865-.0003,5.0775l-5.3449,5.3475c-1.3906,1.3906-3.6839,1.3932-5.0772,0l-.4125-.4126c-1.3932-1.3932-1.3965-3.6807-.0003-5.0775l5.3448-5.3474c1.3961-1.3968,3.6839-1.3939,5.0778,0h0ZM53.172,60.3539l.4125.4126c1.3965,1.3965,1.3916,3.6856-.0004,5.0775l-8.5143,8.5142c-1.3919,1.3919-3.6852,1.3919-5.0771,0l-.4126-.4125c-1.3919-1.3919-1.3962-3.681,0-5.0772l8.5143-8.5143c1.3965-1.3965,3.681-1.3968,5.0775-.0004h0ZM56.6517,68.3098l.4124.4125c1.3966,1.3965,1.3943,3.6837.0004,5.0775l-5.8373,5.8373c-1.3939,1.3939-3.6834,1.3939-5.0776-.0003l-.4125-.4125c-1.3939-1.3939-1.3965-3.6807,0-5.0772l5.8373-5.8373c1.3961-1.3961,3.6811-1.3961,5.0773,0h0ZM60.4046,75.9005l.4126.4125c1.3948,1.3948,1.3909,3.6863,0,5.0772l-3.5843,3.5842c-1.3909,1.3909-3.6853,1.3919-5.0772,0l-.4125-.4126c-1.3919-1.3919-1.3965-3.6813-.0004-5.0775l3.5843-3.5842c1.3961-1.3962,3.6824-1.3949,5.0775.0003h0Z" style="fill:none;stroke:currentColor;stroke-miterlimit:22.9256;stroke-width:1.5" />
  </g>
</svg>