<?xml version='1.0' encoding='utf-8'?>
<svg xmlns="http://www.w3.org/2000/svg" id="Layer_1" data-name="Layer 1" width="110" height="110" viewBox="0 0 110 110">
  <g>
    <path d="M44.9202,61.7839l-5.6957,6.1927,3.9543,3.621c-6.3875,8.0781-12.7775,16.1567-19.1698,24.2365l.0007.0161-11.2758-10.37.0332-.0014c7.5001-7.0422,15.0012-14.0834,22.5028-21.1232l3.9548,3.621" style="fill:none;fill-rule:evenodd;stroke:currentColor;stroke-linecap:round;stroke-linejoin:round;stroke-width:1.5" />
    <circle cx="63.8153" cy="41.7267" r="24.9276" style="fill:none;stroke:currentColor;stroke-linecap:round;stroke-linejoin:round;stroke-width:1.5" />
  </g>
  <g>
    <path d="M77.7969,67.0486c.8146.8147,1.9383,1.3203,3.1744,1.3203h6.6307c2.4721,0,4.4948,2.0227,4.4948,4.4948v2.6508c0,2.4721-2.0227,4.4946-4.4948,4.4946h-6.6307c-2.4721,0-4.4946-2.0225-4.4946-4.4946" style="fill:none;stroke:currentColor;stroke-linecap:round;stroke-linejoin:round;stroke-width:1.5" />
    <path d="M92.0968,61.2234c0-2.4721-2.0227-4.4948-4.4948-4.4948" style="fill:none;stroke:currentColor;stroke-linecap:round;stroke-linejoin:round;stroke-width:1.5" />
    <line x1="84.2867" y1="84.5882" x2="84.2867" y2="80.0091" style="fill:none;stroke:currentColor;stroke-linecap:round;stroke-linejoin:round;stroke-width:1.5" />
  </g>
  <g>
    <path d="M74.4492,31.7699c0-3.2482-2.6577-5.906-5.906-5.906h-8.7125c-3.2482,0-5.9058,2.6577-5.9058,5.906v3.483c0,3.2482,2.6575,5.9058,5.9058,5.9058h8.7125c3.2482,0,5.906,2.6577,5.906,5.906v3.483c0,3.2482-2.6577,5.9058-5.906,5.9058h-8.7125c-3.2482,0-5.9058-2.6575-5.9058-5.9058" style="fill:none;stroke:currentColor;stroke-linecap:round;stroke-linejoin:round;stroke-width:1.5" />
    <line x1="64.1871" y1="25.8639" x2="64.1871" y2="19.8472" style="fill:none;stroke:currentColor;stroke-linecap:round;stroke-linejoin:round;stroke-width:1.5" />
    <line x1="64.1871" y1="62.4702" x2="64.1871" y2="56.4535" style="fill:none;stroke:currentColor;stroke-linecap:round;stroke-linejoin:round;stroke-width:1.5" />
  </g>
</svg>