<?xml version='1.0' encoding='utf-8'?>
<svg xmlns="http://www.w3.org/2000/svg" version="1.1" id="Layer_1" x="0px" y="0px" viewBox="0 0 110 110" style="enable-background:new 0 0 110 110;fill:none;stroke:currentColor;stroke-width:1.5" xml:space="preserve">
<path style="fill:none;stroke:currentColor;stroke-width:1.5;stroke-linecap:round;stroke-miterlimit:10" d="M79,41.12  C79,27.8,68.254,17,55,17 M55,49.006V17 M31,41.12C31,27.8,41.744,17,55,17 M55,17c-6.627,0-12,10.8-12,24.12  c0,0.624,0.012,1.243,0.035,1.855 M55,17c6.627,0,12,10.8,12,24.12c0,0.624-0.012,1.243-0.035,1.855 M77.68,33.23H32.32   M63.308,49.006H46.692 M46.453,71.767c0,0,7.951,7.285,16.617,0c0,0,10.692,4.227,7.799,19.966c0,0-14.591,5.101-31.935,0  C38.935,91.733,36.194,77.599,46.453,71.767z M67.555,63.171c0,0,0.097,2.654-2.026,5.975c0,0,8.525,5.101,8.666,14.865  c0,0,10.984,0.437,16.184-1.89c0,0,3.759-13.402-7.225-20.108C83.154,62.013,75.799,68.414,67.555,63.171z M42.445,63.171  c0,0-0.097,2.654,2.026,5.975c0,0-8.525,5.101-8.666,14.865c0,0-10.984,0.437-16.184-1.89c0,0-3.759-13.402,7.225-20.108  C26.846,62.013,34.201,68.414,42.445,63.171z M63.937,62.439c0,4.989-4.011,9.033-8.959,9.033s-8.959-4.044-8.959-9.033  s4.011-9.033,8.959-9.033S63.937,57.45,63.937,62.439z M83.642,52.937c0,4.989-4.011,9.033-8.959,9.033s-8.959-4.044-8.959-9.033  s4.011-9.033,8.959-9.033S83.642,47.948,83.642,52.937z M44.33,52.937c0,4.989-4.011,9.033-8.959,9.033  c-4.948,0-8.959-4.044-8.959-9.033s4.011-9.033,8.959-9.033C40.319,43.904,44.33,47.948,44.33,52.937z" />
</svg>