<?xml version='1.0' encoding='utf-8'?>
<svg xmlns="http://www.w3.org/2000/svg" id="Layer_1" data-name="Layer 1" width="110" height="110" viewBox="0 0 110 110">
  <path d="M79.6736,52.5259c4.9961.3427,10.1099-1.3935,13.9302-5.2138,7.0076-7.0076,7.0076-18.3659,0-25.3735-7.0076-7.0076-18.3659-7.0076-25.3735,0-3.8203,3.8203-5.5566,8.934-5.2138,13.9302" style="fill:none;stroke:currentColor;stroke-linecap:round;stroke-linejoin:round;stroke-width:1.5" />
  <path d="M57.443,43.2398h23.5536v3.1161c0,1.6833-1.3666,3.0498-3.0498,3.0498h-17.4539c-1.6833,0-3.0498-1.3666-3.0498-3.0498v-3.1161h0Z" transform="translate(53.029 -35.3781) rotate(44.9999)" style="fill:none;stroke:currentColor;stroke-linecap:round;stroke-linejoin:round;stroke-width:1.5" />
  <path d="M70.6139,58.1302l-28.8605,27.2121c-1.7288,1.6287-4.4382,1.5912-6.1169-.0875l-5.3714-5.3714c-1.6687-1.6687-1.7163-4.3632-.1101-6.0944l26.0569-28.0424" style="fill:none;stroke:currentColor;stroke-linecap:round;stroke-linejoin:round;stroke-width:1.5" />
  <path d="M35.5539,85.1722l-4.2931,4.2932c-1.2409,1.2409-3.2524,1.2409-4.4933,0l-.6905-.6905c-1.2384-1.2384-1.2384-3.2499.0025-4.4908l4.2932-4.2932" style="fill:none;stroke:currentColor;stroke-linecap:round;stroke-linejoin:round;stroke-width:1.5" />
  <path d="M25.9718,89.573l-.1282.1281c-3.6858,3.6858-9.6616,3.6858-13.3474,0h0c-3.6858-3.6858-3.6858-9.6617,0-13.3475l7.2828-7.2828c6.8351-6.8351,10.0561-16.4877,8.6953-26.0577h0" style="fill:none;stroke:currentColor;stroke-linecap:round;stroke-linejoin:round;stroke-width:1.5" />
  <path d="M59.3914,59.7288l-7.4795,7.4795c-.9817.9817-2.5733.9817-3.555,0l-.0204-.0204c-.9817-.9817-.9817-2.5733,0-3.555l7.4794-7.4795c.9817-.9817,2.5733-.9817,3.555,0l.0204.0204c.9817.9817.9817,2.5733,0,3.555Z" style="fill:none;stroke:currentColor;stroke-linecap:round;stroke-linejoin:round;stroke-width:1.5" />
</svg>