<?xml version='1.0' encoding='utf-8'?>
<svg xmlns="http://www.w3.org/2000/svg" id="Layer_1" data-name="Layer 1" width="110" height="110" viewBox="0 0 110 110">
  <path d="M76.679,72.976h-39.088c-2.729,0-4.939-2.213-4.939-4.939s2.21-4.939,4.939-4.939M17.158,24.23h9.879l8.262,38.868h41.38l6.163-28.989h-19.767M29.137,34.109h19.889M44.507,84.831c0,2.729-2.21,4.939-4.939,4.939s-4.939-2.213-4.939-4.939,2.21-4.939,4.939-4.939,4.939,2.21,4.939,4.939ZM74.705,84.831c0,2.729-2.213,4.939-4.939,4.939s-4.939-2.213-4.939-4.939,2.213-4.939,4.939-4.939,4.939,2.21,4.939,4.939Z" style="fill:none;stroke:currentColor;stroke-linecap:round;stroke-linejoin:round;stroke-width:1.5" />
  <polyline points="49.7615 47.2827 56.01 53.5312 62.2585 47.2827 56.01 53.5312 56.01 24.2072" style="fill:none;stroke:currentColor;stroke-linecap:round;stroke-linejoin:round;stroke-width:1.5" />
</svg>