<?xml version='1.0' encoding='utf-8'?>
<svg xmlns="http://www.w3.org/2000/svg" id="Layer_1" width="110" height="110" viewBox="0 0 110 110"><path d="M23.51,57.92s-1.03-7.43-1.75-12.47c-.75-5.3-4.07-6.69-7.86-6.69l.84,28.01,17.99,17.99" style="fill:none;stroke:currentColor;stroke-linecap:round;stroke-linejoin:round;stroke-width:1.5" /><path d="M46.62,86.26c.9-7.99-.21-12.5-3.71-16-2.93-2.93-4.83-4.14-9.01-4.96-1.91-1.91-4.5-4.5-5.36-5.36-.86-.86-4.09-3.32-8.27.87l11.28,11.28" style="fill:none;stroke:currentColor;stroke-linecap:round;stroke-linejoin:round;stroke-width:1.5" /><line x1="50.87" y1="86.79" x2="26.85" y2="86.79" style="fill:none;stroke:currentColor;stroke-linecap:round;stroke-linejoin:round;stroke-width:1.5" /><polyline points="50.87 95.25 50.87 86.79 26.85 86.79 26.85 95.25" style="fill:none;stroke:currentColor;stroke-linecap:round;stroke-linejoin:round;stroke-width:1.5" /><path d="M45.49,92.55c0,.86-.7,1.56-1.56,1.56s-1.56-.7-1.56-1.56.7-1.56,1.56-1.56,1.56.7,1.56,1.56Z" style="fill:none;stroke:currentColor;stroke-miterlimit:10;stroke-width:1.5" /><path d="M86.49,57.92s1.03-7.43,1.75-12.47c.75-5.3,4.07-6.69,7.86-6.69l-.84,28.01-17.99,17.99" style="fill:none;stroke:currentColor;stroke-linecap:round;stroke-linejoin:round;stroke-width:1.5" /><path d="M63.38,86.26c-.9-7.99.21-12.5,3.71-16,2.93-2.93,4.83-4.14,9.01-4.96,1.91-1.91,4.5-4.5,5.36-5.36.86-.86,4.09-3.32,8.28.87l-11.28,11.28" style="fill:none;stroke:currentColor;stroke-linecap:round;stroke-linejoin:round;stroke-width:1.5" /><line x1="59.13" y1="86.79" x2="83.15" y2="86.79" style="fill:none;stroke:currentColor;stroke-linecap:round;stroke-linejoin:round;stroke-width:1.5" /><polyline points="59.13 95.25 59.13 86.79 83.15 86.79 83.15 95.25" style="fill:none;stroke:currentColor;stroke-linecap:round;stroke-linejoin:round;stroke-width:1.5" /><path d="M64.51,92.55c0,.86.7,1.56,1.56,1.56s1.56-.7,1.56-1.56-.7-1.56-1.56-1.56-1.56.7-1.56,1.56Z" style="fill:none;stroke:currentColor;stroke-miterlimit:10;stroke-width:1.5" /><path d="M55.98,14.75l-4.75,3.93-6.78-2.71,5.02,10.18s1.36,1.36,6.51,1.36,6.51-1.36,6.51-1.36l5.02-10.18-6.78,2.71-4.75-3.93Z" style="fill:none;stroke:currentColor;stroke-linecap:round;stroke-linejoin:round;stroke-width:1.5" /><path d="M49.47,26.14l-1.22,3.93s3.66,1.97,7.73,1.97,7.73-1.97,7.73-1.97l-1.22-3.93" style="fill:none;stroke:currentColor;stroke-linecap:round;stroke-linejoin:round;stroke-width:1.5" /><path d="M48.25,30.08s-17.37,21.3-2.44,31.88c5.9,4.18,10.18,3.8,10.18,3.8,0,0,4.28.38,10.18-3.8,14.92-10.58-2.44-31.88-2.44-31.88" style="fill:none;stroke:currentColor;stroke-linecap:round;stroke-linejoin:round;stroke-width:1.5" /><path d="M60.79,43.52c0-1.52-1.25-2.77-2.77-2.77h-4.08c-1.52,0-2.77,1.25-2.77,2.77v1.63c0,1.52,1.25,2.77,2.77,2.77h4.08c1.52,0,2.77,1.25,2.77,2.77v1.63c0,1.52-1.25,2.77-2.77,2.77h-4.08c-1.52,0-2.77-1.25-2.77-2.77" style="fill:none;stroke:currentColor;stroke-linecap:round;stroke-linejoin:round;stroke-width:1.5" /><line x1="55.98" y1="40.76" x2="55.98" y2="37.94" style="fill:none;stroke:currentColor;stroke-linecap:round;stroke-linejoin:round;stroke-width:1.5" /><line x1="55.98" y1="57.92" x2="55.98" y2="55.09" style="fill:none;stroke:currentColor;stroke-linecap:round;stroke-linejoin:round;stroke-width:1.5" /></svg>