<?xml version='1.0' encoding='utf-8'?>
<svg xmlns="http://www.w3.org/2000/svg" version="1.1" id="Layer_1" x="0px" y="0px" viewBox="0 0 110 110" style="enable-background:new 0 0 110 110;fill:none;stroke:currentColor;stroke-width:1.5" xml:space="preserve">
<path style="fill:none;stroke:currentColor;stroke-width:1.5;stroke-linecap:round;stroke-linejoin:round;stroke-miterlimit:10" d="  M75.576,76.411c5.322-5.866,7.559-13.517,8.092-23.157H70.574c-0.217,5.345-1.385,9.849-3.835,13.098L53.964,51.474  c1.917-1.259,5.429-3.877,5.429-3.877c4.687-3.355,7.772-7.232,7.772-12.995C67.165,24.441,59.716,17,47.79,17  c-12.668,0-20.227,7.228-20.227,17.393c0,7.125,4.474,12.364,7.559,15.822c-6.604,4.295-13.627,10.481-13.627,20.014  c0,14.042,8.305,22.635,25.017,22.635c10.861,0,16.077-4.405,19.588-7.129l5.539,6.498h17.564L75.576,76.411z M44.735,31.578  l2.846-8.62l2.846,8.62h9.214l-7.453,5.33l2.846,8.62l-7.452-5.326l-7.453,5.326l2.846-8.62l-7.453-5.33H44.735z M46.405,80.497  c-6.387,0-11.497-4.295-11.497-10.477c0-5.345,3.089-8.278,7.666-11.42l15.118,17.496C54.177,79.135,50.875,80.497,46.405,80.497z" />
</svg>