<?xml version='1.0' encoding='utf-8'?>
<svg xmlns="http://www.w3.org/2000/svg" id="Layer_1" data-name="Layer 1" width="110" height="110" viewBox="0 0 110 110">
  <path d="M59.1589,38.366c-.1311.1331-.2142.2965-.2493.489-.0368.1937-.0556.334-.0578.421.0031,2.0064.7158,3.7186,2.1366,5.1361,1.3628,1.3625,2.9978,2.0715,4.9056,2.126.0376.0017.0763.0017.1151,0,.0258.0005.0511.0005.0763,0,1.724.0673,3.2061.6714,4.4456,1.8115l6.9174,6.9073c1.1037,1.2047,1.701,2.639,1.7919,4.3024.0034.0472.0067.0949.0095.1437-.0006.0286-.0006.0567,0,.0854-.0011.0387-.0011.078,0,.1151.0511,1.9042.7573,3.5367,2.117,4.8963,1.4209,1.4186,3.1359,2.1266,5.1456,2.1266.0865.0011.2268-.0152.421-.0478.1926-.0359.3554-.1184.489-.2487l.2678-.2683-3.9757-3.9757,1.3507-4.12,4.1295-1.3608,3.9763,3.9758.2678-.2779c.1314-.1337.2145-.2965.2493-.4879.0365-.192.0556-.3289.0578-.4121,0-2.0064-.709-3.7186-2.1271-5.136-1.2362-1.2339-2.6958-1.9328-4.3788-2.0974-.1757-.014-.3548-.0241-.5361-.0297-.0348-.0006-.0696-.0006-.1055,0-.0292-.0034-.0578-.0068-.0859-.0095-1.724-.0646-3.2061-.6647-4.4462-1.8004l-6.9173-6.9173c-1.1363-1.2373-1.7364-2.7154-1.8009-4.4366-.0028-.0281-.0056-.0567-.0095-.0859.0006-.0382.0006-.0769,0-.1145-.0516-1.9081-.7573-3.5434-2.1175-4.9059-1.4175-1.4147-3.1292-2.1214-5.1355-2.1175-.087-.0045-.2274.0085-.4216.0387-.192.0354-.3548.1179-.4884.2493l-.2779.2773,3.9763,3.9763-1.3513,4.12-4.1197,1.3507-3.9664-3.9667-.2776.2683ZM80.0101,46.1949l6.6551-7.071-.8432-.8443,1.6578-3.2852,3.2768-1.6488,1.6864,1.6769-1.6578,3.2869-3.2768,1.6572-.8432-.8426M73.5682,57.3935l-8.1917,8.2204c-.4188.3985-.8884.6731-1.4082.8241-.3194.0943-.6582.142-1.0155.1443-.448-.0022-.8665-.0752-1.255-.2206-.4258-.16-.8159-.4098-1.1691-.7477l-.3638-.3543c-.4376-.4592-.725-.9796-.8623-1.5618-.0685-.2733-.1039-.5608-.1055-.8623.0045-.361.0553-.7028.1533-1.0251.1479-.5136.4194-.9774.8146-1.3888l8.22-8.2113" style="fill:none;fill-rule:evenodd;stroke:currentColor;stroke-linecap:round;stroke-linejoin:round;stroke-width:1.5" />
  <path d="M53.443,79.2743c.8725,0,1.58.7075,1.58,1.58s-.7075,1.58-1.58,1.58-1.58-.7075-1.58-1.58.7075-1.58,1.58-1.58h0ZM53.443,84.2261c.8725,0,1.58.7075,1.58,1.58s-.7075,1.58-1.58,1.58-1.58-.7075-1.58-1.58.7075-1.58,1.58-1.58h0ZM49.3672,24.3576h54.7628v65.4039h-54.7628V24.3576ZM27.9009,85.185h17.7948v6.16c0,.5097-.4181.9279-.9274.9279h-15.9399c-.5095,0-.9275-.4174-.9275-.9279v-6.16h0ZM46.3394,85.185v-2.4227c0-.2645-.22-.4809-.4815-.4809h-18.1194c-.2615,0-.4816.2199-.4816.4809v2.4227h19.0825ZM39.5369,48.6723c.2007.0596.3765.0793.4425-.1581l.3928-1.2086c.138-.4694-1.0722-.8548-1.0581-1.0567,1.2569-7.106-8.6681-9.3495-10.5419-3.0491-.0266.0506-.0812.0659-.1553.0576-.1173-.0114-.231.0611-.266.1776l-.4696,1.5534c-.0404.132.0367.2711.1679.31,3.8262,1.1338,7.6586,2.2499,11.4878,3.3741h0ZM38.0064,48.5647c-.3702,1.757-1.7598,3.2051-3.6338,3.5621-2.4892.4729-4.8907-1.1633-5.3636-3.6513-.1824-.9535-.0522-1.8954.3138-2.72M28.6168,43.2573l4.3009,1.2059M47.4311,64.1859h1.9361M37.4624,70.196l-.2889,1.2864c-.0448.2009.1694.3199.4179.3287l1.3444.049c.2485.0089.5191-.1972.5674-.3975l.2839-1.1801M45.0041,63.0049h1.9344c.2709,0,.4926.2216.4926.4925v1.3771c0,.2709-.2217.4925-.4926.4925h-1.9344M36.2259,65.1875l.1458-2.4883c.0158-.2704.2217-.4925.4926-.4925h7.4671c.2709,0,.4925.2219.4925.4925v2.9675c0,.6772-.5541,1.2313-1.2313,1.2313h-1.0668M17.5664,66.3858l5.938,8.9434c.3961.7612.559,1.1301.744,2.087l.5105,14.75M19.5517,92.0337l-1.0432-13.612-3.0561-2.9659M25.097,61.4376l-9.9938,6.681c-.6437.462-.5139,1.0375-.3624,1.8012l.9572,7.0847c.1522,1.5088.0076,1.6236-.3216,2.9851l-2.6515,12.2069M7.5361,92.2733l1.8755-13.739c.0808-.5972.0862-.7706-.1317-1.5074l-2.5757-8.0551c-.4517-1.653-.473-3.1987.0263-4.5408.559-1.5032,3.2376-4.2625,4.4027-5.3107,2.5988-2.3369,7.2118-5.9984,10.6955-7.9067,1.8825-1.0298,5.0671-1.0416,6.7225.508,1.8078,1.6256,1.6125,2.6685,1.793,4.7582l.5526,6.388.0918.316,6.4488,2.4673.8757-.3506,4.3167.3231-.091,1.7888-1.271.3486-.2605,1.8041-.8144.7494-2.7404-.0977-.8511-.4059-9.6041-2.1747-.9481-1.1855-1.5835-9.579M105.2918,92.2729H3.9736M39.5271,81.0983v-1.0005c0-.3406-.2808-.6189-.6189-.6189h-4.2201c-.3386,0-.6188.2803-.6188.6189v1.0005M31.1587,85.185v1.4867M42.4376,85.185v1.4867" style="fill:none;fill-rule:evenodd;stroke:currentColor;stroke-miterlimit:2.6131;stroke-width:1.5" />
  <line x1="58.955" y1="82.564" x2="98.0488" y2="82.564" style="fill:none;stroke:currentColor;stroke-linecap:round;stroke-linejoin:round;stroke-width:1.5" />
  <line x1="58.955" y1="86.039" x2="98.0488" y2="86.039" style="fill:none;stroke:currentColor;stroke-linecap:round;stroke-linejoin:round;stroke-width:1.5" />
</svg>