<?xml version='1.0' encoding='utf-8'?>
<svg xmlns="http://www.w3.org/2000/svg" id="Layer_1" data-name="Layer 1" width="110" height="110" viewBox="0 0 110 110">
  <path d="M83.4638,82.4292c1.2103-.0011,2.1926.9794,2.1937,2.1896s-.9794,2.1926-2.1896,2.1937c-1.2103.0011-2.1926-.9794-2.1937-2.1896-.0011-1.2103.9794-2.1926,2.1896-2.1937h0ZM83.4702,89.298c1.2103-.0011,2.1926.9794,2.1937,2.1896.0011,1.2103-.9794,2.1926-2.1896,2.1937-1.2103.0011-2.1926-.9794-2.1937-2.1896-.0011-1.2103.9794-2.1926,2.1896-2.1937h0ZM75.8175,27.1988l24.0542-.0223.0663,71.3916-24.0542.0223-.0508-54.7394-.0074-7.9195-.0081-8.7327ZM53.2374,27.0503c.4602.1362.8633.181,1.0142-.3634l.8978-2.7715c.3153-1.0764-2.4599-1.9573-2.428-2.4203C55.5878,5.2019,32.8299.0799,28.5477,14.5273c-.0608.1162-.1861.1513-.356.1324-.2689-.0258-.5294.1405-.6094.4076l-1.0732,3.5622c-.0923.3026.0846.6215.3856.7102,8.7738,2.5911,17.5621,5.1415,26.3427,7.7105h0ZM49.7286,26.8068c-.8449,4.0288-4.0276,7.3514-8.3229,8.1739-5.7055,1.0893-11.2144-2.6565-12.3037-8.3591-.4203-2.1856-.1237-4.3452.7136-6.2362M28.1917,14.6597l9.8624,2.7554M71.3677,62.5983l4.4385-.0041M48.5275,76.3974l-.6595,2.9498c-.1023.4608.389.7329.9587.7527l3.0821.1095c.5696.0198,1.1896-.4532,1.2999-.9124l.6483-2.706M65.8015,59.8959l4.4345-.0041c.621-.0006,1.1297.507,1.1303,1.128l.0029,3.1571c.0006.621-.5072,1.1295-1.1282,1.1301l-4.4345.0041M45.6822,64.9183l.3289-5.7046c.0357-.6198.5072-1.1295,1.1282-1.1301l17.1182-.0159c.621-.0006,1.1295.5076,1.1301,1.128l.0063,6.8029c.0014,1.5525-1.2676,2.8239-2.8201,2.8253l-2.4457.0023M7.4847,35.6679l5.1626-2.7539c4.3134-2.3648,11.614-2.3987,15.4123,1.1504,4.1478,3.7228,3.7023,6.1142,4.1206,10.9044l1.2804,14.6433.2112.7241,14.7891,5.6424,2.0068-.8057,9.8965.7315-.2049,4.1011-2.913.8019-.5934,4.1365-1.8653,1.7197-6.2825-.2182-1.952-.9287-22.022-4.9651-2.176-2.7157-3.6505-21.9564M20.1612,56.3454l-13.2435,9.0373M99.7602,98.7149l-92.5523.0859" style="fill:none;fill-rule:evenodd;stroke:currentColor;stroke-linejoin:round;stroke-width:1.5" />
</svg>