<?xml version='1.0' encoding='utf-8'?>
<svg xmlns="http://www.w3.org/2000/svg" width="110" height="110" viewBox="0 0 110 110" fill="none" stroke="currentColor" stroke-width="1.5">
<g clip-path="url(#clip0_1360_52)">
<path d="M77.1549 71.1604C87.8451 60.4701 93.7327 53.9183 96.8979 50.1345C99.0434 47.5696 98.6968 43.9918 96.3253 41.6203L69.271 14.566C66.726 12.0211 62.7661 11.7182 60.0242 14.0332C55.9319 17.4881 49.1553 23.5496 39.3497 33.3553C29.5441 43.1609 23.4826 49.9375 20.0276 54.0297C17.7127 56.7716 18.0155 60.7316 20.5605 63.2765L47.6148 90.3308C49.9863 92.7023 53.5641 93.0489 56.1289 90.9034C59.9127 87.7383 66.4646 81.8507 77.1549 71.1604Z" stroke="currentColor" stroke-width="1.5" fill="none" />
<path d="M63.894 19.3673L90.7938 46.2672L70.4372 66.6238L43.5374 39.724L63.894 19.3673Z" stroke="currentColor" stroke-width="1.5" fill="none" />
<path d="M50.0806 68.8049C47.8722 71.0132 44.2917 71.0132 42.0833 68.8049C39.8749 66.5965 39.8749 63.016 42.0833 60.8076C44.2917 58.5992 47.8722 58.5992 50.0806 60.8076C52.2889 63.016 52.2889 66.5965 50.0806 68.8049Z" stroke="currentColor" stroke-width="1.5" fill="none" />
<path d="M30.8145 73.5305L37.3577 80.0737L21.3632 96.0682L14.82 89.525L30.8145 73.5305Z" stroke="currentColor" stroke-width="1.5" fill="none" />
</g>
<defs>
<clipPath id="clip0_1360_52">
<rect width="110" height="110" fill="none" stroke="currentColor" stroke-width="1.5" />
</clipPath>
</defs>
</svg>