<?xml version='1.0' encoding='utf-8'?>
<svg xmlns="http://www.w3.org/2000/svg" version="1.1" id="Layer_1" x="0px" y="0px" viewBox="0 0 110 110" style="enable-background:new 0 0 110 110;fill:none;stroke:currentColor;stroke-width:1.5" xml:space="preserve">
<path style="fill:none;stroke:currentColor;stroke-width:1.5;stroke-miterlimit:10" d="M22.91,30.348  c6.245-8.046,15.418-13.647,25.893-15.153 M17.214,70.651c-3.752-9.504-3.952-20.356-0.003-30.302 M48.803,95.803  c-9.998-1.46-19.37-6.71-25.894-15.148 M86.09,80.652c-6.244,8.046-15.419,13.647-25.893,15.153 M91.788,40.351  c3.752,9.504,3.952,20.356,0.003,30.302 M60.198,15.198c9.998,1.46,19.37,6.71,25.894,15.148 M54.5,79C67.478,79,78,68.48,78,55.5  C78,42.522,67.478,32,54.5,32 M54.5,79C41.52,79,31,68.48,31,55.5C31,42.522,41.52,32,54.5,32 M54.5,79  c6.489,0,11.75-10.52,11.75-23.5c0-12.978-5.261-23.5-11.75-23.5 M54.5,79c-6.489,0-11.75-10.52-11.75-23.5  c0-12.978,5.262-23.5,11.75-23.5 M54.5,79V32 M76.707,47.812H32.292 M76.707,63.183H32.292 M60.211,14.788  c0,3.197-2.558,5.788-5.711,5.788s-5.711-2.592-5.711-5.788C48.789,11.592,51.347,9,54.5,9S60.211,11.592,60.211,14.788z M14,35.144  c0-3.197,2.558-5.788,5.711-5.788c3.153,0,5.711,2.592,5.711,5.788c0,3.196-2.558,5.788-5.711,5.788  C16.558,40.932,14,38.341,14,35.144z M14,75.856c0-3.197,2.558-5.788,5.711-5.788c3.153,0,5.711,2.592,5.711,5.788  c0,3.196-2.558,5.788-5.711,5.788C16.558,81.644,14,79.052,14,75.856z M48.789,96.212c0-3.197,2.558-5.788,5.711-5.788  s5.711,2.592,5.711,5.788c0,3.196-2.558,5.788-5.711,5.788S48.789,99.408,48.789,96.212z M95,75.856  c0,3.197-2.558,5.788-5.711,5.788c-3.153,0-5.711-2.592-5.711-5.788c0-3.196,2.558-5.788,5.711-5.788  C92.442,70.068,95,72.661,95,75.856z M95,35.144c0,3.197-2.558,5.788-5.711,5.788c-3.153,0-5.711-2.592-5.711-5.788  c0-3.196,2.558-5.788,5.711-5.788C92.442,29.356,95,31.948,95,35.144z" />
</svg>