<?xml version='1.0' encoding='utf-8'?>
<svg xmlns="http://www.w3.org/2000/svg" width="110" height="110" viewBox="0 0 110 110" fill="none" stroke="currentColor" stroke-width="1.5">
<path d="M20.2236 20.759C20.2236 16.2415 23.6432 12.5598 27.856 12.5598C32.0689 12.5598 35.4885 16.2415 35.4885 20.759C35.4885 25.2765 32.0689 28.9582 27.856 28.9582M34.2061 56.2615L21.317 63.1516M34.395 64.1461L21.317 71.0652M34.395 72.1654L21.317 79.0845M25.7549 82.5546V102H29.9464V87.1039M29.9464 51.9034V33.2959M25.7549 51.9007V33.2959M93.8464 56.3672L80.9219 63.1516M94 64.1461L80.9219 71.0652M94 72.1654L80.9219 79.0845M85.3706 82.5546V102H89.562V87.1039M89.562 51.9034V29.6882M85.3706 51.9007V29.6882M66.0577 56.2615L53.1686 63.1516M66.2466 64.1461L53.1686 71.0652M66.2466 72.1654L53.1686 79.0845M57.6065 82.5546V102H61.798V87.1039M61.798 51.9034V33.2959L56.1379 23.2558C55.5484 22.2084 55.6341 20.8648 56.3738 19.9232L63.4059 10.8565L54.3692 16.4954C51.6464 18.1882 50.7995 21.9968 52.504 24.8322L57.6065 33.2959V51.9007M39.712 20.759C39.712 27.794 34.4039 33.4969 27.856 33.4969C21.3081 33.4969 16 27.794 16 20.759C16 13.7241 21.3081 8.02116 27.856 8.02116C34.4039 8.02116 39.712 13.7241 39.712 20.759ZM32.3476 82.5546C33.4731 82.5546 34.3843 81.5707 34.3843 80.3646V57.7666C34.3843 54.4657 31.8866 51.7785 28.8101 51.7785H26.8805C23.804 51.7785 21.317 54.4551 21.317 57.7666V80.3646C21.317 81.5813 22.2282 82.5546 23.3537 82.5546H32.3476ZM83.3768 29.6882H91.5452C92.66 29.6882 93.539 28.662 93.4426 27.4665C93.2711 25.2342 92.9173 22.6845 92.2312 19.9127C90.9663 14.7815 89.0582 10.7824 87.4503 8C85.8209 10.8353 83.8699 14.9402 82.6049 20.1983C81.9725 22.8538 81.6294 25.3083 81.4686 27.4665C81.3722 28.662 82.2619 29.6882 83.3768 29.6882ZM91.9633 82.5546C93.0888 82.5546 94 81.5707 94 80.3646V57.7666C94 54.4657 91.5023 51.7785 88.4257 51.7785H86.4962C83.4196 51.7785 80.9327 54.4551 80.9327 57.7666V80.3646C80.9327 81.5813 81.8438 82.5546 82.9694 82.5546H91.9633ZM64.1992 82.5546C65.3247 82.5546 66.2359 81.5707 66.2359 80.3647V57.7666C66.2359 54.4657 63.7382 51.7785 60.6617 51.7785H58.7321C55.6556 51.7785 53.1686 54.4551 53.1686 57.7666V80.3647C53.1686 81.5813 54.0798 82.5546 55.2053 82.5546H64.1992Z" stroke="currentColor" stroke-width="1.5" stroke-linecap="round" stroke-linejoin="round" fill="none" />
</svg>