<?xml version='1.0' encoding='utf-8'?>
<svg xmlns="http://www.w3.org/2000/svg" width="110" height="110" viewBox="0 0 110 110" fill="none" stroke="currentColor" stroke-width="1.5">
<path d="M41.3785 21.5899L33.5784 23.7416M41.3785 21.5899C41.3488 21.4195 41.3285 21.2454 41.318 21.068L41.2784 20.4078C41.2608 20.1163 41.3989 19.8373 41.6409 19.6741L47.9876 15.3999M41.3785 21.5899C41.8411 24.2643 44.5506 26.0248 47.2418 25.2908C47.448 25.2346 47.6389 25.4242 47.5812 25.63L46.4751 29.5624L55.5501 32.3124M33.5784 23.7416L7.2876 60.5269M33.5784 23.7416L35.6195 30.328C36.2544 32.3781 36.6615 34.4918 36.8325 36.6313L37.3946 43.6564M47.9876 15.3999L51.4309 15.655C54.0819 15.8513 56.7433 15.8513 59.3943 15.655L62.8376 15.3999M47.9876 15.3999L49.5001 23.2374L55.5501 32.3124M55.5501 32.3124L64.3501 29.5624L63.244 25.63C63.1863 25.4242 63.3772 25.2346 63.5834 25.2908C66.2746 26.0248 68.9841 24.2643 69.4467 21.5899M55.5501 32.3124L61.3251 23.2374L62.8376 15.3999M55.5501 32.3124V94.3249M7.2876 60.5269L20.4876 68.0624M7.2876 60.5269C11.9581 60.5269 16.4896 62.7134 19.2696 66.4663L20.4876 68.0624M20.4876 68.0624L37.3946 43.6564M37.3946 43.6564L38.9406 52.6962C39.4664 55.7581 39.3617 58.895 38.6326 61.9151L35.7886 73.6977C35.2141 76.077 34.8682 78.5058 34.7549 80.9508L34.2376 92.1249C34.2376 92.1249 47.2646 94.4762 55.5501 94.4624C63.8356 94.4487 76.5876 92.1249 76.5876 92.1249L76.0703 80.9508C75.957 78.5058 75.6111 76.077 75.0366 73.6977L72.1926 61.9151C71.4635 58.895 71.3588 55.7581 71.8846 52.6962L73.4306 43.6564M73.4306 43.6564L90.3376 68.0624M73.4306 43.6564L73.9927 36.6313C74.1637 34.4918 74.5708 32.3781 75.2057 30.328L77.2468 23.7416M62.8376 15.3999L69.1843 19.6741C69.4263 19.8373 69.5644 20.1163 69.5468 20.4078L69.5072 21.068C69.4967 21.2454 69.4764 21.4195 69.4467 21.5899M69.4467 21.5899L77.2468 23.7416M77.2468 23.7416L103.538 60.5269M103.538 60.5269L90.3376 68.0624M103.538 60.5269C98.8673 60.5269 94.3355 62.7134 91.5556 66.4663L90.3376 68.0624" stroke="currentColor" stroke-width="1.5" stroke-linecap="round" stroke-linejoin="round" fill="none" />
</svg>