<?xml version='1.0' encoding='utf-8'?>
<svg xmlns="http://www.w3.org/2000/svg" width="110" height="110" viewBox="0 0 110 110" fill="none" stroke="currentColor" stroke-width="1.5">
<path d="M39.927 68.345H44.8695C47.3087 68.345 49.2793 66.3747 49.2793 63.9357H58.0032C60.1442 63.9357 61.8804 62.3062 61.8804 60.2933V18.48C61.8804 16.4671 60.1442 14.827 58.0032 14.827H48.9278V11.6745C48.9278 10.0556 47.5324 8.74561 45.8175 8.74561H38.7873C37.0723 8.74561 35.6769 10.0556 35.6769 11.6745V14.8163H39.9377M39.927 68.345C37.4877 68.345 35.5171 66.3747 35.5171 63.9357H26.6229C24.4819 63.9357 22.7456 62.3062 22.7456 60.2933V18.4694C22.7456 16.4565 24.4819 14.8163 26.6229 14.8163H35.6876M39.927 68.345V73.9151H42.5474L42.5474 80.1243M56.1071 36.6282V55.0533C56.1071 56.9597 54.5626 58.4934 52.6666 58.4934H31.9594C30.0528 58.4934 28.5189 56.9491 28.5189 55.0533V36.6282M28.5189 26.1589V22.4526C28.5189 21.2385 29.5095 20.248 30.7238 20.248H53.9129C55.1272 20.248 56.1178 21.2385 56.1178 22.4526V22.7615M39.9377 14.7844C39.9377 13.4744 41.0028 12.42 42.3024 12.42C43.6019 12.42 44.6671 13.485 44.6671 14.7844H45.9772M45.1784 72.4667V68.3343M48.5763 86.4506V90.6575M85.176 33.6568V21.5047M82.0976 51.7624H88.2543M85.176 51.7624V92.2124C85.176 97.2074 81.1283 101.255 76.1326 101.255H48.278C45.1144 101.255 42.5633 98.6772 42.5633 95.514M39.5435 80.1243H45.5831V95.514H39.5435V80.1243ZM84.2493 33.6568H86.1133C86.7631 33.6568 87.285 34.1786 87.285 34.8283V48.1093H83.0776V34.8283C83.0776 34.1786 83.5995 33.6568 84.2493 33.6568ZM49.1967 36.5114V41.3571H44.5028V46.0611H39.678V41.3571H34.9788V36.5114H39.678V31.8074H44.5028V36.5114H49.1967Z" stroke="currentColor" stroke-width="1.5" stroke-linecap="round" stroke-linejoin="round" fill="none" />
</svg>