<?xml version='1.0' encoding='utf-8'?>
<svg xmlns="http://www.w3.org/2000/svg" id="Layer_1" data-name="Layer 1" width="110" height="110" viewBox="0 0 110 110">
  <path d="M77.6652,44.9974c2.3727,5.7282,2.3726,12.0373-.0001,17.7652-2.3726,5.728-6.8337,10.1893-12.5619,12.562-11.8242,4.8978-25.4291-.7375-30.3267-12.5617-2.3728-5.7282-2.3727-12.0373,0-17.7652,2.3725-5.728,6.8337-10.1893,12.5618-12.562,11.8244-4.8975,25.4288.7376,30.3268,12.5617Z" style="fill:none;stroke:currentColor;stroke-miterlimit:10;stroke-width:1.5" />
  <path d="M92.4984,34.2406c-.2555-.616-1.0016-1.0252-1.6581-.9088l-8.0361.9804c-.6771.1198-1.6007-.2055-2.053-.7233l-4.2128-4.22c-.5167-.4538-.8406-1.3786-.7206-2.0552l.9871-8.0385c.1169-.6566-.2918-1.4026-.9081-1.658l-7.9181-3.2798c-.6163-.2552-1.4323-.0163-1.8146.53l-4.9839,6.3798c-.3933.5634-1.2765.9856-1.9623.9393l-5.9626-.0083c-.6858.0442-1.5694-.3804-1.9634-.9437l-4.9936-6.3776c-.3824-.5462-1.1993-.7846-1.8153-.5289l-7.9025,3.275c-.6161.2552-1.0249,1.0017-.9085,1.6582l.9809,8.0358c.1198.6771-.2055,1.6008-.7233,2.053l-4.2211,4.2124c-.4536.5166-1.3782.8407-2.055.7205l-8.0379-.987c-.6565-.1167-1.4027.2918-1.658.908l-3.2798,7.9182c-.2552.6163-.0167,1.4329.5304,1.8147l6.3792,4.9838c.5634.3934.9865,1.2765.9397,1.9622l-.0074,5.9635c.0442.686-.3805,1.5691-.9437,1.9632l-6.3787,4.992c-.5467.3824-.785,1.1989-.5295,1.8153l3.2759,7.903c.2555.616,1.0016,1.0253,1.6585.9089l8.0358-.9809c.6769-.1196,1.6008.2058,2.053.7233l4.2111,4.2214c.5165.4539.8405,1.3786.7201,2.0555l-.9856,8.0373c-.1168.6566.2919,1.4029.9081,1.6579l7.9184,3.2797c.6161.2551,1.4321.0166,1.8144-.5301l4.9837-6.3776c.3935-.5636,1.2767-.9866,1.9626-.9402l5.9626.0071c.6863-.0441,1.5698.3805,1.9634.9437l4.9929,6.3777c.3825.5466,1.1989.7845,1.8154.5294l7.9033-3.2756c.6158-.2554,1.0248-1.0017.9087-1.6584l-.9812-8.0359c-.12-.6768.2053-1.6007.723-2.053l4.2204-4.2112c.4538-.5165,1.3784-.8407,2.0552-.7206l8.0388.9863c.6566.1168,1.4026-.2919,1.6579-.9081l3.2802-7.9186c.255-.6161.0164-1.4327-.5305-1.8143l-6.3789-4.9826c-.5635-.3934-.9865-1.2765-.9399-1.9624l.0079-5.9643c-.0447-.6863.3803-1.5698.9437-1.9634l6.3777-4.992c.5467-.3825.7846-1.1993.5291-1.8154l-3.275-7.9025ZM77.6652,44.9974c2.3727,5.7282,2.3726,12.0373-.0001,17.7652-2.3726,5.728-6.8337,10.1893-12.5619,12.562-11.8242,4.8978-25.4291-.7375-30.3267-12.5617-2.3728-5.7282-2.3727-12.0373,0-17.7652,2.3725-5.728,6.8337-10.1893,12.5618-12.562,11.8244-4.8975,25.4288.7376,30.3268,12.5617Z" style="fill:none;stroke:currentColor;stroke-miterlimit:10;stroke-width:1.5" />
  <path d="M41.6344,71.2422s-2.5767-13.1548,7.0521-18.5795c0,0,7.4589,6.7808,15.5959,0,0,0,10.0357,3.9329,7.3233,18.5795" style="fill:none;stroke:currentColor;stroke-miterlimit:10;stroke-width:1.5" />
  <circle cx="56.6879" cy="43.9832" r="8.4083" style="fill:none;stroke:currentColor;stroke-miterlimit:10;stroke-width:1.5" />
</svg>