<?xml version='1.0' encoding='utf-8'?>
<svg xmlns="http://www.w3.org/2000/svg" id="Layer_1" data-name="Layer 1" width="110" height="110" viewBox="0 0 110 110">
  <path d="M65.083,19.96c5.2272,1.5774,9.9616,4.3472,14.2065,8.3083M79.3423,82.8173c-4.2548,3.9776-9.0079,6.7551-14.2593,8.3336M45.4062,57.6559l-6.0654-3.487M76.7782,42.4011v26.257M42.9884,91.1509c-5.2426-1.5774-9.9869-4.3549-14.2329-8.3336M54.0225,81.7998l-22.7293-13.1285v-.0264M81.8129,71.5643c.6985-1.2144,1.7204-2.002,3.0668-2.365,1.3541-.3641,2.6411-.1958,3.8588.5027,1.2144.7007,2.0031,1.727,2.365,3.0767.3597,1.3541.1881,2.64-.5148,3.8566-.7018,1.21-1.7281,1.9932-3.0789,2.3518-1.3464.3641-2.6235.1958-3.8324-.5016-1.2199-.7018-2.013-1.727-2.3793-3.0778-.3597-1.3497-.1881-2.6312.5148-3.8434l-5.0347-2.9062v.0264l-22.7293,13.1285h-.0132l-.0132-.0132v5.7992c1.4003.0033,2.5938.5005,3.5805,1.4927.9933.9856,1.4905,2.1791,1.4938,3.5783-.0033,1.4003-.5005,2.5938-1.4938,3.5794-.9867.9922-2.1802,1.4894-3.5805,1.4927-1.4003-.0033-2.5938-.5005-3.5816-1.4927-.9922-.9856-1.4894-2.1791-1.4938-3.5794.0044-1.3992.5016-2.5927,1.4938-3.5783.9878-.9922,2.1813-1.4894,3.5816-1.4927M28.7819,28.2804c4.2438-3.9688,8.9837-6.7419,14.2186-8.3204M37.0682,45.7286l16.9543,9.7867.0132.0143v19.9309M39.684,37.5666l22.6765,13.1549v8.1224l6.1061-3.5123v-8.1367l-22.6765-13.1681M31.2932,42.4132l8.3908-4.8466,6.1061-3.5398,8.2324-4.7553M17.6939,63.8115c-.572-2.6345-.858-5.3856-.8591-8.2555.0011-2.8523.2827-5.5858.8459-8.2027M26.231,71.5643c.7029,1.2166.8756,2.5025.5148,3.8566-.3663,1.3508-1.1594,2.376-2.3782,3.0767-1.2089.6996-2.4871.8657-3.8324.5027-1.3508-.3619-2.3771-1.1506-3.0789-2.365-.7029-1.2122-.8756-2.4937-.5159-3.8434.363-1.3497,1.1506-2.376,2.3661-3.0767,1.2177-.6985,2.5047-.8657,3.8588-.5016,1.3464.3575,2.3683,1.1407,3.0657,2.3507l5.0622-2.9194v-26.2317l-5.0622-2.9183c-.6974,1.2177-1.7193,2.0108-3.0657,2.3771-1.3541.3597-2.6411.1881-3.8588-.5148-1.2155-.7018-2.0031-1.727-2.3661-3.0778-.3597-1.3541-.187-2.6389.5159-3.8566.7018-1.2089,1.7281-1.9932,3.0789-2.3507,1.3453-.3597,2.6235-.1881,3.8324.5148,1.2188.6963,2.0119,1.7182,2.3782,3.0635.3608,1.3508.1881,2.6312-.5148,3.8445M90.3643,47.2477c.5731,2.651.8591,5.4197.8591,8.3083s-.286,5.6584-.8591,8.3072M54.0225,23.4602c-1.4003.0011-2.5938-.4917-3.5816-1.4795-.9922-.9911-1.4894-2.189-1.4938-3.5926.0044-1.3992.5016-2.5927,1.4938-3.5794.9878-.9867,2.1813-1.4806,3.5816-1.4795,1.4003-.0011,2.5938.4928,3.5805,1.4795.9933.9867,1.4905,2.1802,1.4938,3.5794-.0033,1.4036-.5005,2.6015-1.4938,3.5926-.9867.9878-2.1802,1.4806-3.5805,1.4795v5.8113l.0264-.0132,22.7293,13.1428,5.0347-2.9062c-.7029-1.2177-.8745-2.5036-.5148-3.8566.3663-1.3464,1.1594-2.3672,2.3793-3.0646,1.2089-.7029,2.486-.8745,3.8324-.5148,1.3508.3619,2.3771,1.1495,3.0789,2.3639.7029,1.2133.8745,2.4948.5148,3.8434-.3619,1.3508-1.1506,2.376-2.365,3.0778-1.2177.7029-2.5047.8745-3.8588.5148-1.3464-.3619-2.3683-1.1506-3.0668-2.3639" style="fill:none;stroke:currentColor;stroke-linecap:round;stroke-linejoin:round;stroke-width:1.5" />
</svg>