<?xml version='1.0' encoding='utf-8'?>
<svg xmlns="http://www.w3.org/2000/svg" width="110" height="110" viewBox="0 0 110 110" fill="none" stroke="currentColor" stroke-width="1.5">
<path d="M23.7756 80.1366L21.1985 77.5592L79.5486 19.2202C81.1753 17.5933 83.8164 17.5933 85.443 19.2202L90.78 24.5578C92.4067 26.1846 92.4067 28.826 90.78 30.4529L32.439 88.8011L29.5604 85.9221M79.2288 26.2669C79.0277 27.5739 79.3293 28.8169 80.1883 29.676C81.1113 30.5991 82.4821 30.8825 83.8986 30.5809M74.8788 30.6174C74.6777 31.9244 74.9793 33.1674 75.8383 34.0266C76.7613 34.9497 78.1321 35.233 79.5486 34.9314M70.5288 34.968C70.3278 36.2749 70.6293 37.5179 71.4884 38.3771C72.4114 39.3002 73.7822 39.5835 75.1986 39.2819M66.1788 39.3185C65.9778 40.6255 66.2793 41.8685 67.1384 42.7276C68.0614 43.6507 69.4322 43.934 70.8487 43.6324M61.8288 43.669C61.6278 44.976 61.9294 46.219 62.7884 47.0781C63.7114 48.0012 65.0822 48.2846 66.4987 47.983M57.488 48.0195C57.2869 49.3265 57.5885 50.5695 58.4475 51.4286C59.3705 52.3518 60.7413 52.6351 62.1578 52.3335M53.138 52.37C52.937 53.677 53.2385 54.92 54.0976 55.7792C55.0206 56.7023 56.3914 56.9856 57.8078 56.684M48.788 56.7206C48.587 58.0275 48.8885 59.2705 49.7476 60.1297C50.6706 61.0528 52.0414 61.3361 53.4579 61.0345M40.0881 65.4216C39.887 66.7286 40.1886 67.9716 41.0476 68.8307C41.9706 69.7538 43.3414 70.0372 44.7579 69.7356M44.438 61.0711C44.237 62.3781 44.5386 63.6211 45.3976 64.4802C46.3206 65.4033 47.6914 65.6867 49.1079 65.385M35.7381 69.7721C35.537 71.0791 35.8386 72.3221 36.6976 73.1813C37.6206 74.1044 38.9914 74.3877 40.4079 74.0861M31.3881 74.1135C31.187 75.4205 31.4886 76.6635 32.3476 77.5226C33.2706 78.4458 34.6414 78.7291 36.0579 78.4275M30.1452 82.4764L85.1597 27.4459C86.101 26.5045 86.2838 25.1427 85.5618 24.4207C84.8399 23.6986 83.4874 23.8814 82.537 24.8228L27.4493 79.9264M27.0381 78.464C26.837 79.771 27.1386 81.014 27.9977 81.8732C28.9207 82.7963 30.2914 83.0796 31.7079 82.778L18 92L27.0381 78.464Z" stroke="currentColor" stroke-width="1.5" stroke-linecap="round" stroke-linejoin="round" fill="none" />
</svg>