<?xml version='1.0' encoding='utf-8'?>
<svg xmlns="http://www.w3.org/2000/svg" width="110" height="110" viewBox="0 0 110 110" fill="none" stroke="currentColor" stroke-width="1.5">
<path d="M74.8078 61.0688L58.6959 44.5116M74.8078 61.0688L79.862 55.9426M74.8078 61.0688L86.6328 75.3263C88.6756 77.7888 92.4063 77.9517 94.6504 75.6808M58.6959 44.5116L63.75 39.395M58.6959 44.5116L56.3366 42.1833C54.9268 40.7843 54.9076 38.5135 56.3078 37.105C57.708 35.6965 59.981 35.6773 61.3908 37.0762L63.75 39.395M79.862 55.9426L74.9325 51.0751L63.75 39.395M79.862 55.9426L94.2284 67.6801C96.7028 69.7019 96.8946 73.41 94.6504 75.6808M94.6504 75.6808L96.3575 77.5397C99.1388 80.6058 98.9374 85.3392 95.9164 88.1562C92.8954 90.9732 88.1865 90.8582 85.3093 87.8975L58.9164 60.7717C56.4901 58.2805 52.6059 57.9547 49.7959 59.9956C46.4585 62.4294 45.9598 67.2202 48.7218 70.2959L73.9255 95.2083M15.9609 15H21.6863C23.873 15 25.6472 16.7726 25.6472 18.9572C25.6472 21.1419 23.873 22.9145 21.6863 22.9145H15.9609M15.9609 15C13.7742 15 12 16.7726 12 18.9572C12 21.1419 13.7742 22.9145 15.9609 22.9145M15.9609 15C18.1475 15 19.9217 16.7726 19.9217 18.9572C19.9217 21.1419 18.1475 22.9145 15.9609 22.9145M56.2982 38.7913C55.8859 38.7913 55.4735 38.6284 55.1474 38.3218L39.3328 23.5085C37.3955 21.688 34.854 20.6915 32.1975 20.6915H23.5277C22.5974 20.6915 21.8398 19.9346 21.8398 19.0051C21.8398 18.0757 22.5974 17.3188 23.5277 17.3188H32.1975C35.7172 17.3188 39.0738 18.641 41.6441 21.0556L57.4587 35.8689C58.1396 36.5109 58.178 37.5745 57.5354 38.2548C57.1997 38.6093 56.749 38.7913 56.2982 38.7913ZM17.3802 18.9572C17.3802 19.7908 16.6993 20.4711 15.8649 20.4711C15.0306 20.4711 14.3497 19.7908 14.3497 18.9572C14.3497 18.1236 15.0306 17.4433 15.8649 17.4433C16.6993 17.4433 17.3802 18.1236 17.3802 18.9572Z" stroke="currentColor" stroke-width="1.5" stroke-linecap="round" stroke-linejoin="round" fill="none" />
</svg>