<?xml version='1.0' encoding='utf-8'?>
<svg xmlns="http://www.w3.org/2000/svg" width="110" height="110" viewBox="0 0 110 110" fill="none" stroke="currentColor" stroke-width="1.5">
<path d="M50 49.4492C50.9675 48.9009 52.5479 48.3607 54.3741 48.272C56.5833 48.1672 58.9115 48.8565 60 49.4492M84.5 47C85.7714 46.5203 87.2579 46.3888 89.5125 46.4372C89.7964 46.4412 90.0761 46.4574 90.3474 46.4775C93.28 46.7113 95.666 49.2752 95.6999 52.069V76.9868C95.7296 81.7196 91.7078 85.5695 86.7325 85.5695H22.8288C17.8959 85.5695 13.73 81.6793 13.7004 76.9868V52.069C13.6707 49.4688 15.5269 47.1225 18.2053 46.6186L18.2689 46.6065C21.5957 45.9978 23.9659 46.7139 25.5 47.5" stroke="currentColor" stroke-width="1.5" stroke-linecap="round" stroke-linejoin="round" fill="none" />
<path d="M49.9986 36.6122C50.2834 36.016 50.6028 35.4337 50.9549 34.8683C51.7074 33.6597 52.109 32.2101 52.0172 30.6613C52.0127 30.5849 52.005 30.5093 51.998 30.4335C51.6641 26.8041 48.5559 23.9504 44.8885 23.9456C42.5451 23.9425 40.4644 25.0668 39.158 26.8059C37.8516 25.0668 35.7709 23.9425 33.4275 23.9456C29.7602 23.9504 26.652 26.8041 26.318 30.4335C26.311 30.5093 26.3033 30.5849 26.2988 30.6613C26.207 32.2101 26.6086 33.6597 27.3611 34.8683C27.7496 35.4923 28.0984 36.1368 28.4047 36.7978C28.4047 36.7978 32.7 32.5073 37.7 36.7978M60.3174 36.3667C60.0326 35.7705 59.7132 35.1882 59.3611 34.6228C58.6086 33.4142 58.207 31.9646 58.2988 30.4158C58.3033 30.3394 58.311 30.2638 58.318 30.188C58.6519 26.5586 61.7601 23.7049 65.4275 23.7001C67.7709 23.697 69.8516 24.8213 71.158 26.5604C72.4644 24.8213 74.5451 23.697 76.8885 23.7001C80.5558 23.7049 83.664 26.5586 83.998 30.188C84.005 30.2638 84.0127 30.3394 84.0172 30.4158C84.109 31.9646 83.7074 33.4142 82.9549 34.6228C82.5664 35.2468 82.2176 35.8913 81.9113 36.5523C81.9113 36.5523 77.616 32.2618 72.616 36.5523M51.0114 44.8524C51.0069 44.776 50.9992 44.7004 50.9922 44.6246C50.6583 40.9952 47.5501 38.1415 43.8827 38.1367C41.5393 38.1336 39.4586 39.2579 38.1522 40.997C36.8458 39.2579 34.7651 38.1336 32.4217 38.1367C28.7544 38.1415 25.6462 40.9952 25.3122 44.6246C25.3052 44.7004 25.2975 44.776 25.293 44.8524C25.2012 46.4012 25.6028 47.8508 26.3553 49.0594C28.3561 52.2731 29.3034 56.0303 28.8199 59.7849L28.5274 62.056C28.3084 63.7563 30.3681 64.7684 31.5803 63.5562L35.3465 57.1851C36.6081 55.0509 39.6961 55.0509 40.9577 57.1851L44.7239 63.5562C45.9361 64.7685 47.9958 63.7564 47.7768 62.056L47.4844 59.7849C47.0009 56.0302 47.9482 52.2731 49.949 49.0594C50.7015 47.8508 51.1032 46.4012 51.0114 44.8524ZM84.4998 44.8524C84.4953 44.776 84.4876 44.7004 84.4806 44.6246C84.1467 40.9952 81.0385 38.1415 77.3711 38.1367C75.0277 38.1336 72.947 39.2579 71.6406 40.997C70.3342 39.2579 68.2535 38.1336 65.9101 38.1367C62.2428 38.1415 59.1346 40.9952 58.8006 44.6246C58.7936 44.7004 58.7859 44.776 58.7814 44.8524C58.6896 46.4012 59.0912 47.8508 59.8437 49.0594C61.8445 52.2731 62.7918 56.0303 62.3083 59.7849L62.0158 62.056C61.7968 63.7563 63.8565 64.7684 65.0687 63.5562L68.8349 57.1851C70.0965 55.0509 73.1845 55.0509 74.4461 57.1851L78.2123 63.5562C79.4245 64.7685 81.4842 63.7564 81.2652 62.056L80.9728 59.7849C80.4893 56.0302 81.4366 52.2731 83.4374 49.0594C84.1899 47.8508 84.5916 46.4012 84.4998 44.8524Z" stroke="currentColor" stroke-width="1.5" stroke-linecap="round" stroke-linejoin="round" fill="none" />
</svg>