<?xml version='1.0' encoding='utf-8'?>
<svg xmlns="http://www.w3.org/2000/svg" id="Layer_1" data-name="Layer 1" width="110" height="110" viewBox="0 0 110 110">
  <path d="M67.0348,54.3504c-1.7793,2.7442-4.8075,6.9371-9.0823,12.5788.8174.2114,1.5691.5119,2.2549.902,1.5216.8708,2.2819,1.9201,2.2819,3.147,0,.9078-.4174,1.7144-1.252,2.42l11.5777,4.3527c.2059-.1521.4335-.299.6794-.4416,1.5227-.859,3.356-1.2884,5.5042-1.2884s3.975.4295,5.4848,1.2884c1.5205.8708,2.2819,1.9201,2.2819,3.147s-.7613,2.2697-2.2819,3.1284c-1.5098.8713-3.3376,1.307-5.4848,1.307s-3.9814-.4357-5.5042-1.307c-1.0104-.5751-1.6823-1.2315-2.0144-1.9689l-34.0119,6.6068c.4108.5408.6163,1.1296.6163,1.767,0,1.2267-.7605,2.2697-2.2819,3.1284-1.5092.8713-3.3371,1.3068-5.4847,1.3068s-3.9814-.4354-5.5031-1.3068c-1.5089-.8587-2.2636-1.9017-2.2636-3.1284s.7546-2.276,2.2636-3.1473c1.5217-.8584,3.356-1.2881,5.5031-1.2881s3.9755.4297,5.4847,1.2881c.7311.4187,1.2865.8789,1.6656,1.3804M61.2373,73.3982c-.2911.2491-.6341.4853-1.0299.7085-1.5098.8713-3.3376,1.307-5.4858,1.307-2.146,0-3.9814-.4357-5.502-1.307-1.5095-.8587-2.2638-1.9015-2.2638-3.1285s.7543-2.2762,2.2638-3.147c.6352-.3588,1.3254-.6411,2.0705-.8465-3.9774-5.2461-6.9988-9.4576-9.0648-12.6342M71.4799,81.6159c-.1661-.368-.248-.7543-.248-1.1596,0-1.0258.5273-1.9279,1.5831-2.7054M57.9525,66.9292c-1.0309,1.3596-2.1352,2.8044-3.3128,4.3346-.5974-.7349-1.1841-1.4709-1.7578-2.2086-.2264-.2877-.4508-.5756-.6718-.8649-.3116-.4095-.619-.8115-.9199-1.2057" style="fill:none;stroke:currentColor;stroke-linecap:round;stroke-linejoin:round;stroke-width:1.5" />
  <path d="M54.2928,16.0124l.0227-.011,19.5768,11.3245M34.716,49.9408v-22.6039M34.716,27.3369l7.2273-4.1769,5.2586-3.0501,7.0909-4.0975M41.9433,23.1601l19.5311,11.3361v6.9992l5.2586-3.0271v-7.0112l-19.5311-11.3471M39.6898,30.194l14.603,8.4334.011.0117v17.1747M73.8923,49.9519v.0233l-19.5768,11.3129h-.0117l-.011-.0113M54.2928,61.2767l-19.5768-11.3132v-.0227M73.8923,27.3259v22.626M46.8714,40.4717l-5.2242-3.0051" style="fill:none;stroke:currentColor;stroke-linecap:round;stroke-linejoin:round;stroke-width:1.5" />
</svg>