<?xml version='1.0' encoding='utf-8'?>
<svg xmlns="http://www.w3.org/2000/svg" width="110" height="110" viewBox="0 0 110 110" fill="none" stroke="currentColor" stroke-width="1.5">
<path d="M22.8613 63.607L23.202 84.4155C23.1817 85.4248 23.6191 86.4542 24.5449 87.3928L34.2198 96.2841C36.8853 98.9485 42.6027 99.7962 46.9875 98.1815L92.5237 81.4484C95.4129 80.3887 97.0101 78.5216 97 76.604L96.5321 53.755M79.6238 39.9339L80.0501 18.8524C80.0716 17.7898 79.5293 16.7952 78.6245 16.2377L71.3579 11.76C69.8048 10.8255 69.0705 10.8456 67.8767 11.3216L16.0947 28.4189C14.1005 29.3579 13.5014 29.2957 13 31.4876V46.393V53.2116C13 54.162 13.4503 55.0561 14.2138 55.6219L22.771 61.9633M25.1649 51.0748L65.8111 36.752C70.4736 35.1115 69.4928 34.5798 72.8479 36.6586L77.5473 39.7196M13.884 29.5733L24.0838 36.8217C24.8939 37.3973 25.3663 38.3367 25.3454 39.3302L24.9367 58.7498M29.676 56.4304C29.676 56.4304 59.4209 45.633 72.6245 40.8768C77.0194 39.262 78.8497 39.1643 82.4104 41.6874L95.2876 50.7717C97.953 53.4361 96.5491 56.8978 92.1542 58.5125L46.6179 75.6594C42.2229 77.2742 39.0841 78.1706 35.9893 75.882C32.2693 73.131 27.1472 68.4293 23.6226 65.2145C22.338 63.3652 22.5628 61.5655 23.4877 60.0972C24.4305 58.6005 28.1353 56.9398 29.676 56.4304ZM45.4952 61.1776C45.4952 61.7203 46.4125 62.0767 47.5299 61.9633C48.6473 61.8499 49.5646 61.3153 49.5646 60.7726C49.5646 60.2299 48.6473 59.8735 47.5299 59.9869C46.4125 60.1003 45.4952 60.6349 45.4952 61.1776ZM65.842 53.1037C65.842 53.6464 66.7593 54.0028 67.8767 53.8894C68.9941 53.776 69.9114 53.2414 69.9114 52.6987C69.9114 52.156 68.9941 51.7996 67.8767 51.913C66.7593 52.0264 65.842 52.561 65.842 53.1037ZM28.2004 61.1776C28.2004 61.7203 29.1177 62.0767 30.2351 61.9633C31.3525 61.8499 32.2698 61.3153 32.2698 60.7726C32.2698 60.2299 31.3525 59.8735 30.2351 59.9869C29.1177 60.1003 28.2004 60.6349 28.2004 61.1776ZM49.5646 53.1037C49.5646 53.6464 50.4819 54.0028 51.5993 53.8894C52.7167 53.776 53.6339 53.2414 53.6339 52.6987C53.6339 52.156 52.7167 51.7996 51.5993 51.913C50.4819 52.0264 49.5646 52.561 49.5646 53.1037ZM69.9114 45.0298C69.9114 45.5725 70.8287 45.9289 71.9461 45.8155C73.0635 45.7021 73.9808 45.1675 73.9808 44.6249C73.9808 44.0822 73.0635 43.7258 71.9461 43.8392C70.8287 43.9526 69.9114 44.4871 69.9114 45.0298ZM40.4085 70.2607C40.4085 70.8034 41.3258 71.1598 42.4432 71.0464C43.5606 70.933 44.4779 70.3984 44.4779 69.8557C44.4779 69.313 43.5606 68.9566 42.4432 69.07C41.3258 69.1834 40.4085 69.718 40.4085 70.2607ZM61.7727 62.1868C61.7727 62.7295 62.6899 63.0859 63.8074 62.9725C64.9248 62.8591 65.842 62.3245 65.842 61.7818C65.842 61.2391 64.9248 60.8827 63.8074 60.9961C62.6899 61.1095 61.7727 61.6441 61.7727 62.1868ZM82.1195 54.1129C82.1195 54.6556 83.0368 55.012 84.1542 54.8986C85.2716 54.7852 86.1889 54.2506 86.1889 53.7079C86.1889 53.1653 85.2716 52.8089 84.1542 52.9223C83.0368 53.0357 82.1195 53.5702 82.1195 54.1129Z" stroke="currentColor" stroke-width="1.5" stroke-miterlimit="10" stroke-linecap="round" fill="none" />
</svg>