<?xml version='1.0' encoding='utf-8'?>
<svg xmlns="http://www.w3.org/2000/svg" width="110" height="110" viewBox="0 0 110 110" fill="none" stroke="currentColor" stroke-width="1.5">
<path d="M51.8823 74.3216L52.2338 73.9026M52.2338 73.9026L53.0364 72.9461M52.2338 73.9026C54.4516 71.1318 55.6192 67.5189 55.215 63.7115C54.4032 56.064 47.5599 50.547 39.9165 51.3781C36.4944 51.7502 33.4961 53.3314 31.3009 55.6507M52.2338 73.9026C49.9971 76.6971 46.6923 78.6351 42.8543 79.0524C35.211 79.8835 28.3677 74.3666 27.5559 66.7191C27.1624 63.0127 28.2584 59.4908 30.3625 56.7505M53.0364 72.9461L55.5634 69.9347C60.3863 63.949 59.459 55.2143 53.4899 50.4021C47.5207 45.5899 38.7908 46.5391 33.968 52.5248L31.5353 55.376M53.0364 72.9461C56.0574 71.9926 58.9695 70.0139 61.1102 67.357L61.1118 67.3551M53.0364 72.9461L53.0353 72.9465M31.5353 55.376L31.3009 55.6507M31.5353 55.376C31.8249 52.2203 33.0575 49.1246 35.1985 46.4674M31.3009 55.6507L30.3625 56.7505M31.3009 55.6507C30.9694 56.001 30.6561 56.3682 30.3625 56.7505M30.3625 56.7505L30.3244 56.7952M35.1985 46.4674C40.9815 39.29 51.4648 38.1501 58.6223 43.9203C65.7792 49.69 66.8931 60.1778 61.1118 67.3551M35.1985 46.4674L63.4713 11.941C69.4521 6.76 78.4447 6.42792 84.8084 11.5582C91.1101 16.6385 92.7267 25.3766 89.0764 32.2919L61.1118 67.3551M42.1117 69.9112C42.5086 69.3604 42.7103 68.6682 42.6331 67.941C42.4665 66.371 41.0636 65.2401 39.473 65.413C38.4067 65.529 37.5458 66.1994 37.1444 67.1017M42.1117 69.9112C41.6517 70.5495 40.9296 70.9979 40.0757 71.0907C38.4851 71.2637 37.0822 70.1327 36.9156 68.5627C36.8606 68.0452 36.947 67.5454 37.1444 67.1017M42.1117 69.9112L44.2098 66.8198C44.3817 66.3974 44.4544 65.9278 44.4029 65.4426C44.2362 63.8726 42.8334 62.7417 41.2427 62.9146C40.2887 63.0184 39.4991 63.566 39.0558 64.3265L37.1444 67.1017M33.0711 66.4318C32.5911 61.91 35.8578 57.8556 40.3771 57.3642C44.8964 56.8728 48.9396 60.1323 49.4196 64.6541C49.8996 69.1759 46.6329 73.2302 42.1136 73.7217C37.5943 74.2131 33.5511 70.9536 33.0711 66.4318ZM86.1972 27.2524L68.5517 48.5677C67.9123 44.6631 65.8966 40.9707 62.5774 38.2948C59.2582 35.6189 55.2228 34.4331 51.2726 34.6377L68.9181 13.3223C72.8683 13.1177 76.9037 14.3036 80.2229 16.9795C83.5422 19.6554 85.5579 23.3478 86.1972 27.2524Z" stroke="currentColor" stroke-width="1.5" stroke-miterlimit="10" stroke-linecap="round" fill="none" />
<path d="M43 94.0783C43 97.9021 40.537 101 37.5 101C34.463 101 32 97.9021 32 94.0783C32 90.2546 37.5 83 37.5 83C37.5 83 43 90.2546 43 94.0783Z" stroke="currentColor" stroke-width="1.5" stroke-miterlimit="10" stroke-linecap="round" stroke-linejoin="round" fill="none" />
</svg>