<?xml version='1.0' encoding='utf-8'?>
<svg xmlns="http://www.w3.org/2000/svg" id="Layer_1" data-name="Layer 1" width="110" height="110" viewBox="0 0 110 110">
  <path d="M85.1293,25.9252c-11.5793-.0054-23.2444-7.7355-27.7225-11.0589-1.804-1.3387-4.3154-1.3248-6.1061.0337-4.3798,3.3225-15.8104,11.0539-27.3348,11.0819-2.7904.0067-5.0586,2.2876-5.056,5.084l.0311,33.4964c.001,1.071.328,2.0914.9459,2.9504,10.5654,14.6874,27.0333,25.7093,31.8283,28.7374.8258.5218,1.7725.7823,2.7194.7815.9422-.0009,1.8845-.2607,2.707-.7795,4.8136-3.0354,21.3553-14.0821,32.1137-28.7786.6359-.8688.9716-1.9038.9706-2.9939l-.0311-33.4799c-.0026-2.7963-2.2748-5.073-5.0656-5.0746h0ZM54.3757,18.093" style="fill:none;stroke:currentColor;stroke-miterlimit:10;stroke-width:1.5" />
  <path d="M80.9497,29.7529c-10.1216-.0046-20.3181-6.7327-24.2324-9.6252-1.5769-1.1652-3.7721-1.153-5.3374.0294-3.8284,2.8918-13.8201,9.621-23.8936,9.6455-2.4391.0059-4.4217,1.9911-4.4195,4.425l.0271,29.1543c.0009.9322.2867,1.8203.8268,2.5679,9.2353,12.7835,23.6299,22.3765,27.8213,25.0121.7218.4541,1.5494.6809,2.3771.6802.8235-.0008,1.6473-.2269,2.3662-.6784,4.2076-2.642,18.6669-12.2567,28.0709-25.0482.5558-.7562.8493-1.657.8484-2.6058l-.027-29.1399c-.0023-2.4339-1.9884-4.4154-4.4279-4.4168h0Z" style="fill:none;stroke:currentColor;stroke-miterlimit:10;stroke-width:1.5" />
  <polyline points="39.2733 63.2946 39.2547 43.2934 59.2559 43.2749" style="fill:none;stroke:currentColor;stroke-linecap:round;stroke-linejoin:round;stroke-width:1.5" />
  <polyline points="49.8241 54.3734 56.6285 65.3579 71.417 45.343" style="fill:none;stroke:currentColor;stroke-linecap:round;stroke-linejoin:round;stroke-width:1.5" />
</svg>