<?xml version='1.0' encoding='utf-8'?>
<svg xmlns="http://www.w3.org/2000/svg" version="1.1" id="Layer_1" x="0px" y="0px" viewBox="0 0 110 110" style="enable-background:new 0 0 110 110;fill:none;stroke:currentColor;stroke-width:1.5" xml:space="preserve">
<path style="fill:none;stroke:currentColor;stroke-width:1.5" d="M88.06,37.53h2.3c5.78,0,10.46,7.84,10.46,17.51s-4.68,17.51-10.46,17.51h-2.3" />
<path style="fill:none;stroke:currentColor;stroke-width:1.5" d="M88.06,37.53c-5.78,0-10.46,7.84-10.46,17.51s4.68,17.51,10.46,17.51" />
<path style="fill:none;stroke:currentColor;stroke-width:1.5" d="M61.28,45.3h6.2h4.12c1.45,0,2.63,1.18,2.63,2.63c0,1.45-1.18,2.63-2.63,2.63H61.28" />
<path style="fill:none;stroke:currentColor;stroke-width:1.5" d="M24.33,37.82h29.3v2.69v27.72v3.46h-29.3c-1.92,0-3.48-1.56-3.48-3.48V41.3  C20.85,39.38,22.41,37.82,24.33,37.82z" />
<path style="fill:none;stroke:currentColor;stroke-width:1.5;stroke-linecap:round;stroke-linejoin:round" d="M67.48,94.02V62.27   M67.48,16.7v28.6 M61.28,59.64h6.2 M61.28,62.27h13.24v-2.63h-7.04 M61.28,45.3h6.2 M61.28,50.56H71.6c1.45,0,2.63-1.18,2.63-2.63  s-1.18-2.63-2.63-2.63h-4.12 M20.85,49.72H9.7 M20.85,60.37H9.7 M67.48,50.56v9.08 M53.63,40.51v-2.69h-29.3  c-1.92,0-3.48,1.56-3.48,3.48v26.91c0,1.92,1.56,3.48,3.48,3.48h29.3v-3.46 M53.63,40.51h7.65v27.72h-7.65 M53.63,40.51v27.72   M88.06,37.53h2.3c5.78,0,10.46,7.84,10.46,17.51s-4.68,17.51-10.46,17.51h-2.3c-5.78,0-10.46-7.84-10.46-17.51  S82.28,37.53,88.06,37.53z M81.65,59.64h3.81v2.63h-3.81V59.64z M90.59,59.64h3.81v2.63h-3.81V59.64z M89.3,47.93  c0,1.452-0.703,2.63-1.57,2.63c-0.867,0-1.57-1.178-1.57-2.63c0-1.453,0.703-2.63,1.57-2.63C88.597,45.3,89.3,46.477,89.3,47.93z" />
</svg>