<?xml version='1.0' encoding='utf-8'?>
<svg xmlns="http://www.w3.org/2000/svg" id="Layer_1" data-name="Layer 1" width="110" height="110" viewBox="0 0 110 110">
  <g>
    <g>
      <path d="M77.687,79.1774v12.0618c0,2.9605-2.4003,5.3608-5.3608,5.3608H29.44c-2.9605,0-5.3608-2.4003-5.3608-5.3608v-28.1443" style="fill:none;stroke:currentColor;stroke-linecap:square;stroke-linejoin:round;stroke-width:1.5" />
      <path d="M24.0792,38.9715v-20.1029c0-2.9605,2.4003-5.3608,5.3608-5.3608h42.8863c2.9605,0,5.3608,2.4003,5.3608,5.3608v4.0206" style="fill:none;stroke:currentColor;stroke-linecap:square;stroke-linejoin:round;stroke-width:1.5" />
      <polyline points="69.6459 22.8891 69.6459 21.5489 32.1204 21.5489 32.1204 36.2911" style="fill:none;stroke:currentColor;stroke-linecap:square;stroke-linejoin:round;stroke-width:1.5" />
      <polyline points="32.1204 65.7756 32.1204 80.5176 69.6459 80.5176 69.6459 79.1774" style="fill:none;stroke:currentColor;stroke-linecap:square;stroke-linejoin:round;stroke-width:1.5" />
      <line x1="45.5223" y1="88.5588" x2="56.2439" y2="88.5588" style="fill:none;stroke:currentColor;stroke-linecap:round;stroke-linejoin:round;stroke-width:1.5" />
    </g>
    <g>
      <line x1="25.4194" y1="47.0127" x2="40.1615" y2="47.0127" style="fill:none;stroke:currentColor;stroke-linecap:round;stroke-linejoin:round;stroke-width:1.5" />
      <line x1="29.44" y1="55.0538" x2="44.1821" y2="55.0538" style="fill:none;stroke:currentColor;stroke-linecap:round;stroke-linejoin:round;stroke-width:1.5" />
    </g>
  </g>
  <path d="M87.366,39.4845c5.7595,7.8894,5.078,19.0145-2.0449,26.1377-7.8772,7.8768-20.6487,7.8768-28.526,0-7.8767-7.8772-7.8767-20.6488,0-28.526,7.1233-7.1228,18.2484-7.8043,26.1377-2.0449M83.3808,43.4697c3.6329,5.6626,2.9745,13.2814-1.9776,18.2337-5.7131,5.7131-14.976,5.7131-20.6891,0-5.7131-5.7131-5.7131-14.976,0-20.6891,4.9523-4.9523,12.5711-5.6105,18.2337-1.9777M79.3082,47.5424c1.5542,3.3598.9459,7.4728-1.8239,10.2426-3.5491,3.5486-9.3028,3.5486-12.8518,0-3.5486-3.549-3.5486-9.3028,0-12.8518,2.7698-2.7699,6.8828-3.3782,10.2426-1.8239M74.4479,52.4027c-.1643.5358-.4581,1.0399-.882,1.4639-1.385,1.385-3.63,1.385-5.015,0-1.3849-1.385-1.3849-3.63,0-5.0149.424-.424.9281-.7177,1.4639-.8821M71.3236,51.1773l25.1975-25.1975M87.972,35.5406l5.0979,1.6024,5.9436-5.9435-5.098-1.6024M87.0527,34.6212l-1.6025-5.098,5.9435-5.9434,1.6025,5.0979" style="fill:none;stroke:currentColor;stroke-linecap:round;stroke-linejoin:round;stroke-width:1.5" />
</svg>