<?xml version='1.0' encoding='utf-8'?>
<svg xmlns="http://www.w3.org/2000/svg" id="Layer_1" data-name="Layer 1" width="110" height="110" viewBox="0 0 110 110">
  <path d="M63.6392,39.7873h-17.352l-8.6749,15.0227,8.676,15.0227h17.3509l8.676-15.0227-8.676-15.0227Z" style="fill:none;stroke:currentColor;stroke-width:1.5" />
  <path d="M32.1718,21.7985H14.8209l-8.676,15.0227,8.676,15.0354h17.3509l8.676-15.0354-8.676-15.0227Z" style="fill:none;stroke:currentColor;stroke-width:1.5" />
  <path d="M32.1718,58.1423H14.8209l-8.676,15.0238,8.676,15.0354h17.3509l8.676-15.0354-8.676-15.0238Z" style="fill:none;stroke:currentColor;stroke-width:1.5" />
  <path d="M95.1803,21.7985h-17.352l-8.676,15.0227,8.676,15.0354h17.3509l8.676-15.0354-8.6749-15.0227Z" style="fill:none;stroke:currentColor;stroke-width:1.5" />
  <path d="M95.1803,58.1423h-17.352l-8.676,15.0227,8.676,15.0354h17.3509l8.676-15.0354-8.6749-15.0227Z" style="fill:none;stroke:currentColor;stroke-width:1.5" />
  <path d="M21.156,34.5667l2.1198-6.5067,2.1198,6.5067h6.8372l-5.5384,4.0196,2.1198,6.5067-5.5384-4.0196-5.5384,4.0196,2.1198-6.5067-5.5384-4.0196h6.8372Z" style="fill:none;stroke:currentColor;stroke-width:1.5" />
  <path d="M84.7644,34.5667l2.1198-6.5067,2.1198,6.5067h6.8372l-5.5384,4.0196,2.1198,6.5067-5.5384-4.0196-5.5384,4.0196,2.1198-6.5067-5.5384-4.0196h6.8372Z" style="fill:none;stroke:currentColor;stroke-width:1.5" />
  <path d="M21.156,70.8989l2.1198-6.5067,2.1198,6.5067h6.8372l-5.5384,4.0196,2.1198,6.5067-5.5384-4.0196-5.5384,4.0196,2.1198-6.5067-5.5384-4.0196h6.8372Z" style="fill:none;stroke:currentColor;stroke-width:1.5" />
  <path d="M52.757,52.3471l2.1198-6.5067,2.1198,6.5067h6.8372l-5.5384,4.0196,2.1198,6.5067-5.5384-4.0196-5.5384,4.0196,2.1198-6.5067-5.5384-4.0196h6.8372Z" style="fill:none;stroke:currentColor;stroke-width:1.5" />
  <path d="M84.7644,70.8989l2.1198-6.5067,2.1198,6.5067h6.8372l-5.5384,4.0196,2.1198,6.5067-5.5384-4.0196-5.5384,4.0196,2.1198-6.5067-5.5384-4.0196h6.8372Z" style="fill:none;stroke:currentColor;stroke-width:1.5" />
  <path d="M63.6392,39.7873h-17.352l-8.6749,15.0227,8.676,15.0227h17.3509l8.676-15.0227-8.676-15.0227Z" style="fill:none;stroke:currentColor;stroke-linecap:round;stroke-linejoin:round;stroke-width:1.5" />
  <path d="M32.1718,21.7985H14.8209l-8.676,15.0227,8.676,15.0354h17.3509l8.676-15.0354-8.676-15.0227Z" style="fill:none;stroke:currentColor;stroke-linecap:round;stroke-linejoin:round;stroke-width:1.5" />
  <path d="M32.1718,58.1423H14.8209l-8.676,15.0238,8.676,15.0354h17.3509l8.676-15.0354-8.676-15.0238Z" style="fill:none;stroke:currentColor;stroke-linecap:round;stroke-linejoin:round;stroke-width:1.5" />
  <path d="M95.1803,21.7985h-17.352l-8.676,15.0227,8.676,15.0354h17.3509l8.676-15.0354-8.6749-15.0227Z" style="fill:none;stroke:currentColor;stroke-linecap:round;stroke-linejoin:round;stroke-width:1.5" />
  <path d="M95.1803,58.1423h-17.352l-8.676,15.0227,8.676,15.0354h17.3509l8.676-15.0354-8.6749-15.0227Z" style="fill:none;stroke:currentColor;stroke-linecap:round;stroke-linejoin:round;stroke-width:1.5" />
  <path d="M21.156,34.5667l2.1198-6.5067,2.1198,6.5067h6.8372l-5.5384,4.0196,2.1198,6.5067-5.5384-4.0196-5.5384,4.0196,2.1198-6.5067-5.5384-4.0196h6.8372Z" style="fill:none;stroke:currentColor;stroke-linecap:round;stroke-linejoin:round;stroke-width:1.5" />
  <path d="M21.156,34.5667l2.1198-6.5067,2.1198,6.5067h6.8372l-5.5384,4.0196,2.1198,6.5067-5.5384-4.0196-5.5384,4.0196,2.1198-6.5067-5.5384-4.0196h6.8372Z" style="fill:none;stroke:currentColor;stroke-linecap:round;stroke-linejoin:round;stroke-width:1.5" />
  <path d="M84.7644,34.5667l2.1198-6.5067,2.1198,6.5067h6.8372l-5.5384,4.0196,2.1198,6.5067-5.5384-4.0196-5.5384,4.0196,2.1198-6.5067-5.5384-4.0196h6.8372Z" style="fill:none;stroke:currentColor;stroke-linecap:round;stroke-linejoin:round;stroke-width:1.5" />
  <path d="M84.7644,34.5667l2.1198-6.5067,2.1198,6.5067h6.8372l-5.5384,4.0196,2.1198,6.5067-5.5384-4.0196-5.5384,4.0196,2.1198-6.5067-5.5384-4.0196h6.8372Z" style="fill:none;stroke:currentColor;stroke-linecap:round;stroke-linejoin:round;stroke-width:1.5" />
  <path d="M21.156,70.8989l2.1198-6.5067,2.1198,6.5067h6.8372l-5.5384,4.0196,2.1198,6.5067-5.5384-4.0196-5.5384,4.0196,2.1198-6.5067-5.5384-4.0196h6.8372Z" style="fill:none;stroke:currentColor;stroke-linecap:round;stroke-linejoin:round;stroke-width:1.5" />
  <path d="M21.156,70.8989l2.1198-6.5067,2.1198,6.5067h6.8372l-5.5384,4.0196,2.1198,6.5067-5.5384-4.0196-5.5384,4.0196,2.1198-6.5067-5.5384-4.0196h6.8372Z" style="fill:none;stroke:currentColor;stroke-linecap:round;stroke-linejoin:round;stroke-width:1.5" />
  <path d="M52.757,52.3471l2.1198-6.5067,2.1198,6.5067h6.8372l-5.5384,4.0196,2.1198,6.5067-5.5384-4.0196-5.5384,4.0196,2.1198-6.5067-5.5384-4.0196h6.8372Z" style="fill:none;stroke:currentColor;stroke-linecap:round;stroke-linejoin:round;stroke-width:1.5" />
  <path d="M52.757,52.3471l2.1198-6.5067,2.1198,6.5067h6.8372l-5.5384,4.0196,2.1198,6.5067-5.5384-4.0196-5.5384,4.0196,2.1198-6.5067-5.5384-4.0196h6.8372Z" style="fill:none;stroke:currentColor;stroke-linecap:round;stroke-linejoin:round;stroke-width:1.5" />
  <path d="M84.7644,70.8989l2.1198-6.5067,2.1198,6.5067h6.8372l-5.5384,4.0196,2.1198,6.5067-5.5384-4.0196-5.5384,4.0196,2.1198-6.5067-5.5384-4.0196h6.8372Z" style="fill:none;stroke:currentColor;stroke-linecap:round;stroke-linejoin:round;stroke-width:1.5" />
  <path d="M84.7644,70.8989l2.1198-6.5067,2.1198,6.5067h6.8372l-5.5384,4.0196,2.1198,6.5067-5.5384-4.0196-5.5384,4.0196,2.1198-6.5067-5.5384-4.0196h6.8372Z" style="fill:none;stroke:currentColor;stroke-linecap:round;stroke-linejoin:round;stroke-width:1.5" />
</svg>