<?xml version='1.0' encoding='utf-8'?>
<svg xmlns="http://www.w3.org/2000/svg" width="110" height="110" viewBox="0 0 110 110" fill="none" stroke="currentColor" stroke-width="1.5">
<path d="M57.8263 57.3752C42.7535 56.7197 31.5559 54.2909 31.5559 51.3784C31.5559 49.5837 35.8058 47.9824 42.5822 46.854M91.4833 47.2624C96.9322 48.3586 100.251 49.7986 100.251 51.3784C100.251 54.0437 90.841 56.3113 77.6629 57.171M92.4189 26.3715L95.4558 18.5997M91.561 17.0869L88.5153 24.8818M86.5589 52.8615L96.2899 27.9179M80.0716 69.487L84.3429 58.5359L85.1914 56.4799M68.4351 64.9088L84.6534 23.3398M59.6355 34.4951L58.0522 26.2522M53.9476 27.0193L55.541 35.2912M66.8829 50.0996L63.7236 33.6679M55.0537 54.7852L51.4567 36.0749M56.5845 63.0281L55.5001 57.2583M78.2196 74.5058V89.573C78.2196 92.1522 76.1321 94.2479 73.5629 94.2479H14.4062C11.837 94.2479 9.74951 92.1522 9.74951 89.573V74.5058C9.74951 71.9265 11.837 69.8309 14.4062 69.8309H66.1228M29.9501 89.7342V94.2479M38.5571 89.7342V94.2479M96.7181 25.6289C96.7181 29.0951 93.9191 31.905 90.4663 31.905C87.0135 31.905 84.2145 29.0951 84.2145 25.6289C84.2145 22.1626 87.0135 19.3527 90.4663 19.3527C93.9191 19.3527 96.7181 22.1626 96.7181 25.6289ZM92.5538 25.6289C92.5538 26.7862 91.6192 27.7245 90.4663 27.7245C89.3134 27.7245 88.3788 26.7862 88.3788 25.6289C88.3788 24.4715 89.3134 23.5332 90.4663 23.5332C91.6192 23.5332 92.5538 24.4715 92.5538 25.6289ZM95.594 17.8481C95.594 19.0055 94.6594 19.9437 93.5066 19.9437C92.3537 19.9437 91.419 19.0055 91.419 17.8481C91.419 16.6907 92.3537 15.7524 93.5066 15.7524C94.6594 15.7524 95.594 16.6907 95.594 17.8481ZM80.4998 67.1979C80.4998 70.6641 77.7008 73.4741 74.248 73.4741C70.7952 73.4741 67.9962 70.6641 67.9962 67.1979C67.9962 63.7317 70.7952 60.9217 74.248 60.9217C77.7008 60.9217 80.4998 63.7317 80.4998 67.1979ZM76.3355 67.1979C76.3355 68.3553 75.4009 69.2935 74.248 69.2935C73.0951 69.2935 72.1605 68.3553 72.1605 67.1979C72.1605 66.0405 73.0951 65.1022 74.248 65.1022C75.4009 65.1022 76.3355 66.0405 76.3355 67.1979ZM63.8426 34.8927C63.8426 38.3589 61.0436 41.1689 57.5908 41.1689C54.138 41.1689 51.339 38.3589 51.339 34.8927C51.339 31.4264 54.138 28.6165 57.5908 28.6165C61.0436 28.6165 63.8426 31.4264 63.8426 34.8927ZM59.6783 34.8927C59.6783 36.0501 58.7437 36.9883 57.5908 36.9883C56.4379 36.9883 55.5033 36.0501 55.5033 34.8927C55.5033 33.7353 56.4379 32.797 57.5908 32.797C58.7437 32.797 59.6783 33.7353 59.6783 34.8927ZM58.0939 26.6713C58.0939 27.8287 57.1593 28.7669 56.0064 28.7669C54.8535 28.7669 53.9189 27.8287 53.9189 26.6713C53.9189 25.5139 54.8535 24.5757 56.0064 24.5757C57.1593 24.5757 58.0939 25.5139 58.0939 26.6713ZM72.9848 81.6632C72.9848 85.0879 70.2193 87.8642 66.8079 87.8642C63.3965 87.8642 60.6311 85.0879 60.6311 81.6632C60.6311 78.2385 63.3965 75.4623 66.8079 75.4623C70.2193 75.4623 72.9848 78.2385 72.9848 81.6632ZM18.9131 78.4714H48.8447C50.8076 78.4714 52.3988 80.0688 52.3988 82.0394C52.3988 84.0099 50.8076 85.6074 48.8447 85.6074H18.9131C16.9502 85.6074 15.359 84.0099 15.359 82.0394C15.359 80.0688 16.9502 78.4714 18.9131 78.4714Z" stroke="currentColor" stroke-width="1.5" stroke-linecap="round" stroke-linejoin="round" fill="none" />
</svg>