<?xml version='1.0' encoding='utf-8'?>
<svg xmlns="http://www.w3.org/2000/svg" width="110" height="110" viewBox="0 0 110 110" fill="none" stroke="currentColor" stroke-width="1.5">
<path d="M77.7972 85.5599V28.5011C77.7972 23.1198 73.4518 18.7625 68.0852 18.7625H53.9843C49.1935 18.7625 45.1088 22.2701 44.381 27.0196L34.0823 92.2266M97.2321 85.2985V28.5011C97.2321 23.1198 92.8867 18.7625 87.5201 18.7625H73.4192C68.6284 18.7625 64.5437 22.2701 63.8158 27.0196L53.5234 92.2375M97.1802 27.488H77.7454M97.2321 42.9128H77.7972M97.2321 60.5708H77.7972M53.2021 35.1895L62.2406 60.549C62.8816 62.1503 63.0445 63.9041 62.7077 65.6035L58.3623 87.3682L63.5225 89.9499C64.6632 90.5163 64.2504 92.2375 62.9793 92.2375H47.3793C45.4999 92.2375 44.0659 90.5381 44.3701 88.6754L48.2266 65.4619C48.4982 63.8497 48.3136 62.2048 47.7161 60.6906L41.5827 44.7368L38.4277 63.7843C38.1018 65.9303 36.9937 67.8911 35.3316 69.2745L19.4926 82.488L22.0672 87.6623C22.6321 88.8061 21.2851 89.9281 20.2639 89.1656L7.97722 79.9172C6.41287 78.7407 6.33683 76.4096 7.836 75.1351L22.4257 62.7712C23.9575 61.4749 25.0113 59.6884 25.4023 57.7168L29.2046 38.6427M103.468 85.5403C103.468 88.9936 100.676 91.793 97.2321 91.793C93.7882 91.793 90.9964 88.9936 90.9964 85.5403C90.9964 82.087 93.7882 79.2876 97.2321 79.2876C100.676 79.2876 103.468 82.087 103.468 85.5403ZM100.708 85.4858C100.708 87.411 99.152 88.9717 97.2321 88.9717C95.3122 88.9717 93.7558 87.411 93.7558 85.4858C93.7558 83.5607 95.3122 82 97.2321 82C99.152 82 100.708 83.5607 100.708 85.4858ZM84.0329 85.5403C84.0329 88.9936 81.2411 91.793 77.7972 91.793C74.3533 91.793 71.5615 88.9936 71.5615 85.5403C71.5615 82.087 74.3533 79.2876 77.7972 79.2876C81.2411 79.2876 84.0329 82.087 84.0329 85.5403ZM81.2735 85.4858C81.2735 87.411 79.7171 88.9717 77.7972 88.9717C75.8773 88.9717 74.3209 87.411 74.3209 85.4858C74.3209 83.5607 75.8773 82 77.7972 82C79.7171 82 81.2735 83.5607 81.2735 85.4858Z" stroke="currentColor" stroke-width="1.5" stroke-miterlimit="10" fill="none" />
</svg>