<?xml version='1.0' encoding='utf-8'?>
<svg xmlns="http://www.w3.org/2000/svg" width="110" height="110" viewBox="0 0 110 110" fill="none" stroke="currentColor" stroke-width="1.5">
<path d="M77.3288 39.2858C80.3973 43.5594 81.8219 49.4221 80.0685 57.9968C80.0685 57.9968 74.5753 83.132 57.8767 96.9804C54.5753 99.7336 49.7397 99.6651 46.5205 96.816C30.9315 82.954 25.4658 58.0105 25.4658 58.0105C23.863 50.0932 24.7945 44.4909 27.1781 40.3268M37.3836 31.4233C41.4795 29.5193 47.3014 28.3824 52.7397 28.3824M47.3151 17.4654C47.3151 20.4838 44.868 22.9307 41.8493 22.9307C38.8307 22.9307 36.3836 20.4838 36.3836 17.4654C36.3836 14.4469 38.8307 12 41.8493 12C44.868 12 47.3151 14.4469 47.3151 17.4654ZM47.3151 17.4654V28.3824M47.3151 50.2165C50.9041 43.0389 52.7808 35.1217 52.7808 27.0948V17.4654M63.6849 17.4654V28.3824H85.5342M85.5342 39.2858H73.9041C67.8904 39.2858 62.6575 43.3677 61.2055 49.2029L58.2466 61.1336M36.3973 17.4654V29.0673M30.5342 15.4107L37.274 31.4918M20.5342 19.7666L30.9315 50.2165M24.5 74.5H40.5L46.5 65.5L52.5 80.5L61.5 68.5L65 74.5H80.5M63.6986 17.4654C63.6986 20.4838 61.2515 22.9307 58.2329 22.9307C55.2142 22.9307 52.7671 20.4838 52.7671 17.4654C52.7671 14.4469 55.2142 12 58.2329 12C61.2515 12 63.6986 14.4469 63.6986 17.4654ZM30.9315 17.4654C30.9315 20.4838 28.4844 22.9307 25.4658 22.9307C22.4471 22.9307 20 20.4838 20 17.4654C20 14.4469 22.4471 12 25.4658 12C28.4844 12 30.9315 14.4469 30.9315 17.4654ZM91 33.8341C91 36.8525 88.5529 39.2995 85.5342 39.2995C82.5156 39.2995 80.0685 36.8525 80.0685 33.8341C80.0685 30.8157 82.5156 28.3687 85.5342 28.3687C88.5529 28.3687 91 30.8157 91 33.8341Z" stroke="currentColor" stroke-width="1.5" stroke-linecap="round" fill="none" />
</svg>