<?xml version='1.0' encoding='utf-8'?>
<svg xmlns="http://www.w3.org/2000/svg" width="110" height="110" viewBox="0 0 110 110" fill="none" stroke="currentColor" stroke-width="1.5">
<path d="M12.8831 48.9847H97.1171V41.587C97.1171 36.3607 92.879 32.119 87.6569 32.119H12.8831V48.9847ZM12.8831 48.9847V20.8837M40.9611 26.5013H80.2653M46.5742 26.5013V48.9847M74.6522 26.5013V48.9847M12.8831 23.6988C12.8831 23.6988 29.7278 23.6862 29.7278 32.119M29.7349 48.9847L80.2653 83.7637M80.2653 48.9847L29.2051 83.7637M34.3894 83.9278C34.3894 86.7934 32.0683 89.1163 29.2051 89.1163C26.342 89.1163 24.0209 86.7934 24.0209 83.9278C24.0209 81.0623 26.342 78.7394 29.2051 78.7394C32.0683 78.7394 34.3894 81.0623 34.3894 83.9278ZM30.8197 83.7637C30.8197 84.6562 30.0968 85.3796 29.2051 85.3796C28.3135 85.3796 27.5906 84.6562 27.5906 83.7637C27.5906 82.8713 28.3135 82.1479 29.2051 82.1479C30.0968 82.1479 30.8197 82.8713 30.8197 83.7637ZM85.4621 83.9278C85.4621 86.7934 83.1411 89.1163 80.2779 89.1163C77.4147 89.1163 75.0937 86.7934 75.0937 83.9278C75.0937 81.0623 77.4147 78.7394 80.2779 78.7394C83.1411 78.7394 85.4621 81.0623 85.4621 83.9278ZM81.8798 83.7637C81.8798 84.6562 81.157 85.3796 80.2653 85.3796C79.3736 85.3796 78.6507 84.6562 78.6507 83.7637C78.6507 82.8713 79.3736 82.1479 80.2653 82.1479C81.157 82.1479 81.8798 82.8713 81.8798 83.7637Z" stroke="currentColor" stroke-width="1.5" stroke-miterlimit="10" stroke-linecap="round" fill="none" />
</svg>