<?xml version='1.0' encoding='utf-8'?>
<svg xmlns="http://www.w3.org/2000/svg" width="111" height="110" viewBox="0 0 111 110" fill="none" stroke="currentColor" stroke-width="1.5">
<path d="M77.4825 21.2853C76.9853 21.2853 76.4842 21.1388 76.029 20.8537C75.3786 20.4475 74.9055 19.799 74.7627 19.1203C74.2685 16.7639 75.8875 14.4426 77.7387 13.5598C77.7638 13.5481 77.7884 13.5364 77.8135 13.5246C77.6243 13.3225 77.4755 13.0803 77.3711 12.8029C76.9473 11.674 77.3933 10.1623 78.058 9.5109C78.9675 8.6203 79.985 8.1027 81.0015 8.0138C81.8401 7.9396 83.1113 8.13 84.4229 9.4454C85.8188 10.8458 85.8612 12.2374 85.6513 13.1593C85.2581 14.8829 83.6109 16.4962 81.4547 17.2687C80.455 17.6271 80.3091 18.1828 80.1076 18.9513C79.8977 19.7501 79.6104 20.8439 78.0698 21.215C77.8766 21.2619 77.68 21.2853 77.4825 21.2853ZM79.6849 14.2326C79.5957 14.2717 79.5056 14.3097 79.4139 14.3488C79.0946 14.4845 78.7384 14.6369 78.3516 14.8215C77.2341 15.3537 75.7604 16.9983 76.1462 18.8352C76.2113 19.1448 76.4552 19.4651 76.7829 19.6702C76.9627 19.7815 77.3243 19.9544 77.7352 19.8557C78.4211 19.6897 78.529 19.4036 78.7404 18.5989C78.966 17.7385 79.2755 16.5618 80.9744 15.9524C82.6625 15.3479 83.9884 14.1008 84.2731 12.8508C84.4658 12.0061 84.1781 11.1916 83.4177 10.4299C82.6742 9.6848 81.9017 9.342 81.1256 9.4084C80.2604 9.4846 79.5198 10.048 79.0512 10.507C78.7921 10.7609 78.4634 11.6984 78.695 12.3146C78.7649 12.5011 78.9143 12.7462 79.3932 12.8273C79.9958 12.5529 80.1874 12.4093 80.1884 12.214C80.1909 11.8283 80.5067 11.5177 80.895 11.5177H80.8989C81.2892 11.5197 81.6035 11.8351 81.6016 12.2218C81.5956 13.2306 80.8772 13.6954 79.9514 14.1154C79.8731 14.1711 79.7825 14.2121 79.6849 14.2326Z" fill="none" stroke="currentColor" stroke-width="1.5" />
<path d="M96.7837 20.8363L94.5768 18.6234C93.7554 17.7992 92.4103 17.7914 91.5791 18.6048L82.6545 27.345C82.3658 27.6272 82.2051 28.0042 82.2026 28.4065C82.2002 28.8098 82.3559 29.1887 82.6407 29.4739C82.6825 29.5159 82.682 29.5843 82.6402 29.6253L72.6655 39.3929C66.2685 41.4241 63.4832 44.4554 60.789 47.388C60.4258 47.7835 60.0617 48.18 59.6868 48.5765C56.8453 51.5805 22.1031 88.8041 13.6564 97.8568C12.9449 98.6185 12.938 99.7777 13.6406 100.554L14.4551 101.453C14.8285 101.865 15.3415 102.1 15.8997 102.117C15.9209 102.118 15.9421 102.118 15.9628 102.118C16.4979 102.118 16.9999 101.914 17.3828 101.54L96.7654 23.8071C97.5967 22.9935 97.6051 21.6615 96.7837 20.8363ZM16.39 100.543C16.2702 100.662 16.1166 100.712 15.9426 100.718C15.7741 100.712 15.6189 100.641 15.506 100.517L14.6916 99.6185C14.4797 99.3841 14.4802 99.0355 14.6936 98.808C23.1398 89.7553 57.8786 52.5355 60.7177 49.5336C61.0976 49.1322 61.4661 48.7309 61.8337 48.3305C64.482 45.4484 66.9967 42.7244 72.8479 40.8118L75.0918 43.062L16.39 100.543ZM95.7727 22.8109L76.0968 42.0777L74.0402 40.0151L83.6339 30.6205C84.2287 30.0365 84.234 29.0814 83.6467 28.4916L83.6472 28.3412L92.5718 19.601C92.7093 19.4662 92.8887 19.3998 93.0685 19.3998C93.2509 19.3998 93.4336 19.4691 93.5715 19.6078L95.7784 21.8197C96.0525 22.0951 96.0501 22.5394 95.7727 22.8109Z" fill="none" stroke="currentColor" stroke-width="1.5" />
<path d="M87.1849 13.5143L92.2358 18.5077L91.7761 18.9578L83.6629 26.9025L84.1876 27.4384L83.6629 26.9025L83.1888 27.3668L78.2262 22.3896L79.8237 22.0928L80.433 21.9796L80.4367 21.3599L80.4421 20.4588L81.2237 20.4638L81.9739 20.4686L81.9785 19.7184L81.9833 18.9299L82.7951 18.9345L83.5449 18.9387L83.5493 18.189L83.5542 17.3628L84.4322 17.3681L85.1822 17.3726L85.1867 16.6226L85.1916 15.8051L86.11 15.8105L86.7298 15.8141L86.8501 15.2061L87.1849 13.5143Z" stroke="currentColor" stroke-width="1.5" fill="none" />
</svg>