<?xml version='1.0' encoding='utf-8'?>
<svg xmlns="http://www.w3.org/2000/svg" version="1.1" id="Layer_1" x="0px" y="0px" viewBox="0 0 110 110" style="enable-background:new 0 0 110 110;fill:none;stroke:currentColor;stroke-width:1.5" xml:space="preserve">
<path style="fill:none;stroke:currentColor;stroke-width:1.5;stroke-linecap:round;stroke-linejoin:round" d="M56.566,20.295l2.238-1.562  c1.146-0.8,2.728-0.485,3.48,0.694L75.163,39.62c0.341,0.535,0.462,1.181,0.338,1.803L65.447,91.79  c-0.266,1.332-1.561,2.196-2.892,1.93l-32.51-6.49c-1.332-0.266-2.196-1.561-1.93-2.892l10.054-50.367  c0.124-0.622,0.484-1.172,1.004-1.535l11.053-7.716 M77.653,47.256c1.108,0.221,1.827,1.299,1.606,2.407l-9.654,48.36  c-0.266,1.332-1.561,2.196-2.892,1.93l-30.329-6.054c-1.205-0.24-1.986-1.412-1.746-2.617 M75.747,36.231  c2.952-2.051,5.145-5.204,5.904-9.007c1.557-7.8-3.504-15.386-11.304-16.943c-7.8-1.557-15.386,3.504-16.943,11.304  c-1.026,5.142,0.823,10.191,4.438,13.481 M61.596,34.972c0,2.333-1.892,4.225-4.225,4.225s-4.225-1.891-4.225-4.225  c0-2.333,1.892-4.225,4.225-4.225S61.596,32.639,61.596,34.972z M49.578,58.888l2.94-9.03l2.93,9.03h9.49l-7.68,5.58l2.93,9.03  l-7.68-5.58l-7.68,5.58l2.93-9.03l-7.67-5.58H49.578z" />
</svg>