<?xml version='1.0' encoding='utf-8'?>
<svg xmlns="http://www.w3.org/2000/svg" width="25" height="19" viewBox="0 0 25 19" fill="none">
<path d="M15.9544 0.180242C15.7141 -0.0600807 15.3244 -0.0600807 15.0841 0.180242C14.8438 0.420565 14.8438 0.810205 15.0841 1.05053L22.6489 8.61539H1.36538C1.02552 8.61539 0.75 8.8909 0.75 9.23077C0.75 9.57064 1.02552 9.84616 1.36538 9.84616H22.6489L15.0841 17.411C14.8438 17.6513 14.8438 18.041 15.0841 18.2813C15.3244 18.5216 15.7141 18.5216 15.9544 18.2813L24.5689 9.66677C24.5719 9.66381 24.5748 9.66083 24.5777 9.65781C24.6898 9.54165 24.7471 9.3923 24.7499 9.24213C24.75 9.23835 24.75 9.23457 24.75 9.23077C24.75 9.22698 24.75 9.22319 24.7499 9.21941C24.7485 9.14085 24.7323 9.06589 24.7041 8.99716C24.6741 8.92385 24.6293 8.85516 24.5698 8.79563L15.9544 0.180242Z" fill="currentColor" />
</svg>