<?xml version="1.0" encoding="UTF-8"?>
<svg id="Layer_1" data-name="Layer 1" xmlns="http://www.w3.org/2000/svg" width="27" height="26" viewBox="0 0 27 26">
  <path style="fill: currentColor" d="M26.0498,21.1704h0l-.0002.003c-.0289.4903-.4327.8961-.9265.8961h-4.6017c-.4933,0-.8991-.4058-.8991-.8991v-9.1762c0-.4933.4058-.8991.8991-.8991h4.6292c.4933,0,.8991.4058.8991.8991v9.1762ZM25.1004,21.1206l-.0271-9.1036-4.5294.0268v9.1037l4.5565-.0269Z"/>
  <path style="fill: currentColor" d="M18.2524,21.6292l-.0014-.0153.0012.0153c-.9775.0815-1.7649.4073-2.2534.6787l-.0003.0002c-.6094.3323-1.3012.526-2.0197.5813h0s-.0038,0-.0038,0h-.0001s-.0008.0001-.0019.0001l-.0062.0002-.0219.0009-.079.0033-.2876.0122c-.2455.0102-.5937.0244-1.0143.0398-.8412.0308-1.9723.0668-3.1523.0873-1.1799.0205-2.4091.0257-3.4465-.0051-1.0347-.0308-1.8856-.0975-2.304-.2229-.5595-.1679-.9818-.5046-1.235-.9832-.3847-.7146-.2569-1.56-.1743-1.9801-1.0762-1.1437-.9598-2.2645-.6618-2.9123-.555-.7048-.6763-1.4954-.6317-2.174.0441-.6721.2511-1.237.3633-1.5065-.4625-1.6528.09-2.6795.675-3.2643.5294-.5294,1.2256-.8355,1.9766-.8911h.0011s5.7911-.2991,5.7911-.2991c.0039-.0838-.012-.1802-.0451-.2881-.0386-.1257-.0996-.264-.1759-.4116-.1298-.2511-.3014-.5243-.4765-.8031-.031-.0493-.0621-.0989-.0931-.1485-.2463-.3831-.4938-.7682-.714-1.181l-.0003-.0007c-.5-.9725-.528-2.1392-.0556-3.1395l.0005-.0009c.0076-.0152.0151-.0283.0215-.0395l.0014-.0024c.006-.0105.0108-.0186.0148-.0267.0079-.0157.0119-.0285.0119-.0461v-.0126l.006-.0111c.3933-.7303,1.1785-1.1768,2.1257-1.1768,1.001,0,1.8696.473,2.2633,1.2598.4845.9287.9242,1.753,1.3085,2.4733.1347.2525.2625.4922.3832.7192.9089.5827,1.4658,1.4653,1.8022,2.2652.333.7918.4518,1.5066.4818,1.7796.4345.6916.7314,1.0748.9651,1.2952.2319.2187.4012.2768.5856.3163l.0007.0002c.3799.0876.6414.4373.6414.8157v8.4895c.0281.3811-.2369.6791-.5661.709ZM15.8225,10.4577h-.0002s-.0022-.0044-.0022-.0044l-.0019-.0037c-.0268-.0539-.0551-.1106-.083-.1947l-.0025-.0077v-.008s-.0001-.0007-.0002-.0025l-.0006-.0077c-.0005-.0066-.0014-.0154-.0027-.0265-.0026-.0222-.0066-.0528-.0123-.091-.0114-.0762-.0296-.1823-.0568-.3105-.0543-.2565-.1444-.6015-.2871-.9752-.2857-.7482-.7797-1.6051-1.614-2.1038-.0654-.0332-.1254-.0959-.1818-.1804h-.0002s-.0021-.0038-.0021-.0038c-.4932-.9044-1.0687-2.0004-1.7535-3.3153l-.0004-.0007c-.2356-.4711-.8171-.7666-1.4619-.7666-.6153,0-1.0899.267-1.326.6867l.0017.0009-.0099.0099c-.0067.0067-.0105.0132-.0163.0277-.0013.0031-.0026.0066-.0041.0106-.0056.0146-.0132.0345-.025.0579-.3488.7247-.3222,1.5843.0544,2.3106l.0003.0006c.138.2759.3039.5365.4689.7957.0626.0984.1251.1966.1859.2953.2733.4099.5425.8172.7225,1.2151.1798.3978.2734.7925.1885,1.1769-.0595.3811-.3819.6417-.7575.6706h0s-.0013,0-.0013,0l-5.8892.3013h0c-.5354.0267-1.0169.2407-1.3915.6154-.5852.5852-.7239,1.4127-.3983,2.4976h0l.0006.0023c.0282.113.0318.2375-.0311.3362-.0035.0088-.0095.0223-.0174.0403-.062.1403-.2438.5521-.3134,1.0734-.081.6075-.0061,1.3495.5953,1.9508h0c.1538.1538.1853.4294.0304.6151l.0002.0002-.0032.0032s0,0-.0006.0008c-.0028.0036-.0139.0179-.0307.0444-.0191.0303-.044.0739-.0693.1297-.0506.1114-.1026.2706-.1142.4671-.023.3908.1135.9386.7619,1.5601h0s.0008.0007.0008.0007c.1186.1186.1844.3025.1213.4628l-.0002.0007-.0023.0077c-.002.0069-.005.0172-.0087.0306-.0074.0268-.0176.066-.0287.1151-.0223.0982-.0485.2356-.0636.3922-.0305.3151-.0157.6997.1547,1.0012h0s.0011.0022.0011.0022c.1288.2576.3613.4154.6828.5226.2533.0799.7468.1345,1.3979.1688.6493.0342,1.4495.0479,2.312.0479,2.2178,0,4.8191-.0821,6.2974-.1642h.0004c.5675-.027,1.135-.1893,1.6213-.4592.518-.2999,1.3568-.6527,2.3852-.7684l-.0004-8.1853c-.2756-.0862-.5326-.2228-.8229-.4947-.33-.3092-.7026-.7929-1.1963-1.5745Z"/>
</svg>