<?xml version="1.0" encoding="UTF-8"?>
<svg id="Layer_1" data-name="Layer 1" xmlns="http://www.w3.org/2000/svg" width="27" height="26" viewBox="0 0 27 26">
  <path style="fill: currentColor" d="M26.0498,3.8296h0l-.0002-.0029c-.029-.4904-.4327-.8962-.9265-.8962h-4.6017c-.4933,0-.8991.4059-.8991.8991v9.1762c0,.4933.4058.8991.8991.8991h4.6292c.4933,0,.8991-.4059.8991-.8991V3.8296ZM25.1004,3.8794l-.0271,9.1035-4.5294-.0267V3.8525l4.5565.0269Z"/>
  <path style="fill: currentColor" d="M18.2523,3.3708l-.0014.0154.0013-.0154c-.9775-.0814-1.765-.4073-2.2534-.6787l-.0004-.0002c-.6094-.3323-1.3011-.526-2.0196-.5813h0s-.0039-.0001-.0039-.0001t0,0s-.0008,0-.0019,0l-.0062-.0002-.0219-.0009-.079-.0033-.2876-.0122c-.2456-.0103-.5937-.0244-1.0143-.0398-.8412-.0308-1.9723-.0668-3.1523-.0873-1.1799-.0206-2.4091-.0257-3.4464.0052-1.0347.0308-1.8856.0974-2.304.2229-.5595.1678-.9818.5046-1.235.9832-.3847.7146-.2569,1.56-.1743,1.9801-1.0762,1.1437-.9598,2.2645-.6618,2.9122-.555.7048-.6763,1.4955-.6317,2.174.0441.6721.2511,1.237.3633,1.5065-.4625,1.6528.09,2.6795.675,3.2643.5294.5293,1.2256.8354,1.9766.8911h.0011s5.7911.2991,5.7911.2991c.0039.0838-.012.1802-.0451.2882-.0386.1257-.0996.264-.1759.4116-.1298.251-.3014.5243-.4765.8031-.031.0493-.062.0988-.093.1484-.2463.3831-.4938.7682-.714,1.181l-.0003.0007c-.5.9724-.528,2.1392-.0556,3.1395l.0005.0009c.0076.0152.0151.0283.0215.0396l.0014.0024c.0061.0104.0108.0186.0148.0267.0078.0156.0119.0284.0119.046v.0127l.006.0111c.3933.7303,1.1784,1.1767,2.1257,1.1767,1.001,0,1.8696-.4729,2.2632-1.2598.4846-.9287.9243-1.7531,1.3086-2.4735.1347-.2524.2626-.4921.3831-.7191.909-.5827,1.4659-1.4653,1.8023-2.2652.333-.7918.4518-1.5066.4817-1.7796.4346-.6916.7315-1.0749.9652-1.2953.2319-.2186.4011-.2767.5856-.3162l.0007-.0002c.3799-.0876.6414-.4373.6414-.8157V4.0798c.0281-.3811-.2369-.6791-.5662-.709ZM15.8225,14.5423l-.0002-.0002-.0023.0046-.0018.0037c-.0268.0539-.0551.1106-.083.1947l-.0026.0076v.0081s0,.0005-.0001.0025l-.0006.0077c-.0006.0066-.0015.0154-.0027.0265-.0026.0222-.0066.0528-.0123.0909-.0114.0763-.0296.1823-.0568.3106-.0544.2565-.1444.6015-.2871.9752-.2857.7481-.7797,1.6051-1.614,2.1038-.0654.0331-.1254.0958-.1818.1804h-.0002s-.0021.0038-.0021.0038c-.4932.9044-1.0688,2.0004-1.7536,3.3153l-.0003.0008c-.2356.4711-.8172.7666-1.4619.7666-.6153,0-1.0899-.267-1.326-.6867l.0017-.0009-.0099-.0099c-.0067-.0067-.0105-.0132-.0163-.0277-.0012-.0031-.0026-.0067-.0041-.0106-.0056-.0146-.0132-.0345-.025-.0579-.3488-.7247-.3222-1.5844.0544-2.3106l.0003-.0007c.138-.2758.3039-.5365.4689-.7956.0626-.0984.1251-.1966.1859-.2953.2732-.41.5425-.8172.7224-1.2151.1799-.3977.2735-.7925.1886-1.1768-.0595-.3811-.3819-.6418-.7575-.6706h-.0013s-5.8892-.3014-5.8892-.3014h0c-.5355-.0267-1.0169-.2407-1.3916-.6154-.5852-.5852-.7239-1.4127-.3983-2.4976h0l.0006-.0023c.0282-.113.0318-.2375-.0311-.3362-.0035-.0088-.0095-.0223-.0174-.0403-.0619-.1403-.2438-.5521-.3133-1.0734-.081-.6075-.0061-1.3495.5953-1.9508h0c.1538-.1538.1853-.4294.0304-.6152h.0002s-.0032-.0033-.0032-.0033c.0001.0001,0-.0001-.0006-.0008-.0028-.0035-.0139-.0178-.0307-.0444-.0191-.0303-.044-.0739-.0693-.1296-.0506-.1115-.1026-.2707-.1142-.4672-.023-.3908.1135-.9386.7619-1.56h0s.0008-.0007.0008-.0007c.1186-.1186.1844-.3025.1213-.4628l-.0002-.0007-.0023-.0077c-.002-.0069-.005-.0172-.0087-.0306-.0074-.0268-.0176-.066-.0287-.1151-.0223-.0982-.0485-.2356-.0636-.3922-.0305-.3151-.0157-.6997.1547-1.0012h0s.0011-.0022.0011-.0022c.1288-.2576.3613-.4154.6829-.5226.2533-.0799.7468-.1346,1.3979-.1688.6493-.0342,1.4495-.0479,2.312-.0479,2.2178,0,4.8191.0821,6.2974.1643h.0004c.5675.027,1.1349.1893,1.6213.4592.518.2998,1.3568.6527,2.3852.7683l-.0004,8.1853c-.2756.0862-.5326.2227-.8229.4947-.3301.3092-.7026.7929-1.1963,1.5745Z"/>
</svg>